<?xml version="1.0" encoding="UTF-8" standalone="no"?>
<!DOCTYPE svg PUBLIC "-//W3C//DTD SVG 1.1//EN"
 "http://www.w3.org/Graphics/SVG/1.1/DTD/svg11.dtd">
<!-- Generated by graphviz version 2.38.0 (20140413.2041)
 -->
<!-- Title: ExecutionController Pages: 1 -->
<svg width="302pt" height="104pt"
 viewBox="0.00 0.00 302.00 104.00" xmlns="http://www.w3.org/2000/svg" xmlns:xlink="http://www.w3.org/1999/xlink">
<g id="graph0" class="graph" transform="scale(1 1) rotate(0) translate(4 100)">
<title>ExecutionController</title>
<polygon fill="white" stroke="none" points="-4,4 -4,-100 298,-100 298,4 -4,4"/>
<!-- Node0 -->
<g id="node1" class="node"><title>Node0</title>
<polygon fill="#bfbfbf" stroke="black" points="0,-38.5 0,-57.5 102,-57.5 102,-38.5 0,-38.5"/>
<text text-anchor="middle" x="51" y="-45.5" font-family="Helvetica,sans-Serif" font-size="10.00">ExecutionController</text>
</g>
<!-- Node1 -->
<g id="node2" class="node"><title>Node1</title>
<g id="a_node2"><a xlink:href="class_fixed_execution_controller.html" target="_top" xlink:title="FixedExecutionController">
<polygon fill="white" stroke="black" points="153,-76.5 153,-95.5 279,-95.5 279,-76.5 153,-76.5"/>
<text text-anchor="middle" x="216" y="-83.5" font-family="Helvetica,sans-Serif" font-size="10.00">FixedExecutionController</text>
</a>
</g>
</g>
<!-- Node0&#45;&gt;Node1 -->
<g id="edge1" class="edge"><title>Node0&#45;&gt;Node1</title>
<path fill="none" stroke="midnightblue" d="M103.028,-59.8961C125.939,-65.2374 152.604,-71.4537 174.164,-76.4799"/>
<polygon fill="midnightblue" stroke="midnightblue" points="103.665,-56.4509 93.1318,-57.589 102.076,-63.2681 103.665,-56.4509"/>
</g>
<!-- Node2 -->
<g id="node3" class="node"><title>Node2</title>
<g id="a_node3"><a xlink:href="class_interruptable_execution_controller.html" target="_top" xlink:title="InterruptableExecutionController">
<polygon fill="white" stroke="black" points="138,-38.5 138,-57.5 294,-57.5 294,-38.5 138,-38.5"/>
<text text-anchor="middle" x="216" y="-45.5" font-family="Helvetica,sans-Serif" font-size="10.00">InterruptableExecutionController</text>
</a>
</g>
</g>
<!-- Node0&#45;&gt;Node2 -->
<g id="edge2" class="edge"><title>Node0&#45;&gt;Node2</title>
<path fill="none" stroke="midnightblue" d="M112.262,-48C120.635,-48 129.328,-48 137.955,-48"/>
<polygon fill="midnightblue" stroke="midnightblue" points="112.235,-44.5001 102.235,-48 112.235,-51.5001 112.235,-44.5001"/>
</g>
<!-- Node3 -->
<g id="node4" class="node"><title>Node3</title>
<g id="a_node4"><a xlink:href="class_unbounded_execution_controller.html" target="_top" xlink:title="UnboundedExecutionController">
<polygon fill="white" stroke="black" points="140,-0.5 140,-19.5 292,-19.5 292,-0.5 140,-0.5"/>
<text text-anchor="middle" x="216" y="-7.5" font-family="Helvetica,sans-Serif" font-size="10.00">UnboundedExecutionController</text>
</a>
</g>
</g>
<!-- Node0&#45;&gt;Node3 -->
<g id="edge3" class="edge"><title>Node0&#45;&gt;Node3</title>
<path fill="none" stroke="#8b1a1a" d="M103.028,-36.1039C125.939,-30.7626 152.604,-24.5463 174.164,-19.5201"/>
<polygon fill="#8b1a1a" stroke="#8b1a1a" points="102.076,-32.7319 93.1318,-38.411 103.665,-39.5491 102.076,-32.7319"/>
</g>
</g>
</svg>
