<?xml version="1.0" encoding="UTF-8" standalone="no"?>
<!DOCTYPE svg PUBLIC "-//W3C//DTD SVG 1.1//EN"
 "http://www.w3.org/Graphics/SVG/1.1/DTD/svg11.dtd">
<!-- Generated by graphviz version 2.38.0 (20140413.2041)
 -->
<!-- Title: event::PutManifestComplete Pages: 1 -->
<svg width="149pt" height="220pt"
 viewBox="0.00 0.00 149.00 220.00" xmlns="http://www.w3.org/2000/svg" xmlns:xlink="http://www.w3.org/1999/xlink">
<g id="graph0" class="graph" transform="scale(1 1) rotate(0) translate(4 216)">
<title>event::PutManifestComplete</title>
<polygon fill="white" stroke="none" points="-4,4 -4,-216 145,-216 145,4 -4,4"/>
<!-- Node2 -->
<g id="node1" class="node"><title>Node2</title>
<polygon fill="#bfbfbf" stroke="black" points="0,-0.5 0,-19.5 141,-19.5 141,-0.5 0,-0.5"/>
<text text-anchor="middle" x="70.5" y="-7.5" font-family="Helvetica,sans-Serif" font-size="10.00">event::PutManifestComplete</text>
</g>
<!-- Node3 -->
<g id="node2" class="node"><title>Node3</title>
<g id="a_node2"><a xlink:href="classevent_1_1_base_event.html" target="_top" xlink:title="Base class for all event objects. ">
<polygon fill="white" stroke="black" points="23,-57.5 23,-76.5 118,-76.5 118,-57.5 23,-57.5"/>
<text text-anchor="middle" x="70.5" y="-64.5" font-family="Helvetica,sans-Serif" font-size="10.00">event::BaseEvent</text>
</a>
</g>
</g>
<!-- Node3&#45;&gt;Node2 -->
<g id="edge1" class="edge"><title>Node3&#45;&gt;Node2</title>
<path fill="none" stroke="midnightblue" d="M70.5,-47.1166C70.5,-37.8173 70.5,-27.0557 70.5,-19.7149"/>
<polygon fill="midnightblue" stroke="midnightblue" points="67.0001,-47.4062 70.5,-57.4062 74.0001,-47.4063 67.0001,-47.4062"/>
</g>
<!-- Node4 -->
<g id="node3" class="node"><title>Node4</title>
<g id="a_node3"><a xlink:title="STL class. ">
<polygon fill="white" stroke="#bfbfbf" points="40.5,-124.5 40.5,-143.5 100.5,-143.5 100.5,-124.5 40.5,-124.5"/>
<text text-anchor="middle" x="70.5" y="-131.5" font-family="Helvetica,sans-Serif" font-size="10.00">std::string</text>
</a>
</g>
</g>
<!-- Node4&#45;&gt;Node3 -->
<g id="edge2" class="edge"><title>Node4&#45;&gt;Node3</title>
<path fill="none" stroke="#9a32cd" stroke-dasharray="5,2" d="M70.5,-114.037C70.5,-101.67 70.5,-86.1198 70.5,-76.6273"/>
<polygon fill="#9a32cd" stroke="#9a32cd" points="67.0001,-114.234 70.5,-124.234 74.0001,-114.234 67.0001,-114.234"/>
<text text-anchor="middle" x="87" y="-98" font-family="Helvetica,sans-Serif" font-size="10.00"> variant</text>
</g>
<!-- Node5 -->
<g id="node4" class="node"><title>Node5</title>
<g id="a_node4"><a xlink:title="STL class. ">
<polygon fill="white" stroke="#bfbfbf" points="23,-181.5 23,-211.5 118,-211.5 118,-181.5 23,-181.5"/>
<text text-anchor="start" x="31" y="-199.5" font-family="Helvetica,sans-Serif" font-size="10.00">std::basic_string&lt;</text>
<text text-anchor="middle" x="70.5" y="-188.5" font-family="Helvetica,sans-Serif" font-size="10.00"> char &gt;</text>
</a>
</g>
</g>
<!-- Node5&#45;&gt;Node4 -->
<g id="edge3" class="edge"><title>Node5&#45;&gt;Node4</title>
<path fill="none" stroke="midnightblue" d="M70.5,-171.352C70.5,-161.513 70.5,-150.775 70.5,-143.54"/>
<polygon fill="midnightblue" stroke="midnightblue" points="67.0001,-171.468 70.5,-181.468 74.0001,-171.468 67.0001,-171.468"/>
</g>
</g>
</svg>
