<?xml version="1.0" encoding="UTF-8" standalone="no"?>
<!DOCTYPE svg PUBLIC "-//W3C//DTD SVG 1.1//EN"
 "http://www.w3.org/Graphics/SVG/1.1/DTD/svg11.dtd">
<!-- Generated by graphviz version 2.38.0 (20140413.2041)
 -->
<!-- Title: Uptane::UnmetThreshold Pages: 1 -->
<svg width="200pt" height="220pt"
 viewBox="0.00 0.00 199.50 220.00" xmlns="http://www.w3.org/2000/svg" xmlns:xlink="http://www.w3.org/1999/xlink">
<g id="graph0" class="graph" transform="scale(1 1) rotate(0) translate(4 216)">
<title>Uptane::UnmetThreshold</title>
<polygon fill="white" stroke="none" points="-4,4 -4,-216 195.5,-216 195.5,4 -4,4"/>
<!-- Node4 -->
<g id="node1" class="node"><title>Node4</title>
<polygon fill="#bfbfbf" stroke="black" points="36,-0.5 36,-19.5 162,-19.5 162,-0.5 36,-0.5"/>
<text text-anchor="middle" x="99" y="-7.5" font-family="Helvetica,sans-Serif" font-size="10.00">Uptane::UnmetThreshold</text>
</g>
<!-- Node5 -->
<g id="node2" class="node"><title>Node5</title>
<g id="a_node2"><a xlink:href="class_uptane_1_1_exception.html" target="_top" xlink:title="Uptane::Exception">
<polygon fill="white" stroke="black" points="50,-57.5 50,-76.5 148,-76.5 148,-57.5 50,-57.5"/>
<text text-anchor="middle" x="99" y="-64.5" font-family="Helvetica,sans-Serif" font-size="10.00">Uptane::Exception</text>
</a>
</g>
</g>
<!-- Node5&#45;&gt;Node4 -->
<g id="edge1" class="edge"><title>Node5&#45;&gt;Node4</title>
<path fill="none" stroke="midnightblue" d="M99,-47.1166C99,-37.8173 99,-27.0557 99,-19.7149"/>
<polygon fill="midnightblue" stroke="midnightblue" points="95.5001,-47.4062 99,-57.4062 102.5,-47.4063 95.5001,-47.4062"/>
</g>
<!-- Node6 -->
<g id="node3" class="node"><title>Node6</title>
<g id="a_node3"><a xlink:title="STL class. ">
<polygon fill="white" stroke="#bfbfbf" points="2.5,-124.5 2.5,-143.5 83.5,-143.5 83.5,-124.5 2.5,-124.5"/>
<text text-anchor="middle" x="43" y="-131.5" font-family="Helvetica,sans-Serif" font-size="10.00">std::logic_error</text>
</a>
</g>
</g>
<!-- Node6&#45;&gt;Node5 -->
<g id="edge2" class="edge"><title>Node6&#45;&gt;Node5</title>
<path fill="none" stroke="midnightblue" d="M57.0992,-116.635C68.0512,-103.923 82.805,-86.7978 91.5672,-76.6273"/>
<polygon fill="midnightblue" stroke="midnightblue" points="54.4279,-114.373 50.5524,-124.234 59.7312,-118.942 54.4279,-114.373"/>
</g>
<!-- Node7 -->
<g id="node4" class="node"><title>Node7</title>
<g id="a_node4"><a xlink:title="STL class. ">
<polygon fill="white" stroke="#bfbfbf" points="0,-187 0,-206 78,-206 78,-187 0,-187"/>
<text text-anchor="middle" x="39" y="-194" font-family="Helvetica,sans-Serif" font-size="10.00">std::exception</text>
</a>
</g>
</g>
<!-- Node7&#45;&gt;Node6 -->
<g id="edge3" class="edge"><title>Node7&#45;&gt;Node6</title>
<path fill="none" stroke="midnightblue" d="M40.2331,-176.849C40.9649,-165.781 41.8581,-152.272 42.428,-143.652"/>
<polygon fill="midnightblue" stroke="midnightblue" points="36.7405,-176.623 39.5731,-186.832 43.7253,-177.085 36.7405,-176.623"/>
</g>
<!-- Node8 -->
<g id="node5" class="node"><title>Node8</title>
<g id="a_node5"><a xlink:title="STL class. ">
<polygon fill="white" stroke="#bfbfbf" points="110,-124.5 110,-143.5 170,-143.5 170,-124.5 110,-124.5"/>
<text text-anchor="middle" x="140" y="-131.5" font-family="Helvetica,sans-Serif" font-size="10.00">std::string</text>
</a>
</g>
</g>
<!-- Node8&#45;&gt;Node5 -->
<g id="edge4" class="edge"><title>Node8&#45;&gt;Node5</title>
<path fill="none" stroke="#9a32cd" stroke-dasharray="5,2" d="M128.983,-115.535C121.045,-102.95 110.674,-86.5072 104.442,-76.6273"/>
<polygon fill="#9a32cd" stroke="#9a32cd" points="126.175,-117.643 134.471,-124.234 132.096,-113.909 126.175,-117.643"/>
<text text-anchor="middle" x="148" y="-98" font-family="Helvetica,sans-Serif" font-size="10.00"> reponame_</text>
</g>
<!-- Node9 -->
<g id="node6" class="node"><title>Node9</title>
<g id="a_node6"><a xlink:title="STL class. ">
<polygon fill="white" stroke="#bfbfbf" points="96.5,-181.5 96.5,-211.5 191.5,-211.5 191.5,-181.5 96.5,-181.5"/>
<text text-anchor="start" x="104.5" y="-199.5" font-family="Helvetica,sans-Serif" font-size="10.00">std::basic_string&lt;</text>
<text text-anchor="middle" x="144" y="-188.5" font-family="Helvetica,sans-Serif" font-size="10.00"> char &gt;</text>
</a>
</g>
</g>
<!-- Node9&#45;&gt;Node8 -->
<g id="edge5" class="edge"><title>Node9&#45;&gt;Node8</title>
<path fill="none" stroke="midnightblue" d="M142.403,-171.352C141.753,-161.513 141.043,-150.775 140.565,-143.54"/>
<polygon fill="midnightblue" stroke="midnightblue" points="138.92,-171.721 143.072,-181.468 145.905,-171.259 138.92,-171.721"/>
</g>
</g>
</svg>
