<?xml version="1.0" encoding="UTF-8" standalone="no"?>
<!DOCTYPE svg PUBLIC "-//W3C//DTD SVG 1.1//EN"
 "http://www.w3.org/Graphics/SVG/1.1/DTD/svg11.dtd">
<!-- Generated by graphviz version 2.38.0 (20140413.2041)
 -->
<!-- Title: command::CampaignCheck Pages: 1 -->
<svg width="146pt" height="220pt"
 viewBox="0.00 0.00 146.00 220.00" xmlns="http://www.w3.org/2000/svg" xmlns:xlink="http://www.w3.org/1999/xlink">
<g id="graph0" class="graph" transform="scale(1 1) rotate(0) translate(4 216)">
<title>command::CampaignCheck</title>
<polygon fill="white" stroke="none" points="-4,4 -4,-216 142,-216 142,4 -4,4"/>
<!-- Node2 -->
<g id="node1" class="node"><title>Node2</title>
<polygon fill="#bfbfbf" stroke="black" points="0,-0.5 0,-19.5 138,-19.5 138,-0.5 0,-0.5"/>
<text text-anchor="middle" x="69" y="-7.5" font-family="Helvetica,sans-Serif" font-size="10.00">command::CampaignCheck</text>
</g>
<!-- Node3 -->
<g id="node2" class="node"><title>Node3</title>
<g id="a_node2"><a xlink:href="classcommand_1_1_base_command.html" target="_top" xlink:title="Base class for all command objects. ">
<polygon fill="white" stroke="black" points="2.5,-57.5 2.5,-76.5 135.5,-76.5 135.5,-57.5 2.5,-57.5"/>
<text text-anchor="middle" x="69" y="-64.5" font-family="Helvetica,sans-Serif" font-size="10.00">command::BaseCommand</text>
</a>
</g>
</g>
<!-- Node3&#45;&gt;Node2 -->
<g id="edge1" class="edge"><title>Node3&#45;&gt;Node2</title>
<path fill="none" stroke="midnightblue" d="M69,-47.1166C69,-37.8173 69,-27.0557 69,-19.7149"/>
<polygon fill="midnightblue" stroke="midnightblue" points="65.5001,-47.4062 69,-57.4062 72.5001,-47.4063 65.5001,-47.4062"/>
</g>
<!-- Node4 -->
<g id="node3" class="node"><title>Node4</title>
<g id="a_node3"><a xlink:title="STL class. ">
<polygon fill="white" stroke="#bfbfbf" points="39,-124.5 39,-143.5 99,-143.5 99,-124.5 39,-124.5"/>
<text text-anchor="middle" x="69" y="-131.5" font-family="Helvetica,sans-Serif" font-size="10.00">std::string</text>
</a>
</g>
</g>
<!-- Node4&#45;&gt;Node3 -->
<g id="edge2" class="edge"><title>Node4&#45;&gt;Node3</title>
<path fill="none" stroke="#9a32cd" stroke-dasharray="5,2" d="M69,-114.037C69,-101.67 69,-86.1198 69,-76.6273"/>
<polygon fill="#9a32cd" stroke="#9a32cd" points="65.5001,-114.234 69,-124.234 72.5001,-114.234 65.5001,-114.234"/>
<text text-anchor="middle" x="85.5" y="-98" font-family="Helvetica,sans-Serif" font-size="10.00"> variant</text>
</g>
<!-- Node5 -->
<g id="node4" class="node"><title>Node5</title>
<g id="a_node4"><a xlink:title="STL class. ">
<polygon fill="white" stroke="#bfbfbf" points="21.5,-181.5 21.5,-211.5 116.5,-211.5 116.5,-181.5 21.5,-181.5"/>
<text text-anchor="start" x="29.5" y="-199.5" font-family="Helvetica,sans-Serif" font-size="10.00">std::basic_string&lt;</text>
<text text-anchor="middle" x="69" y="-188.5" font-family="Helvetica,sans-Serif" font-size="10.00"> char &gt;</text>
</a>
</g>
</g>
<!-- Node5&#45;&gt;Node4 -->
<g id="edge3" class="edge"><title>Node5&#45;&gt;Node4</title>
<path fill="none" stroke="midnightblue" d="M69,-171.352C69,-161.513 69,-150.775 69,-143.54"/>
<polygon fill="midnightblue" stroke="midnightblue" points="65.5001,-171.468 69,-181.468 72.5001,-171.468 65.5001,-171.468"/>
</g>
</g>
</svg>
