<?xml version="1.0" encoding="UTF-8" standalone="no"?>
<!DOCTYPE svg PUBLIC "-//W3C//DTD SVG 1.1//EN"
 "http://www.w3.org/Graphics/SVG/1.1/DTD/svg11.dtd">
<!-- Generated by graphviz version 2.38.0 (20140413.2041)
 -->
<!-- Title: AktualizrSecondaryCommon Pages: 1 -->
<!--zoomable 505 -->
<svg id="main" version="1.1" xmlns="http://www.w3.org/2000/svg" xmlns:xlink="http://www.w3.org/1999/xlink" xml:space="preserve" onload="init(evt)">
<style type="text/css"><![CDATA[
.edge:hover path { stroke: red; }
.edge:hover polygon { stroke: red; fill: red; }
]]></style>
<script type="text/javascript"><![CDATA[
var edges = document.getElementsByTagName('g');
if (edges && edges.length) {
  for (var i=0;i<edges.length;i++) {
    if (edges[i].id.substr(0,4)=='edge') {
      edges[i].setAttribute('class','edge');
    }
  }
}
]]></script>
        <defs>
                <circle id="rim" cx="0" cy="0" r="7"/>
                <circle id="rim2" cx="0" cy="0" r="3.5"/>
                <g id="zoomPlus">
                        <use xlink:href="#rim" fill="#404040">
                                <set attributeName="fill" to="#808080" begin="zoomplus.mouseover" end="zoomplus.mouseout"/>
                        </use>
                        <path d="M-4,0h8M0,-4v8" fill="none" stroke="white" stroke-width="1.5" pointer-events="none"/>
                </g>
                <g id="zoomMin">
                        <use xlink:href="#rim" fill="#404040">
                                <set attributeName="fill" to="#808080" begin="zoomminus.mouseover" end="zoomminus.mouseout"/>
                        </use>
                        <path d="M-4,0h8" fill="none" stroke="white" stroke-width="1.5" pointer-events="none"/>
                </g>
                <g id="dirArrow">
                        <path fill="none" stroke="white" stroke-width="1.5" d="M0,-3.0v7 M-2.5,-0.5L0,-3.0L2.5,-0.5"/>
                </g>
               <g id="resetDef">
                       <use xlink:href="#rim2" fill="#404040">
                               <set attributeName="fill" to="#808080" begin="reset.mouseover" end="reset.mouseout"/>
                       </use>
               </g>
        </defs>

<script type="text/javascript">
var viewWidth = 1070;
var viewHeight = 505;
var sectionId = 'dynsection-1';
</script>
<script xlink:href="svgpan.js"/>
<svg id="graph" class="graph">
<g id="viewport">
<title>AktualizrSecondaryCommon</title>
<polygon fill="white" stroke="none" points="-4,4 -4,-500.5 1066,-500.5 1066,4 -4,4"/>
<!-- Node3 -->
<g id="node1" class="node"><title>Node3</title>
<polygon fill="#bfbfbf" stroke="black" points="921,-313.5 921,-332.5 1062,-332.5 1062,-313.5 921,-313.5"/>
<text text-anchor="middle" x="991.5" y="-320.5" font-family="Helvetica,sans-Serif" font-size="10.00">AktualizrSecondaryCommon</text>
</g>
<!-- Node4 -->
<g id="node2" class="node"><title>Node4</title>
<polygon fill="white" stroke="#bfbfbf" points="545,-466 545,-496 667,-496 667,-466 545,-466"/>
<text text-anchor="start" x="553" y="-484" font-family="Helvetica,sans-Serif" font-size="10.00">std::unique_ptr&lt; Uptane</text>
<text text-anchor="middle" x="606" y="-473" font-family="Helvetica,sans-Serif" font-size="10.00">::Target &gt;</text>
</g>
<!-- Node4&#45;&gt;Node3 -->
<g id="edge1" class="edge"><title>Node4&#45;&gt;Node3</title>
<path fill="none" stroke="#9a32cd" stroke-dasharray="5,2" d="M677.51,-481.705C740.582,-479.37 833.527,-468.391 903,-428 943.823,-404.266 974.052,-353.983 985.49,-332.768"/>
<polygon fill="#9a32cd" stroke="#9a32cd" points="677.151,-478.214 667.263,-482.018 677.365,-485.211 677.151,-478.214"/>
<text text-anchor="middle" x="752" y="-485" font-family="Helvetica,sans-Serif" font-size="10.00"> target_</text>
</g>
<!-- Node5 -->
<g id="node3" class="node"><title>Node5</title>
<g id="a_node3"><a xlink:href="class_uptane_1_1_target.html" target="_top" xlink:title="Uptane::Target">
<polygon fill="white" stroke="black" points="143,-456.5 143,-475.5 225,-475.5 225,-456.5 143,-456.5"/>
<text text-anchor="middle" x="184" y="-463.5" font-family="Helvetica,sans-Serif" font-size="10.00">Uptane::Target</text>
</a>
</g>
</g>
<!-- Node5&#45;&gt;Node4 -->
<g id="edge2" class="edge"><title>Node5&#45;&gt;Node4</title>
<path fill="none" stroke="#9a32cd" stroke-dasharray="5,2" d="M235.28,-467.796C312.87,-470.567 461.504,-475.875 544.737,-478.848"/>
<polygon fill="#9a32cd" stroke="#9a32cd" points="235.39,-464.298 225.271,-467.438 235.14,-471.293 235.39,-464.298"/>
<text text-anchor="middle" x="308.5" y="-476" font-family="Helvetica,sans-Serif" font-size="10.00"> ptr</text>
</g>
<!-- Node22 -->
<g id="node20" class="node"><title>Node22</title>
<polygon fill="white" stroke="#bfbfbf" points="402,-427 402,-457 506,-457 506,-427 402,-427"/>
<text text-anchor="start" x="410" y="-445" font-family="Helvetica,sans-Serif" font-size="10.00">std::vector&lt; Uptane</text>
<text text-anchor="middle" x="454" y="-434" font-family="Helvetica,sans-Serif" font-size="10.00">::Target &gt;</text>
</g>
<!-- Node5&#45;&gt;Node22 -->
<g id="edge22" class="edge"><title>Node5&#45;&gt;Node22</title>
<path fill="none" stroke="#9a32cd" stroke-dasharray="5,2" d="M235.63,-455.678C241.8,-454.652 248.031,-453.724 254,-453 303.979,-446.937 361.429,-444.213 401.713,-442.99"/>
<polygon fill="#9a32cd" stroke="#9a32cd" points="234.606,-452.304 225.361,-457.479 235.816,-459.199 234.606,-452.304"/>
<text text-anchor="middle" x="308.5" y="-456" font-family="Helvetica,sans-Serif" font-size="10.00"> elements</text>
</g>
<!-- Node6 -->
<g id="node4" class="node"><title>Node6</title>
<g id="a_node4"><a xlink:href="class_aktualizr_secondary_config.html" target="_top" xlink:title="AktualizrSecondaryConfig">
<polygon fill="white" stroke="black" points="687,-267.5 687,-286.5 817,-286.5 817,-267.5 687,-267.5"/>
<text text-anchor="middle" x="752" y="-274.5" font-family="Helvetica,sans-Serif" font-size="10.00">AktualizrSecondaryConfig</text>
</a>
</g>
</g>
<!-- Node6&#45;&gt;Node3 -->
<g id="edge3" class="edge"><title>Node6&#45;&gt;Node3</title>
<path fill="none" stroke="#9a32cd" stroke-dasharray="5,2" d="M812.056,-288.438C851.874,-296.15 903.793,-306.206 941.353,-313.481"/>
<polygon fill="#9a32cd" stroke="#9a32cd" points="812.693,-284.997 802.21,-286.531 811.362,-291.869 812.693,-284.997"/>
<text text-anchor="middle" x="870" y="-309" font-family="Helvetica,sans-Serif" font-size="10.00"> config_</text>
</g>
<!-- Node7 -->
<g id="node5" class="node"><title>Node7</title>
<g id="a_node5"><a xlink:href="class_base_config.html" target="_top" xlink:title="BaseConfig">
<polygon fill="white" stroke="black" points="420,-109.5 420,-128.5 488,-128.5 488,-109.5 420,-109.5"/>
<text text-anchor="middle" x="454" y="-116.5" font-family="Helvetica,sans-Serif" font-size="10.00">BaseConfig</text>
</a>
</g>
</g>
<!-- Node7&#45;&gt;Node6 -->
<g id="edge4" class="edge"><title>Node7&#45;&gt;Node6</title>
<path fill="none" stroke="midnightblue" d="M498.411,-109.336C546.27,-101.472 622.379,-97.6681 667,-140 705.487,-176.513 649.982,-218.149 685,-258 688.384,-261.851 692.494,-264.945 696.99,-267.427"/>
<polygon fill="midnightblue" stroke="midnightblue" points="497.593,-105.926 488.356,-111.116 498.813,-112.819 497.593,-105.926"/>
</g>
<!-- Node8 -->
<g id="node6" class="node"><title>Node8</title>
<polygon fill="white" stroke="#bfbfbf" points="133.5,-106 133.5,-136 234.5,-136 234.5,-106 133.5,-106"/>
<text text-anchor="start" x="141.5" y="-124" font-family="Helvetica,sans-Serif" font-size="10.00">std::vector&lt; boost</text>
<text text-anchor="middle" x="184" y="-113" font-family="Helvetica,sans-Serif" font-size="10.00">::filesystem::path &gt;</text>
</g>
<!-- Node8&#45;&gt;Node7 -->
<g id="edge5" class="edge"><title>Node8&#45;&gt;Node7</title>
<path fill="none" stroke="#9a32cd" stroke-dasharray="5,2" d="M244.919,-120.553C298.946,-120.15 376.402,-119.572 419.969,-119.247"/>
<polygon fill="#9a32cd" stroke="#9a32cd" points="244.754,-117.054 234.781,-120.629 244.807,-124.054 244.754,-117.054"/>
<text text-anchor="middle" x="308.5" y="-124" font-family="Helvetica,sans-Serif" font-size="10.00"> config_dirs_</text>
</g>
<!-- Node9 -->
<g id="node7" class="node"><title>Node9</title>
<g id="a_node7"><a xlink:href="struct_storage_config.html" target="_top" xlink:title="StorageConfig">
<polygon fill="white" stroke="black" points="414.5,-20.5 414.5,-39.5 493.5,-39.5 493.5,-20.5 414.5,-20.5"/>
<text text-anchor="middle" x="454" y="-27.5" font-family="Helvetica,sans-Serif" font-size="10.00">StorageConfig</text>
</a>
</g>
</g>
<!-- Node9&#45;&gt;Node6 -->
<g id="edge6" class="edge"><title>Node9&#45;&gt;Node6</title>
<path fill="none" stroke="#9a32cd" stroke-dasharray="5,2" d="M503.615,-29.1724C552.778,-31.1956 627.044,-42.6458 667,-90 715.426,-147.393 636.703,-200.498 685,-258 688.221,-261.835 692.161,-264.923 696.499,-267.406"/>
<polygon fill="#9a32cd" stroke="#9a32cd" points="503.626,-25.6713 493.527,-28.8743 503.419,-32.6683 503.626,-25.6713"/>
<text text-anchor="middle" x="606" y="-93" font-family="Helvetica,sans-Serif" font-size="10.00"> storage</text>
</g>
<!-- Node10 -->
<g id="node8" class="node"><title>Node10</title>
<g id="a_node8"><a xlink:href="class_based_path.html" target="_top" xlink:title="BasedPath">
<polygon fill="white" stroke="black" points="151.5,-0.5 151.5,-19.5 216.5,-19.5 216.5,-0.5 151.5,-0.5"/>
<text text-anchor="middle" x="184" y="-7.5" font-family="Helvetica,sans-Serif" font-size="10.00">BasedPath</text>
</a>
</g>
</g>
<!-- Node10&#45;&gt;Node9 -->
<g id="edge7" class="edge"><title>Node10&#45;&gt;Node9</title>
<path fill="none" stroke="#9a32cd" stroke-dasharray="5,2" d="M226.603,-13.1047C277.873,-16.9308 364.311,-23.3814 414.239,-27.1074"/>
<polygon fill="#9a32cd" stroke="#9a32cd" points="226.764,-9.60706 216.531,-12.3531 226.243,-16.5877 226.764,-9.60706"/>
<text text-anchor="middle" x="308.5" y="-103" font-family="Helvetica,sans-Serif" font-size="10.00"> uptane_public_key_path</text>
<text text-anchor="middle" x="308.5" y="-92" font-family="Helvetica,sans-Serif" font-size="10.00">tls_pkey_path</text>
<text text-anchor="middle" x="308.5" y="-81" font-family="Helvetica,sans-Serif" font-size="10.00">uptane_metadata_path</text>
<text text-anchor="middle" x="308.5" y="-70" font-family="Helvetica,sans-Serif" font-size="10.00">sqldb_path</text>
<text text-anchor="start" x="254" y="-59" font-family="Helvetica,sans-Serif" font-size="10.00">uptane_private_key</text>
<text text-anchor="middle" x="308.5" y="-48" font-family="Helvetica,sans-Serif" font-size="10.00">_path</text>
<text text-anchor="middle" x="308.5" y="-37" font-family="Helvetica,sans-Serif" font-size="10.00">tls_cacert_path</text>
<text text-anchor="middle" x="308.5" y="-26" font-family="Helvetica,sans-Serif" font-size="10.00">tls_clientcert_path</text>
</g>
<!-- Node11 -->
<g id="node9" class="node"><title>Node11</title>
<g id="a_node9"><a xlink:href="struct_aktualizr_secondary_uptane_config.html" target="_top" xlink:title="AktualizrSecondaryUptane\lConfig">
<polygon fill="white" stroke="black" points="387.5,-262 387.5,-292 520.5,-292 520.5,-262 387.5,-262"/>
<text text-anchor="start" x="395.5" y="-280" font-family="Helvetica,sans-Serif" font-size="10.00">AktualizrSecondaryUptane</text>
<text text-anchor="middle" x="454" y="-269" font-family="Helvetica,sans-Serif" font-size="10.00">Config</text>
</a>
</g>
</g>
<!-- Node11&#45;&gt;Node6 -->
<g id="edge8" class="edge"><title>Node11&#45;&gt;Node6</title>
<path fill="none" stroke="#9a32cd" stroke-dasharray="5,2" d="M530.776,-277C579.05,-277 640.906,-277 686.764,-277"/>
<polygon fill="#9a32cd" stroke="#9a32cd" points="530.692,-273.5 520.692,-277 530.692,-280.5 530.692,-273.5"/>
<text text-anchor="middle" x="606" y="-280" font-family="Helvetica,sans-Serif" font-size="10.00"> uptane</text>
</g>
<!-- Node12 -->
<g id="node10" class="node"><title>Node12</title>
<g id="a_node10"><a xlink:title="STL class. ">
<polygon fill="white" stroke="#bfbfbf" points="154,-246.5 154,-265.5 214,-265.5 214,-246.5 154,-246.5"/>
<text text-anchor="middle" x="184" y="-253.5" font-family="Helvetica,sans-Serif" font-size="10.00">std::string</text>
</a>
</g>
</g>
<!-- Node12&#45;&gt;Node3 -->
<g id="edge25" class="edge"><title>Node12&#45;&gt;Node3</title>
<path fill="none" stroke="#9a32cd" stroke-dasharray="5,2" d="M208.437,-271.095C221.517,-279.13 238.298,-288.809 254,-296 308.312,-320.872 322.093,-330.085 381,-340 579.078,-373.341 818.376,-347.917 928.966,-332.525"/>
<polygon fill="#9a32cd" stroke="#9a32cd" points="209.969,-267.925 199.634,-265.593 206.259,-273.861 209.969,-267.925"/>
<text text-anchor="middle" x="606" y="-360" font-family="Helvetica,sans-Serif" font-size="10.00"> detected_attack_</text>
</g>
<!-- Node12&#45;&gt;Node11 -->
<g id="edge9" class="edge"><title>Node12&#45;&gt;Node11</title>
<path fill="none" stroke="#9a32cd" stroke-dasharray="5,2" d="M224.221,-259.073C267.052,-262.429 336.356,-267.86 387.477,-271.866"/>
<polygon fill="#9a32cd" stroke="#9a32cd" points="224.434,-255.579 214.191,-258.287 223.887,-262.558 224.434,-255.579"/>
<text text-anchor="middle" x="308.5" y="-284" font-family="Helvetica,sans-Serif" font-size="10.00"> ecu_hardware_id</text>
<text text-anchor="middle" x="308.5" y="-273" font-family="Helvetica,sans-Serif" font-size="10.00">ecu_serial</text>
</g>
<!-- Node15 -->
<g id="node13" class="node"><title>Node15</title>
<g id="a_node13"><a xlink:href="struct_package_config.html" target="_top" xlink:title="PackageConfig">
<polygon fill="white" stroke="black" points="412.5,-223.5 412.5,-242.5 495.5,-242.5 495.5,-223.5 412.5,-223.5"/>
<text text-anchor="middle" x="454" y="-230.5" font-family="Helvetica,sans-Serif" font-size="10.00">PackageConfig</text>
</a>
</g>
</g>
<!-- Node12&#45;&gt;Node15 -->
<g id="edge13" class="edge"><title>Node12&#45;&gt;Node15</title>
<path fill="none" stroke="#9a32cd" stroke-dasharray="5,2" d="M221.426,-243.476C231.823,-240.441 243.25,-237.609 254,-236 308.333,-227.866 371.94,-228.679 412.342,-230.462"/>
<polygon fill="#9a32cd" stroke="#9a32cd" points="220.365,-240.14 211.828,-246.414 222.415,-246.833 220.365,-240.14"/>
<text text-anchor="middle" x="308.5" y="-250" font-family="Helvetica,sans-Serif" font-size="10.00"> os</text>
<text text-anchor="middle" x="308.5" y="-239" font-family="Helvetica,sans-Serif" font-size="10.00">ostree_server</text>
</g>
<!-- Node17 -->
<g id="node15" class="node"><title>Node17</title>
<g id="a_node15"><a xlink:href="struct_p11_config.html" target="_top" xlink:title="P11Config">
<polygon fill="white" stroke="black" points="423,-147.5 423,-166.5 485,-166.5 485,-147.5 423,-147.5"/>
<text text-anchor="middle" x="454" y="-154.5" font-family="Helvetica,sans-Serif" font-size="10.00">P11Config</text>
</a>
</g>
</g>
<!-- Node12&#45;&gt;Node17 -->
<g id="edge16" class="edge"><title>Node12&#45;&gt;Node17</title>
<path fill="none" stroke="#9a32cd" stroke-dasharray="5,2" d="M194.065,-237.531C205.126,-217.249 225.886,-185.621 254,-171 308.079,-142.875 381.858,-146.804 422.689,-152.007"/>
<polygon fill="#9a32cd" stroke="#9a32cd" points="190.934,-235.965 189.425,-246.452 197.145,-239.195 190.934,-235.965"/>
<text text-anchor="middle" x="308.5" y="-218" font-family="Helvetica,sans-Serif" font-size="10.00"> tls_pkey_id</text>
<text text-anchor="middle" x="308.5" y="-207" font-family="Helvetica,sans-Serif" font-size="10.00">tls_clientcert_id</text>
<text text-anchor="middle" x="308.5" y="-196" font-family="Helvetica,sans-Serif" font-size="10.00">pass</text>
<text text-anchor="middle" x="308.5" y="-185" font-family="Helvetica,sans-Serif" font-size="10.00">uptane_key_id</text>
<text text-anchor="middle" x="308.5" y="-174" font-family="Helvetica,sans-Serif" font-size="10.00">tls_cacert_id</text>
</g>
<!-- Node13 -->
<g id="node11" class="node"><title>Node13</title>
<g id="a_node11"><a xlink:title="STL class. ">
<polygon fill="white" stroke="#bfbfbf" points="0,-241 0,-271 95,-271 95,-241 0,-241"/>
<text text-anchor="start" x="8" y="-259" font-family="Helvetica,sans-Serif" font-size="10.00">std::basic_string&lt;</text>
<text text-anchor="middle" x="47.5" y="-248" font-family="Helvetica,sans-Serif" font-size="10.00"> char &gt;</text>
</a>
</g>
</g>
<!-- Node13&#45;&gt;Node12 -->
<g id="edge10" class="edge"><title>Node13&#45;&gt;Node12</title>
<path fill="none" stroke="midnightblue" d="M105.366,-256C121.992,-256 139.486,-256 153.65,-256"/>
<polygon fill="midnightblue" stroke="midnightblue" points="105.164,-252.5 95.1641,-256 105.164,-259.5 105.164,-252.5"/>
</g>
<!-- Node14 -->
<g id="node12" class="node"><title>Node14</title>
<g id="a_node12"><a xlink:href="struct_logger_config.html" target="_top" xlink:title="LoggerConfig">
<polygon fill="white" stroke="black" points="417,-185.5 417,-204.5 491,-204.5 491,-185.5 417,-185.5"/>
<text text-anchor="middle" x="454" y="-192.5" font-family="Helvetica,sans-Serif" font-size="10.00">LoggerConfig</text>
</a>
</g>
</g>
<!-- Node14&#45;&gt;Node6 -->
<g id="edge11" class="edge"><title>Node14&#45;&gt;Node6</title>
<path fill="none" stroke="#9a32cd" stroke-dasharray="5,2" d="M501.406,-192.239C547.159,-191.768 617.259,-197.302 667,-230 679.362,-238.127 673.133,-249.166 685,-258 690.261,-261.916 696.307,-265.026 702.559,-267.496"/>
<polygon fill="#9a32cd" stroke="#9a32cd" points="501.105,-188.744 491.179,-192.448 501.248,-195.742 501.105,-188.744"/>
<text text-anchor="middle" x="606" y="-233" font-family="Helvetica,sans-Serif" font-size="10.00"> logger</text>
</g>
<!-- Node15&#45;&gt;Node6 -->
<g id="edge12" class="edge"><title>Node15&#45;&gt;Node6</title>
<path fill="none" stroke="#9a32cd" stroke-dasharray="5,2" d="M505.65,-239.339C548.653,-244.862 611.966,-253.326 667,-262 677.536,-263.661 688.79,-265.574 699.525,-267.466"/>
<polygon fill="#9a32cd" stroke="#9a32cd" points="506.077,-235.865 495.714,-238.069 505.189,-242.809 506.077,-235.865"/>
<text text-anchor="middle" x="606" y="-265" font-family="Helvetica,sans-Serif" font-size="10.00"> pacman</text>
</g>
<!-- Node16 -->
<g id="node14" class="node"><title>Node16</title>
<g id="a_node14"><a xlink:href="struct_aktualizr_secondary_net_config.html" target="_top" xlink:title="AktualizrSecondaryNetConfig">
<polygon fill="white" stroke="black" points="381,-311.5 381,-330.5 527,-330.5 527,-311.5 381,-311.5"/>
<text text-anchor="middle" x="454" y="-318.5" font-family="Helvetica,sans-Serif" font-size="10.00">AktualizrSecondaryNetConfig</text>
</a>
</g>
</g>
<!-- Node16&#45;&gt;Node6 -->
<g id="edge14" class="edge"><title>Node16&#45;&gt;Node6</title>
<path fill="none" stroke="#9a32cd" stroke-dasharray="5,2" d="M537.296,-310.536C576.611,-305.334 624.298,-298.731 667,-292 677.536,-290.339 688.79,-288.426 699.525,-286.534"/>
<polygon fill="#9a32cd" stroke="#9a32cd" points="536.685,-307.086 527.228,-311.862 537.599,-314.026 536.685,-307.086"/>
<text text-anchor="middle" x="606" y="-313" font-family="Helvetica,sans-Serif" font-size="10.00"> network</text>
</g>
<!-- Node17&#45;&gt;Node6 -->
<g id="edge15" class="edge"><title>Node17&#45;&gt;Node6</title>
<path fill="none" stroke="#9a32cd" stroke-dasharray="5,2" d="M495.128,-148.598C542.285,-141.248 620.041,-137.389 667,-179 693.952,-202.883 660.263,-231.83 685,-258 688.604,-261.813 692.919,-264.876 697.594,-267.335"/>
<polygon fill="#9a32cd" stroke="#9a32cd" points="494.548,-145.147 485.266,-150.256 495.708,-152.05 494.548,-145.147"/>
<text text-anchor="middle" x="606" y="-182" font-family="Helvetica,sans-Serif" font-size="10.00"> p11</text>
</g>
<!-- Node18 -->
<g id="node16" class="node"><title>Node18</title>
<g id="a_node16"><a xlink:href="class_uptane_1_1_hardware_identifier.html" target="_top" xlink:title="Uptane::HardwareIdentifier">
<polygon fill="white" stroke="black" points="685,-229.5 685,-248.5 819,-248.5 819,-229.5 685,-229.5"/>
<text text-anchor="middle" x="752" y="-236.5" font-family="Helvetica,sans-Serif" font-size="10.00">Uptane::HardwareIdentifier</text>
</a>
</g>
</g>
<!-- Node18&#45;&gt;Node3 -->
<g id="edge17" class="edge"><title>Node18&#45;&gt;Node3</title>
<path fill="none" stroke="#9a32cd" stroke-dasharray="5,2" d="M806.304,-250.951C835.321,-258.107 871.605,-268.119 903,-280 928.329,-289.586 956.176,-303.986 973.5,-313.438"/>
<polygon fill="#9a32cd" stroke="#9a32cd" points="806.906,-247.496 796.363,-248.541 805.257,-254.299 806.906,-247.496"/>
<text text-anchor="middle" x="870" y="-283" font-family="Helvetica,sans-Serif" font-size="10.00"> hardware_id_</text>
</g>
<!-- Node19 -->
<g id="node17" class="node"><title>Node19</title>
<g id="a_node17"><a xlink:href="class_uptane_1_1_targets.html" target="_top" xlink:title="Uptane::Targets">
<polygon fill="white" stroke="black" points="708.5,-414.5 708.5,-433.5 795.5,-433.5 795.5,-414.5 708.5,-414.5"/>
<text text-anchor="middle" x="752" y="-421.5" font-family="Helvetica,sans-Serif" font-size="10.00">Uptane::Targets</text>
</a>
</g>
</g>
<!-- Node19&#45;&gt;Node3 -->
<g id="edge18" class="edge"><title>Node19&#45;&gt;Node3</title>
<path fill="none" stroke="#9a32cd" stroke-dasharray="5,2" d="M805.858,-418.717C835.481,-414.307 872.491,-406.324 903,-392 935.222,-376.872 966.327,-347.845 981.276,-332.714"/>
<polygon fill="#9a32cd" stroke="#9a32cd" points="805.131,-415.284 795.71,-420.132 806.098,-422.217 805.131,-415.284"/>
<text text-anchor="middle" x="870" y="-416" font-family="Helvetica,sans-Serif" font-size="10.00"> meta_targets_</text>
</g>
<!-- Node20 -->
<g id="node18" class="node"><title>Node20</title>
<g id="a_node18"><a xlink:href="class_uptane_1_1_base_meta.html" target="_top" xlink:title="Uptane::BaseMeta">
<polygon fill="white" stroke="black" points="405,-388.5 405,-407.5 503,-407.5 503,-388.5 405,-388.5"/>
<text text-anchor="middle" x="454" y="-395.5" font-family="Helvetica,sans-Serif" font-size="10.00">Uptane::BaseMeta</text>
</a>
</g>
</g>
<!-- Node20&#45;&gt;Node19 -->
<g id="edge19" class="edge"><title>Node20&#45;&gt;Node19</title>
<path fill="none" stroke="midnightblue" d="M513.216,-403.114C570.539,-408.149 656.751,-415.721 708.096,-420.231"/>
<polygon fill="midnightblue" stroke="midnightblue" points="513.484,-399.624 503.216,-402.235 512.872,-406.597 513.484,-399.624"/>
</g>
<!-- Node25 -->
<g id="node23" class="node"><title>Node25</title>
<g id="a_node23"><a xlink:href="class_uptane_1_1_root.html" target="_top" xlink:title="Uptane::Root">
<polygon fill="white" stroke="black" points="714.5,-376.5 714.5,-395.5 789.5,-395.5 789.5,-376.5 714.5,-376.5"/>
<text text-anchor="middle" x="752" y="-383.5" font-family="Helvetica,sans-Serif" font-size="10.00">Uptane::Root</text>
</a>
</g>
</g>
<!-- Node20&#45;&gt;Node25 -->
<g id="edge27" class="edge"><title>Node20&#45;&gt;Node25</title>
<path fill="none" stroke="midnightblue" d="M513.262,-395.638C573.038,-393.215 664.191,-389.519 714.488,-387.48"/>
<polygon fill="midnightblue" stroke="midnightblue" points="513.066,-392.143 503.216,-396.045 513.35,-399.137 513.066,-392.143"/>
</g>
<!-- Node21 -->
<g id="node19" class="node"><title>Node21</title>
<g id="a_node19"><a xlink:href="class_uptane_1_1_time_stamp.html" target="_top" xlink:title="Uptane::TimeStamp">
<polygon fill="white" stroke="black" points="132,-388.5 132,-407.5 236,-407.5 236,-388.5 132,-388.5"/>
<text text-anchor="middle" x="184" y="-395.5" font-family="Helvetica,sans-Serif" font-size="10.00">Uptane::TimeStamp</text>
</a>
</g>
</g>
<!-- Node21&#45;&gt;Node20 -->
<g id="edge20" class="edge"><title>Node21&#45;&gt;Node20</title>
<path fill="none" stroke="#9a32cd" stroke-dasharray="5,2" d="M246.327,-398C294.447,-398 360.494,-398 404.855,-398"/>
<polygon fill="#9a32cd" stroke="#9a32cd" points="246.04,-394.5 236.04,-398 246.04,-401.5 246.04,-394.5"/>
<text text-anchor="middle" x="308.5" y="-401" font-family="Helvetica,sans-Serif" font-size="10.00"> expiry_</text>
</g>
<!-- Node22&#45;&gt;Node19 -->
<g id="edge21" class="edge"><title>Node22&#45;&gt;Node19</title>
<path fill="none" stroke="#9a32cd" stroke-dasharray="5,2" d="M516.238,-438.276C573.528,-434.792 657.631,-429.678 708.083,-426.61"/>
<polygon fill="#9a32cd" stroke="#9a32cd" points="515.99,-434.785 506.221,-438.885 516.415,-441.772 515.99,-434.785"/>
<text text-anchor="middle" x="606" y="-440" font-family="Helvetica,sans-Serif" font-size="10.00"> targets</text>
</g>
<!-- Node23 -->
<g id="node21" class="node"><title>Node23</title>
<g id="a_node21"><a xlink:href="class_key_manager.html" target="_top" xlink:title="KeyManager">
<polygon fill="white" stroke="black" points="716.5,-191.5 716.5,-210.5 787.5,-210.5 787.5,-191.5 716.5,-191.5"/>
<text text-anchor="middle" x="752" y="-198.5" font-family="Helvetica,sans-Serif" font-size="10.00">KeyManager</text>
</a>
</g>
</g>
<!-- Node23&#45;&gt;Node3 -->
<g id="edge23" class="edge"><title>Node23&#45;&gt;Node3</title>
<path fill="none" stroke="#9a32cd" stroke-dasharray="5,2" d="M797.838,-208.686C828.776,-215.267 870.098,-226.654 903,-245 936.415,-263.633 967.941,-296.964 982.332,-313.357"/>
<polygon fill="#9a32cd" stroke="#9a32cd" points="798.269,-205.202 787.771,-206.635 796.871,-212.061 798.269,-205.202"/>
<text text-anchor="middle" x="870" y="-248" font-family="Helvetica,sans-Serif" font-size="10.00"> keys_</text>
</g>
<!-- Node24 -->
<g id="node22" class="node"><title>Node24</title>
<g id="a_node22"><a xlink:href="class_uptane_1_1_ecu_serial.html" target="_top" xlink:title="Uptane::EcuSerial">
<polygon fill="white" stroke="black" points="704,-153.5 704,-172.5 800,-172.5 800,-153.5 704,-153.5"/>
<text text-anchor="middle" x="752" y="-160.5" font-family="Helvetica,sans-Serif" font-size="10.00">Uptane::EcuSerial</text>
</a>
</g>
</g>
<!-- Node24&#45;&gt;Node3 -->
<g id="edge24" class="edge"><title>Node24&#45;&gt;Node3</title>
<path fill="none" stroke="#9a32cd" stroke-dasharray="5,2" d="M810.532,-170.021C840.164,-175.783 875.701,-186.208 903,-205 945.436,-234.211 975.382,-290.793 986.127,-313.363"/>
<polygon fill="#9a32cd" stroke="#9a32cd" points="810.784,-166.51 800.32,-168.171 809.536,-173.398 810.784,-166.51"/>
<text text-anchor="middle" x="870" y="-208" font-family="Helvetica,sans-Serif" font-size="10.00"> ecu_serial_</text>
</g>
<!-- Node25&#45;&gt;Node3 -->
<g id="edge26" class="edge"><title>Node25&#45;&gt;Node3</title>
<path fill="none" stroke="#9a32cd" stroke-dasharray="5,2" d="M799.83,-381.683C829.773,-378.15 869.193,-372.05 903,-362 928.029,-354.559 955.268,-341.576 972.593,-332.648"/>
<polygon fill="#9a32cd" stroke="#9a32cd" points="799.205,-378.232 789.659,-382.829 799.988,-385.188 799.205,-378.232"/>
<text text-anchor="middle" x="870" y="-380" font-family="Helvetica,sans-Serif" font-size="10.00"> root_</text>
</g>
</g>
</svg>
        <g id="navigator" transform="translate(0 0)" fill="#404254">
                <rect fill="#f2f5e9" fill-opacity="0.5" stroke="#606060" stroke-width=".5" x="0" y="0" width="60" height="60"/>
                <use id="zoomplus" xlink:href="#zoomPlus" x="17" y="9" onmousedown="handleZoom(evt,'in')"/>
                <use id="zoomminus" xlink:href="#zoomMin" x="42" y="9" onmousedown="handleZoom(evt,'out')"/>
                <use id="reset" xlink:href="#resetDef" x="30" y="36" onmousedown="handleReset()"/>
                <g id="arrowUp" xlink:href="#dirArrow" transform="translate(30 24)" onmousedown="handlePan(0,-1)">
                  <use xlink:href="#rim" fill="#404040">
                        <set attributeName="fill" to="#808080" begin="arrowUp.mouseover" end="arrowUp.mouseout"/>
                  </use>
                  <path fill="none" stroke="white" stroke-width="1.5" d="M0,-3.0v7 M-2.5,-0.5L0,-3.0L2.5,-0.5"/>
                </g>
                <g id="arrowRight" xlink:href="#dirArrow" transform="rotate(90) translate(36 -43)" onmousedown="handlePan(1,0)">
                  <use xlink:href="#rim" fill="#404040">
                        <set attributeName="fill" to="#808080" begin="arrowRight.mouseover" end="arrowRight.mouseout"/>
                  </use>
                  <path fill="none" stroke="white" stroke-width="1.5" d="M0,-3.0v7 M-2.5,-0.5L0,-3.0L2.5,-0.5"/>
                </g>
                <g id="arrowDown" xlink:href="#dirArrow" transform="rotate(180) translate(-30 -48)" onmousedown="handlePan(0,1)">
                  <use xlink:href="#rim" fill="#404040">
                        <set attributeName="fill" to="#808080" begin="arrowDown.mouseover" end="arrowDown.mouseout"/>
                  </use>
                  <path fill="none" stroke="white" stroke-width="1.5" d="M0,-3.0v7 M-2.5,-0.5L0,-3.0L2.5,-0.5"/>
                </g>
                <g id="arrowLeft" xlink:href="#dirArrow" transform="rotate(270) translate(-36 17)" onmousedown="handlePan(-1,0)">
                  <use xlink:href="#rim" fill="#404040">
                        <set attributeName="fill" to="#808080" begin="arrowLeft.mouseover" end="arrowLeft.mouseout"/>
                  </use>
                  <path fill="none" stroke="white" stroke-width="1.5" d="M0,-3.0v7 M-2.5,-0.5L0,-3.0L2.5,-0.5"/>
                </g>
        </g>
        <svg viewBox="0 0 15 15" width="100%" height="30px" preserveAspectRatio="xMaxYMin meet">
         <g id="arrow_out" transform="scale(0.3 0.3)">
          <a xlink:href="class_aktualizr_secondary_common__coll__graph_org.svg" target="_base">
           <rect id="button" ry="5" rx="5" y="6" x="6" height="38" width="38"
                fill="#f2f5e9" fill-opacity="0.5" stroke="#606060" stroke-width="1.0"/>
           <path id="arrow"
             d="M 11.500037,31.436501 C 11.940474,20.09759 22.043105,11.32322 32.158766,21.979434 L 37.068811,17.246167 C 37.068811,17.246167 37.088388,32 37.088388,32 L 22.160133,31.978069 C 22.160133,31.978069 26.997745,27.140456 26.997745,27.140456 C 18.528582,18.264221 13.291696,25.230495 11.500037,31.436501 z"
             style="fill:#404040;"/>
          </a>
         </g>
        </svg>
</svg>
