<?xml version="1.0" encoding="UTF-8" standalone="no"?>
<!DOCTYPE svg PUBLIC "-//W3C//DTD SVG 1.1//EN"
 "http://www.w3.org/Graphics/SVG/1.1/DTD/svg11.dtd">
<!-- Generated by graphviz version 2.38.0 (20140413.2041)
 -->
<!-- Title: AktualizrInfoConfig Pages: 1 -->
<svg width="290pt" height="250pt"
 viewBox="0.00 0.00 289.50 250.00" xmlns="http://www.w3.org/2000/svg" xmlns:xlink="http://www.w3.org/1999/xlink">
<g id="graph0" class="graph" transform="scale(1 1) rotate(0) translate(4 246)">
<title>AktualizrInfoConfig</title>
<polygon fill="white" stroke="none" points="-4,4 -4,-246 285.5,-246 285.5,4 -4,4"/>
<!-- Node2 -->
<g id="node1" class="node"><title>Node2</title>
<polygon fill="#bfbfbf" stroke="black" points="99.5,-0.5 99.5,-19.5 199.5,-19.5 199.5,-0.5 99.5,-0.5"/>
<text text-anchor="middle" x="149.5" y="-7.5" font-family="Helvetica,sans-Serif" font-size="10.00">AktualizrInfoConfig</text>
</g>
<!-- Node3 -->
<g id="node2" class="node"><title>Node3</title>
<g id="a_node2"><a xlink:href="class_base_config.html" target="_top" xlink:title="BaseConfig">
<polygon fill="white" stroke="black" points="20.5,-67.5 20.5,-86.5 88.5,-86.5 88.5,-67.5 20.5,-67.5"/>
<text text-anchor="middle" x="54.5" y="-74.5" font-family="Helvetica,sans-Serif" font-size="10.00">BaseConfig</text>
</a>
</g>
</g>
<!-- Node3&#45;&gt;Node2 -->
<g id="edge1" class="edge"><title>Node3&#45;&gt;Node2</title>
<path fill="none" stroke="midnightblue" d="M75.8098,-61.4196C94.5908,-48.5695 121.318,-30.2821 136.891,-19.6273"/>
<polygon fill="midnightblue" stroke="midnightblue" points="73.5888,-58.6983 67.3121,-67.2338 77.5416,-64.4755 73.5888,-58.6983"/>
</g>
<!-- Node4 -->
<g id="node3" class="node"><title>Node4</title>
<polygon fill="white" stroke="#bfbfbf" points="0,-211.5 0,-241.5 101,-241.5 101,-211.5 0,-211.5"/>
<text text-anchor="start" x="8" y="-229.5" font-family="Helvetica,sans-Serif" font-size="10.00">std::vector&lt; boost</text>
<text text-anchor="middle" x="50.5" y="-218.5" font-family="Helvetica,sans-Serif" font-size="10.00">::filesystem::path &gt;</text>
</g>
<!-- Node4&#45;&gt;Node3 -->
<g id="edge2" class="edge"><title>Node4&#45;&gt;Node3</title>
<path fill="none" stroke="#9a32cd" stroke-dasharray="5,2" d="M51.1635,-201.035C52.0728,-167.503 53.6619,-108.905 54.2617,-86.7868"/>
<polygon fill="#9a32cd" stroke="#9a32cd" points="47.656,-201.266 50.8835,-211.357 54.6534,-201.456 47.656,-201.266"/>
<text text-anchor="middle" x="82.5" y="-146.5" font-family="Helvetica,sans-Serif" font-size="10.00"> config_dirs_</text>
</g>
<!-- Node5 -->
<g id="node4" class="node"><title>Node5</title>
<g id="a_node4"><a xlink:href="struct_storage_config.html" target="_top" xlink:title="StorageConfig">
<polygon fill="white" stroke="black" points="110,-67.5 110,-86.5 189,-86.5 189,-67.5 110,-67.5"/>
<text text-anchor="middle" x="149.5" y="-74.5" font-family="Helvetica,sans-Serif" font-size="10.00">StorageConfig</text>
</a>
</g>
</g>
<!-- Node5&#45;&gt;Node2 -->
<g id="edge3" class="edge"><title>Node5&#45;&gt;Node2</title>
<path fill="none" stroke="#9a32cd" stroke-dasharray="5,2" d="M149.5,-57.037C149.5,-44.6703 149.5,-29.1198 149.5,-19.6273"/>
<polygon fill="#9a32cd" stroke="#9a32cd" points="146,-57.2338 149.5,-67.2338 153,-57.2338 146,-57.2338"/>
<text text-anchor="middle" x="167.5" y="-41" font-family="Helvetica,sans-Serif" font-size="10.00"> storage</text>
</g>
<!-- Node6 -->
<g id="node5" class="node"><title>Node6</title>
<g id="a_node5"><a xlink:href="class_based_path.html" target="_top" xlink:title="BasedPath">
<polygon fill="white" stroke="black" points="119,-217 119,-236 184,-236 184,-217 119,-217"/>
<text text-anchor="middle" x="151.5" y="-224" font-family="Helvetica,sans-Serif" font-size="10.00">BasedPath</text>
</a>
</g>
</g>
<!-- Node6&#45;&gt;Node5 -->
<g id="edge4" class="edge"><title>Node6&#45;&gt;Node5</title>
<path fill="none" stroke="#9a32cd" stroke-dasharray="5,2" d="M151.241,-206.371C150.802,-174.005 149.93,-109.703 149.616,-86.5543"/>
<polygon fill="#9a32cd" stroke="#9a32cd" points="147.746,-206.763 151.381,-216.715 154.745,-206.668 147.746,-206.763"/>
<text text-anchor="middle" x="206" y="-185" font-family="Helvetica,sans-Serif" font-size="10.00"> uptane_public_key_path</text>
<text text-anchor="middle" x="206" y="-174" font-family="Helvetica,sans-Serif" font-size="10.00">tls_pkey_path</text>
<text text-anchor="middle" x="206" y="-163" font-family="Helvetica,sans-Serif" font-size="10.00">uptane_metadata_path</text>
<text text-anchor="middle" x="206" y="-152" font-family="Helvetica,sans-Serif" font-size="10.00">sqldb_path</text>
<text text-anchor="start" x="151.5" y="-141" font-family="Helvetica,sans-Serif" font-size="10.00">uptane_private_key</text>
<text text-anchor="middle" x="206" y="-130" font-family="Helvetica,sans-Serif" font-size="10.00">_path</text>
<text text-anchor="middle" x="206" y="-119" font-family="Helvetica,sans-Serif" font-size="10.00">tls_cacert_path</text>
<text text-anchor="middle" x="206" y="-108" font-family="Helvetica,sans-Serif" font-size="10.00">tls_clientcert_path</text>
</g>
<!-- Node7 -->
<g id="node6" class="node"><title>Node7</title>
<g id="a_node6"><a xlink:href="struct_logger_config.html" target="_top" xlink:title="LoggerConfig">
<polygon fill="white" stroke="black" points="207.5,-67.5 207.5,-86.5 281.5,-86.5 281.5,-67.5 207.5,-67.5"/>
<text text-anchor="middle" x="244.5" y="-74.5" font-family="Helvetica,sans-Serif" font-size="10.00">LoggerConfig</text>
</a>
</g>
</g>
<!-- Node7&#45;&gt;Node2 -->
<g id="edge5" class="edge"><title>Node7&#45;&gt;Node2</title>
<path fill="none" stroke="#9a32cd" stroke-dasharray="5,2" d="M223.529,-61.4319C213.285,-54.3362 200.767,-45.6949 189.5,-38 180.505,-31.8574 170.331,-24.9908 162.495,-19.7195"/>
<polygon fill="#9a32cd" stroke="#9a32cd" points="221.645,-64.3845 231.857,-67.207 225.634,-58.6323 221.645,-64.3845"/>
<text text-anchor="middle" x="220.5" y="-41" font-family="Helvetica,sans-Serif" font-size="10.00"> logger</text>
</g>
</g>
</svg>
