<?xml version="1.0" encoding="UTF-8" standalone="no"?>
<!DOCTYPE svg PUBLIC "-//W3C//DTD SVG 1.1//EN"
 "http://www.w3.org/Graphics/SVG/1.1/DTD/svg11.dtd">
<!-- Generated by graphviz version 2.40.1 (20161225.0304)
 -->
<!-- Title: HttpFake Pages: 1 -->
<svg width="178pt" height="174pt"
 viewBox="0.00 0.00 177.50 174.00" xmlns="http://www.w3.org/2000/svg" xmlns:xlink="http://www.w3.org/1999/xlink">
<g id="graph0" class="graph" transform="scale(1 1) rotate(0) translate(4 170)">
<title>HttpFake</title>
<polygon fill="#ffffff" stroke="transparent" points="-4,4 -4,-170 173.5,-170 173.5,4 -4,4"/>
<!-- Node2 -->
<g id="node1" class="node">
<title>Node2</title>
<polygon fill="#bfbfbf" stroke="#000000" points="37.5,-.5 37.5,-19.5 94.5,-19.5 94.5,-.5 37.5,-.5"/>
<text text-anchor="middle" x="66" y="-7.5" font-family="Helvetica,sans-Serif" font-size="10.00" fill="#000000">HttpFake</text>
</g>
<!-- Node3 -->
<g id="node2" class="node">
<title>Node3</title>
<g id="a_node2"><a xlink:href="class_http_interface.html" target="_top" xlink:title="HttpInterface">
<polygon fill="#ffffff" stroke="#000000" points="0,-78.5 0,-97.5 74,-97.5 74,-78.5 0,-78.5"/>
<text text-anchor="middle" x="37" y="-85.5" font-family="Helvetica,sans-Serif" font-size="10.00" fill="#000000">HttpInterface</text>
</a>
</g>
</g>
<!-- Node3&#45;&gt;Node2 -->
<g id="edge1" class="edge">
<title>Node3&#45;&gt;Node2</title>
<path fill="none" stroke="#191970" d="M44.1616,-68.7379C49.9577,-53.1484 57.8782,-31.845 62.4149,-19.6426"/>
<polygon fill="#191970" stroke="#191970" points="40.7603,-67.8428 40.556,-78.4357 47.3215,-70.2823 40.7603,-67.8428"/>
</g>
<!-- Node4 -->
<g id="node3" class="node">
<title>Node4</title>
<g id="a_node3"><a xlink:title="STL class. ">
<polygon fill="#ffffff" stroke="#bfbfbf" points="92,-78.5 92,-97.5 152,-97.5 152,-78.5 92,-78.5"/>
<text text-anchor="middle" x="122" y="-85.5" font-family="Helvetica,sans-Serif" font-size="10.00" fill="#000000">std::string</text>
</a>
</g>
</g>
<!-- Node4&#45;&gt;Node2 -->
<g id="edge2" class="edge">
<title>Node4&#45;&gt;Node2</title>
<path fill="none" stroke="#9a32cd" stroke-dasharray="5,2" d="M109.1289,-70.0723C97.8661,-54.385 81.9363,-32.197 72.9229,-19.6426"/>
<polygon fill="#9a32cd" stroke="#9a32cd" points="106.4581,-72.3537 115.1333,-78.4357 112.1443,-68.2712 106.4581,-72.3537"/>
<text text-anchor="middle" x="130" y="-52" font-family="Helvetica,sans-Serif" font-size="10.00" fill="#000000"> tls_server</text>
<text text-anchor="middle" x="130" y="-41" font-family="Helvetica,sans-Serif" font-size="10.00" fill="#000000">test_manifest</text>
</g>
<!-- Node5 -->
<g id="node4" class="node">
<title>Node5</title>
<g id="a_node4"><a xlink:title="STL class. ">
<polygon fill="#ffffff" stroke="#bfbfbf" points="74.5,-135.5 74.5,-165.5 169.5,-165.5 169.5,-135.5 74.5,-135.5"/>
<text text-anchor="start" x="82.5" y="-153.5" font-family="Helvetica,sans-Serif" font-size="10.00" fill="#000000">std::basic_string&lt;</text>
<text text-anchor="middle" x="122" y="-142.5" font-family="Helvetica,sans-Serif" font-size="10.00" fill="#000000"> char &gt;</text>
</a>
</g>
</g>
<!-- Node5&#45;&gt;Node4 -->
<g id="edge3" class="edge">
<title>Node5&#45;&gt;Node4</title>
<path fill="none" stroke="#191970" d="M122,-125.3498C122,-115.6481 122,-105.1303 122,-97.7356"/>
<polygon fill="#191970" stroke="#191970" points="118.5001,-125.3705 122,-135.3705 125.5001,-125.3705 118.5001,-125.3705"/>
</g>
</g>
</svg>
