<?xml version="1.0" encoding="UTF-8" standalone="no"?>
<!DOCTYPE svg PUBLIC "-//W3C//DTD SVG 1.1//EN"
 "http://www.w3.org/Graphics/SVG/1.1/DTD/svg11.dtd">
<!-- Generated by graphviz version 2.38.0 (20140413.2041)
 -->
<!-- Title: Config Pages: 1 -->
<!--zoomable 669 -->
<svg id="main" version="1.1" xmlns="http://www.w3.org/2000/svg" xmlns:xlink="http://www.w3.org/1999/xlink" xml:space="preserve" onload="init(evt)">
<style type="text/css"><![CDATA[
.edge:hover path { stroke: red; }
.edge:hover polygon { stroke: red; fill: red; }
]]></style>
<script type="text/javascript"><![CDATA[
var edges = document.getElementsByTagName('g');
if (edges && edges.length) {
  for (var i=0;i<edges.length;i++) {
    if (edges[i].id.substr(0,4)=='edge') {
      edges[i].setAttribute('class','edge');
    }
  }
}
]]></script>
        <defs>
                <circle id="rim" cx="0" cy="0" r="7"/>
                <circle id="rim2" cx="0" cy="0" r="3.5"/>
                <g id="zoomPlus">
                        <use xlink:href="#rim" fill="#404040">
                                <set attributeName="fill" to="#808080" begin="zoomplus.mouseover" end="zoomplus.mouseout"/>
                        </use>
                        <path d="M-4,0h8M0,-4v8" fill="none" stroke="white" stroke-width="1.5" pointer-events="none"/>
                </g>
                <g id="zoomMin">
                        <use xlink:href="#rim" fill="#404040">
                                <set attributeName="fill" to="#808080" begin="zoomminus.mouseover" end="zoomminus.mouseout"/>
                        </use>
                        <path d="M-4,0h8" fill="none" stroke="white" stroke-width="1.5" pointer-events="none"/>
                </g>
                <g id="dirArrow">
                        <path fill="none" stroke="white" stroke-width="1.5" d="M0,-3.0v7 M-2.5,-0.5L0,-3.0L2.5,-0.5"/>
                </g>
               <g id="resetDef">
                       <use xlink:href="#rim2" fill="#404040">
                               <set attributeName="fill" to="#808080" begin="reset.mouseover" end="reset.mouseout"/>
                       </use>
               </g>
        </defs>

<script type="text/javascript">
var viewWidth = 1060;
var viewHeight = 669;
var sectionId = 'dynsection-1';
</script>
<script xlink:href="svgpan.js"/>
<svg id="graph" class="graph">
<g id="viewport">
<title>Config</title>
<polygon fill="white" stroke="none" points="-4,4 -4,-665.425 1056,-665.425 1056,4 -4,4"/>
<!-- Node2 -->
<g id="node1" class="node"><title>Node2</title>
<polygon fill="#bfbfbf" stroke="black" points="1007,-317.425 1007,-336.425 1052,-336.425 1052,-317.425 1007,-317.425"/>
<text text-anchor="middle" x="1029.5" y="-324.425" font-family="Helvetica,sans-Serif" font-size="10.00">Config</text>
</g>
<!-- Node3 -->
<g id="node2" class="node"><title>Node3</title>
<g id="a_node2"><a xlink:href="class_base_config.html" target="_top" xlink:title="BaseConfig">
<polygon fill="white" stroke="black" points="842,-595.425 842,-614.425 910,-614.425 910,-595.425 842,-595.425"/>
<text text-anchor="middle" x="876" y="-602.425" font-family="Helvetica,sans-Serif" font-size="10.00">BaseConfig</text>
</a>
</g>
</g>
<!-- Node3&#45;&gt;Node2 -->
<g id="edge1" class="edge"><title>Node3&#45;&gt;Node2</title>
<path fill="none" stroke="midnightblue" d="M918.342,-591.766C942.654,-581.888 971.891,-565.889 989,-541.925 1013.26,-507.95 1024.99,-373.587 1027.82,-336.469"/>
<polygon fill="midnightblue" stroke="midnightblue" points="917.034,-588.52 908.961,-595.381 919.551,-595.052 917.034,-588.52"/>
</g>
<!-- Node4 -->
<g id="node3" class="node"><title>Node4</title>
<polygon fill="white" stroke="#bfbfbf" points="581,-630.925 581,-660.925 682,-660.925 682,-630.925 581,-630.925"/>
<text text-anchor="start" x="589" y="-648.925" font-family="Helvetica,sans-Serif" font-size="10.00">std::vector&lt; boost</text>
<text text-anchor="middle" x="631.5" y="-637.925" font-family="Helvetica,sans-Serif" font-size="10.00">::filesystem::path &gt;</text>
</g>
<!-- Node4&#45;&gt;Node3 -->
<g id="edge2" class="edge"><title>Node4&#45;&gt;Node3</title>
<path fill="none" stroke="#9a32cd" stroke-dasharray="5,2" d="M692.236,-637.998C727.235,-633.09 772.24,-626.324 812,-618.925 821.693,-617.122 832.167,-614.904 841.739,-612.769"/>
<polygon fill="#9a32cd" stroke="#9a32cd" points="691.601,-634.553 682.178,-639.396 692.565,-641.486 691.601,-634.553"/>
<text text-anchor="middle" x="757.5" y="-638.925" font-family="Helvetica,sans-Serif" font-size="10.00"> config_dirs_</text>
</g>
<!-- Node5 -->
<g id="node4" class="node"><title>Node5</title>
<g id="a_node4"><a xlink:href="struct_storage_config.html" target="_top" xlink:title="StorageConfig">
<polygon fill="white" stroke="black" points="836.5,-521.425 836.5,-540.425 915.5,-540.425 915.5,-521.425 836.5,-521.425"/>
<text text-anchor="middle" x="876" y="-528.425" font-family="Helvetica,sans-Serif" font-size="10.00">StorageConfig</text>
</a>
</g>
</g>
<!-- Node5&#45;&gt;Node2 -->
<g id="edge3" class="edge"><title>Node5&#45;&gt;Node2</title>
<path fill="none" stroke="#9a32cd" stroke-dasharray="5,2" d="M925.472,-529.05C947.658,-525.688 972.599,-517.97 989,-500.925 1012.2,-476.818 1024.37,-369.519 1027.61,-336.576"/>
<polygon fill="#9a32cd" stroke="#9a32cd" points="924.996,-525.582 915.513,-530.306 925.872,-532.527 924.996,-525.582"/>
<text text-anchor="middle" x="964.5" y="-529.925" font-family="Helvetica,sans-Serif" font-size="10.00"> storage</text>
</g>
<!-- Node6 -->
<g id="node5" class="node"><title>Node6</title>
<g id="a_node5"><a xlink:href="class_based_path.html" target="_top" xlink:title="BasedPath">
<polygon fill="white" stroke="black" points="599,-483.425 599,-502.425 664,-502.425 664,-483.425 599,-483.425"/>
<text text-anchor="middle" x="631.5" y="-490.425" font-family="Helvetica,sans-Serif" font-size="10.00">BasedPath</text>
</a>
</g>
</g>
<!-- Node6&#45;&gt;Node5 -->
<g id="edge4" class="edge"><title>Node6&#45;&gt;Node5</title>
<path fill="none" stroke="#9a32cd" stroke-dasharray="5,2" d="M671.552,-505.296C681.708,-508.157 692.693,-510.94 703,-512.925 748.402,-521.674 801.423,-526.41 836.466,-528.796"/>
<polygon fill="#9a32cd" stroke="#9a32cd" points="672.307,-501.871 661.727,-502.437 670.351,-508.592 672.307,-501.871"/>
<text text-anchor="middle" x="757.5" y="-606.925" font-family="Helvetica,sans-Serif" font-size="10.00"> uptane_public_key_path</text>
<text text-anchor="middle" x="757.5" y="-595.925" font-family="Helvetica,sans-Serif" font-size="10.00">tls_pkey_path</text>
<text text-anchor="middle" x="757.5" y="-584.925" font-family="Helvetica,sans-Serif" font-size="10.00">uptane_metadata_path</text>
<text text-anchor="middle" x="757.5" y="-573.925" font-family="Helvetica,sans-Serif" font-size="10.00">sqldb_path</text>
<text text-anchor="start" x="703" y="-562.925" font-family="Helvetica,sans-Serif" font-size="10.00">uptane_private_key</text>
<text text-anchor="middle" x="757.5" y="-551.925" font-family="Helvetica,sans-Serif" font-size="10.00">_path</text>
<text text-anchor="middle" x="757.5" y="-540.925" font-family="Helvetica,sans-Serif" font-size="10.00">tls_cacert_path</text>
<text text-anchor="middle" x="757.5" y="-529.925" font-family="Helvetica,sans-Serif" font-size="10.00">tls_clientcert_path</text>
</g>
<!-- Node21 -->
<g id="node20" class="node"><title>Node21</title>
<g id="a_node20"><a xlink:href="struct_import_config.html" target="_top" xlink:title="ImportConfig">
<polygon fill="white" stroke="black" points="839.5,-478.425 839.5,-497.425 912.5,-497.425 912.5,-478.425 839.5,-478.425"/>
<text text-anchor="middle" x="876" y="-485.425" font-family="Helvetica,sans-Serif" font-size="10.00">ImportConfig</text>
</a>
</g>
</g>
<!-- Node6&#45;&gt;Node21 -->
<g id="edge27" class="edge"><title>Node6&#45;&gt;Node21</title>
<path fill="none" stroke="#9a32cd" stroke-dasharray="5,2" d="M650.885,-476.616C664.293,-465.865 683.465,-452.735 703,-446.925 749.435,-433.116 768.222,-426.18 812,-446.925 823.416,-452.336 819.884,-461.358 830,-468.925 834.889,-472.583 840.588,-475.686 846.254,-478.257"/>
<polygon fill="#9a32cd" stroke="#9a32cd" points="648.391,-474.14 642.961,-483.237 652.879,-479.511 648.391,-474.14"/>
<text text-anchor="middle" x="757.5" y="-504.925" font-family="Helvetica,sans-Serif" font-size="10.00"> uptane_public_key_path</text>
<text text-anchor="middle" x="757.5" y="-493.925" font-family="Helvetica,sans-Serif" font-size="10.00">tls_pkey_path</text>
<text text-anchor="start" x="703" y="-482.925" font-family="Helvetica,sans-Serif" font-size="10.00">uptane_private_key</text>
<text text-anchor="middle" x="757.5" y="-471.925" font-family="Helvetica,sans-Serif" font-size="10.00">_path</text>
<text text-anchor="middle" x="757.5" y="-460.925" font-family="Helvetica,sans-Serif" font-size="10.00">tls_cacert_path</text>
<text text-anchor="middle" x="757.5" y="-449.925" font-family="Helvetica,sans-Serif" font-size="10.00">tls_clientcert_path</text>
</g>
<!-- Node7 -->
<g id="node6" class="node"><title>Node7</title>
<g id="a_node6"><a xlink:href="struct_discovery_config.html" target="_top" xlink:title="DiscoveryConfig">
<polygon fill="white" stroke="black" points="831.5,-440.425 831.5,-459.425 920.5,-459.425 920.5,-440.425 831.5,-440.425"/>
<text text-anchor="middle" x="876" y="-447.425" font-family="Helvetica,sans-Serif" font-size="10.00">DiscoveryConfig</text>
</a>
</g>
</g>
<!-- Node7&#45;&gt;Node2 -->
<g id="edge5" class="edge"><title>Node7&#45;&gt;Node2</title>
<path fill="none" stroke="#9a32cd" stroke-dasharray="5,2" d="M930.661,-448.874C950.89,-445.984 972.881,-439.533 989,-425.925 1016.86,-402.409 1025.23,-356.46 1027.61,-336.53"/>
<polygon fill="#9a32cd" stroke="#9a32cd" points="930.122,-445.413 920.596,-450.05 930.934,-452.366 930.122,-445.413"/>
<text text-anchor="middle" x="964.5" y="-450.925" font-family="Helvetica,sans-Serif" font-size="10.00"> discovery</text>
</g>
<!-- Node8 -->
<g id="node7" class="node"><title>Node8</title>
<g id="a_node7"><a xlink:href="struct_tls_config.html" target="_top" xlink:title="TlsConfig">
<polygon fill="white" stroke="black" points="487.5,-409.425 487.5,-428.425 546.5,-428.425 546.5,-409.425 487.5,-409.425"/>
<text text-anchor="middle" x="517" y="-416.425" font-family="Helvetica,sans-Serif" font-size="10.00">TlsConfig</text>
</a>
</g>
</g>
<!-- Node8&#45;&gt;Node2 -->
<g id="edge6" class="edge"><title>Node8&#45;&gt;Node2</title>
<path fill="none" stroke="#9a32cd" stroke-dasharray="5,2" d="M556.773,-418.402C629.246,-416.78 789.869,-410.132 922,-382.925 952.698,-376.604 961.708,-376.335 989,-360.925 1000.66,-354.342 1012.04,-344.007 1019.57,-336.458"/>
<polygon fill="#9a32cd" stroke="#9a32cd" points="556.661,-414.904 546.734,-418.607 556.803,-421.902 556.661,-414.904"/>
<text text-anchor="middle" x="757.5" y="-414.925" font-family="Helvetica,sans-Serif" font-size="10.00"> tls</text>
</g>
<!-- Node9 -->
<g id="node8" class="node"><title>Node9</title>
<g id="a_node8"><a xlink:title="STL class. ">
<polygon fill="white" stroke="#bfbfbf" points="132,-223.425 132,-242.425 192,-242.425 192,-223.425 132,-223.425"/>
<text text-anchor="middle" x="162" y="-230.425" font-family="Helvetica,sans-Serif" font-size="10.00">std::string</text>
</a>
</g>
</g>
<!-- Node9&#45;&gt;Node8 -->
<g id="edge7" class="edge"><title>Node9&#45;&gt;Node8</title>
<path fill="none" stroke="#9a32cd" stroke-dasharray="5,2" d="M165.53,-252.692C171.194,-293.515 186.286,-384.914 210,-403.925 291.546,-469.3 428.194,-443.152 487.309,-427.466"/>
<polygon fill="#9a32cd" stroke="#9a32cd" points="168.978,-252.07 164.184,-242.622 162.04,-252.998 168.978,-252.07"/>
<text text-anchor="middle" x="259.5" y="-445.925" font-family="Helvetica,sans-Serif" font-size="10.00"> server</text>
</g>
<!-- Node12 -->
<g id="node11" class="node"><title>Node12</title>
<g id="a_node11"><a xlink:href="struct_package_config.html" target="_top" xlink:title="PackageConfig">
<polygon fill="white" stroke="black" points="716,-364.425 716,-383.425 799,-383.425 799,-364.425 716,-364.425"/>
<text text-anchor="middle" x="757.5" y="-371.425" font-family="Helvetica,sans-Serif" font-size="10.00">PackageConfig</text>
</a>
</g>
</g>
<!-- Node9&#45;&gt;Node12 -->
<g id="edge11" class="edge"><title>Node9&#45;&gt;Node12</title>
<path fill="none" stroke="#9a32cd" stroke-dasharray="5,2" d="M162.632,-252.659C163.23,-285.245 169.764,-349.609 210,-378.925 250.5,-408.434 596.297,-385.837 715.953,-377.035"/>
<polygon fill="#9a32cd" stroke="#9a32cd" points="166.132,-252.565 162.623,-242.568 159.132,-252.571 166.132,-252.565"/>
<text text-anchor="middle" x="391.5" y="-407.925" font-family="Helvetica,sans-Serif" font-size="10.00"> os</text>
<text text-anchor="middle" x="391.5" y="-396.925" font-family="Helvetica,sans-Serif" font-size="10.00">ostree_server</text>
</g>
<!-- Node13 -->
<g id="node12" class="node"><title>Node13</title>
<g id="a_node12"><a xlink:href="struct_provision_config.html" target="_top" xlink:title="ProvisionConfig">
<polygon fill="white" stroke="black" points="474,-317.425 474,-336.425 560,-336.425 560,-317.425 474,-317.425"/>
<text text-anchor="middle" x="517" y="-324.425" font-family="Helvetica,sans-Serif" font-size="10.00">ProvisionConfig</text>
</a>
</g>
</g>
<!-- Node9&#45;&gt;Node13 -->
<g id="edge13" class="edge"><title>Node9&#45;&gt;Node13</title>
<path fill="none" stroke="#9a32cd" stroke-dasharray="5,2" d="M188.381,-247.309C195.248,-250.804 202.782,-254.289 210,-256.925 252.43,-272.423 270.909,-255.644 309,-279.925 319.946,-286.903 315.713,-296.515 327,-302.925 372.298,-328.653 433.398,-331.808 473.709,-330.427"/>
<polygon fill="#9a32cd" stroke="#9a32cd" points="189.996,-244.204 179.521,-242.616 186.72,-250.39 189.996,-244.204"/>
<text text-anchor="middle" x="259.5" y="-370.925" font-family="Helvetica,sans-Serif" font-size="10.00"> server</text>
<text text-anchor="middle" x="259.5" y="-359.925" font-family="Helvetica,sans-Serif" font-size="10.00">p12_password</text>
<text text-anchor="start" x="210" y="-348.925" font-family="Helvetica,sans-Serif" font-size="10.00">primary_ecu_hardware</text>
<text text-anchor="middle" x="259.5" y="-337.925" font-family="Helvetica,sans-Serif" font-size="10.00">_id</text>
<text text-anchor="middle" x="259.5" y="-326.925" font-family="Helvetica,sans-Serif" font-size="10.00">expiry_days</text>
<text text-anchor="middle" x="259.5" y="-315.925" font-family="Helvetica,sans-Serif" font-size="10.00">device_id</text>
<text text-anchor="start" x="210" y="-304.925" font-family="Helvetica,sans-Serif" font-size="10.00">ecu_registration</text>
<text text-anchor="middle" x="259.5" y="-293.925" font-family="Helvetica,sans-Serif" font-size="10.00">_endpoint</text>
<text text-anchor="middle" x="259.5" y="-282.925" font-family="Helvetica,sans-Serif" font-size="10.00">primary_ecu_serial</text>
</g>
<!-- Node14 -->
<g id="node13" class="node"><title>Node14</title>
<g id="a_node13"><a xlink:href="struct_network_config.html" target="_top" xlink:title="NetworkConfig">
<polygon fill="white" stroke="black" points="590.5,-256.425 590.5,-275.425 672.5,-275.425 672.5,-256.425 590.5,-256.425"/>
<text text-anchor="middle" x="631.5" y="-263.425" font-family="Helvetica,sans-Serif" font-size="10.00">NetworkConfig</text>
</a>
</g>
</g>
<!-- Node9&#45;&gt;Node14 -->
<g id="edge15" class="edge"><title>Node9&#45;&gt;Node14</title>
<path fill="none" stroke="#9a32cd" stroke-dasharray="5,2" d="M202.33,-235.702C290.198,-241.904 501.666,-256.831 590.322,-263.089"/>
<polygon fill="#9a32cd" stroke="#9a32cd" points="202.466,-232.203 192.244,-234.99 201.973,-239.185 202.466,-232.203"/>
<text text-anchor="middle" x="391.5" y="-278.925" font-family="Helvetica,sans-Serif" font-size="10.00"> socket_commands_path</text>
<text text-anchor="middle" x="391.5" y="-267.925" font-family="Helvetica,sans-Serif" font-size="10.00">socket_events_path</text>
<text text-anchor="middle" x="391.5" y="-256.925" font-family="Helvetica,sans-Serif" font-size="10.00">ipdiscovery_host</text>
</g>
<!-- Node15 -->
<g id="node14" class="node"><title>Node15</title>
<polygon fill="white" stroke="#bfbfbf" points="329,-210.425 329,-229.425 454,-229.425 454,-210.425 329,-210.425"/>
<text text-anchor="middle" x="391.5" y="-217.425" font-family="Helvetica,sans-Serif" font-size="10.00">std::vector&lt; std::string &gt;</text>
</g>
<!-- Node9&#45;&gt;Node15 -->
<g id="edge17" class="edge"><title>Node9&#45;&gt;Node15</title>
<path fill="none" stroke="#9a32cd" stroke-dasharray="5,2" d="M201.914,-222.216C204.636,-221.706 207.351,-221.266 210,-220.925 249.319,-215.875 293.853,-215.571 328.848,-216.557"/>
<polygon fill="#9a32cd" stroke="#9a32cd" points="201.164,-218.797 192.12,-224.316 202.631,-225.642 201.164,-218.797"/>
<text text-anchor="middle" x="259.5" y="-223.925" font-family="Helvetica,sans-Serif" font-size="10.00"> elements</text>
</g>
<!-- Node16 -->
<g id="node15" class="node"><title>Node16</title>
<g id="a_node15"><a xlink:href="struct_p11_config.html" target="_top" xlink:title="P11Config">
<polygon fill="white" stroke="black" points="726.5,-179.425 726.5,-198.425 788.5,-198.425 788.5,-179.425 726.5,-179.425"/>
<text text-anchor="middle" x="757.5" y="-186.425" font-family="Helvetica,sans-Serif" font-size="10.00">P11Config</text>
</a>
</g>
</g>
<!-- Node9&#45;&gt;Node16 -->
<g id="edge19" class="edge"><title>Node9&#45;&gt;Node16</title>
<path fill="none" stroke="#9a32cd" stroke-dasharray="5,2" d="M184.081,-217.342C214.03,-196.274 271.445,-159.749 327,-145.925 474.443,-109.239 657.743,-157.635 727.619,-179.356"/>
<polygon fill="#9a32cd" stroke="#9a32cd" points="181.794,-214.675 175.701,-223.342 185.869,-220.366 181.794,-214.675"/>
<text text-anchor="middle" x="391.5" y="-192.925" font-family="Helvetica,sans-Serif" font-size="10.00"> tls_pkey_id</text>
<text text-anchor="middle" x="391.5" y="-181.925" font-family="Helvetica,sans-Serif" font-size="10.00">tls_clientcert_id</text>
<text text-anchor="middle" x="391.5" y="-170.925" font-family="Helvetica,sans-Serif" font-size="10.00">pass</text>
<text text-anchor="middle" x="391.5" y="-159.925" font-family="Helvetica,sans-Serif" font-size="10.00">uptane_key_id</text>
<text text-anchor="middle" x="391.5" y="-148.925" font-family="Helvetica,sans-Serif" font-size="10.00">tls_cacert_id</text>
</g>
<!-- Node17 -->
<g id="node16" class="node"><title>Node17</title>
<g id="a_node16"><a xlink:href="struct_uptane_config.html" target="_top" xlink:title="UptaneConfig">
<polygon fill="white" stroke="black" points="837.5,-185.425 837.5,-204.425 914.5,-204.425 914.5,-185.425 837.5,-185.425"/>
<text text-anchor="middle" x="876" y="-192.425" font-family="Helvetica,sans-Serif" font-size="10.00">UptaneConfig</text>
</a>
</g>
</g>
<!-- Node9&#45;&gt;Node17 -->
<g id="edge21" class="edge"><title>Node9&#45;&gt;Node17</title>
<path fill="none" stroke="#9a32cd" stroke-dasharray="5,2" d="M168.221,-213.63C174.64,-193.823 187.545,-163.731 210,-147.925 338.03,-57.8042 404.569,-89.086 560,-107.925 674.502,-121.804 702.14,-134.795 812,-169.925 825.898,-174.37 841.113,-180.374 853.109,-185.385"/>
<polygon fill="#9a32cd" stroke="#9a32cd" points="164.806,-212.836 165.303,-223.419 171.514,-214.836 164.806,-212.836"/>
<text text-anchor="middle" x="517" y="-121.925" font-family="Helvetica,sans-Serif" font-size="10.00"> repo_server</text>
<text text-anchor="middle" x="517" y="-110.925" font-family="Helvetica,sans-Serif" font-size="10.00">director_server</text>
</g>
<!-- Node19 -->
<g id="node18" class="node"><title>Node19</title>
<g id="a_node18"><a xlink:href="class_uptane_1_1_secondary_config.html" target="_top" xlink:title="Uptane::SecondaryConfig">
<polygon fill="white" stroke="black" points="327,-14.4255 327,-33.4255 456,-33.4255 456,-14.4255 327,-14.4255"/>
<text text-anchor="middle" x="391.5" y="-21.4255" font-family="Helvetica,sans-Serif" font-size="10.00">Uptane::SecondaryConfig</text>
</a>
</g>
</g>
<!-- Node9&#45;&gt;Node19 -->
<g id="edge24" class="edge"><title>Node9&#45;&gt;Node19</title>
<path fill="none" stroke="#9a32cd" stroke-dasharray="5,2" d="M164.349,-213.101C168.057,-165.293 180.177,-45.8363 210,-21.9255 254.255,13.5566 326.162,-2.13497 364.496,-14.3747"/>
<polygon fill="#9a32cd" stroke="#9a32cd" points="160.837,-213.143 163.598,-223.371 167.818,-213.653 160.837,-213.143"/>
<text text-anchor="middle" x="259.5" y="-68.9255" font-family="Helvetica,sans-Serif" font-size="10.00"> ecu_private_key</text>
<text text-anchor="middle" x="259.5" y="-57.9255" font-family="Helvetica,sans-Serif" font-size="10.00">ecu_hardware_id</text>
<text text-anchor="middle" x="259.5" y="-46.9255" font-family="Helvetica,sans-Serif" font-size="10.00">ecu_serial</text>
<text text-anchor="middle" x="259.5" y="-35.9255" font-family="Helvetica,sans-Serif" font-size="10.00">opcua_lds_url</text>
<text text-anchor="middle" x="259.5" y="-24.9255" font-family="Helvetica,sans-Serif" font-size="10.00">ecu_public_key</text>
</g>
<!-- Node10 -->
<g id="node9" class="node"><title>Node10</title>
<g id="a_node9"><a xlink:title="STL class. ">
<polygon fill="white" stroke="#bfbfbf" points="0,-217.925 0,-247.925 95,-247.925 95,-217.925 0,-217.925"/>
<text text-anchor="start" x="8" y="-235.925" font-family="Helvetica,sans-Serif" font-size="10.00">std::basic_string&lt;</text>
<text text-anchor="middle" x="47.5" y="-224.925" font-family="Helvetica,sans-Serif" font-size="10.00"> char &gt;</text>
</a>
</g>
</g>
<!-- Node10&#45;&gt;Node9 -->
<g id="edge8" class="edge"><title>Node10&#45;&gt;Node9</title>
<path fill="none" stroke="midnightblue" d="M105.526,-232.925C114.678,-232.925 123.803,-232.925 131.931,-232.925"/>
<polygon fill="midnightblue" stroke="midnightblue" points="105.233,-229.426 95.2328,-232.925 105.233,-236.426 105.233,-229.426"/>
</g>
<!-- Node11 -->
<g id="node10" class="node"><title>Node11</title>
<g id="a_node10"><a xlink:href="struct_logger_config.html" target="_top" xlink:title="LoggerConfig">
<polygon fill="white" stroke="black" points="839,-147.425 839,-166.425 913,-166.425 913,-147.425 839,-147.425"/>
<text text-anchor="middle" x="876" y="-154.425" font-family="Helvetica,sans-Serif" font-size="10.00">LoggerConfig</text>
</a>
</g>
</g>
<!-- Node11&#45;&gt;Node2 -->
<g id="edge9" class="edge"><title>Node11&#45;&gt;Node2</title>
<path fill="none" stroke="#9a32cd" stroke-dasharray="5,2" d="M923.28,-156.119C945.761,-158.15 971.606,-164.432 989,-180.925 1028.63,-218.507 1029.94,-291.401 1029.03,-317.415"/>
<polygon fill="#9a32cd" stroke="#9a32cd" points="923.437,-152.622 913.23,-155.464 922.981,-159.607 923.437,-152.622"/>
<text text-anchor="middle" x="964.5" y="-183.925" font-family="Helvetica,sans-Serif" font-size="10.00"> logger</text>
</g>
<!-- Node12&#45;&gt;Node2 -->
<g id="edge10" class="edge"><title>Node12&#45;&gt;Node2</title>
<path fill="none" stroke="#9a32cd" stroke-dasharray="5,2" d="M809.603,-369.545C856.683,-364.819 928.239,-355.885 989,-340.925 994.793,-339.499 1000.93,-337.55 1006.59,-335.56"/>
<polygon fill="#9a32cd" stroke="#9a32cd" points="808.968,-366.09 799.356,-370.546 809.648,-373.057 808.968,-366.09"/>
<text text-anchor="middle" x="876" y="-370.925" font-family="Helvetica,sans-Serif" font-size="10.00"> pacman</text>
</g>
<!-- Node13&#45;&gt;Node2 -->
<g id="edge12" class="edge"><title>Node13&#45;&gt;Node2</title>
<path fill="none" stroke="#9a32cd" stroke-dasharray="5,2" d="M570.415,-326.925C680.528,-326.925 931.915,-326.925 1006.96,-326.925"/>
<polygon fill="#9a32cd" stroke="#9a32cd" points="570.211,-323.426 560.211,-326.925 570.211,-330.426 570.211,-323.426"/>
<text text-anchor="middle" x="757.5" y="-329.925" font-family="Helvetica,sans-Serif" font-size="10.00"> provision</text>
</g>
<!-- Node14&#45;&gt;Node2 -->
<g id="edge14" class="edge"><title>Node14&#45;&gt;Node2</title>
<path fill="none" stroke="#9a32cd" stroke-dasharray="5,2" d="M682.814,-271.579C740.624,-278.215 838.297,-289.855 922,-301.925 951.867,-306.233 959.774,-305.411 989,-312.925 994.919,-314.447 1001.21,-316.478 1006.98,-318.519"/>
<polygon fill="#9a32cd" stroke="#9a32cd" points="683.176,-268.098 672.843,-270.439 682.381,-275.052 683.176,-268.098"/>
<text text-anchor="middle" x="876" y="-304.925" font-family="Helvetica,sans-Serif" font-size="10.00"> network</text>
</g>
<!-- Node15&#45;&gt;Node14 -->
<g id="edge16" class="edge"><title>Node15&#45;&gt;Node14</title>
<path fill="none" stroke="#9a32cd" stroke-dasharray="5,2" d="M464.641,-225.525C494.425,-228.725 529.133,-233.609 560,-240.925 576.301,-244.789 594.075,-251.107 607.698,-256.425"/>
<polygon fill="#9a32cd" stroke="#9a32cd" points="464.632,-222.006 454.326,-224.462 463.914,-228.969 464.632,-222.006"/>
<text text-anchor="middle" x="517" y="-243.925" font-family="Helvetica,sans-Serif" font-size="10.00"> socket_events</text>
</g>
<!-- Node16&#45;&gt;Node2 -->
<g id="edge18" class="edge"><title>Node16&#45;&gt;Node2</title>
<path fill="none" stroke="#9a32cd" stroke-dasharray="5,2" d="M795.1,-201.807C858.049,-224.049 980.893,-267.866 989,-273.925 1004.81,-285.742 1017.21,-305.605 1023.64,-317.368"/>
<polygon fill="#9a32cd" stroke="#9a32cd" points="796.133,-198.46 785.538,-198.432 793.802,-205.061 796.133,-198.46"/>
<text text-anchor="middle" x="876" y="-250.925" font-family="Helvetica,sans-Serif" font-size="10.00"> p11</text>
</g>
<!-- Node17&#45;&gt;Node2 -->
<g id="edge20" class="edge"><title>Node17&#45;&gt;Node2</title>
<path fill="none" stroke="#9a32cd" stroke-dasharray="5,2" d="M924.652,-193.477C946.508,-195.212 971.407,-200.892 989,-215.925 1020.1,-242.502 1026.72,-295.302 1028.12,-317.13"/>
<polygon fill="#9a32cd" stroke="#9a32cd" points="924.713,-189.975 914.538,-192.928 924.334,-196.965 924.713,-189.975"/>
<text text-anchor="middle" x="964.5" y="-218.925" font-family="Helvetica,sans-Serif" font-size="10.00"> uptane</text>
</g>
<!-- Node18 -->
<g id="node17" class="node"><title>Node18</title>
<polygon fill="white" stroke="#bfbfbf" points="578,-24.9255 578,-54.9255 685,-54.9255 685,-24.9255 578,-24.9255"/>
<text text-anchor="start" x="586" y="-42.9255" font-family="Helvetica,sans-Serif" font-size="10.00">std::vector&lt; Uptane</text>
<text text-anchor="middle" x="631.5" y="-31.9255" font-family="Helvetica,sans-Serif" font-size="10.00">::SecondaryConfig &gt;</text>
</g>
<!-- Node18&#45;&gt;Node17 -->
<g id="edge22" class="edge"><title>Node18&#45;&gt;Node17</title>
<path fill="none" stroke="#9a32cd" stroke-dasharray="5,2" d="M695.41,-31.8718C734.105,-30.6245 781.886,-36.3593 812,-65.9255 847.349,-100.632 799.364,-136.996 830,-175.925 833.042,-179.791 837.015,-182.88 841.342,-185.346"/>
<polygon fill="#9a32cd" stroke="#9a32cd" points="695.092,-28.383 685.273,-32.3614 695.43,-35.3748 695.092,-28.383"/>
<text text-anchor="middle" x="757.5" y="-68.9255" font-family="Helvetica,sans-Serif" font-size="10.00"> secondary_configs</text>
</g>
<!-- Node19&#45;&gt;Node18 -->
<g id="edge23" class="edge"><title>Node19&#45;&gt;Node18</title>
<path fill="none" stroke="#9a32cd" stroke-dasharray="5,2" d="M466.278,-28.8853C502.387,-31.3128 545.022,-34.179 577.8,-36.3826"/>
<polygon fill="#9a32cd" stroke="#9a32cd" points="466.492,-25.3919 456.28,-28.2132 466.022,-32.3761 466.492,-25.3919"/>
<text text-anchor="middle" x="517" y="-37.9255" font-family="Helvetica,sans-Serif" font-size="10.00"> elements</text>
</g>
<!-- Node20 -->
<g id="node19" class="node"><title>Node20</title>
<g id="a_node19"><a xlink:href="struct_telemetry_config.html" target="_top" xlink:title="TelemetryConfig">
<polygon fill="white" stroke="black" points="831.5,-109.425 831.5,-128.425 920.5,-128.425 920.5,-109.425 831.5,-109.425"/>
<text text-anchor="middle" x="876" y="-116.425" font-family="Helvetica,sans-Serif" font-size="10.00">TelemetryConfig</text>
</a>
</g>
</g>
<!-- Node20&#45;&gt;Node2 -->
<g id="edge25" class="edge"><title>Node20&#45;&gt;Node2</title>
<path fill="none" stroke="#9a32cd" stroke-dasharray="5,2" d="M930.655,-119C951.42,-121.787 973.799,-128.618 989,-143.925 1013.85,-168.949 1024.95,-283.039 1027.76,-317.22"/>
<polygon fill="#9a32cd" stroke="#9a32cd" points="930.942,-115.511 920.629,-117.938 930.204,-122.472 930.942,-115.511"/>
<text text-anchor="middle" x="964.5" y="-146.925" font-family="Helvetica,sans-Serif" font-size="10.00"> telemetry</text>
</g>
<!-- Node21&#45;&gt;Node2 -->
<g id="edge26" class="edge"><title>Node21&#45;&gt;Node2</title>
<path fill="none" stroke="#9a32cd" stroke-dasharray="5,2" d="M922.7,-488.189C945.268,-485.957 971.366,-479.481 989,-462.925 1025.93,-428.258 1029,-361.32 1028.79,-336.495"/>
<polygon fill="#9a32cd" stroke="#9a32cd" points="922.336,-484.707 912.623,-488.938 922.854,-491.688 922.336,-484.707"/>
<text text-anchor="middle" x="964.5" y="-488.925" font-family="Helvetica,sans-Serif" font-size="10.00"> import</text>
</g>
<!-- Node22 -->
<g id="node21" class="node"><title>Node22</title>
<g id="a_node21"><a xlink:href="struct_bootloader_config.html" target="_top" xlink:title="BootloaderConfig">
<polygon fill="white" stroke="black" points="830,-71.4255 830,-90.4255 922,-90.4255 922,-71.4255 830,-71.4255"/>
<text text-anchor="middle" x="876" y="-78.4255" font-family="Helvetica,sans-Serif" font-size="10.00">BootloaderConfig</text>
</a>
</g>
</g>
<!-- Node22&#45;&gt;Node2 -->
<g id="edge28" class="edge"><title>Node22&#45;&gt;Node2</title>
<path fill="none" stroke="#9a32cd" stroke-dasharray="5,2" d="M932.449,-80.9392C952.819,-83.8154 974.438,-90.7271 989,-105.925 1018.8,-137.023 1026.58,-279.13 1028.16,-317.406"/>
<polygon fill="#9a32cd" stroke="#9a32cd" points="932.597,-77.4341 922.272,-79.8064 931.823,-84.3912 932.597,-77.4341"/>
<text text-anchor="middle" x="964.5" y="-108.925" font-family="Helvetica,sans-Serif" font-size="10.00"> bootloader</text>
</g>
</g>
</svg>
        <g id="navigator" transform="translate(0 0)" fill="#404254">
                <rect fill="#f2f5e9" fill-opacity="0.5" stroke="#606060" stroke-width=".5" x="0" y="0" width="60" height="60"/>
                <use id="zoomplus" xlink:href="#zoomPlus" x="17" y="9" onmousedown="handleZoom(evt,'in')"/>
                <use id="zoomminus" xlink:href="#zoomMin" x="42" y="9" onmousedown="handleZoom(evt,'out')"/>
                <use id="reset" xlink:href="#resetDef" x="30" y="36" onmousedown="handleReset()"/>
                <g id="arrowUp" xlink:href="#dirArrow" transform="translate(30 24)" onmousedown="handlePan(0,-1)">
                  <use xlink:href="#rim" fill="#404040">
                        <set attributeName="fill" to="#808080" begin="arrowUp.mouseover" end="arrowUp.mouseout"/>
                  </use>
                  <path fill="none" stroke="white" stroke-width="1.5" d="M0,-3.0v7 M-2.5,-0.5L0,-3.0L2.5,-0.5"/>
                </g>
                <g id="arrowRight" xlink:href="#dirArrow" transform="rotate(90) translate(36 -43)" onmousedown="handlePan(1,0)">
                  <use xlink:href="#rim" fill="#404040">
                        <set attributeName="fill" to="#808080" begin="arrowRight.mouseover" end="arrowRight.mouseout"/>
                  </use>
                  <path fill="none" stroke="white" stroke-width="1.5" d="M0,-3.0v7 M-2.5,-0.5L0,-3.0L2.5,-0.5"/>
                </g>
                <g id="arrowDown" xlink:href="#dirArrow" transform="rotate(180) translate(-30 -48)" onmousedown="handlePan(0,1)">
                  <use xlink:href="#rim" fill="#404040">
                        <set attributeName="fill" to="#808080" begin="arrowDown.mouseover" end="arrowDown.mouseout"/>
                  </use>
                  <path fill="none" stroke="white" stroke-width="1.5" d="M0,-3.0v7 M-2.5,-0.5L0,-3.0L2.5,-0.5"/>
                </g>
                <g id="arrowLeft" xlink:href="#dirArrow" transform="rotate(270) translate(-36 17)" onmousedown="handlePan(-1,0)">
                  <use xlink:href="#rim" fill="#404040">
                        <set attributeName="fill" to="#808080" begin="arrowLeft.mouseover" end="arrowLeft.mouseout"/>
                  </use>
                  <path fill="none" stroke="white" stroke-width="1.5" d="M0,-3.0v7 M-2.5,-0.5L0,-3.0L2.5,-0.5"/>
                </g>
        </g>
        <svg viewBox="0 0 15 15" width="100%" height="30px" preserveAspectRatio="xMaxYMin meet">
         <g id="arrow_out" transform="scale(0.3 0.3)">
          <a xlink:href="class_config__coll__graph_org.svg" target="_base">
           <rect id="button" ry="5" rx="5" y="6" x="6" height="38" width="38"
                fill="#f2f5e9" fill-opacity="0.5" stroke="#606060" stroke-width="1.0"/>
           <path id="arrow"
             d="M 11.500037,31.436501 C 11.940474,20.09759 22.043105,11.32322 32.158766,21.979434 L 37.068811,17.246167 C 37.068811,17.246167 37.088388,32 37.088388,32 L 22.160133,31.978069 C 22.160133,31.978069 26.997745,27.140456 26.997745,27.140456 C 18.528582,18.264221 13.291696,25.230495 11.500037,31.436501 z"
             style="fill:#404040;"/>
          </a>
         </g>
        </svg>
</svg>
