<?xml version="1.0" encoding="UTF-8" standalone="no"?>
<!DOCTYPE svg PUBLIC "-//W3C//DTD SVG 1.1//EN"
 "http://www.w3.org/Graphics/SVG/1.1/DTD/svg11.dtd">
<!-- Generated by graphviz version 2.38.0 (20140413.2041)
 -->
<!-- Title: opcuabridge::CurrentTime Pages: 1 -->
<!--zoomable 198 -->
<svg id="main" version="1.1" xmlns="http://www.w3.org/2000/svg" xmlns:xlink="http://www.w3.org/1999/xlink" xml:space="preserve" onload="init(evt)">
<style type="text/css"><![CDATA[
.edge:hover path { stroke: red; }
.edge:hover polygon { stroke: red; fill: red; }
]]></style>
<script type="text/javascript"><![CDATA[
var edges = document.getElementsByTagName('g');
if (edges && edges.length) {
  for (var i=0;i<edges.length;i++) {
    if (edges[i].id.substr(0,4)=='edge') {
      edges[i].setAttribute('class','edge');
    }
  }
}
]]></script>
        <defs>
                <circle id="rim" cx="0" cy="0" r="7"/>
                <circle id="rim2" cx="0" cy="0" r="3.5"/>
                <g id="zoomPlus">
                        <use xlink:href="#rim" fill="#404040">
                                <set attributeName="fill" to="#808080" begin="zoomplus.mouseover" end="zoomplus.mouseout"/>
                        </use>
                        <path d="M-4,0h8M0,-4v8" fill="none" stroke="white" stroke-width="1.5" pointer-events="none"/>
                </g>
                <g id="zoomMin">
                        <use xlink:href="#rim" fill="#404040">
                                <set attributeName="fill" to="#808080" begin="zoomminus.mouseover" end="zoomminus.mouseout"/>
                        </use>
                        <path d="M-4,0h8" fill="none" stroke="white" stroke-width="1.5" pointer-events="none"/>
                </g>
                <g id="dirArrow">
                        <path fill="none" stroke="white" stroke-width="1.5" d="M0,-3.0v7 M-2.5,-0.5L0,-3.0L2.5,-0.5"/>
                </g>
               <g id="resetDef">
                       <use xlink:href="#rim2" fill="#404040">
                               <set attributeName="fill" to="#808080" begin="reset.mouseover" end="reset.mouseout"/>
                       </use>
               </g>
        </defs>

<script type="text/javascript">
var viewWidth = 1042;
var viewHeight = 198;
var sectionId = 'dynsection-0';
</script>
<script xlink:href="svgpan.js"/>
<svg id="graph" class="graph">
<g id="viewport">
<title>opcuabridge::CurrentTime</title>
<polygon fill="white" stroke="none" points="-4,4 -4,-194 1038,-194 1038,4 -4,4"/>
<!-- Node1 -->
<g id="node1" class="node"><title>Node1</title>
<polygon fill="#bfbfbf" stroke="black" points="905,-76.5 905,-95.5 1034,-95.5 1034,-76.5 905,-76.5"/>
<text text-anchor="middle" x="969.5" y="-83.5" font-family="Helvetica,sans-Serif" font-size="10.00">opcuabridge::CurrentTime</text>
</g>
<!-- Node2 -->
<g id="node2" class="node"><title>Node2</title>
<g id="a_node2"><a xlink:href="structopcuabridge_1_1_message_on_before_read_callback.html" target="_top" xlink:title="opcuabridge::MessageOnBefore\lReadCallback\&lt; opcuabridge\l::CurrentTime \&gt;">
<polygon fill="white" stroke="black" points="622,-148.5 622,-189.5 778,-189.5 778,-148.5 622,-148.5"/>
<text text-anchor="start" x="630" y="-177.5" font-family="Helvetica,sans-Serif" font-size="10.00">opcuabridge::MessageOnBefore</text>
<text text-anchor="start" x="630" y="-166.5" font-family="Helvetica,sans-Serif" font-size="10.00">ReadCallback&lt; opcuabridge</text>
<text text-anchor="middle" x="700" y="-155.5" font-family="Helvetica,sans-Serif" font-size="10.00">::CurrentTime &gt;</text>
</a>
</g>
</g>
<!-- Node2&#45;&gt;Node1 -->
<g id="edge1" class="edge"><title>Node2&#45;&gt;Node1</title>
<path fill="none" stroke="#9a32cd" stroke-dasharray="5,2" d="M787.893,-145.698C819.28,-136.898 854.881,-126.471 887,-116 906.352,-109.691 927.958,-101.693 944.059,-95.5424"/>
<polygon fill="#9a32cd" stroke="#9a32cd" points="786.553,-142.438 777.861,-148.496 788.433,-149.181 786.553,-142.438"/>
<text text-anchor="middle" x="841.5" y="-145" font-family="Helvetica,sans-Serif" font-size="10.00"> on_before_read_cb_</text>
</g>
<!-- Node3 -->
<g id="node3" class="node"><title>Node3</title>
<g id="a_node3"><a xlink:href="structopcuabridge_1_1_message_on_after_write_callback.html" target="_top" xlink:title="opcuabridge::MessageOnAfter\lWriteCallback\&lt; opcuabridge\l::CurrentTime \&gt;">
<polygon fill="white" stroke="black" points="625.5,-88.5 625.5,-129.5 774.5,-129.5 774.5,-88.5 625.5,-88.5"/>
<text text-anchor="start" x="633.5" y="-117.5" font-family="Helvetica,sans-Serif" font-size="10.00">opcuabridge::MessageOnAfter</text>
<text text-anchor="start" x="633.5" y="-106.5" font-family="Helvetica,sans-Serif" font-size="10.00">WriteCallback&lt; opcuabridge</text>
<text text-anchor="middle" x="700" y="-95.5" font-family="Helvetica,sans-Serif" font-size="10.00">::CurrentTime &gt;</text>
</a>
</g>
</g>
<!-- Node3&#45;&gt;Node1 -->
<g id="edge2" class="edge"><title>Node3&#45;&gt;Node1</title>
<path fill="none" stroke="#9a32cd" stroke-dasharray="5,2" d="M785.029,-101.775C823.795,-98.442 869.057,-94.5502 904.926,-91.4662"/>
<polygon fill="#9a32cd" stroke="#9a32cd" points="784.467,-98.3104 774.804,-102.654 785.067,-105.285 784.467,-98.3104"/>
<text text-anchor="middle" x="841.5" y="-104" font-family="Helvetica,sans-Serif" font-size="10.00"> on_after_write_cb_</text>
</g>
<!-- Node4 -->
<g id="node4" class="node"><title>Node4</title>
<polygon fill="white" stroke="#bfbfbf" points="637.5,-39 637.5,-69 762.5,-69 762.5,-39 637.5,-39"/>
<text text-anchor="start" x="645.5" y="-57" font-family="Helvetica,sans-Serif" font-size="10.00">std::vector&lt; opcuabridge</text>
<text text-anchor="middle" x="700" y="-46" font-family="Helvetica,sans-Serif" font-size="10.00">::Signature &gt;</text>
</g>
<!-- Node4&#45;&gt;Node1 -->
<g id="edge3" class="edge"><title>Node4&#45;&gt;Node1</title>
<path fill="none" stroke="#9a32cd" stroke-dasharray="5,2" d="M772.667,-62.5732C813.817,-67.4958 865.042,-73.6237 904.78,-78.3774"/>
<polygon fill="#9a32cd" stroke="#9a32cd" points="773.051,-59.0943 762.706,-61.3816 772.219,-66.0447 773.051,-59.0943"/>
<text text-anchor="middle" x="841.5" y="-79" font-family="Helvetica,sans-Serif" font-size="10.00"> signatures_</text>
</g>
<!-- Node5 -->
<g id="node5" class="node"><title>Node5</title>
<g id="a_node5"><a xlink:href="classopcuabridge_1_1_signature.html" target="_top" xlink:title="opcuabridge::Signature">
<polygon fill="white" stroke="black" points="427,-44.5 427,-63.5 543,-63.5 543,-44.5 427,-44.5"/>
<text text-anchor="middle" x="485" y="-51.5" font-family="Helvetica,sans-Serif" font-size="10.00">opcuabridge::Signature</text>
</a>
</g>
</g>
<!-- Node5&#45;&gt;Node4 -->
<g id="edge4" class="edge"><title>Node5&#45;&gt;Node4</title>
<path fill="none" stroke="#9a32cd" stroke-dasharray="5,2" d="M553.189,-54C580.109,-54 610.927,-54 637.275,-54"/>
<polygon fill="#9a32cd" stroke="#9a32cd" points="553.08,-50.5001 543.08,-54 553.08,-57.5001 553.08,-50.5001"/>
<text text-anchor="middle" x="582.5" y="-57" font-family="Helvetica,sans-Serif" font-size="10.00"> elements</text>
</g>
<!-- Node6 -->
<g id="node6" class="node"><title>Node6</title>
<g id="a_node6"><a xlink:href="classopcuabridge_1_1_hash.html" target="_top" xlink:title="opcuabridge::Hash">
<polygon fill="white" stroke="black" points="263,-11.5 263,-30.5 361,-30.5 361,-11.5 263,-11.5"/>
<text text-anchor="middle" x="312" y="-18.5" font-family="Helvetica,sans-Serif" font-size="10.00">opcuabridge::Hash</text>
</a>
</g>
</g>
<!-- Node6&#45;&gt;Node5 -->
<g id="edge5" class="edge"><title>Node6&#45;&gt;Node5</title>
<path fill="none" stroke="#9a32cd" stroke-dasharray="5,2" d="M370.997,-32.1925C391.623,-36.1729 414.639,-40.6146 434.489,-44.4453"/>
<polygon fill="#9a32cd" stroke="#9a32cd" points="371.57,-28.7385 361.088,-30.2802 370.244,-35.6117 371.57,-28.7385"/>
<text text-anchor="middle" x="394" y="-43" font-family="Helvetica,sans-Serif" font-size="10.00"> hash_</text>
</g>
<!-- Node7 -->
<g id="node7" class="node"><title>Node7</title>
<g id="a_node7"><a xlink:title="STL class. ">
<polygon fill="white" stroke="#bfbfbf" points="132,-39.5 132,-58.5 192,-58.5 192,-39.5 132,-39.5"/>
<text text-anchor="middle" x="162" y="-46.5" font-family="Helvetica,sans-Serif" font-size="10.00">std::string</text>
</a>
</g>
</g>
<!-- Node7&#45;&gt;Node5 -->
<g id="edge8" class="edge"><title>Node7&#45;&gt;Node5</title>
<path fill="none" stroke="#9a32cd" stroke-dasharray="5,2" d="M202.206,-52.5768C204.842,-52.7433 207.459,-52.8874 210,-53 284.849,-56.3162 371.311,-55.9304 426.766,-55.1426"/>
<polygon fill="#9a32cd" stroke="#9a32cd" points="202.285,-49.0735 192.059,-51.8444 201.781,-56.0554 202.285,-49.0735"/>
<text text-anchor="middle" x="312" y="-70" font-family="Helvetica,sans-Serif" font-size="10.00"> keyid_</text>
<text text-anchor="middle" x="312" y="-59" font-family="Helvetica,sans-Serif" font-size="10.00">value_</text>
</g>
<!-- Node7&#45;&gt;Node6 -->
<g id="edge6" class="edge"><title>Node7&#45;&gt;Node6</title>
<path fill="none" stroke="#9a32cd" stroke-dasharray="5,2" d="M202.154,-41.5924C220.783,-38.0681 243.229,-33.8216 262.886,-30.1026"/>
<polygon fill="#9a32cd" stroke="#9a32cd" points="201.415,-38.1701 192.24,-43.4681 202.716,-45.0481 201.415,-38.1701"/>
<text text-anchor="middle" x="227.5" y="-43" font-family="Helvetica,sans-Serif" font-size="10.00"> digest_</text>
</g>
<!-- Node8 -->
<g id="node8" class="node"><title>Node8</title>
<g id="a_node8"><a xlink:title="STL class. ">
<polygon fill="white" stroke="#bfbfbf" points="0,-34 0,-64 95,-64 95,-34 0,-34"/>
<text text-anchor="start" x="8" y="-52" font-family="Helvetica,sans-Serif" font-size="10.00">std::basic_string&lt;</text>
<text text-anchor="middle" x="47.5" y="-41" font-family="Helvetica,sans-Serif" font-size="10.00"> char &gt;</text>
</a>
</g>
</g>
<!-- Node8&#45;&gt;Node7 -->
<g id="edge7" class="edge"><title>Node8&#45;&gt;Node7</title>
<path fill="none" stroke="midnightblue" d="M105.526,-49C114.678,-49 123.803,-49 131.931,-49"/>
<polygon fill="midnightblue" stroke="midnightblue" points="105.233,-45.5001 95.2328,-49 105.233,-52.5001 105.233,-45.5001"/>
</g>
<!-- Node9 -->
<g id="node9" class="node"><title>Node9</title>
<g id="a_node9"><a xlink:href="classopcuabridge_1_1_signed.html" target="_top" xlink:title="opcuabridge::Signed">
<polygon fill="white" stroke="black" points="647.5,-0.5 647.5,-19.5 752.5,-19.5 752.5,-0.5 647.5,-0.5"/>
<text text-anchor="middle" x="700" y="-7.5" font-family="Helvetica,sans-Serif" font-size="10.00">opcuabridge::Signed</text>
</a>
</g>
</g>
<!-- Node9&#45;&gt;Node1 -->
<g id="edge9" class="edge"><title>Node9&#45;&gt;Node1</title>
<path fill="none" stroke="#9a32cd" stroke-dasharray="5,2" d="M762.581,-21.1182C799.154,-28.4082 846.206,-38.993 887,-52 908.472,-58.8462 932.157,-69.0407 948.434,-76.4808"/>
<polygon fill="#9a32cd" stroke="#9a32cd" points="763.045,-17.6424 752.558,-19.1502 761.696,-24.5113 763.045,-17.6424"/>
<text text-anchor="middle" x="841.5" y="-55" font-family="Helvetica,sans-Serif" font-size="10.00"> signed_</text>
</g>
<!-- Node10 -->
<g id="node10" class="node"><title>Node10</title>
<polygon fill="white" stroke="#bfbfbf" points="439,-0.5 439,-19.5 531,-19.5 531,-0.5 439,-0.5"/>
<text text-anchor="middle" x="485" y="-7.5" font-family="Helvetica,sans-Serif" font-size="10.00">std::vector&lt; int &gt;</text>
</g>
<!-- Node10&#45;&gt;Node9 -->
<g id="edge10" class="edge"><title>Node10&#45;&gt;Node9</title>
<path fill="none" stroke="#9a32cd" stroke-dasharray="5,2" d="M541.456,-10C574.109,-10 615.145,-10 647.15,-10"/>
<polygon fill="#9a32cd" stroke="#9a32cd" points="541.172,-6.5001 531.172,-10 541.172,-13.5001 541.172,-6.5001"/>
<text text-anchor="middle" x="582.5" y="-13" font-family="Helvetica,sans-Serif" font-size="10.00"> tokens_</text>
</g>
</g>
</svg>
        <g id="navigator" transform="translate(0 0)" fill="#404254">
                <rect fill="#f2f5e9" fill-opacity="0.5" stroke="#606060" stroke-width=".5" x="0" y="0" width="60" height="60"/>
                <use id="zoomplus" xlink:href="#zoomPlus" x="17" y="9" onmousedown="handleZoom(evt,'in')"/>
                <use id="zoomminus" xlink:href="#zoomMin" x="42" y="9" onmousedown="handleZoom(evt,'out')"/>
                <use id="reset" xlink:href="#resetDef" x="30" y="36" onmousedown="handleReset()"/>
                <g id="arrowUp" xlink:href="#dirArrow" transform="translate(30 24)" onmousedown="handlePan(0,-1)">
                  <use xlink:href="#rim" fill="#404040">
                        <set attributeName="fill" to="#808080" begin="arrowUp.mouseover" end="arrowUp.mouseout"/>
                  </use>
                  <path fill="none" stroke="white" stroke-width="1.5" d="M0,-3.0v7 M-2.5,-0.5L0,-3.0L2.5,-0.5"/>
                </g>
                <g id="arrowRight" xlink:href="#dirArrow" transform="rotate(90) translate(36 -43)" onmousedown="handlePan(1,0)">
                  <use xlink:href="#rim" fill="#404040">
                        <set attributeName="fill" to="#808080" begin="arrowRight.mouseover" end="arrowRight.mouseout"/>
                  </use>
                  <path fill="none" stroke="white" stroke-width="1.5" d="M0,-3.0v7 M-2.5,-0.5L0,-3.0L2.5,-0.5"/>
                </g>
                <g id="arrowDown" xlink:href="#dirArrow" transform="rotate(180) translate(-30 -48)" onmousedown="handlePan(0,1)">
                  <use xlink:href="#rim" fill="#404040">
                        <set attributeName="fill" to="#808080" begin="arrowDown.mouseover" end="arrowDown.mouseout"/>
                  </use>
                  <path fill="none" stroke="white" stroke-width="1.5" d="M0,-3.0v7 M-2.5,-0.5L0,-3.0L2.5,-0.5"/>
                </g>
                <g id="arrowLeft" xlink:href="#dirArrow" transform="rotate(270) translate(-36 17)" onmousedown="handlePan(-1,0)">
                  <use xlink:href="#rim" fill="#404040">
                        <set attributeName="fill" to="#808080" begin="arrowLeft.mouseover" end="arrowLeft.mouseout"/>
                  </use>
                  <path fill="none" stroke="white" stroke-width="1.5" d="M0,-3.0v7 M-2.5,-0.5L0,-3.0L2.5,-0.5"/>
                </g>
        </g>
        <svg viewBox="0 0 15 15" width="100%" height="30px" preserveAspectRatio="xMaxYMin meet">
         <g id="arrow_out" transform="scale(0.3 0.3)">
          <a xlink:href="classopcuabridge_1_1_current_time__coll__graph_org.svg" target="_base">
           <rect id="button" ry="5" rx="5" y="6" x="6" height="38" width="38"
                fill="#f2f5e9" fill-opacity="0.5" stroke="#606060" stroke-width="1.0"/>
           <path id="arrow"
             d="M 11.500037,31.436501 C 11.940474,20.09759 22.043105,11.32322 32.158766,21.979434 L 37.068811,17.246167 C 37.068811,17.246167 37.088388,32 37.088388,32 L 22.160133,31.978069 C 22.160133,31.978069 26.997745,27.140456 26.997745,27.140456 C 18.528582,18.264221 13.291696,25.230495 11.500037,31.436501 z"
             style="fill:#404040;"/>
          </a>
         </g>
        </svg>
</svg>
