<?xml version="1.0" encoding="UTF-8" standalone="no"?>
<!DOCTYPE svg PUBLIC "-//W3C//DTD SVG 1.1//EN"
 "http://www.w3.org/Graphics/SVG/1.1/DTD/svg11.dtd">
<!-- Generated by graphviz version 2.38.0 (20140413.2041)
 -->
<!-- Title: opcuabridge::ImageFile Pages: 1 -->
<svg width="541pt" height="154pt"
 viewBox="0.00 0.00 541.00 153.50" xmlns="http://www.w3.org/2000/svg" xmlns:xlink="http://www.w3.org/1999/xlink">
<g id="graph0" class="graph" transform="scale(1 1) rotate(0) translate(4 149.5)">
<title>opcuabridge::ImageFile</title>
<polygon fill="white" stroke="none" points="-4,4 -4,-149.5 537,-149.5 537,4 -4,4"/>
<!-- Node1 -->
<g id="node1" class="node"><title>Node1</title>
<polygon fill="#bfbfbf" stroke="black" points="415,-55 415,-74 533,-74 533,-55 415,-55"/>
<text text-anchor="middle" x="474" y="-62" font-family="Helvetica,sans-Serif" font-size="10.00">opcuabridge::ImageFile</text>
</g>
<!-- Node2 -->
<g id="node2" class="node"><title>Node2</title>
<g id="a_node2"><a xlink:href="structopcuabridge_1_1_message_on_before_read_callback.html" target="_top" xlink:title="opcuabridge::MessageOnBefore\lReadCallback\&lt; opcuabridge\l::ImageFile \&gt;">
<polygon fill="white" stroke="black" points="132,-104 132,-145 288,-145 288,-104 132,-104"/>
<text text-anchor="start" x="140" y="-133" font-family="Helvetica,sans-Serif" font-size="10.00">opcuabridge::MessageOnBefore</text>
<text text-anchor="start" x="140" y="-122" font-family="Helvetica,sans-Serif" font-size="10.00">ReadCallback&lt; opcuabridge</text>
<text text-anchor="middle" x="210" y="-111" font-family="Helvetica,sans-Serif" font-size="10.00">::ImageFile &gt;</text>
</a>
</g>
</g>
<!-- Node2&#45;&gt;Node1 -->
<g id="edge1" class="edge"><title>Node2&#45;&gt;Node1</title>
<path fill="none" stroke="#9a32cd" stroke-dasharray="5,2" d="M298.216,-104.527C343.027,-94.2648 395.562,-82.2338 431.25,-74.0611"/>
<polygon fill="#9a32cd" stroke="#9a32cd" points="297.158,-101.178 288.192,-106.823 298.721,-108.002 297.158,-101.178"/>
<text text-anchor="middle" x="351.5" y="-104.5" font-family="Helvetica,sans-Serif" font-size="10.00"> on_before_read_cb_</text>
</g>
<!-- Node3 -->
<g id="node3" class="node"><title>Node3</title>
<g id="a_node3"><a xlink:href="structopcuabridge_1_1_message_on_after_write_callback.html" target="_top" xlink:title="opcuabridge::MessageOnAfter\lWriteCallback\&lt; opcuabridge\l::ImageFile \&gt;">
<polygon fill="white" stroke="black" points="135.5,-44 135.5,-85 284.5,-85 284.5,-44 135.5,-44"/>
<text text-anchor="start" x="143.5" y="-73" font-family="Helvetica,sans-Serif" font-size="10.00">opcuabridge::MessageOnAfter</text>
<text text-anchor="start" x="143.5" y="-62" font-family="Helvetica,sans-Serif" font-size="10.00">WriteCallback&lt; opcuabridge</text>
<text text-anchor="middle" x="210" y="-51" font-family="Helvetica,sans-Serif" font-size="10.00">::ImageFile &gt;</text>
</a>
</g>
</g>
<!-- Node3&#45;&gt;Node1 -->
<g id="edge2" class="edge"><title>Node3&#45;&gt;Node1</title>
<path fill="none" stroke="#9a32cd" stroke-dasharray="5,2" d="M294.988,-64.5C334.063,-64.5 379.571,-64.5 414.793,-64.5"/>
<polygon fill="#9a32cd" stroke="#9a32cd" points="294.679,-61.0001 284.679,-64.5 294.679,-68.0001 294.679,-61.0001"/>
<text text-anchor="middle" x="351.5" y="-67.5" font-family="Helvetica,sans-Serif" font-size="10.00"> on_after_write_cb_</text>
</g>
<!-- Node4 -->
<g id="node4" class="node"><title>Node4</title>
<g id="a_node4"><a xlink:title="STL class. ">
<polygon fill="white" stroke="#bfbfbf" points="180,-6 180,-25 240,-25 240,-6 180,-6"/>
<text text-anchor="middle" x="210" y="-13" font-family="Helvetica,sans-Serif" font-size="10.00">std::string</text>
</a>
</g>
</g>
<!-- Node4&#45;&gt;Node1 -->
<g id="edge3" class="edge"><title>Node4&#45;&gt;Node1</title>
<path fill="none" stroke="#9a32cd" stroke-dasharray="5,2" d="M250.062,-22.4756C287.72,-29.2393 346.298,-39.8629 397,-49.5 406.117,-51.2328 415.84,-53.1212 425.181,-54.9555"/>
<polygon fill="#9a32cd" stroke="#9a32cd" points="250.48,-18.9948 240.019,-20.6742 249.244,-25.8848 250.48,-18.9948"/>
<text text-anchor="middle" x="351.5" y="-52.5" font-family="Helvetica,sans-Serif" font-size="10.00"> filename_</text>
</g>
<!-- Node5 -->
<g id="node5" class="node"><title>Node5</title>
<g id="a_node5"><a xlink:title="STL class. ">
<polygon fill="white" stroke="#bfbfbf" points="0,-0.5 0,-30.5 95,-30.5 95,-0.5 0,-0.5"/>
<text text-anchor="start" x="8" y="-18.5" font-family="Helvetica,sans-Serif" font-size="10.00">std::basic_string&lt;</text>
<text text-anchor="middle" x="47.5" y="-7.5" font-family="Helvetica,sans-Serif" font-size="10.00"> char &gt;</text>
</a>
</g>
</g>
<!-- Node5&#45;&gt;Node4 -->
<g id="edge4" class="edge"><title>Node5&#45;&gt;Node4</title>
<path fill="none" stroke="midnightblue" d="M105.482,-15.5C130.51,-15.5 158.842,-15.5 179.531,-15.5"/>
<polygon fill="midnightblue" stroke="midnightblue" points="105.355,-12.0001 95.3547,-15.5 105.355,-19.0001 105.355,-12.0001"/>
</g>
</g>
</svg>
