<?xml version="1.0" encoding="UTF-8" standalone="no"?>
<!DOCTYPE svg PUBLIC "-//W3C//DTD SVG 1.1//EN"
 "http://www.w3.org/Graphics/SVG/1.1/DTD/svg11.dtd">
<!-- Generated by graphviz version 2.38.0 (20140413.2041)
 -->
<!-- Title: event::DownloadProgressReport Pages: 1 -->
<svg width="284pt" height="230pt"
 viewBox="0.00 0.00 283.50 230.00" xmlns="http://www.w3.org/2000/svg" xmlns:xlink="http://www.w3.org/1999/xlink">
<g id="graph0" class="graph" transform="scale(1 1) rotate(0) translate(4 226)">
<title>event::DownloadProgressReport</title>
<polygon fill="white" stroke="none" points="-4,4 -4,-226 279.5,-226 279.5,4 -4,4"/>
<!-- Node2 -->
<g id="node1" class="node"><title>Node2</title>
<polygon fill="#bfbfbf" stroke="black" points="48.5,-0.5 48.5,-19.5 206.5,-19.5 206.5,-0.5 48.5,-0.5"/>
<text text-anchor="middle" x="127.5" y="-7.5" font-family="Helvetica,sans-Serif" font-size="10.00">event::DownloadProgressReport</text>
</g>
<!-- Node3 -->
<g id="node2" class="node"><title>Node3</title>
<g id="a_node2"><a xlink:href="classevent_1_1_base_event.html" target="_top" xlink:title="Base class for all event objects. ">
<polygon fill="white" stroke="black" points="80,-67.5 80,-86.5 175,-86.5 175,-67.5 80,-67.5"/>
<text text-anchor="middle" x="127.5" y="-74.5" font-family="Helvetica,sans-Serif" font-size="10.00">event::BaseEvent</text>
</a>
</g>
</g>
<!-- Node3&#45;&gt;Node2 -->
<g id="edge1" class="edge"><title>Node3&#45;&gt;Node2</title>
<path fill="none" stroke="midnightblue" d="M127.5,-57.037C127.5,-44.6703 127.5,-29.1198 127.5,-19.6273"/>
<polygon fill="midnightblue" stroke="midnightblue" points="124,-57.2338 127.5,-67.2338 131,-57.2338 124,-57.2338"/>
</g>
<!-- Node4 -->
<g id="node3" class="node"><title>Node4</title>
<g id="a_node3"><a xlink:title="STL class. ">
<polygon fill="white" stroke="#bfbfbf" points="17.5,-134.5 17.5,-153.5 77.5,-153.5 77.5,-134.5 17.5,-134.5"/>
<text text-anchor="middle" x="47.5" y="-141.5" font-family="Helvetica,sans-Serif" font-size="10.00">std::string</text>
</a>
</g>
</g>
<!-- Node4&#45;&gt;Node2 -->
<g id="edge5" class="edge"><title>Node4&#45;&gt;Node2</title>
<path fill="none" stroke="#9a32cd" stroke-dasharray="5,2" d="M33.0171,-126.137C21.151,-110.156 8.03668,-85.8567 19.5,-67 34.86,-41.7335 65.7198,-27.3542 90.5327,-19.5107"/>
<polygon fill="#9a32cd" stroke="#9a32cd" points="30.3581,-128.417 39.3169,-134.073 35.8406,-124.065 30.3581,-128.417"/>
<text text-anchor="middle" x="45" y="-74.5" font-family="Helvetica,sans-Serif" font-size="10.00"> description</text>
</g>
<!-- Node4&#45;&gt;Node3 -->
<g id="edge2" class="edge"><title>Node4&#45;&gt;Node3</title>
<path fill="none" stroke="#9a32cd" stroke-dasharray="5,2" d="M66.3143,-127.713C82.076,-114.907 104.007,-97.0884 116.882,-86.6273"/>
<polygon fill="#9a32cd" stroke="#9a32cd" points="63.8432,-125.211 58.2892,-134.234 68.2574,-130.644 63.8432,-125.211"/>
<text text-anchor="middle" x="109" y="-108" font-family="Helvetica,sans-Serif" font-size="10.00"> variant</text>
</g>
<!-- Node5 -->
<g id="node4" class="node"><title>Node5</title>
<g id="a_node4"><a xlink:title="STL class. ">
<polygon fill="white" stroke="#bfbfbf" points="0,-191.5 0,-221.5 95,-221.5 95,-191.5 0,-191.5"/>
<text text-anchor="start" x="8" y="-209.5" font-family="Helvetica,sans-Serif" font-size="10.00">std::basic_string&lt;</text>
<text text-anchor="middle" x="47.5" y="-198.5" font-family="Helvetica,sans-Serif" font-size="10.00"> char &gt;</text>
</a>
</g>
</g>
<!-- Node5&#45;&gt;Node4 -->
<g id="edge3" class="edge"><title>Node5&#45;&gt;Node4</title>
<path fill="none" stroke="midnightblue" d="M47.5,-181.352C47.5,-171.513 47.5,-160.775 47.5,-153.54"/>
<polygon fill="midnightblue" stroke="midnightblue" points="44.0001,-181.468 47.5,-191.468 51.0001,-181.468 44.0001,-181.468"/>
</g>
<!-- Node6 -->
<g id="node5" class="node"><title>Node6</title>
<g id="a_node5"><a xlink:href="class_uptane_1_1_target.html" target="_top" xlink:title="Uptane::Target">
<polygon fill="white" stroke="black" points="193.5,-67.5 193.5,-86.5 275.5,-86.5 275.5,-67.5 193.5,-67.5"/>
<text text-anchor="middle" x="234.5" y="-74.5" font-family="Helvetica,sans-Serif" font-size="10.00">Uptane::Target</text>
</a>
</g>
</g>
<!-- Node6&#45;&gt;Node2 -->
<g id="edge4" class="edge"><title>Node6&#45;&gt;Node2</title>
<path fill="none" stroke="#9a32cd" stroke-dasharray="5,2" d="M211.359,-61.9422C190.169,-49.0696 159.481,-30.4274 141.702,-19.6273"/>
<polygon fill="#9a32cd" stroke="#9a32cd" points="209.706,-65.0332 220.07,-67.2338 213.34,-59.0506 209.706,-65.0332"/>
<text text-anchor="middle" x="201.5" y="-41" font-family="Helvetica,sans-Serif" font-size="10.00"> target</text>
</g>
</g>
</svg>
