<?xml version="1.0" encoding="UTF-8" standalone="no"?>
<!DOCTYPE svg PUBLIC "-//W3C//DTD SVG 1.1//EN"
 "http://www.w3.org/Graphics/SVG/1.1/DTD/svg11.dtd">
<!-- Generated by graphviz version 2.38.0 (20140413.2041)
 -->
<!-- Title: AktualizrSecondaryConfig Pages: 1 -->
<!--zoomable 348 -->
<svg id="main" version="1.1" xmlns="http://www.w3.org/2000/svg" xmlns:xlink="http://www.w3.org/1999/xlink" xml:space="preserve" onload="init(evt)">
<style type="text/css"><![CDATA[
.edge:hover path { stroke: red; }
.edge:hover polygon { stroke: red; fill: red; }
]]></style>
<script type="text/javascript"><![CDATA[
var edges = document.getElementsByTagName('g');
if (edges && edges.length) {
  for (var i=0;i<edges.length;i++) {
    if (edges[i].id.substr(0,4)=='edge') {
      edges[i].setAttribute('class','edge');
    }
  }
}
]]></script>
        <defs>
                <circle id="rim" cx="0" cy="0" r="7"/>
                <circle id="rim2" cx="0" cy="0" r="3.5"/>
                <g id="zoomPlus">
                        <use xlink:href="#rim" fill="#404040">
                                <set attributeName="fill" to="#808080" begin="zoomplus.mouseover" end="zoomplus.mouseout"/>
                        </use>
                        <path d="M-4,0h8M0,-4v8" fill="none" stroke="white" stroke-width="1.5" pointer-events="none"/>
                </g>
                <g id="zoomMin">
                        <use xlink:href="#rim" fill="#404040">
                                <set attributeName="fill" to="#808080" begin="zoomminus.mouseover" end="zoomminus.mouseout"/>
                        </use>
                        <path d="M-4,0h8" fill="none" stroke="white" stroke-width="1.5" pointer-events="none"/>
                </g>
                <g id="dirArrow">
                        <path fill="none" stroke="white" stroke-width="1.5" d="M0,-3.0v7 M-2.5,-0.5L0,-3.0L2.5,-0.5"/>
                </g>
               <g id="resetDef">
                       <use xlink:href="#rim2" fill="#404040">
                               <set attributeName="fill" to="#808080" begin="reset.mouseover" end="reset.mouseout"/>
                       </use>
               </g>
        </defs>

<script type="text/javascript">
var viewWidth = 736;
var viewHeight = 348;
var sectionId = 'dynsection-1';
</script>
<script xlink:href="svgpan.js"/>
<svg id="graph" class="graph">
<g id="viewport">
<title>AktualizrSecondaryConfig</title>
<polygon fill="white" stroke="none" points="-4,4 -4,-343.5 732,-343.5 732,4 -4,4"/>
<!-- Node2 -->
<g id="node1" class="node"><title>Node2</title>
<polygon fill="#bfbfbf" stroke="black" points="598,-114.5 598,-133.5 728,-133.5 728,-114.5 598,-114.5"/>
<text text-anchor="middle" x="663" y="-121.5" font-family="Helvetica,sans-Serif" font-size="10.00">AktualizrSecondaryConfig</text>
</g>
<!-- Node3 -->
<g id="node2" class="node"><title>Node3</title>
<g id="a_node2"><a xlink:href="class_base_config.html" target="_top" xlink:title="BaseConfig">
<polygon fill="white" stroke="black" points="417,-277.5 417,-296.5 485,-296.5 485,-277.5 417,-277.5"/>
<text text-anchor="middle" x="451" y="-284.5" font-family="Helvetica,sans-Serif" font-size="10.00">BaseConfig</text>
</a>
</g>
</g>
<!-- Node3&#45;&gt;Node2 -->
<g id="edge1" class="edge"><title>Node3&#45;&gt;Node2</title>
<path fill="none" stroke="midnightblue" d="M476.498,-271.908C502.844,-255.325 545.584,-227.39 580,-200 607.642,-178.002 637.426,-148.869 652.335,-133.865"/>
<polygon fill="midnightblue" stroke="midnightblue" points="474.527,-269.012 467.903,-277.281 478.238,-274.948 474.527,-269.012"/>
</g>
<!-- Node4 -->
<g id="node3" class="node"><title>Node4</title>
<polygon fill="white" stroke="#bfbfbf" points="132,-309 132,-339 233,-339 233,-309 132,-309"/>
<text text-anchor="start" x="140" y="-327" font-family="Helvetica,sans-Serif" font-size="10.00">std::vector&lt; boost</text>
<text text-anchor="middle" x="182.5" y="-316" font-family="Helvetica,sans-Serif" font-size="10.00">::filesystem::path &gt;</text>
</g>
<!-- Node4&#45;&gt;Node3 -->
<g id="edge2" class="edge"><title>Node4&#45;&gt;Node3</title>
<path fill="none" stroke="#9a32cd" stroke-dasharray="5,2" d="M243.323,-317.163C277.537,-313.098 321.23,-307.645 360,-302 378.81,-299.261 399.761,-295.794 416.713,-292.883"/>
<polygon fill="#9a32cd" stroke="#9a32cd" points="242.546,-313.731 233.025,-318.379 243.366,-320.682 242.546,-313.731"/>
<text text-anchor="middle" x="305.5" y="-318" font-family="Helvetica,sans-Serif" font-size="10.00"> config_dirs_</text>
</g>
<!-- Node5 -->
<g id="node4" class="node"><title>Node5</title>
<g id="a_node4"><a xlink:href="struct_storage_config.html" target="_top" xlink:title="StorageConfig">
<polygon fill="white" stroke="black" points="411.5,-202.5 411.5,-221.5 490.5,-221.5 490.5,-202.5 411.5,-202.5"/>
<text text-anchor="middle" x="451" y="-209.5" font-family="Helvetica,sans-Serif" font-size="10.00">StorageConfig</text>
</a>
</g>
</g>
<!-- Node5&#45;&gt;Node2 -->
<g id="edge3" class="edge"><title>Node5&#45;&gt;Node2</title>
<path fill="none" stroke="#9a32cd" stroke-dasharray="5,2" d="M500.212,-199.954C508.239,-197.566 516.416,-194.893 524,-192 569.169,-174.771 619.452,-147.912 645.037,-133.653"/>
<polygon fill="#9a32cd" stroke="#9a32cd" points="499.195,-196.605 490.544,-202.722 501.121,-203.334 499.195,-196.605"/>
<text text-anchor="middle" x="561" y="-188" font-family="Helvetica,sans-Serif" font-size="10.00"> storage</text>
</g>
<!-- Node6 -->
<g id="node5" class="node"><title>Node6</title>
<g id="a_node5"><a xlink:href="class_based_path.html" target="_top" xlink:title="BasedPath">
<polygon fill="white" stroke="black" points="150,-203.5 150,-222.5 215,-222.5 215,-203.5 150,-203.5"/>
<text text-anchor="middle" x="182.5" y="-210.5" font-family="Helvetica,sans-Serif" font-size="10.00">BasedPath</text>
</a>
</g>
</g>
<!-- Node6&#45;&gt;Node5 -->
<g id="edge4" class="edge"><title>Node6&#45;&gt;Node5</title>
<path fill="none" stroke="#9a32cd" stroke-dasharray="5,2" d="M225.12,-212.844C276.01,-212.653 361.473,-212.332 411.095,-212.146"/>
<polygon fill="#9a32cd" stroke="#9a32cd" points="225.104,-209.344 215.118,-212.881 225.131,-216.344 225.104,-209.344"/>
<text text-anchor="middle" x="305.5" y="-293" font-family="Helvetica,sans-Serif" font-size="10.00"> uptane_public_key_path</text>
<text text-anchor="middle" x="305.5" y="-282" font-family="Helvetica,sans-Serif" font-size="10.00">tls_pkey_path</text>
<text text-anchor="middle" x="305.5" y="-271" font-family="Helvetica,sans-Serif" font-size="10.00">uptane_metadata_path</text>
<text text-anchor="middle" x="305.5" y="-260" font-family="Helvetica,sans-Serif" font-size="10.00">sqldb_path</text>
<text text-anchor="start" x="251" y="-249" font-family="Helvetica,sans-Serif" font-size="10.00">uptane_private_key</text>
<text text-anchor="middle" x="305.5" y="-238" font-family="Helvetica,sans-Serif" font-size="10.00">_path</text>
<text text-anchor="middle" x="305.5" y="-227" font-family="Helvetica,sans-Serif" font-size="10.00">tls_cacert_path</text>
<text text-anchor="middle" x="305.5" y="-216" font-family="Helvetica,sans-Serif" font-size="10.00">tls_clientcert_path</text>
</g>
<!-- Node7 -->
<g id="node6" class="node"><title>Node7</title>
<g id="a_node6"><a xlink:href="struct_aktualizr_secondary_uptane_config.html" target="_top" xlink:title="AktualizrSecondaryUptane\lConfig">
<polygon fill="white" stroke="black" points="384.5,-153 384.5,-183 517.5,-183 517.5,-153 384.5,-153"/>
<text text-anchor="start" x="392.5" y="-171" font-family="Helvetica,sans-Serif" font-size="10.00">AktualizrSecondaryUptane</text>
<text text-anchor="middle" x="451" y="-160" font-family="Helvetica,sans-Serif" font-size="10.00">Config</text>
</a>
</g>
</g>
<!-- Node7&#45;&gt;Node2 -->
<g id="edge5" class="edge"><title>Node7&#45;&gt;Node2</title>
<path fill="none" stroke="#9a32cd" stroke-dasharray="5,2" d="M527.535,-152.174C557.318,-145.933 590.543,-138.972 616.514,-133.53"/>
<polygon fill="#9a32cd" stroke="#9a32cd" points="526.651,-148.783 517.582,-154.259 528.087,-155.634 526.651,-148.783"/>
<text text-anchor="middle" x="561" y="-152" font-family="Helvetica,sans-Serif" font-size="10.00"> uptane</text>
</g>
<!-- Node8 -->
<g id="node7" class="node"><title>Node8</title>
<g id="a_node7"><a xlink:title="STL class. ">
<polygon fill="white" stroke="#bfbfbf" points="152.5,-113.5 152.5,-132.5 212.5,-132.5 212.5,-113.5 152.5,-113.5"/>
<text text-anchor="middle" x="182.5" y="-120.5" font-family="Helvetica,sans-Serif" font-size="10.00">std::string</text>
</a>
</g>
</g>
<!-- Node8&#45;&gt;Node7 -->
<g id="edge6" class="edge"><title>Node8&#45;&gt;Node7</title>
<path fill="none" stroke="#9a32cd" stroke-dasharray="5,2" d="M216.939,-136.005C227.676,-139.743 239.713,-143.485 251,-146 294.935,-155.79 345.343,-161.305 384.433,-164.365"/>
<polygon fill="#9a32cd" stroke="#9a32cd" points="218.098,-132.702 207.504,-132.608 215.727,-139.288 218.098,-132.702"/>
<text text-anchor="middle" x="305.5" y="-177" font-family="Helvetica,sans-Serif" font-size="10.00"> ecu_hardware_id</text>
<text text-anchor="middle" x="305.5" y="-166" font-family="Helvetica,sans-Serif" font-size="10.00">ecu_serial</text>
</g>
<!-- Node11 -->
<g id="node10" class="node"><title>Node11</title>
<g id="a_node10"><a xlink:href="struct_package_config.html" target="_top" xlink:title="PackageConfig">
<polygon fill="white" stroke="black" points="409.5,-114.5 409.5,-133.5 492.5,-133.5 492.5,-114.5 409.5,-114.5"/>
<text text-anchor="middle" x="451" y="-121.5" font-family="Helvetica,sans-Serif" font-size="10.00">PackageConfig</text>
</a>
</g>
</g>
<!-- Node8&#45;&gt;Node11 -->
<g id="edge10" class="edge"><title>Node8&#45;&gt;Node11</title>
<path fill="none" stroke="#9a32cd" stroke-dasharray="5,2" d="M222.613,-123.147C272.566,-123.334 358.593,-123.657 409.297,-123.847"/>
<polygon fill="#9a32cd" stroke="#9a32cd" points="222.541,-119.647 212.527,-123.109 222.514,-126.647 222.541,-119.647"/>
<text text-anchor="middle" x="305.5" y="-138" font-family="Helvetica,sans-Serif" font-size="10.00"> os</text>
<text text-anchor="middle" x="305.5" y="-127" font-family="Helvetica,sans-Serif" font-size="10.00">ostree_server</text>
</g>
<!-- Node13 -->
<g id="node12" class="node"><title>Node13</title>
<g id="a_node12"><a xlink:href="struct_p11_config.html" target="_top" xlink:title="P11Config">
<polygon fill="white" stroke="black" points="420,-76.5 420,-95.5 482,-95.5 482,-76.5 420,-76.5"/>
<text text-anchor="middle" x="451" y="-83.5" font-family="Helvetica,sans-Serif" font-size="10.00">P11Config</text>
</a>
</g>
</g>
<!-- Node8&#45;&gt;Node13 -->
<g id="edge13" class="edge"><title>Node8&#45;&gt;Node13</title>
<path fill="none" stroke="#9a32cd" stroke-dasharray="5,2" d="M197.69,-105.283C210.072,-91.3513 229.404,-73.0037 251,-65 296.425,-48.1647 311.873,-59.4596 360,-65 380.243,-67.3304 402.551,-72.5169 419.893,-77.1522"/>
<polygon fill="#9a32cd" stroke="#9a32cd" points="194.725,-103.367 190.92,-113.255 200.061,-107.898 194.725,-103.367"/>
<text text-anchor="middle" x="305.5" y="-112" font-family="Helvetica,sans-Serif" font-size="10.00"> tls_pkey_id</text>
<text text-anchor="middle" x="305.5" y="-101" font-family="Helvetica,sans-Serif" font-size="10.00">tls_clientcert_id</text>
<text text-anchor="middle" x="305.5" y="-90" font-family="Helvetica,sans-Serif" font-size="10.00">pass</text>
<text text-anchor="middle" x="305.5" y="-79" font-family="Helvetica,sans-Serif" font-size="10.00">uptane_key_id</text>
<text text-anchor="middle" x="305.5" y="-68" font-family="Helvetica,sans-Serif" font-size="10.00">tls_cacert_id</text>
</g>
<!-- Node9 -->
<g id="node8" class="node"><title>Node9</title>
<g id="a_node8"><a xlink:title="STL class. ">
<polygon fill="white" stroke="#bfbfbf" points="0,-108 0,-138 95,-138 95,-108 0,-108"/>
<text text-anchor="start" x="8" y="-126" font-family="Helvetica,sans-Serif" font-size="10.00">std::basic_string&lt;</text>
<text text-anchor="middle" x="47.5" y="-115" font-family="Helvetica,sans-Serif" font-size="10.00"> char &gt;</text>
</a>
</g>
</g>
<!-- Node9&#45;&gt;Node8 -->
<g id="edge7" class="edge"><title>Node9&#45;&gt;Node8</title>
<path fill="none" stroke="midnightblue" d="M105.466,-123C121.596,-123 138.49,-123 152.246,-123"/>
<polygon fill="midnightblue" stroke="midnightblue" points="105.017,-119.5 95.0169,-123 105.017,-126.5 105.017,-119.5"/>
</g>
<!-- Node10 -->
<g id="node9" class="node"><title>Node10</title>
<g id="a_node9"><a xlink:href="struct_logger_config.html" target="_top" xlink:title="LoggerConfig">
<polygon fill="white" stroke="black" points="414,-38.5 414,-57.5 488,-57.5 488,-38.5 414,-38.5"/>
<text text-anchor="middle" x="451" y="-45.5" font-family="Helvetica,sans-Serif" font-size="10.00">LoggerConfig</text>
</a>
</g>
</g>
<!-- Node10&#45;&gt;Node2 -->
<g id="edge8" class="edge"><title>Node10&#45;&gt;Node2</title>
<path fill="none" stroke="#9a32cd" stroke-dasharray="5,2" d="M497.792,-59.3424C506.539,-61.7178 515.587,-64.3201 524,-67 566.976,-80.69 615.284,-102.103 641.822,-114.416"/>
<polygon fill="#9a32cd" stroke="#9a32cd" points="498.66,-55.9514 488.096,-56.7649 496.861,-62.7165 498.66,-55.9514"/>
<text text-anchor="middle" x="561" y="-90" font-family="Helvetica,sans-Serif" font-size="10.00"> logger</text>
</g>
<!-- Node11&#45;&gt;Node2 -->
<g id="edge9" class="edge"><title>Node11&#45;&gt;Node2</title>
<path fill="none" stroke="#9a32cd" stroke-dasharray="5,2" d="M502.903,-124C531.457,-124 567.353,-124 597.82,-124"/>
<polygon fill="#9a32cd" stroke="#9a32cd" points="502.739,-120.5 492.739,-124 502.739,-127.5 502.739,-120.5"/>
<text text-anchor="middle" x="561" y="-127" font-family="Helvetica,sans-Serif" font-size="10.00"> pacman</text>
</g>
<!-- Node12 -->
<g id="node11" class="node"><title>Node12</title>
<g id="a_node11"><a xlink:href="struct_aktualizr_secondary_net_config.html" target="_top" xlink:title="AktualizrSecondaryNetConfig">
<polygon fill="white" stroke="black" points="378,-0.5 378,-19.5 524,-19.5 524,-0.5 378,-0.5"/>
<text text-anchor="middle" x="451" y="-7.5" font-family="Helvetica,sans-Serif" font-size="10.00">AktualizrSecondaryNetConfig</text>
</a>
</g>
</g>
<!-- Node12&#45;&gt;Node2 -->
<g id="edge11" class="edge"><title>Node12&#45;&gt;Node2</title>
<path fill="none" stroke="#9a32cd" stroke-dasharray="5,2" d="M504.48,-22.308C511.128,-24.3157 517.776,-26.5509 524,-29 577.05,-49.8761 629.76,-94.4729 651.554,-114.231"/>
<polygon fill="#9a32cd" stroke="#9a32cd" points="505.368,-18.9216 494.791,-19.5308 503.439,-25.6507 505.368,-18.9216"/>
<text text-anchor="middle" x="561" y="-60" font-family="Helvetica,sans-Serif" font-size="10.00"> network</text>
</g>
<!-- Node13&#45;&gt;Node2 -->
<g id="edge12" class="edge"><title>Node13&#45;&gt;Node2</title>
<path fill="none" stroke="#9a32cd" stroke-dasharray="5,2" d="M491.952,-93.1456C517.201,-97.6699 550.516,-103.654 580,-109 589.683,-110.756 600.008,-112.637 609.95,-114.453"/>
<polygon fill="#9a32cd" stroke="#9a32cd" points="492.466,-89.6821 482.005,-91.3642 491.232,-96.5724 492.466,-89.6821"/>
<text text-anchor="middle" x="561" y="-112" font-family="Helvetica,sans-Serif" font-size="10.00"> p11</text>
</g>
</g>
</svg>
        <g id="navigator" transform="translate(0 0)" fill="#404254">
                <rect fill="#f2f5e9" fill-opacity="0.5" stroke="#606060" stroke-width=".5" x="0" y="0" width="60" height="60"/>
                <use id="zoomplus" xlink:href="#zoomPlus" x="17" y="9" onmousedown="handleZoom(evt,'in')"/>
                <use id="zoomminus" xlink:href="#zoomMin" x="42" y="9" onmousedown="handleZoom(evt,'out')"/>
                <use id="reset" xlink:href="#resetDef" x="30" y="36" onmousedown="handleReset()"/>
                <g id="arrowUp" xlink:href="#dirArrow" transform="translate(30 24)" onmousedown="handlePan(0,-1)">
                  <use xlink:href="#rim" fill="#404040">
                        <set attributeName="fill" to="#808080" begin="arrowUp.mouseover" end="arrowUp.mouseout"/>
                  </use>
                  <path fill="none" stroke="white" stroke-width="1.5" d="M0,-3.0v7 M-2.5,-0.5L0,-3.0L2.5,-0.5"/>
                </g>
                <g id="arrowRight" xlink:href="#dirArrow" transform="rotate(90) translate(36 -43)" onmousedown="handlePan(1,0)">
                  <use xlink:href="#rim" fill="#404040">
                        <set attributeName="fill" to="#808080" begin="arrowRight.mouseover" end="arrowRight.mouseout"/>
                  </use>
                  <path fill="none" stroke="white" stroke-width="1.5" d="M0,-3.0v7 M-2.5,-0.5L0,-3.0L2.5,-0.5"/>
                </g>
                <g id="arrowDown" xlink:href="#dirArrow" transform="rotate(180) translate(-30 -48)" onmousedown="handlePan(0,1)">
                  <use xlink:href="#rim" fill="#404040">
                        <set attributeName="fill" to="#808080" begin="arrowDown.mouseover" end="arrowDown.mouseout"/>
                  </use>
                  <path fill="none" stroke="white" stroke-width="1.5" d="M0,-3.0v7 M-2.5,-0.5L0,-3.0L2.5,-0.5"/>
                </g>
                <g id="arrowLeft" xlink:href="#dirArrow" transform="rotate(270) translate(-36 17)" onmousedown="handlePan(-1,0)">
                  <use xlink:href="#rim" fill="#404040">
                        <set attributeName="fill" to="#808080" begin="arrowLeft.mouseover" end="arrowLeft.mouseout"/>
                  </use>
                  <path fill="none" stroke="white" stroke-width="1.5" d="M0,-3.0v7 M-2.5,-0.5L0,-3.0L2.5,-0.5"/>
                </g>
        </g>
        <svg viewBox="0 0 15 15" width="100%" height="30px" preserveAspectRatio="xMaxYMin meet">
         <g id="arrow_out" transform="scale(0.3 0.3)">
          <a xlink:href="class_aktualizr_secondary_config__coll__graph_org.svg" target="_base">
           <rect id="button" ry="5" rx="5" y="6" x="6" height="38" width="38"
                fill="#f2f5e9" fill-opacity="0.5" stroke="#606060" stroke-width="1.0"/>
           <path id="arrow"
             d="M 11.500037,31.436501 C 11.940474,20.09759 22.043105,11.32322 32.158766,21.979434 L 37.068811,17.246167 C 37.068811,17.246167 37.088388,32 37.088388,32 L 22.160133,31.978069 C 22.160133,31.978069 26.997745,27.140456 26.997745,27.140456 C 18.528582,18.264221 13.291696,25.230495 11.500037,31.436501 z"
             style="fill:#404040;"/>
          </a>
         </g>
        </svg>
</svg>
