<?xml version="1.0" encoding="UTF-8" standalone="no"?>
<!DOCTYPE svg PUBLIC "-//W3C//DTD SVG 1.1//EN"
 "http://www.w3.org/Graphics/SVG/1.1/DTD/svg11.dtd">
<!-- Generated by graphviz version 2.38.0 (20140413.2041)
 -->
<!-- Title: event::SendDeviceDataComplete Pages: 1 -->
<svg width="171pt" height="220pt"
 viewBox="0.00 0.00 171.00 220.00" xmlns="http://www.w3.org/2000/svg" xmlns:xlink="http://www.w3.org/1999/xlink">
<g id="graph0" class="graph" transform="scale(1 1) rotate(0) translate(4 216)">
<title>event::SendDeviceDataComplete</title>
<polygon fill="white" stroke="none" points="-4,4 -4,-216 167,-216 167,4 -4,4"/>
<!-- Node2 -->
<g id="node1" class="node"><title>Node2</title>
<polygon fill="#bfbfbf" stroke="black" points="0,-0.5 0,-19.5 163,-19.5 163,-0.5 0,-0.5"/>
<text text-anchor="middle" x="81.5" y="-7.5" font-family="Helvetica,sans-Serif" font-size="10.00">event::SendDeviceDataComplete</text>
</g>
<!-- Node3 -->
<g id="node2" class="node"><title>Node3</title>
<g id="a_node2"><a xlink:href="classevent_1_1_base_event.html" target="_top" xlink:title="Base class for all event objects. ">
<polygon fill="white" stroke="black" points="34,-57.5 34,-76.5 129,-76.5 129,-57.5 34,-57.5"/>
<text text-anchor="middle" x="81.5" y="-64.5" font-family="Helvetica,sans-Serif" font-size="10.00">event::BaseEvent</text>
</a>
</g>
</g>
<!-- Node3&#45;&gt;Node2 -->
<g id="edge1" class="edge"><title>Node3&#45;&gt;Node2</title>
<path fill="none" stroke="midnightblue" d="M81.5,-47.1166C81.5,-37.8173 81.5,-27.0557 81.5,-19.7149"/>
<polygon fill="midnightblue" stroke="midnightblue" points="78.0001,-47.4062 81.5,-57.4062 85.0001,-47.4063 78.0001,-47.4062"/>
</g>
<!-- Node4 -->
<g id="node3" class="node"><title>Node4</title>
<g id="a_node3"><a xlink:title="STL class. ">
<polygon fill="white" stroke="#bfbfbf" points="51.5,-124.5 51.5,-143.5 111.5,-143.5 111.5,-124.5 51.5,-124.5"/>
<text text-anchor="middle" x="81.5" y="-131.5" font-family="Helvetica,sans-Serif" font-size="10.00">std::string</text>
</a>
</g>
</g>
<!-- Node4&#45;&gt;Node3 -->
<g id="edge2" class="edge"><title>Node4&#45;&gt;Node3</title>
<path fill="none" stroke="#9a32cd" stroke-dasharray="5,2" d="M81.5,-114.037C81.5,-101.67 81.5,-86.1198 81.5,-76.6273"/>
<polygon fill="#9a32cd" stroke="#9a32cd" points="78.0001,-114.234 81.5,-124.234 85.0001,-114.234 78.0001,-114.234"/>
<text text-anchor="middle" x="98" y="-98" font-family="Helvetica,sans-Serif" font-size="10.00"> variant</text>
</g>
<!-- Node5 -->
<g id="node4" class="node"><title>Node5</title>
<g id="a_node4"><a xlink:title="STL class. ">
<polygon fill="white" stroke="#bfbfbf" points="34,-181.5 34,-211.5 129,-211.5 129,-181.5 34,-181.5"/>
<text text-anchor="start" x="42" y="-199.5" font-family="Helvetica,sans-Serif" font-size="10.00">std::basic_string&lt;</text>
<text text-anchor="middle" x="81.5" y="-188.5" font-family="Helvetica,sans-Serif" font-size="10.00"> char &gt;</text>
</a>
</g>
</g>
<!-- Node5&#45;&gt;Node4 -->
<g id="edge3" class="edge"><title>Node5&#45;&gt;Node4</title>
<path fill="none" stroke="midnightblue" d="M81.5,-171.352C81.5,-161.513 81.5,-150.775 81.5,-143.54"/>
<polygon fill="midnightblue" stroke="midnightblue" points="78.0001,-171.468 81.5,-181.468 85.0001,-171.468 78.0001,-171.468"/>
</g>
</g>
</svg>
