<?xml version="1.0" encoding="UTF-8" standalone="no"?>
<!DOCTYPE svg PUBLIC "-//W3C//DTD SVG 1.1//EN"
 "http://www.w3.org/Graphics/SVG/1.1/DTD/svg11.dtd">
<!-- Generated by graphviz version 2.38.0 (20140413.2041)
 -->
<!-- Title: command::SendDeviceData Pages: 1 -->
<svg width="148pt" height="220pt"
 viewBox="0.00 0.00 148.00 220.00" xmlns="http://www.w3.org/2000/svg" xmlns:xlink="http://www.w3.org/1999/xlink">
<g id="graph0" class="graph" transform="scale(1 1) rotate(0) translate(4 216)">
<title>command::SendDeviceData</title>
<polygon fill="white" stroke="none" points="-4,4 -4,-216 144,-216 144,4 -4,4"/>
<!-- Node2 -->
<g id="node1" class="node"><title>Node2</title>
<polygon fill="#bfbfbf" stroke="black" points="0,-0.5 0,-19.5 140,-19.5 140,-0.5 0,-0.5"/>
<text text-anchor="middle" x="70" y="-7.5" font-family="Helvetica,sans-Serif" font-size="10.00">command::SendDeviceData</text>
</g>
<!-- Node3 -->
<g id="node2" class="node"><title>Node3</title>
<g id="a_node2"><a xlink:href="classcommand_1_1_base_command.html" target="_top" xlink:title="Base class for all command objects. ">
<polygon fill="white" stroke="black" points="3.5,-57.5 3.5,-76.5 136.5,-76.5 136.5,-57.5 3.5,-57.5"/>
<text text-anchor="middle" x="70" y="-64.5" font-family="Helvetica,sans-Serif" font-size="10.00">command::BaseCommand</text>
</a>
</g>
</g>
<!-- Node3&#45;&gt;Node2 -->
<g id="edge1" class="edge"><title>Node3&#45;&gt;Node2</title>
<path fill="none" stroke="midnightblue" d="M70,-47.1166C70,-37.8173 70,-27.0557 70,-19.7149"/>
<polygon fill="midnightblue" stroke="midnightblue" points="66.5001,-47.4062 70,-57.4062 73.5001,-47.4063 66.5001,-47.4062"/>
</g>
<!-- Node4 -->
<g id="node3" class="node"><title>Node4</title>
<g id="a_node3"><a xlink:title="STL class. ">
<polygon fill="white" stroke="#bfbfbf" points="40,-124.5 40,-143.5 100,-143.5 100,-124.5 40,-124.5"/>
<text text-anchor="middle" x="70" y="-131.5" font-family="Helvetica,sans-Serif" font-size="10.00">std::string</text>
</a>
</g>
</g>
<!-- Node4&#45;&gt;Node3 -->
<g id="edge2" class="edge"><title>Node4&#45;&gt;Node3</title>
<path fill="none" stroke="#9a32cd" stroke-dasharray="5,2" d="M70,-114.037C70,-101.67 70,-86.1198 70,-76.6273"/>
<polygon fill="#9a32cd" stroke="#9a32cd" points="66.5001,-114.234 70,-124.234 73.5001,-114.234 66.5001,-114.234"/>
<text text-anchor="middle" x="86.5" y="-98" font-family="Helvetica,sans-Serif" font-size="10.00"> variant</text>
</g>
<!-- Node5 -->
<g id="node4" class="node"><title>Node5</title>
<g id="a_node4"><a xlink:title="STL class. ">
<polygon fill="white" stroke="#bfbfbf" points="22.5,-181.5 22.5,-211.5 117.5,-211.5 117.5,-181.5 22.5,-181.5"/>
<text text-anchor="start" x="30.5" y="-199.5" font-family="Helvetica,sans-Serif" font-size="10.00">std::basic_string&lt;</text>
<text text-anchor="middle" x="70" y="-188.5" font-family="Helvetica,sans-Serif" font-size="10.00"> char &gt;</text>
</a>
</g>
</g>
<!-- Node5&#45;&gt;Node4 -->
<g id="edge3" class="edge"><title>Node5&#45;&gt;Node4</title>
<path fill="none" stroke="midnightblue" d="M70,-171.352C70,-161.513 70,-150.775 70,-143.54"/>
<polygon fill="midnightblue" stroke="midnightblue" points="66.5001,-171.468 70,-181.468 73.5001,-171.468 66.5001,-171.468"/>
</g>
</g>
</svg>
