<?xml version="1.0" encoding="UTF-8" standalone="no"?>
<!DOCTYPE svg PUBLIC "-//W3C//DTD SVG 1.1//EN"
 "http://www.w3.org/Graphics/SVG/1.1/DTD/svg11.dtd">
<!-- Generated by graphviz version 2.38.0 (20140413.2041)
 -->
<!-- Title: StorageTargetWHandle Pages: 1 -->
<svg width="228pt" height="84pt"
 viewBox="0.00 0.00 228.00 84.00" xmlns="http://www.w3.org/2000/svg" xmlns:xlink="http://www.w3.org/1999/xlink">
<g id="graph0" class="graph" transform="scale(1 1) rotate(0) translate(4 80)">
<title>StorageTargetWHandle</title>
<polygon fill="white" stroke="none" points="-4,4 -4,-80 224,-80 224,4 -4,4"/>
<!-- Node0 -->
<g id="node1" class="node"><title>Node0</title>
<polygon fill="#bfbfbf" stroke="black" points="48.5,-56.5 48.5,-75.5 167.5,-75.5 167.5,-56.5 48.5,-56.5"/>
<text text-anchor="middle" x="108" y="-63.5" font-family="Helvetica,sans-Serif" font-size="10.00">StorageTargetWHandle</text>
</g>
<!-- Node1 -->
<g id="node2" class="node"><title>Node1</title>
<g id="a_node2"><a xlink:href="class_f_s_target_w_handle.html" target="_top" xlink:title="FSTargetWHandle">
<polygon fill="white" stroke="black" points="0,-0.5 0,-19.5 98,-19.5 98,-0.5 0,-0.5"/>
<text text-anchor="middle" x="49" y="-7.5" font-family="Helvetica,sans-Serif" font-size="10.00">FSTargetWHandle</text>
</a>
</g>
</g>
<!-- Node0&#45;&gt;Node1 -->
<g id="edge1" class="edge"><title>Node0&#45;&gt;Node1</title>
<path fill="none" stroke="midnightblue" d="M91.1055,-49.5372C80.5855,-39.9087 67.4313,-27.8694 58.6519,-19.8339"/>
<polygon fill="midnightblue" stroke="midnightblue" points="88.7808,-52.1542 98.5206,-56.324 93.5069,-46.9905 88.7808,-52.1542"/>
</g>
<!-- Node2 -->
<g id="node3" class="node"><title>Node2</title>
<g id="a_node3"><a xlink:href="class_s_q_l_target_w_handle.html" target="_top" xlink:title="SQLTargetWHandle">
<polygon fill="white" stroke="black" points="116,-0.5 116,-19.5 220,-19.5 220,-0.5 116,-0.5"/>
<text text-anchor="middle" x="168" y="-7.5" font-family="Helvetica,sans-Serif" font-size="10.00">SQLTargetWHandle</text>
</a>
</g>
</g>
<!-- Node0&#45;&gt;Node2 -->
<g id="edge2" class="edge"><title>Node0&#45;&gt;Node2</title>
<path fill="none" stroke="midnightblue" d="M125.181,-49.5372C135.879,-39.9087 149.256,-27.8694 158.185,-19.8339"/>
<polygon fill="midnightblue" stroke="midnightblue" points="122.732,-47.0327 117.64,-56.324 127.414,-52.2358 122.732,-47.0327"/>
</g>
</g>
</svg>
