<?xml version="1.0" encoding="UTF-8" standalone="no"?>
<!DOCTYPE svg PUBLIC "-//W3C//DTD SVG 1.1//EN"
 "http://www.w3.org/Graphics/SVG/1.1/DTD/svg11.dtd">
<!-- Generated by graphviz version 2.40.1 (20161225.0304)
 -->
<!-- Title: HttpInterface Pages: 1 -->
<svg width="340pt" height="218pt"
 viewBox="0.00 0.00 340.00 218.00" xmlns="http://www.w3.org/2000/svg" xmlns:xlink="http://www.w3.org/1999/xlink">
<g id="graph0" class="graph" transform="scale(1 1) rotate(0) translate(4 214)">
<title>HttpInterface</title>
<polygon fill="#ffffff" stroke="transparent" points="-4,4 -4,-214 336,-214 336,4 -4,4"/>
<!-- Node0 -->
<g id="node1" class="node">
<title>Node0</title>
<polygon fill="#bfbfbf" stroke="#000000" points="0,-114.5 0,-133.5 74,-133.5 74,-114.5 0,-114.5"/>
<text text-anchor="middle" x="37" y="-121.5" font-family="Helvetica,sans-Serif" font-size="10.00" fill="#000000">HttpInterface</text>
</g>
<!-- Node1 -->
<g id="node2" class="node">
<title>Node1</title>
<g id="a_node2"><a xlink:href="class_http_client.html" target="_top" xlink:title="HttpClient">
<polygon fill="#ffffff" stroke="#000000" points="110,-133.5 110,-152.5 171,-152.5 171,-133.5 110,-133.5"/>
<text text-anchor="middle" x="140.5" y="-140.5" font-family="Helvetica,sans-Serif" font-size="10.00" fill="#000000">HttpClient</text>
</a>
</g>
</g>
<!-- Node0&#45;&gt;Node1 -->
<g id="edge1" class="edge">
<title>Node0&#45;&gt;Node1</title>
<path fill="none" stroke="#191970" d="M84.1595,-132.6573C92.8707,-134.2565 101.7567,-135.8877 109.8197,-137.3679"/>
<polygon fill="#191970" stroke="#191970" points="84.5412,-129.169 74.0735,-130.8058 83.2772,-136.0539 84.5412,-129.169"/>
</g>
<!-- Node2 -->
<g id="node3" class="node">
<title>Node2</title>
<g id="a_node3"><a xlink:href="class_http_fake.html" target="_top" xlink:title="HttpFake">
<polygon fill="#ffffff" stroke="#000000" points="112,-95.5 112,-114.5 169,-114.5 169,-95.5 112,-95.5"/>
<text text-anchor="middle" x="140.5" y="-102.5" font-family="Helvetica,sans-Serif" font-size="10.00" fill="#000000">HttpFake</text>
</a>
</g>
</g>
<!-- Node0&#45;&gt;Node2 -->
<g id="edge2" class="edge">
<title>Node0&#45;&gt;Node2</title>
<path fill="none" stroke="#191970" d="M84.1652,-115.3417C93.5945,-113.6107 103.2284,-111.8421 111.8016,-110.2683"/>
<polygon fill="#191970" stroke="#191970" points="83.2772,-111.9461 74.0735,-117.1942 84.5412,-118.831 83.2772,-111.9461"/>
</g>
<!-- Node3 -->
<g id="node4" class="node">
<title>Node3</title>
<g id="a_node4"><a xlink:href="class_http_fake_campaign.html" target="_top" xlink:title="HttpFakeCampaign">
<polygon fill="#ffffff" stroke="#000000" points="219,-190.5 219,-209.5 320,-209.5 320,-190.5 219,-190.5"/>
<text text-anchor="middle" x="269.5" y="-197.5" font-family="Helvetica,sans-Serif" font-size="10.00" fill="#000000">HttpFakeCampaign</text>
</a>
</g>
</g>
<!-- Node2&#45;&gt;Node3 -->
<g id="edge3" class="edge">
<title>Node2&#45;&gt;Node3</title>
<path fill="none" stroke="#191970" d="M167.1114,-120.4989C168.4758,-121.6219 169.7831,-122.7907 171,-124 192.2525,-145.1213 183.1706,-162.8358 207,-181 212.0509,-184.8501 217.8827,-187.9249 223.9122,-190.3795"/>
<polygon fill="#191970" stroke="#191970" points="169.0701,-117.5966 158.9065,-114.6047 164.986,-123.2817 169.0701,-117.5966"/>
</g>
<!-- Node4 -->
<g id="node5" class="node">
<title>Node4</title>
<g id="a_node5"><a xlink:href="class_http_fake_event_counter.html" target="_top" xlink:title="HttpFakeEventCounter">
<polygon fill="#ffffff" stroke="#000000" points="211,-152.5 211,-171.5 328,-171.5 328,-152.5 211,-152.5"/>
<text text-anchor="middle" x="269.5" y="-159.5" font-family="Helvetica,sans-Serif" font-size="10.00" fill="#000000">HttpFakeEventCounter</text>
</a>
</g>
</g>
<!-- Node2&#45;&gt;Node4 -->
<g id="edge4" class="edge">
<title>Node2&#45;&gt;Node4</title>
<path fill="none" stroke="#191970" d="M165.227,-119.8984C180.4982,-128.9476 198.7085,-139.4245 207,-143 215.227,-146.5477 224.3283,-149.7152 232.9809,-152.3993"/>
<polygon fill="#191970" stroke="#191970" points="166.5946,-116.6389 156.2132,-114.5229 163.0092,-122.6509 166.5946,-116.6389"/>
</g>
<!-- Node5 -->
<g id="node6" class="node">
<title>Node5</title>
<g id="a_node6"><a xlink:href="class_http_fake_no_correlation_id.html" target="_top" xlink:title="HttpFakeNoCorrelationId">
<polygon fill="#ffffff" stroke="#000000" points="207,-114.5 207,-133.5 332,-133.5 332,-114.5 207,-114.5"/>
<text text-anchor="middle" x="269.5" y="-121.5" font-family="Helvetica,sans-Serif" font-size="10.00" fill="#000000">HttpFakeNoCorrelationId</text>
</a>
</g>
</g>
<!-- Node2&#45;&gt;Node5 -->
<g id="edge5" class="edge">
<title>Node2&#45;&gt;Node5</title>
<path fill="none" stroke="#191970" d="M179.0397,-110.6764C187.8259,-111.9705 197.3835,-113.3782 206.8865,-114.7779"/>
<polygon fill="#191970" stroke="#191970" points="179.5326,-107.2113 169.1293,-109.2167 178.5125,-114.1366 179.5326,-107.2113"/>
</g>
<!-- Node6 -->
<g id="node7" class="node">
<title>Node6</title>
<g id="a_node7"><a xlink:href="class_http_fake_prov.html" target="_top" xlink:title="Check that basic device info sent by aktualizr during provisioning matches our expectations. ">
<polygon fill="#ffffff" stroke="#000000" points="231,-76.5 231,-95.5 308,-95.5 308,-76.5 231,-76.5"/>
<text text-anchor="middle" x="269.5" y="-83.5" font-family="Helvetica,sans-Serif" font-size="10.00" fill="#000000">HttpFakeProv</text>
</a>
</g>
</g>
<!-- Node2&#45;&gt;Node6 -->
<g id="edge6" class="edge">
<title>Node2&#45;&gt;Node6</title>
<path fill="none" stroke="#191970" d="M179.374,-99.2744C195.6135,-96.8825 214.4412,-94.1094 230.6755,-91.7183"/>
<polygon fill="#191970" stroke="#191970" points="178.5125,-95.8634 169.1293,-100.7833 179.5326,-102.7887 178.5125,-95.8634"/>
</g>
<!-- Node7 -->
<g id="node8" class="node">
<title>Node7</title>
<g id="a_node8"><a xlink:href="class_http_fake_rq.html" target="_top" xlink:title="HttpFakeRq">
<polygon fill="#ffffff" stroke="#000000" points="234.5,-38.5 234.5,-57.5 304.5,-57.5 304.5,-38.5 234.5,-38.5"/>
<text text-anchor="middle" x="269.5" y="-45.5" font-family="Helvetica,sans-Serif" font-size="10.00" fill="#000000">HttpFakeRq</text>
</a>
</g>
</g>
<!-- Node2&#45;&gt;Node7 -->
<g id="edge7" class="edge">
<title>Node2&#45;&gt;Node7</title>
<path fill="none" stroke="#191970" d="M163.8658,-89.9305C176.3226,-82.3437 192.1131,-73.4197 207,-67 215.6436,-63.2726 225.2522,-59.965 234.2915,-57.1967"/>
<polygon fill="#191970" stroke="#191970" points="161.7027,-87.1541 155.0601,-95.408 165.4001,-93.0981 161.7027,-87.1541"/>
</g>
<!-- Node8 -->
<g id="node9" class="node">
<title>Node8</title>
<g id="a_node9"><a xlink:href="class_http_fake_unstable.html" target="_top" xlink:title="HttpFakeUnstable">
<polygon fill="#ffffff" stroke="#000000" points="221.5,-.5 221.5,-19.5 317.5,-19.5 317.5,-.5 221.5,-.5"/>
<text text-anchor="middle" x="269.5" y="-7.5" font-family="Helvetica,sans-Serif" font-size="10.00" fill="#000000">HttpFakeUnstable</text>
</a>
</g>
</g>
<!-- Node2&#45;&gt;Node8 -->
<g id="edge8" class="edge">
<title>Node2&#45;&gt;Node8</title>
<path fill="none" stroke="#191970" d="M152.094,-86.6512C163.9089,-69.3877 183.7637,-44.0102 207,-29 213.0015,-25.1231 219.8343,-22.0037 226.7258,-19.5038"/>
<polygon fill="#191970" stroke="#191970" points="148.9788,-85.0169 146.3869,-95.2899 154.8194,-88.8755 148.9788,-85.0169"/>
</g>
</g>
</svg>
