<?xml version="1.0" encoding="UTF-8" standalone="no"?>
<!DOCTYPE svg PUBLIC "-//W3C//DTD SVG 1.1//EN"
 "http://www.w3.org/Graphics/SVG/1.1/DTD/svg11.dtd">
<!-- Generated by graphviz version 2.38.0 (20140413.2041)
 -->
<!-- Title: Uptane::SecondaryInterface Pages: 1 -->
<svg width="153pt" height="274pt"
 viewBox="0.00 0.00 152.50 274.00" xmlns="http://www.w3.org/2000/svg" xmlns:xlink="http://www.w3.org/1999/xlink">
<g id="graph0" class="graph" transform="scale(1 1) rotate(0) translate(4 270)">
<title>Uptane::SecondaryInterface</title>
<polygon fill="white" stroke="none" points="-4,4 -4,-270 148.5,-270 148.5,4 -4,4"/>
<!-- Node9 -->
<g id="node1" class="node"><title>Node9</title>
<polygon fill="#bfbfbf" stroke="black" points="0,-0.5 0,-19.5 139,-19.5 139,-0.5 0,-0.5"/>
<text text-anchor="middle" x="69.5" y="-7.5" font-family="Helvetica,sans-Serif" font-size="10.00">Uptane::SecondaryInterface</text>
</g>
<!-- Node10 -->
<g id="node2" class="node"><title>Node10</title>
<g id="a_node2"><a xlink:href="class_uptane_1_1_secondary_config.html" target="_top" xlink:title="Uptane::SecondaryConfig">
<polygon fill="white" stroke="black" points="5,-67.5 5,-86.5 134,-86.5 134,-67.5 5,-67.5"/>
<text text-anchor="middle" x="69.5" y="-74.5" font-family="Helvetica,sans-Serif" font-size="10.00">Uptane::SecondaryConfig</text>
</a>
</g>
</g>
<!-- Node10&#45;&gt;Node9 -->
<g id="edge1" class="edge"><title>Node10&#45;&gt;Node9</title>
<path fill="none" stroke="#9a32cd" stroke-dasharray="5,2" d="M69.5,-57.037C69.5,-44.6703 69.5,-29.1198 69.5,-19.6273"/>
<polygon fill="#9a32cd" stroke="#9a32cd" points="66.0001,-57.2338 69.5,-67.2338 73.0001,-57.2338 66.0001,-57.2338"/>
<text text-anchor="middle" x="87" y="-41" font-family="Helvetica,sans-Serif" font-size="10.00"> sconfig</text>
</g>
<!-- Node11 -->
<g id="node3" class="node"><title>Node11</title>
<g id="a_node3"><a xlink:title="STL class. ">
<polygon fill="white" stroke="#bfbfbf" points="39.5,-178.5 39.5,-197.5 99.5,-197.5 99.5,-178.5 39.5,-178.5"/>
<text text-anchor="middle" x="69.5" y="-185.5" font-family="Helvetica,sans-Serif" font-size="10.00">std::string</text>
</a>
</g>
</g>
<!-- Node11&#45;&gt;Node10 -->
<g id="edge2" class="edge"><title>Node11&#45;&gt;Node10</title>
<path fill="none" stroke="#9a32cd" stroke-dasharray="5,2" d="M69.5,-168.193C69.5,-144.276 69.5,-103.989 69.5,-86.5133"/>
<polygon fill="#9a32cd" stroke="#9a32cd" points="66.0001,-168.447 69.5,-178.447 73.0001,-168.447 66.0001,-168.447"/>
<text text-anchor="middle" x="107" y="-152" font-family="Helvetica,sans-Serif" font-size="10.00"> ecu_private_key</text>
<text text-anchor="middle" x="107" y="-141" font-family="Helvetica,sans-Serif" font-size="10.00">ecu_hardware_id</text>
<text text-anchor="middle" x="107" y="-130" font-family="Helvetica,sans-Serif" font-size="10.00">ecu_serial</text>
<text text-anchor="middle" x="107" y="-119" font-family="Helvetica,sans-Serif" font-size="10.00">opcua_lds_url</text>
<text text-anchor="middle" x="107" y="-108" font-family="Helvetica,sans-Serif" font-size="10.00">ecu_public_key</text>
</g>
<!-- Node12 -->
<g id="node4" class="node"><title>Node12</title>
<g id="a_node4"><a xlink:title="STL class. ">
<polygon fill="white" stroke="#bfbfbf" points="22,-235.5 22,-265.5 117,-265.5 117,-235.5 22,-235.5"/>
<text text-anchor="start" x="30" y="-253.5" font-family="Helvetica,sans-Serif" font-size="10.00">std::basic_string&lt;</text>
<text text-anchor="middle" x="69.5" y="-242.5" font-family="Helvetica,sans-Serif" font-size="10.00"> char &gt;</text>
</a>
</g>
</g>
<!-- Node12&#45;&gt;Node11 -->
<g id="edge3" class="edge"><title>Node12&#45;&gt;Node11</title>
<path fill="none" stroke="midnightblue" d="M69.5,-225.352C69.5,-215.513 69.5,-204.775 69.5,-197.54"/>
<polygon fill="midnightblue" stroke="midnightblue" points="66.0001,-225.468 69.5,-235.468 73.0001,-225.468 66.0001,-225.468"/>
</g>
</g>
</svg>
