<?xml version="1.0" encoding="UTF-8" standalone="no"?>
<!DOCTYPE svg PUBLIC "-//W3C//DTD SVG 1.1//EN"
 "http://www.w3.org/Graphics/SVG/1.1/DTD/svg11.dtd">
<!-- Generated by graphviz version 2.38.0 (20140413.2041)
 -->
<!-- Title: Uptane::SecondaryInterface Pages: 1 -->
<svg width="491pt" height="230pt"
 viewBox="0.00 0.00 491.00 229.50" xmlns="http://www.w3.org/2000/svg" xmlns:xlink="http://www.w3.org/1999/xlink">
<g id="graph0" class="graph" transform="scale(1 1) rotate(0) translate(4 225.5)">
<title>Uptane::SecondaryInterface</title>
<polygon fill="white" stroke="none" points="-4,4 -4,-225.5 487,-225.5 487,4 -4,4"/>
<!-- Node0 -->
<g id="node1" class="node"><title>Node0</title>
<polygon fill="#bfbfbf" stroke="black" points="0,-107 0,-126 139,-126 139,-107 0,-107"/>
<text text-anchor="middle" x="69.5" y="-114" font-family="Helvetica,sans-Serif" font-size="10.00">Uptane::SecondaryInterface</text>
</g>
<!-- Node1 -->
<g id="node2" class="node"><title>Node1</title>
<g id="a_node2"><a xlink:href="class_secondary_adapter.html" target="_top" xlink:title="SecondaryAdapter">
<polygon fill="white" stroke="black" points="196.5,-202 196.5,-221 293.5,-221 293.5,-202 196.5,-202"/>
<text text-anchor="middle" x="245" y="-209" font-family="Helvetica,sans-Serif" font-size="10.00">SecondaryAdapter</text>
</a>
</g>
</g>
<!-- Node0&#45;&gt;Node1 -->
<g id="edge1" class="edge"><title>Node0&#45;&gt;Node1</title>
<path fill="none" stroke="midnightblue" d="M88.5815,-132.825C108.442,-149.96 141.928,-176.576 175,-192.5 182.836,-196.273 191.546,-199.404 200.066,-201.961"/>
<polygon fill="midnightblue" stroke="midnightblue" points="90.7692,-130.088 80.9451,-126.121 86.1509,-135.349 90.7692,-130.088"/>
</g>
<!-- Node2 -->
<g id="node3" class="node"><title>Node2</title>
<g id="a_node3"><a xlink:href="class_short_circuit_secondary.html" target="_top" xlink:title="ShortCircuitSecondary">
<polygon fill="white" stroke="black" points="187.5,-164 187.5,-183 302.5,-183 302.5,-164 187.5,-164"/>
<text text-anchor="middle" x="245" y="-171" font-family="Helvetica,sans-Serif" font-size="10.00">ShortCircuitSecondary</text>
</a>
</g>
</g>
<!-- Node0&#45;&gt;Node2 -->
<g id="edge2" class="edge"><title>Node0&#45;&gt;Node2</title>
<path fill="none" stroke="midnightblue" d="M104.665,-129.707C124.963,-137.357 151.292,-146.939 175,-154.5 185.417,-157.822 196.826,-161.106 207.313,-163.984"/>
<polygon fill="midnightblue" stroke="midnightblue" points="105.814,-126.4 95.2223,-126.124 103.33,-132.944 105.814,-126.4"/>
</g>
<!-- Node3 -->
<g id="node4" class="node"><title>Node3</title>
<g id="a_node4"><a xlink:href="class_uptane_1_1_ip_uptane_secondary.html" target="_top" xlink:title="Uptane::IpUptaneSecondary">
<polygon fill="white" stroke="black" points="175,-126 175,-145 315,-145 315,-126 175,-126"/>
<text text-anchor="middle" x="245" y="-133" font-family="Helvetica,sans-Serif" font-size="10.00">Uptane::IpUptaneSecondary</text>
</a>
</g>
</g>
<!-- Node0&#45;&gt;Node3 -->
<g id="edge3" class="edge"><title>Node0&#45;&gt;Node3</title>
<path fill="none" stroke="midnightblue" d="M149.072,-125.104C157.65,-126.044 166.336,-126.995 174.789,-127.921"/>
<polygon fill="midnightblue" stroke="midnightblue" points="149.393,-121.619 139.072,-124.009 148.631,-128.577 149.393,-121.619"/>
</g>
<!-- Node4 -->
<g id="node5" class="node"><title>Node4</title>
<g id="a_node5"><a xlink:href="class_uptane_1_1_managed_secondary.html" target="_top" xlink:title="Uptane::ManagedSecondary">
<polygon fill="white" stroke="black" points="175,-88 175,-107 315,-107 315,-88 175,-88"/>
<text text-anchor="middle" x="245" y="-95" font-family="Helvetica,sans-Serif" font-size="10.00">Uptane::ManagedSecondary</text>
</a>
</g>
</g>
<!-- Node0&#45;&gt;Node4 -->
<g id="edge4" class="edge"><title>Node0&#45;&gt;Node4</title>
<path fill="none" stroke="midnightblue" d="M149.072,-107.896C157.65,-106.956 166.336,-106.005 174.789,-105.079"/>
<polygon fill="midnightblue" stroke="midnightblue" points="148.631,-104.423 139.072,-108.991 149.393,-111.381 148.631,-104.423"/>
</g>
<!-- Node7 -->
<g id="node8" class="node"><title>Node7</title>
<g id="a_node8"><a xlink:href="class_uptane_1_1_opcua_secondary.html" target="_top" xlink:title="Uptane::OpcuaSecondary">
<polygon fill="white" stroke="black" points="180.5,-50 180.5,-69 309.5,-69 309.5,-50 180.5,-50"/>
<text text-anchor="middle" x="245" y="-57" font-family="Helvetica,sans-Serif" font-size="10.00">Uptane::OpcuaSecondary</text>
</a>
</g>
</g>
<!-- Node0&#45;&gt;Node7 -->
<g id="edge7" class="edge"><title>Node0&#45;&gt;Node7</title>
<path fill="none" stroke="midnightblue" d="M104.665,-103.293C124.963,-95.6429 151.292,-86.0614 175,-78.5 185.417,-75.1776 196.826,-71.8943 207.313,-69.0157"/>
<polygon fill="midnightblue" stroke="midnightblue" points="103.33,-100.056 95.2223,-106.876 105.814,-106.6 103.33,-100.056"/>
</g>
<!-- Node8 -->
<g id="node9" class="node"><title>Node8</title>
<g id="a_node9"><a xlink:href="class_uptane_1_1_partial_verification_secondary.html" target="_top" xlink:title="Uptane::PartialVerification\lSecondary">
<polygon fill="white" stroke="black" points="179.5,-0.5 179.5,-30.5 310.5,-30.5 310.5,-0.5 179.5,-0.5"/>
<text text-anchor="start" x="187.5" y="-18.5" font-family="Helvetica,sans-Serif" font-size="10.00">Uptane::PartialVerification</text>
<text text-anchor="middle" x="245" y="-7.5" font-family="Helvetica,sans-Serif" font-size="10.00">Secondary</text>
</a>
</g>
</g>
<!-- Node0&#45;&gt;Node8 -->
<g id="edge8" class="edge"><title>Node0&#45;&gt;Node8</title>
<path fill="none" stroke="midnightblue" d="M89.1602,-100.411C109.274,-83.6922 142.755,-57.6244 175,-40.5 181.864,-36.8546 189.375,-33.527 196.834,-30.5727"/>
<polygon fill="midnightblue" stroke="midnightblue" points="86.792,-97.8294 81.4011,-106.95 91.3032,-103.182 86.792,-97.8294"/>
</g>
<!-- Node5 -->
<g id="node6" class="node"><title>Node5</title>
<g id="a_node6"><a xlink:href="class_uptane_1_1_legacy_secondary.html" target="_top" xlink:title="Uptane::LegacySecondary">
<polygon fill="white" stroke="black" points="351,-107 351,-126 483,-126 483,-107 351,-107"/>
<text text-anchor="middle" x="417" y="-114" font-family="Helvetica,sans-Serif" font-size="10.00">Uptane::LegacySecondary</text>
</a>
</g>
</g>
<!-- Node4&#45;&gt;Node5 -->
<g id="edge5" class="edge"><title>Node4&#45;&gt;Node5</title>
<path fill="none" stroke="midnightblue" d="M325.152,-106.346C333.725,-107.305 342.378,-108.272 350.76,-109.208"/>
<polygon fill="midnightblue" stroke="midnightblue" points="325.472,-102.861 315.146,-105.228 324.695,-109.817 325.472,-102.861"/>
</g>
<!-- Node6 -->
<g id="node7" class="node"><title>Node6</title>
<g id="a_node7"><a xlink:href="class_uptane_1_1_virtual_secondary.html" target="_top" xlink:title="Uptane::VirtualSecondary">
<polygon fill="white" stroke="black" points="353,-69 353,-88 481,-88 481,-69 353,-69"/>
<text text-anchor="middle" x="417" y="-76" font-family="Helvetica,sans-Serif" font-size="10.00">Uptane::VirtualSecondary</text>
</a>
</g>
</g>
<!-- Node4&#45;&gt;Node6 -->
<g id="edge6" class="edge"><title>Node4&#45;&gt;Node6</title>
<path fill="none" stroke="midnightblue" d="M325.187,-88.6497C334.494,-87.6095 343.895,-86.5588 352.94,-85.5479"/>
<polygon fill="midnightblue" stroke="midnightblue" points="324.695,-85.1828 315.146,-89.772 325.472,-92.1395 324.695,-85.1828"/>
</g>
</g>
</svg>
