<?xml version="1.0" encoding="UTF-8" standalone="no"?>
<!DOCTYPE svg PUBLIC "-//W3C//DTD SVG 1.1//EN"
 "http://www.w3.org/Graphics/SVG/1.1/DTD/svg11.dtd">
<!-- Generated by graphviz version 2.38.0 (20140413.2041)
 -->
<!-- Title: opcuabridge::ECUVersionManifest Pages: 1 -->
<svg width="426pt" height="475pt"
 viewBox="0.00 0.00 426.00 475.00" xmlns="http://www.w3.org/2000/svg" xmlns:xlink="http://www.w3.org/1999/xlink">
<g id="graph0" class="graph" transform="scale(1 1) rotate(0) translate(4 471)">
<title>opcuabridge::ECUVersionManifest</title>
<polygon fill="white" stroke="none" points="-4,4 -4,-471 422,-471 422,4 -4,4"/>
<!-- Node1 -->
<g id="node1" class="node"><title>Node1</title>
<polygon fill="#bfbfbf" stroke="black" points="55.5,-0.5 55.5,-19.5 222.5,-19.5 222.5,-0.5 55.5,-0.5"/>
<text text-anchor="middle" x="139" y="-7.5" font-family="Helvetica,sans-Serif" font-size="10.00">opcuabridge::ECUVersionManifest</text>
</g>
<!-- Node2 -->
<g id="node2" class="node"><title>Node2</title>
<polygon fill="white" stroke="#bfbfbf" points="22.5,-116.5 22.5,-146.5 147.5,-146.5 147.5,-116.5 22.5,-116.5"/>
<text text-anchor="start" x="30.5" y="-134.5" font-family="Helvetica,sans-Serif" font-size="10.00">std::vector&lt; opcuabridge</text>
<text text-anchor="middle" x="85" y="-123.5" font-family="Helvetica,sans-Serif" font-size="10.00">::Signature &gt;</text>
</g>
<!-- Node2&#45;&gt;Node1 -->
<g id="edge1" class="edge"><title>Node2&#45;&gt;Node1</title>
<path fill="none" stroke="#9a32cd" stroke-dasharray="5,2" d="M90.0065,-106.588C92.9902,-94.4313 97.3148,-79.6026 103,-67 111.08,-49.0897 124.304,-30.2717 132.277,-19.6496"/>
<polygon fill="#9a32cd" stroke="#9a32cd" points="86.5665,-105.93 87.7292,-116.461 93.3874,-107.503 86.5665,-105.93"/>
<text text-anchor="middle" x="130" y="-80" font-family="Helvetica,sans-Serif" font-size="10.00"> signatures_</text>
</g>
<!-- Node3 -->
<g id="node3" class="node"><title>Node3</title>
<g id="a_node3"><a xlink:href="classopcuabridge_1_1_signature.html" target="_top" xlink:title="opcuabridge::Signature">
<polygon fill="white" stroke="black" points="0,-238 0,-257 116,-257 116,-238 0,-238"/>
<text text-anchor="middle" x="58" y="-245" font-family="Helvetica,sans-Serif" font-size="10.00">opcuabridge::Signature</text>
</a>
</g>
</g>
<!-- Node3&#45;&gt;Node2 -->
<g id="edge2" class="edge"><title>Node3&#45;&gt;Node2</title>
<path fill="none" stroke="#9a32cd" stroke-dasharray="5,2" d="M62.3376,-228.186C67.709,-205.506 76.7448,-167.355 81.6265,-146.744"/>
<polygon fill="#9a32cd" stroke="#9a32cd" points="58.9283,-227.394 60.0294,-237.931 65.7399,-229.007 58.9283,-227.394"/>
<text text-anchor="middle" x="90.5" y="-206" font-family="Helvetica,sans-Serif" font-size="10.00"> elements</text>
</g>
<!-- Node4 -->
<g id="node4" class="node"><title>Node4</title>
<g id="a_node4"><a xlink:href="classopcuabridge_1_1_hash.html" target="_top" xlink:title="opcuabridge::Hash">
<polygon fill="white" stroke="black" points="148,-311.5 148,-330.5 246,-330.5 246,-311.5 148,-311.5"/>
<text text-anchor="middle" x="197" y="-318.5" font-family="Helvetica,sans-Serif" font-size="10.00">opcuabridge::Hash</text>
</a>
</g>
</g>
<!-- Node4&#45;&gt;Node3 -->
<g id="edge3" class="edge"><title>Node4&#45;&gt;Node3</title>
<path fill="none" stroke="#9a32cd" stroke-dasharray="5,2" d="M170.998,-306.625C142.842,-292.142 98.7582,-269.466 74.8261,-257.155"/>
<polygon fill="#9a32cd" stroke="#9a32cd" points="169.74,-309.914 180.233,-311.375 172.942,-303.689 169.74,-309.914"/>
<text text-anchor="middle" x="155" y="-284" font-family="Helvetica,sans-Serif" font-size="10.00"> hash_</text>
</g>
<!-- Node9 -->
<g id="node9" class="node"><title>Node9</title>
<polygon fill="white" stroke="#bfbfbf" points="134.5,-232.5 134.5,-262.5 259.5,-262.5 259.5,-232.5 134.5,-232.5"/>
<text text-anchor="start" x="142.5" y="-250.5" font-family="Helvetica,sans-Serif" font-size="10.00">std::vector&lt; opcuabridge</text>
<text text-anchor="middle" x="197" y="-239.5" font-family="Helvetica,sans-Serif" font-size="10.00">::Hash &gt;</text>
</g>
<!-- Node4&#45;&gt;Node9 -->
<g id="edge12" class="edge"><title>Node4&#45;&gt;Node9</title>
<path fill="none" stroke="#9a32cd" stroke-dasharray="5,2" d="M197,-300.899C197,-288.816 197,-273.466 197,-262.509"/>
<polygon fill="#9a32cd" stroke="#9a32cd" points="193.5,-301.233 197,-311.233 200.5,-301.233 193.5,-301.233"/>
<text text-anchor="middle" x="218.5" y="-284" font-family="Helvetica,sans-Serif" font-size="10.00"> elements</text>
</g>
<!-- Node5 -->
<g id="node5" class="node"><title>Node5</title>
<g id="a_node5"><a xlink:title="STL class. ">
<polygon fill="white" stroke="#bfbfbf" points="222,-379.5 222,-398.5 282,-398.5 282,-379.5 222,-379.5"/>
<text text-anchor="middle" x="252" y="-386.5" font-family="Helvetica,sans-Serif" font-size="10.00">std::string</text>
</a>
</g>
</g>
<!-- Node5&#45;&gt;Node3 -->
<g id="edge6" class="edge"><title>Node5&#45;&gt;Node3</title>
<path fill="none" stroke="#9a32cd" stroke-dasharray="5,2" d="M212.017,-380.172C180.601,-372.355 137.246,-357.701 107,-332 82.1514,-310.885 66.8243,-273.82 60.8577,-257.105"/>
<polygon fill="#9a32cd" stroke="#9a32cd" points="211.229,-383.582 221.766,-382.475 212.839,-376.77 211.229,-383.582"/>
<text text-anchor="middle" x="123" y="-324" font-family="Helvetica,sans-Serif" font-size="10.00"> keyid_</text>
<text text-anchor="middle" x="123" y="-313" font-family="Helvetica,sans-Serif" font-size="10.00">value_</text>
</g>
<!-- Node5&#45;&gt;Node4 -->
<g id="edge4" class="edge"><title>Node5&#45;&gt;Node4</title>
<path fill="none" stroke="#9a32cd" stroke-dasharray="5,2" d="M238.4,-371.68C227.647,-358.777 213.048,-341.258 204.368,-330.841"/>
<polygon fill="#9a32cd" stroke="#9a32cd" points="235.719,-373.93 244.81,-379.372 241.097,-369.449 235.719,-373.93"/>
<text text-anchor="middle" x="247.5" y="-353" font-family="Helvetica,sans-Serif" font-size="10.00"> digest_</text>
</g>
<!-- Node7 -->
<g id="node7" class="node"><title>Node7</title>
<g id="a_node7"><a xlink:href="classopcuabridge_1_1_e_c_u_version_manifest_signed.html" target="_top" xlink:title="opcuabridge::ECUVersionManifest\lSigned">
<polygon fill="white" stroke="black" points="166.5,-67.5 166.5,-97.5 333.5,-97.5 333.5,-67.5 166.5,-67.5"/>
<text text-anchor="start" x="174.5" y="-85.5" font-family="Helvetica,sans-Serif" font-size="10.00">opcuabridge::ECUVersionManifest</text>
<text text-anchor="middle" x="250" y="-74.5" font-family="Helvetica,sans-Serif" font-size="10.00">Signed</text>
</a>
</g>
</g>
<!-- Node5&#45;&gt;Node7 -->
<g id="edge8" class="edge"><title>Node5&#45;&gt;Node7</title>
<path fill="none" stroke="#9a32cd" stroke-dasharray="5,2" d="M291.795,-377.877C318.568,-368.402 349,-351.207 349,-322 349,-322 349,-322 349,-174 349,-146.269 345.346,-135.867 326,-116 318.391,-108.186 308.602,-102.148 298.597,-97.5188"/>
<polygon fill="#9a32cd" stroke="#9a32cd" points="290.577,-374.593 282.16,-381.027 292.752,-381.247 290.577,-374.593"/>
<text text-anchor="middle" x="383.5" y="-250.5" font-family="Helvetica,sans-Serif" font-size="10.00"> ecuIdentifier_</text>
<text text-anchor="middle" x="383.5" y="-239.5" font-family="Helvetica,sans-Serif" font-size="10.00">securityAttack_</text>
</g>
<!-- Node8 -->
<g id="node8" class="node"><title>Node8</title>
<g id="a_node8"><a xlink:href="classopcuabridge_1_1_image.html" target="_top" xlink:title="opcuabridge::Image">
<polygon fill="white" stroke="black" points="199,-165.5 199,-184.5 301,-184.5 301,-165.5 199,-165.5"/>
<text text-anchor="middle" x="250" y="-172.5" font-family="Helvetica,sans-Serif" font-size="10.00">opcuabridge::Image</text>
</a>
</g>
</g>
<!-- Node5&#45;&gt;Node8 -->
<g id="edge10" class="edge"><title>Node5&#45;&gt;Node8</title>
<path fill="none" stroke="#9a32cd" stroke-dasharray="5,2" d="M264.774,-370.646C266.492,-367.565 268.003,-364.286 269,-361 287.975,-298.457 272.111,-279.351 273,-214 273.066,-209.112 274.689,-207.588 273,-203 270.447,-196.066 265.234,-189.7 260.415,-184.893"/>
<polygon fill="#9a32cd" stroke="#9a32cd" points="261.793,-368.811 259.308,-379.11 267.673,-372.608 261.793,-368.811"/>
<text text-anchor="middle" x="301" y="-284" font-family="Helvetica,sans-Serif" font-size="10.00"> filename_</text>
</g>
<!-- Node6 -->
<g id="node6" class="node"><title>Node6</title>
<g id="a_node6"><a xlink:title="STL class. ">
<polygon fill="white" stroke="#bfbfbf" points="204.5,-436.5 204.5,-466.5 299.5,-466.5 299.5,-436.5 204.5,-436.5"/>
<text text-anchor="start" x="212.5" y="-454.5" font-family="Helvetica,sans-Serif" font-size="10.00">std::basic_string&lt;</text>
<text text-anchor="middle" x="252" y="-443.5" font-family="Helvetica,sans-Serif" font-size="10.00"> char &gt;</text>
</a>
</g>
</g>
<!-- Node6&#45;&gt;Node5 -->
<g id="edge5" class="edge"><title>Node6&#45;&gt;Node5</title>
<path fill="none" stroke="midnightblue" d="M252,-426.352C252,-416.513 252,-405.775 252,-398.54"/>
<polygon fill="midnightblue" stroke="midnightblue" points="248.5,-426.468 252,-436.468 255.5,-426.468 248.5,-426.468"/>
</g>
<!-- Node7&#45;&gt;Node1 -->
<g id="edge7" class="edge"><title>Node7&#45;&gt;Node1</title>
<path fill="none" stroke="#9a32cd" stroke-dasharray="5,2" d="M219.159,-61.912C197.24,-47.9905 168.88,-29.9781 152.436,-19.5336"/>
<polygon fill="#9a32cd" stroke="#9a32cd" points="217.486,-64.9958 227.804,-67.4027 221.239,-59.0868 217.486,-64.9958"/>
<text text-anchor="middle" x="260.5" y="-41" font-family="Helvetica,sans-Serif" font-size="10.00"> ecuVersionManifestSigned_</text>
</g>
<!-- Node8&#45;&gt;Node7 -->
<g id="edge9" class="edge"><title>Node8&#45;&gt;Node7</title>
<path fill="none" stroke="#9a32cd" stroke-dasharray="5,2" d="M250,-154.88C250,-137.74 250,-112.989 250,-97.5925"/>
<polygon fill="#9a32cd" stroke="#9a32cd" points="246.5,-155.322 250,-165.322 253.5,-155.323 246.5,-155.322"/>
<text text-anchor="middle" x="286" y="-129" font-family="Helvetica,sans-Serif" font-size="10.00"> installedImage_</text>
</g>
<!-- Node9&#45;&gt;Node8 -->
<g id="edge11" class="edge"><title>Node9&#45;&gt;Node8</title>
<path fill="none" stroke="#9a32cd" stroke-dasharray="5,2" d="M213.91,-224.006C223.891,-210.73 235.97,-194.663 243.314,-184.893"/>
<polygon fill="#9a32cd" stroke="#9a32cd" points="210.937,-222.137 207.725,-232.233 216.532,-226.343 210.937,-222.137"/>
<text text-anchor="middle" x="249" y="-206" font-family="Helvetica,sans-Serif" font-size="10.00"> hashes_</text>
</g>
</g>
</svg>
