<?xml version="1.0" encoding="UTF-8" standalone="no"?>
<!DOCTYPE svg PUBLIC "-//W3C//DTD SVG 1.1//EN"
 "http://www.w3.org/Graphics/SVG/1.1/DTD/svg11.dtd">
<!-- Generated by graphviz version 2.40.1 (20161225.0304)
 -->
<!-- Title: HttpFake Pages: 1 -->
<svg width="336pt" height="218pt"
 viewBox="0.00 0.00 336.00 218.00" xmlns="http://www.w3.org/2000/svg" xmlns:xlink="http://www.w3.org/1999/xlink">
<g id="graph0" class="graph" transform="scale(1 1) rotate(0) translate(4 214)">
<title>HttpFake</title>
<polygon fill="#ffffff" stroke="transparent" points="-4,4 -4,-214 332,-214 332,4 -4,4"/>
<!-- Node0 -->
<g id="node1" class="node">
<title>Node0</title>
<polygon fill="#bfbfbf" stroke="#000000" points="110,-95.5 110,-114.5 167,-114.5 167,-95.5 110,-95.5"/>
<text text-anchor="middle" x="138.5" y="-102.5" font-family="Helvetica,sans-Serif" font-size="10.00" fill="#000000">HttpFake</text>
</g>
<!-- Node2 -->
<g id="node3" class="node">
<title>Node2</title>
<g id="a_node3"><a xlink:href="class_http_fake_campaign.html" target="_top" xlink:title="HttpFakeCampaign">
<polygon fill="#ffffff" stroke="#000000" points="215,-190.5 215,-209.5 316,-209.5 316,-190.5 215,-190.5"/>
<text text-anchor="middle" x="265.5" y="-197.5" font-family="Helvetica,sans-Serif" font-size="10.00" fill="#000000">HttpFakeCampaign</text>
</a>
</g>
</g>
<!-- Node0&#45;&gt;Node2 -->
<g id="edge2" class="edge">
<title>Node0&#45;&gt;Node2</title>
<path fill="none" stroke="#191970" d="M149.6191,-123.3582C160.9855,-140.6287 180.1767,-166.0111 203,-181 208.8773,-184.8598 215.5737,-187.9645 222.3477,-190.4534"/>
<polygon fill="#191970" stroke="#191970" points="152.4486,-121.2847 144.136,-114.7156 146.5377,-125.0347 152.4486,-121.2847"/>
</g>
<!-- Node3 -->
<g id="node4" class="node">
<title>Node3</title>
<g id="a_node4"><a xlink:href="class_http_fake_event_counter.html" target="_top" xlink:title="HttpFakeEventCounter">
<polygon fill="#ffffff" stroke="#000000" points="207,-152.5 207,-171.5 324,-171.5 324,-152.5 207,-152.5"/>
<text text-anchor="middle" x="265.5" y="-159.5" font-family="Helvetica,sans-Serif" font-size="10.00" fill="#000000">HttpFakeEventCounter</text>
</a>
</g>
</g>
<!-- Node0&#45;&gt;Node3 -->
<g id="edge3" class="edge">
<title>Node0&#45;&gt;Node3</title>
<path fill="none" stroke="#191970" d="M161.3428,-120.2587C173.3725,-127.8238 188.5861,-136.6707 203,-143 211.2034,-146.6022 220.2956,-149.7905 228.9469,-152.4774"/>
<polygon fill="#191970" stroke="#191970" points="163.1347,-117.2498 152.8303,-114.7863 159.3494,-123.1381 163.1347,-117.2498"/>
</g>
<!-- Node4 -->
<g id="node5" class="node">
<title>Node4</title>
<g id="a_node5"><a xlink:href="class_http_fake_no_correlation_id.html" target="_top" xlink:title="HttpFakeNoCorrelationId">
<polygon fill="#ffffff" stroke="#000000" points="203,-114.5 203,-133.5 328,-133.5 328,-114.5 203,-114.5"/>
<text text-anchor="middle" x="265.5" y="-121.5" font-family="Helvetica,sans-Serif" font-size="10.00" fill="#000000">HttpFakeNoCorrelationId</text>
</a>
</g>
</g>
<!-- Node0&#45;&gt;Node4 -->
<g id="edge4" class="edge">
<title>Node0&#45;&gt;Node4</title>
<path fill="none" stroke="#191970" d="M176.9671,-110.7549C185.1544,-111.9798 194.0028,-113.3036 202.8299,-114.6242"/>
<polygon fill="#191970" stroke="#191970" points="177.4091,-107.2822 167.0013,-109.264 176.3733,-114.2051 177.4091,-107.2822"/>
</g>
<!-- Node5 -->
<g id="node6" class="node">
<title>Node5</title>
<g id="a_node6"><a xlink:href="class_http_fake_prov.html" target="_top" xlink:title="Check that basic device info sent by aktualizr during provisioning matches our expectations. ">
<polygon fill="#ffffff" stroke="#000000" points="227,-76.5 227,-95.5 304,-95.5 304,-76.5 227,-76.5"/>
<text text-anchor="middle" x="265.5" y="-83.5" font-family="Helvetica,sans-Serif" font-size="10.00" fill="#000000">HttpFakeProv</text>
</a>
</g>
</g>
<!-- Node0&#45;&gt;Node5 -->
<g id="edge5" class="edge">
<title>Node0&#45;&gt;Node5</title>
<path fill="none" stroke="#191970" d="M177.0007,-99.2401C192.8369,-96.8709 211.1415,-94.1324 226.9797,-91.7629"/>
<polygon fill="#191970" stroke="#191970" points="176.3733,-95.7949 167.0013,-100.736 177.4091,-102.7178 176.3733,-95.7949"/>
</g>
<!-- Node6 -->
<g id="node7" class="node">
<title>Node6</title>
<g id="a_node7"><a xlink:href="class_http_fake_rq.html" target="_top" xlink:title="HttpFakeRq">
<polygon fill="#ffffff" stroke="#000000" points="230.5,-38.5 230.5,-57.5 300.5,-57.5 300.5,-38.5 230.5,-38.5"/>
<text text-anchor="middle" x="265.5" y="-45.5" font-family="Helvetica,sans-Serif" font-size="10.00" fill="#000000">HttpFakeRq</text>
</a>
</g>
</g>
<!-- Node0&#45;&gt;Node6 -->
<g id="edge6" class="edge">
<title>Node0&#45;&gt;Node6</title>
<path fill="none" stroke="#191970" d="M161.3428,-89.7413C173.3725,-82.1762 188.5861,-73.3293 203,-67 211.6187,-63.2154 221.2186,-59.8877 230.2574,-57.1184"/>
<polygon fill="#191970" stroke="#191970" points="159.3494,-86.8619 152.8303,-95.2137 163.1347,-92.7502 159.3494,-86.8619"/>
</g>
<!-- Node7 -->
<g id="node8" class="node">
<title>Node7</title>
<g id="a_node8"><a xlink:href="class_http_fake_unstable.html" target="_top" xlink:title="HttpFakeUnstable">
<polygon fill="#ffffff" stroke="#000000" points="217.5,-.5 217.5,-19.5 313.5,-19.5 313.5,-.5 217.5,-.5"/>
<text text-anchor="middle" x="265.5" y="-7.5" font-family="Helvetica,sans-Serif" font-size="10.00" fill="#000000">HttpFakeUnstable</text>
</a>
</g>
</g>
<!-- Node0&#45;&gt;Node7 -->
<g id="edge7" class="edge">
<title>Node0&#45;&gt;Node7</title>
<path fill="none" stroke="#191970" d="M149.6191,-86.6418C160.9855,-69.3713 180.1767,-43.9889 203,-29 208.8773,-25.1402 215.5737,-22.0355 222.3477,-19.5466"/>
<polygon fill="#191970" stroke="#191970" points="146.5377,-84.9653 144.136,-95.2844 152.4486,-88.7153 146.5377,-84.9653"/>
</g>
<!-- Node1 -->
<g id="node2" class="node">
<title>Node1</title>
<g id="a_node2"><a xlink:href="class_http_interface.html" target="_top" xlink:title="HttpInterface">
<polygon fill="#ffffff" stroke="#000000" points="0,-95.5 0,-114.5 74,-114.5 74,-95.5 0,-95.5"/>
<text text-anchor="middle" x="37" y="-102.5" font-family="Helvetica,sans-Serif" font-size="10.00" fill="#000000">HttpInterface</text>
</a>
</g>
</g>
<!-- Node1&#45;&gt;Node0 -->
<g id="edge1" class="edge">
<title>Node1&#45;&gt;Node0</title>
<path fill="none" stroke="#191970" d="M84.3344,-105C93.0574,-105 101.9156,-105 109.8719,-105"/>
<polygon fill="#191970" stroke="#191970" points="84.2185,-101.5001 74.2185,-105 84.2185,-108.5001 84.2185,-101.5001"/>
</g>
</g>
</svg>
