<?xml version="1.0" encoding="UTF-8" standalone="no"?>
<!DOCTYPE svg PUBLIC "-//W3C//DTD SVG 1.1//EN"
 "http://www.w3.org/Graphics/SVG/1.1/DTD/svg11.dtd">
<!-- Generated by graphviz version 2.38.0 (20140413.2041)
 -->
<!-- Title: opcuabridge::Signature Pages: 1 -->
<svg width="188pt" height="232pt"
 viewBox="0.00 0.00 187.50 232.00" xmlns="http://www.w3.org/2000/svg" xmlns:xlink="http://www.w3.org/1999/xlink">
<g id="graph0" class="graph" transform="scale(1 1) rotate(0) translate(4 228)">
<title>opcuabridge::Signature</title>
<polygon fill="white" stroke="none" points="-4,4 -4,-228 183.5,-228 183.5,4 -4,4"/>
<!-- Node1 -->
<g id="node1" class="node"><title>Node1</title>
<polygon fill="#bfbfbf" stroke="black" points="6.5,-0.5 6.5,-19.5 122.5,-19.5 122.5,-0.5 6.5,-0.5"/>
<text text-anchor="middle" x="64.5" y="-7.5" font-family="Helvetica,sans-Serif" font-size="10.00">opcuabridge::Signature</text>
</g>
<!-- Node2 -->
<g id="node2" class="node"><title>Node2</title>
<g id="a_node2"><a xlink:href="classopcuabridge_1_1_hash.html" target="_top" xlink:title="opcuabridge::Hash">
<polygon fill="white" stroke="black" points="81.5,-68.5 81.5,-87.5 179.5,-87.5 179.5,-68.5 81.5,-68.5"/>
<text text-anchor="middle" x="130.5" y="-75.5" font-family="Helvetica,sans-Serif" font-size="10.00">opcuabridge::Hash</text>
</a>
</g>
</g>
<!-- Node2&#45;&gt;Node1 -->
<g id="edge1" class="edge"><title>Node2&#45;&gt;Node1</title>
<path fill="none" stroke="#9a32cd" stroke-dasharray="5,2" d="M114.547,-61.0474C101.611,-48.1111 83.8567,-30.3567 73.3411,-19.8411"/>
<polygon fill="#9a32cd" stroke="#9a32cd" points="112.326,-63.7754 121.872,-68.3717 117.275,-58.8257 112.326,-63.7754"/>
<text text-anchor="middle" x="115.5" y="-41" font-family="Helvetica,sans-Serif" font-size="10.00"> hash_</text>
</g>
<!-- Node3 -->
<g id="node3" class="node"><title>Node3</title>
<g id="a_node3"><a xlink:title="STL class. ">
<polygon fill="white" stroke="#bfbfbf" points="17.5,-136.5 17.5,-155.5 77.5,-155.5 77.5,-136.5 17.5,-136.5"/>
<text text-anchor="middle" x="47.5" y="-143.5" font-family="Helvetica,sans-Serif" font-size="10.00">std::string</text>
</a>
</g>
</g>
<!-- Node3&#45;&gt;Node1 -->
<g id="edge4" class="edge"><title>Node3&#45;&gt;Node1</title>
<path fill="none" stroke="#9a32cd" stroke-dasharray="5,2" d="M42.7629,-126.127C39.4939,-110.221 36.4084,-86.9339 40.5,-67 44.1155,-49.3855 53.5127,-30.4705 59.4184,-19.7498"/>
<polygon fill="#9a32cd" stroke="#9a32cd" points="39.4363,-127.281 45.0756,-136.25 46.2605,-125.722 39.4363,-127.281"/>
<text text-anchor="middle" x="56.5" y="-81" font-family="Helvetica,sans-Serif" font-size="10.00"> keyid_</text>
<text text-anchor="middle" x="56.5" y="-70" font-family="Helvetica,sans-Serif" font-size="10.00">value_</text>
</g>
<!-- Node3&#45;&gt;Node2 -->
<g id="edge2" class="edge"><title>Node3&#45;&gt;Node2</title>
<path fill="none" stroke="#9a32cd" stroke-dasharray="5,2" d="M66.2428,-130.096C82.7107,-117.001 106.1,-98.4028 119.647,-87.6305"/>
<polygon fill="#9a32cd" stroke="#9a32cd" points="63.9995,-127.408 58.3508,-136.372 68.3563,-132.887 63.9995,-127.408"/>
<text text-anchor="middle" x="111" y="-110" font-family="Helvetica,sans-Serif" font-size="10.00"> digest_</text>
</g>
<!-- Node4 -->
<g id="node4" class="node"><title>Node4</title>
<g id="a_node4"><a xlink:title="STL class. ">
<polygon fill="white" stroke="#bfbfbf" points="0,-193.5 0,-223.5 95,-223.5 95,-193.5 0,-193.5"/>
<text text-anchor="start" x="8" y="-211.5" font-family="Helvetica,sans-Serif" font-size="10.00">std::basic_string&lt;</text>
<text text-anchor="middle" x="47.5" y="-200.5" font-family="Helvetica,sans-Serif" font-size="10.00"> char &gt;</text>
</a>
</g>
</g>
<!-- Node4&#45;&gt;Node3 -->
<g id="edge3" class="edge"><title>Node4&#45;&gt;Node3</title>
<path fill="none" stroke="midnightblue" d="M47.5,-183.352C47.5,-173.513 47.5,-162.775 47.5,-155.54"/>
<polygon fill="midnightblue" stroke="midnightblue" points="44.0001,-183.468 47.5,-193.468 51.0001,-183.468 44.0001,-183.468"/>
</g>
</g>
</svg>
