<?xml version="1.0" encoding="UTF-8" standalone="no"?>
<!DOCTYPE svg PUBLIC "-//W3C//DTD SVG 1.1//EN"
 "http://www.w3.org/Graphics/SVG/1.1/DTD/svg11.dtd">
<!-- Generated by graphviz version 2.38.0 (20140413.2041)
 -->
<!-- Title: opcuabridge::CurrentTime Pages: 1 -->
<svg width="1042pt" height="198pt"
 viewBox="0.00 0.00 1042.00 198.00" xmlns="http://www.w3.org/2000/svg" xmlns:xlink="http://www.w3.org/1999/xlink">
<g id="graph0" class="graph" transform="scale(1 1) rotate(0) translate(4 194)">
<title>opcuabridge::CurrentTime</title>
<polygon fill="white" stroke="none" points="-4,4 -4,-194 1038,-194 1038,4 -4,4"/>
<!-- Node1 -->
<g id="node1" class="node"><title>Node1</title>
<polygon fill="#bfbfbf" stroke="black" points="905,-76.5 905,-95.5 1034,-95.5 1034,-76.5 905,-76.5"/>
<text text-anchor="middle" x="969.5" y="-83.5" font-family="Helvetica,sans-Serif" font-size="10.00">opcuabridge::CurrentTime</text>
</g>
<!-- Node2 -->
<g id="node2" class="node"><title>Node2</title>
<g id="a_node2"><a xlink:href="structopcuabridge_1_1_message_on_before_read_callback.html" target="_top" xlink:title="opcuabridge::MessageOnBefore\lReadCallback\&lt; opcuabridge\l::CurrentTime \&gt;">
<polygon fill="white" stroke="black" points="622,-148.5 622,-189.5 778,-189.5 778,-148.5 622,-148.5"/>
<text text-anchor="start" x="630" y="-177.5" font-family="Helvetica,sans-Serif" font-size="10.00">opcuabridge::MessageOnBefore</text>
<text text-anchor="start" x="630" y="-166.5" font-family="Helvetica,sans-Serif" font-size="10.00">ReadCallback&lt; opcuabridge</text>
<text text-anchor="middle" x="700" y="-155.5" font-family="Helvetica,sans-Serif" font-size="10.00">::CurrentTime &gt;</text>
</a>
</g>
</g>
<!-- Node2&#45;&gt;Node1 -->
<g id="edge1" class="edge"><title>Node2&#45;&gt;Node1</title>
<path fill="none" stroke="#9a32cd" stroke-dasharray="5,2" d="M787.893,-145.698C819.28,-136.898 854.881,-126.471 887,-116 906.352,-109.691 927.958,-101.693 944.059,-95.5424"/>
<polygon fill="#9a32cd" stroke="#9a32cd" points="786.553,-142.438 777.861,-148.496 788.433,-149.181 786.553,-142.438"/>
<text text-anchor="middle" x="841.5" y="-145" font-family="Helvetica,sans-Serif" font-size="10.00"> on_before_read_cb_</text>
</g>
<!-- Node3 -->
<g id="node3" class="node"><title>Node3</title>
<g id="a_node3"><a xlink:href="structopcuabridge_1_1_message_on_after_write_callback.html" target="_top" xlink:title="opcuabridge::MessageOnAfter\lWriteCallback\&lt; opcuabridge\l::CurrentTime \&gt;">
<polygon fill="white" stroke="black" points="625.5,-88.5 625.5,-129.5 774.5,-129.5 774.5,-88.5 625.5,-88.5"/>
<text text-anchor="start" x="633.5" y="-117.5" font-family="Helvetica,sans-Serif" font-size="10.00">opcuabridge::MessageOnAfter</text>
<text text-anchor="start" x="633.5" y="-106.5" font-family="Helvetica,sans-Serif" font-size="10.00">WriteCallback&lt; opcuabridge</text>
<text text-anchor="middle" x="700" y="-95.5" font-family="Helvetica,sans-Serif" font-size="10.00">::CurrentTime &gt;</text>
</a>
</g>
</g>
<!-- Node3&#45;&gt;Node1 -->
<g id="edge2" class="edge"><title>Node3&#45;&gt;Node1</title>
<path fill="none" stroke="#9a32cd" stroke-dasharray="5,2" d="M785.029,-101.775C823.795,-98.442 869.057,-94.5502 904.926,-91.4662"/>
<polygon fill="#9a32cd" stroke="#9a32cd" points="784.467,-98.3104 774.804,-102.654 785.067,-105.285 784.467,-98.3104"/>
<text text-anchor="middle" x="841.5" y="-104" font-family="Helvetica,sans-Serif" font-size="10.00"> on_after_write_cb_</text>
</g>
<!-- Node4 -->
<g id="node4" class="node"><title>Node4</title>
<polygon fill="white" stroke="#bfbfbf" points="637.5,-39 637.5,-69 762.5,-69 762.5,-39 637.5,-39"/>
<text text-anchor="start" x="645.5" y="-57" font-family="Helvetica,sans-Serif" font-size="10.00">std::vector&lt; opcuabridge</text>
<text text-anchor="middle" x="700" y="-46" font-family="Helvetica,sans-Serif" font-size="10.00">::Signature &gt;</text>
</g>
<!-- Node4&#45;&gt;Node1 -->
<g id="edge3" class="edge"><title>Node4&#45;&gt;Node1</title>
<path fill="none" stroke="#9a32cd" stroke-dasharray="5,2" d="M772.667,-62.5732C813.817,-67.4958 865.042,-73.6237 904.78,-78.3774"/>
<polygon fill="#9a32cd" stroke="#9a32cd" points="773.051,-59.0943 762.706,-61.3816 772.219,-66.0447 773.051,-59.0943"/>
<text text-anchor="middle" x="841.5" y="-79" font-family="Helvetica,sans-Serif" font-size="10.00"> signatures_</text>
</g>
<!-- Node5 -->
<g id="node5" class="node"><title>Node5</title>
<g id="a_node5"><a xlink:href="classopcuabridge_1_1_signature.html" target="_top" xlink:title="opcuabridge::Signature">
<polygon fill="white" stroke="black" points="427,-44.5 427,-63.5 543,-63.5 543,-44.5 427,-44.5"/>
<text text-anchor="middle" x="485" y="-51.5" font-family="Helvetica,sans-Serif" font-size="10.00">opcuabridge::Signature</text>
</a>
</g>
</g>
<!-- Node5&#45;&gt;Node4 -->
<g id="edge4" class="edge"><title>Node5&#45;&gt;Node4</title>
<path fill="none" stroke="#9a32cd" stroke-dasharray="5,2" d="M553.189,-54C580.109,-54 610.927,-54 637.275,-54"/>
<polygon fill="#9a32cd" stroke="#9a32cd" points="553.08,-50.5001 543.08,-54 553.08,-57.5001 553.08,-50.5001"/>
<text text-anchor="middle" x="582.5" y="-57" font-family="Helvetica,sans-Serif" font-size="10.00"> elements</text>
</g>
<!-- Node6 -->
<g id="node6" class="node"><title>Node6</title>
<g id="a_node6"><a xlink:href="classopcuabridge_1_1_hash.html" target="_top" xlink:title="opcuabridge::Hash">
<polygon fill="white" stroke="black" points="263,-11.5 263,-30.5 361,-30.5 361,-11.5 263,-11.5"/>
<text text-anchor="middle" x="312" y="-18.5" font-family="Helvetica,sans-Serif" font-size="10.00">opcuabridge::Hash</text>
</a>
</g>
</g>
<!-- Node6&#45;&gt;Node5 -->
<g id="edge5" class="edge"><title>Node6&#45;&gt;Node5</title>
<path fill="none" stroke="#9a32cd" stroke-dasharray="5,2" d="M370.997,-32.1925C391.623,-36.1729 414.639,-40.6146 434.489,-44.4453"/>
<polygon fill="#9a32cd" stroke="#9a32cd" points="371.57,-28.7385 361.088,-30.2802 370.244,-35.6117 371.57,-28.7385"/>
<text text-anchor="middle" x="394" y="-43" font-family="Helvetica,sans-Serif" font-size="10.00"> hash_</text>
</g>
<!-- Node7 -->
<g id="node7" class="node"><title>Node7</title>
<g id="a_node7"><a xlink:title="STL class. ">
<polygon fill="white" stroke="#bfbfbf" points="132,-39.5 132,-58.5 192,-58.5 192,-39.5 132,-39.5"/>
<text text-anchor="middle" x="162" y="-46.5" font-family="Helvetica,sans-Serif" font-size="10.00">std::string</text>
</a>
</g>
</g>
<!-- Node7&#45;&gt;Node5 -->
<g id="edge8" class="edge"><title>Node7&#45;&gt;Node5</title>
<path fill="none" stroke="#9a32cd" stroke-dasharray="5,2" d="M202.206,-52.5768C204.842,-52.7433 207.459,-52.8874 210,-53 284.849,-56.3162 371.311,-55.9304 426.766,-55.1426"/>
<polygon fill="#9a32cd" stroke="#9a32cd" points="202.285,-49.0735 192.059,-51.8444 201.781,-56.0554 202.285,-49.0735"/>
<text text-anchor="middle" x="312" y="-70" font-family="Helvetica,sans-Serif" font-size="10.00"> keyid_</text>
<text text-anchor="middle" x="312" y="-59" font-family="Helvetica,sans-Serif" font-size="10.00">value_</text>
</g>
<!-- Node7&#45;&gt;Node6 -->
<g id="edge6" class="edge"><title>Node7&#45;&gt;Node6</title>
<path fill="none" stroke="#9a32cd" stroke-dasharray="5,2" d="M202.154,-41.5924C220.783,-38.0681 243.229,-33.8216 262.886,-30.1026"/>
<polygon fill="#9a32cd" stroke="#9a32cd" points="201.415,-38.1701 192.24,-43.4681 202.716,-45.0481 201.415,-38.1701"/>
<text text-anchor="middle" x="227.5" y="-43" font-family="Helvetica,sans-Serif" font-size="10.00"> digest_</text>
</g>
<!-- Node8 -->
<g id="node8" class="node"><title>Node8</title>
<g id="a_node8"><a xlink:title="STL class. ">
<polygon fill="white" stroke="#bfbfbf" points="0,-34 0,-64 95,-64 95,-34 0,-34"/>
<text text-anchor="start" x="8" y="-52" font-family="Helvetica,sans-Serif" font-size="10.00">std::basic_string&lt;</text>
<text text-anchor="middle" x="47.5" y="-41" font-family="Helvetica,sans-Serif" font-size="10.00"> char &gt;</text>
</a>
</g>
</g>
<!-- Node8&#45;&gt;Node7 -->
<g id="edge7" class="edge"><title>Node8&#45;&gt;Node7</title>
<path fill="none" stroke="midnightblue" d="M105.526,-49C114.678,-49 123.803,-49 131.931,-49"/>
<polygon fill="midnightblue" stroke="midnightblue" points="105.233,-45.5001 95.2328,-49 105.233,-52.5001 105.233,-45.5001"/>
</g>
<!-- Node9 -->
<g id="node9" class="node"><title>Node9</title>
<g id="a_node9"><a xlink:href="classopcuabridge_1_1_signed.html" target="_top" xlink:title="opcuabridge::Signed">
<polygon fill="white" stroke="black" points="647.5,-0.5 647.5,-19.5 752.5,-19.5 752.5,-0.5 647.5,-0.5"/>
<text text-anchor="middle" x="700" y="-7.5" font-family="Helvetica,sans-Serif" font-size="10.00">opcuabridge::Signed</text>
</a>
</g>
</g>
<!-- Node9&#45;&gt;Node1 -->
<g id="edge9" class="edge"><title>Node9&#45;&gt;Node1</title>
<path fill="none" stroke="#9a32cd" stroke-dasharray="5,2" d="M762.581,-21.1182C799.154,-28.4082 846.206,-38.993 887,-52 908.472,-58.8462 932.157,-69.0407 948.434,-76.4808"/>
<polygon fill="#9a32cd" stroke="#9a32cd" points="763.045,-17.6424 752.558,-19.1502 761.696,-24.5113 763.045,-17.6424"/>
<text text-anchor="middle" x="841.5" y="-55" font-family="Helvetica,sans-Serif" font-size="10.00"> signed_</text>
</g>
<!-- Node10 -->
<g id="node10" class="node"><title>Node10</title>
<polygon fill="white" stroke="#bfbfbf" points="439,-0.5 439,-19.5 531,-19.5 531,-0.5 439,-0.5"/>
<text text-anchor="middle" x="485" y="-7.5" font-family="Helvetica,sans-Serif" font-size="10.00">std::vector&lt; int &gt;</text>
</g>
<!-- Node10&#45;&gt;Node9 -->
<g id="edge10" class="edge"><title>Node10&#45;&gt;Node9</title>
<path fill="none" stroke="#9a32cd" stroke-dasharray="5,2" d="M541.456,-10C574.109,-10 615.145,-10 647.15,-10"/>
<polygon fill="#9a32cd" stroke="#9a32cd" points="541.172,-6.5001 531.172,-10 541.172,-13.5001 541.172,-6.5001"/>
<text text-anchor="middle" x="582.5" y="-13" font-family="Helvetica,sans-Serif" font-size="10.00"> tokens_</text>
</g>
</g>
</svg>
