<?xml version="1.0" encoding="UTF-8" standalone="no"?>
<!DOCTYPE svg PUBLIC "-//W3C//DTD SVG 1.1//EN"
 "http://www.w3.org/Graphics/SVG/1.1/DTD/svg11.dtd">
<!-- Generated by graphviz version 2.38.0 (20140413.2041)
 -->
<!-- Title: Uptane::VirtualSecondary Pages: 1 -->
<svg width="153pt" height="388pt"
 viewBox="0.00 0.00 153.00 388.00" xmlns="http://www.w3.org/2000/svg" xmlns:xlink="http://www.w3.org/1999/xlink">
<g id="graph0" class="graph" transform="scale(1 1) rotate(0) translate(4 384)">
<title>Uptane::VirtualSecondary</title>
<polygon fill="white" stroke="none" points="-4,4 -4,-384 149,-384 149,4 -4,4"/>
<!-- Node3 -->
<g id="node1" class="node"><title>Node3</title>
<polygon fill="#bfbfbf" stroke="black" points="6,-0.5 6,-19.5 134,-19.5 134,-0.5 6,-0.5"/>
<text text-anchor="middle" x="70" y="-7.5" font-family="Helvetica,sans-Serif" font-size="10.00">Uptane::VirtualSecondary</text>
</g>
<!-- Node4 -->
<g id="node2" class="node"><title>Node4</title>
<g id="a_node2"><a xlink:href="class_uptane_1_1_managed_secondary.html" target="_top" xlink:title="Uptane::ManagedSecondary">
<polygon fill="white" stroke="black" points="0,-57.5 0,-76.5 140,-76.5 140,-57.5 0,-57.5"/>
<text text-anchor="middle" x="70" y="-64.5" font-family="Helvetica,sans-Serif" font-size="10.00">Uptane::ManagedSecondary</text>
</a>
</g>
</g>
<!-- Node4&#45;&gt;Node3 -->
<g id="edge1" class="edge"><title>Node4&#45;&gt;Node3</title>
<path fill="none" stroke="midnightblue" d="M70,-47.1166C70,-37.8173 70,-27.0557 70,-19.7149"/>
<polygon fill="midnightblue" stroke="midnightblue" points="66.5001,-47.4062 70,-57.4062 73.5001,-47.4063 66.5001,-47.4062"/>
</g>
<!-- Node5 -->
<g id="node3" class="node"><title>Node5</title>
<g id="a_node3"><a xlink:href="class_uptane_1_1_secondary_interface.html" target="_top" xlink:title="Uptane::SecondaryInterface">
<polygon fill="white" stroke="black" points="0.5,-114.5 0.5,-133.5 139.5,-133.5 139.5,-114.5 0.5,-114.5"/>
<text text-anchor="middle" x="70" y="-121.5" font-family="Helvetica,sans-Serif" font-size="10.00">Uptane::SecondaryInterface</text>
</a>
</g>
</g>
<!-- Node5&#45;&gt;Node4 -->
<g id="edge2" class="edge"><title>Node5&#45;&gt;Node4</title>
<path fill="none" stroke="midnightblue" d="M70,-104.117C70,-94.8173 70,-84.0557 70,-76.7149"/>
<polygon fill="midnightblue" stroke="midnightblue" points="66.5001,-104.406 70,-114.406 73.5001,-104.406 66.5001,-104.406"/>
</g>
<!-- Node6 -->
<g id="node4" class="node"><title>Node6</title>
<g id="a_node4"><a xlink:href="class_uptane_1_1_secondary_config.html" target="_top" xlink:title="Uptane::SecondaryConfig">
<polygon fill="white" stroke="black" points="5.5,-181.5 5.5,-200.5 134.5,-200.5 134.5,-181.5 5.5,-181.5"/>
<text text-anchor="middle" x="70" y="-188.5" font-family="Helvetica,sans-Serif" font-size="10.00">Uptane::SecondaryConfig</text>
</a>
</g>
</g>
<!-- Node6&#45;&gt;Node5 -->
<g id="edge3" class="edge"><title>Node6&#45;&gt;Node5</title>
<path fill="none" stroke="#9a32cd" stroke-dasharray="5,2" d="M70,-171.037C70,-158.67 70,-143.12 70,-133.627"/>
<polygon fill="#9a32cd" stroke="#9a32cd" points="66.5001,-171.234 70,-181.234 73.5001,-171.234 66.5001,-171.234"/>
<text text-anchor="middle" x="87.5" y="-155" font-family="Helvetica,sans-Serif" font-size="10.00"> sconfig</text>
</g>
<!-- Node7 -->
<g id="node5" class="node"><title>Node7</title>
<g id="a_node5"><a xlink:title="STL class. ">
<polygon fill="white" stroke="#bfbfbf" points="40,-292.5 40,-311.5 100,-311.5 100,-292.5 40,-292.5"/>
<text text-anchor="middle" x="70" y="-299.5" font-family="Helvetica,sans-Serif" font-size="10.00">std::string</text>
</a>
</g>
</g>
<!-- Node7&#45;&gt;Node6 -->
<g id="edge4" class="edge"><title>Node7&#45;&gt;Node6</title>
<path fill="none" stroke="#9a32cd" stroke-dasharray="5,2" d="M70,-282.193C70,-258.276 70,-217.989 70,-200.513"/>
<polygon fill="#9a32cd" stroke="#9a32cd" points="66.5001,-282.447 70,-292.447 73.5001,-282.447 66.5001,-282.447"/>
<text text-anchor="middle" x="107.5" y="-266" font-family="Helvetica,sans-Serif" font-size="10.00"> ecu_private_key</text>
<text text-anchor="middle" x="107.5" y="-255" font-family="Helvetica,sans-Serif" font-size="10.00">ecu_hardware_id</text>
<text text-anchor="middle" x="107.5" y="-244" font-family="Helvetica,sans-Serif" font-size="10.00">ecu_serial</text>
<text text-anchor="middle" x="107.5" y="-233" font-family="Helvetica,sans-Serif" font-size="10.00">opcua_lds_url</text>
<text text-anchor="middle" x="107.5" y="-222" font-family="Helvetica,sans-Serif" font-size="10.00">ecu_public_key</text>
</g>
<!-- Node8 -->
<g id="node6" class="node"><title>Node8</title>
<g id="a_node6"><a xlink:title="STL class. ">
<polygon fill="white" stroke="#bfbfbf" points="22.5,-349.5 22.5,-379.5 117.5,-379.5 117.5,-349.5 22.5,-349.5"/>
<text text-anchor="start" x="30.5" y="-367.5" font-family="Helvetica,sans-Serif" font-size="10.00">std::basic_string&lt;</text>
<text text-anchor="middle" x="70" y="-356.5" font-family="Helvetica,sans-Serif" font-size="10.00"> char &gt;</text>
</a>
</g>
</g>
<!-- Node8&#45;&gt;Node7 -->
<g id="edge5" class="edge"><title>Node8&#45;&gt;Node7</title>
<path fill="none" stroke="midnightblue" d="M70,-339.352C70,-329.513 70,-318.775 70,-311.54"/>
<polygon fill="midnightblue" stroke="midnightblue" points="66.5001,-339.468 70,-349.468 73.5001,-339.468 66.5001,-339.468"/>
</g>
</g>
</svg>
