<?xml version="1.0" encoding="UTF-8" standalone="no"?>
<!DOCTYPE svg PUBLIC "-//W3C//DTD SVG 1.1//EN"
 "http://www.w3.org/Graphics/SVG/1.1/DTD/svg11.dtd">
<!-- Generated by graphviz version 2.38.0 (20140413.2041)
 -->
<!-- Title: event::UpdateAvailable Pages: 1 -->
<svg width="226pt" height="241pt"
 viewBox="0.00 0.00 225.50 241.00" xmlns="http://www.w3.org/2000/svg" xmlns:xlink="http://www.w3.org/1999/xlink">
<g id="graph0" class="graph" transform="scale(1 1) rotate(0) translate(4 237)">
<title>event::UpdateAvailable</title>
<polygon fill="white" stroke="none" points="-4,4 -4,-237 221.5,-237 221.5,4 -4,4"/>
<!-- Node2 -->
<g id="node1" class="node"><title>Node2</title>
<polygon fill="#bfbfbf" stroke="black" points="57.5,-0.5 57.5,-19.5 175.5,-19.5 175.5,-0.5 57.5,-0.5"/>
<text text-anchor="middle" x="116.5" y="-7.5" font-family="Helvetica,sans-Serif" font-size="10.00">event::UpdateAvailable</text>
</g>
<!-- Node3 -->
<g id="node2" class="node"><title>Node3</title>
<g id="a_node2"><a xlink:href="classevent_1_1_base_event.html" target="_top" xlink:title="Base class for all event objects. ">
<polygon fill="white" stroke="black" points="0,-73 0,-92 95,-92 95,-73 0,-73"/>
<text text-anchor="middle" x="47.5" y="-80" font-family="Helvetica,sans-Serif" font-size="10.00">event::BaseEvent</text>
</a>
</g>
</g>
<!-- Node3&#45;&gt;Node2 -->
<g id="edge1" class="edge"><title>Node3&#45;&gt;Node2</title>
<path fill="none" stroke="midnightblue" d="M62.9715,-65.6921C76.8687,-51.4928 96.7604,-31.1687 107.97,-19.7154"/>
<polygon fill="midnightblue" stroke="midnightblue" points="60.4541,-63.2605 55.9608,-72.8553 65.4568,-68.1567 60.4541,-63.2605"/>
</g>
<!-- Node4 -->
<g id="node3" class="node"><title>Node4</title>
<g id="a_node3"><a xlink:title="STL class. ">
<polygon fill="white" stroke="#bfbfbf" points="17.5,-145.5 17.5,-164.5 77.5,-164.5 77.5,-145.5 17.5,-145.5"/>
<text text-anchor="middle" x="47.5" y="-152.5" font-family="Helvetica,sans-Serif" font-size="10.00">std::string</text>
</a>
</g>
</g>
<!-- Node4&#45;&gt;Node3 -->
<g id="edge2" class="edge"><title>Node4&#45;&gt;Node3</title>
<path fill="none" stroke="#9a32cd" stroke-dasharray="5,2" d="M47.5,-134.942C47.5,-121.03 47.5,-102.82 47.5,-92.2154"/>
<polygon fill="#9a32cd" stroke="#9a32cd" points="44.0001,-135.355 47.5,-145.355 51.0001,-135.355 44.0001,-135.355"/>
<text text-anchor="middle" x="64" y="-119" font-family="Helvetica,sans-Serif" font-size="10.00"> variant</text>
</g>
<!-- Node5 -->
<g id="node4" class="node"><title>Node5</title>
<g id="a_node4"><a xlink:title="STL class. ">
<polygon fill="white" stroke="#bfbfbf" points="0,-202.5 0,-232.5 95,-232.5 95,-202.5 0,-202.5"/>
<text text-anchor="start" x="8" y="-220.5" font-family="Helvetica,sans-Serif" font-size="10.00">std::basic_string&lt;</text>
<text text-anchor="middle" x="47.5" y="-209.5" font-family="Helvetica,sans-Serif" font-size="10.00"> char &gt;</text>
</a>
</g>
</g>
<!-- Node5&#45;&gt;Node4 -->
<g id="edge3" class="edge"><title>Node5&#45;&gt;Node4</title>
<path fill="none" stroke="midnightblue" d="M47.5,-192.352C47.5,-182.513 47.5,-171.775 47.5,-164.54"/>
<polygon fill="midnightblue" stroke="midnightblue" points="44.0001,-192.468 47.5,-202.468 51.0001,-192.468 44.0001,-192.468"/>
</g>
<!-- Node6 -->
<g id="node5" class="node"><title>Node6</title>
<polygon fill="white" stroke="#bfbfbf" points="113.5,-67.5 113.5,-97.5 217.5,-97.5 217.5,-67.5 113.5,-67.5"/>
<text text-anchor="start" x="121.5" y="-85.5" font-family="Helvetica,sans-Serif" font-size="10.00">std::vector&lt; Uptane</text>
<text text-anchor="middle" x="165.5" y="-74.5" font-family="Helvetica,sans-Serif" font-size="10.00">::Target &gt;</text>
</g>
<!-- Node6&#45;&gt;Node2 -->
<g id="edge4" class="edge"><title>Node6&#45;&gt;Node2</title>
<path fill="none" stroke="#9a32cd" stroke-dasharray="5,2" d="M149.866,-59.006C140.638,-45.7295 129.471,-29.6626 122.681,-19.8932"/>
<polygon fill="#9a32cd" stroke="#9a32cd" points="147.003,-61.0194 155.584,-67.2333 152.751,-57.0243 147.003,-61.0194"/>
<text text-anchor="middle" x="161.5" y="-41" font-family="Helvetica,sans-Serif" font-size="10.00"> updates</text>
</g>
<!-- Node7 -->
<g id="node6" class="node"><title>Node7</title>
<g id="a_node6"><a xlink:href="class_uptane_1_1_target.html" target="_top" xlink:title="Uptane::Target">
<polygon fill="white" stroke="black" points="124.5,-145.5 124.5,-164.5 206.5,-164.5 206.5,-145.5 124.5,-145.5"/>
<text text-anchor="middle" x="165.5" y="-152.5" font-family="Helvetica,sans-Serif" font-size="10.00">Uptane::Target</text>
</a>
</g>
</g>
<!-- Node7&#45;&gt;Node6 -->
<g id="edge5" class="edge"><title>Node7&#45;&gt;Node6</title>
<path fill="none" stroke="#9a32cd" stroke-dasharray="5,2" d="M165.5,-135.236C165.5,-123.408 165.5,-108.383 165.5,-97.5762"/>
<polygon fill="#9a32cd" stroke="#9a32cd" points="162,-135.355 165.5,-145.355 169,-135.355 162,-135.355"/>
<text text-anchor="middle" x="187" y="-119" font-family="Helvetica,sans-Serif" font-size="10.00"> elements</text>
</g>
</g>
</svg>
