<?xml version="1.0" encoding="UTF-8" standalone="no"?>
<!DOCTYPE svg PUBLIC "-//W3C//DTD SVG 1.1//EN"
 "http://www.w3.org/Graphics/SVG/1.1/DTD/svg11.dtd">
<!-- Generated by graphviz version 2.38.0 (20140413.2041)
 -->
<!-- Title: BaseConfig Pages: 1 -->
<svg width="115pt" height="106pt"
 viewBox="0.00 0.00 114.50 106.00" xmlns="http://www.w3.org/2000/svg" xmlns:xlink="http://www.w3.org/1999/xlink">
<g id="graph0" class="graph" transform="scale(1 1) rotate(0) translate(4 102)">
<title>BaseConfig</title>
<polygon fill="white" stroke="none" points="-4,4 -4,-102 110.5,-102 110.5,4 -4,4"/>
<!-- Node4 -->
<g id="node1" class="node"><title>Node4</title>
<polygon fill="#bfbfbf" stroke="black" points="16.5,-0.5 16.5,-19.5 84.5,-19.5 84.5,-0.5 16.5,-0.5"/>
<text text-anchor="middle" x="50.5" y="-7.5" font-family="Helvetica,sans-Serif" font-size="10.00">BaseConfig</text>
</g>
<!-- Node5 -->
<g id="node2" class="node"><title>Node5</title>
<polygon fill="white" stroke="#bfbfbf" points="0,-67.5 0,-97.5 101,-97.5 101,-67.5 0,-67.5"/>
<text text-anchor="start" x="8" y="-85.5" font-family="Helvetica,sans-Serif" font-size="10.00">std::vector&lt; boost</text>
<text text-anchor="middle" x="50.5" y="-74.5" font-family="Helvetica,sans-Serif" font-size="10.00">::filesystem::path &gt;</text>
</g>
<!-- Node5&#45;&gt;Node4 -->
<g id="edge1" class="edge"><title>Node5&#45;&gt;Node4</title>
<path fill="none" stroke="#9a32cd" stroke-dasharray="5,2" d="M50.5,-57.0913C50.5,-44.2136 50.5,-29.1974 50.5,-19.8932"/>
<polygon fill="#9a32cd" stroke="#9a32cd" points="47.0001,-57.2332 50.5,-67.2333 54.0001,-57.2333 47.0001,-57.2332"/>
<text text-anchor="middle" x="78.5" y="-41" font-family="Helvetica,sans-Serif" font-size="10.00"> config_dirs_</text>
</g>
</g>
</svg>
