<?xml version="1.0" encoding="UTF-8" standalone="no"?>
<!DOCTYPE svg PUBLIC "-//W3C//DTD SVG 1.1//EN"
 "http://www.w3.org/Graphics/SVG/1.1/DTD/svg11.dtd">
<!-- Generated by graphviz version 2.38.0 (20140413.2041)
 -->
<!-- Title: Uptane::RepositoryCommon Pages: 1 -->
<svg width="149pt" height="219pt"
 viewBox="0.00 0.00 149.00 219.00" xmlns="http://www.w3.org/2000/svg" xmlns:xlink="http://www.w3.org/1999/xlink">
<g id="graph0" class="graph" transform="scale(1 1) rotate(0) translate(4 215)">
<title>Uptane::RepositoryCommon</title>
<polygon fill="white" stroke="none" points="-4,4 -4,-215 145,-215 145,4 -4,4"/>
<!-- Node3 -->
<g id="node1" class="node"><title>Node3</title>
<polygon fill="#bfbfbf" stroke="black" points="0,-0.5 0,-19.5 141,-19.5 141,-0.5 0,-0.5"/>
<text text-anchor="middle" x="70.5" y="-7.5" font-family="Helvetica,sans-Serif" font-size="10.00">Uptane::RepositoryCommon</text>
</g>
<!-- Node4 -->
<g id="node2" class="node"><title>Node4</title>
<g id="a_node2"><a xlink:href="class_uptane_1_1_root.html" target="_top" xlink:title="Uptane::Root">
<polygon fill="white" stroke="black" points="33,-67.5 33,-86.5 108,-86.5 108,-67.5 33,-67.5"/>
<text text-anchor="middle" x="70.5" y="-74.5" font-family="Helvetica,sans-Serif" font-size="10.00">Uptane::Root</text>
</a>
</g>
</g>
<!-- Node4&#45;&gt;Node3 -->
<g id="edge1" class="edge"><title>Node4&#45;&gt;Node3</title>
<path fill="none" stroke="#9a32cd" stroke-dasharray="5,2" d="M70.5,-57.037C70.5,-44.6703 70.5,-29.1198 70.5,-19.6273"/>
<polygon fill="#9a32cd" stroke="#9a32cd" points="67.0001,-57.2338 70.5,-67.2338 74.0001,-57.2338 67.0001,-57.2338"/>
<text text-anchor="middle" x="80.5" y="-41" font-family="Helvetica,sans-Serif" font-size="10.00"> root</text>
</g>
<!-- Node5 -->
<g id="node3" class="node"><title>Node5</title>
<g id="a_node3"><a xlink:href="class_uptane_1_1_base_meta.html" target="_top" xlink:title="Uptane::BaseMeta">
<polygon fill="white" stroke="black" points="21.5,-124.5 21.5,-143.5 119.5,-143.5 119.5,-124.5 21.5,-124.5"/>
<text text-anchor="middle" x="70.5" y="-131.5" font-family="Helvetica,sans-Serif" font-size="10.00">Uptane::BaseMeta</text>
</a>
</g>
</g>
<!-- Node5&#45;&gt;Node4 -->
<g id="edge2" class="edge"><title>Node5&#45;&gt;Node4</title>
<path fill="none" stroke="midnightblue" d="M70.5,-114.117C70.5,-104.817 70.5,-94.0557 70.5,-86.7149"/>
<polygon fill="midnightblue" stroke="midnightblue" points="67.0001,-114.406 70.5,-124.406 74.0001,-114.406 67.0001,-114.406"/>
</g>
<!-- Node6 -->
<g id="node4" class="node"><title>Node6</title>
<g id="a_node4"><a xlink:href="class_uptane_1_1_time_stamp.html" target="_top" xlink:title="Uptane::TimeStamp">
<polygon fill="white" stroke="black" points="18.5,-191.5 18.5,-210.5 122.5,-210.5 122.5,-191.5 18.5,-191.5"/>
<text text-anchor="middle" x="70.5" y="-198.5" font-family="Helvetica,sans-Serif" font-size="10.00">Uptane::TimeStamp</text>
</a>
</g>
</g>
<!-- Node6&#45;&gt;Node5 -->
<g id="edge3" class="edge"><title>Node6&#45;&gt;Node5</title>
<path fill="none" stroke="#9a32cd" stroke-dasharray="5,2" d="M70.5,-181.037C70.5,-168.67 70.5,-153.12 70.5,-143.627"/>
<polygon fill="#9a32cd" stroke="#9a32cd" points="67.0001,-181.234 70.5,-191.234 74.0001,-181.234 67.0001,-181.234"/>
<text text-anchor="middle" x="88" y="-165" font-family="Helvetica,sans-Serif" font-size="10.00"> expiry_</text>
</g>
</g>
</svg>
