<?xml version="1.0" encoding="UTF-8" standalone="no"?>
<!DOCTYPE svg PUBLIC "-//W3C//DTD SVG 1.1//EN"
 "http://www.w3.org/Graphics/SVG/1.1/DTD/svg11.dtd">
<!-- Generated by graphviz version 2.38.0 (20140413.2041)
 -->
<!-- Title: command::BaseCommand Pages: 1 -->
<svg width="141pt" height="163pt"
 viewBox="0.00 0.00 141.00 163.00" xmlns="http://www.w3.org/2000/svg" xmlns:xlink="http://www.w3.org/1999/xlink">
<g id="graph0" class="graph" transform="scale(1 1) rotate(0) translate(4 159)">
<title>command::BaseCommand</title>
<polygon fill="white" stroke="none" points="-4,4 -4,-159 137,-159 137,4 -4,4"/>
<!-- Node9 -->
<g id="node1" class="node"><title>Node9</title>
<polygon fill="#bfbfbf" stroke="black" points="0,-0.5 0,-19.5 133,-19.5 133,-0.5 0,-0.5"/>
<text text-anchor="middle" x="66.5" y="-7.5" font-family="Helvetica,sans-Serif" font-size="10.00">command::BaseCommand</text>
</g>
<!-- Node10 -->
<g id="node2" class="node"><title>Node10</title>
<g id="a_node2"><a xlink:title="STL class. ">
<polygon fill="white" stroke="#bfbfbf" points="36.5,-67.5 36.5,-86.5 96.5,-86.5 96.5,-67.5 36.5,-67.5"/>
<text text-anchor="middle" x="66.5" y="-74.5" font-family="Helvetica,sans-Serif" font-size="10.00">std::string</text>
</a>
</g>
</g>
<!-- Node10&#45;&gt;Node9 -->
<g id="edge1" class="edge"><title>Node10&#45;&gt;Node9</title>
<path fill="none" stroke="#9a32cd" stroke-dasharray="5,2" d="M66.5,-57.037C66.5,-44.6703 66.5,-29.1198 66.5,-19.6273"/>
<polygon fill="#9a32cd" stroke="#9a32cd" points="63.0001,-57.2338 66.5,-67.2338 70.0001,-57.2338 63.0001,-57.2338"/>
<text text-anchor="middle" x="83" y="-41" font-family="Helvetica,sans-Serif" font-size="10.00"> variant</text>
</g>
<!-- Node11 -->
<g id="node3" class="node"><title>Node11</title>
<g id="a_node3"><a xlink:title="STL class. ">
<polygon fill="white" stroke="#bfbfbf" points="19,-124.5 19,-154.5 114,-154.5 114,-124.5 19,-124.5"/>
<text text-anchor="start" x="27" y="-142.5" font-family="Helvetica,sans-Serif" font-size="10.00">std::basic_string&lt;</text>
<text text-anchor="middle" x="66.5" y="-131.5" font-family="Helvetica,sans-Serif" font-size="10.00"> char &gt;</text>
</a>
</g>
</g>
<!-- Node11&#45;&gt;Node10 -->
<g id="edge2" class="edge"><title>Node11&#45;&gt;Node10</title>
<path fill="none" stroke="midnightblue" d="M66.5,-114.352C66.5,-104.513 66.5,-93.7753 66.5,-86.5399"/>
<polygon fill="midnightblue" stroke="midnightblue" points="63.0001,-114.468 66.5,-124.468 70.0001,-114.468 63.0001,-114.468"/>
</g>
</g>
</svg>
