<?xml version="1.0" encoding="UTF-8" standalone="no"?>
<!DOCTYPE svg PUBLIC "-//W3C//DTD SVG 1.1//EN"
 "http://www.w3.org/Graphics/SVG/1.1/DTD/svg11.dtd">
<!-- Generated by graphviz version 2.38.0 (20140413.2041)
 -->
<!-- Title: Uptane::SecondaryConfig Pages: 1 -->
<svg width="148pt" height="207pt"
 viewBox="0.00 0.00 147.50 207.00" xmlns="http://www.w3.org/2000/svg" xmlns:xlink="http://www.w3.org/1999/xlink">
<g id="graph0" class="graph" transform="scale(1 1) rotate(0) translate(4 203)">
<title>Uptane::SecondaryConfig</title>
<polygon fill="white" stroke="none" points="-4,4 -4,-203 143.5,-203 143.5,4 -4,4"/>
<!-- Node1 -->
<g id="node1" class="node"><title>Node1</title>
<polygon fill="#bfbfbf" stroke="black" points="0,-0.5 0,-19.5 129,-19.5 129,-0.5 0,-0.5"/>
<text text-anchor="middle" x="64.5" y="-7.5" font-family="Helvetica,sans-Serif" font-size="10.00">Uptane::SecondaryConfig</text>
</g>
<!-- Node2 -->
<g id="node2" class="node"><title>Node2</title>
<g id="a_node2"><a xlink:title="STL class. ">
<polygon fill="white" stroke="#bfbfbf" points="34.5,-111.5 34.5,-130.5 94.5,-130.5 94.5,-111.5 34.5,-111.5"/>
<text text-anchor="middle" x="64.5" y="-118.5" font-family="Helvetica,sans-Serif" font-size="10.00">std::string</text>
</a>
</g>
</g>
<!-- Node2&#45;&gt;Node1 -->
<g id="edge1" class="edge"><title>Node2&#45;&gt;Node1</title>
<path fill="none" stroke="#9a32cd" stroke-dasharray="5,2" d="M64.5,-101.193C64.5,-77.2756 64.5,-36.9893 64.5,-19.5133"/>
<polygon fill="#9a32cd" stroke="#9a32cd" points="61.0001,-101.447 64.5,-111.447 68.0001,-101.447 61.0001,-101.447"/>
<text text-anchor="middle" x="102" y="-85" font-family="Helvetica,sans-Serif" font-size="10.00"> ecu_private_key</text>
<text text-anchor="middle" x="102" y="-74" font-family="Helvetica,sans-Serif" font-size="10.00">ecu_hardware_id</text>
<text text-anchor="middle" x="102" y="-63" font-family="Helvetica,sans-Serif" font-size="10.00">ecu_serial</text>
<text text-anchor="middle" x="102" y="-52" font-family="Helvetica,sans-Serif" font-size="10.00">opcua_lds_url</text>
<text text-anchor="middle" x="102" y="-41" font-family="Helvetica,sans-Serif" font-size="10.00">ecu_public_key</text>
</g>
<!-- Node3 -->
<g id="node3" class="node"><title>Node3</title>
<g id="a_node3"><a xlink:title="STL class. ">
<polygon fill="white" stroke="#bfbfbf" points="17,-168.5 17,-198.5 112,-198.5 112,-168.5 17,-168.5"/>
<text text-anchor="start" x="25" y="-186.5" font-family="Helvetica,sans-Serif" font-size="10.00">std::basic_string&lt;</text>
<text text-anchor="middle" x="64.5" y="-175.5" font-family="Helvetica,sans-Serif" font-size="10.00"> char &gt;</text>
</a>
</g>
</g>
<!-- Node3&#45;&gt;Node2 -->
<g id="edge2" class="edge"><title>Node3&#45;&gt;Node2</title>
<path fill="none" stroke="midnightblue" d="M64.5,-158.352C64.5,-148.513 64.5,-137.775 64.5,-130.54"/>
<polygon fill="midnightblue" stroke="midnightblue" points="61.0001,-158.468 64.5,-168.468 68.0001,-158.468 61.0001,-158.468"/>
</g>
</g>
</svg>
