<?xml version="1.0" encoding="UTF-8" standalone="no"?>
<!DOCTYPE svg PUBLIC "-//W3C//DTD SVG 1.1//EN"
 "http://www.w3.org/Graphics/SVG/1.1/DTD/svg11.dtd">
<!-- Generated by graphviz version 2.38.0 (20140413.2041)
 -->
<!-- Title: opcuabridge::FileList Pages: 1 -->
<svg width="506pt" height="148pt"
 viewBox="0.00 0.00 506.00 148.00" xmlns="http://www.w3.org/2000/svg" xmlns:xlink="http://www.w3.org/1999/xlink">
<g id="graph0" class="graph" transform="scale(1 1) rotate(0) translate(4 144)">
<title>opcuabridge::FileList</title>
<polygon fill="white" stroke="none" points="-4,4 -4,-144 502,-144 502,4 -4,4"/>
<!-- Node1 -->
<g id="node1" class="node"><title>Node1</title>
<polygon fill="#bfbfbf" stroke="black" points="391,-49.5 391,-68.5 498,-68.5 498,-49.5 391,-49.5"/>
<text text-anchor="middle" x="444.5" y="-56.5" font-family="Helvetica,sans-Serif" font-size="10.00">opcuabridge::FileList</text>
</g>
<!-- Node2 -->
<g id="node2" class="node"><title>Node2</title>
<g id="a_node2"><a xlink:href="structopcuabridge_1_1_message_on_before_read_callback.html" target="_top" xlink:title="opcuabridge::MessageOnBefore\lReadCallback\&lt; opcuabridge\l::FileList \&gt;">
<polygon fill="white" stroke="black" points="108,-98.5 108,-139.5 264,-139.5 264,-98.5 108,-98.5"/>
<text text-anchor="start" x="116" y="-127.5" font-family="Helvetica,sans-Serif" font-size="10.00">opcuabridge::MessageOnBefore</text>
<text text-anchor="start" x="116" y="-116.5" font-family="Helvetica,sans-Serif" font-size="10.00">ReadCallback&lt; opcuabridge</text>
<text text-anchor="middle" x="186" y="-105.5" font-family="Helvetica,sans-Serif" font-size="10.00">::FileList &gt;</text>
</a>
</g>
</g>
<!-- Node2&#45;&gt;Node1 -->
<g id="edge1" class="edge"><title>Node2&#45;&gt;Node1</title>
<path fill="none" stroke="#9a32cd" stroke-dasharray="5,2" d="M274.063,-98.6344C317.645,-88.4397 368.327,-76.5843 402.825,-68.5146"/>
<polygon fill="#9a32cd" stroke="#9a32cd" points="273.246,-95.2309 264.306,-100.917 274.841,-102.047 273.246,-95.2309"/>
<text text-anchor="middle" x="327.5" y="-99" font-family="Helvetica,sans-Serif" font-size="10.00"> on_before_read_cb_</text>
</g>
<!-- Node3 -->
<g id="node3" class="node"><title>Node3</title>
<g id="a_node3"><a xlink:href="structopcuabridge_1_1_message_on_after_write_callback.html" target="_top" xlink:title="opcuabridge::MessageOnAfter\lWriteCallback\&lt; opcuabridge\l::FileList \&gt;">
<polygon fill="white" stroke="black" points="111.5,-38.5 111.5,-79.5 260.5,-79.5 260.5,-38.5 111.5,-38.5"/>
<text text-anchor="start" x="119.5" y="-67.5" font-family="Helvetica,sans-Serif" font-size="10.00">opcuabridge::MessageOnAfter</text>
<text text-anchor="start" x="119.5" y="-56.5" font-family="Helvetica,sans-Serif" font-size="10.00">WriteCallback&lt; opcuabridge</text>
<text text-anchor="middle" x="186" y="-45.5" font-family="Helvetica,sans-Serif" font-size="10.00">::FileList &gt;</text>
</a>
</g>
</g>
<!-- Node3&#45;&gt;Node1 -->
<g id="edge2" class="edge"><title>Node3&#45;&gt;Node1</title>
<path fill="none" stroke="#9a32cd" stroke-dasharray="5,2" d="M270.666,-59C310.192,-59 356.171,-59 390.765,-59"/>
<polygon fill="#9a32cd" stroke="#9a32cd" points="270.503,-55.5001 260.503,-59 270.503,-62.5001 270.503,-55.5001"/>
<text text-anchor="middle" x="327.5" y="-62" font-family="Helvetica,sans-Serif" font-size="10.00"> on_after_write_cb_</text>
</g>
<!-- Node4 -->
<g id="node4" class="node"><title>Node4</title>
<g id="a_node4"><a xlink:title="STL class. ">
<polygon fill="white" stroke="#bfbfbf" points="142.5,-0.5 142.5,-19.5 229.5,-19.5 229.5,-0.5 142.5,-0.5"/>
<text text-anchor="middle" x="186" y="-7.5" font-family="Helvetica,sans-Serif" font-size="10.00">std::vector&lt; T &gt;</text>
</a>
</g>
</g>
<!-- Node4&#45;&gt;Node1 -->
<g id="edge3" class="edge"><title>Node4&#45;&gt;Node1</title>
<path fill="none" stroke="#9a32cd" stroke-dasharray="5,2" d="M239.675,-19.2112C276.959,-25.8331 328.111,-35.1236 373,-44 381.593,-45.6992 390.758,-47.5906 399.54,-49.4422"/>
<polygon fill="#9a32cd" stroke="#9a32cd" points="240,-15.7145 229.543,-17.4168 238.779,-22.6072 240,-15.7145"/>
<text text-anchor="middle" x="327.5" y="-47" font-family="Helvetica,sans-Serif" font-size="10.00"> block_</text>
</g>
<!-- Node5 -->
<g id="node5" class="node"><title>Node5</title>
<polygon fill="white" stroke="#bfbfbf" points="0,-0.5 0,-19.5 29,-19.5 29,-0.5 0,-0.5"/>
<text text-anchor="middle" x="14.5" y="-7.5" font-family="Helvetica,sans-Serif" font-size="10.00">T</text>
</g>
<!-- Node5&#45;&gt;Node4 -->
<g id="edge4" class="edge"><title>Node5&#45;&gt;Node4</title>
<path fill="none" stroke="#9a32cd" stroke-dasharray="5,2" d="M39.3938,-10C66.0727,-10 109.776,-10 142.354,-10"/>
<polygon fill="#9a32cd" stroke="#9a32cd" points="39.0844,-6.5001 29.0844,-10 39.0843,-13.5001 39.0844,-6.5001"/>
<text text-anchor="middle" x="68.5" y="-13" font-family="Helvetica,sans-Serif" font-size="10.00"> elements</text>
</g>
</g>
</svg>
