<?xml version="1.0" encoding="UTF-8" standalone="no"?>
<!DOCTYPE svg PUBLIC "-//W3C//DTD SVG 1.1//EN"
 "http://www.w3.org/Graphics/SVG/1.1/DTD/svg11.dtd">
<!-- Generated by graphviz version 2.38.0 (20140413.2041)
 -->
<!-- Title: ECUInterface Pages: 1 -->
<svg width="210pt" height="84pt"
 viewBox="0.00 0.00 209.50 84.00" xmlns="http://www.w3.org/2000/svg" xmlns:xlink="http://www.w3.org/1999/xlink">
<g id="graph0" class="graph" transform="scale(1 1) rotate(0) translate(4 80)">
<title>ECUInterface</title>
<polygon fill="white" stroke="none" points="-4,4 -4,-80 205.5,-80 205.5,4 -4,4"/>
<!-- Node0 -->
<g id="node1" class="node"><title>Node0</title>
<polygon fill="#bfbfbf" stroke="black" points="60,-56.5 60,-75.5 137,-75.5 137,-56.5 60,-56.5"/>
<text text-anchor="middle" x="98.5" y="-63.5" font-family="Helvetica,sans-Serif" font-size="10.00">ECUInterface</text>
</g>
<!-- Node1 -->
<g id="node2" class="node"><title>Node1</title>
<g id="a_node2"><a xlink:href="class_example_flasher.html" target="_top" xlink:title="ExampleFlasher">
<polygon fill="white" stroke="black" points="0,-0.5 0,-19.5 87,-19.5 87,-0.5 0,-0.5"/>
<text text-anchor="middle" x="43.5" y="-7.5" font-family="Helvetica,sans-Serif" font-size="10.00">ExampleFlasher</text>
</a>
</g>
</g>
<!-- Node0&#45;&gt;Node1 -->
<g id="edge1" class="edge"><title>Node0&#45;&gt;Node1</title>
<path fill="none" stroke="midnightblue" d="M82.2062,-49.0024C72.4594,-39.4329 60.447,-27.6389 52.4131,-19.7511"/>
<polygon fill="midnightblue" stroke="midnightblue" points="79.8301,-51.5746 89.4179,-56.083 84.7343,-46.5796 79.8301,-51.5746"/>
</g>
<!-- Node2 -->
<g id="node3" class="node"><title>Node2</title>
<g id="a_node3"><a xlink:href="class_test_isotp_interface.html" target="_top" xlink:title="TestIsotpInterface">
<polygon fill="white" stroke="black" points="105.5,-0.5 105.5,-19.5 201.5,-19.5 201.5,-0.5 105.5,-0.5"/>
<text text-anchor="middle" x="153.5" y="-7.5" font-family="Helvetica,sans-Serif" font-size="10.00">TestIsotpInterface</text>
</a>
</g>
</g>
<!-- Node0&#45;&gt;Node2 -->
<g id="edge2" class="edge"><title>Node0&#45;&gt;Node2</title>
<path fill="none" stroke="midnightblue" d="M114.794,-49.0024C124.541,-39.4329 136.553,-27.6389 144.587,-19.7511"/>
<polygon fill="midnightblue" stroke="midnightblue" points="112.266,-46.5796 107.582,-56.083 117.17,-51.5746 112.266,-46.5796"/>
</g>
</g>
</svg>
