<?xml version="1.0" encoding="UTF-8" standalone="no"?>
<!DOCTYPE svg PUBLIC "-//W3C//DTD SVG 1.1//EN"
 "http://www.w3.org/Graphics/SVG/1.1/DTD/svg11.dtd">
<!-- Generated by graphviz version 2.40.1 (20161225.0304)
 -->
<!-- Title: event::BaseEvent Pages: 1 -->
<!--zoomable 522 -->
<svg id="main" version="1.1" xmlns="http://www.w3.org/2000/svg" xmlns:xlink="http://www.w3.org/1999/xlink" xml:space="preserve" onload="init(evt)">
<style type="text/css"><![CDATA[
.edge:hover path { stroke: red; }
.edge:hover polygon { stroke: red; fill: red; }
]]></style>
<script type="text/javascript"><![CDATA[
var edges = document.getElementsByTagName('g');
if (edges && edges.length) {
  for (var i=0;i<edges.length;i++) {
    if (edges[i].id.substr(0,4)=='edge') {
      edges[i].setAttribute('class','edge');
    }
  }
}
]]></script>
        <defs>
                <circle id="rim" cx="0" cy="0" r="7"/>
                <circle id="rim2" cx="0" cy="0" r="3.5"/>
                <g id="zoomPlus">
                        <use xlink:href="#rim" fill="#404040">
                                <set attributeName="fill" to="#808080" begin="zoomplus.mouseover" end="zoomplus.mouseout"/>
                        </use>
                        <path d="M-4,0h8M0,-4v8" fill="none" stroke="white" stroke-width="1.5" pointer-events="none"/>
                </g>
                <g id="zoomMin">
                        <use xlink:href="#rim" fill="#404040">
                                <set attributeName="fill" to="#808080" begin="zoomminus.mouseover" end="zoomminus.mouseout"/>
                        </use>
                        <path d="M-4,0h8" fill="none" stroke="white" stroke-width="1.5" pointer-events="none"/>
                </g>
                <g id="dirArrow">
                        <path fill="none" stroke="white" stroke-width="1.5" d="M0,-3.0v7 M-2.5,-0.5L0,-3.0L2.5,-0.5"/>
                </g>
               <g id="resetDef">
                       <use xlink:href="#rim2" fill="#404040">
                               <set attributeName="fill" to="#808080" begin="reset.mouseover" end="reset.mouseout"/>
                       </use>
               </g>
        </defs>

<script type="text/javascript">
var viewWidth = 303;
var viewHeight = 522;
var sectionId = 'dynsection-0';
</script>
<script xlink:href="svgpan.js"/>
<svg id="graph" class="graph">
<g id="viewport">
<title>event::BaseEvent</title>
<polygon fill="#ffffff" stroke="transparent" points="-4,4 -4,-518 299,-518 299,4 -4,4"/>
<!-- Node0 -->
<g id="node1" class="node">
<title>Node0</title>
<polygon fill="#bfbfbf" stroke="#000000" points="0,-247.5 0,-266.5 95,-266.5 95,-247.5 0,-247.5"/>
<text text-anchor="middle" x="47.5" y="-254.5" font-family="Helvetica,sans-Serif" font-size="10.00" fill="#000000">event::BaseEvent</text>
</g>
<!-- Node1 -->
<g id="node2" class="node">
<title>Node1</title>
<g id="a_node2"><a xlink:href="classevent_1_1_all_installs_complete.html" target="_top" xlink:title="All ECU update attempts have completed. ">
<polygon fill="#ffffff" stroke="#000000" points="147.5,-494.5 147.5,-513.5 278.5,-513.5 278.5,-494.5 147.5,-494.5"/>
<text text-anchor="middle" x="213" y="-501.5" font-family="Helvetica,sans-Serif" font-size="10.00" fill="#000000">event::AllInstallsComplete</text>
</a>
</g>
</g>
<!-- Node0&#45;&gt;Node1 -->
<g id="edge1" class="edge">
<title>Node0&#45;&gt;Node1</title>
<path fill="none" stroke="#191970" d="M48.6393,-276.5823C52.3123,-320.8301 67.6516,-429.0216 131,-485 135.8182,-489.2577 141.4025,-492.613 147.3473,-495.2505"/>
<polygon fill="#191970" stroke="#191970" points="52.1268,-276.2817 47.9213,-266.5573 45.1447,-276.7818 52.1268,-276.2817"/>
</g>
<!-- Node2 -->
<g id="node3" class="node">
<title>Node2</title>
<g id="a_node3"><a xlink:href="classevent_1_1_campaign_accept_complete.html" target="_top" xlink:title="A campaign has been successfully accepted. ">
<polygon fill="#ffffff" stroke="#000000" points="131,-456.5 131,-475.5 295,-475.5 295,-456.5 131,-456.5"/>
<text text-anchor="middle" x="213" y="-463.5" font-family="Helvetica,sans-Serif" font-size="10.00" fill="#000000">event::CampaignAcceptComplete</text>
</a>
</g>
</g>
<!-- Node0&#45;&gt;Node2 -->
<g id="edge2" class="edge">
<title>Node0&#45;&gt;Node2</title>
<path fill="none" stroke="#191970" d="M50.2731,-276.7195C56.822,-315.5901 76.9737,-402.2091 131,-447 135.6124,-450.824 140.8508,-453.9104 146.3962,-456.3975"/>
<polygon fill="#191970" stroke="#191970" points="53.7085,-276.0331 48.7119,-266.6905 46.7918,-277.1098 53.7085,-276.0331"/>
</g>
<!-- Node3 -->
<g id="node4" class="node">
<title>Node3</title>
<g id="a_node4"><a xlink:href="classevent_1_1_campaign_check_complete.html" target="_top" xlink:title="The server has been successfully queried for available campaigns. ">
<polygon fill="#ffffff" stroke="#000000" points="132.5,-418.5 132.5,-437.5 293.5,-437.5 293.5,-418.5 132.5,-418.5"/>
<text text-anchor="middle" x="213" y="-425.5" font-family="Helvetica,sans-Serif" font-size="10.00" fill="#000000">event::CampaignCheckComplete</text>
</a>
</g>
</g>
<!-- Node0&#45;&gt;Node3 -->
<g id="edge3" class="edge">
<title>Node0&#45;&gt;Node3</title>
<path fill="none" stroke="#191970" d="M52.5269,-276.3619C62.0515,-309.032 85.9269,-374.8721 131,-409 136.1262,-412.8814 141.9126,-415.9898 147.9809,-418.4764"/>
<polygon fill="#191970" stroke="#191970" points="55.8788,-275.3512 49.8371,-266.6479 49.1326,-277.2192 55.8788,-275.3512"/>
</g>
<!-- Node4 -->
<g id="node5" class="node">
<title>Node4</title>
<g id="a_node5"><a xlink:href="classevent_1_1_download_complete.html" target="_top" xlink:title="An update has been successfully downloaded. ">
<polygon fill="#ffffff" stroke="#000000" points="147,-380.5 147,-399.5 279,-399.5 279,-380.5 147,-380.5"/>
<text text-anchor="middle" x="213" y="-387.5" font-family="Helvetica,sans-Serif" font-size="10.00" fill="#000000">event::DownloadComplete</text>
</a>
</g>
</g>
<!-- Node0&#45;&gt;Node4 -->
<g id="edge4" class="edge">
<title>Node0&#45;&gt;Node4</title>
<path fill="none" stroke="#191970" d="M55.9971,-275.8435C68.5815,-301.5171 94.6622,-347.0285 131,-371 136.8551,-374.8625 143.3974,-377.9446 150.1632,-380.403"/>
<polygon fill="#191970" stroke="#191970" points="59.144,-274.3106 51.7067,-266.7649 52.8151,-277.3016 59.144,-274.3106"/>
</g>
<!-- Node5 -->
<g id="node6" class="node">
<title>Node5</title>
<g id="a_node6"><a xlink:href="classevent_1_1_download_progress_report.html" target="_top" xlink:title="A report for a download in progress. ">
<polygon fill="#ffffff" stroke="#000000" points="134,-342.5 134,-361.5 292,-361.5 292,-342.5 134,-342.5"/>
<text text-anchor="middle" x="213" y="-349.5" font-family="Helvetica,sans-Serif" font-size="10.00" fill="#000000">event::DownloadProgressReport</text>
</a>
</g>
</g>
<!-- Node0&#45;&gt;Node5 -->
<g id="edge5" class="edge">
<title>Node0&#45;&gt;Node5</title>
<path fill="none" stroke="#191970" d="M61.7557,-274.3913C77.0504,-291.8769 102.9539,-318.29 131,-333 138.3765,-336.8689 146.5334,-339.9569 154.7574,-342.4199"/>
<polygon fill="#191970" stroke="#191970" points="64.2836,-271.9614 55.1366,-266.615 58.9531,-276.4986 64.2836,-271.9614"/>
</g>
<!-- Node6 -->
<g id="node7" class="node">
<title>Node6</title>
<g id="a_node7"><a xlink:href="classevent_1_1_error.html" target="_top" xlink:title="An error occurred processing a command. ">
<polygon fill="#ffffff" stroke="#000000" points="179,-304.5 179,-323.5 247,-323.5 247,-304.5 179,-304.5"/>
<text text-anchor="middle" x="213" y="-311.5" font-family="Helvetica,sans-Serif" font-size="10.00" fill="#000000">event::Error</text>
</a>
</g>
</g>
<!-- Node0&#45;&gt;Node6 -->
<g id="edge6" class="edge">
<title>Node0&#45;&gt;Node6</title>
<path fill="none" stroke="#191970" d="M74.9486,-271.1697C90.974,-279.0139 111.7668,-288.4683 131,-295 146.3592,-300.2161 163.8154,-304.4809 178.6625,-307.6387"/>
<polygon fill="#191970" stroke="#191970" points="76.1547,-267.8603 65.6432,-266.5342 73.0334,-274.1259 76.1547,-267.8603"/>
</g>
<!-- Node7 -->
<g id="node8" class="node">
<title>Node7</title>
<g id="a_node8"><a xlink:href="classevent_1_1_fetch_meta_complete.html" target="_top" xlink:title="Metadata has been successfully fetched from the server. ">
<polygon fill="#ffffff" stroke="#000000" points="145.5,-266.5 145.5,-285.5 280.5,-285.5 280.5,-266.5 145.5,-266.5"/>
<text text-anchor="middle" x="213" y="-273.5" font-family="Helvetica,sans-Serif" font-size="10.00" fill="#000000">event::FetchMetaComplete</text>
</a>
</g>
</g>
<!-- Node0&#45;&gt;Node7 -->
<g id="edge7" class="edge">
<title>Node0&#45;&gt;Node7</title>
<path fill="none" stroke="#191970" d="M105.4586,-263.6539C118.3073,-265.1289 132.0345,-266.7049 145.2353,-268.2204"/>
<polygon fill="#191970" stroke="#191970" points="105.7034,-260.1591 95.3695,-262.4956 104.905,-267.1134 105.7034,-260.1591"/>
</g>
<!-- Node8 -->
<g id="node9" class="node">
<title>Node8</title>
<g id="a_node9"><a xlink:href="classevent_1_1_install_complete.html" target="_top" xlink:title="An update attempt on an ECU is finished. ">
<polygon fill="#ffffff" stroke="#000000" points="155.5,-228.5 155.5,-247.5 270.5,-247.5 270.5,-228.5 155.5,-228.5"/>
<text text-anchor="middle" x="213" y="-235.5" font-family="Helvetica,sans-Serif" font-size="10.00" fill="#000000">event::InstallComplete</text>
</a>
</g>
</g>
<!-- Node0&#45;&gt;Node8 -->
<g id="edge8" class="edge">
<title>Node0&#45;&gt;Node8</title>
<path fill="none" stroke="#191970" d="M105.7093,-250.3174C121.7852,-248.4718 139.2199,-246.4702 155.2686,-244.6278"/>
<polygon fill="#191970" stroke="#191970" points="104.905,-246.8866 95.3695,-251.5044 105.7034,-253.8409 104.905,-246.8866"/>
</g>
<!-- Node9 -->
<g id="node10" class="node">
<title>Node9</title>
<g id="a_node10"><a xlink:href="classevent_1_1_install_started.html" target="_top" xlink:title="An ECU has begun installation of an update. ">
<polygon fill="#ffffff" stroke="#000000" points="161,-190.5 161,-209.5 265,-209.5 265,-190.5 161,-190.5"/>
<text text-anchor="middle" x="213" y="-197.5" font-family="Helvetica,sans-Serif" font-size="10.00" fill="#000000">event::InstallStarted</text>
</a>
</g>
</g>
<!-- Node0&#45;&gt;Node9 -->
<g id="edge9" class="edge">
<title>Node0&#45;&gt;Node9</title>
<path fill="none" stroke="#191970" d="M74.9486,-242.8303C90.974,-234.9861 111.7668,-225.5317 131,-219 141.6546,-215.3817 153.3182,-212.2211 164.4201,-209.5702"/>
<polygon fill="#191970" stroke="#191970" points="73.0334,-239.8741 65.6432,-247.4658 76.1547,-246.1397 73.0334,-239.8741"/>
</g>
<!-- Node10 -->
<g id="node11" class="node">
<title>Node10</title>
<g id="a_node11"><a xlink:href="classevent_1_1_nothing_to_download.html" target="_top" xlink:title="Nothing to download from the server. ">
<polygon fill="#ffffff" stroke="#000000" points="145.5,-152.5 145.5,-171.5 280.5,-171.5 280.5,-152.5 145.5,-152.5"/>
<text text-anchor="middle" x="213" y="-159.5" font-family="Helvetica,sans-Serif" font-size="10.00" fill="#000000">event::NothingToDownload</text>
</a>
</g>
</g>
<!-- Node0&#45;&gt;Node10 -->
<g id="edge10" class="edge">
<title>Node0&#45;&gt;Node10</title>
<path fill="none" stroke="#191970" d="M61.7557,-239.6087C77.0504,-222.1231 102.9539,-195.71 131,-181 138.3765,-177.1311 146.5334,-174.0431 154.7574,-171.5801"/>
<polygon fill="#191970" stroke="#191970" points="58.9531,-237.5014 55.1366,-247.385 64.2836,-242.0386 58.9531,-237.5014"/>
</g>
<!-- Node11 -->
<g id="node12" class="node">
<title>Node11</title>
<g id="a_node12"><a xlink:href="classevent_1_1_no_update_available.html" target="_top" xlink:title="No update is available for download from the server. ">
<polygon fill="#ffffff" stroke="#000000" points="147.5,-114.5 147.5,-133.5 278.5,-133.5 278.5,-114.5 147.5,-114.5"/>
<text text-anchor="middle" x="213" y="-121.5" font-family="Helvetica,sans-Serif" font-size="10.00" fill="#000000">event::NoUpdateAvailable</text>
</a>
</g>
</g>
<!-- Node0&#45;&gt;Node11 -->
<g id="edge11" class="edge">
<title>Node0&#45;&gt;Node11</title>
<path fill="none" stroke="#191970" d="M55.9971,-238.1565C68.5815,-212.4829 94.6622,-166.9715 131,-143 136.8551,-139.1375 143.3974,-136.0554 150.1632,-133.597"/>
<polygon fill="#191970" stroke="#191970" points="52.8151,-236.6984 51.7067,-247.2351 59.144,-239.6894 52.8151,-236.6984"/>
</g>
<!-- Node12 -->
<g id="node13" class="node">
<title>Node12</title>
<g id="a_node13"><a xlink:href="classevent_1_1_put_manifest_complete.html" target="_top" xlink:title="A manifest has been successfully sent to the server. ">
<polygon fill="#ffffff" stroke="#000000" points="142.5,-76.5 142.5,-95.5 283.5,-95.5 283.5,-76.5 142.5,-76.5"/>
<text text-anchor="middle" x="213" y="-83.5" font-family="Helvetica,sans-Serif" font-size="10.00" fill="#000000">event::PutManifestComplete</text>
</a>
</g>
</g>
<!-- Node0&#45;&gt;Node12 -->
<g id="edge12" class="edge">
<title>Node0&#45;&gt;Node12</title>
<path fill="none" stroke="#191970" d="M52.5269,-237.6381C62.0515,-204.968 85.9269,-139.1279 131,-105 136.1262,-101.1186 141.9126,-98.0102 147.9809,-95.5236"/>
<polygon fill="#191970" stroke="#191970" points="49.1326,-236.7808 49.8371,-247.3521 55.8788,-238.6488 49.1326,-236.7808"/>
</g>
<!-- Node13 -->
<g id="node14" class="node">
<title>Node13</title>
<g id="a_node14"><a xlink:href="classevent_1_1_send_device_data_complete.html" target="_top" xlink:title="Device data has been successfully sent to the server. ">
<polygon fill="#ffffff" stroke="#000000" points="131.5,-38.5 131.5,-57.5 294.5,-57.5 294.5,-38.5 131.5,-38.5"/>
<text text-anchor="middle" x="213" y="-45.5" font-family="Helvetica,sans-Serif" font-size="10.00" fill="#000000">event::SendDeviceDataComplete</text>
</a>
</g>
</g>
<!-- Node0&#45;&gt;Node13 -->
<g id="edge13" class="edge">
<title>Node0&#45;&gt;Node13</title>
<path fill="none" stroke="#191970" d="M50.2731,-237.2805C56.822,-198.4099 76.9737,-111.7909 131,-67 135.6124,-63.176 140.8508,-60.0896 146.3962,-57.6025"/>
<polygon fill="#191970" stroke="#191970" points="46.7918,-236.8902 48.7119,-247.3095 53.7085,-237.9669 46.7918,-236.8902"/>
</g>
<!-- Node14 -->
<g id="node15" class="node">
<title>Node14</title>
<g id="a_node15"><a xlink:href="classevent_1_1_update_available.html" target="_top" xlink:title="An update is available for download from the server. ">
<polygon fill="#ffffff" stroke="#000000" points="154,-.5 154,-19.5 272,-19.5 272,-.5 154,-.5"/>
<text text-anchor="middle" x="213" y="-7.5" font-family="Helvetica,sans-Serif" font-size="10.00" fill="#000000">event::UpdateAvailable</text>
</a>
</g>
</g>
<!-- Node0&#45;&gt;Node14 -->
<g id="edge14" class="edge">
<title>Node0&#45;&gt;Node14</title>
<path fill="none" stroke="#191970" d="M48.6393,-237.4177C52.3123,-193.1699 67.6516,-84.9784 131,-29 137.5703,-23.1941 145.5651,-19.066 153.9559,-16.1482"/>
<polygon fill="#191970" stroke="#191970" points="45.1447,-237.2182 47.9213,-247.4427 52.1268,-237.7183 45.1447,-237.2182"/>
</g>
</g>
</svg>
        <g id="navigator" transform="translate(0 0)" fill="#404254">
                <rect fill="#f2f5e9" fill-opacity="0.5" stroke="#606060" stroke-width=".5" x="0" y="0" width="60" height="60"/>
                <use id="zoomplus" xlink:href="#zoomPlus" x="17" y="9" onmousedown="handleZoom(evt,'in')"/>
                <use id="zoomminus" xlink:href="#zoomMin" x="42" y="9" onmousedown="handleZoom(evt,'out')"/>
                <use id="reset" xlink:href="#resetDef" x="30" y="36" onmousedown="handleReset()"/>
                <g id="arrowUp" xlink:href="#dirArrow" transform="translate(30 24)" onmousedown="handlePan(0,-1)">
                  <use xlink:href="#rim" fill="#404040">
                        <set attributeName="fill" to="#808080" begin="arrowUp.mouseover" end="arrowUp.mouseout"/>
                  </use>
                  <path fill="none" stroke="white" stroke-width="1.5" d="M0,-3.0v7 M-2.5,-0.5L0,-3.0L2.5,-0.5"/>
                </g>
                <g id="arrowRight" xlink:href="#dirArrow" transform="rotate(90) translate(36 -43)" onmousedown="handlePan(1,0)">
                  <use xlink:href="#rim" fill="#404040">
                        <set attributeName="fill" to="#808080" begin="arrowRight.mouseover" end="arrowRight.mouseout"/>
                  </use>
                  <path fill="none" stroke="white" stroke-width="1.5" d="M0,-3.0v7 M-2.5,-0.5L0,-3.0L2.5,-0.5"/>
                </g>
                <g id="arrowDown" xlink:href="#dirArrow" transform="rotate(180) translate(-30 -48)" onmousedown="handlePan(0,1)">
                  <use xlink:href="#rim" fill="#404040">
                        <set attributeName="fill" to="#808080" begin="arrowDown.mouseover" end="arrowDown.mouseout"/>
                  </use>
                  <path fill="none" stroke="white" stroke-width="1.5" d="M0,-3.0v7 M-2.5,-0.5L0,-3.0L2.5,-0.5"/>
                </g>
                <g id="arrowLeft" xlink:href="#dirArrow" transform="rotate(270) translate(-36 17)" onmousedown="handlePan(-1,0)">
                  <use xlink:href="#rim" fill="#404040">
                        <set attributeName="fill" to="#808080" begin="arrowLeft.mouseover" end="arrowLeft.mouseout"/>
                  </use>
                  <path fill="none" stroke="white" stroke-width="1.5" d="M0,-3.0v7 M-2.5,-0.5L0,-3.0L2.5,-0.5"/>
                </g>
        </g>
        <svg viewBox="0 0 15 15" width="100%" height="30px" preserveAspectRatio="xMaxYMin meet">
         <g id="arrow_out" transform="scale(0.3 0.3)">
          <a xlink:href="classevent_1_1_base_event__inherit__graph_org.svg" target="_base">
           <rect id="button" ry="5" rx="5" y="6" x="6" height="38" width="38"
                fill="#f2f5e9" fill-opacity="0.5" stroke="#606060" stroke-width="1.0"/>
           <path id="arrow"
             d="M 11.500037,31.436501 C 11.940474,20.09759 22.043105,11.32322 32.158766,21.979434 L 37.068811,17.246167 C 37.068811,17.246167 37.088388,32 37.088388,32 L 22.160133,31.978069 C 22.160133,31.978069 26.997745,27.140456 26.997745,27.140456 C 18.528582,18.264221 13.291696,25.230495 11.500037,31.436501 z"
             style="fill:#404040;"/>
          </a>
         </g>
        </svg>
</svg>
