<?xml version="1.0" encoding="UTF-8" standalone="no"?>
<!DOCTYPE svg PUBLIC "-//W3C//DTD SVG 1.1//EN"
 "http://www.w3.org/Graphics/SVG/1.1/DTD/svg11.dtd">
<!-- Generated by graphviz version 2.38.0 (20140413.2041)
 -->
<!-- Title: Uptane::IpUptaneSecondary Pages: 1 -->
<svg width="153pt" height="331pt"
 viewBox="0.00 0.00 153.00 331.00" xmlns="http://www.w3.org/2000/svg" xmlns:xlink="http://www.w3.org/1999/xlink">
<g id="graph0" class="graph" transform="scale(1 1) rotate(0) translate(4 327)">
<title>Uptane::IpUptaneSecondary</title>
<polygon fill="white" stroke="none" points="-4,4 -4,-327 149,-327 149,4 -4,4"/>
<!-- Node2 -->
<g id="node1" class="node"><title>Node2</title>
<polygon fill="#bfbfbf" stroke="black" points="0,-0.5 0,-19.5 140,-19.5 140,-0.5 0,-0.5"/>
<text text-anchor="middle" x="70" y="-7.5" font-family="Helvetica,sans-Serif" font-size="10.00">Uptane::IpUptaneSecondary</text>
</g>
<!-- Node3 -->
<g id="node2" class="node"><title>Node3</title>
<g id="a_node2"><a xlink:href="class_uptane_1_1_secondary_interface.html" target="_top" xlink:title="Uptane::SecondaryInterface">
<polygon fill="white" stroke="black" points="0.5,-57.5 0.5,-76.5 139.5,-76.5 139.5,-57.5 0.5,-57.5"/>
<text text-anchor="middle" x="70" y="-64.5" font-family="Helvetica,sans-Serif" font-size="10.00">Uptane::SecondaryInterface</text>
</a>
</g>
</g>
<!-- Node3&#45;&gt;Node2 -->
<g id="edge1" class="edge"><title>Node3&#45;&gt;Node2</title>
<path fill="none" stroke="midnightblue" d="M70,-47.1166C70,-37.8173 70,-27.0557 70,-19.7149"/>
<polygon fill="midnightblue" stroke="midnightblue" points="66.5001,-47.4062 70,-57.4062 73.5001,-47.4063 66.5001,-47.4062"/>
</g>
<!-- Node4 -->
<g id="node3" class="node"><title>Node4</title>
<g id="a_node3"><a xlink:href="class_uptane_1_1_secondary_config.html" target="_top" xlink:title="Uptane::SecondaryConfig">
<polygon fill="white" stroke="black" points="5.5,-124.5 5.5,-143.5 134.5,-143.5 134.5,-124.5 5.5,-124.5"/>
<text text-anchor="middle" x="70" y="-131.5" font-family="Helvetica,sans-Serif" font-size="10.00">Uptane::SecondaryConfig</text>
</a>
</g>
</g>
<!-- Node4&#45;&gt;Node3 -->
<g id="edge2" class="edge"><title>Node4&#45;&gt;Node3</title>
<path fill="none" stroke="#9a32cd" stroke-dasharray="5,2" d="M70,-114.037C70,-101.67 70,-86.1198 70,-76.6273"/>
<polygon fill="#9a32cd" stroke="#9a32cd" points="66.5001,-114.234 70,-124.234 73.5001,-114.234 66.5001,-114.234"/>
<text text-anchor="middle" x="87.5" y="-98" font-family="Helvetica,sans-Serif" font-size="10.00"> sconfig</text>
</g>
<!-- Node5 -->
<g id="node4" class="node"><title>Node5</title>
<g id="a_node4"><a xlink:title="STL class. ">
<polygon fill="white" stroke="#bfbfbf" points="40,-235.5 40,-254.5 100,-254.5 100,-235.5 40,-235.5"/>
<text text-anchor="middle" x="70" y="-242.5" font-family="Helvetica,sans-Serif" font-size="10.00">std::string</text>
</a>
</g>
</g>
<!-- Node5&#45;&gt;Node4 -->
<g id="edge3" class="edge"><title>Node5&#45;&gt;Node4</title>
<path fill="none" stroke="#9a32cd" stroke-dasharray="5,2" d="M70,-225.193C70,-201.276 70,-160.989 70,-143.513"/>
<polygon fill="#9a32cd" stroke="#9a32cd" points="66.5001,-225.447 70,-235.447 73.5001,-225.447 66.5001,-225.447"/>
<text text-anchor="middle" x="107.5" y="-209" font-family="Helvetica,sans-Serif" font-size="10.00"> ecu_private_key</text>
<text text-anchor="middle" x="107.5" y="-198" font-family="Helvetica,sans-Serif" font-size="10.00">ecu_hardware_id</text>
<text text-anchor="middle" x="107.5" y="-187" font-family="Helvetica,sans-Serif" font-size="10.00">ecu_serial</text>
<text text-anchor="middle" x="107.5" y="-176" font-family="Helvetica,sans-Serif" font-size="10.00">opcua_lds_url</text>
<text text-anchor="middle" x="107.5" y="-165" font-family="Helvetica,sans-Serif" font-size="10.00">ecu_public_key</text>
</g>
<!-- Node6 -->
<g id="node5" class="node"><title>Node6</title>
<g id="a_node5"><a xlink:title="STL class. ">
<polygon fill="white" stroke="#bfbfbf" points="22.5,-292.5 22.5,-322.5 117.5,-322.5 117.5,-292.5 22.5,-292.5"/>
<text text-anchor="start" x="30.5" y="-310.5" font-family="Helvetica,sans-Serif" font-size="10.00">std::basic_string&lt;</text>
<text text-anchor="middle" x="70" y="-299.5" font-family="Helvetica,sans-Serif" font-size="10.00"> char &gt;</text>
</a>
</g>
</g>
<!-- Node6&#45;&gt;Node5 -->
<g id="edge4" class="edge"><title>Node6&#45;&gt;Node5</title>
<path fill="none" stroke="midnightblue" d="M70,-282.352C70,-272.513 70,-261.775 70,-254.54"/>
<polygon fill="midnightblue" stroke="midnightblue" points="66.5001,-282.468 70,-292.468 73.5001,-282.468 66.5001,-282.468"/>
</g>
</g>
</svg>
