<?xml version="1.0" encoding="UTF-8" standalone="no"?>
<!DOCTYPE svg PUBLIC "-//W3C//DTD SVG 1.1//EN"
 "http://www.w3.org/Graphics/SVG/1.1/DTD/svg11.dtd">
<!-- Generated by graphviz version 2.38.0 (20140413.2041)
 -->
<!-- Title: opcuabridge::VersionReport Pages: 1 -->
<!--zoomable 231 -->
<svg id="main" version="1.1" xmlns="http://www.w3.org/2000/svg" xmlns:xlink="http://www.w3.org/1999/xlink" xml:space="preserve" onload="init(evt)">
<style type="text/css"><![CDATA[
.edge:hover path { stroke: red; }
.edge:hover polygon { stroke: red; fill: red; }
]]></style>
<script type="text/javascript"><![CDATA[
var edges = document.getElementsByTagName('g');
if (edges && edges.length) {
  for (var i=0;i<edges.length;i++) {
    if (edges[i].id.substr(0,4)=='edge') {
      edges[i].setAttribute('class','edge');
    }
  }
}
]]></script>
        <defs>
                <circle id="rim" cx="0" cy="0" r="7"/>
                <circle id="rim2" cx="0" cy="0" r="3.5"/>
                <g id="zoomPlus">
                        <use xlink:href="#rim" fill="#404040">
                                <set attributeName="fill" to="#808080" begin="zoomplus.mouseover" end="zoomplus.mouseout"/>
                        </use>
                        <path d="M-4,0h8M0,-4v8" fill="none" stroke="white" stroke-width="1.5" pointer-events="none"/>
                </g>
                <g id="zoomMin">
                        <use xlink:href="#rim" fill="#404040">
                                <set attributeName="fill" to="#808080" begin="zoomminus.mouseover" end="zoomminus.mouseout"/>
                        </use>
                        <path d="M-4,0h8" fill="none" stroke="white" stroke-width="1.5" pointer-events="none"/>
                </g>
                <g id="dirArrow">
                        <path fill="none" stroke="white" stroke-width="1.5" d="M0,-3.0v7 M-2.5,-0.5L0,-3.0L2.5,-0.5"/>
                </g>
               <g id="resetDef">
                       <use xlink:href="#rim2" fill="#404040">
                               <set attributeName="fill" to="#808080" begin="reset.mouseover" end="reset.mouseout"/>
                       </use>
               </g>
        </defs>

<script type="text/javascript">
var viewWidth = 1681;
var viewHeight = 231;
var sectionId = 'dynsection-0';
</script>
<script xlink:href="svgpan.js"/>
<svg id="graph" class="graph">
<g id="viewport">
<title>opcuabridge::VersionReport</title>
<polygon fill="white" stroke="none" points="-4,4 -4,-227 1677,-227 1677,4 -4,4"/>
<!-- Node1 -->
<g id="node1" class="node"><title>Node1</title>
<polygon fill="#bfbfbf" stroke="black" points="1536,-132.5 1536,-151.5 1673,-151.5 1673,-132.5 1536,-132.5"/>
<text text-anchor="middle" x="1604.5" y="-139.5" font-family="Helvetica,sans-Serif" font-size="10.00">opcuabridge::VersionReport</text>
</g>
<!-- Node2 -->
<g id="node2" class="node"><title>Node2</title>
<g id="a_node2"><a xlink:href="structopcuabridge_1_1_message_on_before_read_callback.html" target="_top" xlink:title="opcuabridge::MessageOnBefore\lReadCallback\&lt; opcuabridge\l::VersionReport \&gt;">
<polygon fill="white" stroke="black" points="1243.5,-181.5 1243.5,-222.5 1399.5,-222.5 1399.5,-181.5 1243.5,-181.5"/>
<text text-anchor="start" x="1251.5" y="-210.5" font-family="Helvetica,sans-Serif" font-size="10.00">opcuabridge::MessageOnBefore</text>
<text text-anchor="start" x="1251.5" y="-199.5" font-family="Helvetica,sans-Serif" font-size="10.00">ReadCallback&lt; opcuabridge</text>
<text text-anchor="middle" x="1321.5" y="-188.5" font-family="Helvetica,sans-Serif" font-size="10.00">::VersionReport &gt;</text>
</a>
</g>
</g>
<!-- Node2&#45;&gt;Node1 -->
<g id="edge1" class="edge"><title>Node2&#45;&gt;Node1</title>
<path fill="none" stroke="#9a32cd" stroke-dasharray="5,2" d="M1409.72,-183.377C1459.17,-172.818 1518.95,-160.053 1558.92,-151.519"/>
<polygon fill="#9a32cd" stroke="#9a32cd" points="1408.7,-180.014 1399.66,-185.525 1410.17,-186.86 1408.7,-180.014"/>
<text text-anchor="middle" x="1470.5" y="-183" font-family="Helvetica,sans-Serif" font-size="10.00"> on_before_read_cb_</text>
</g>
<!-- Node3 -->
<g id="node3" class="node"><title>Node3</title>
<g id="a_node3"><a xlink:href="structopcuabridge_1_1_message_on_after_write_callback.html" target="_top" xlink:title="opcuabridge::MessageOnAfter\lWriteCallback\&lt; opcuabridge\l::VersionReport \&gt;">
<polygon fill="white" stroke="black" points="1247,-121.5 1247,-162.5 1396,-162.5 1396,-121.5 1247,-121.5"/>
<text text-anchor="start" x="1255" y="-150.5" font-family="Helvetica,sans-Serif" font-size="10.00">opcuabridge::MessageOnAfter</text>
<text text-anchor="start" x="1255" y="-139.5" font-family="Helvetica,sans-Serif" font-size="10.00">WriteCallback&lt; opcuabridge</text>
<text text-anchor="middle" x="1321.5" y="-128.5" font-family="Helvetica,sans-Serif" font-size="10.00">::VersionReport &gt;</text>
</a>
</g>
</g>
<!-- Node3&#45;&gt;Node1 -->
<g id="edge2" class="edge"><title>Node3&#45;&gt;Node1</title>
<path fill="none" stroke="#9a32cd" stroke-dasharray="5,2" d="M1406.39,-142C1447.77,-142 1497.02,-142 1535.94,-142"/>
<polygon fill="#9a32cd" stroke="#9a32cd" points="1406.33,-138.5 1396.33,-142 1406.33,-145.5 1406.33,-138.5"/>
<text text-anchor="middle" x="1470.5" y="-145" font-family="Helvetica,sans-Serif" font-size="10.00"> on_after_write_cb_</text>
</g>
<!-- Node4 -->
<g id="node4" class="node"><title>Node4</title>
<g id="a_node4"><a xlink:href="classopcuabridge_1_1_e_c_u_version_manifest.html" target="_top" xlink:title="opcuabridge::ECUVersionManifest">
<polygon fill="white" stroke="black" points="1238,-83.5 1238,-102.5 1405,-102.5 1405,-83.5 1238,-83.5"/>
<text text-anchor="middle" x="1321.5" y="-90.5" font-family="Helvetica,sans-Serif" font-size="10.00">opcuabridge::ECUVersionManifest</text>
</a>
</g>
</g>
<!-- Node4&#45;&gt;Node1 -->
<g id="edge3" class="edge"><title>Node4&#45;&gt;Node1</title>
<path fill="none" stroke="#9a32cd" stroke-dasharray="5,2" d="M1387.21,-104.23C1425.29,-110.844 1474.39,-119.382 1518,-127 1528.1,-128.763 1538.86,-130.648 1549.23,-132.466"/>
<polygon fill="#9a32cd" stroke="#9a32cd" points="1387.73,-100.767 1377.28,-102.504 1386.53,-107.664 1387.73,-100.767"/>
<text text-anchor="middle" x="1470.5" y="-130" font-family="Helvetica,sans-Serif" font-size="10.00"> ecuVersionManifest_</text>
</g>
<!-- Node5 -->
<g id="node5" class="node"><title>Node5</title>
<polygon fill="white" stroke="#bfbfbf" points="767,-109 767,-139 892,-139 892,-109 767,-109"/>
<text text-anchor="start" x="775" y="-127" font-family="Helvetica,sans-Serif" font-size="10.00">std::vector&lt; opcuabridge</text>
<text text-anchor="middle" x="829.5" y="-116" font-family="Helvetica,sans-Serif" font-size="10.00">::Signature &gt;</text>
</g>
<!-- Node5&#45;&gt;Node4 -->
<g id="edge4" class="edge"><title>Node5&#45;&gt;Node4</title>
<path fill="none" stroke="#9a32cd" stroke-dasharray="5,2" d="M902.101,-119.47C991.417,-113.82 1143.81,-104.178 1237.95,-98.2224"/>
<polygon fill="#9a32cd" stroke="#9a32cd" points="901.822,-115.981 892.063,-120.105 902.264,-122.967 901.822,-115.981"/>
<text text-anchor="middle" x="993.5" y="-122" font-family="Helvetica,sans-Serif" font-size="10.00"> signatures_</text>
</g>
<!-- Node6 -->
<g id="node6" class="node"><title>Node6</title>
<g id="a_node6"><a xlink:href="classopcuabridge_1_1_signature.html" target="_top" xlink:title="opcuabridge::Signature">
<polygon fill="white" stroke="black" points="447.5,-128.5 447.5,-147.5 563.5,-147.5 563.5,-128.5 447.5,-128.5"/>
<text text-anchor="middle" x="505.5" y="-135.5" font-family="Helvetica,sans-Serif" font-size="10.00">opcuabridge::Signature</text>
</a>
</g>
</g>
<!-- Node6&#45;&gt;Node5 -->
<g id="edge5" class="edge"><title>Node6&#45;&gt;Node5</title>
<path fill="none" stroke="#9a32cd" stroke-dasharray="5,2" d="M574.036,-135.064C630.957,-132.589 711.723,-129.077 766.9,-126.678"/>
<polygon fill="#9a32cd" stroke="#9a32cd" points="573.535,-131.582 563.696,-135.513 573.839,-138.575 573.535,-131.582"/>
<text text-anchor="middle" x="607.5" y="-138" font-family="Helvetica,sans-Serif" font-size="10.00"> elements</text>
</g>
<!-- Node7 -->
<g id="node7" class="node"><title>Node7</title>
<g id="a_node7"><a xlink:href="classopcuabridge_1_1_hash.html" target="_top" xlink:title="opcuabridge::Hash">
<polygon fill="white" stroke="black" points="263,-78.5 263,-97.5 361,-97.5 361,-78.5 263,-78.5"/>
<text text-anchor="middle" x="312" y="-85.5" font-family="Helvetica,sans-Serif" font-size="10.00">opcuabridge::Hash</text>
</a>
</g>
</g>
<!-- Node7&#45;&gt;Node6 -->
<g id="edge6" class="edge"><title>Node7&#45;&gt;Node6</title>
<path fill="none" stroke="#9a32cd" stroke-dasharray="5,2" d="M359.429,-100.123C392.739,-108.82 437.002,-120.377 467.84,-128.428"/>
<polygon fill="#9a32cd" stroke="#9a32cd" points="360.03,-96.6622 349.47,-97.5223 358.262,-103.435 360.03,-96.6622"/>
<text text-anchor="middle" x="402" y="-119" font-family="Helvetica,sans-Serif" font-size="10.00"> hash_</text>
</g>
<!-- Node12 -->
<g id="node12" class="node"><title>Node12</title>
<polygon fill="white" stroke="#bfbfbf" points="443,-79 443,-109 568,-109 568,-79 443,-79"/>
<text text-anchor="start" x="451" y="-97" font-family="Helvetica,sans-Serif" font-size="10.00">std::vector&lt; opcuabridge</text>
<text text-anchor="middle" x="505.5" y="-86" font-family="Helvetica,sans-Serif" font-size="10.00">::Hash &gt;</text>
</g>
<!-- Node7&#45;&gt;Node12 -->
<g id="edge15" class="edge"><title>Node7&#45;&gt;Node12</title>
<path fill="none" stroke="#9a32cd" stroke-dasharray="5,2" d="M371.347,-87.0683C373.933,-87.042 376.493,-87.019 379,-87 399.444,-86.8451 404.575,-86.1025 425,-87 430.814,-87.2555 436.86,-87.6155 442.905,-88.039"/>
<polygon fill="#9a32cd" stroke="#9a32cd" points="371.259,-83.569 361.3,-87.1839 371.34,-90.5685 371.259,-83.569"/>
<text text-anchor="middle" x="402" y="-90" font-family="Helvetica,sans-Serif" font-size="10.00"> elements</text>
</g>
<!-- Node8 -->
<g id="node8" class="node"><title>Node8</title>
<g id="a_node8"><a xlink:title="STL class. ">
<polygon fill="white" stroke="#bfbfbf" points="132,-58.5 132,-77.5 192,-77.5 192,-58.5 132,-58.5"/>
<text text-anchor="middle" x="162" y="-65.5" font-family="Helvetica,sans-Serif" font-size="10.00">std::string</text>
</a>
</g>
</g>
<!-- Node8&#45;&gt;Node6 -->
<g id="edge9" class="edge"><title>Node8&#45;&gt;Node6</title>
<path fill="none" stroke="#9a32cd" stroke-dasharray="5,2" d="M187.284,-83.0327C194.416,-87.0038 202.358,-91.0103 210,-94 288.593,-124.747 386.709,-134.172 447.489,-136.966"/>
<polygon fill="#9a32cd" stroke="#9a32cd" points="188.569,-79.7319 178.163,-77.7385 185.055,-85.7858 188.569,-79.7319"/>
<text text-anchor="middle" x="312" y="-144" font-family="Helvetica,sans-Serif" font-size="10.00"> keyid_</text>
<text text-anchor="middle" x="312" y="-133" font-family="Helvetica,sans-Serif" font-size="10.00">value_</text>
</g>
<!-- Node8&#45;&gt;Node7 -->
<g id="edge7" class="edge"><title>Node8&#45;&gt;Node7</title>
<path fill="none" stroke="#9a32cd" stroke-dasharray="5,2" d="M202.154,-73.2911C220.783,-75.8085 243.229,-78.8417 262.886,-81.4982"/>
<polygon fill="#9a32cd" stroke="#9a32cd" points="202.619,-69.8221 192.24,-71.9514 201.681,-76.7591 202.619,-69.8221"/>
<text text-anchor="middle" x="227.5" y="-82" font-family="Helvetica,sans-Serif" font-size="10.00"> digest_</text>
</g>
<!-- Node10 -->
<g id="node10" class="node"><title>Node10</title>
<g id="a_node10"><a xlink:href="classopcuabridge_1_1_e_c_u_version_manifest_signed.html" target="_top" xlink:title="opcuabridge::ECUVersionManifest\lSigned">
<polygon fill="white" stroke="black" points="910,-42 910,-72 1077,-72 1077,-42 910,-42"/>
<text text-anchor="start" x="918" y="-60" font-family="Helvetica,sans-Serif" font-size="10.00">opcuabridge::ECUVersionManifest</text>
<text text-anchor="middle" x="993.5" y="-49" font-family="Helvetica,sans-Serif" font-size="10.00">Signed</text>
</a>
</g>
</g>
<!-- Node8&#45;&gt;Node10 -->
<g id="edge11" class="edge"><title>Node8&#45;&gt;Node10</title>
<path fill="none" stroke="#9a32cd" stroke-dasharray="5,2" d="M183.121,-51.9522C210.411,-31.8474 261.46,-0 311,-0 311,-0 311,-0 699,-0 787.112,-0 887.419,-25.0619 945.007,-41.9494"/>
<polygon fill="#9a32cd" stroke="#9a32cd" points="180.663,-49.4238 174.813,-58.2573 184.894,-54.9999 180.663,-49.4238"/>
<text text-anchor="middle" x="505.5" y="-14" font-family="Helvetica,sans-Serif" font-size="10.00"> ecuIdentifier_</text>
<text text-anchor="middle" x="505.5" y="-3" font-family="Helvetica,sans-Serif" font-size="10.00">securityAttack_</text>
</g>
<!-- Node11 -->
<g id="node11" class="node"><title>Node11</title>
<g id="a_node11"><a xlink:href="classopcuabridge_1_1_image.html" target="_top" xlink:title="opcuabridge::Image">
<polygon fill="white" stroke="black" points="647,-47.5 647,-66.5 749,-66.5 749,-47.5 647,-47.5"/>
<text text-anchor="middle" x="698" y="-54.5" font-family="Helvetica,sans-Serif" font-size="10.00">opcuabridge::Image</text>
</a>
</g>
</g>
<!-- Node8&#45;&gt;Node11 -->
<g id="edge13" class="edge"><title>Node8&#45;&gt;Node11</title>
<path fill="none" stroke="#9a32cd" stroke-dasharray="5,2" d="M202.159,-67.1934C297.389,-65.2317 541.019,-60.2131 646.764,-58.0348"/>
<polygon fill="#9a32cd" stroke="#9a32cd" points="202.015,-63.6955 192.089,-67.4008 202.159,-70.694 202.015,-63.6955"/>
<text text-anchor="middle" x="402" y="-67" font-family="Helvetica,sans-Serif" font-size="10.00"> filename_</text>
</g>
<!-- Node9 -->
<g id="node9" class="node"><title>Node9</title>
<g id="a_node9"><a xlink:title="STL class. ">
<polygon fill="white" stroke="#bfbfbf" points="0,-53 0,-83 95,-83 95,-53 0,-53"/>
<text text-anchor="start" x="8" y="-71" font-family="Helvetica,sans-Serif" font-size="10.00">std::basic_string&lt;</text>
<text text-anchor="middle" x="47.5" y="-60" font-family="Helvetica,sans-Serif" font-size="10.00"> char &gt;</text>
</a>
</g>
</g>
<!-- Node9&#45;&gt;Node8 -->
<g id="edge8" class="edge"><title>Node9&#45;&gt;Node8</title>
<path fill="none" stroke="midnightblue" d="M105.526,-68C114.678,-68 123.803,-68 131.931,-68"/>
<polygon fill="midnightblue" stroke="midnightblue" points="105.233,-64.5001 95.2328,-68 105.233,-71.5001 105.233,-64.5001"/>
</g>
<!-- Node10&#45;&gt;Node4 -->
<g id="edge10" class="edge"><title>Node10&#45;&gt;Node4</title>
<path fill="none" stroke="#9a32cd" stroke-dasharray="5,2" d="M1087.16,-67.2322C1134.63,-72.4746 1191.95,-78.8047 1237.9,-83.8789"/>
<polygon fill="#9a32cd" stroke="#9a32cd" points="1087.51,-63.7497 1077.18,-66.1309 1086.74,-70.7074 1087.51,-63.7497"/>
<text text-anchor="middle" x="1157.5" y="-85" font-family="Helvetica,sans-Serif" font-size="10.00"> ecuVersionManifestSigned_</text>
</g>
<!-- Node11&#45;&gt;Node10 -->
<g id="edge12" class="edge"><title>Node11&#45;&gt;Node10</title>
<path fill="none" stroke="#9a32cd" stroke-dasharray="5,2" d="M759.259,-57C802.73,-57 861.947,-57 909.834,-57"/>
<polygon fill="#9a32cd" stroke="#9a32cd" points="759.121,-53.5001 749.121,-57 759.121,-60.5001 759.121,-53.5001"/>
<text text-anchor="middle" x="829.5" y="-60" font-family="Helvetica,sans-Serif" font-size="10.00"> installedImage_</text>
</g>
<!-- Node12&#45;&gt;Node11 -->
<g id="edge14" class="edge"><title>Node12&#45;&gt;Node11</title>
<path fill="none" stroke="#9a32cd" stroke-dasharray="5,2" d="M577.949,-80.1227C601.294,-75.5885 626.677,-70.6585 647.985,-66.52"/>
<polygon fill="#9a32cd" stroke="#9a32cd" points="577.236,-76.6958 568.087,-82.0383 578.571,-83.5673 577.236,-76.6958"/>
<text text-anchor="middle" x="607.5" y="-81" font-family="Helvetica,sans-Serif" font-size="10.00"> hashes_</text>
</g>
</g>
</svg>
        <g id="navigator" transform="translate(0 0)" fill="#404254">
                <rect fill="#f2f5e9" fill-opacity="0.5" stroke="#606060" stroke-width=".5" x="0" y="0" width="60" height="60"/>
                <use id="zoomplus" xlink:href="#zoomPlus" x="17" y="9" onmousedown="handleZoom(evt,'in')"/>
                <use id="zoomminus" xlink:href="#zoomMin" x="42" y="9" onmousedown="handleZoom(evt,'out')"/>
                <use id="reset" xlink:href="#resetDef" x="30" y="36" onmousedown="handleReset()"/>
                <g id="arrowUp" xlink:href="#dirArrow" transform="translate(30 24)" onmousedown="handlePan(0,-1)">
                  <use xlink:href="#rim" fill="#404040">
                        <set attributeName="fill" to="#808080" begin="arrowUp.mouseover" end="arrowUp.mouseout"/>
                  </use>
                  <path fill="none" stroke="white" stroke-width="1.5" d="M0,-3.0v7 M-2.5,-0.5L0,-3.0L2.5,-0.5"/>
                </g>
                <g id="arrowRight" xlink:href="#dirArrow" transform="rotate(90) translate(36 -43)" onmousedown="handlePan(1,0)">
                  <use xlink:href="#rim" fill="#404040">
                        <set attributeName="fill" to="#808080" begin="arrowRight.mouseover" end="arrowRight.mouseout"/>
                  </use>
                  <path fill="none" stroke="white" stroke-width="1.5" d="M0,-3.0v7 M-2.5,-0.5L0,-3.0L2.5,-0.5"/>
                </g>
                <g id="arrowDown" xlink:href="#dirArrow" transform="rotate(180) translate(-30 -48)" onmousedown="handlePan(0,1)">
                  <use xlink:href="#rim" fill="#404040">
                        <set attributeName="fill" to="#808080" begin="arrowDown.mouseover" end="arrowDown.mouseout"/>
                  </use>
                  <path fill="none" stroke="white" stroke-width="1.5" d="M0,-3.0v7 M-2.5,-0.5L0,-3.0L2.5,-0.5"/>
                </g>
                <g id="arrowLeft" xlink:href="#dirArrow" transform="rotate(270) translate(-36 17)" onmousedown="handlePan(-1,0)">
                  <use xlink:href="#rim" fill="#404040">
                        <set attributeName="fill" to="#808080" begin="arrowLeft.mouseover" end="arrowLeft.mouseout"/>
                  </use>
                  <path fill="none" stroke="white" stroke-width="1.5" d="M0,-3.0v7 M-2.5,-0.5L0,-3.0L2.5,-0.5"/>
                </g>
        </g>
        <svg viewBox="0 0 15 15" width="100%" height="30px" preserveAspectRatio="xMaxYMin meet">
         <g id="arrow_out" transform="scale(0.3 0.3)">
          <a xlink:href="classopcuabridge_1_1_version_report__coll__graph_org.svg" target="_base">
           <rect id="button" ry="5" rx="5" y="6" x="6" height="38" width="38"
                fill="#f2f5e9" fill-opacity="0.5" stroke="#606060" stroke-width="1.0"/>
           <path id="arrow"
             d="M 11.500037,31.436501 C 11.940474,20.09759 22.043105,11.32322 32.158766,21.979434 L 37.068811,17.246167 C 37.068811,17.246167 37.088388,32 37.088388,32 L 22.160133,31.978069 C 22.160133,31.978069 26.997745,27.140456 26.997745,27.140456 C 18.528582,18.264221 13.291696,25.230495 11.500037,31.436501 z"
             style="fill:#404040;"/>
          </a>
         </g>
        </svg>
</svg>
