<?xml version="1.0" encoding="UTF-8" standalone="no"?>
<!DOCTYPE svg PUBLIC "-//W3C//DTD SVG 1.1//EN"
 "http://www.w3.org/Graphics/SVG/1.1/DTD/svg11.dtd">
<!-- Generated by graphviz version 2.38.0 (20140413.2041)
 -->
<!-- Title: EphemeralStorage Pages: 1 -->
<svg width="166pt" height="353pt"
 viewBox="0.00 0.00 165.50 353.00" xmlns="http://www.w3.org/2000/svg" xmlns:xlink="http://www.w3.org/1999/xlink">
<g id="graph0" class="graph" transform="scale(1 1) rotate(0) translate(4 349)">
<title>EphemeralStorage</title>
<polygon fill="white" stroke="none" points="-4,4 -4,-349 161.5,-349 161.5,4 -4,4"/>
<!-- Node3 -->
<g id="node1" class="node"><title>Node3</title>
<polygon fill="#bfbfbf" stroke="black" points="-7.10543e-15,-0.5 -7.10543e-15,-19.5 97,-19.5 97,-0.5 -7.10543e-15,-0.5"/>
<text text-anchor="middle" x="48.5" y="-7.5" font-family="Helvetica,sans-Serif" font-size="10.00">EphemeralStorage</text>
</g>
<!-- Node4 -->
<g id="node2" class="node"><title>Node4</title>
<g id="a_node2"><a xlink:href="class_f_s_storage.html" target="_top" xlink:title="FSStorage">
<polygon fill="white" stroke="black" points="17,-57.5 17,-76.5 80,-76.5 80,-57.5 17,-57.5"/>
<text text-anchor="middle" x="48.5" y="-64.5" font-family="Helvetica,sans-Serif" font-size="10.00">FSStorage</text>
</a>
</g>
</g>
<!-- Node4&#45;&gt;Node3 -->
<g id="edge1" class="edge"><title>Node4&#45;&gt;Node3</title>
<path fill="none" stroke="midnightblue" d="M48.5,-47.1166C48.5,-37.8173 48.5,-27.0557 48.5,-19.7149"/>
<polygon fill="midnightblue" stroke="midnightblue" points="45.0001,-47.4062 48.5,-57.4062 52.0001,-47.4063 45.0001,-47.4062"/>
</g>
<!-- Node5 -->
<g id="node3" class="node"><title>Node5</title>
<g id="a_node3"><a xlink:href="class_i_nv_storage.html" target="_top" xlink:title="INvStorage">
<polygon fill="white" stroke="black" points="15.5,-114.5 15.5,-133.5 81.5,-133.5 81.5,-114.5 15.5,-114.5"/>
<text text-anchor="middle" x="48.5" y="-121.5" font-family="Helvetica,sans-Serif" font-size="10.00">INvStorage</text>
</a>
</g>
</g>
<!-- Node5&#45;&gt;Node4 -->
<g id="edge2" class="edge"><title>Node5&#45;&gt;Node4</title>
<path fill="none" stroke="midnightblue" d="M48.5,-104.117C48.5,-94.8173 48.5,-84.0557 48.5,-76.7149"/>
<polygon fill="midnightblue" stroke="midnightblue" points="45.0001,-104.406 48.5,-114.406 52.0001,-104.406 45.0001,-104.406"/>
</g>
<!-- Node6 -->
<g id="node4" class="node"><title>Node6</title>
<g id="a_node4"><a xlink:href="struct_storage_config.html" target="_top" xlink:title="StorageConfig">
<polygon fill="white" stroke="black" points="9,-181.5 9,-200.5 88,-200.5 88,-181.5 9,-181.5"/>
<text text-anchor="middle" x="48.5" y="-188.5" font-family="Helvetica,sans-Serif" font-size="10.00">StorageConfig</text>
</a>
</g>
</g>
<!-- Node6&#45;&gt;Node5 -->
<g id="edge3" class="edge"><title>Node6&#45;&gt;Node5</title>
<path fill="none" stroke="#9a32cd" stroke-dasharray="5,2" d="M48.5,-171.037C48.5,-158.67 48.5,-143.12 48.5,-133.627"/>
<polygon fill="#9a32cd" stroke="#9a32cd" points="45.0001,-171.234 48.5,-181.234 52.0001,-171.234 45.0001,-171.234"/>
<text text-anchor="middle" x="66" y="-155" font-family="Helvetica,sans-Serif" font-size="10.00"> config_</text>
</g>
<!-- Node7 -->
<g id="node5" class="node"><title>Node7</title>
<g id="a_node5"><a xlink:href="class_based_path.html" target="_top" xlink:title="BasedPath">
<polygon fill="white" stroke="black" points="16,-325.5 16,-344.5 81,-344.5 81,-325.5 16,-325.5"/>
<text text-anchor="middle" x="48.5" y="-332.5" font-family="Helvetica,sans-Serif" font-size="10.00">BasedPath</text>
</a>
</g>
</g>
<!-- Node7&#45;&gt;Node6 -->
<g id="edge4" class="edge"><title>Node7&#45;&gt;Node6</title>
<path fill="none" stroke="#9a32cd" stroke-dasharray="5,2" d="M48.5,-315.107C48.5,-283.929 48.5,-222.926 48.5,-200.518"/>
<polygon fill="#9a32cd" stroke="#9a32cd" points="45.0001,-315.117 48.5,-325.117 52.0001,-315.117 45.0001,-315.117"/>
<text text-anchor="middle" x="103" y="-299" font-family="Helvetica,sans-Serif" font-size="10.00"> uptane_public_key_path</text>
<text text-anchor="middle" x="103" y="-288" font-family="Helvetica,sans-Serif" font-size="10.00">tls_pkey_path</text>
<text text-anchor="middle" x="103" y="-277" font-family="Helvetica,sans-Serif" font-size="10.00">uptane_metadata_path</text>
<text text-anchor="middle" x="103" y="-266" font-family="Helvetica,sans-Serif" font-size="10.00">sqldb_path</text>
<text text-anchor="start" x="48.5" y="-255" font-family="Helvetica,sans-Serif" font-size="10.00">uptane_private_key</text>
<text text-anchor="middle" x="103" y="-244" font-family="Helvetica,sans-Serif" font-size="10.00">_path</text>
<text text-anchor="middle" x="103" y="-233" font-family="Helvetica,sans-Serif" font-size="10.00">tls_cacert_path</text>
<text text-anchor="middle" x="103" y="-222" font-family="Helvetica,sans-Serif" font-size="10.00">tls_clientcert_path</text>
</g>
</g>
</svg>
