<?xml version="1.0" encoding="UTF-8" standalone="no"?>
<!DOCTYPE svg PUBLIC "-//W3C//DTD SVG 1.1//EN"
 "http://www.w3.org/Graphics/SVG/1.1/DTD/svg11.dtd">
<!-- Generated by graphviz version 2.38.0 (20140413.2041)
 -->
<!-- Title: Uptane::Exception Pages: 1 -->
<svg width="522pt" height="484pt"
 viewBox="0.00 0.00 522.00 484.00" xmlns="http://www.w3.org/2000/svg" xmlns:xlink="http://www.w3.org/1999/xlink">
<g id="graph0" class="graph" transform="scale(1 1) rotate(0) translate(4 480)">
<title>Uptane::Exception</title>
<polygon fill="white" stroke="none" points="-4,4 -4,-480 518,-480 518,4 -4,4"/>
<!-- Node0 -->
<g id="node1" class="node"><title>Node0</title>
<polygon fill="#bfbfbf" stroke="black" points="231,-228.5 231,-247.5 329,-247.5 329,-228.5 231,-228.5"/>
<text text-anchor="middle" x="280" y="-235.5" font-family="Helvetica,sans-Serif" font-size="10.00">Uptane::Exception</text>
</g>
<!-- Node3 -->
<g id="node4" class="node"><title>Node3</title>
<g id="a_node4"><a xlink:href="class_uptane_1_1_bad_ecu_id.html" target="_top" xlink:title="Uptane::BadEcuId">
<polygon fill="white" stroke="black" points="391,-456.5 391,-475.5 488,-475.5 488,-456.5 391,-456.5"/>
<text text-anchor="middle" x="439.5" y="-463.5" font-family="Helvetica,sans-Serif" font-size="10.00">Uptane::BadEcuId</text>
</a>
</g>
</g>
<!-- Node0&#45;&gt;Node3 -->
<g id="edge3" class="edge"><title>Node0&#45;&gt;Node3</title>
<path fill="none" stroke="midnightblue" d="M283.07,-257.808C288.497,-299.37 306.995,-396.043 365,-447 372.327,-453.437 381.56,-457.74 390.984,-460.605"/>
<polygon fill="midnightblue" stroke="midnightblue" points="286.516,-257.149 281.864,-247.63 279.565,-257.972 286.516,-257.149"/>
</g>
<!-- Node4 -->
<g id="node5" class="node"><title>Node4</title>
<g id="a_node5"><a xlink:href="class_uptane_1_1_bad_key_id.html" target="_top" xlink:title="Uptane::BadKeyId">
<polygon fill="white" stroke="black" points="391,-418.5 391,-437.5 488,-437.5 488,-418.5 391,-418.5"/>
<text text-anchor="middle" x="439.5" y="-425.5" font-family="Helvetica,sans-Serif" font-size="10.00">Uptane::BadKeyId</text>
</a>
</g>
</g>
<!-- Node0&#45;&gt;Node4 -->
<g id="edge4" class="edge"><title>Node0&#45;&gt;Node4</title>
<path fill="none" stroke="midnightblue" d="M285.103,-258.099C293.512,-294.029 316.174,-369.227 365,-409 372.46,-415.077 381.641,-419.233 390.957,-422.069"/>
<polygon fill="midnightblue" stroke="midnightblue" points="288.427,-256.921 282.858,-247.908 281.591,-258.427 288.427,-256.921"/>
</g>
<!-- Node5 -->
<g id="node6" class="node"><title>Node5</title>
<g id="a_node6"><a xlink:href="class_uptane_1_1_expired_metadata.html" target="_top" xlink:title="Uptane::ExpiredMetadata">
<polygon fill="white" stroke="black" points="375.5,-380.5 375.5,-399.5 503.5,-399.5 503.5,-380.5 375.5,-380.5"/>
<text text-anchor="middle" x="439.5" y="-387.5" font-family="Helvetica,sans-Serif" font-size="10.00">Uptane::ExpiredMetadata</text>
</a>
</g>
</g>
<!-- Node0&#45;&gt;Node5 -->
<g id="edge5" class="edge"><title>Node0&#45;&gt;Node5</title>
<path fill="none" stroke="midnightblue" d="M287.825,-257.294C299.167,-286.494 324.717,-341.615 365,-371 370.324,-374.884 376.372,-377.975 382.658,-380.435"/>
<polygon fill="midnightblue" stroke="midnightblue" points="291.06,-255.952 284.288,-247.804 284.501,-258.397 291.06,-255.952"/>
</g>
<!-- Node6 -->
<g id="node7" class="node"><title>Node6</title>
<g id="a_node7"><a xlink:href="class_uptane_1_1_illegal_rsa_key_size.html" target="_top" xlink:title="Uptane::IllegalRsaKeySize">
<polygon fill="white" stroke="black" points="372.5,-342.5 372.5,-361.5 506.5,-361.5 506.5,-342.5 372.5,-342.5"/>
<text text-anchor="middle" x="439.5" y="-349.5" font-family="Helvetica,sans-Serif" font-size="10.00">Uptane::IllegalRsaKeySize</text>
</a>
</g>
</g>
<!-- Node0&#45;&gt;Node6 -->
<g id="edge6" class="edge"><title>Node0&#45;&gt;Node6</title>
<path fill="none" stroke="midnightblue" d="M292.301,-256.391C306.561,-278.023 333.116,-313.457 365,-333 371.293,-336.857 378.35,-339.936 385.535,-342.392"/>
<polygon fill="midnightblue" stroke="midnightblue" points="295.137,-254.329 286.801,-247.79 289.24,-258.1 295.137,-254.329"/>
</g>
<!-- Node7 -->
<g id="node8" class="node"><title>Node7</title>
<g id="a_node8"><a xlink:href="class_uptane_1_1_illegal_threshold.html" target="_top" xlink:title="Uptane::IllegalThreshold">
<polygon fill="white" stroke="black" points="378.5,-304.5 378.5,-323.5 500.5,-323.5 500.5,-304.5 378.5,-304.5"/>
<text text-anchor="middle" x="439.5" y="-311.5" font-family="Helvetica,sans-Serif" font-size="10.00">Uptane::IllegalThreshold</text>
</a>
</g>
</g>
<!-- Node0&#45;&gt;Node7 -->
<g id="edge7" class="edge"><title>Node0&#45;&gt;Node7</title>
<path fill="none" stroke="midnightblue" d="M300.66,-254.227C316.984,-266.964 341.288,-284.28 365,-295 373.287,-298.746 382.446,-301.853 391.405,-304.394"/>
<polygon fill="midnightblue" stroke="midnightblue" points="302.467,-251.191 292.466,-247.692 298.102,-256.664 302.467,-251.191"/>
</g>
<!-- Node8 -->
<g id="node9" class="node"><title>Node8</title>
<g id="a_node9"><a xlink:href="class_uptane_1_1_invalid_metadata.html" target="_top" xlink:title="Uptane::InvalidMetadata">
<polygon fill="white" stroke="black" points="378,-266.5 378,-285.5 501,-285.5 501,-266.5 378,-266.5"/>
<text text-anchor="middle" x="439.5" y="-273.5" font-family="Helvetica,sans-Serif" font-size="10.00">Uptane::InvalidMetadata</text>
</a>
</g>
</g>
<!-- Node0&#45;&gt;Node8 -->
<g id="edge8" class="edge"><title>Node0&#45;&gt;Node8</title>
<path fill="none" stroke="midnightblue" d="M330.604,-249.968C352.675,-255.293 378.303,-261.476 399.042,-266.48"/>
<polygon fill="midnightblue" stroke="midnightblue" points="331.286,-246.532 320.744,-247.589 329.644,-253.337 331.286,-246.532"/>
</g>
<!-- Node9 -->
<g id="node10" class="node"><title>Node9</title>
<g id="a_node10"><a xlink:href="class_uptane_1_1_missing_repo.html" target="_top" xlink:title="Uptane::MissingRepo">
<polygon fill="white" stroke="black" points="384,-228.5 384,-247.5 495,-247.5 495,-228.5 384,-228.5"/>
<text text-anchor="middle" x="439.5" y="-235.5" font-family="Helvetica,sans-Serif" font-size="10.00">Uptane::MissingRepo</text>
</a>
</g>
</g>
<!-- Node0&#45;&gt;Node9 -->
<g id="edge9" class="edge"><title>Node0&#45;&gt;Node9</title>
<path fill="none" stroke="midnightblue" d="M339.471,-238C353.981,-238 369.476,-238 383.797,-238"/>
<polygon fill="midnightblue" stroke="midnightblue" points="339.111,-234.5 329.111,-238 339.111,-241.5 339.111,-234.5"/>
</g>
<!-- Node10 -->
<g id="node11" class="node"><title>Node10</title>
<g id="a_node11"><a xlink:href="class_uptane_1_1_miss_match_target.html" target="_top" xlink:title="Uptane::MissMatchTarget">
<polygon fill="white" stroke="black" points="374.5,-190.5 374.5,-209.5 504.5,-209.5 504.5,-190.5 374.5,-190.5"/>
<text text-anchor="middle" x="439.5" y="-197.5" font-family="Helvetica,sans-Serif" font-size="10.00">Uptane::MissMatchTarget</text>
</a>
</g>
</g>
<!-- Node0&#45;&gt;Node10 -->
<g id="edge10" class="edge"><title>Node0&#45;&gt;Node10</title>
<path fill="none" stroke="midnightblue" d="M330.604,-226.032C352.675,-220.707 378.303,-214.524 399.042,-209.52"/>
<polygon fill="midnightblue" stroke="midnightblue" points="329.644,-222.663 320.744,-228.411 331.286,-229.468 329.644,-222.663"/>
</g>
<!-- Node11 -->
<g id="node12" class="node"><title>Node11</title>
<g id="a_node12"><a xlink:href="class_uptane_1_1_non_unique_signatures.html" target="_top" xlink:title="Uptane::NonUniqueSignatures">
<polygon fill="white" stroke="black" points="365,-152.5 365,-171.5 514,-171.5 514,-152.5 365,-152.5"/>
<text text-anchor="middle" x="439.5" y="-159.5" font-family="Helvetica,sans-Serif" font-size="10.00">Uptane::NonUniqueSignatures</text>
</a>
</g>
</g>
<!-- Node0&#45;&gt;Node11 -->
<g id="edge11" class="edge"><title>Node0&#45;&gt;Node11</title>
<path fill="none" stroke="midnightblue" d="M300.66,-221.773C316.984,-209.036 341.288,-191.72 365,-181 373.287,-177.254 382.446,-174.147 391.405,-171.606"/>
<polygon fill="midnightblue" stroke="midnightblue" points="298.102,-219.336 292.466,-228.308 302.467,-224.809 298.102,-219.336"/>
</g>
<!-- Node12 -->
<g id="node13" class="node"><title>Node12</title>
<g id="a_node13"><a xlink:href="class_uptane_1_1_oversized_target.html" target="_top" xlink:title="Uptane::OversizedTarget">
<polygon fill="white" stroke="black" points="376.5,-114.5 376.5,-133.5 502.5,-133.5 502.5,-114.5 376.5,-114.5"/>
<text text-anchor="middle" x="439.5" y="-121.5" font-family="Helvetica,sans-Serif" font-size="10.00">Uptane::OversizedTarget</text>
</a>
</g>
</g>
<!-- Node0&#45;&gt;Node12 -->
<g id="edge12" class="edge"><title>Node0&#45;&gt;Node12</title>
<path fill="none" stroke="midnightblue" d="M292.301,-219.609C306.561,-197.977 333.116,-162.543 365,-143 371.293,-139.143 378.35,-136.064 385.535,-133.608"/>
<polygon fill="midnightblue" stroke="midnightblue" points="289.24,-217.9 286.801,-228.21 295.137,-221.671 289.24,-217.9"/>
</g>
<!-- Node13 -->
<g id="node14" class="node"><title>Node13</title>
<g id="a_node14"><a xlink:href="class_uptane_1_1_security_exception.html" target="_top" xlink:title="Uptane::SecurityException">
<polygon fill="white" stroke="black" points="372.5,-76.5 372.5,-95.5 506.5,-95.5 506.5,-76.5 372.5,-76.5"/>
<text text-anchor="middle" x="439.5" y="-83.5" font-family="Helvetica,sans-Serif" font-size="10.00">Uptane::SecurityException</text>
</a>
</g>
</g>
<!-- Node0&#45;&gt;Node13 -->
<g id="edge13" class="edge"><title>Node0&#45;&gt;Node13</title>
<path fill="none" stroke="midnightblue" d="M287.825,-218.706C299.167,-189.506 324.717,-134.385 365,-105 370.324,-101.116 376.372,-98.025 382.658,-95.5646"/>
<polygon fill="midnightblue" stroke="midnightblue" points="284.501,-217.603 284.288,-228.196 291.06,-220.048 284.501,-217.603"/>
</g>
<!-- Node14 -->
<g id="node15" class="node"><title>Node14</title>
<g id="a_node15"><a xlink:href="class_uptane_1_1_target_hash_mismatch.html" target="_top" xlink:title="Uptane::TargetHashMismatch">
<polygon fill="white" stroke="black" points="365.5,-38.5 365.5,-57.5 513.5,-57.5 513.5,-38.5 365.5,-38.5"/>
<text text-anchor="middle" x="439.5" y="-45.5" font-family="Helvetica,sans-Serif" font-size="10.00">Uptane::TargetHashMismatch</text>
</a>
</g>
</g>
<!-- Node0&#45;&gt;Node14 -->
<g id="edge14" class="edge"><title>Node0&#45;&gt;Node14</title>
<path fill="none" stroke="midnightblue" d="M285.103,-217.901C293.512,-181.971 316.174,-106.773 365,-67 369.701,-63.1709 375.085,-60.1045 380.756,-57.6502"/>
<polygon fill="midnightblue" stroke="midnightblue" points="281.591,-217.573 282.858,-228.092 288.427,-219.079 281.591,-217.573"/>
</g>
<!-- Node15 -->
<g id="node16" class="node"><title>Node15</title>
<g id="a_node16"><a xlink:href="class_uptane_1_1_unmet_threshold.html" target="_top" xlink:title="Uptane::UnmetThreshold">
<polygon fill="white" stroke="black" points="376.5,-0.5 376.5,-19.5 502.5,-19.5 502.5,-0.5 376.5,-0.5"/>
<text text-anchor="middle" x="439.5" y="-7.5" font-family="Helvetica,sans-Serif" font-size="10.00">Uptane::UnmetThreshold</text>
</a>
</g>
</g>
<!-- Node0&#45;&gt;Node15 -->
<g id="edge15" class="edge"><title>Node0&#45;&gt;Node15</title>
<path fill="none" stroke="midnightblue" d="M283.07,-218.192C288.497,-176.63 306.995,-79.9572 365,-29 369.357,-25.1726 374.387,-22.0996 379.731,-19.6348"/>
<polygon fill="midnightblue" stroke="midnightblue" points="279.565,-218.028 281.864,-228.37 286.516,-218.851 279.565,-218.028"/>
</g>
<!-- Node1 -->
<g id="node2" class="node"><title>Node1</title>
<g id="a_node2"><a xlink:title="STL class. ">
<polygon fill="white" stroke="#bfbfbf" points="114,-228.5 114,-247.5 195,-247.5 195,-228.5 114,-228.5"/>
<text text-anchor="middle" x="154.5" y="-235.5" font-family="Helvetica,sans-Serif" font-size="10.00">std::logic_error</text>
</a>
</g>
</g>
<!-- Node1&#45;&gt;Node0 -->
<g id="edge1" class="edge"><title>Node1&#45;&gt;Node0</title>
<path fill="none" stroke="midnightblue" d="M205.279,-238C213.655,-238 222.338,-238 230.677,-238"/>
<polygon fill="midnightblue" stroke="midnightblue" points="205.256,-234.5 195.256,-238 205.256,-241.5 205.256,-234.5"/>
</g>
<!-- Node2 -->
<g id="node3" class="node"><title>Node2</title>
<g id="a_node3"><a xlink:title="STL class. ">
<polygon fill="white" stroke="#bfbfbf" points="5.68434e-14,-228.5 5.68434e-14,-247.5 78,-247.5 78,-228.5 5.68434e-14,-228.5"/>
<text text-anchor="middle" x="39" y="-235.5" font-family="Helvetica,sans-Serif" font-size="10.00">std::exception</text>
</a>
</g>
</g>
<!-- Node2&#45;&gt;Node1 -->
<g id="edge2" class="edge"><title>Node2&#45;&gt;Node1</title>
<path fill="none" stroke="midnightblue" d="M88.2839,-238C96.7733,-238 105.521,-238 113.745,-238"/>
<polygon fill="midnightblue" stroke="midnightblue" points="88.1096,-234.5 78.1096,-238 88.1096,-241.5 88.1096,-234.5"/>
</g>
</g>
</svg>
