<?xml version="1.0" encoding="UTF-8" standalone="no"?>
<!DOCTYPE svg PUBLIC "-//W3C//DTD SVG 1.1//EN"
 "http://www.w3.org/Graphics/SVG/1.1/DTD/svg11.dtd">
<!-- Generated by graphviz version 2.38.0 (20140413.2041)
 -->
<!-- Title: Uptane::PartialVerificationSecondary Pages: 1 -->
<svg width="153pt" height="342pt"
 viewBox="0.00 0.00 152.50 342.00" xmlns="http://www.w3.org/2000/svg" xmlns:xlink="http://www.w3.org/1999/xlink">
<g id="graph0" class="graph" transform="scale(1 1) rotate(0) translate(4 338)">
<title>Uptane::PartialVerificationSecondary</title>
<polygon fill="white" stroke="none" points="-4,4 -4,-338 148.5,-338 148.5,4 -4,4"/>
<!-- Node2 -->
<g id="node1" class="node"><title>Node2</title>
<polygon fill="#bfbfbf" stroke="black" points="4,-0.5 4,-30.5 135,-30.5 135,-0.5 4,-0.5"/>
<text text-anchor="start" x="12" y="-18.5" font-family="Helvetica,sans-Serif" font-size="10.00">Uptane::PartialVerification</text>
<text text-anchor="middle" x="69.5" y="-7.5" font-family="Helvetica,sans-Serif" font-size="10.00">Secondary</text>
</g>
<!-- Node3 -->
<g id="node2" class="node"><title>Node3</title>
<g id="a_node2"><a xlink:href="class_uptane_1_1_secondary_interface.html" target="_top" xlink:title="Uptane::SecondaryInterface">
<polygon fill="white" stroke="black" points="0,-68.5 0,-87.5 139,-87.5 139,-68.5 0,-68.5"/>
<text text-anchor="middle" x="69.5" y="-75.5" font-family="Helvetica,sans-Serif" font-size="10.00">Uptane::SecondaryInterface</text>
</a>
</g>
</g>
<!-- Node3&#45;&gt;Node2 -->
<g id="edge1" class="edge"><title>Node3&#45;&gt;Node2</title>
<path fill="none" stroke="midnightblue" d="M69.5,-58.2154C69.5,-49.3565 69.5,-38.9577 69.5,-30.7587"/>
<polygon fill="midnightblue" stroke="midnightblue" points="66.0001,-58.3318 69.5,-68.3318 73.0001,-58.3319 66.0001,-58.3318"/>
</g>
<!-- Node4 -->
<g id="node3" class="node"><title>Node4</title>
<g id="a_node3"><a xlink:href="class_uptane_1_1_secondary_config.html" target="_top" xlink:title="Uptane::SecondaryConfig">
<polygon fill="white" stroke="black" points="5,-135.5 5,-154.5 134,-154.5 134,-135.5 5,-135.5"/>
<text text-anchor="middle" x="69.5" y="-142.5" font-family="Helvetica,sans-Serif" font-size="10.00">Uptane::SecondaryConfig</text>
</a>
</g>
</g>
<!-- Node4&#45;&gt;Node3 -->
<g id="edge2" class="edge"><title>Node4&#45;&gt;Node3</title>
<path fill="none" stroke="#9a32cd" stroke-dasharray="5,2" d="M69.5,-125.037C69.5,-112.67 69.5,-97.1198 69.5,-87.6273"/>
<polygon fill="#9a32cd" stroke="#9a32cd" points="66.0001,-125.234 69.5,-135.234 73.0001,-125.234 66.0001,-125.234"/>
<text text-anchor="middle" x="87" y="-109" font-family="Helvetica,sans-Serif" font-size="10.00"> sconfig</text>
</g>
<!-- Node5 -->
<g id="node4" class="node"><title>Node5</title>
<g id="a_node4"><a xlink:title="STL class. ">
<polygon fill="white" stroke="#bfbfbf" points="39.5,-246.5 39.5,-265.5 99.5,-265.5 99.5,-246.5 39.5,-246.5"/>
<text text-anchor="middle" x="69.5" y="-253.5" font-family="Helvetica,sans-Serif" font-size="10.00">std::string</text>
</a>
</g>
</g>
<!-- Node5&#45;&gt;Node4 -->
<g id="edge3" class="edge"><title>Node5&#45;&gt;Node4</title>
<path fill="none" stroke="#9a32cd" stroke-dasharray="5,2" d="M69.5,-236.193C69.5,-212.276 69.5,-171.989 69.5,-154.513"/>
<polygon fill="#9a32cd" stroke="#9a32cd" points="66.0001,-236.447 69.5,-246.447 73.0001,-236.447 66.0001,-236.447"/>
<text text-anchor="middle" x="107" y="-220" font-family="Helvetica,sans-Serif" font-size="10.00"> ecu_private_key</text>
<text text-anchor="middle" x="107" y="-209" font-family="Helvetica,sans-Serif" font-size="10.00">ecu_hardware_id</text>
<text text-anchor="middle" x="107" y="-198" font-family="Helvetica,sans-Serif" font-size="10.00">ecu_serial</text>
<text text-anchor="middle" x="107" y="-187" font-family="Helvetica,sans-Serif" font-size="10.00">opcua_lds_url</text>
<text text-anchor="middle" x="107" y="-176" font-family="Helvetica,sans-Serif" font-size="10.00">ecu_public_key</text>
</g>
<!-- Node6 -->
<g id="node5" class="node"><title>Node6</title>
<g id="a_node5"><a xlink:title="STL class. ">
<polygon fill="white" stroke="#bfbfbf" points="22,-303.5 22,-333.5 117,-333.5 117,-303.5 22,-303.5"/>
<text text-anchor="start" x="30" y="-321.5" font-family="Helvetica,sans-Serif" font-size="10.00">std::basic_string&lt;</text>
<text text-anchor="middle" x="69.5" y="-310.5" font-family="Helvetica,sans-Serif" font-size="10.00"> char &gt;</text>
</a>
</g>
</g>
<!-- Node6&#45;&gt;Node5 -->
<g id="edge4" class="edge"><title>Node6&#45;&gt;Node5</title>
<path fill="none" stroke="midnightblue" d="M69.5,-293.352C69.5,-283.513 69.5,-272.775 69.5,-265.54"/>
<polygon fill="midnightblue" stroke="midnightblue" points="66.0001,-293.468 69.5,-303.468 73.0001,-293.468 66.0001,-293.468"/>
</g>
</g>
</svg>
