<?xml version="1.0" encoding="UTF-8" standalone="no"?>
<!DOCTYPE svg PUBLIC "-//W3C//DTD SVG 1.1//EN"
 "http://www.w3.org/Graphics/SVG/1.1/DTD/svg11.dtd">
<!-- Generated by graphviz version 2.38.0 (20140413.2041)
 -->
<!-- Title: INvStorage Pages: 1 -->
<svg width="177pt" height="140pt"
 viewBox="0.00 0.00 176.50 140.00" xmlns="http://www.w3.org/2000/svg" xmlns:xlink="http://www.w3.org/1999/xlink">
<g id="graph0" class="graph" transform="scale(1 1) rotate(0) translate(4 136)">
<title>INvStorage</title>
<polygon fill="white" stroke="none" points="-4,4 -4,-136 172.5,-136 172.5,4 -4,4"/>
<!-- Node0 -->
<g id="node1" class="node"><title>Node0</title>
<polygon fill="#bfbfbf" stroke="black" points="57.5,-112.5 57.5,-131.5 123.5,-131.5 123.5,-112.5 57.5,-112.5"/>
<text text-anchor="middle" x="90.5" y="-119.5" font-family="Helvetica,sans-Serif" font-size="10.00">INvStorage</text>
</g>
<!-- Node1 -->
<g id="node2" class="node"><title>Node1</title>
<g id="a_node2"><a xlink:href="class_f_s_storage.html" target="_top" xlink:title="FSStorage">
<polygon fill="white" stroke="black" points="17,-56.5 17,-75.5 80,-75.5 80,-56.5 17,-56.5"/>
<text text-anchor="middle" x="48.5" y="-63.5" font-family="Helvetica,sans-Serif" font-size="10.00">FSStorage</text>
</a>
</g>
</g>
<!-- Node0&#45;&gt;Node1 -->
<g id="edge1" class="edge"><title>Node0&#45;&gt;Node1</title>
<path fill="none" stroke="midnightblue" d="M77.3898,-104.144C70.0722,-94.7357 61.2591,-83.4046 55.3064,-75.7511"/>
<polygon fill="midnightblue" stroke="midnightblue" points="74.6624,-106.338 83.5646,-112.083 80.1878,-102.041 74.6624,-106.338"/>
</g>
<!-- Node3 -->
<g id="node4" class="node"><title>Node3</title>
<g id="a_node4"><a xlink:href="class_s_q_l_storage.html" target="_top" xlink:title="SQLStorage">
<polygon fill="white" stroke="black" points="98.5,-56.5 98.5,-75.5 168.5,-75.5 168.5,-56.5 98.5,-56.5"/>
<text text-anchor="middle" x="133.5" y="-63.5" font-family="Helvetica,sans-Serif" font-size="10.00">SQLStorage</text>
</a>
</g>
</g>
<!-- Node0&#45;&gt;Node3 -->
<g id="edge3" class="edge"><title>Node0&#45;&gt;Node3</title>
<path fill="none" stroke="midnightblue" d="M103.922,-104.144C111.414,-94.7357 120.437,-83.4046 126.532,-75.7511"/>
<polygon fill="midnightblue" stroke="midnightblue" points="101.092,-102.08 97.6006,-112.083 106.568,-106.44 101.092,-102.08"/>
</g>
<!-- Node2 -->
<g id="node3" class="node"><title>Node2</title>
<g id="a_node3"><a xlink:href="class_ephemeral_storage.html" target="_top" xlink:title="EphemeralStorage">
<polygon fill="white" stroke="black" points="-7.10543e-15,-0.5 -7.10543e-15,-19.5 97,-19.5 97,-0.5 -7.10543e-15,-0.5"/>
<text text-anchor="middle" x="48.5" y="-7.5" font-family="Helvetica,sans-Serif" font-size="10.00">EphemeralStorage</text>
</a>
</g>
</g>
<!-- Node1&#45;&gt;Node2 -->
<g id="edge2" class="edge"><title>Node1&#45;&gt;Node2</title>
<path fill="none" stroke="midnightblue" d="M48.5,-45.8045C48.5,-36.9102 48.5,-26.7798 48.5,-19.7511"/>
<polygon fill="midnightblue" stroke="midnightblue" points="45.0001,-46.083 48.5,-56.083 52.0001,-46.083 45.0001,-46.083"/>
</g>
</g>
</svg>
