<?xml version="1.0" encoding="UTF-8" standalone="no"?>
<!DOCTYPE svg PUBLIC "-//W3C//DTD SVG 1.1//EN"
 "http://www.w3.org/Graphics/SVG/1.1/DTD/svg11.dtd">
<!-- Generated by graphviz version 2.38.0 (20140413.2041)
 -->
<!-- Title: OSTreeRepo Pages: 1 -->
<svg width="204pt" height="84pt"
 viewBox="0.00 0.00 204.00 84.00" xmlns="http://www.w3.org/2000/svg" xmlns:xlink="http://www.w3.org/1999/xlink">
<g id="graph0" class="graph" transform="scale(1 1) rotate(0) translate(4 80)">
<title>OSTreeRepo</title>
<polygon fill="white" stroke="none" points="-4,4 -4,-80 200,-80 200,4 -4,4"/>
<!-- Node0 -->
<g id="node1" class="node"><title>Node0</title>
<polygon fill="#bfbfbf" stroke="black" points="59,-56.5 59,-75.5 133,-75.5 133,-56.5 59,-56.5"/>
<text text-anchor="middle" x="96" y="-63.5" font-family="Helvetica,sans-Serif" font-size="10.00">OSTreeRepo</text>
</g>
<!-- Node1 -->
<g id="node2" class="node"><title>Node1</title>
<g id="a_node2"><a xlink:href="class_o_s_tree_dir_repo.html" target="_top" xlink:title="OSTreeDirRepo">
<polygon fill="white" stroke="black" points="0,-0.5 0,-19.5 86,-19.5 86,-0.5 0,-0.5"/>
<text text-anchor="middle" x="43" y="-7.5" font-family="Helvetica,sans-Serif" font-size="10.00">OSTreeDirRepo</text>
</a>
</g>
</g>
<!-- Node0&#45;&gt;Node1 -->
<g id="edge1" class="edge"><title>Node0&#45;&gt;Node1</title>
<path fill="none" stroke="midnightblue" d="M80.0191,-48.7175C70.6775,-39.1997 59.2541,-27.5608 51.589,-19.7511"/>
<polygon fill="midnightblue" stroke="midnightblue" points="77.7455,-51.3978 87.2481,-56.083 82.7413,-46.4945 77.7455,-51.3978"/>
</g>
<!-- Node2 -->
<g id="node3" class="node"><title>Node2</title>
<g id="a_node3"><a xlink:href="class_o_s_tree_http_repo.html" target="_top" xlink:title="OSTreeHttpRepo">
<polygon fill="white" stroke="black" points="104,-0.5 104,-19.5 196,-19.5 196,-0.5 104,-0.5"/>
<text text-anchor="middle" x="150" y="-7.5" font-family="Helvetica,sans-Serif" font-size="10.00">OSTreeHttpRepo</text>
</a>
</g>
</g>
<!-- Node0&#45;&gt;Node2 -->
<g id="edge2" class="edge"><title>Node0&#45;&gt;Node2</title>
<path fill="none" stroke="midnightblue" d="M111.998,-49.0024C121.567,-39.4329 133.361,-27.6389 141.249,-19.7511"/>
<polygon fill="midnightblue" stroke="midnightblue" points="109.513,-46.537 104.917,-56.083 114.463,-51.4868 109.513,-46.537"/>
</g>
</g>
</svg>
