<?xml version="1.0" encoding="UTF-8" standalone="no"?>
<!DOCTYPE svg PUBLIC "-//W3C//DTD SVG 1.1//EN"
 "http://www.w3.org/Graphics/SVG/1.1/DTD/svg11.dtd">
<!-- Generated by graphviz version 2.38.0 (20140413.2041)
 -->
<!-- Title: Uptane::ManagedSecondary Pages: 1 -->
<svg width="286pt" height="140pt"
 viewBox="0.00 0.00 286.00 140.00" xmlns="http://www.w3.org/2000/svg" xmlns:xlink="http://www.w3.org/1999/xlink">
<g id="graph0" class="graph" transform="scale(1 1) rotate(0) translate(4 136)">
<title>Uptane::ManagedSecondary</title>
<polygon fill="white" stroke="none" points="-4,4 -4,-136 282,-136 282,4 -4,4"/>
<!-- Node0 -->
<g id="node1" class="node"><title>Node0</title>
<polygon fill="#bfbfbf" stroke="black" points="70,-56.5 70,-75.5 210,-75.5 210,-56.5 70,-56.5"/>
<text text-anchor="middle" x="140" y="-63.5" font-family="Helvetica,sans-Serif" font-size="10.00">Uptane::ManagedSecondary</text>
</g>
<!-- Node2 -->
<g id="node3" class="node"><title>Node2</title>
<g id="a_node3"><a xlink:href="class_uptane_1_1_legacy_secondary.html" target="_top" xlink:title="Uptane::LegacySecondary">
<polygon fill="white" stroke="black" points="0,-0.5 0,-19.5 132,-19.5 132,-0.5 0,-0.5"/>
<text text-anchor="middle" x="66" y="-7.5" font-family="Helvetica,sans-Serif" font-size="10.00">Uptane::LegacySecondary</text>
</a>
</g>
</g>
<!-- Node0&#45;&gt;Node2 -->
<g id="edge2" class="edge"><title>Node0&#45;&gt;Node2</title>
<path fill="none" stroke="midnightblue" d="M119.966,-50.3804C106.591,-40.6204 89.4412,-28.1057 78.1057,-19.8339"/>
<polygon fill="midnightblue" stroke="midnightblue" points="117.97,-53.2565 128.111,-56.324 122.096,-47.602 117.97,-53.2565"/>
</g>
<!-- Node3 -->
<g id="node4" class="node"><title>Node3</title>
<g id="a_node4"><a xlink:href="class_uptane_1_1_virtual_secondary.html" target="_top" xlink:title="Uptane::VirtualSecondary">
<polygon fill="white" stroke="black" points="150,-0.5 150,-19.5 278,-19.5 278,-0.5 150,-0.5"/>
<text text-anchor="middle" x="214" y="-7.5" font-family="Helvetica,sans-Serif" font-size="10.00">Uptane::VirtualSecondary</text>
</a>
</g>
</g>
<!-- Node0&#45;&gt;Node3 -->
<g id="edge3" class="edge"><title>Node0&#45;&gt;Node3</title>
<path fill="none" stroke="midnightblue" d="M160.034,-50.3804C173.409,-40.6204 190.559,-28.1057 201.894,-19.8339"/>
<polygon fill="midnightblue" stroke="midnightblue" points="157.904,-47.602 151.889,-56.324 162.03,-53.2565 157.904,-47.602"/>
</g>
<!-- Node1 -->
<g id="node2" class="node"><title>Node1</title>
<g id="a_node2"><a xlink:href="class_uptane_1_1_secondary_interface.html" target="_top" xlink:title="Uptane::SecondaryInterface">
<polygon fill="white" stroke="black" points="70.5,-112.5 70.5,-131.5 209.5,-131.5 209.5,-112.5 70.5,-112.5"/>
<text text-anchor="middle" x="140" y="-119.5" font-family="Helvetica,sans-Serif" font-size="10.00">Uptane::SecondaryInterface</text>
</a>
</g>
</g>
<!-- Node1&#45;&gt;Node0 -->
<g id="edge1" class="edge"><title>Node1&#45;&gt;Node0</title>
<path fill="none" stroke="midnightblue" d="M140,-101.805C140,-92.9102 140,-82.7798 140,-75.7511"/>
<polygon fill="midnightblue" stroke="midnightblue" points="136.5,-102.083 140,-112.083 143.5,-102.083 136.5,-102.083"/>
</g>
</g>
</svg>
