<?xml version="1.0" encoding="UTF-8" standalone="no"?>
<!DOCTYPE svg PUBLIC "-//W3C//DTD SVG 1.1//EN"
 "http://www.w3.org/Graphics/SVG/1.1/DTD/svg11.dtd">
<!-- Generated by graphviz version 2.38.0 (20140413.2041)
 -->
<!-- Title: opcuabridge::FileData Pages: 1 -->
<svg width="403pt" height="148pt"
 viewBox="0.00 0.00 403.00 148.00" xmlns="http://www.w3.org/2000/svg" xmlns:xlink="http://www.w3.org/1999/xlink">
<g id="graph0" class="graph" transform="scale(1 1) rotate(0) translate(4 144)">
<title>opcuabridge::FileData</title>
<polygon fill="white" stroke="none" points="-4,4 -4,-144 399,-144 399,4 -4,4"/>
<!-- Node2 -->
<g id="node1" class="node"><title>Node2</title>
<polygon fill="#bfbfbf" stroke="black" points="283,-71.5 283,-90.5 395,-90.5 395,-71.5 283,-71.5"/>
<text text-anchor="middle" x="339" y="-78.5" font-family="Helvetica,sans-Serif" font-size="10.00">opcuabridge::FileData</text>
</g>
<!-- Node3 -->
<g id="node2" class="node"><title>Node3</title>
<g id="a_node2"><a xlink:href="structopcuabridge_1_1_message_file_data.html" target="_top" xlink:title="opcuabridge::MessageFileData">
<polygon fill="white" stroke="black" points="2,-120.5 2,-139.5 154,-139.5 154,-120.5 2,-120.5"/>
<text text-anchor="middle" x="78" y="-127.5" font-family="Helvetica,sans-Serif" font-size="10.00">opcuabridge::MessageFileData</text>
</a>
</g>
</g>
<!-- Node3&#45;&gt;Node2 -->
<g id="edge1" class="edge"><title>Node3&#45;&gt;Node2</title>
<path fill="none" stroke="midnightblue" d="M142.647,-118.721C178.602,-112.26 224.351,-103.891 265,-96 273.891,-94.2742 283.378,-92.3706 292.47,-90.5156"/>
<polygon fill="midnightblue" stroke="midnightblue" points="142.004,-115.28 132.778,-120.49 143.239,-122.17 142.004,-115.28"/>
</g>
<!-- Node4 -->
<g id="node3" class="node"><title>Node4</title>
<g id="a_node3"><a xlink:href="structopcuabridge_1_1_message_on_after_write_callback.html" target="_top" xlink:title="opcuabridge::MessageOnAfter\lWriteCallback\&lt; opcuabridge\l::FileData \&gt;">
<polygon fill="white" stroke="black" points="3.5,-60.5 3.5,-101.5 152.5,-101.5 152.5,-60.5 3.5,-60.5"/>
<text text-anchor="start" x="11.5" y="-89.5" font-family="Helvetica,sans-Serif" font-size="10.00">opcuabridge::MessageOnAfter</text>
<text text-anchor="start" x="11.5" y="-78.5" font-family="Helvetica,sans-Serif" font-size="10.00">WriteCallback&lt; opcuabridge</text>
<text text-anchor="middle" x="78" y="-67.5" font-family="Helvetica,sans-Serif" font-size="10.00">::FileData &gt;</text>
</a>
</g>
</g>
<!-- Node4&#45;&gt;Node2 -->
<g id="edge2" class="edge"><title>Node4&#45;&gt;Node2</title>
<path fill="none" stroke="#9a32cd" stroke-dasharray="5,2" d="M162.649,-81C202.02,-81 247.884,-81 282.83,-81"/>
<polygon fill="#9a32cd" stroke="#9a32cd" points="162.526,-77.5001 152.526,-81 162.526,-84.5001 162.526,-77.5001"/>
<text text-anchor="middle" x="219.5" y="-84" font-family="Helvetica,sans-Serif" font-size="10.00"> on_after_write_cb_</text>
</g>
<!-- Node5 -->
<g id="node4" class="node"><title>Node5</title>
<g id="a_node4"><a xlink:href="structopcuabridge_1_1_message_on_before_read_callback.html" target="_top" xlink:title="opcuabridge::MessageOnBefore\lReadCallback\&lt; opcuabridge\l::FileData \&gt;">
<polygon fill="white" stroke="black" points="0,-0.5 0,-41.5 156,-41.5 156,-0.5 0,-0.5"/>
<text text-anchor="start" x="8" y="-29.5" font-family="Helvetica,sans-Serif" font-size="10.00">opcuabridge::MessageOnBefore</text>
<text text-anchor="start" x="8" y="-18.5" font-family="Helvetica,sans-Serif" font-size="10.00">ReadCallback&lt; opcuabridge</text>
<text text-anchor="middle" x="78" y="-7.5" font-family="Helvetica,sans-Serif" font-size="10.00">::FileData &gt;</text>
</a>
</g>
</g>
<!-- Node5&#45;&gt;Node2 -->
<g id="edge3" class="edge"><title>Node5&#45;&gt;Node2</title>
<path fill="none" stroke="#9a32cd" stroke-dasharray="5,2" d="M165.907,-41.1329C210.148,-51.3819 261.854,-63.3599 296.954,-71.4913"/>
<polygon fill="#9a32cd" stroke="#9a32cd" points="166.539,-37.6867 156.007,-38.8395 164.959,-44.5061 166.539,-37.6867"/>
<text text-anchor="middle" x="219.5" y="-66" font-family="Helvetica,sans-Serif" font-size="10.00"> on_before_read_cb_</text>
</g>
</g>
</svg>
