<?xml version="1.0" encoding="UTF-8" standalone="no"?>
<!DOCTYPE svg PUBLIC "-//W3C//DTD SVG 1.1//EN"
 "http://www.w3.org/Graphics/SVG/1.1/DTD/svg11.dtd">
<!-- Generated by graphviz version 2.38.0 (20140413.2041)
 -->
<!-- Title: opcuabridge::ImageRequest Pages: 1 -->
<svg width="562pt" height="154pt"
 viewBox="0.00 0.00 562.00 153.50" xmlns="http://www.w3.org/2000/svg" xmlns:xlink="http://www.w3.org/1999/xlink">
<g id="graph0" class="graph" transform="scale(1 1) rotate(0) translate(4 149.5)">
<title>opcuabridge::ImageRequest</title>
<polygon fill="white" stroke="none" points="-4,4 -4,-149.5 558,-149.5 558,4 -4,4"/>
<!-- Node1 -->
<g id="node1" class="node"><title>Node1</title>
<polygon fill="#bfbfbf" stroke="black" points="415,-55 415,-74 554,-74 554,-55 415,-55"/>
<text text-anchor="middle" x="484.5" y="-62" font-family="Helvetica,sans-Serif" font-size="10.00">opcuabridge::ImageRequest</text>
</g>
<!-- Node2 -->
<g id="node2" class="node"><title>Node2</title>
<g id="a_node2"><a xlink:href="structopcuabridge_1_1_message_on_after_write_callback.html" target="_top" xlink:title="opcuabridge::MessageOnAfter\lWriteCallback\&lt; opcuabridge\l::ImageRequest \&gt;">
<polygon fill="white" stroke="black" points="135.5,-104 135.5,-145 284.5,-145 284.5,-104 135.5,-104"/>
<text text-anchor="start" x="143.5" y="-133" font-family="Helvetica,sans-Serif" font-size="10.00">opcuabridge::MessageOnAfter</text>
<text text-anchor="start" x="143.5" y="-122" font-family="Helvetica,sans-Serif" font-size="10.00">WriteCallback&lt; opcuabridge</text>
<text text-anchor="middle" x="210" y="-111" font-family="Helvetica,sans-Serif" font-size="10.00">::ImageRequest &gt;</text>
</a>
</g>
</g>
<!-- Node2&#45;&gt;Node1 -->
<g id="edge1" class="edge"><title>Node2&#45;&gt;Node1</title>
<path fill="none" stroke="#9a32cd" stroke-dasharray="5,2" d="M294.541,-106.106C342.713,-95.499 401.277,-82.6041 440.317,-74.0082"/>
<polygon fill="#9a32cd" stroke="#9a32cd" points="293.756,-102.695 284.742,-108.263 295.261,-109.531 293.756,-102.695"/>
<text text-anchor="middle" x="351.5" y="-105.5" font-family="Helvetica,sans-Serif" font-size="10.00"> on_after_write_cb_</text>
</g>
<!-- Node3 -->
<g id="node3" class="node"><title>Node3</title>
<g id="a_node3"><a xlink:href="structopcuabridge_1_1_message_on_before_read_callback.html" target="_top" xlink:title="opcuabridge::MessageOnBefore\lReadCallback\&lt; opcuabridge\l::ImageRequest \&gt;">
<polygon fill="white" stroke="black" points="132,-44 132,-85 288,-85 288,-44 132,-44"/>
<text text-anchor="start" x="140" y="-73" font-family="Helvetica,sans-Serif" font-size="10.00">opcuabridge::MessageOnBefore</text>
<text text-anchor="start" x="140" y="-62" font-family="Helvetica,sans-Serif" font-size="10.00">ReadCallback&lt; opcuabridge</text>
<text text-anchor="middle" x="210" y="-51" font-family="Helvetica,sans-Serif" font-size="10.00">::ImageRequest &gt;</text>
</a>
</g>
</g>
<!-- Node3&#45;&gt;Node1 -->
<g id="edge2" class="edge"><title>Node3&#45;&gt;Node1</title>
<path fill="none" stroke="#9a32cd" stroke-dasharray="5,2" d="M298.795,-64.5C336.367,-64.5 379.591,-64.5 414.775,-64.5"/>
<polygon fill="#9a32cd" stroke="#9a32cd" points="298.359,-61.0001 288.359,-64.5 298.359,-68.0001 298.359,-61.0001"/>
<text text-anchor="middle" x="351.5" y="-67.5" font-family="Helvetica,sans-Serif" font-size="10.00"> on_before_read_cb_</text>
</g>
<!-- Node4 -->
<g id="node4" class="node"><title>Node4</title>
<g id="a_node4"><a xlink:title="STL class. ">
<polygon fill="white" stroke="#bfbfbf" points="180,-6 180,-25 240,-25 240,-6 180,-6"/>
<text text-anchor="middle" x="210" y="-13" font-family="Helvetica,sans-Serif" font-size="10.00">std::string</text>
</a>
</g>
</g>
<!-- Node4&#45;&gt;Node1 -->
<g id="edge3" class="edge"><title>Node4&#45;&gt;Node1</title>
<path fill="none" stroke="#9a32cd" stroke-dasharray="5,2" d="M250.045,-22.5209C297.45,-31.0452 377.613,-45.4597 430.55,-54.9788"/>
<polygon fill="#9a32cd" stroke="#9a32cd" points="250.624,-19.069 240.162,-20.7439 249.385,-25.9585 250.624,-19.069"/>
<text text-anchor="middle" x="351.5" y="-51.5" font-family="Helvetica,sans-Serif" font-size="10.00"> filename_</text>
</g>
<!-- Node5 -->
<g id="node5" class="node"><title>Node5</title>
<g id="a_node5"><a xlink:title="STL class. ">
<polygon fill="white" stroke="#bfbfbf" points="0,-0.5 0,-30.5 95,-30.5 95,-0.5 0,-0.5"/>
<text text-anchor="start" x="8" y="-18.5" font-family="Helvetica,sans-Serif" font-size="10.00">std::basic_string&lt;</text>
<text text-anchor="middle" x="47.5" y="-7.5" font-family="Helvetica,sans-Serif" font-size="10.00"> char &gt;</text>
</a>
</g>
</g>
<!-- Node5&#45;&gt;Node4 -->
<g id="edge4" class="edge"><title>Node5&#45;&gt;Node4</title>
<path fill="none" stroke="midnightblue" d="M105.482,-15.5C130.51,-15.5 158.842,-15.5 179.531,-15.5"/>
<polygon fill="midnightblue" stroke="midnightblue" points="105.355,-12.0001 95.3547,-15.5 105.355,-19.0001 105.355,-12.0001"/>
</g>
</g>
</svg>
