<?xml version="1.0" encoding="UTF-8" standalone="no"?>
<!DOCTYPE svg PUBLIC "-//W3C//DTD SVG 1.1//EN"
 "http://www.w3.org/Graphics/SVG/1.1/DTD/svg11.dtd">
<!-- Generated by graphviz version 2.38.0 (20140413.2041)
 -->
<!-- Title: event::Error Pages: 1 -->
<svg width="196pt" height="220pt"
 viewBox="0.00 0.00 196.00 220.00" xmlns="http://www.w3.org/2000/svg" xmlns:xlink="http://www.w3.org/1999/xlink">
<g id="graph0" class="graph" transform="scale(1 1) rotate(0) translate(4 216)">
<title>event::Error</title>
<polygon fill="white" stroke="none" points="-4,4 -4,-216 192,-216 192,4 -4,4"/>
<!-- Node2 -->
<g id="node1" class="node"><title>Node2</title>
<polygon fill="#bfbfbf" stroke="black" points="30.5,-0.5 30.5,-19.5 98.5,-19.5 98.5,-0.5 30.5,-0.5"/>
<text text-anchor="middle" x="64.5" y="-7.5" font-family="Helvetica,sans-Serif" font-size="10.00">event::Error</text>
</g>
<!-- Node3 -->
<g id="node2" class="node"><title>Node3</title>
<g id="a_node2"><a xlink:href="classevent_1_1_base_event.html" target="_top" xlink:title="Base class for all event objects. ">
<polygon fill="white" stroke="black" points="93,-57.5 93,-76.5 188,-76.5 188,-57.5 93,-57.5"/>
<text text-anchor="middle" x="140.5" y="-64.5" font-family="Helvetica,sans-Serif" font-size="10.00">event::BaseEvent</text>
</a>
</g>
</g>
<!-- Node3&#45;&gt;Node2 -->
<g id="edge1" class="edge"><title>Node3&#45;&gt;Node2</title>
<path fill="none" stroke="midnightblue" d="M120.169,-51.287C106.244,-41.2095 88.2466,-28.1851 76.5424,-19.7149"/>
<polygon fill="midnightblue" stroke="midnightblue" points="118.472,-54.3789 128.625,-57.4062 122.576,-48.7081 118.472,-54.3789"/>
</g>
<!-- Node4 -->
<g id="node3" class="node"><title>Node4</title>
<g id="a_node3"><a xlink:title="STL class. ">
<polygon fill="white" stroke="#bfbfbf" points="17.5,-124.5 17.5,-143.5 77.5,-143.5 77.5,-124.5 17.5,-124.5"/>
<text text-anchor="middle" x="47.5" y="-131.5" font-family="Helvetica,sans-Serif" font-size="10.00">std::string</text>
</a>
</g>
</g>
<!-- Node4&#45;&gt;Node2 -->
<g id="edge4" class="edge"><title>Node4&#45;&gt;Node2</title>
<path fill="none" stroke="#9a32cd" stroke-dasharray="5,2" d="M42.8991,-114.537C39.7702,-98.9941 36.9486,-76.2799 41.5,-57 44.7822,-43.0962 52.9461,-28.6034 58.6074,-19.689"/>
<polygon fill="#9a32cd" stroke="#9a32cd" points="39.517,-115.449 45.1308,-124.435 46.3456,-113.91 39.517,-115.449"/>
<text text-anchor="middle" x="63" y="-64.5" font-family="Helvetica,sans-Serif" font-size="10.00"> message</text>
</g>
<!-- Node4&#45;&gt;Node3 -->
<g id="edge2" class="edge"><title>Node4&#45;&gt;Node3</title>
<path fill="none" stroke="#9a32cd" stroke-dasharray="5,2" d="M68.3612,-118.42C86.7467,-105.569 112.912,-87.2821 128.156,-76.6273"/>
<polygon fill="#9a32cd" stroke="#9a32cd" points="66.2338,-115.636 60.0424,-124.234 70.2439,-121.374 66.2338,-115.636"/>
<text text-anchor="middle" x="116" y="-98" font-family="Helvetica,sans-Serif" font-size="10.00"> variant</text>
</g>
<!-- Node5 -->
<g id="node4" class="node"><title>Node5</title>
<g id="a_node4"><a xlink:title="STL class. ">
<polygon fill="white" stroke="#bfbfbf" points="0,-181.5 0,-211.5 95,-211.5 95,-181.5 0,-181.5"/>
<text text-anchor="start" x="8" y="-199.5" font-family="Helvetica,sans-Serif" font-size="10.00">std::basic_string&lt;</text>
<text text-anchor="middle" x="47.5" y="-188.5" font-family="Helvetica,sans-Serif" font-size="10.00"> char &gt;</text>
</a>
</g>
</g>
<!-- Node5&#45;&gt;Node4 -->
<g id="edge3" class="edge"><title>Node5&#45;&gt;Node4</title>
<path fill="none" stroke="midnightblue" d="M47.5,-171.352C47.5,-161.513 47.5,-150.775 47.5,-143.54"/>
<polygon fill="midnightblue" stroke="midnightblue" points="44.0001,-171.468 47.5,-181.468 51.0001,-171.468 44.0001,-171.468"/>
</g>
</g>
</svg>
