<?xml version="1.0" encoding="UTF-8" standalone="no"?>
<!DOCTYPE svg PUBLIC "-//W3C//DTD SVG 1.1//EN"
 "http://www.w3.org/Graphics/SVG/1.1/DTD/svg11.dtd">
<!-- Generated by graphviz version 2.38.0 (20140413.2041)
 -->
<!-- Title: AktualizrSecondaryCommon Pages: 1 -->
<svg width="258pt" height="84pt"
 viewBox="0.00 0.00 257.50 84.00" xmlns="http://www.w3.org/2000/svg" xmlns:xlink="http://www.w3.org/1999/xlink">
<g id="graph0" class="graph" transform="scale(1 1) rotate(0) translate(4 80)">
<title>AktualizrSecondaryCommon</title>
<polygon fill="white" stroke="none" points="-4,4 -4,-80 253.5,-80 253.5,4 -4,4"/>
<!-- Node0 -->
<g id="node1" class="node"><title>Node0</title>
<polygon fill="#bfbfbf" stroke="black" points="47,-56.5 47,-75.5 188,-75.5 188,-56.5 47,-56.5"/>
<text text-anchor="middle" x="117.5" y="-63.5" font-family="Helvetica,sans-Serif" font-size="10.00">AktualizrSecondaryCommon</text>
</g>
<!-- Node1 -->
<g id="node2" class="node"><title>Node1</title>
<g id="a_node2"><a xlink:href="class_aktualizr_secondary.html" target="_top" xlink:title="AktualizrSecondary">
<polygon fill="white" stroke="black" points="0,-0.5 0,-19.5 101,-19.5 101,-0.5 0,-0.5"/>
<text text-anchor="middle" x="50.5" y="-7.5" font-family="Helvetica,sans-Serif" font-size="10.00">AktualizrSecondary</text>
</a>
</g>
</g>
<!-- Node0&#45;&gt;Node1 -->
<g id="edge1" class="edge"><title>Node0&#45;&gt;Node1</title>
<path fill="none" stroke="#8b1a1a" d="M98.6652,-49.8197C86.6616,-40.1452 71.5283,-27.9481 61.4606,-19.8339"/>
<polygon fill="#8b1a1a" stroke="#8b1a1a" points="96.753,-52.7738 106.735,-56.324 101.146,-47.3236 96.753,-52.7738"/>
</g>
<!-- Node2 -->
<g id="node3" class="node"><title>Node2</title>
<g id="a_node3"><a xlink:href="class_aktualizr_secondary_opcua.html" target="_top" xlink:title="AktualizrSecondaryOpcua">
<polygon fill="white" stroke="black" points="119.5,-0.5 119.5,-19.5 249.5,-19.5 249.5,-0.5 119.5,-0.5"/>
<text text-anchor="middle" x="184.5" y="-7.5" font-family="Helvetica,sans-Serif" font-size="10.00">AktualizrSecondaryOpcua</text>
</a>
</g>
</g>
<!-- Node0&#45;&gt;Node2 -->
<g id="edge2" class="edge"><title>Node0&#45;&gt;Node2</title>
<path fill="none" stroke="#8b1a1a" d="M136.335,-49.8197C148.338,-40.1452 163.472,-27.9481 173.539,-19.8339"/>
<polygon fill="#8b1a1a" stroke="#8b1a1a" points="133.854,-47.3236 128.265,-56.324 138.247,-52.7738 133.854,-47.3236"/>
</g>
</g>
</svg>
