<?xml version="1.0" encoding="UTF-8" standalone="no"?>
<!DOCTYPE svg PUBLIC "-//W3C//DTD SVG 1.1//EN"
 "http://www.w3.org/Graphics/SVG/1.1/DTD/svg11.dtd">
<!-- Generated by graphviz version 2.40.1 (20161225.0304)
 -->
<!-- Title: event::NothingToDownload Pages: 1 -->
<svg width="143pt" height="220pt"
 viewBox="0.00 0.00 143.00 220.00" xmlns="http://www.w3.org/2000/svg" xmlns:xlink="http://www.w3.org/1999/xlink">
<g id="graph0" class="graph" transform="scale(1 1) rotate(0) translate(4 216)">
<title>event::NothingToDownload</title>
<polygon fill="#ffffff" stroke="transparent" points="-4,4 -4,-216 139,-216 139,4 -4,4"/>
<!-- Node2 -->
<g id="node1" class="node">
<title>Node2</title>
<polygon fill="#bfbfbf" stroke="#000000" points="0,-.5 0,-19.5 135,-19.5 135,-.5 0,-.5"/>
<text text-anchor="middle" x="67.5" y="-7.5" font-family="Helvetica,sans-Serif" font-size="10.00" fill="#000000">event::NothingToDownload</text>
</g>
<!-- Node3 -->
<g id="node2" class="node">
<title>Node3</title>
<g id="a_node2"><a xlink:href="classevent_1_1_base_event.html" target="_top" xlink:title="Base class for all event objects. ">
<polygon fill="#ffffff" stroke="#000000" points="20,-57.5 20,-76.5 115,-76.5 115,-57.5 20,-57.5"/>
<text text-anchor="middle" x="67.5" y="-64.5" font-family="Helvetica,sans-Serif" font-size="10.00" fill="#000000">event::BaseEvent</text>
</a>
</g>
</g>
<!-- Node3&#45;&gt;Node2 -->
<g id="edge1" class="edge">
<title>Node3&#45;&gt;Node2</title>
<path fill="none" stroke="#191970" d="M67.5,-47.2342C67.5,-37.8491 67.5,-27.0651 67.5,-19.5265"/>
<polygon fill="#191970" stroke="#191970" points="64.0001,-47.3307 67.5,-57.3307 71.0001,-47.3308 64.0001,-47.3307"/>
</g>
<!-- Node4 -->
<g id="node3" class="node">
<title>Node4</title>
<g id="a_node3"><a xlink:title="STL class. ">
<polygon fill="#ffffff" stroke="#bfbfbf" points="37.5,-124.5 37.5,-143.5 97.5,-143.5 97.5,-124.5 37.5,-124.5"/>
<text text-anchor="middle" x="67.5" y="-131.5" font-family="Helvetica,sans-Serif" font-size="10.00" fill="#000000">std::string</text>
</a>
</g>
</g>
<!-- Node4&#45;&gt;Node3 -->
<g id="edge2" class="edge">
<title>Node4&#45;&gt;Node3</title>
<path fill="none" stroke="#9a32cd" stroke-dasharray="5,2" d="M67.5,-114.1079C67.5,-101.714 67.5,-86.3263 67.5,-76.5817"/>
<polygon fill="#9a32cd" stroke="#9a32cd" points="64.0001,-114.4005 67.5,-124.4005 71.0001,-114.4006 64.0001,-114.4005"/>
<text text-anchor="middle" x="84" y="-98" font-family="Helvetica,sans-Serif" font-size="10.00" fill="#000000"> variant</text>
</g>
<!-- Node5 -->
<g id="node4" class="node">
<title>Node5</title>
<g id="a_node4"><a xlink:title="STL class. ">
<polygon fill="#ffffff" stroke="#bfbfbf" points="20,-181.5 20,-211.5 115,-211.5 115,-181.5 20,-181.5"/>
<text text-anchor="start" x="28" y="-199.5" font-family="Helvetica,sans-Serif" font-size="10.00" fill="#000000">std::basic_string&lt;</text>
<text text-anchor="middle" x="67.5" y="-188.5" font-family="Helvetica,sans-Serif" font-size="10.00" fill="#000000"> char &gt;</text>
</a>
</g>
</g>
<!-- Node5&#45;&gt;Node4 -->
<g id="edge3" class="edge">
<title>Node5&#45;&gt;Node4</title>
<path fill="none" stroke="#191970" d="M67.5,-171.3498C67.5,-161.6481 67.5,-151.1303 67.5,-143.7356"/>
<polygon fill="#191970" stroke="#191970" points="64.0001,-171.3705 67.5,-181.3705 71.0001,-171.3705 64.0001,-171.3705"/>
</g>
</g>
</svg>
