<?xml version="1.0" encoding="UTF-8" standalone="no"?>
<!DOCTYPE svg PUBLIC "-//W3C//DTD SVG 1.1//EN"
 "http://www.w3.org/Graphics/SVG/1.1/DTD/svg11.dtd">
<!-- Generated by graphviz version 2.38.0 (20140413.2041)
 -->
<!-- Title: Uptane::BaseMeta Pages: 1 -->
<svg width="444pt" height="84pt"
 viewBox="0.00 0.00 444.00 84.00" xmlns="http://www.w3.org/2000/svg" xmlns:xlink="http://www.w3.org/1999/xlink">
<g id="graph0" class="graph" transform="scale(1 1) rotate(0) translate(4 80)">
<title>Uptane::BaseMeta</title>
<polygon fill="white" stroke="none" points="-4,4 -4,-80 440,-80 440,4 -4,4"/>
<!-- Node0 -->
<g id="node1" class="node"><title>Node0</title>
<polygon fill="#bfbfbf" stroke="black" points="145.5,-56.5 145.5,-75.5 243.5,-75.5 243.5,-56.5 145.5,-56.5"/>
<text text-anchor="middle" x="194.5" y="-63.5" font-family="Helvetica,sans-Serif" font-size="10.00">Uptane::BaseMeta</text>
</g>
<!-- Node1 -->
<g id="node2" class="node"><title>Node1</title>
<g id="a_node2"><a xlink:href="class_uptane_1_1_root.html" target="_top" xlink:title="Uptane::Root">
<polygon fill="white" stroke="black" points="0,-0.5 0,-19.5 75,-19.5 75,-0.5 0,-0.5"/>
<text text-anchor="middle" x="37.5" y="-7.5" font-family="Helvetica,sans-Serif" font-size="10.00">Uptane::Root</text>
</a>
</g>
</g>
<!-- Node0&#45;&gt;Node1 -->
<g id="edge1" class="edge"><title>Node0&#45;&gt;Node1</title>
<path fill="none" stroke="midnightblue" d="M160.111,-53.172C130.548,-43.0039 88.6272,-28.5852 62.2607,-19.5164"/>
<polygon fill="midnightblue" stroke="midnightblue" points="159.028,-56.5007 169.623,-56.4435 161.305,-49.8813 159.028,-56.5007"/>
</g>
<!-- Node2 -->
<g id="node3" class="node"><title>Node2</title>
<g id="a_node3"><a xlink:href="class_uptane_1_1_snapshot.html" target="_top" xlink:title="Uptane::Snapshot">
<polygon fill="white" stroke="black" points="93,-0.5 93,-19.5 188,-19.5 188,-0.5 93,-0.5"/>
<text text-anchor="middle" x="140.5" y="-7.5" font-family="Helvetica,sans-Serif" font-size="10.00">Uptane::Snapshot</text>
</a>
</g>
</g>
<!-- Node0&#45;&gt;Node2 -->
<g id="edge2" class="edge"><title>Node0&#45;&gt;Node2</title>
<path fill="none" stroke="midnightblue" d="M178.502,-49.0024C168.933,-39.4329 157.139,-27.6389 149.251,-19.7511"/>
<polygon fill="midnightblue" stroke="midnightblue" points="176.037,-51.4868 185.583,-56.083 180.987,-46.537 176.037,-51.4868"/>
</g>
<!-- Node3 -->
<g id="node4" class="node"><title>Node3</title>
<g id="a_node4"><a xlink:href="class_uptane_1_1_targets.html" target="_top" xlink:title="Uptane::Targets">
<polygon fill="white" stroke="black" points="206,-0.5 206,-19.5 293,-19.5 293,-0.5 206,-0.5"/>
<text text-anchor="middle" x="249.5" y="-7.5" font-family="Helvetica,sans-Serif" font-size="10.00">Uptane::Targets</text>
</a>
</g>
</g>
<!-- Node0&#45;&gt;Node3 -->
<g id="edge3" class="edge"><title>Node0&#45;&gt;Node3</title>
<path fill="none" stroke="midnightblue" d="M210.794,-49.0024C220.541,-39.4329 232.553,-27.6389 240.587,-19.7511"/>
<polygon fill="midnightblue" stroke="midnightblue" points="208.266,-46.5796 203.582,-56.083 213.17,-51.5746 208.266,-46.5796"/>
</g>
<!-- Node4 -->
<g id="node5" class="node"><title>Node4</title>
<g id="a_node5"><a xlink:href="class_uptane_1_1_timestamp_meta.html" target="_top" xlink:title="Uptane::TimestampMeta">
<polygon fill="white" stroke="black" points="311,-0.5 311,-19.5 436,-19.5 436,-0.5 311,-0.5"/>
<text text-anchor="middle" x="373.5" y="-7.5" font-family="Helvetica,sans-Serif" font-size="10.00">Uptane::TimestampMeta</text>
</a>
</g>
</g>
<!-- Node0&#45;&gt;Node4 -->
<g id="edge4" class="edge"><title>Node0&#45;&gt;Node4</title>
<path fill="none" stroke="midnightblue" d="M232.831,-53.4363C266.58,-43.2551 314.947,-28.664 345.27,-19.5164"/>
<polygon fill="midnightblue" stroke="midnightblue" points="231.426,-50.2044 222.863,-56.4435 233.448,-56.9061 231.426,-50.2044"/>
</g>
</g>
</svg>
