<?xml version="1.0" encoding="UTF-8" standalone="no"?>
<!DOCTYPE svg PUBLIC "-//W3C//DTD SVG 1.1//EN"
 "http://www.w3.org/Graphics/SVG/1.1/DTD/svg11.dtd">
<!-- Generated by graphviz version 2.38.0 (20140413.2041)
 -->
<!-- Title: asn1::Token Pages: 1 -->
<svg width="373pt" height="84pt"
 viewBox="0.00 0.00 373.00 84.00" xmlns="http://www.w3.org/2000/svg" xmlns:xlink="http://www.w3.org/1999/xlink">
<g id="graph0" class="graph" transform="scale(1 1) rotate(0) translate(4 80)">
<title>asn1::Token</title>
<polygon fill="white" stroke="none" points="-4,4 -4,-80 369,-80 369,4 -4,4"/>
<!-- Node0 -->
<g id="node1" class="node"><title>Node0</title>
<polygon fill="#bfbfbf" stroke="black" points="135,-56.5 135,-75.5 206,-75.5 206,-56.5 135,-56.5"/>
<text text-anchor="middle" x="170.5" y="-63.5" font-family="Helvetica,sans-Serif" font-size="10.00">asn1::Token</text>
</g>
<!-- Node1 -->
<g id="node2" class="node"><title>Node1</title>
<g id="a_node2"><a xlink:href="classasn1_1_1_endopt_token.html" target="_top" xlink:title="asn1::EndoptToken">
<polygon fill="white" stroke="black" points="0,-0.5 0,-19.5 101,-19.5 101,-0.5 0,-0.5"/>
<text text-anchor="middle" x="50.5" y="-7.5" font-family="Helvetica,sans-Serif" font-size="10.00">asn1::EndoptToken</text>
</a>
</g>
</g>
<!-- Node0&#45;&gt;Node1 -->
<g id="edge1" class="edge"><title>Node0&#45;&gt;Node1</title>
<path fill="none" stroke="midnightblue" d="M142.127,-52.2321C119.68,-42.1312 88.9648,-28.3091 69.4254,-19.5164"/>
<polygon fill="midnightblue" stroke="midnightblue" points="140.93,-55.5316 151.486,-56.4435 143.803,-49.1481 140.93,-55.5316"/>
</g>
<!-- Node2 -->
<g id="node3" class="node"><title>Node2</title>
<g id="a_node3"><a xlink:href="classasn1_1_1_explicit_token.html" target="_top" xlink:title="asn1::ExplicitToken">
<polygon fill="white" stroke="black" points="119,-0.5 119,-19.5 222,-19.5 222,-0.5 119,-0.5"/>
<text text-anchor="middle" x="170.5" y="-7.5" font-family="Helvetica,sans-Serif" font-size="10.00">asn1::ExplicitToken</text>
</a>
</g>
</g>
<!-- Node0&#45;&gt;Node2 -->
<g id="edge2" class="edge"><title>Node0&#45;&gt;Node2</title>
<path fill="none" stroke="midnightblue" d="M170.5,-45.8045C170.5,-36.9102 170.5,-26.7798 170.5,-19.7511"/>
<polygon fill="midnightblue" stroke="midnightblue" points="167,-46.083 170.5,-56.083 174,-46.083 167,-46.083"/>
</g>
<!-- Node3 -->
<g id="node4" class="node"><title>Node3</title>
<g id="a_node4"><a xlink:href="classasn1_1_1_peek_explicit_token.html" target="_top" xlink:title="asn1::PeekExplicitToken">
<polygon fill="white" stroke="black" points="240,-0.5 240,-19.5 365,-19.5 365,-0.5 240,-0.5"/>
<text text-anchor="middle" x="302.5" y="-7.5" font-family="Helvetica,sans-Serif" font-size="10.00">asn1::PeekExplicitToken</text>
</a>
</g>
</g>
<!-- Node0&#45;&gt;Node3 -->
<g id="edge3" class="edge"><title>Node0&#45;&gt;Node3</title>
<path fill="none" stroke="midnightblue" d="M200.719,-52.6377C225.49,-42.504 259.9,-28.4274 281.682,-19.5164"/>
<polygon fill="midnightblue" stroke="midnightblue" points="199.346,-49.4177 191.416,-56.4435 201.997,-55.8966 199.346,-49.4177"/>
</g>
</g>
</svg>
