<?xml version="1.0" encoding="UTF-8" standalone="no"?>
<!DOCTYPE svg PUBLIC "-//W3C//DTD SVG 1.1//EN"
 "http://www.w3.org/Graphics/SVG/1.1/DTD/svg11.dtd">
<!-- Generated by graphviz version 2.38.0 (20140413.2041)
 -->
<!-- Title: PackageManagerInterface Pages: 1 -->
<svg width="327pt" height="84pt"
 viewBox="0.00 0.00 326.50 84.00" xmlns="http://www.w3.org/2000/svg" xmlns:xlink="http://www.w3.org/1999/xlink">
<g id="graph0" class="graph" transform="scale(1 1) rotate(0) translate(4 80)">
<title>PackageManagerInterface</title>
<polygon fill="white" stroke="none" points="-4,4 -4,-80 322.5,-80 322.5,4 -4,4"/>
<!-- Node0 -->
<g id="node1" class="node"><title>Node0</title>
<polygon fill="#bfbfbf" stroke="black" points="79,-56.5 79,-75.5 210,-75.5 210,-56.5 79,-56.5"/>
<text text-anchor="middle" x="144.5" y="-63.5" font-family="Helvetica,sans-Serif" font-size="10.00">PackageManagerInterface</text>
</g>
<!-- Node1 -->
<g id="node2" class="node"><title>Node1</title>
<g id="a_node2"><a xlink:href="class_debian_manager.html" target="_top" xlink:title="DebianManager">
<polygon fill="white" stroke="black" points="0,-0.5 0,-19.5 85,-19.5 85,-0.5 0,-0.5"/>
<text text-anchor="middle" x="42.5" y="-7.5" font-family="Helvetica,sans-Serif" font-size="10.00">DebianManager</text>
</a>
</g>
</g>
<!-- Node0&#45;&gt;Node1 -->
<g id="edge1" class="edge"><title>Node0&#45;&gt;Node1</title>
<path fill="none" stroke="midnightblue" d="M119.169,-51.5895C100.31,-41.6052 75.1158,-28.2672 58.8474,-19.6545"/>
<polygon fill="midnightblue" stroke="midnightblue" points="117.636,-54.7383 128.112,-56.324 120.912,-48.5518 117.636,-54.7383"/>
</g>
<!-- Node2 -->
<g id="node3" class="node"><title>Node2</title>
<g id="a_node3"><a xlink:href="class_ostree_manager.html" target="_top" xlink:title="OstreeManager">
<polygon fill="white" stroke="black" points="103,-0.5 103,-19.5 186,-19.5 186,-0.5 103,-0.5"/>
<text text-anchor="middle" x="144.5" y="-7.5" font-family="Helvetica,sans-Serif" font-size="10.00">OstreeManager</text>
</a>
</g>
</g>
<!-- Node0&#45;&gt;Node2 -->
<g id="edge2" class="edge"><title>Node0&#45;&gt;Node2</title>
<path fill="none" stroke="midnightblue" d="M144.5,-45.8045C144.5,-36.9102 144.5,-26.7798 144.5,-19.7511"/>
<polygon fill="midnightblue" stroke="midnightblue" points="141,-46.083 144.5,-56.083 148,-46.083 141,-46.083"/>
</g>
<!-- Node3 -->
<g id="node4" class="node"><title>Node3</title>
<g id="a_node4"><a xlink:href="class_package_manager_fake.html" target="_top" xlink:title="PackageManagerFake">
<polygon fill="white" stroke="black" points="204.5,-0.5 204.5,-19.5 318.5,-19.5 318.5,-0.5 204.5,-0.5"/>
<text text-anchor="middle" x="261.5" y="-7.5" font-family="Helvetica,sans-Serif" font-size="10.00">PackageManagerFake</text>
</a>
</g>
</g>
<!-- Node0&#45;&gt;Node3 -->
<g id="edge3" class="edge"><title>Node0&#45;&gt;Node3</title>
<path fill="none" stroke="midnightblue" d="M172.164,-52.2321C194.049,-42.1312 223.997,-28.3091 243.048,-19.5164"/>
<polygon fill="midnightblue" stroke="midnightblue" points="170.652,-49.075 163.039,-56.4435 173.585,-55.4308 170.652,-49.075"/>
</g>
</g>
</svg>
