<?xml version="1.0" encoding="UTF-8" standalone="no"?>
<!DOCTYPE svg PUBLIC "-//W3C//DTD SVG 1.1//EN"
 "http://www.w3.org/Graphics/SVG/1.1/DTD/svg11.dtd">
<!-- Generated by graphviz version 2.40.1 (20161225.0304)
 -->
<!-- Title: Uptane::Targets Pages: 1 -->
<svg width="231pt" height="173pt"
 viewBox="0.00 0.00 231.00 173.00" xmlns="http://www.w3.org/2000/svg" xmlns:xlink="http://www.w3.org/1999/xlink">
<g id="graph0" class="graph" transform="scale(1 1) rotate(0) translate(4 169)">
<title>Uptane::Targets</title>
<polygon fill="#ffffff" stroke="transparent" points="-4,4 -4,-169 227,-169 227,4 -4,4"/>
<!-- Node2 -->
<g id="node1" class="node">
<title>Node2</title>
<polygon fill="#bfbfbf" stroke="#000000" points="67.5,-.5 67.5,-19.5 154.5,-19.5 154.5,-.5 67.5,-.5"/>
<text text-anchor="middle" x="111" y="-7.5" font-family="Helvetica,sans-Serif" font-size="10.00" fill="#000000">Uptane::Targets</text>
</g>
<!-- Node3 -->
<g id="node2" class="node">
<title>Node3</title>
<g id="a_node2"><a xlink:href="class_uptane_1_1_base_meta.html" target="_top" xlink:title="Uptane::BaseMeta">
<polygon fill="#ffffff" stroke="#000000" points="3,-73 3,-92 101,-92 101,-73 3,-73"/>
<text text-anchor="middle" x="52" y="-80" font-family="Helvetica,sans-Serif" font-size="10.00" fill="#000000">Uptane::BaseMeta</text>
</a>
</g>
</g>
<!-- Node3&#45;&gt;Node2 -->
<g id="edge1" class="edge">
<title>Node3&#45;&gt;Node2</title>
<path fill="none" stroke="#191970" d="M66.5259,-64.6503C78.0965,-50.4322 93.8494,-31.0748 103.1691,-19.6228"/>
<polygon fill="#191970" stroke="#191970" points="63.5543,-62.7569 59.957,-72.7223 68.9837,-67.1753 63.5543,-62.7569"/>
</g>
<!-- Node4 -->
<g id="node3" class="node">
<title>Node4</title>
<g id="a_node3"><a xlink:href="class_uptane_1_1_time_stamp.html" target="_top" xlink:title="Uptane::TimeStamp">
<polygon fill="#ffffff" stroke="#000000" points="0,-145.5 0,-164.5 104,-164.5 104,-145.5 0,-145.5"/>
<text text-anchor="middle" x="52" y="-152.5" font-family="Helvetica,sans-Serif" font-size="10.00" fill="#000000">Uptane::TimeStamp</text>
</a>
</g>
</g>
<!-- Node4&#45;&gt;Node3 -->
<g id="edge2" class="edge">
<title>Node4&#45;&gt;Node3</title>
<path fill="none" stroke="#9a32cd" stroke-dasharray="5,2" d="M52,-135.1054C52,-121.1237 52,-103.0346 52,-92.1228"/>
<polygon fill="#9a32cd" stroke="#9a32cd" points="48.5001,-135.2223 52,-145.2223 55.5001,-135.2224 48.5001,-135.2223"/>
<text text-anchor="middle" x="69.5" y="-119" font-family="Helvetica,sans-Serif" font-size="10.00" fill="#000000"> expiry_</text>
</g>
<!-- Node5 -->
<g id="node4" class="node">
<title>Node5</title>
<polygon fill="#ffffff" stroke="#bfbfbf" points="119,-67.5 119,-97.5 223,-97.5 223,-67.5 119,-67.5"/>
<text text-anchor="start" x="127" y="-85.5" font-family="Helvetica,sans-Serif" font-size="10.00" fill="#000000">std::vector&lt; Uptane</text>
<text text-anchor="middle" x="171" y="-74.5" font-family="Helvetica,sans-Serif" font-size="10.00" fill="#000000">::Target &gt;</text>
</g>
<!-- Node5&#45;&gt;Node2 -->
<g id="edge3" class="edge">
<title>Node5&#45;&gt;Node2</title>
<path fill="none" stroke="#9a32cd" stroke-dasharray="5,2" d="M152.048,-59.5997C140.9885,-46.2361 127.6005,-30.0589 119.1895,-19.8957"/>
<polygon fill="#9a32cd" stroke="#9a32cd" points="149.4959,-62.0055 158.568,-67.478 154.8886,-57.5425 149.4959,-62.0055"/>
<text text-anchor="middle" x="159" y="-41" font-family="Helvetica,sans-Serif" font-size="10.00" fill="#000000"> targets</text>
</g>
<!-- Node6 -->
<g id="node5" class="node">
<title>Node6</title>
<g id="a_node5"><a xlink:href="class_uptane_1_1_target.html" target="_top" xlink:title="Uptane::Target">
<polygon fill="#ffffff" stroke="#000000" points="130,-145.5 130,-164.5 212,-164.5 212,-145.5 130,-145.5"/>
<text text-anchor="middle" x="171" y="-152.5" font-family="Helvetica,sans-Serif" font-size="10.00" fill="#000000">Uptane::Target</text>
</a>
</g>
</g>
<!-- Node6&#45;&gt;Node5 -->
<g id="edge4" class="edge">
<title>Node6&#45;&gt;Node5</title>
<path fill="none" stroke="#9a32cd" stroke-dasharray="5,2" d="M171,-135.0177C171,-123.2164 171,-108.513 171,-97.668"/>
<polygon fill="#9a32cd" stroke="#9a32cd" points="167.5001,-135.2223 171,-145.2223 174.5001,-135.2224 167.5001,-135.2223"/>
<text text-anchor="middle" x="192.5" y="-119" font-family="Helvetica,sans-Serif" font-size="10.00" fill="#000000"> elements</text>
</g>
</g>
</svg>
