<?xml version="1.0" encoding="UTF-8" standalone="no"?>
<!DOCTYPE svg PUBLIC "-//W3C//DTD SVG 1.1//EN"
 "http://www.w3.org/Graphics/SVG/1.1/DTD/svg11.dtd">
<!-- Generated by graphviz version 2.40.1 (20161225.0304)
 -->
<!-- Title: event::UpdateAvailable Pages: 1 -->
<svg width="226pt" height="241pt"
 viewBox="0.00 0.00 225.50 241.00" xmlns="http://www.w3.org/2000/svg" xmlns:xlink="http://www.w3.org/1999/xlink">
<g id="graph0" class="graph" transform="scale(1 1) rotate(0) translate(4 237)">
<title>event::UpdateAvailable</title>
<polygon fill="#ffffff" stroke="transparent" points="-4,4 -4,-237 221.5,-237 221.5,4 -4,4"/>
<!-- Node2 -->
<g id="node1" class="node">
<title>Node2</title>
<polygon fill="#bfbfbf" stroke="#000000" points="46.5,-.5 46.5,-19.5 164.5,-19.5 164.5,-.5 46.5,-.5"/>
<text text-anchor="middle" x="105.5" y="-7.5" font-family="Helvetica,sans-Serif" font-size="10.00" fill="#000000">event::UpdateAvailable</text>
</g>
<!-- Node3 -->
<g id="node2" class="node">
<title>Node3</title>
<g id="a_node2"><a xlink:href="classevent_1_1_base_event.html" target="_top" xlink:title="Base class for all event objects. ">
<polygon fill="#ffffff" stroke="#000000" points="0,-73 0,-92 95,-92 95,-73 0,-73"/>
<text text-anchor="middle" x="47.5" y="-80" font-family="Helvetica,sans-Serif" font-size="10.00" fill="#000000">event::BaseEvent</text>
</a>
</g>
</g>
<!-- Node3&#45;&gt;Node2 -->
<g id="edge1" class="edge">
<title>Node3&#45;&gt;Node2</title>
<path fill="none" stroke="#191970" d="M61.7797,-64.6503C73.1542,-50.4322 88.6401,-31.0748 97.8018,-19.6228"/>
<polygon fill="#191970" stroke="#191970" points="58.8361,-62.7272 55.3221,-72.7223 64.3022,-67.1001 58.8361,-62.7272"/>
</g>
<!-- Node4 -->
<g id="node3" class="node">
<title>Node4</title>
<g id="a_node3"><a xlink:title="STL class. ">
<polygon fill="#ffffff" stroke="#bfbfbf" points="17.5,-145.5 17.5,-164.5 77.5,-164.5 77.5,-145.5 17.5,-145.5"/>
<text text-anchor="middle" x="47.5" y="-152.5" font-family="Helvetica,sans-Serif" font-size="10.00" fill="#000000">std::string</text>
</a>
</g>
</g>
<!-- Node4&#45;&gt;Node3 -->
<g id="edge2" class="edge">
<title>Node4&#45;&gt;Node3</title>
<path fill="none" stroke="#9a32cd" stroke-dasharray="5,2" d="M47.5,-135.1054C47.5,-121.1237 47.5,-103.0346 47.5,-92.1228"/>
<polygon fill="#9a32cd" stroke="#9a32cd" points="44.0001,-135.2223 47.5,-145.2223 51.0001,-135.2224 44.0001,-135.2223"/>
<text text-anchor="middle" x="64" y="-119" font-family="Helvetica,sans-Serif" font-size="10.00" fill="#000000"> variant</text>
</g>
<!-- Node5 -->
<g id="node4" class="node">
<title>Node5</title>
<g id="a_node4"><a xlink:title="STL class. ">
<polygon fill="#ffffff" stroke="#bfbfbf" points="0,-202.5 0,-232.5 95,-232.5 95,-202.5 0,-202.5"/>
<text text-anchor="start" x="8" y="-220.5" font-family="Helvetica,sans-Serif" font-size="10.00" fill="#000000">std::basic_string&lt;</text>
<text text-anchor="middle" x="47.5" y="-209.5" font-family="Helvetica,sans-Serif" font-size="10.00" fill="#000000"> char &gt;</text>
</a>
</g>
</g>
<!-- Node5&#45;&gt;Node4 -->
<g id="edge3" class="edge">
<title>Node5&#45;&gt;Node4</title>
<path fill="none" stroke="#191970" d="M47.5,-192.3498C47.5,-182.6481 47.5,-172.1303 47.5,-164.7356"/>
<polygon fill="#191970" stroke="#191970" points="44.0001,-192.3705 47.5,-202.3705 51.0001,-192.3705 44.0001,-192.3705"/>
</g>
<!-- Node6 -->
<g id="node5" class="node">
<title>Node6</title>
<polygon fill="#ffffff" stroke="#bfbfbf" points="113.5,-67.5 113.5,-97.5 217.5,-97.5 217.5,-67.5 113.5,-67.5"/>
<text text-anchor="start" x="121.5" y="-85.5" font-family="Helvetica,sans-Serif" font-size="10.00" fill="#000000">std::vector&lt; Uptane</text>
<text text-anchor="middle" x="165.5" y="-74.5" font-family="Helvetica,sans-Serif" font-size="10.00" fill="#000000">::Target &gt;</text>
</g>
<!-- Node6&#45;&gt;Node2 -->
<g id="edge4" class="edge">
<title>Node6&#45;&gt;Node2</title>
<path fill="none" stroke="#9a32cd" stroke-dasharray="5,2" d="M146.548,-59.5997C135.4885,-46.2361 122.1005,-30.0589 113.6895,-19.8957"/>
<polygon fill="#9a32cd" stroke="#9a32cd" points="143.9959,-62.0055 153.068,-67.478 149.3886,-57.5425 143.9959,-62.0055"/>
<text text-anchor="middle" x="156.5" y="-41" font-family="Helvetica,sans-Serif" font-size="10.00" fill="#000000"> updates</text>
</g>
<!-- Node7 -->
<g id="node6" class="node">
<title>Node7</title>
<g id="a_node6"><a xlink:href="class_uptane_1_1_target.html" target="_top" xlink:title="Uptane::Target">
<polygon fill="#ffffff" stroke="#000000" points="124.5,-145.5 124.5,-164.5 206.5,-164.5 206.5,-145.5 124.5,-145.5"/>
<text text-anchor="middle" x="165.5" y="-152.5" font-family="Helvetica,sans-Serif" font-size="10.00" fill="#000000">Uptane::Target</text>
</a>
</g>
</g>
<!-- Node7&#45;&gt;Node6 -->
<g id="edge5" class="edge">
<title>Node7&#45;&gt;Node6</title>
<path fill="none" stroke="#9a32cd" stroke-dasharray="5,2" d="M165.5,-135.0177C165.5,-123.2164 165.5,-108.513 165.5,-97.668"/>
<polygon fill="#9a32cd" stroke="#9a32cd" points="162.0001,-135.2223 165.5,-145.2223 169.0001,-135.2224 162.0001,-135.2223"/>
<text text-anchor="middle" x="187" y="-119" font-family="Helvetica,sans-Serif" font-size="10.00" fill="#000000"> elements</text>
</g>
</g>
</svg>
