<?xml version="1.0" encoding="UTF-8" standalone="no"?>
<!DOCTYPE svg PUBLIC "-//W3C//DTD SVG 1.1//EN"
 "http://www.w3.org/Graphics/SVG/1.1/DTD/svg11.dtd">
<!-- Generated by graphviz version 2.38.0 (20140413.2041)
 -->
<!-- Title: event::CampaignCheckComplete Pages: 1 -->
<svg width="169pt" height="220pt"
 viewBox="0.00 0.00 169.00 220.00" xmlns="http://www.w3.org/2000/svg" xmlns:xlink="http://www.w3.org/1999/xlink">
<g id="graph0" class="graph" transform="scale(1 1) rotate(0) translate(4 216)">
<title>event::CampaignCheckComplete</title>
<polygon fill="white" stroke="none" points="-4,4 -4,-216 165,-216 165,4 -4,4"/>
<!-- Node2 -->
<g id="node1" class="node"><title>Node2</title>
<polygon fill="#bfbfbf" stroke="black" points="0,-0.5 0,-19.5 161,-19.5 161,-0.5 0,-0.5"/>
<text text-anchor="middle" x="80.5" y="-7.5" font-family="Helvetica,sans-Serif" font-size="10.00">event::CampaignCheckComplete</text>
</g>
<!-- Node3 -->
<g id="node2" class="node"><title>Node3</title>
<g id="a_node2"><a xlink:href="classevent_1_1_base_event.html" target="_top" xlink:title="Base class for all event objects. ">
<polygon fill="white" stroke="black" points="33,-57.5 33,-76.5 128,-76.5 128,-57.5 33,-57.5"/>
<text text-anchor="middle" x="80.5" y="-64.5" font-family="Helvetica,sans-Serif" font-size="10.00">event::BaseEvent</text>
</a>
</g>
</g>
<!-- Node3&#45;&gt;Node2 -->
<g id="edge1" class="edge"><title>Node3&#45;&gt;Node2</title>
<path fill="none" stroke="midnightblue" d="M80.5,-47.1166C80.5,-37.8173 80.5,-27.0557 80.5,-19.7149"/>
<polygon fill="midnightblue" stroke="midnightblue" points="77.0001,-47.4062 80.5,-57.4062 84.0001,-47.4063 77.0001,-47.4062"/>
</g>
<!-- Node4 -->
<g id="node3" class="node"><title>Node4</title>
<g id="a_node3"><a xlink:title="STL class. ">
<polygon fill="white" stroke="#bfbfbf" points="50.5,-124.5 50.5,-143.5 110.5,-143.5 110.5,-124.5 50.5,-124.5"/>
<text text-anchor="middle" x="80.5" y="-131.5" font-family="Helvetica,sans-Serif" font-size="10.00">std::string</text>
</a>
</g>
</g>
<!-- Node4&#45;&gt;Node3 -->
<g id="edge2" class="edge"><title>Node4&#45;&gt;Node3</title>
<path fill="none" stroke="#9a32cd" stroke-dasharray="5,2" d="M80.5,-114.037C80.5,-101.67 80.5,-86.1198 80.5,-76.6273"/>
<polygon fill="#9a32cd" stroke="#9a32cd" points="77.0001,-114.234 80.5,-124.234 84.0001,-114.234 77.0001,-114.234"/>
<text text-anchor="middle" x="97" y="-98" font-family="Helvetica,sans-Serif" font-size="10.00"> variant</text>
</g>
<!-- Node5 -->
<g id="node4" class="node"><title>Node5</title>
<g id="a_node4"><a xlink:title="STL class. ">
<polygon fill="white" stroke="#bfbfbf" points="33,-181.5 33,-211.5 128,-211.5 128,-181.5 33,-181.5"/>
<text text-anchor="start" x="41" y="-199.5" font-family="Helvetica,sans-Serif" font-size="10.00">std::basic_string&lt;</text>
<text text-anchor="middle" x="80.5" y="-188.5" font-family="Helvetica,sans-Serif" font-size="10.00"> char &gt;</text>
</a>
</g>
</g>
<!-- Node5&#45;&gt;Node4 -->
<g id="edge3" class="edge"><title>Node5&#45;&gt;Node4</title>
<path fill="none" stroke="midnightblue" d="M80.5,-171.352C80.5,-161.513 80.5,-150.775 80.5,-143.54"/>
<polygon fill="midnightblue" stroke="midnightblue" points="77.0001,-171.468 80.5,-181.468 84.0001,-171.468 77.0001,-171.468"/>
</g>
</g>
</svg>
