<?xml version="1.0" encoding="UTF-8" standalone="no"?>
<!DOCTYPE svg PUBLIC "-//W3C//DTD SVG 1.1//EN"
 "http://www.w3.org/Graphics/SVG/1.1/DTD/svg11.dtd">
<!-- Generated by graphviz version 2.38.0 (20140413.2041)
 -->
<!-- Title: DebianManager Pages: 1 -->
<svg width="259pt" height="241pt"
 viewBox="0.00 0.00 258.50 241.00" xmlns="http://www.w3.org/2000/svg" xmlns:xlink="http://www.w3.org/1999/xlink">
<g id="graph0" class="graph" transform="scale(1 1) rotate(0) translate(4 237)">
<title>DebianManager</title>
<polygon fill="white" stroke="none" points="-4,4 -4,-237 254.5,-237 254.5,4 -4,4"/>
<!-- Node2 -->
<g id="node1" class="node"><title>Node2</title>
<polygon fill="#bfbfbf" stroke="black" points="62,-0.5 62,-19.5 147,-19.5 147,-0.5 62,-0.5"/>
<text text-anchor="middle" x="104.5" y="-7.5" font-family="Helvetica,sans-Serif" font-size="10.00">DebianManager</text>
</g>
<!-- Node3 -->
<g id="node2" class="node"><title>Node3</title>
<g id="a_node2"><a xlink:href="class_package_manager_interface.html" target="_top" xlink:title="PackageManagerInterface">
<polygon fill="white" stroke="black" points="0,-67.5 0,-86.5 131,-86.5 131,-67.5 0,-67.5"/>
<text text-anchor="middle" x="65.5" y="-74.5" font-family="Helvetica,sans-Serif" font-size="10.00">PackageManagerInterface</text>
</a>
</g>
</g>
<!-- Node3&#45;&gt;Node2 -->
<g id="edge1" class="edge"><title>Node3&#45;&gt;Node2</title>
<path fill="none" stroke="midnightblue" d="M75.9792,-58.5347C83.5301,-45.9499 93.3957,-29.5072 99.3236,-19.6273"/>
<polygon fill="midnightblue" stroke="midnightblue" points="72.9035,-56.8581 70.7597,-67.2338 78.9059,-60.4596 72.9035,-56.8581"/>
</g>
<!-- Node4 -->
<g id="node3" class="node"><title>Node4</title>
<g id="a_node3"><a xlink:href="struct_package_config.html" target="_top" xlink:title="PackageConfig">
<polygon fill="white" stroke="black" points="149,-67.5 149,-86.5 232,-86.5 232,-67.5 149,-67.5"/>
<text text-anchor="middle" x="190.5" y="-74.5" font-family="Helvetica,sans-Serif" font-size="10.00">PackageConfig</text>
</a>
</g>
</g>
<!-- Node4&#45;&gt;Node2 -->
<g id="edge2" class="edge"><title>Node4&#45;&gt;Node2</title>
<path fill="none" stroke="#9a32cd" stroke-dasharray="5,2" d="M170.744,-61.0678C153.768,-48.2376 129.884,-30.1853 115.915,-19.6273"/>
<polygon fill="#9a32cd" stroke="#9a32cd" points="168.814,-63.9963 178.902,-67.2338 173.034,-58.4119 168.814,-63.9963"/>
<text text-anchor="middle" x="170" y="-41" font-family="Helvetica,sans-Serif" font-size="10.00"> config_</text>
</g>
<!-- Node5 -->
<g id="node4" class="node"><title>Node5</title>
<g id="a_node4"><a xlink:title="STL class. ">
<polygon fill="white" stroke="#bfbfbf" points="160.5,-145.5 160.5,-164.5 220.5,-164.5 220.5,-145.5 160.5,-145.5"/>
<text text-anchor="middle" x="190.5" y="-152.5" font-family="Helvetica,sans-Serif" font-size="10.00">std::string</text>
</a>
</g>
</g>
<!-- Node5&#45;&gt;Node4 -->
<g id="edge3" class="edge"><title>Node5&#45;&gt;Node4</title>
<path fill="none" stroke="#9a32cd" stroke-dasharray="5,2" d="M190.5,-135.224C190.5,-119.697 190.5,-98.3582 190.5,-86.6165"/>
<polygon fill="#9a32cd" stroke="#9a32cd" points="187,-135.282 190.5,-145.282 194,-135.282 187,-135.282"/>
<text text-anchor="middle" x="220.5" y="-119" font-family="Helvetica,sans-Serif" font-size="10.00"> os</text>
<text text-anchor="middle" x="220.5" y="-108" font-family="Helvetica,sans-Serif" font-size="10.00">ostree_server</text>
</g>
<!-- Node6 -->
<g id="node5" class="node"><title>Node6</title>
<g id="a_node5"><a xlink:title="STL class. ">
<polygon fill="white" stroke="#bfbfbf" points="143,-202.5 143,-232.5 238,-232.5 238,-202.5 143,-202.5"/>
<text text-anchor="start" x="151" y="-220.5" font-family="Helvetica,sans-Serif" font-size="10.00">std::basic_string&lt;</text>
<text text-anchor="middle" x="190.5" y="-209.5" font-family="Helvetica,sans-Serif" font-size="10.00"> char &gt;</text>
</a>
</g>
</g>
<!-- Node6&#45;&gt;Node5 -->
<g id="edge4" class="edge"><title>Node6&#45;&gt;Node5</title>
<path fill="none" stroke="midnightblue" d="M190.5,-192.352C190.5,-182.513 190.5,-171.775 190.5,-164.54"/>
<polygon fill="midnightblue" stroke="midnightblue" points="187,-192.468 190.5,-202.468 194,-192.468 187,-192.468"/>
</g>
</g>
</svg>
