<?xml version="1.0" encoding="UTF-8" standalone="no"?>
<!DOCTYPE svg PUBLIC "-//W3C//DTD SVG 1.1//EN"
 "http://www.w3.org/Graphics/SVG/1.1/DTD/svg11.dtd">
<!-- Generated by graphviz version 2.40.1 (20161225.0304)
 -->
<!-- Title: Uptane::ManagedSecondary Pages: 1 -->
<svg width="286pt" height="140pt"
 viewBox="0.00 0.00 286.00 140.00" xmlns="http://www.w3.org/2000/svg" xmlns:xlink="http://www.w3.org/1999/xlink">
<g id="graph0" class="graph" transform="scale(1 1) rotate(0) translate(4 136)">
<title>Uptane::ManagedSecondary</title>
<polygon fill="#ffffff" stroke="transparent" points="-4,4 -4,-136 282,-136 282,4 -4,4"/>
<!-- Node0 -->
<g id="node1" class="node">
<title>Node0</title>
<polygon fill="#bfbfbf" stroke="#000000" points="70,-56.5 70,-75.5 210,-75.5 210,-56.5 70,-56.5"/>
<text text-anchor="middle" x="140" y="-63.5" font-family="Helvetica,sans-Serif" font-size="10.00" fill="#000000">Uptane::ManagedSecondary</text>
</g>
<!-- Node2 -->
<g id="node3" class="node">
<title>Node2</title>
<g id="a_node3"><a xlink:href="class_uptane_1_1_legacy_secondary.html" target="_top" xlink:title="Uptane::LegacySecondary">
<polygon fill="#ffffff" stroke="#000000" points="0,-.5 0,-19.5 132,-19.5 132,-.5 0,-.5"/>
<text text-anchor="middle" x="66" y="-7.5" font-family="Helvetica,sans-Serif" font-size="10.00" fill="#000000">Uptane::LegacySecondary</text>
</a>
</g>
</g>
<!-- Node0&#45;&gt;Node2 -->
<g id="edge2" class="edge">
<title>Node0&#45;&gt;Node2</title>
<path fill="none" stroke="#191970" d="M119.1343,-50.2097C106.1375,-40.3743 89.8378,-28.0394 78.7421,-19.6427"/>
<polygon fill="#191970" stroke="#191970" points="117.024,-53.002 127.1102,-56.2455 121.2482,-47.4201 117.024,-53.002"/>
</g>
<!-- Node3 -->
<g id="node4" class="node">
<title>Node3</title>
<g id="a_node4"><a xlink:href="class_uptane_1_1_virtual_secondary.html" target="_top" xlink:title="Uptane::VirtualSecondary">
<polygon fill="#ffffff" stroke="#000000" points="150,-.5 150,-19.5 278,-19.5 278,-.5 150,-.5"/>
<text text-anchor="middle" x="214" y="-7.5" font-family="Helvetica,sans-Serif" font-size="10.00" fill="#000000">Uptane::VirtualSecondary</text>
</a>
</g>
</g>
<!-- Node0&#45;&gt;Node3 -->
<g id="edge3" class="edge">
<title>Node0&#45;&gt;Node3</title>
<path fill="none" stroke="#191970" d="M160.8657,-50.2097C173.8625,-40.3743 190.1622,-28.0394 201.2579,-19.6427"/>
<polygon fill="#191970" stroke="#191970" points="158.7518,-47.4201 152.8898,-56.2455 162.976,-53.002 158.7518,-47.4201"/>
</g>
<!-- Node1 -->
<g id="node2" class="node">
<title>Node1</title>
<g id="a_node2"><a xlink:href="class_uptane_1_1_secondary_interface.html" target="_top" xlink:title="Uptane::SecondaryInterface">
<polygon fill="#ffffff" stroke="#000000" points="70.5,-112.5 70.5,-131.5 209.5,-131.5 209.5,-112.5 70.5,-112.5"/>
<text text-anchor="middle" x="140" y="-119.5" font-family="Helvetica,sans-Serif" font-size="10.00" fill="#000000">Uptane::SecondaryInterface</text>
</a>
</g>
</g>
<!-- Node1&#45;&gt;Node0 -->
<g id="edge1" class="edge">
<title>Node1&#45;&gt;Node0</title>
<path fill="none" stroke="#191970" d="M140,-102.1575C140,-93.155 140,-82.9199 140,-75.6427"/>
<polygon fill="#191970" stroke="#191970" points="136.5001,-102.2455 140,-112.2455 143.5001,-102.2456 136.5001,-102.2455"/>
</g>
</g>
</svg>
