<?xml version="1.0" encoding="UTF-8" standalone="no"?>
<!DOCTYPE svg PUBLIC "-//W3C//DTD SVG 1.1//EN"
 "http://www.w3.org/Graphics/SVG/1.1/DTD/svg11.dtd">
<!-- Generated by graphviz version 2.38.0 (20140413.2041)
 -->
<!-- Title: opcuabridge::ECUVersionManifestSigned Pages: 1 -->
<svg width="310pt" height="386pt"
 viewBox="0.00 0.00 310.00 386.00" xmlns="http://www.w3.org/2000/svg" xmlns:xlink="http://www.w3.org/1999/xlink">
<g id="graph0" class="graph" transform="scale(1 1) rotate(0) translate(4 382)">
<title>opcuabridge::ECUVersionManifestSigned</title>
<polygon fill="white" stroke="none" points="-4,4 -4,-382 306,-382 306,4 -4,4"/>
<!-- Node1 -->
<g id="node1" class="node"><title>Node1</title>
<polygon fill="#bfbfbf" stroke="black" points="0,-0.5 0,-30.5 167,-30.5 167,-0.5 0,-0.5"/>
<text text-anchor="start" x="8" y="-18.5" font-family="Helvetica,sans-Serif" font-size="10.00">opcuabridge::ECUVersionManifest</text>
<text text-anchor="middle" x="83.5" y="-7.5" font-family="Helvetica,sans-Serif" font-size="10.00">Signed</text>
</g>
<!-- Node2 -->
<g id="node2" class="node"><title>Node2</title>
<g id="a_node2"><a xlink:title="STL class. ">
<polygon fill="white" stroke="#bfbfbf" points="118.5,-290.5 118.5,-309.5 178.5,-309.5 178.5,-290.5 118.5,-290.5"/>
<text text-anchor="middle" x="148.5" y="-297.5" font-family="Helvetica,sans-Serif" font-size="10.00">std::string</text>
</a>
</g>
</g>
<!-- Node2&#45;&gt;Node1 -->
<g id="edge1" class="edge"><title>Node2&#45;&gt;Node1</title>
<path fill="none" stroke="#9a32cd" stroke-dasharray="5,2" d="M108.705,-289.207C81.9322,-279.965 51.5,-263.068 51.5,-234 51.5,-234 51.5,-234 51.5,-87 51.5,-65.897 63.5356,-44.1621 72.8445,-30.5075"/>
<polygon fill="#9a32cd" stroke="#9a32cd" points="107.75,-292.576 118.34,-292.273 109.873,-285.905 107.75,-292.576"/>
<text text-anchor="middle" x="86" y="-163.5" font-family="Helvetica,sans-Serif" font-size="10.00"> ecuIdentifier_</text>
<text text-anchor="middle" x="86" y="-152.5" font-family="Helvetica,sans-Serif" font-size="10.00">securityAttack_</text>
</g>
<!-- Node4 -->
<g id="node4" class="node"><title>Node4</title>
<g id="a_node4"><a xlink:href="classopcuabridge_1_1_image.html" target="_top" xlink:title="opcuabridge::Image">
<polygon fill="white" stroke="black" points="97.5,-78.5 97.5,-97.5 199.5,-97.5 199.5,-78.5 97.5,-78.5"/>
<text text-anchor="middle" x="148.5" y="-85.5" font-family="Helvetica,sans-Serif" font-size="10.00">opcuabridge::Image</text>
</a>
</g>
</g>
<!-- Node2&#45;&gt;Node4 -->
<g id="edge4" class="edge"><title>Node2&#45;&gt;Node4</title>
<path fill="none" stroke="#9a32cd" stroke-dasharray="5,2" d="M148.5,-280.123C148.5,-236.337 148.5,-129.207 148.5,-97.7935"/>
<polygon fill="#9a32cd" stroke="#9a32cd" points="145,-280.244 148.5,-290.244 152,-280.244 145,-280.244"/>
<text text-anchor="middle" x="171.5" y="-197" font-family="Helvetica,sans-Serif" font-size="10.00"> filename_</text>
</g>
<!-- Node6 -->
<g id="node6" class="node"><title>Node6</title>
<g id="a_node6"><a xlink:href="classopcuabridge_1_1_hash.html" target="_top" xlink:title="opcuabridge::Hash">
<polygon fill="white" stroke="black" points="183.5,-223.5 183.5,-242.5 281.5,-242.5 281.5,-223.5 183.5,-223.5"/>
<text text-anchor="middle" x="232.5" y="-230.5" font-family="Helvetica,sans-Serif" font-size="10.00">opcuabridge::Hash</text>
</a>
</g>
</g>
<!-- Node2&#45;&gt;Node6 -->
<g id="edge7" class="edge"><title>Node2&#45;&gt;Node6</title>
<path fill="none" stroke="#9a32cd" stroke-dasharray="5,2" d="M167.797,-284.068C184.378,-271.238 207.707,-253.185 221.351,-242.627"/>
<polygon fill="#9a32cd" stroke="#9a32cd" points="165.595,-281.346 159.829,-290.234 169.879,-286.882 165.595,-281.346"/>
<text text-anchor="middle" x="214" y="-264" font-family="Helvetica,sans-Serif" font-size="10.00"> digest_</text>
</g>
<!-- Node3 -->
<g id="node3" class="node"><title>Node3</title>
<g id="a_node3"><a xlink:title="STL class. ">
<polygon fill="white" stroke="#bfbfbf" points="101,-347.5 101,-377.5 196,-377.5 196,-347.5 101,-347.5"/>
<text text-anchor="start" x="109" y="-365.5" font-family="Helvetica,sans-Serif" font-size="10.00">std::basic_string&lt;</text>
<text text-anchor="middle" x="148.5" y="-354.5" font-family="Helvetica,sans-Serif" font-size="10.00"> char &gt;</text>
</a>
</g>
</g>
<!-- Node3&#45;&gt;Node2 -->
<g id="edge2" class="edge"><title>Node3&#45;&gt;Node2</title>
<path fill="none" stroke="midnightblue" d="M148.5,-337.352C148.5,-327.513 148.5,-316.775 148.5,-309.54"/>
<polygon fill="midnightblue" stroke="midnightblue" points="145,-337.468 148.5,-347.468 152,-337.468 145,-337.468"/>
</g>
<!-- Node4&#45;&gt;Node1 -->
<g id="edge3" class="edge"><title>Node4&#45;&gt;Node1</title>
<path fill="none" stroke="#9a32cd" stroke-dasharray="5,2" d="M133.512,-70.7443C122.314,-58.5984 107.161,-42.1628 96.478,-30.5762"/>
<polygon fill="#9a32cd" stroke="#9a32cd" points="131.178,-73.3757 140.53,-78.3553 136.324,-68.6308 131.178,-73.3757"/>
<text text-anchor="middle" x="158.5" y="-52" font-family="Helvetica,sans-Serif" font-size="10.00"> installedImage_</text>
</g>
<!-- Node5 -->
<g id="node5" class="node"><title>Node5</title>
<polygon fill="white" stroke="#bfbfbf" points="177,-145.5 177,-175.5 302,-175.5 302,-145.5 177,-145.5"/>
<text text-anchor="start" x="185" y="-163.5" font-family="Helvetica,sans-Serif" font-size="10.00">std::vector&lt; opcuabridge</text>
<text text-anchor="middle" x="239.5" y="-152.5" font-family="Helvetica,sans-Serif" font-size="10.00">::Hash &gt;</text>
</g>
<!-- Node5&#45;&gt;Node4 -->
<g id="edge5" class="edge"><title>Node5&#45;&gt;Node4</title>
<path fill="none" stroke="#9a32cd" stroke-dasharray="5,2" d="M212.839,-138.845C195.164,-125.152 172.885,-107.891 159.718,-97.6911"/>
<polygon fill="#9a32cd" stroke="#9a32cd" points="211.036,-141.876 221.085,-145.233 215.323,-136.342 211.036,-141.876"/>
<text text-anchor="middle" x="217.5" y="-119" font-family="Helvetica,sans-Serif" font-size="10.00"> hashes_</text>
</g>
<!-- Node6&#45;&gt;Node5 -->
<g id="edge6" class="edge"><title>Node6&#45;&gt;Node5</title>
<path fill="none" stroke="#9a32cd" stroke-dasharray="5,2" d="M234.363,-213.236C235.538,-201.408 237.029,-186.383 238.102,-175.576"/>
<polygon fill="#9a32cd" stroke="#9a32cd" points="230.864,-213.058 233.358,-223.355 237.829,-213.75 230.864,-213.058"/>
<text text-anchor="middle" x="258" y="-197" font-family="Helvetica,sans-Serif" font-size="10.00"> elements</text>
</g>
</g>
</svg>
