<?xml version="1.0" encoding="UTF-8" standalone="no"?>
<!DOCTYPE svg PUBLIC "-//W3C//DTD SVG 1.1//EN"
 "http://www.w3.org/Graphics/SVG/1.1/DTD/svg11.dtd">
<!-- Generated by graphviz version 2.38.0 (20140413.2041)
 -->
<!-- Title: command::StartDownload Pages: 1 -->
<svg width="264pt" height="241pt"
 viewBox="0.00 0.00 263.50 241.00" xmlns="http://www.w3.org/2000/svg" xmlns:xlink="http://www.w3.org/1999/xlink">
<g id="graph0" class="graph" transform="scale(1 1) rotate(0) translate(4 237)">
<title>command::StartDownload</title>
<polygon fill="white" stroke="none" points="-4,4 -4,-237 259.5,-237 259.5,4 -4,4"/>
<!-- Node2 -->
<g id="node1" class="node"><title>Node2</title>
<polygon fill="#bfbfbf" stroke="black" points="82.5,-0.5 82.5,-19.5 212.5,-19.5 212.5,-0.5 82.5,-0.5"/>
<text text-anchor="middle" x="147.5" y="-7.5" font-family="Helvetica,sans-Serif" font-size="10.00">command::StartDownload</text>
</g>
<!-- Node3 -->
<g id="node2" class="node"><title>Node3</title>
<g id="a_node2"><a xlink:href="classcommand_1_1_base_command.html" target="_top" xlink:title="Base class for all command objects. ">
<polygon fill="white" stroke="black" points="0,-73 0,-92 133,-92 133,-73 0,-73"/>
<text text-anchor="middle" x="66.5" y="-80" font-family="Helvetica,sans-Serif" font-size="10.00">command::BaseCommand</text>
</a>
</g>
</g>
<!-- Node3&#45;&gt;Node2 -->
<g id="edge1" class="edge"><title>Node3&#45;&gt;Node2</title>
<path fill="none" stroke="midnightblue" d="M84.2109,-66.085C100.543,-51.8699 124.206,-31.2747 137.487,-19.7154"/>
<polygon fill="midnightblue" stroke="midnightblue" points="81.6774,-63.65 76.4322,-72.8553 86.2731,-68.9301 81.6774,-63.65"/>
</g>
<!-- Node4 -->
<g id="node3" class="node"><title>Node4</title>
<g id="a_node3"><a xlink:title="STL class. ">
<polygon fill="white" stroke="#bfbfbf" points="36.5,-145.5 36.5,-164.5 96.5,-164.5 96.5,-145.5 36.5,-145.5"/>
<text text-anchor="middle" x="66.5" y="-152.5" font-family="Helvetica,sans-Serif" font-size="10.00">std::string</text>
</a>
</g>
</g>
<!-- Node4&#45;&gt;Node3 -->
<g id="edge2" class="edge"><title>Node4&#45;&gt;Node3</title>
<path fill="none" stroke="#9a32cd" stroke-dasharray="5,2" d="M66.5,-134.942C66.5,-121.03 66.5,-102.82 66.5,-92.2154"/>
<polygon fill="#9a32cd" stroke="#9a32cd" points="63.0001,-135.355 66.5,-145.355 70.0001,-135.355 63.0001,-135.355"/>
<text text-anchor="middle" x="83" y="-119" font-family="Helvetica,sans-Serif" font-size="10.00"> variant</text>
</g>
<!-- Node5 -->
<g id="node4" class="node"><title>Node5</title>
<g id="a_node4"><a xlink:title="STL class. ">
<polygon fill="white" stroke="#bfbfbf" points="19,-202.5 19,-232.5 114,-232.5 114,-202.5 19,-202.5"/>
<text text-anchor="start" x="27" y="-220.5" font-family="Helvetica,sans-Serif" font-size="10.00">std::basic_string&lt;</text>
<text text-anchor="middle" x="66.5" y="-209.5" font-family="Helvetica,sans-Serif" font-size="10.00"> char &gt;</text>
</a>
</g>
</g>
<!-- Node5&#45;&gt;Node4 -->
<g id="edge3" class="edge"><title>Node5&#45;&gt;Node4</title>
<path fill="none" stroke="midnightblue" d="M66.5,-192.352C66.5,-182.513 66.5,-171.775 66.5,-164.54"/>
<polygon fill="midnightblue" stroke="midnightblue" points="63.0001,-192.468 66.5,-202.468 70.0001,-192.468 63.0001,-192.468"/>
</g>
<!-- Node6 -->
<g id="node5" class="node"><title>Node6</title>
<polygon fill="white" stroke="#bfbfbf" points="151.5,-67.5 151.5,-97.5 255.5,-97.5 255.5,-67.5 151.5,-67.5"/>
<text text-anchor="start" x="159.5" y="-85.5" font-family="Helvetica,sans-Serif" font-size="10.00">std::vector&lt; Uptane</text>
<text text-anchor="middle" x="203.5" y="-74.5" font-family="Helvetica,sans-Serif" font-size="10.00">::Target &gt;</text>
</g>
<!-- Node6&#45;&gt;Node2 -->
<g id="edge4" class="edge"><title>Node6&#45;&gt;Node2</title>
<path fill="none" stroke="#9a32cd" stroke-dasharray="5,2" d="M185.933,-59.3845C175.33,-46.0362 162.398,-29.7556 154.564,-19.8932"/>
<polygon fill="#9a32cd" stroke="#9a32cd" points="183.207,-61.5799 192.168,-67.2333 188.688,-57.226 183.207,-61.5799"/>
<text text-anchor="middle" x="196.5" y="-41" font-family="Helvetica,sans-Serif" font-size="10.00"> updates</text>
</g>
<!-- Node7 -->
<g id="node6" class="node"><title>Node7</title>
<g id="a_node6"><a xlink:href="class_uptane_1_1_target.html" target="_top" xlink:title="Uptane::Target">
<polygon fill="white" stroke="black" points="162.5,-145.5 162.5,-164.5 244.5,-164.5 244.5,-145.5 162.5,-145.5"/>
<text text-anchor="middle" x="203.5" y="-152.5" font-family="Helvetica,sans-Serif" font-size="10.00">Uptane::Target</text>
</a>
</g>
</g>
<!-- Node7&#45;&gt;Node6 -->
<g id="edge5" class="edge"><title>Node7&#45;&gt;Node6</title>
<path fill="none" stroke="#9a32cd" stroke-dasharray="5,2" d="M203.5,-135.236C203.5,-123.408 203.5,-108.383 203.5,-97.5762"/>
<polygon fill="#9a32cd" stroke="#9a32cd" points="200,-135.355 203.5,-145.355 207,-135.355 200,-135.355"/>
<text text-anchor="middle" x="225" y="-119" font-family="Helvetica,sans-Serif" font-size="10.00"> elements</text>
</g>
</g>
</svg>
