<?xml version="1.0" encoding="UTF-8" standalone="no"?>
<!DOCTYPE svg PUBLIC "-//W3C//DTD SVG 1.1//EN"
 "http://www.w3.org/Graphics/SVG/1.1/DTD/svg11.dtd">
<!-- Generated by graphviz version 2.40.1 (20161225.0304)
 -->
<!-- Title: event::Error Pages: 1 -->
<svg width="196pt" height="220pt"
 viewBox="0.00 0.00 196.00 220.00" xmlns="http://www.w3.org/2000/svg" xmlns:xlink="http://www.w3.org/1999/xlink">
<g id="graph0" class="graph" transform="scale(1 1) rotate(0) translate(4 216)">
<title>event::Error</title>
<polygon fill="#ffffff" stroke="transparent" points="-4,4 -4,-216 192,-216 192,4 -4,4"/>
<!-- Node2 -->
<g id="node1" class="node">
<title>Node2</title>
<polygon fill="#bfbfbf" stroke="#000000" points="9.5,-.5 9.5,-19.5 77.5,-19.5 77.5,-.5 9.5,-.5"/>
<text text-anchor="middle" x="43.5" y="-7.5" font-family="Helvetica,sans-Serif" font-size="10.00" fill="#000000">event::Error</text>
</g>
<!-- Node3 -->
<g id="node2" class="node">
<title>Node3</title>
<g id="a_node2"><a xlink:href="classevent_1_1_base_event.html" target="_top" xlink:title="Base class for all event objects. ">
<polygon fill="#ffffff" stroke="#000000" points="93,-57.5 93,-76.5 188,-76.5 188,-57.5 93,-57.5"/>
<text text-anchor="middle" x="140.5" y="-64.5" font-family="Helvetica,sans-Serif" font-size="10.00" fill="#000000">event::BaseEvent</text>
</a>
</g>
</g>
<!-- Node3&#45;&gt;Node2 -->
<g id="edge1" class="edge">
<title>Node3&#45;&gt;Node2</title>
<path fill="none" stroke="#191970" d="M115.4234,-52.2642C97.863,-41.9452 74.9111,-28.4581 59.7117,-19.5265"/>
<polygon fill="#191970" stroke="#191970" points="113.6504,-55.2819 124.0453,-57.3307 117.1969,-49.2468 113.6504,-55.2819"/>
</g>
<!-- Node4 -->
<g id="node3" class="node">
<title>Node4</title>
<g id="a_node3"><a xlink:title="STL class. ">
<polygon fill="#ffffff" stroke="#bfbfbf" points="17.5,-124.5 17.5,-143.5 77.5,-143.5 77.5,-124.5 17.5,-124.5"/>
<text text-anchor="middle" x="47.5" y="-131.5" font-family="Helvetica,sans-Serif" font-size="10.00" fill="#000000">std::string</text>
</a>
</g>
</g>
<!-- Node4&#45;&gt;Node2 -->
<g id="edge4" class="edge">
<title>Node4&#45;&gt;Node2</title>
<path fill="none" stroke="#9a32cd" stroke-dasharray="5,2" d="M44.8969,-114.1736C43.5905,-103.2326 42.1503,-89.39 41.5,-77 41.0341,-68.1233 41.311,-65.8869 41.5,-57 41.7744,-44.0989 42.4719,-29.2193 42.9657,-19.7178"/>
<polygon fill="#9a32cd" stroke="#9a32cd" points="41.4548,-114.8551 46.1711,-124.3423 48.4005,-113.9847 41.4548,-114.8551"/>
<text text-anchor="middle" x="63" y="-64.5" font-family="Helvetica,sans-Serif" font-size="10.00" fill="#000000"> message</text>
</g>
<!-- Node4&#45;&gt;Node3 -->
<g id="edge2" class="edge">
<title>Node4&#45;&gt;Node3</title>
<path fill="none" stroke="#9a32cd" stroke-dasharray="5,2" d="M69.0008,-118.5102C86.9667,-105.567 112.0176,-87.5195 127.2001,-76.5817"/>
<polygon fill="#9a32cd" stroke="#9a32cd" points="66.8925,-115.7153 60.8246,-124.4005 70.9842,-121.3949 66.8925,-115.7153"/>
<text text-anchor="middle" x="116" y="-98" font-family="Helvetica,sans-Serif" font-size="10.00" fill="#000000"> variant</text>
</g>
<!-- Node5 -->
<g id="node4" class="node">
<title>Node5</title>
<g id="a_node4"><a xlink:title="STL class. ">
<polygon fill="#ffffff" stroke="#bfbfbf" points="0,-181.5 0,-211.5 95,-211.5 95,-181.5 0,-181.5"/>
<text text-anchor="start" x="8" y="-199.5" font-family="Helvetica,sans-Serif" font-size="10.00" fill="#000000">std::basic_string&lt;</text>
<text text-anchor="middle" x="47.5" y="-188.5" font-family="Helvetica,sans-Serif" font-size="10.00" fill="#000000"> char &gt;</text>
</a>
</g>
</g>
<!-- Node5&#45;&gt;Node4 -->
<g id="edge3" class="edge">
<title>Node5&#45;&gt;Node4</title>
<path fill="none" stroke="#191970" d="M47.5,-171.3498C47.5,-161.6481 47.5,-151.1303 47.5,-143.7356"/>
<polygon fill="#191970" stroke="#191970" points="44.0001,-171.3705 47.5,-181.3705 51.0001,-171.3705 44.0001,-171.3705"/>
</g>
</g>
</svg>
