<?xml version="1.0" encoding="UTF-8" standalone="no"?>
<!DOCTYPE svg PUBLIC "-//W3C//DTD SVG 1.1//EN"
 "http://www.w3.org/Graphics/SVG/1.1/DTD/svg11.dtd">
<!-- Generated by graphviz version 2.38.0 (20140413.2041)
 -->
<!-- Title: Uptane::Exception Pages: 1 -->
<svg width="200pt" height="163pt"
 viewBox="0.00 0.00 199.50 163.00" xmlns="http://www.w3.org/2000/svg" xmlns:xlink="http://www.w3.org/1999/xlink">
<g id="graph0" class="graph" transform="scale(1 1) rotate(0) translate(4 159)">
<title>Uptane::Exception</title>
<polygon fill="white" stroke="none" points="-4,4 -4,-159 195.5,-159 195.5,4 -4,4"/>
<!-- Node15 -->
<g id="node1" class="node"><title>Node15</title>
<polygon fill="#bfbfbf" stroke="black" points="50,-0.5 50,-19.5 148,-19.5 148,-0.5 50,-0.5"/>
<text text-anchor="middle" x="99" y="-7.5" font-family="Helvetica,sans-Serif" font-size="10.00">Uptane::Exception</text>
</g>
<!-- Node16 -->
<g id="node2" class="node"><title>Node16</title>
<g id="a_node2"><a xlink:title="STL class. ">
<polygon fill="white" stroke="#bfbfbf" points="2.5,-67.5 2.5,-86.5 83.5,-86.5 83.5,-67.5 2.5,-67.5"/>
<text text-anchor="middle" x="43" y="-74.5" font-family="Helvetica,sans-Serif" font-size="10.00">std::logic_error</text>
</a>
</g>
</g>
<!-- Node16&#45;&gt;Node15 -->
<g id="edge1" class="edge"><title>Node16&#45;&gt;Node15</title>
<path fill="none" stroke="midnightblue" d="M57.0992,-59.6348C68.0512,-46.9228 82.805,-29.7978 91.5672,-19.6273"/>
<polygon fill="midnightblue" stroke="midnightblue" points="54.4279,-57.3732 50.5524,-67.2338 59.7312,-61.9422 54.4279,-57.3732"/>
</g>
<!-- Node17 -->
<g id="node3" class="node"><title>Node17</title>
<g id="a_node3"><a xlink:title="STL class. ">
<polygon fill="white" stroke="#bfbfbf" points="0,-130 0,-149 78,-149 78,-130 0,-130"/>
<text text-anchor="middle" x="39" y="-137" font-family="Helvetica,sans-Serif" font-size="10.00">std::exception</text>
</a>
</g>
</g>
<!-- Node17&#45;&gt;Node16 -->
<g id="edge2" class="edge"><title>Node17&#45;&gt;Node16</title>
<path fill="none" stroke="midnightblue" d="M40.2331,-119.849C40.9649,-108.781 41.8581,-95.2718 42.428,-86.6521"/>
<polygon fill="midnightblue" stroke="midnightblue" points="36.7405,-119.623 39.5731,-129.832 43.7253,-120.085 36.7405,-119.623"/>
</g>
<!-- Node18 -->
<g id="node4" class="node"><title>Node18</title>
<g id="a_node4"><a xlink:title="STL class. ">
<polygon fill="white" stroke="#bfbfbf" points="110,-67.5 110,-86.5 170,-86.5 170,-67.5 110,-67.5"/>
<text text-anchor="middle" x="140" y="-74.5" font-family="Helvetica,sans-Serif" font-size="10.00">std::string</text>
</a>
</g>
</g>
<!-- Node18&#45;&gt;Node15 -->
<g id="edge3" class="edge"><title>Node18&#45;&gt;Node15</title>
<path fill="none" stroke="#9a32cd" stroke-dasharray="5,2" d="M128.983,-58.5347C121.045,-45.9499 110.674,-29.5072 104.442,-19.6273"/>
<polygon fill="#9a32cd" stroke="#9a32cd" points="126.175,-60.6431 134.471,-67.2338 132.096,-56.9085 126.175,-60.6431"/>
<text text-anchor="middle" x="148" y="-41" font-family="Helvetica,sans-Serif" font-size="10.00"> reponame_</text>
</g>
<!-- Node19 -->
<g id="node5" class="node"><title>Node19</title>
<g id="a_node5"><a xlink:title="STL class. ">
<polygon fill="white" stroke="#bfbfbf" points="96.5,-124.5 96.5,-154.5 191.5,-154.5 191.5,-124.5 96.5,-124.5"/>
<text text-anchor="start" x="104.5" y="-142.5" font-family="Helvetica,sans-Serif" font-size="10.00">std::basic_string&lt;</text>
<text text-anchor="middle" x="144" y="-131.5" font-family="Helvetica,sans-Serif" font-size="10.00"> char &gt;</text>
</a>
</g>
</g>
<!-- Node19&#45;&gt;Node18 -->
<g id="edge4" class="edge"><title>Node19&#45;&gt;Node18</title>
<path fill="none" stroke="midnightblue" d="M142.403,-114.352C141.753,-104.513 141.043,-93.7753 140.565,-86.5399"/>
<polygon fill="midnightblue" stroke="midnightblue" points="138.92,-114.721 143.072,-124.468 145.905,-114.259 138.92,-114.721"/>
</g>
</g>
</svg>
