<?xml version="1.0" encoding="UTF-8" standalone="no"?>
<!DOCTYPE svg PUBLIC "-//W3C//DTD SVG 1.1//EN"
 "http://www.w3.org/Graphics/SVG/1.1/DTD/svg11.dtd">
<!-- Generated by graphviz version 2.38.0 (20140413.2041)
 -->
<!-- Title: opcuabridge::Image Pages: 1 -->
<svg width="193pt" height="308pt"
 viewBox="0.00 0.00 193.00 308.00" xmlns="http://www.w3.org/2000/svg" xmlns:xlink="http://www.w3.org/1999/xlink">
<g id="graph0" class="graph" transform="scale(1 1) rotate(0) translate(4 304)">
<title>opcuabridge::Image</title>
<polygon fill="white" stroke="none" points="-4,4 -4,-304 189,-304 189,4 -4,4"/>
<!-- Node1 -->
<g id="node1" class="node"><title>Node1</title>
<polygon fill="#bfbfbf" stroke="black" points="11.5,-0.5 11.5,-19.5 113.5,-19.5 113.5,-0.5 11.5,-0.5"/>
<text text-anchor="middle" x="62.5" y="-7.5" font-family="Helvetica,sans-Serif" font-size="10.00">opcuabridge::Image</text>
</g>
<!-- Node2 -->
<g id="node2" class="node"><title>Node2</title>
<g id="a_node2"><a xlink:title="STL class. ">
<polygon fill="white" stroke="#bfbfbf" points="17.5,-212.5 17.5,-231.5 77.5,-231.5 77.5,-212.5 17.5,-212.5"/>
<text text-anchor="middle" x="47.5" y="-219.5" font-family="Helvetica,sans-Serif" font-size="10.00">std::string</text>
</a>
</g>
</g>
<!-- Node2&#45;&gt;Node1 -->
<g id="edge1" class="edge"><title>Node2&#45;&gt;Node1</title>
<path fill="none" stroke="#9a32cd" stroke-dasharray="5,2" d="M46.7027,-201.923C45.7465,-172.745 44.9036,-115.328 50.5,-67 52.4672,-50.0117 57.208,-30.5721 60.1073,-19.644"/>
<polygon fill="#9a32cd" stroke="#9a32cd" points="43.2185,-202.414 47.0878,-212.277 50.2136,-202.154 43.2185,-202.414"/>
<text text-anchor="middle" x="70.5" y="-119" font-family="Helvetica,sans-Serif" font-size="10.00"> filename_</text>
</g>
<!-- Node5 -->
<g id="node5" class="node"><title>Node5</title>
<g id="a_node5"><a xlink:href="classopcuabridge_1_1_hash.html" target="_top" xlink:title="opcuabridge::Hash">
<polygon fill="white" stroke="black" points="66.5,-145.5 66.5,-164.5 164.5,-164.5 164.5,-145.5 66.5,-145.5"/>
<text text-anchor="middle" x="115.5" y="-152.5" font-family="Helvetica,sans-Serif" font-size="10.00">opcuabridge::Hash</text>
</a>
</g>
</g>
<!-- Node2&#45;&gt;Node5 -->
<g id="edge5" class="edge"><title>Node2&#45;&gt;Node5</title>
<path fill="none" stroke="#9a32cd" stroke-dasharray="5,2" d="M64.2418,-204.997C77.5774,-192.25 95.7333,-174.895 106.475,-164.627"/>
<polygon fill="#9a32cd" stroke="#9a32cd" points="61.4811,-202.794 56.6708,-212.234 66.318,-207.854 61.4811,-202.794"/>
<text text-anchor="middle" x="104" y="-186" font-family="Helvetica,sans-Serif" font-size="10.00"> digest_</text>
</g>
<!-- Node3 -->
<g id="node3" class="node"><title>Node3</title>
<g id="a_node3"><a xlink:title="STL class. ">
<polygon fill="white" stroke="#bfbfbf" points="0,-269.5 0,-299.5 95,-299.5 95,-269.5 0,-269.5"/>
<text text-anchor="start" x="8" y="-287.5" font-family="Helvetica,sans-Serif" font-size="10.00">std::basic_string&lt;</text>
<text text-anchor="middle" x="47.5" y="-276.5" font-family="Helvetica,sans-Serif" font-size="10.00"> char &gt;</text>
</a>
</g>
</g>
<!-- Node3&#45;&gt;Node2 -->
<g id="edge2" class="edge"><title>Node3&#45;&gt;Node2</title>
<path fill="none" stroke="midnightblue" d="M47.5,-259.352C47.5,-249.513 47.5,-238.775 47.5,-231.54"/>
<polygon fill="midnightblue" stroke="midnightblue" points="44.0001,-259.468 47.5,-269.468 51.0001,-259.468 44.0001,-259.468"/>
</g>
<!-- Node4 -->
<g id="node4" class="node"><title>Node4</title>
<polygon fill="white" stroke="#bfbfbf" points="60,-67.5 60,-97.5 185,-97.5 185,-67.5 60,-67.5"/>
<text text-anchor="start" x="68" y="-85.5" font-family="Helvetica,sans-Serif" font-size="10.00">std::vector&lt; opcuabridge</text>
<text text-anchor="middle" x="122.5" y="-74.5" font-family="Helvetica,sans-Serif" font-size="10.00">::Hash &gt;</text>
</g>
<!-- Node4&#45;&gt;Node1 -->
<g id="edge3" class="edge"><title>Node4&#45;&gt;Node1</title>
<path fill="none" stroke="#9a32cd" stroke-dasharray="5,2" d="M103.678,-59.3845C92.318,-46.0362 78.4622,-29.7556 70.0686,-19.8932"/>
<polygon fill="#9a32cd" stroke="#9a32cd" points="101.211,-61.8863 110.358,-67.2333 106.542,-57.3494 101.211,-61.8863"/>
<text text-anchor="middle" x="114.5" y="-41" font-family="Helvetica,sans-Serif" font-size="10.00"> hashes_</text>
</g>
<!-- Node5&#45;&gt;Node4 -->
<g id="edge4" class="edge"><title>Node5&#45;&gt;Node4</title>
<path fill="none" stroke="#9a32cd" stroke-dasharray="5,2" d="M117.363,-135.236C118.538,-123.408 120.029,-108.383 121.102,-97.5762"/>
<polygon fill="#9a32cd" stroke="#9a32cd" points="113.864,-135.058 116.358,-145.355 120.829,-135.75 113.864,-135.058"/>
<text text-anchor="middle" x="140" y="-119" font-family="Helvetica,sans-Serif" font-size="10.00"> elements</text>
</g>
</g>
</svg>
