<?xml version="1.0" encoding="UTF-8" standalone="no"?>
<!DOCTYPE svg PUBLIC "-//W3C//DTD SVG 1.1//EN"
 "http://www.w3.org/Graphics/SVG/1.1/DTD/svg11.dtd">
<!-- Generated by graphviz version 2.38.0 (20140413.2041)
 -->
<!-- Title: opcuabridge::ImageBlock Pages: 1 -->
<svg width="592pt" height="186pt"
 viewBox="0.00 0.00 592.00 186.00" xmlns="http://www.w3.org/2000/svg" xmlns:xlink="http://www.w3.org/1999/xlink">
<g id="graph0" class="graph" transform="scale(1 1) rotate(0) translate(4 182)">
<title>opcuabridge::ImageBlock</title>
<polygon fill="white" stroke="none" points="-4,4 -4,-182 588,-182 588,4 -4,4"/>
<!-- Node1 -->
<g id="node1" class="node"><title>Node1</title>
<polygon fill="#bfbfbf" stroke="black" points="457,-70.5 457,-89.5 584,-89.5 584,-70.5 457,-70.5"/>
<text text-anchor="middle" x="520.5" y="-77.5" font-family="Helvetica,sans-Serif" font-size="10.00">opcuabridge::ImageBlock</text>
</g>
<!-- Node2 -->
<g id="node2" class="node"><title>Node2</title>
<g id="a_node2"><a xlink:href="structopcuabridge_1_1_message_on_after_write_callback.html" target="_top" xlink:title="opcuabridge::MessageOnAfter\lWriteCallback\&lt; opcuabridge\l::ImageBlock \&gt;">
<polygon fill="white" stroke="black" points="177.5,-136.5 177.5,-177.5 326.5,-177.5 326.5,-136.5 177.5,-136.5"/>
<text text-anchor="start" x="185.5" y="-165.5" font-family="Helvetica,sans-Serif" font-size="10.00">opcuabridge::MessageOnAfter</text>
<text text-anchor="start" x="185.5" y="-154.5" font-family="Helvetica,sans-Serif" font-size="10.00">WriteCallback&lt; opcuabridge</text>
<text text-anchor="middle" x="252" y="-143.5" font-family="Helvetica,sans-Serif" font-size="10.00">::ImageBlock &gt;</text>
</a>
</g>
</g>
<!-- Node2&#45;&gt;Node1 -->
<g id="edge1" class="edge"><title>Node2&#45;&gt;Node1</title>
<path fill="none" stroke="#9a32cd" stroke-dasharray="5,2" d="M336.475,-140.183C368.807,-132.909 405.93,-123.618 439,-113 459.709,-106.351 482.591,-96.7408 498.649,-89.6044"/>
<polygon fill="#9a32cd" stroke="#9a32cd" points="335.608,-136.79 326.605,-142.375 337.126,-143.623 335.608,-136.79"/>
<text text-anchor="middle" x="393.5" y="-140" font-family="Helvetica,sans-Serif" font-size="10.00"> on_after_write_cb_</text>
</g>
<!-- Node3 -->
<g id="node3" class="node"><title>Node3</title>
<g id="a_node3"><a xlink:title="STL class. ">
<polygon fill="white" stroke="#bfbfbf" points="222,-98.5 222,-117.5 282,-117.5 282,-98.5 222,-98.5"/>
<text text-anchor="middle" x="252" y="-105.5" font-family="Helvetica,sans-Serif" font-size="10.00">std::string</text>
</a>
</g>
</g>
<!-- Node3&#45;&gt;Node1 -->
<g id="edge2" class="edge"><title>Node3&#45;&gt;Node1</title>
<path fill="none" stroke="#9a32cd" stroke-dasharray="5,2" d="M292.157,-103.886C335.444,-99.338 405.782,-91.9479 456.769,-86.5909"/>
<polygon fill="#9a32cd" stroke="#9a32cd" points="291.607,-100.424 282.027,-104.95 292.338,-107.386 291.607,-100.424"/>
<text text-anchor="middle" x="393.5" y="-101" font-family="Helvetica,sans-Serif" font-size="10.00"> filename_</text>
</g>
<!-- Node4 -->
<g id="node4" class="node"><title>Node4</title>
<g id="a_node4"><a xlink:title="STL class. ">
<polygon fill="white" stroke="#bfbfbf" points="0,-93 0,-123 95,-123 95,-93 0,-93"/>
<text text-anchor="start" x="8" y="-111" font-family="Helvetica,sans-Serif" font-size="10.00">std::basic_string&lt;</text>
<text text-anchor="middle" x="47.5" y="-100" font-family="Helvetica,sans-Serif" font-size="10.00"> char &gt;</text>
</a>
</g>
</g>
<!-- Node4&#45;&gt;Node3 -->
<g id="edge3" class="edge"><title>Node4&#45;&gt;Node3</title>
<path fill="none" stroke="midnightblue" d="M105.588,-108C143.418,-108 191.479,-108 221.75,-108"/>
<polygon fill="midnightblue" stroke="midnightblue" points="105.212,-104.5 95.2119,-108 105.212,-111.5 105.212,-104.5"/>
</g>
<!-- Node5 -->
<g id="node5" class="node"><title>Node5</title>
<g id="a_node5"><a xlink:href="structopcuabridge_1_1_message_on_before_read_callback.html" target="_top" xlink:title="opcuabridge::MessageOnBefore\lReadCallback\&lt; opcuabridge\l::ImageBlock \&gt;">
<polygon fill="white" stroke="black" points="174,-38.5 174,-79.5 330,-79.5 330,-38.5 174,-38.5"/>
<text text-anchor="start" x="182" y="-67.5" font-family="Helvetica,sans-Serif" font-size="10.00">opcuabridge::MessageOnBefore</text>
<text text-anchor="start" x="182" y="-56.5" font-family="Helvetica,sans-Serif" font-size="10.00">ReadCallback&lt; opcuabridge</text>
<text text-anchor="middle" x="252" y="-45.5" font-family="Helvetica,sans-Serif" font-size="10.00">::ImageBlock &gt;</text>
</a>
</g>
</g>
<!-- Node5&#45;&gt;Node1 -->
<g id="edge4" class="edge"><title>Node5&#45;&gt;Node1</title>
<path fill="none" stroke="#9a32cd" stroke-dasharray="5,2" d="M340.443,-61.4343C371.601,-62.7764 406.914,-64.8402 439,-68 445.89,-68.6786 453.092,-69.537 460.234,-70.4816"/>
<polygon fill="#9a32cd" stroke="#9a32cd" points="340.182,-57.9207 330.047,-61.0063 339.894,-64.9147 340.182,-57.9207"/>
<text text-anchor="middle" x="393.5" y="-71" font-family="Helvetica,sans-Serif" font-size="10.00"> on_before_read_cb_</text>
</g>
<!-- Node6 -->
<g id="node6" class="node"><title>Node6</title>
<g id="a_node6"><a xlink:title="STL class. ">
<polygon fill="white" stroke="#bfbfbf" points="208.5,-0.5 208.5,-19.5 295.5,-19.5 295.5,-0.5 208.5,-0.5"/>
<text text-anchor="middle" x="252" y="-7.5" font-family="Helvetica,sans-Serif" font-size="10.00">std::vector&lt; T &gt;</text>
</a>
</g>
</g>
<!-- Node6&#45;&gt;Node1 -->
<g id="edge5" class="edge"><title>Node6&#45;&gt;Node1</title>
<path fill="none" stroke="#9a32cd" stroke-dasharray="5,2" d="M305.895,-17.7333C343.486,-23.902 394.913,-33.7141 439,-47 460.115,-53.363 483.328,-63.2017 499.379,-70.482"/>
<polygon fill="#9a32cd" stroke="#9a32cd" points="306.106,-14.2223 295.677,-16.0902 304.994,-21.1335 306.106,-14.2223"/>
<text text-anchor="middle" x="393.5" y="-50" font-family="Helvetica,sans-Serif" font-size="10.00"> block_</text>
</g>
<!-- Node7 -->
<g id="node7" class="node"><title>Node7</title>
<polygon fill="white" stroke="#bfbfbf" points="33,-0.5 33,-19.5 62,-19.5 62,-0.5 33,-0.5"/>
<text text-anchor="middle" x="47.5" y="-7.5" font-family="Helvetica,sans-Serif" font-size="10.00">T</text>
</g>
<!-- Node7&#45;&gt;Node6 -->
<g id="edge6" class="edge"><title>Node7&#45;&gt;Node6</title>
<path fill="none" stroke="#9a32cd" stroke-dasharray="5,2" d="M72.2787,-10C105.646,-10 166.907,-10 208.291,-10"/>
<polygon fill="#9a32cd" stroke="#9a32cd" points="72.1011,-6.5001 62.101,-10 72.101,-13.5001 72.1011,-6.5001"/>
<text text-anchor="middle" x="134.5" y="-13" font-family="Helvetica,sans-Serif" font-size="10.00"> elements</text>
</g>
</g>
</svg>
