<?xml version="1.0" encoding="UTF-8" standalone="no"?>
<!DOCTYPE svg PUBLIC "-//W3C//DTD SVG 1.1//EN"
 "http://www.w3.org/Graphics/SVG/1.1/DTD/svg11.dtd">
<!-- Generated by graphviz version 2.38.0 (20140413.2041)
 -->
<!-- Title: BaseConfig Pages: 1 -->
<svg width="320pt" height="84pt"
 viewBox="0.00 0.00 319.50 84.00" xmlns="http://www.w3.org/2000/svg" xmlns:xlink="http://www.w3.org/1999/xlink">
<g id="graph0" class="graph" transform="scale(1 1) rotate(0) translate(4 80)">
<title>BaseConfig</title>
<polygon fill="white" stroke="none" points="-4,4 -4,-80 315.5,-80 315.5,4 -4,4"/>
<!-- Node0 -->
<g id="node1" class="node"><title>Node0</title>
<polygon fill="#bfbfbf" stroke="black" points="149,-56.5 149,-75.5 217,-75.5 217,-56.5 149,-56.5"/>
<text text-anchor="middle" x="183" y="-63.5" font-family="Helvetica,sans-Serif" font-size="10.00">BaseConfig</text>
</g>
<!-- Node1 -->
<g id="node2" class="node"><title>Node1</title>
<g id="a_node2"><a xlink:href="class_aktualizr_info_config.html" target="_top" xlink:title="AktualizrInfoConfig">
<polygon fill="white" stroke="black" points="0,-0.5 0,-19.5 100,-19.5 100,-0.5 0,-0.5"/>
<text text-anchor="middle" x="50" y="-7.5" font-family="Helvetica,sans-Serif" font-size="10.00">AktualizrInfoConfig</text>
</a>
</g>
</g>
<!-- Node0&#45;&gt;Node1 -->
<g id="edge1" class="edge"><title>Node0&#45;&gt;Node1</title>
<path fill="none" stroke="midnightblue" d="M152.552,-52.6377C127.593,-42.504 92.9231,-28.4274 70.9756,-19.5164"/>
<polygon fill="midnightblue" stroke="midnightblue" points="151.344,-55.9245 161.926,-56.4435 153.977,-49.4387 151.344,-55.9245"/>
</g>
<!-- Node2 -->
<g id="node3" class="node"><title>Node2</title>
<g id="a_node3"><a xlink:href="class_aktualizr_secondary_config.html" target="_top" xlink:title="AktualizrSecondaryConfig">
<polygon fill="white" stroke="black" points="118,-0.5 118,-19.5 248,-19.5 248,-0.5 118,-0.5"/>
<text text-anchor="middle" x="183" y="-7.5" font-family="Helvetica,sans-Serif" font-size="10.00">AktualizrSecondaryConfig</text>
</a>
</g>
</g>
<!-- Node0&#45;&gt;Node2 -->
<g id="edge2" class="edge"><title>Node0&#45;&gt;Node2</title>
<path fill="none" stroke="midnightblue" d="M183,-45.8045C183,-36.9102 183,-26.7798 183,-19.7511"/>
<polygon fill="midnightblue" stroke="midnightblue" points="179.5,-46.083 183,-56.083 186.5,-46.083 179.5,-46.083"/>
</g>
<!-- Node3 -->
<g id="node4" class="node"><title>Node3</title>
<g id="a_node4"><a xlink:href="class_config.html" target="_top" xlink:title="Configuration object for an aktualizr instance running on a primary ECU. ">
<polygon fill="white" stroke="black" points="266.5,-0.5 266.5,-19.5 311.5,-19.5 311.5,-0.5 266.5,-0.5"/>
<text text-anchor="middle" x="289" y="-7.5" font-family="Helvetica,sans-Serif" font-size="10.00">Config</text>
</a>
</g>
</g>
<!-- Node0&#45;&gt;Node3 -->
<g id="edge3" class="edge"><title>Node0&#45;&gt;Node3</title>
<path fill="none" stroke="midnightblue" d="M209.056,-51.7261C228.684,-41.7271 255.028,-28.3065 272.012,-19.6545"/>
<polygon fill="midnightblue" stroke="midnightblue" points="207.352,-48.666 200.031,-56.324 210.53,-54.9033 207.352,-48.666"/>
</g>
</g>
</svg>
