<?xml version="1.0" encoding="UTF-8" standalone="no"?>
<!DOCTYPE svg PUBLIC "-//W3C//DTD SVG 1.1//EN"
 "http://www.w3.org/Graphics/SVG/1.1/DTD/svg11.dtd">
<!-- Generated by graphviz version 2.38.0 (20140413.2041)
 -->
<!-- Title: Uptane::Exception Pages: 1 -->
<svg width="522pt" height="446pt"
 viewBox="0.00 0.00 522.00 446.00" xmlns="http://www.w3.org/2000/svg" xmlns:xlink="http://www.w3.org/1999/xlink">
<g id="graph0" class="graph" transform="scale(1 1) rotate(0) translate(4 442)">
<title>Uptane::Exception</title>
<polygon fill="white" stroke="none" points="-4,4 -4,-442 518,-442 518,4 -4,4"/>
<!-- Node0 -->
<g id="node1" class="node"><title>Node0</title>
<polygon fill="#bfbfbf" stroke="black" points="231,-209.5 231,-228.5 329,-228.5 329,-209.5 231,-209.5"/>
<text text-anchor="middle" x="280" y="-216.5" font-family="Helvetica,sans-Serif" font-size="10.00">Uptane::Exception</text>
</g>
<!-- Node3 -->
<g id="node4" class="node"><title>Node3</title>
<g id="a_node4"><a xlink:href="class_uptane_1_1_bad_ecu_id.html" target="_top" xlink:title="Uptane::BadEcuId">
<polygon fill="white" stroke="black" points="391,-418.5 391,-437.5 488,-437.5 488,-418.5 391,-418.5"/>
<text text-anchor="middle" x="439.5" y="-425.5" font-family="Helvetica,sans-Serif" font-size="10.00">Uptane::BadEcuId</text>
</a>
</g>
</g>
<!-- Node0&#45;&gt;Node3 -->
<g id="edge3" class="edge"><title>Node0&#45;&gt;Node3</title>
<path fill="none" stroke="midnightblue" d="M283.926,-238.606C290.757,-277.272 311.442,-363.545 365,-409 372.336,-415.226 381.464,-419.446 390.767,-422.298"/>
<polygon fill="midnightblue" stroke="midnightblue" points="287.362,-237.933 282.289,-228.632 280.454,-239.066 287.362,-237.933"/>
</g>
<!-- Node4 -->
<g id="node5" class="node"><title>Node4</title>
<g id="a_node5"><a xlink:href="class_uptane_1_1_expired_metadata.html" target="_top" xlink:title="Uptane::ExpiredMetadata">
<polygon fill="white" stroke="black" points="375.5,-380.5 375.5,-399.5 503.5,-399.5 503.5,-380.5 375.5,-380.5"/>
<text text-anchor="middle" x="439.5" y="-387.5" font-family="Helvetica,sans-Serif" font-size="10.00">Uptane::ExpiredMetadata</text>
</a>
</g>
</g>
<!-- Node0&#45;&gt;Node4 -->
<g id="edge4" class="edge"><title>Node0&#45;&gt;Node4</title>
<path fill="none" stroke="midnightblue" d="M286.185,-238.243C295.958,-270.734 320.256,-336.313 365,-371 370,-374.876 375.709,-377.967 381.685,-380.43"/>
<polygon fill="midnightblue" stroke="midnightblue" points="289.537,-237.235 283.418,-228.585 282.807,-239.162 289.537,-237.235"/>
</g>
<!-- Node5 -->
<g id="node6" class="node"><title>Node5</title>
<g id="a_node6"><a xlink:href="class_uptane_1_1_illegal_rsa_key_size.html" target="_top" xlink:title="Uptane::IllegalRsaKeySize">
<polygon fill="white" stroke="black" points="372.5,-342.5 372.5,-361.5 506.5,-361.5 506.5,-342.5 372.5,-342.5"/>
<text text-anchor="middle" x="439.5" y="-349.5" font-family="Helvetica,sans-Serif" font-size="10.00">Uptane::IllegalRsaKeySize</text>
</a>
</g>
</g>
<!-- Node0&#45;&gt;Node5 -->
<g id="edge5" class="edge"><title>Node0&#45;&gt;Node5</title>
<path fill="none" stroke="midnightblue" d="M289.665,-237.714C302.461,-263.237 328.858,-308.571 365,-333 370.787,-336.912 377.329,-340.018 384.064,-342.485"/>
<polygon fill="midnightblue" stroke="midnightblue" points="292.805,-236.168 285.297,-228.693 286.505,-239.219 292.805,-236.168"/>
</g>
<!-- Node6 -->
<g id="node7" class="node"><title>Node6</title>
<g id="a_node7"><a xlink:href="class_uptane_1_1_illegal_threshold.html" target="_top" xlink:title="Uptane::IllegalThreshold">
<polygon fill="white" stroke="black" points="378.5,-304.5 378.5,-323.5 500.5,-323.5 500.5,-304.5 378.5,-304.5"/>
<text text-anchor="middle" x="439.5" y="-311.5" font-family="Helvetica,sans-Serif" font-size="10.00">Uptane::IllegalThreshold</text>
</a>
</g>
</g>
<!-- Node0&#45;&gt;Node6 -->
<g id="edge6" class="edge"><title>Node0&#45;&gt;Node6</title>
<path fill="none" stroke="midnightblue" d="M295.44,-236.244C310.906,-253.61 337.028,-279.929 365,-295 372.194,-298.876 380.214,-301.989 388.239,-304.481"/>
<polygon fill="midnightblue" stroke="midnightblue" points="297.94,-233.784 288.742,-228.526 292.653,-238.373 297.94,-233.784"/>
</g>
<!-- Node7 -->
<g id="node8" class="node"><title>Node7</title>
<g id="a_node8"><a xlink:href="class_uptane_1_1_invalid_metadata.html" target="_top" xlink:title="Uptane::InvalidMetadata">
<polygon fill="white" stroke="black" points="378,-266.5 378,-285.5 501,-285.5 501,-266.5 378,-266.5"/>
<text text-anchor="middle" x="439.5" y="-273.5" font-family="Helvetica,sans-Serif" font-size="10.00">Uptane::InvalidMetadata</text>
</a>
</g>
</g>
<!-- Node0&#45;&gt;Node7 -->
<g id="edge7" class="edge"><title>Node0&#45;&gt;Node7</title>
<path fill="none" stroke="midnightblue" d="M309.001,-233.129C325.103,-240.881 345.873,-250.258 365,-257 375.068,-260.549 386.124,-263.754 396.533,-266.478"/>
<polygon fill="midnightblue" stroke="midnightblue" points="310.156,-229.798 299.635,-228.551 307.082,-236.087 310.156,-229.798"/>
</g>
<!-- Node8 -->
<g id="node9" class="node"><title>Node8</title>
<g id="a_node9"><a xlink:href="class_uptane_1_1_missing_repo.html" target="_top" xlink:title="Uptane::MissingRepo">
<polygon fill="white" stroke="black" points="384,-228.5 384,-247.5 495,-247.5 495,-228.5 384,-228.5"/>
<text text-anchor="middle" x="439.5" y="-235.5" font-family="Helvetica,sans-Serif" font-size="10.00">Uptane::MissingRepo</text>
</a>
</g>
</g>
<!-- Node0&#45;&gt;Node8 -->
<g id="edge8" class="edge"><title>Node0&#45;&gt;Node8</title>
<path fill="none" stroke="midnightblue" d="M339.049,-226.003C353.68,-227.768 369.337,-229.657 383.797,-231.401"/>
<polygon fill="midnightblue" stroke="midnightblue" points="339.458,-222.527 329.111,-224.804 338.62,-229.476 339.458,-222.527"/>
</g>
<!-- Node9 -->
<g id="node10" class="node"><title>Node9</title>
<g id="a_node10"><a xlink:href="class_uptane_1_1_miss_match_target.html" target="_top" xlink:title="Uptane::MissMatchTarget">
<polygon fill="white" stroke="black" points="374.5,-190.5 374.5,-209.5 504.5,-209.5 504.5,-190.5 374.5,-190.5"/>
<text text-anchor="middle" x="439.5" y="-197.5" font-family="Helvetica,sans-Serif" font-size="10.00">Uptane::MissMatchTarget</text>
</a>
</g>
</g>
<!-- Node0&#45;&gt;Node9 -->
<g id="edge9" class="edge"><title>Node0&#45;&gt;Node9</title>
<path fill="none" stroke="midnightblue" d="M339.044,-211.998C350.566,-210.608 362.723,-209.141 374.432,-207.729"/>
<polygon fill="midnightblue" stroke="midnightblue" points="338.62,-208.524 329.111,-213.196 339.458,-215.473 338.62,-208.524"/>
</g>
<!-- Node10 -->
<g id="node11" class="node"><title>Node10</title>
<g id="a_node11"><a xlink:href="class_uptane_1_1_non_unique_signatures.html" target="_top" xlink:title="Uptane::NonUniqueSignatures">
<polygon fill="white" stroke="black" points="365,-152.5 365,-171.5 514,-171.5 514,-152.5 365,-152.5"/>
<text text-anchor="middle" x="439.5" y="-159.5" font-family="Helvetica,sans-Serif" font-size="10.00">Uptane::NonUniqueSignatures</text>
</a>
</g>
</g>
<!-- Node0&#45;&gt;Node10 -->
<g id="edge10" class="edge"><title>Node0&#45;&gt;Node10</title>
<path fill="none" stroke="midnightblue" d="M309.001,-204.871C325.103,-197.119 345.873,-187.742 365,-181 375.068,-177.451 386.124,-174.246 396.533,-171.522"/>
<polygon fill="midnightblue" stroke="midnightblue" points="307.082,-201.913 299.635,-209.449 310.156,-208.202 307.082,-201.913"/>
</g>
<!-- Node11 -->
<g id="node12" class="node"><title>Node11</title>
<g id="a_node12"><a xlink:href="class_uptane_1_1_oversized_target.html" target="_top" xlink:title="Uptane::OversizedTarget">
<polygon fill="white" stroke="black" points="376.5,-114.5 376.5,-133.5 502.5,-133.5 502.5,-114.5 376.5,-114.5"/>
<text text-anchor="middle" x="439.5" y="-121.5" font-family="Helvetica,sans-Serif" font-size="10.00">Uptane::OversizedTarget</text>
</a>
</g>
</g>
<!-- Node0&#45;&gt;Node11 -->
<g id="edge11" class="edge"><title>Node0&#45;&gt;Node11</title>
<path fill="none" stroke="midnightblue" d="M295.44,-201.756C310.906,-184.39 337.028,-158.071 365,-143 372.194,-139.124 380.214,-136.011 388.239,-133.519"/>
<polygon fill="midnightblue" stroke="midnightblue" points="292.653,-199.627 288.742,-209.474 297.94,-204.216 292.653,-199.627"/>
</g>
<!-- Node12 -->
<g id="node13" class="node"><title>Node12</title>
<g id="a_node13"><a xlink:href="class_uptane_1_1_security_exception.html" target="_top" xlink:title="Uptane::SecurityException">
<polygon fill="white" stroke="black" points="372.5,-76.5 372.5,-95.5 506.5,-95.5 506.5,-76.5 372.5,-76.5"/>
<text text-anchor="middle" x="439.5" y="-83.5" font-family="Helvetica,sans-Serif" font-size="10.00">Uptane::SecurityException</text>
</a>
</g>
</g>
<!-- Node0&#45;&gt;Node12 -->
<g id="edge12" class="edge"><title>Node0&#45;&gt;Node12</title>
<path fill="none" stroke="midnightblue" d="M289.665,-200.286C302.461,-174.763 328.858,-129.429 365,-105 370.787,-101.088 377.329,-97.9819 384.064,-95.5151"/>
<polygon fill="midnightblue" stroke="midnightblue" points="286.505,-198.781 285.297,-209.307 292.805,-201.832 286.505,-198.781"/>
</g>
<!-- Node13 -->
<g id="node14" class="node"><title>Node13</title>
<g id="a_node14"><a xlink:href="class_uptane_1_1_target_hash_mismatch.html" target="_top" xlink:title="Uptane::TargetHashMismatch">
<polygon fill="white" stroke="black" points="365.5,-38.5 365.5,-57.5 513.5,-57.5 513.5,-38.5 365.5,-38.5"/>
<text text-anchor="middle" x="439.5" y="-45.5" font-family="Helvetica,sans-Serif" font-size="10.00">Uptane::TargetHashMismatch</text>
</a>
</g>
</g>
<!-- Node0&#45;&gt;Node13 -->
<g id="edge13" class="edge"><title>Node0&#45;&gt;Node13</title>
<path fill="none" stroke="midnightblue" d="M286.185,-199.757C295.958,-167.266 320.256,-101.687 365,-67 370,-63.124 375.709,-60.0335 381.685,-57.5702"/>
<polygon fill="midnightblue" stroke="midnightblue" points="282.807,-198.838 283.418,-209.415 289.537,-200.765 282.807,-198.838"/>
</g>
<!-- Node14 -->
<g id="node15" class="node"><title>Node14</title>
<g id="a_node15"><a xlink:href="class_uptane_1_1_unmet_threshold.html" target="_top" xlink:title="Uptane::UnmetThreshold">
<polygon fill="white" stroke="black" points="376.5,-0.5 376.5,-19.5 502.5,-19.5 502.5,-0.5 376.5,-0.5"/>
<text text-anchor="middle" x="439.5" y="-7.5" font-family="Helvetica,sans-Serif" font-size="10.00">Uptane::UnmetThreshold</text>
</a>
</g>
</g>
<!-- Node0&#45;&gt;Node14 -->
<g id="edge14" class="edge"><title>Node0&#45;&gt;Node14</title>
<path fill="none" stroke="midnightblue" d="M283.926,-199.394C290.757,-160.728 311.442,-74.4553 365,-29 369.522,-25.1622 374.725,-22.0866 380.23,-19.6237"/>
<polygon fill="midnightblue" stroke="midnightblue" points="280.454,-198.934 282.289,-209.368 287.362,-200.067 280.454,-198.934"/>
</g>
<!-- Node1 -->
<g id="node2" class="node"><title>Node1</title>
<g id="a_node2"><a xlink:title="STL class. ">
<polygon fill="white" stroke="#bfbfbf" points="114,-209.5 114,-228.5 195,-228.5 195,-209.5 114,-209.5"/>
<text text-anchor="middle" x="154.5" y="-216.5" font-family="Helvetica,sans-Serif" font-size="10.00">std::logic_error</text>
</a>
</g>
</g>
<!-- Node1&#45;&gt;Node0 -->
<g id="edge1" class="edge"><title>Node1&#45;&gt;Node0</title>
<path fill="none" stroke="midnightblue" d="M205.279,-219C213.655,-219 222.338,-219 230.677,-219"/>
<polygon fill="midnightblue" stroke="midnightblue" points="205.256,-215.5 195.256,-219 205.256,-222.5 205.256,-215.5"/>
</g>
<!-- Node2 -->
<g id="node3" class="node"><title>Node2</title>
<g id="a_node3"><a xlink:title="STL class. ">
<polygon fill="white" stroke="#bfbfbf" points="5.68434e-14,-209.5 5.68434e-14,-228.5 78,-228.5 78,-209.5 5.68434e-14,-209.5"/>
<text text-anchor="middle" x="39" y="-216.5" font-family="Helvetica,sans-Serif" font-size="10.00">std::exception</text>
</a>
</g>
</g>
<!-- Node2&#45;&gt;Node1 -->
<g id="edge2" class="edge"><title>Node2&#45;&gt;Node1</title>
<path fill="none" stroke="midnightblue" d="M88.2839,-219C96.7733,-219 105.521,-219 113.745,-219"/>
<polygon fill="midnightblue" stroke="midnightblue" points="88.1096,-215.5 78.1096,-219 88.1096,-222.5 88.1096,-215.5"/>
</g>
</g>
</svg>
