<?xml version="1.0" encoding="UTF-8" standalone="no"?>
<!DOCTYPE svg PUBLIC "-//W3C//DTD SVG 1.1//EN"
 "http://www.w3.org/Graphics/SVG/1.1/DTD/svg11.dtd">
<!-- Generated by graphviz version 2.38.0 (20140413.2041)
 -->
<!-- Title: AktualizrSecondaryInterface Pages: 1 -->
<svg width="442pt" height="84pt"
 viewBox="0.00 0.00 441.50 84.00" xmlns="http://www.w3.org/2000/svg" xmlns:xlink="http://www.w3.org/1999/xlink">
<g id="graph0" class="graph" transform="scale(1 1) rotate(0) translate(4 80)">
<title>AktualizrSecondaryInterface</title>
<polygon fill="white" stroke="none" points="-4,4 -4,-80 437.5,-80 437.5,4 -4,4"/>
<!-- Node0 -->
<g id="node1" class="node"><title>Node0</title>
<polygon fill="#bfbfbf" stroke="black" points="114.5,-56.5 114.5,-75.5 254.5,-75.5 254.5,-56.5 114.5,-56.5"/>
<text text-anchor="middle" x="184.5" y="-63.5" font-family="Helvetica,sans-Serif" font-size="10.00">AktualizrSecondaryInterface</text>
</g>
<!-- Node1 -->
<g id="node2" class="node"><title>Node1</title>
<g id="a_node2"><a xlink:href="class_aktualizr_secondary.html" target="_top" xlink:title="AktualizrSecondary">
<polygon fill="white" stroke="black" points="0,-0.5 0,-19.5 101,-19.5 101,-0.5 0,-0.5"/>
<text text-anchor="middle" x="50.5" y="-7.5" font-family="Helvetica,sans-Serif" font-size="10.00">AktualizrSecondary</text>
</a>
</g>
</g>
<!-- Node0&#45;&gt;Node1 -->
<g id="edge1" class="edge"><title>Node0&#45;&gt;Node1</title>
<path fill="none" stroke="midnightblue" d="M153.823,-52.6377C128.677,-42.504 93.7459,-28.4274 71.6334,-19.5164"/>
<polygon fill="midnightblue" stroke="midnightblue" points="152.684,-55.952 163.267,-56.4435 155.3,-49.4594 152.684,-55.952"/>
</g>
<!-- Node2 -->
<g id="node3" class="node"><title>Node2</title>
<g id="a_node3"><a xlink:href="class_aktualizr_secondary_opcua.html" target="_top" xlink:title="AktualizrSecondaryOpcua">
<polygon fill="white" stroke="black" points="119.5,-0.5 119.5,-19.5 249.5,-19.5 249.5,-0.5 119.5,-0.5"/>
<text text-anchor="middle" x="184.5" y="-7.5" font-family="Helvetica,sans-Serif" font-size="10.00">AktualizrSecondaryOpcua</text>
</a>
</g>
</g>
<!-- Node0&#45;&gt;Node2 -->
<g id="edge2" class="edge"><title>Node0&#45;&gt;Node2</title>
<path fill="none" stroke="midnightblue" d="M184.5,-45.8045C184.5,-36.9102 184.5,-26.7798 184.5,-19.7511"/>
<polygon fill="midnightblue" stroke="midnightblue" points="181,-46.083 184.5,-56.083 188,-46.083 181,-46.083"/>
</g>
<!-- Node3 -->
<g id="node4" class="node"><title>Node3</title>
<g id="a_node4"><a xlink:href="class_aktualizr_secondary_with_discovery.html" target="_top" xlink:title="AktualizrSecondaryWithDiscovery">
<polygon fill="white" stroke="black" points="267.5,-0.5 267.5,-19.5 433.5,-19.5 433.5,-0.5 267.5,-0.5"/>
<text text-anchor="middle" x="350.5" y="-7.5" font-family="Helvetica,sans-Serif" font-size="10.00">AktualizrSecondaryWithDiscovery</text>
</a>
</g>
</g>
<!-- Node0&#45;&gt;Node3 -->
<g id="edge3" class="edge"><title>Node0&#45;&gt;Node3</title>
<path fill="none" stroke="midnightblue" d="M220.453,-53.3044C251.732,-43.1294 296.321,-28.6246 324.32,-19.5164"/>
<polygon fill="midnightblue" stroke="midnightblue" points="219.23,-50.0217 210.803,-56.4435 221.395,-56.6783 219.23,-50.0217"/>
</g>
</g>
</svg>
