<?xml version="1.0" encoding="UTF-8" standalone="no"?>
<!DOCTYPE svg PUBLIC "-//W3C//DTD SVG 1.1//EN"
 "http://www.w3.org/Graphics/SVG/1.1/DTD/svg11.dtd">
<!-- Generated by graphviz version 2.40.1 (20161225.0304)
 -->
<!-- Title: ECUInterface Pages: 1 -->
<svg width="210pt" height="84pt"
 viewBox="0.00 0.00 209.50 84.00" xmlns="http://www.w3.org/2000/svg" xmlns:xlink="http://www.w3.org/1999/xlink">
<g id="graph0" class="graph" transform="scale(1 1) rotate(0) translate(4 80)">
<title>ECUInterface</title>
<polygon fill="#ffffff" stroke="transparent" points="-4,4 -4,-80 205.5,-80 205.5,4 -4,4"/>
<!-- Node0 -->
<g id="node1" class="node">
<title>Node0</title>
<polygon fill="#bfbfbf" stroke="#000000" points="60,-56.5 60,-75.5 137,-75.5 137,-56.5 60,-56.5"/>
<text text-anchor="middle" x="98.5" y="-63.5" font-family="Helvetica,sans-Serif" font-size="10.00" fill="#000000">ECUInterface</text>
</g>
<!-- Node1 -->
<g id="node2" class="node">
<title>Node1</title>
<g id="a_node2"><a xlink:href="class_example_flasher.html" target="_top" xlink:title="ExampleFlasher">
<polygon fill="#ffffff" stroke="#000000" points="0,-.5 0,-19.5 87,-19.5 87,-.5 0,-.5"/>
<text text-anchor="middle" x="43.5" y="-7.5" font-family="Helvetica,sans-Serif" font-size="10.00" fill="#000000">ExampleFlasher</text>
</a>
</g>
</g>
<!-- Node0&#45;&gt;Node1 -->
<g id="edge1" class="edge">
<title>Node0&#45;&gt;Node1</title>
<path fill="none" stroke="#191970" d="M81.8774,-49.0751C72.4145,-39.4402 60.9031,-27.7196 52.9705,-19.6427"/>
<polygon fill="#191970" stroke="#191970" points="79.4155,-51.5635 88.9197,-56.2455 84.4097,-46.6585 79.4155,-51.5635"/>
</g>
<!-- Node2 -->
<g id="node3" class="node">
<title>Node2</title>
<g id="a_node3"><a xlink:href="class_test_isotp_interface.html" target="_top" xlink:title="TestIsotpInterface">
<polygon fill="#ffffff" stroke="#000000" points="105.5,-.5 105.5,-19.5 201.5,-19.5 201.5,-.5 105.5,-.5"/>
<text text-anchor="middle" x="153.5" y="-7.5" font-family="Helvetica,sans-Serif" font-size="10.00" fill="#000000">TestIsotpInterface</text>
</a>
</g>
</g>
<!-- Node0&#45;&gt;Node2 -->
<g id="edge2" class="edge">
<title>Node0&#45;&gt;Node2</title>
<path fill="none" stroke="#191970" d="M115.1226,-49.0751C124.5855,-39.4402 136.0969,-27.7196 144.0295,-19.6427"/>
<polygon fill="#191970" stroke="#191970" points="112.5903,-46.6585 108.0803,-56.2455 117.5845,-51.5635 112.5903,-46.6585"/>
</g>
</g>
</svg>
