<?xml version="1.0" encoding="UTF-8" standalone="no"?>
<!DOCTYPE svg PUBLIC "-//W3C//DTD SVG 1.1//EN"
 "http://www.w3.org/Graphics/SVG/1.1/DTD/svg11.dtd">
<!-- Generated by graphviz version 2.40.1 (20161225.0304)
 -->
<!-- Title: event::AllInstallsComplete Pages: 1 -->
<svg width="395pt" height="451pt"
 viewBox="0.00 0.00 394.50 451.00" xmlns="http://www.w3.org/2000/svg" xmlns:xlink="http://www.w3.org/1999/xlink">
<g id="graph0" class="graph" transform="scale(1 1) rotate(0) translate(4 447)">
<title>event::AllInstallsComplete</title>
<polygon fill="#ffffff" stroke="transparent" points="-4,4 -4,-447 390.5,-447 390.5,4 -4,4"/>
<!-- Node2 -->
<g id="node1" class="node">
<title>Node2</title>
<polygon fill="#bfbfbf" stroke="#000000" points="194.5,-.5 194.5,-19.5 325.5,-19.5 325.5,-.5 194.5,-.5"/>
<text text-anchor="middle" x="260" y="-7.5" font-family="Helvetica,sans-Serif" font-size="10.00" fill="#000000">event::AllInstallsComplete</text>
</g>
<!-- Node3 -->
<g id="node2" class="node">
<title>Node3</title>
<g id="a_node2"><a xlink:href="classevent_1_1_base_event.html" target="_top" xlink:title="Base class for all event objects. ">
<polygon fill="#ffffff" stroke="#000000" points="291.5,-239.5 291.5,-258.5 386.5,-258.5 386.5,-239.5 291.5,-239.5"/>
<text text-anchor="middle" x="339" y="-246.5" font-family="Helvetica,sans-Serif" font-size="10.00" fill="#000000">event::BaseEvent</text>
</a>
</g>
</g>
<!-- Node3&#45;&gt;Node2 -->
<g id="edge1" class="edge">
<title>Node3&#45;&gt;Node2</title>
<path fill="none" stroke="#191970" d="M319.824,-232.1404C306.8259,-218.7796 292,-198.8586 292,-177.5 292,-177.5 292,-177.5 292,-77 292,-54.8283 277.5547,-32.2049 268.075,-19.7455"/>
<polygon fill="#191970" stroke="#191970" points="317.5167,-234.778 327.1399,-239.2103 322.3811,-229.7443 317.5167,-234.778"/>
</g>
<!-- Node4 -->
<g id="node3" class="node">
<title>Node4</title>
<g id="a_node3"><a xlink:title="STL class. ">
<polygon fill="#ffffff" stroke="#bfbfbf" points="282,-355.5 282,-374.5 342,-374.5 342,-355.5 282,-355.5"/>
<text text-anchor="middle" x="312" y="-362.5" font-family="Helvetica,sans-Serif" font-size="10.00" fill="#000000">std::string</text>
</a>
</g>
</g>
<!-- Node4&#45;&gt;Node3 -->
<g id="edge2" class="edge">
<title>Node4&#45;&gt;Node3</title>
<path fill="none" stroke="#9a32cd" stroke-dasharray="5,2" d="M326.8744,-347.1066C328.9104,-343.902 330.7332,-340.4725 332,-337 341.8749,-309.9321 341.0212,-275.1612 339.8709,-258.599"/>
<polygon fill="#9a32cd" stroke="#9a32cd" points="323.9018,-345.2435 320.8561,-355.3911 329.5652,-349.3577 323.9018,-345.2435"/>
<text text-anchor="middle" x="353.5" y="-323.5" font-family="Helvetica,sans-Serif" font-size="10.00" fill="#000000"> variant</text>
</g>
<!-- Node10 -->
<g id="node9" class="node">
<title>Node10</title>
<g id="a_node9"><a xlink:href="structdata_1_1_operation_result.html" target="_top" xlink:title="data::OperationResult">
<polygon fill="#ffffff" stroke="#000000" points="214,-277.5 214,-296.5 326,-296.5 326,-277.5 214,-277.5"/>
<text text-anchor="middle" x="270" y="-284.5" font-family="Helvetica,sans-Serif" font-size="10.00" fill="#000000">data::OperationResult</text>
</a>
</g>
</g>
<!-- Node4&#45;&gt;Node10 -->
<g id="edge9" class="edge">
<title>Node4&#45;&gt;Node10</title>
<path fill="none" stroke="#9a32cd" stroke-dasharray="5,2" d="M291.7959,-348.3802C288.4843,-344.9035 285.3672,-341.0527 283,-337 275.581,-324.2986 272.3324,-307.3509 270.9556,-296.81"/>
<polygon fill="#9a32cd" stroke="#9a32cd" points="289.4703,-350.9981 299.1407,-355.3265 294.2802,-345.9123 289.4703,-350.9981"/>
<text text-anchor="middle" x="307.5" y="-329" font-family="Helvetica,sans-Serif" font-size="10.00" fill="#000000"> result_text</text>
<text text-anchor="middle" x="307.5" y="-318" font-family="Helvetica,sans-Serif" font-size="10.00" fill="#000000">id</text>
</g>
<!-- Node5 -->
<g id="node4" class="node">
<title>Node5</title>
<g id="a_node4"><a xlink:title="STL class. ">
<polygon fill="#ffffff" stroke="#bfbfbf" points="264.5,-412.5 264.5,-442.5 359.5,-442.5 359.5,-412.5 264.5,-412.5"/>
<text text-anchor="start" x="272.5" y="-430.5" font-family="Helvetica,sans-Serif" font-size="10.00" fill="#000000">std::basic_string&lt;</text>
<text text-anchor="middle" x="312" y="-419.5" font-family="Helvetica,sans-Serif" font-size="10.00" fill="#000000"> char &gt;</text>
</a>
</g>
</g>
<!-- Node5&#45;&gt;Node4 -->
<g id="edge3" class="edge">
<title>Node5&#45;&gt;Node4</title>
<path fill="none" stroke="#191970" d="M312,-402.3498C312,-392.6481 312,-382.1303 312,-374.7356"/>
<polygon fill="#191970" stroke="#191970" points="308.5001,-402.3705 312,-412.3705 315.5001,-402.3705 308.5001,-402.3705"/>
</g>
<!-- Node6 -->
<g id="node5" class="node">
<title>Node6</title>
<g id="a_node5"><a xlink:href="class_install_result.html" target="_top" xlink:title="Container for information about installing an update. ">
<polygon fill="#ffffff" stroke="#000000" points="184.5,-67.5 184.5,-86.5 255.5,-86.5 255.5,-67.5 184.5,-67.5"/>
<text text-anchor="middle" x="220" y="-74.5" font-family="Helvetica,sans-Serif" font-size="10.00" fill="#000000">InstallResult</text>
</a>
</g>
</g>
<!-- Node6&#45;&gt;Node2 -->
<g id="edge4" class="edge">
<title>Node6&#45;&gt;Node2</title>
<path fill="none" stroke="#9a32cd" stroke-dasharray="5,2" d="M230.9792,-58.6099C238.5197,-45.9795 248.2244,-29.7241 254.2796,-19.5817"/>
<polygon fill="#9a32cd" stroke="#9a32cd" points="227.852,-57.0202 225.731,-67.4005 233.8624,-60.6085 227.852,-57.0202"/>
<text text-anchor="middle" x="256" y="-41" font-family="Helvetica,sans-Serif" font-size="10.00" fill="#000000"> result</text>
</g>
<!-- Node7 -->
<g id="node6" class="node">
<title>Node7</title>
<polygon fill="#ffffff" stroke="#bfbfbf" points="121.5,-134.5 121.5,-153.5 258.5,-153.5 258.5,-134.5 121.5,-134.5"/>
<text text-anchor="middle" x="190" y="-141.5" font-family="Helvetica,sans-Serif" font-size="10.00" fill="#000000">std::vector&lt; InstallReport &gt;</text>
</g>
<!-- Node7&#45;&gt;Node6 -->
<g id="edge5" class="edge">
<title>Node7&#45;&gt;Node6</title>
<path fill="none" stroke="#9a32cd" stroke-dasharray="5,2" d="M198.4012,-125.2374C204.0322,-112.6614 211.2129,-96.6246 215.7097,-86.5817"/>
<polygon fill="#9a32cd" stroke="#9a32cd" points="195.1906,-123.8433 194.2983,-134.4005 201.5794,-126.704 195.1906,-123.8433"/>
<text text-anchor="middle" x="223" y="-108" font-family="Helvetica,sans-Serif" font-size="10.00" fill="#000000"> reports</text>
</g>
<!-- Node8 -->
<g id="node7" class="node">
<title>Node8</title>
<g id="a_node7"><a xlink:href="class_install_report.html" target="_top" xlink:title="Installation report for a given target on a given ECU. ">
<polygon fill="#ffffff" stroke="#000000" points="122,-201.5 122,-220.5 194,-220.5 194,-201.5 122,-201.5"/>
<text text-anchor="middle" x="158" y="-208.5" font-family="Helvetica,sans-Serif" font-size="10.00" fill="#000000">InstallReport</text>
</a>
</g>
</g>
<!-- Node8&#45;&gt;Node7 -->
<g id="edge6" class="edge">
<title>Node8&#45;&gt;Node7</title>
<path fill="none" stroke="#9a32cd" stroke-dasharray="5,2" d="M166.9612,-192.2374C172.9677,-179.6614 180.627,-163.6246 185.4237,-153.5817"/>
<polygon fill="#9a32cd" stroke="#9a32cd" points="163.7364,-190.8685 162.5848,-201.4005 170.0529,-193.8853 163.7364,-190.8685"/>
<text text-anchor="middle" x="196.5" y="-175" font-family="Helvetica,sans-Serif" font-size="10.00" fill="#000000"> elements</text>
</g>
<!-- Node9 -->
<g id="node8" class="node">
<title>Node9</title>
<g id="a_node8"><a xlink:href="class_uptane_1_1_target.html" target="_top" xlink:title="Uptane::Target">
<polygon fill="#ffffff" stroke="#000000" points="114,-277.5 114,-296.5 196,-296.5 196,-277.5 114,-277.5"/>
<text text-anchor="middle" x="155" y="-284.5" font-family="Helvetica,sans-Serif" font-size="10.00" fill="#000000">Uptane::Target</text>
</a>
</g>
</g>
<!-- Node9&#45;&gt;Node8 -->
<g id="edge7" class="edge">
<title>Node9&#45;&gt;Node8</title>
<path fill="none" stroke="#9a32cd" stroke-dasharray="5,2" d="M155.7841,-267.1362C156.3727,-252.2258 157.1533,-232.4488 157.6137,-220.7874"/>
<polygon fill="#9a32cd" stroke="#9a32cd" points="152.2772,-267.2442 155.38,-277.3745 159.2718,-267.5204 152.2772,-267.2442"/>
<text text-anchor="middle" x="172.5" y="-246.5" font-family="Helvetica,sans-Serif" font-size="10.00" fill="#000000"> update</text>
</g>
<!-- Node10&#45;&gt;Node8 -->
<g id="edge8" class="edge">
<title>Node10&#45;&gt;Node8</title>
<path fill="none" stroke="#9a32cd" stroke-dasharray="5,2" d="M247.5127,-271.7408C224.9905,-256.4578 191.0282,-233.412 172.0697,-220.5473"/>
<polygon fill="#9a32cd" stroke="#9a32cd" points="245.5751,-274.6557 255.8151,-277.3745 249.5056,-268.8633 245.5751,-274.6557"/>
<text text-anchor="middle" x="242.5" y="-246.5" font-family="Helvetica,sans-Serif" font-size="10.00" fill="#000000"> status</text>
</g>
<!-- Node11 -->
<g id="node10" class="node">
<title>Node11</title>
<g id="a_node10"><a xlink:href="class_uptane_1_1_ecu_serial.html" target="_top" xlink:title="Uptane::EcuSerial">
<polygon fill="#ffffff" stroke="#000000" points="0,-277.5 0,-296.5 96,-296.5 96,-277.5 0,-277.5"/>
<text text-anchor="middle" x="48" y="-284.5" font-family="Helvetica,sans-Serif" font-size="10.00" fill="#000000">Uptane::EcuSerial</text>
</a>
</g>
</g>
<!-- Node11&#45;&gt;Node8 -->
<g id="edge10" class="edge">
<title>Node11&#45;&gt;Node8</title>
<path fill="none" stroke="#9a32cd" stroke-dasharray="5,2" d="M70.38,-271.5374C92.5007,-256.2541 125.644,-233.3551 144.1815,-220.5473"/>
<polygon fill="#9a32cd" stroke="#9a32cd" points="68.1694,-268.8106 61.9316,-277.3745 72.1484,-274.5697 68.1694,-268.8106"/>
<text text-anchor="middle" x="129.5" y="-246.5" font-family="Helvetica,sans-Serif" font-size="10.00" fill="#000000"> serial</text>
</g>
</g>
</svg>
