<?xml version="1.0" encoding="UTF-8" standalone="no"?>
<!DOCTYPE svg PUBLIC "-//W3C//DTD SVG 1.1//EN"
 "http://www.w3.org/Graphics/SVG/1.1/DTD/svg11.dtd">
<!-- Generated by graphviz version 2.38.0 (20140413.2041)
 -->
<!-- Title: INvStorage Pages: 1 -->
<svg width="157pt" height="239pt"
 viewBox="0.00 0.00 156.50 239.00" xmlns="http://www.w3.org/2000/svg" xmlns:xlink="http://www.w3.org/1999/xlink">
<g id="graph0" class="graph" transform="scale(1 1) rotate(0) translate(4 235)">
<title>INvStorage</title>
<polygon fill="white" stroke="none" points="-4,4 -4,-235 152.5,-235 152.5,4 -4,4"/>
<!-- Node4 -->
<g id="node1" class="node"><title>Node4</title>
<polygon fill="#bfbfbf" stroke="black" points="6.5,-0.5 6.5,-19.5 72.5,-19.5 72.5,-0.5 6.5,-0.5"/>
<text text-anchor="middle" x="39.5" y="-7.5" font-family="Helvetica,sans-Serif" font-size="10.00">INvStorage</text>
</g>
<!-- Node5 -->
<g id="node2" class="node"><title>Node5</title>
<g id="a_node2"><a xlink:href="struct_storage_config.html" target="_top" xlink:title="StorageConfig">
<polygon fill="white" stroke="black" points="-7.10543e-15,-67.5 -7.10543e-15,-86.5 79,-86.5 79,-67.5 -7.10543e-15,-67.5"/>
<text text-anchor="middle" x="39.5" y="-74.5" font-family="Helvetica,sans-Serif" font-size="10.00">StorageConfig</text>
</a>
</g>
</g>
<!-- Node5&#45;&gt;Node4 -->
<g id="edge1" class="edge"><title>Node5&#45;&gt;Node4</title>
<path fill="none" stroke="#9a32cd" stroke-dasharray="5,2" d="M39.5,-57.037C39.5,-44.6703 39.5,-29.1198 39.5,-19.6273"/>
<polygon fill="#9a32cd" stroke="#9a32cd" points="36.0001,-57.2338 39.5,-67.2338 43.0001,-57.2338 36.0001,-57.2338"/>
<text text-anchor="middle" x="57" y="-41" font-family="Helvetica,sans-Serif" font-size="10.00"> config_</text>
</g>
<!-- Node6 -->
<g id="node3" class="node"><title>Node6</title>
<g id="a_node3"><a xlink:href="class_based_path.html" target="_top" xlink:title="BasedPath">
<polygon fill="white" stroke="black" points="7,-211.5 7,-230.5 72,-230.5 72,-211.5 7,-211.5"/>
<text text-anchor="middle" x="39.5" y="-218.5" font-family="Helvetica,sans-Serif" font-size="10.00">BasedPath</text>
</a>
</g>
</g>
<!-- Node6&#45;&gt;Node5 -->
<g id="edge2" class="edge"><title>Node6&#45;&gt;Node5</title>
<path fill="none" stroke="#9a32cd" stroke-dasharray="5,2" d="M39.5,-201.107C39.5,-169.929 39.5,-108.926 39.5,-86.5184"/>
<polygon fill="#9a32cd" stroke="#9a32cd" points="36.0001,-201.117 39.5,-211.117 43.0001,-201.117 36.0001,-201.117"/>
<text text-anchor="middle" x="94" y="-185" font-family="Helvetica,sans-Serif" font-size="10.00"> uptane_public_key_path</text>
<text text-anchor="middle" x="94" y="-174" font-family="Helvetica,sans-Serif" font-size="10.00">tls_pkey_path</text>
<text text-anchor="middle" x="94" y="-163" font-family="Helvetica,sans-Serif" font-size="10.00">uptane_metadata_path</text>
<text text-anchor="middle" x="94" y="-152" font-family="Helvetica,sans-Serif" font-size="10.00">sqldb_path</text>
<text text-anchor="start" x="39.5" y="-141" font-family="Helvetica,sans-Serif" font-size="10.00">uptane_private_key</text>
<text text-anchor="middle" x="94" y="-130" font-family="Helvetica,sans-Serif" font-size="10.00">_path</text>
<text text-anchor="middle" x="94" y="-119" font-family="Helvetica,sans-Serif" font-size="10.00">tls_cacert_path</text>
<text text-anchor="middle" x="94" y="-108" font-family="Helvetica,sans-Serif" font-size="10.00">tls_clientcert_path</text>
</g>
</g>
</svg>
