<?xml version="1.0" encoding="UTF-8" standalone="no"?>
<!DOCTYPE svg PUBLIC "-//W3C//DTD SVG 1.1//EN"
 "http://www.w3.org/Graphics/SVG/1.1/DTD/svg11.dtd">
<!-- Generated by graphviz version 2.38.0 (20140413.2041)
 -->
<!-- Title: opcuabridge::MetadataFiles Pages: 1 -->
<svg width="428pt" height="110pt"
 viewBox="0.00 0.00 428.00 110.00" xmlns="http://www.w3.org/2000/svg" xmlns:xlink="http://www.w3.org/1999/xlink">
<g id="graph0" class="graph" transform="scale(1 1) rotate(0) translate(4 106)">
<title>opcuabridge::MetadataFiles</title>
<polygon fill="white" stroke="none" points="-4,4 -4,-106 424,-106 424,4 -4,4"/>
<!-- Node1 -->
<g id="node1" class="node"><title>Node1</title>
<polygon fill="#bfbfbf" stroke="black" points="283,-41.5 283,-60.5 420,-60.5 420,-41.5 283,-41.5"/>
<text text-anchor="middle" x="351.5" y="-48.5" font-family="Helvetica,sans-Serif" font-size="10.00">opcuabridge::MetadataFiles</text>
</g>
<!-- Node2 -->
<g id="node2" class="node"><title>Node2</title>
<g id="a_node2"><a xlink:href="structopcuabridge_1_1_message_on_before_read_callback.html" target="_top" xlink:title="opcuabridge::MessageOnBefore\lReadCallback\&lt; opcuabridge\l::MetadataFiles \&gt;">
<polygon fill="white" stroke="black" points="0,-60.5 0,-101.5 156,-101.5 156,-60.5 0,-60.5"/>
<text text-anchor="start" x="8" y="-89.5" font-family="Helvetica,sans-Serif" font-size="10.00">opcuabridge::MessageOnBefore</text>
<text text-anchor="start" x="8" y="-78.5" font-family="Helvetica,sans-Serif" font-size="10.00">ReadCallback&lt; opcuabridge</text>
<text text-anchor="middle" x="78" y="-67.5" font-family="Helvetica,sans-Serif" font-size="10.00">::MetadataFiles &gt;</text>
</a>
</g>
</g>
<!-- Node2&#45;&gt;Node1 -->
<g id="edge1" class="edge"><title>Node2&#45;&gt;Node1</title>
<path fill="none" stroke="#9a32cd" stroke-dasharray="5,2" d="M166.072,-71.3787C203.923,-67.1963 247.593,-62.3709 282.935,-58.4657"/>
<polygon fill="#9a32cd" stroke="#9a32cd" points="165.63,-67.9062 156.075,-72.4834 166.399,-74.8639 165.63,-67.9062"/>
<text text-anchor="middle" x="219.5" y="-73" font-family="Helvetica,sans-Serif" font-size="10.00"> on_before_read_cb_</text>
</g>
<!-- Node3 -->
<g id="node3" class="node"><title>Node3</title>
<g id="a_node3"><a xlink:href="structopcuabridge_1_1_message_on_after_write_callback.html" target="_top" xlink:title="opcuabridge::MessageOnAfter\lWriteCallback\&lt; opcuabridge\l::MetadataFiles \&gt;">
<polygon fill="white" stroke="black" points="3.5,-0.5 3.5,-41.5 152.5,-41.5 152.5,-0.5 3.5,-0.5"/>
<text text-anchor="start" x="11.5" y="-29.5" font-family="Helvetica,sans-Serif" font-size="10.00">opcuabridge::MessageOnAfter</text>
<text text-anchor="start" x="11.5" y="-18.5" font-family="Helvetica,sans-Serif" font-size="10.00">WriteCallback&lt; opcuabridge</text>
<text text-anchor="middle" x="78" y="-7.5" font-family="Helvetica,sans-Serif" font-size="10.00">::MetadataFiles &gt;</text>
</a>
</g>
</g>
<!-- Node3&#45;&gt;Node1 -->
<g id="edge2" class="edge"><title>Node3&#45;&gt;Node1</title>
<path fill="none" stroke="#9a32cd" stroke-dasharray="5,2" d="M162.978,-30.2793C201.455,-34.531 246.46,-39.5039 282.735,-43.5121"/>
<polygon fill="#9a32cd" stroke="#9a32cd" points="163.154,-26.7776 152.83,-29.158 162.385,-33.7352 163.154,-26.7776"/>
<text text-anchor="middle" x="219.5" y="-44" font-family="Helvetica,sans-Serif" font-size="10.00"> on_after_write_cb_</text>
</g>
</g>
</svg>
