<?xml version="1.0" encoding="UTF-8" standalone="no"?>
<!DOCTYPE svg PUBLIC "-//W3C//DTD SVG 1.1//EN"
 "http://www.w3.org/Graphics/SVG/1.1/DTD/svg11.dtd">
<!-- Generated by graphviz version 2.38.0 (20140413.2041)
 -->
<!-- Title: opcuabridge::MetadataFile Pages: 1 -->
<svg width="596pt" height="190pt"
 viewBox="0.00 0.00 596.00 190.00" xmlns="http://www.w3.org/2000/svg" xmlns:xlink="http://www.w3.org/1999/xlink">
<g id="graph0" class="graph" transform="scale(1 1) rotate(0) translate(4 186)">
<title>opcuabridge::MetadataFile</title>
<polygon fill="white" stroke="none" points="-4,4 -4,-186 592,-186 592,4 -4,4"/>
<!-- Node1 -->
<g id="node1" class="node"><title>Node1</title>
<polygon fill="#bfbfbf" stroke="black" points="457,-70.5 457,-89.5 588,-89.5 588,-70.5 457,-70.5"/>
<text text-anchor="middle" x="522.5" y="-77.5" font-family="Helvetica,sans-Serif" font-size="10.00">opcuabridge::MetadataFile</text>
</g>
<!-- Node2 -->
<g id="node2" class="node"><title>Node2</title>
<g id="a_node2"><a xlink:href="structopcuabridge_1_1_message_on_before_read_callback.html" target="_top" xlink:title="opcuabridge::MessageOnBefore\lReadCallback\&lt; opcuabridge\l::MetadataFile \&gt;">
<polygon fill="white" stroke="black" points="174,-140.5 174,-181.5 330,-181.5 330,-140.5 174,-140.5"/>
<text text-anchor="start" x="182" y="-169.5" font-family="Helvetica,sans-Serif" font-size="10.00">opcuabridge::MessageOnBefore</text>
<text text-anchor="start" x="182" y="-158.5" font-family="Helvetica,sans-Serif" font-size="10.00">ReadCallback&lt; opcuabridge</text>
<text text-anchor="middle" x="252" y="-147.5" font-family="Helvetica,sans-Serif" font-size="10.00">::MetadataFile &gt;</text>
</a>
</g>
</g>
<!-- Node2&#45;&gt;Node1 -->
<g id="edge1" class="edge"><title>Node2&#45;&gt;Node1</title>
<path fill="none" stroke="#9a32cd" stroke-dasharray="5,2" d="M338.074,-137.716C369.848,-128.769 406.175,-118.24 439,-108 457.626,-102.189 478.429,-95.1249 494.486,-89.5458"/>
<polygon fill="#9a32cd" stroke="#9a32cd" points="337.05,-134.368 328.368,-140.44 338.941,-141.108 337.05,-134.368"/>
<text text-anchor="middle" x="393.5" y="-136" font-family="Helvetica,sans-Serif" font-size="10.00"> on_before_read_cb_</text>
</g>
<!-- Node3 -->
<g id="node3" class="node"><title>Node3</title>
<g id="a_node3"><a xlink:href="structopcuabridge_1_1_message_on_after_write_callback.html" target="_top" xlink:title="opcuabridge::MessageOnAfter\lWriteCallback\&lt; opcuabridge\l::MetadataFile \&gt;">
<polygon fill="white" stroke="black" points="177.5,-80.5 177.5,-121.5 326.5,-121.5 326.5,-80.5 177.5,-80.5"/>
<text text-anchor="start" x="185.5" y="-109.5" font-family="Helvetica,sans-Serif" font-size="10.00">opcuabridge::MessageOnAfter</text>
<text text-anchor="start" x="185.5" y="-98.5" font-family="Helvetica,sans-Serif" font-size="10.00">WriteCallback&lt; opcuabridge</text>
<text text-anchor="middle" x="252" y="-87.5" font-family="Helvetica,sans-Serif" font-size="10.00">::MetadataFile &gt;</text>
</a>
</g>
</g>
<!-- Node3&#45;&gt;Node1 -->
<g id="edge2" class="edge"><title>Node3&#45;&gt;Node1</title>
<path fill="none" stroke="#9a32cd" stroke-dasharray="5,2" d="M336.912,-94.4371C375.537,-91.4161 420.663,-87.8867 456.628,-85.0738"/>
<polygon fill="#9a32cd" stroke="#9a32cd" points="336.421,-90.9647 326.724,-95.2339 336.966,-97.9434 336.421,-90.9647"/>
<text text-anchor="middle" x="393.5" y="-96" font-family="Helvetica,sans-Serif" font-size="10.00"> on_after_write_cb_</text>
</g>
<!-- Node4 -->
<g id="node4" class="node"><title>Node4</title>
<g id="a_node4"><a xlink:title="STL class. ">
<polygon fill="white" stroke="#bfbfbf" points="222,-42.5 222,-61.5 282,-61.5 282,-42.5 222,-42.5"/>
<text text-anchor="middle" x="252" y="-49.5" font-family="Helvetica,sans-Serif" font-size="10.00">std::string</text>
</a>
</g>
</g>
<!-- Node4&#45;&gt;Node1 -->
<g id="edge3" class="edge"><title>Node4&#45;&gt;Node1</title>
<path fill="none" stroke="#9a32cd" stroke-dasharray="5,2" d="M292.364,-56.105C335.586,-60.6123 405.655,-67.9193 456.944,-73.2679"/>
<polygon fill="#9a32cd" stroke="#9a32cd" points="292.554,-52.606 282.245,-55.0498 291.828,-59.5682 292.554,-52.606"/>
<text text-anchor="middle" x="393.5" y="-74" font-family="Helvetica,sans-Serif" font-size="10.00"> filename_</text>
</g>
<!-- Node5 -->
<g id="node5" class="node"><title>Node5</title>
<g id="a_node5"><a xlink:title="STL class. ">
<polygon fill="white" stroke="#bfbfbf" points="0,-39 0,-69 95,-69 95,-39 0,-39"/>
<text text-anchor="start" x="8" y="-57" font-family="Helvetica,sans-Serif" font-size="10.00">std::basic_string&lt;</text>
<text text-anchor="middle" x="47.5" y="-46" font-family="Helvetica,sans-Serif" font-size="10.00"> char &gt;</text>
</a>
</g>
</g>
<!-- Node5&#45;&gt;Node4 -->
<g id="edge4" class="edge"><title>Node5&#45;&gt;Node4</title>
<path fill="none" stroke="midnightblue" d="M105.588,-53.4362C143.418,-53.0625 191.479,-52.5879 221.75,-52.2889"/>
<polygon fill="midnightblue" stroke="midnightblue" points="105.177,-49.94 95.2119,-53.5386 105.246,-56.9396 105.177,-49.94"/>
</g>
<!-- Node6 -->
<g id="node6" class="node"><title>Node6</title>
<g id="a_node6"><a xlink:title="STL class. ">
<polygon fill="white" stroke="#bfbfbf" points="208.5,-3.5 208.5,-22.5 295.5,-22.5 295.5,-3.5 208.5,-3.5"/>
<text text-anchor="middle" x="252" y="-10.5" font-family="Helvetica,sans-Serif" font-size="10.00">std::vector&lt; T &gt;</text>
</a>
</g>
</g>
<!-- Node6&#45;&gt;Node1 -->
<g id="edge5" class="edge"><title>Node6&#45;&gt;Node1</title>
<path fill="none" stroke="#9a32cd" stroke-dasharray="5,2" d="M305.832,-20.2884C343.393,-26.1111 394.811,-35.3888 439,-48 460.273,-54.0712 483.717,-63.4373 500.159,-70.4706"/>
<polygon fill="#9a32cd" stroke="#9a32cd" points="306.035,-16.7792 295.623,-18.7379 304.984,-23.6999 306.035,-16.7792"/>
<text text-anchor="middle" x="393.5" y="-51" font-family="Helvetica,sans-Serif" font-size="10.00"> metadata_</text>
</g>
<!-- Node7 -->
<g id="node7" class="node"><title>Node7</title>
<polygon fill="white" stroke="#bfbfbf" points="33,-0.5 33,-19.5 62,-19.5 62,-0.5 33,-0.5"/>
<text text-anchor="middle" x="47.5" y="-7.5" font-family="Helvetica,sans-Serif" font-size="10.00">T</text>
</g>
<!-- Node7&#45;&gt;Node6 -->
<g id="edge6" class="edge"><title>Node7&#45;&gt;Node6</title>
<path fill="none" stroke="#9a32cd" stroke-dasharray="5,2" d="M72.2787,-10.3523C105.646,-10.8466 166.907,-11.7542 208.291,-12.3673"/>
<polygon fill="#9a32cd" stroke="#9a32cd" points="72.1518,-6.85011 62.101,-10.2015 72.0481,-13.8493 72.1518,-6.85011"/>
<text text-anchor="middle" x="134.5" y="-15" font-family="Helvetica,sans-Serif" font-size="10.00"> elements</text>
</g>
</g>
</svg>
