<?xml version="1.0" encoding="UTF-8" standalone="no"?>
<!DOCTYPE svg PUBLIC "-//W3C//DTD SVG 1.1//EN"
 "http://www.w3.org/Graphics/SVG/1.1/DTD/svg11.dtd">
<!-- Generated by graphviz version 2.40.1 (20161225.0304)
 -->
<!-- Title: AktualizrSecondary Pages: 1 -->
<!--zoomable 514 -->
<svg id="main" version="1.1" xmlns="http://www.w3.org/2000/svg" xmlns:xlink="http://www.w3.org/1999/xlink" xml:space="preserve" onload="init(evt)">
<style type="text/css"><![CDATA[
.edge:hover path { stroke: red; }
.edge:hover polygon { stroke: red; fill: red; }
]]></style>
<script type="text/javascript"><![CDATA[
var edges = document.getElementsByTagName('g');
if (edges && edges.length) {
  for (var i=0;i<edges.length;i++) {
    if (edges[i].id.substr(0,4)=='edge') {
      edges[i].setAttribute('class','edge');
    }
  }
}
]]></script>
        <defs>
                <circle id="rim" cx="0" cy="0" r="7"/>
                <circle id="rim2" cx="0" cy="0" r="3.5"/>
                <g id="zoomPlus">
                        <use xlink:href="#rim" fill="#404040">
                                <set attributeName="fill" to="#808080" begin="zoomplus.mouseover" end="zoomplus.mouseout"/>
                        </use>
                        <path d="M-4,0h8M0,-4v8" fill="none" stroke="white" stroke-width="1.5" pointer-events="none"/>
                </g>
                <g id="zoomMin">
                        <use xlink:href="#rim" fill="#404040">
                                <set attributeName="fill" to="#808080" begin="zoomminus.mouseover" end="zoomminus.mouseout"/>
                        </use>
                        <path d="M-4,0h8" fill="none" stroke="white" stroke-width="1.5" pointer-events="none"/>
                </g>
                <g id="dirArrow">
                        <path fill="none" stroke="white" stroke-width="1.5" d="M0,-3.0v7 M-2.5,-0.5L0,-3.0L2.5,-0.5"/>
                </g>
               <g id="resetDef">
                       <use xlink:href="#rim2" fill="#404040">
                               <set attributeName="fill" to="#808080" begin="reset.mouseover" end="reset.mouseout"/>
                       </use>
               </g>
        </defs>

<script type="text/javascript">
var viewWidth = 1208;
var viewHeight = 514;
var sectionId = 'dynsection-1';
</script>
<script xlink:href="svgpan.js"/>
<svg id="graph" class="graph">
<g id="viewport">
<title>AktualizrSecondary</title>
<polygon fill="#ffffff" stroke="transparent" points="-4,4 -4,-510 1204,-510 1204,4 -4,4"/>
<!-- Node3 -->
<g id="node1" class="node">
<title>Node3</title>
<polygon fill="#bfbfbf" stroke="#000000" points="1099,-341.5 1099,-360.5 1200,-360.5 1200,-341.5 1099,-341.5"/>
<text text-anchor="middle" x="1149.5" y="-348.5" font-family="Helvetica,sans-Serif" font-size="10.00" fill="#000000">AktualizrSecondary</text>
</g>
<!-- Node4 -->
<g id="node2" class="node">
<title>Node4</title>
<g id="a_node2"><a xlink:href="class_aktualizr_secondary_interface.html" target="_top" xlink:title="AktualizrSecondaryInterface">
<polygon fill="#ffffff" stroke="#000000" points="921.5,-360.5 921.5,-379.5 1061.5,-379.5 1061.5,-360.5 921.5,-360.5"/>
<text text-anchor="middle" x="991.5" y="-367.5" font-family="Helvetica,sans-Serif" font-size="10.00" fill="#000000">AktualizrSecondaryInterface</text>
</a>
</g>
</g>
<!-- Node4&#45;&gt;Node3 -->
<g id="edge1" class="edge">
<title>Node4&#45;&gt;Node3</title>
<path fill="none" stroke="#191970" d="M1071.7432,-360.3505C1080.993,-359.2382 1090.2201,-358.1286 1098.9171,-357.0828"/>
<polygon fill="#191970" stroke="#191970" points="1071.2318,-356.8867 1061.7212,-361.5557 1072.0676,-363.8366 1071.2318,-356.8867"/>
</g>
<!-- Node5 -->
<g id="node3" class="node">
<title>Node5</title>
<g id="a_node3"><a xlink:href="class_aktualizr_secondary_common.html" target="_top" xlink:title="AktualizrSecondaryCommon">
<polygon fill="#ffffff" stroke="#000000" points="921,-322.5 921,-341.5 1062,-341.5 1062,-322.5 921,-322.5"/>
<text text-anchor="middle" x="991.5" y="-329.5" font-family="Helvetica,sans-Serif" font-size="10.00" fill="#000000">AktualizrSecondaryCommon</text>
</a>
</g>
</g>
<!-- Node5&#45;&gt;Node3 -->
<g id="edge2" class="edge">
<title>Node5&#45;&gt;Node3</title>
<path fill="none" stroke="#8b1a1a" d="M1072.3282,-341.7198C1081.3252,-342.8018 1090.2906,-343.8799 1098.7572,-344.898"/>
<polygon fill="#8b1a1a" stroke="#8b1a1a" points="1072.5281,-338.2187 1062.1817,-340.4997 1071.6923,-345.1687 1072.5281,-338.2187"/>
</g>
<!-- Node6 -->
<g id="node4" class="node">
<title>Node6</title>
<polygon fill="#ffffff" stroke="#bfbfbf" points="545,-467 545,-497 667,-497 667,-467 545,-467"/>
<text text-anchor="start" x="553" y="-485" font-family="Helvetica,sans-Serif" font-size="10.00" fill="#000000">std::unique_ptr&lt; Uptane</text>
<text text-anchor="middle" x="606" y="-474" font-family="Helvetica,sans-Serif" font-size="10.00" fill="#000000">::Target &gt;</text>
</g>
<!-- Node6&#45;&gt;Node5 -->
<g id="edge3" class="edge">
<title>Node6&#45;&gt;Node5</title>
<path fill="none" stroke="#9a32cd" stroke-dasharray="5,2" d="M677.3623,-493.4019C744.4532,-499.7703 843.2524,-497.254 903,-441 932.6996,-413.037 893.1208,-380.7784 921,-351 924.5521,-347.206 928.7747,-344.1399 933.3619,-341.6659"/>
<polygon fill="#9a32cd" stroke="#9a32cd" points="677.5981,-489.9077 667.2903,-492.357 676.8757,-496.8703 677.5981,-489.9077"/>
<text text-anchor="middle" x="752" y="-498" font-family="Helvetica,sans-Serif" font-size="10.00" fill="#000000"> target_</text>
</g>
<!-- Node7 -->
<g id="node5" class="node">
<title>Node7</title>
<g id="a_node5"><a xlink:href="class_uptane_1_1_target.html" target="_top" xlink:title="Uptane::Target">
<polygon fill="#ffffff" stroke="#000000" points="143,-458.5 143,-477.5 225,-477.5 225,-458.5 143,-458.5"/>
<text text-anchor="middle" x="184" y="-465.5" font-family="Helvetica,sans-Serif" font-size="10.00" fill="#000000">Uptane::Target</text>
</a>
</g>
</g>
<!-- Node7&#45;&gt;Node6 -->
<g id="edge4" class="edge">
<title>Node7&#45;&gt;Node6</title>
<path fill="none" stroke="#9a32cd" stroke-dasharray="5,2" d="M235.3048,-469.7021C313.3338,-472.2907 461.5544,-477.208 544.9898,-479.976"/>
<polygon fill="#9a32cd" stroke="#9a32cd" points="235.3421,-466.2015 225.2315,-469.3679 235.1099,-473.1976 235.3421,-466.2015"/>
<text text-anchor="middle" x="308.5" y="-476" font-family="Helvetica,sans-Serif" font-size="10.00" fill="#000000"> ptr</text>
</g>
<!-- Node24 -->
<g id="node22" class="node">
<title>Node24</title>
<polygon fill="#ffffff" stroke="#bfbfbf" points="402,-429 402,-459 506,-459 506,-429 402,-429"/>
<text text-anchor="start" x="410" y="-447" font-family="Helvetica,sans-Serif" font-size="10.00" fill="#000000">std::vector&lt; Uptane</text>
<text text-anchor="middle" x="454" y="-436" font-family="Helvetica,sans-Serif" font-size="10.00" fill="#000000">::Target &gt;</text>
</g>
<!-- Node7&#45;&gt;Node24 -->
<g id="edge24" class="edge">
<title>Node7&#45;&gt;Node24</title>
<path fill="none" stroke="#9a32cd" stroke-dasharray="5,2" d="M235.6115,-457.6408C241.7903,-456.6301 248.0247,-455.7162 254,-455 303.8924,-449.0203 361.1824,-446.2864 401.6228,-445.0393"/>
<polygon fill="#9a32cd" stroke="#9a32cd" points="234.5809,-454.2667 225.321,-459.415 235.7703,-461.1649 234.5809,-454.2667"/>
<text text-anchor="middle" x="308.5" y="-458" font-family="Helvetica,sans-Serif" font-size="10.00" fill="#000000"> elements</text>
</g>
<!-- Node8 -->
<g id="node6" class="node">
<title>Node8</title>
<g id="a_node6"><a xlink:href="class_aktualizr_secondary_config.html" target="_top" xlink:title="AktualizrSecondaryConfig">
<polygon fill="#ffffff" stroke="#000000" points="687,-268.5 687,-287.5 817,-287.5 817,-268.5 687,-268.5"/>
<text text-anchor="middle" x="752" y="-275.5" font-family="Helvetica,sans-Serif" font-size="10.00" fill="#000000">AktualizrSecondaryConfig</text>
</a>
</g>
</g>
<!-- Node8&#45;&gt;Node5 -->
<g id="edge5" class="edge">
<title>Node8&#45;&gt;Node5</title>
<path fill="none" stroke="#9a32cd" stroke-dasharray="5,2" d="M804.0872,-289.7441C847.5704,-299.5482 908.7711,-313.3471 949.2539,-322.4748"/>
<polygon fill="#9a32cd" stroke="#9a32cd" points="804.7914,-286.3151 794.2665,-287.5298 803.2518,-293.1437 804.7914,-286.3151"/>
<text text-anchor="middle" x="870" y="-314" font-family="Helvetica,sans-Serif" font-size="10.00" fill="#000000"> config_</text>
</g>
<!-- Node9 -->
<g id="node7" class="node">
<title>Node9</title>
<g id="a_node7"><a xlink:href="class_base_config.html" target="_top" xlink:title="BaseConfig">
<polygon fill="#ffffff" stroke="#000000" points="420,-110.5 420,-129.5 488,-129.5 488,-110.5 420,-110.5"/>
<text text-anchor="middle" x="454" y="-117.5" font-family="Helvetica,sans-Serif" font-size="10.00" fill="#000000">BaseConfig</text>
</a>
</g>
</g>
<!-- Node9&#45;&gt;Node8 -->
<g id="edge6" class="edge">
<title>Node9&#45;&gt;Node8</title>
<path fill="none" stroke="#191970" d="M498.4235,-110.1339C546.5504,-102.2991 622.4119,-98.7188 667,-141 705.4955,-177.5037 649.9025,-219.2183 685,-259 688.3595,-262.8079 692.4201,-265.8778 696.8613,-268.3492"/>
<polygon fill="#191970" stroke="#191970" points="497.5451,-106.7345 488.3008,-111.9108 498.7554,-113.629 497.5451,-106.7345"/>
</g>
<!-- Node10 -->
<g id="node8" class="node">
<title>Node10</title>
<polygon fill="#ffffff" stroke="#bfbfbf" points="133.5,-106 133.5,-136 234.5,-136 234.5,-106 133.5,-106"/>
<text text-anchor="start" x="141.5" y="-124" font-family="Helvetica,sans-Serif" font-size="10.00" fill="#000000">std::vector&lt; boost</text>
<text text-anchor="middle" x="184" y="-113" font-family="Helvetica,sans-Serif" font-size="10.00" fill="#000000">::filesystem::path &gt;</text>
</g>
<!-- Node10&#45;&gt;Node9 -->
<g id="edge7" class="edge">
<title>Node10&#45;&gt;Node9</title>
<path fill="none" stroke="#9a32cd" stroke-dasharray="5,2" d="M244.9226,-120.7744C298.9077,-120.5744 375.7851,-120.2897 419.7059,-120.127"/>
<polygon fill="#9a32cd" stroke="#9a32cd" points="244.7719,-117.2748 234.7849,-120.8119 244.7979,-124.2747 244.7719,-117.2748"/>
<text text-anchor="middle" x="308.5" y="-124" font-family="Helvetica,sans-Serif" font-size="10.00" fill="#000000"> config_dirs_</text>
</g>
<!-- Node11 -->
<g id="node9" class="node">
<title>Node11</title>
<g id="a_node9"><a xlink:href="struct_storage_config.html" target="_top" xlink:title="StorageConfig">
<polygon fill="#ffffff" stroke="#000000" points="414.5,-38.5 414.5,-57.5 493.5,-57.5 493.5,-38.5 414.5,-38.5"/>
<text text-anchor="middle" x="454" y="-45.5" font-family="Helvetica,sans-Serif" font-size="10.00" fill="#000000">StorageConfig</text>
</a>
</g>
</g>
<!-- Node11&#45;&gt;Node8 -->
<g id="edge8" class="edge">
<title>Node11&#45;&gt;Node8</title>
<path fill="none" stroke="#9a32cd" stroke-dasharray="5,2" d="M503.709,-42.8088C552.7714,-40.7068 626.1901,-46.2307 667,-91 717.5887,-146.4968 636.5885,-201.5941 685,-259 688.1958,-262.7895 692.0864,-265.8526 696.3675,-268.3246"/>
<polygon fill="#9a32cd" stroke="#9a32cd" points="503.423,-39.3192 493.6298,-43.3618 503.8065,-46.3086 503.423,-39.3192"/>
<text text-anchor="middle" x="606" y="-94" font-family="Helvetica,sans-Serif" font-size="10.00" fill="#000000"> storage</text>
</g>
<!-- Node12 -->
<g id="node10" class="node">
<title>Node12</title>
<g id="a_node10"><a xlink:href="class_based_path.html" target="_top" xlink:title="BasedPath">
<polygon fill="#ffffff" stroke="#000000" points="151.5,-.5 151.5,-19.5 216.5,-19.5 216.5,-.5 151.5,-.5"/>
<text text-anchor="middle" x="184" y="-7.5" font-family="Helvetica,sans-Serif" font-size="10.00" fill="#000000">BasedPath</text>
</a>
</g>
</g>
<!-- Node12&#45;&gt;Node11 -->
<g id="edge9" class="edge">
<title>Node12&#45;&gt;Node11</title>
<path fill="none" stroke="#9a32cd" stroke-dasharray="5,2" d="M227.0377,-13.3513C263.395,-16.4732 316.7775,-21.7401 363,-29 379.9005,-31.6545 398.407,-35.3682 414.292,-38.8089"/>
<polygon fill="#9a32cd" stroke="#9a32cd" points="227.0501,-9.8401 216.7919,-12.4896 226.4634,-16.8154 227.0501,-9.8401"/>
<text text-anchor="middle" x="308.5" y="-109" font-family="Helvetica,sans-Serif" font-size="10.00" fill="#000000"> uptane_public_key_path</text>
<text text-anchor="middle" x="308.5" y="-98" font-family="Helvetica,sans-Serif" font-size="10.00" fill="#000000">tls_pkey_path</text>
<text text-anchor="middle" x="308.5" y="-87" font-family="Helvetica,sans-Serif" font-size="10.00" fill="#000000">uptane_metadata_path</text>
<text text-anchor="middle" x="308.5" y="-76" font-family="Helvetica,sans-Serif" font-size="10.00" fill="#000000">sqldb_path</text>
<text text-anchor="start" x="254" y="-65" font-family="Helvetica,sans-Serif" font-size="10.00" fill="#000000">uptane_private_key</text>
<text text-anchor="middle" x="308.5" y="-54" font-family="Helvetica,sans-Serif" font-size="10.00" fill="#000000">_path</text>
<text text-anchor="middle" x="308.5" y="-43" font-family="Helvetica,sans-Serif" font-size="10.00" fill="#000000">tls_cacert_path</text>
<text text-anchor="middle" x="308.5" y="-32" font-family="Helvetica,sans-Serif" font-size="10.00" fill="#000000">tls_clientcert_path</text>
</g>
<!-- Node13 -->
<g id="node11" class="node">
<title>Node13</title>
<g id="a_node11"><a xlink:href="struct_aktualizr_secondary_uptane_config.html" target="_top" xlink:title="AktualizrSecondaryUptane\lConfig">
<polygon fill="#ffffff" stroke="#000000" points="387.5,-263 387.5,-293 520.5,-293 520.5,-263 387.5,-263"/>
<text text-anchor="start" x="395.5" y="-281" font-family="Helvetica,sans-Serif" font-size="10.00" fill="#000000">AktualizrSecondaryUptane</text>
<text text-anchor="middle" x="454" y="-270" font-family="Helvetica,sans-Serif" font-size="10.00" fill="#000000">Config</text>
</a>
</g>
</g>
<!-- Node13&#45;&gt;Node8 -->
<g id="edge10" class="edge">
<title>Node13&#45;&gt;Node8</title>
<path fill="none" stroke="#9a32cd" stroke-dasharray="5,2" d="M530.625,-278C579.0525,-278 640.9527,-278 686.9784,-278"/>
<polygon fill="#9a32cd" stroke="#9a32cd" points="530.5061,-274.5001 520.5061,-278 530.5061,-281.5001 530.5061,-274.5001"/>
<text text-anchor="middle" x="606" y="-281" font-family="Helvetica,sans-Serif" font-size="10.00" fill="#000000"> uptane</text>
</g>
<!-- Node14 -->
<g id="node12" class="node">
<title>Node14</title>
<g id="a_node12"><a xlink:title="STL class. ">
<polygon fill="#ffffff" stroke="#bfbfbf" points="154,-247.5 154,-266.5 214,-266.5 214,-247.5 154,-247.5"/>
<text text-anchor="middle" x="184" y="-254.5" font-family="Helvetica,sans-Serif" font-size="10.00" fill="#000000">std::string</text>
</a>
</g>
</g>
<!-- Node14&#45;&gt;Node5 -->
<g id="edge27" class="edge">
<title>Node14&#45;&gt;Node5</title>
<path fill="none" stroke="#9a32cd" stroke-dasharray="5,2" d="M208.3862,-271.8431C244.5051,-292.7706 315.071,-329.6649 381,-341 574.0052,-374.1831 806.3961,-354.7837 920.8037,-341.4147"/>
<polygon fill="#9a32cd" stroke="#9a32cd" points="209.9496,-268.7021 199.5563,-266.645 206.3983,-274.7344 209.9496,-268.7021"/>
<text text-anchor="middle" x="606" y="-362" font-family="Helvetica,sans-Serif" font-size="10.00" fill="#000000"> detected_attack_</text>
</g>
<!-- Node14&#45;&gt;Node13 -->
<g id="edge11" class="edge">
<title>Node14&#45;&gt;Node13</title>
<path fill="none" stroke="#9a32cd" stroke-dasharray="5,2" d="M224.2753,-260.1325C267.2934,-263.4784 336.1794,-268.8362 387.3122,-272.8132"/>
<polygon fill="#9a32cd" stroke="#9a32cd" points="224.4278,-256.6339 214.1865,-259.3478 223.885,-263.6128 224.4278,-256.6339"/>
<text text-anchor="middle" x="308.5" y="-284" font-family="Helvetica,sans-Serif" font-size="10.00" fill="#000000"> ecu_hardware_id</text>
<text text-anchor="middle" x="308.5" y="-273" font-family="Helvetica,sans-Serif" font-size="10.00" fill="#000000">ecu_serial</text>
</g>
<!-- Node17 -->
<g id="node15" class="node">
<title>Node17</title>
<g id="a_node15"><a xlink:href="struct_package_config.html" target="_top" xlink:title="PackageConfig">
<polygon fill="#ffffff" stroke="#000000" points="412.5,-224.5 412.5,-243.5 495.5,-243.5 495.5,-224.5 412.5,-224.5"/>
<text text-anchor="middle" x="454" y="-231.5" font-family="Helvetica,sans-Serif" font-size="10.00" fill="#000000">PackageConfig</text>
</a>
</g>
</g>
<!-- Node14&#45;&gt;Node17 -->
<g id="edge15" class="edge">
<title>Node14&#45;&gt;Node17</title>
<path fill="none" stroke="#9a32cd" stroke-dasharray="5,2" d="M219.2125,-244.3313C230.2066,-240.9492 242.4752,-237.7504 254,-236 308.2418,-227.7617 371.713,-228.9307 412.3592,-231.033"/>
<polygon fill="#9a32cd" stroke="#9a32cd" points="217.9755,-241.0527 209.5321,-247.4526 220.1236,-247.7149 217.9755,-241.0527"/>
<text text-anchor="middle" x="308.5" y="-250" font-family="Helvetica,sans-Serif" font-size="10.00" fill="#000000"> os</text>
<text text-anchor="middle" x="308.5" y="-239" font-family="Helvetica,sans-Serif" font-size="10.00" fill="#000000">ostree_server</text>
</g>
<!-- Node19 -->
<g id="node17" class="node">
<title>Node19</title>
<g id="a_node17"><a xlink:href="struct_p11_config.html" target="_top" xlink:title="P11Config">
<polygon fill="#ffffff" stroke="#000000" points="423,-148.5 423,-167.5 485,-167.5 485,-148.5 423,-148.5"/>
<text text-anchor="middle" x="454" y="-155.5" font-family="Helvetica,sans-Serif" font-size="10.00" fill="#000000">P11Config</text>
</a>
</g>
</g>
<!-- Node14&#45;&gt;Node19 -->
<g id="edge18" class="edge">
<title>Node14&#45;&gt;Node19</title>
<path fill="none" stroke="#9a32cd" stroke-dasharray="5,2" d="M192.9527,-238.3666C204.0637,-217.5752 225.1332,-184.9036 254,-170 308.0896,-142.0742 381.6887,-146.7206 422.848,-152.4566"/>
<polygon fill="#9a32cd" stroke="#9a32cd" points="189.7263,-236.9896 188.3077,-247.489 195.9642,-240.1659 189.7263,-236.9896"/>
<text text-anchor="middle" x="308.5" y="-217" font-family="Helvetica,sans-Serif" font-size="10.00" fill="#000000"> tls_pkey_id</text>
<text text-anchor="middle" x="308.5" y="-206" font-family="Helvetica,sans-Serif" font-size="10.00" fill="#000000">tls_clientcert_id</text>
<text text-anchor="middle" x="308.5" y="-195" font-family="Helvetica,sans-Serif" font-size="10.00" fill="#000000">pass</text>
<text text-anchor="middle" x="308.5" y="-184" font-family="Helvetica,sans-Serif" font-size="10.00" fill="#000000">uptane_key_id</text>
<text text-anchor="middle" x="308.5" y="-173" font-family="Helvetica,sans-Serif" font-size="10.00" fill="#000000">tls_cacert_id</text>
</g>
<!-- Node15 -->
<g id="node13" class="node">
<title>Node15</title>
<g id="a_node13"><a xlink:title="STL class. ">
<polygon fill="#ffffff" stroke="#bfbfbf" points="0,-242 0,-272 95,-272 95,-242 0,-242"/>
<text text-anchor="start" x="8" y="-260" font-family="Helvetica,sans-Serif" font-size="10.00" fill="#000000">std::basic_string&lt;</text>
<text text-anchor="middle" x="47.5" y="-249" font-family="Helvetica,sans-Serif" font-size="10.00" fill="#000000"> char &gt;</text>
</a>
</g>
</g>
<!-- Node15&#45;&gt;Node14 -->
<g id="edge12" class="edge">
<title>Node15&#45;&gt;Node14</title>
<path fill="none" stroke="#191970" d="M105.492,-257C122.1887,-257 139.7236,-257 153.9759,-257"/>
<polygon fill="#191970" stroke="#191970" points="105.2411,-253.5001 95.2411,-257 105.241,-260.5001 105.2411,-253.5001"/>
</g>
<!-- Node16 -->
<g id="node14" class="node">
<title>Node16</title>
<g id="a_node14"><a xlink:href="struct_logger_config.html" target="_top" xlink:title="LoggerConfig">
<polygon fill="#ffffff" stroke="#000000" points="417,-186.5 417,-205.5 491,-205.5 491,-186.5 417,-186.5"/>
<text text-anchor="middle" x="454" y="-193.5" font-family="Helvetica,sans-Serif" font-size="10.00" fill="#000000">LoggerConfig</text>
</a>
</g>
</g>
<!-- Node16&#45;&gt;Node8 -->
<g id="edge13" class="edge">
<title>Node16&#45;&gt;Node8</title>
<path fill="none" stroke="#9a32cd" stroke-dasharray="5,2" d="M501.2323,-192.7451C547.2812,-191.9024 617.4262,-197.0371 667,-230 679.6322,-238.3995 672.8852,-249.8701 685,-259 690.1175,-262.8567 695.9878,-265.9308 702.0798,-268.3811"/>
<polygon fill="#9a32cd" stroke="#9a32cd" points="501.1136,-189.2469 491.217,-193.0294 501.3123,-196.2441 501.1136,-189.2469"/>
<text text-anchor="middle" x="606" y="-233" font-family="Helvetica,sans-Serif" font-size="10.00" fill="#000000"> logger</text>
</g>
<!-- Node17&#45;&gt;Node8 -->
<g id="edge14" class="edge">
<title>Node17&#45;&gt;Node8</title>
<path fill="none" stroke="#9a32cd" stroke-dasharray="5,2" d="M505.688,-240.459C548.874,-245.9942 612.0406,-254.4127 667,-263 677.6598,-264.6656 689.0471,-266.5808 699.9095,-268.4735"/>
<polygon fill="#9a32cd" stroke="#9a32cd" points="506.0638,-236.9786 495.7012,-239.1847 505.1778,-243.9223 506.0638,-236.9786"/>
<text text-anchor="middle" x="606" y="-266" font-family="Helvetica,sans-Serif" font-size="10.00" fill="#000000"> pacman</text>
</g>
<!-- Node18 -->
<g id="node16" class="node">
<title>Node18</title>
<g id="a_node16"><a xlink:href="struct_aktualizr_secondary_net_config.html" target="_top" xlink:title="AktualizrSecondaryNetConfig">
<polygon fill="#ffffff" stroke="#000000" points="381,-312.5 381,-331.5 527,-331.5 527,-312.5 381,-312.5"/>
<text text-anchor="middle" x="454" y="-319.5" font-family="Helvetica,sans-Serif" font-size="10.00" fill="#000000">AktualizrSecondaryNetConfig</text>
</a>
</g>
</g>
<!-- Node18&#45;&gt;Node8 -->
<g id="edge16" class="edge">
<title>Node18&#45;&gt;Node8</title>
<path fill="none" stroke="#9a32cd" stroke-dasharray="5,2" d="M537.148,-311.4511C576.5578,-306.2539 624.2605,-299.678 667,-293 677.6598,-291.3344 689.0471,-289.4192 699.9095,-287.5265"/>
<polygon fill="#9a32cd" stroke="#9a32cd" points="536.5129,-308.0043 527.0535,-312.7761 537.424,-314.9448 536.5129,-308.0043"/>
<text text-anchor="middle" x="606" y="-313" font-family="Helvetica,sans-Serif" font-size="10.00" fill="#000000"> network</text>
</g>
<!-- Node19&#45;&gt;Node8 -->
<g id="edge17" class="edge">
<title>Node19&#45;&gt;Node8</title>
<path fill="none" stroke="#9a32cd" stroke-dasharray="5,2" d="M495.0987,-149.4139C542.549,-142.083 620.0713,-138.4362 667,-180 693.9578,-203.876 660.2109,-232.8793 685,-259 688.6621,-262.8588 693.0445,-265.9524 697.7916,-268.4299"/>
<polygon fill="#9a32cd" stroke="#9a32cd" points="494.4514,-145.9735 485.1633,-151.0708 495.6028,-152.8781 494.4514,-145.9735"/>
<text text-anchor="middle" x="606" y="-183" font-family="Helvetica,sans-Serif" font-size="10.00" fill="#000000"> p11</text>
</g>
<!-- Node20 -->
<g id="node18" class="node">
<title>Node20</title>
<g id="a_node18"><a xlink:href="class_uptane_1_1_hardware_identifier.html" target="_top" xlink:title="Uptane::HardwareIdentifier">
<polygon fill="#ffffff" stroke="#000000" points="685,-230.5 685,-249.5 819,-249.5 819,-230.5 685,-230.5"/>
<text text-anchor="middle" x="752" y="-237.5" font-family="Helvetica,sans-Serif" font-size="10.00" fill="#000000">Uptane::HardwareIdentifier</text>
</a>
</g>
</g>
<!-- Node20&#45;&gt;Node5 -->
<g id="edge19" class="edge">
<title>Node20&#45;&gt;Node5</title>
<path fill="none" stroke="#9a32cd" stroke-dasharray="5,2" d="M795.4722,-252.3145C803.3051,-254.5371 811.3959,-256.8355 819,-259 856.3438,-269.6298 867.1176,-268.1673 903,-283 930.1048,-294.2043 959.5077,-311.6426 976.6759,-322.4134"/>
<polygon fill="#9a32cd" stroke="#9a32cd" points="796.3202,-248.917 785.7446,-249.5554 794.4101,-255.6513 796.3202,-248.917"/>
<text text-anchor="middle" x="870" y="-286" font-family="Helvetica,sans-Serif" font-size="10.00" fill="#000000"> hardware_id_</text>
</g>
<!-- Node21 -->
<g id="node19" class="node">
<title>Node21</title>
<g id="a_node19"><a xlink:href="class_uptane_1_1_targets.html" target="_top" xlink:title="Uptane::Targets">
<polygon fill="#ffffff" stroke="#000000" points="708.5,-418.5 708.5,-437.5 795.5,-437.5 795.5,-418.5 708.5,-418.5"/>
<text text-anchor="middle" x="752" y="-425.5" font-family="Helvetica,sans-Serif" font-size="10.00" fill="#000000">Uptane::Targets</text>
</a>
</g>
</g>
<!-- Node21&#45;&gt;Node5 -->
<g id="edge20" class="edge">
<title>Node21&#45;&gt;Node5</title>
<path fill="none" stroke="#9a32cd" stroke-dasharray="5,2" d="M805.5194,-430.15C837.1869,-428.6483 876.2143,-421.6018 903,-399 920.4132,-384.3067 904.1385,-366.3232 921,-351 925.2215,-347.1636 930.1373,-344.0889 935.3729,-341.6265"/>
<polygon fill="#9a32cd" stroke="#9a32cd" points="805.4096,-426.6516 795.5212,-430.4554 805.6234,-433.6483 805.4096,-426.6516"/>
<text text-anchor="middle" x="870" y="-429" font-family="Helvetica,sans-Serif" font-size="10.00" fill="#000000"> meta_targets_</text>
</g>
<!-- Node22 -->
<g id="node20" class="node">
<title>Node22</title>
<g id="a_node20"><a xlink:href="class_uptane_1_1_base_meta.html" target="_top" xlink:title="Uptane::BaseMeta">
<polygon fill="#ffffff" stroke="#000000" points="405,-389.5 405,-408.5 503,-408.5 503,-389.5 405,-389.5"/>
<text text-anchor="middle" x="454" y="-396.5" font-family="Helvetica,sans-Serif" font-size="10.00" fill="#000000">Uptane::BaseMeta</text>
</a>
</g>
</g>
<!-- Node22&#45;&gt;Node21 -->
<g id="edge21" class="edge">
<title>Node22&#45;&gt;Node21</title>
<path fill="none" stroke="#191970" d="M513.2337,-404.7644C570.6687,-410.3537 656.4737,-418.7038 708.0641,-423.7244"/>
<polygon fill="#191970" stroke="#191970" points="513.5007,-401.2739 503.2086,-403.7888 512.8226,-408.241 513.5007,-401.2739"/>
</g>
<!-- Node27 -->
<g id="node25" class="node">
<title>Node27</title>
<g id="a_node25"><a xlink:href="class_uptane_1_1_root.html" target="_top" xlink:title="Uptane::Root">
<polygon fill="#ffffff" stroke="#000000" points="714.5,-380.5 714.5,-399.5 789.5,-399.5 789.5,-380.5 714.5,-380.5"/>
<text text-anchor="middle" x="752" y="-387.5" font-family="Helvetica,sans-Serif" font-size="10.00" fill="#000000">Uptane::Root</text>
</a>
</g>
</g>
<!-- Node22&#45;&gt;Node27 -->
<g id="edge29" class="edge">
<title>Node22&#45;&gt;Node27</title>
<path fill="none" stroke="#191970" d="M513.2534,-397.2105C572.9827,-395.4066 663.3792,-392.6765 714.0785,-391.1453"/>
<polygon fill="#191970" stroke="#191970" points="513.0984,-393.7135 503.2086,-397.5138 513.3098,-400.7103 513.0984,-393.7135"/>
</g>
<!-- Node23 -->
<g id="node21" class="node">
<title>Node23</title>
<g id="a_node21"><a xlink:href="class_uptane_1_1_time_stamp.html" target="_top" xlink:title="Uptane::TimeStamp">
<polygon fill="#ffffff" stroke="#000000" points="132,-389.5 132,-408.5 236,-408.5 236,-389.5 132,-389.5"/>
<text text-anchor="middle" x="184" y="-396.5" font-family="Helvetica,sans-Serif" font-size="10.00" fill="#000000">Uptane::TimeStamp</text>
</a>
</g>
</g>
<!-- Node23&#45;&gt;Node22 -->
<g id="edge22" class="edge">
<title>Node23&#45;&gt;Node22</title>
<path fill="none" stroke="#9a32cd" stroke-dasharray="5,2" d="M246.0641,-399C294.2794,-399 360.2319,-399 404.831,-399"/>
<polygon fill="#9a32cd" stroke="#9a32cd" points="246.0588,-395.5001 236.0587,-399 246.0587,-402.5001 246.0588,-395.5001"/>
<text text-anchor="middle" x="308.5" y="-402" font-family="Helvetica,sans-Serif" font-size="10.00" fill="#000000"> expiry_</text>
</g>
<!-- Node24&#45;&gt;Node21 -->
<g id="edge23" class="edge">
<title>Node24&#45;&gt;Node21</title>
<path fill="none" stroke="#9a32cd" stroke-dasharray="5,2" d="M516.2879,-440.6557C573.6744,-437.5745 657.381,-433.0802 708.0647,-430.3589"/>
<polygon fill="#9a32cd" stroke="#9a32cd" points="516.0466,-437.1635 506.2486,-441.1947 516.4219,-444.1534 516.0466,-437.1635"/>
<text text-anchor="middle" x="606" y="-441" font-family="Helvetica,sans-Serif" font-size="10.00" fill="#000000"> targets</text>
</g>
<!-- Node25 -->
<g id="node23" class="node">
<title>Node25</title>
<g id="a_node23"><a xlink:href="class_key_manager.html" target="_top" xlink:title="KeyManager">
<polygon fill="#ffffff" stroke="#000000" points="716.5,-192.5 716.5,-211.5 787.5,-211.5 787.5,-192.5 716.5,-192.5"/>
<text text-anchor="middle" x="752" y="-199.5" font-family="Helvetica,sans-Serif" font-size="10.00" fill="#000000">KeyManager</text>
</a>
</g>
</g>
<!-- Node25&#45;&gt;Node5 -->
<g id="edge25" class="edge">
<title>Node25&#45;&gt;Node5</title>
<path fill="none" stroke="#9a32cd" stroke-dasharray="5,2" d="M797.6827,-210.331C828.9029,-217.3945 870.3698,-229.5492 903,-249 937.378,-269.4926 969.4757,-305.2864 983.7411,-322.3805"/>
<polygon fill="#9a32cd" stroke="#9a32cd" points="798.0298,-206.8251 787.5153,-208.1276 796.5471,-213.6662 798.0298,-206.8251"/>
<text text-anchor="middle" x="870" y="-252" font-family="Helvetica,sans-Serif" font-size="10.00" fill="#000000"> keys_</text>
</g>
<!-- Node26 -->
<g id="node24" class="node">
<title>Node26</title>
<g id="a_node24"><a xlink:href="class_uptane_1_1_ecu_serial.html" target="_top" xlink:title="Uptane::EcuSerial">
<polygon fill="#ffffff" stroke="#000000" points="704,-154.5 704,-173.5 800,-173.5 800,-154.5 704,-154.5"/>
<text text-anchor="middle" x="752" y="-161.5" font-family="Helvetica,sans-Serif" font-size="10.00" fill="#000000">Uptane::EcuSerial</text>
</a>
</g>
</g>
<!-- Node26&#45;&gt;Node5 -->
<g id="edge26" class="edge">
<title>Node26&#45;&gt;Node5</title>
<path fill="none" stroke="#9a32cd" stroke-dasharray="5,2" d="M810.0499,-170.6465C839.9471,-176.305 875.742,-186.7501 903,-206 947.5446,-237.4578 977.2946,-298.791 987.5427,-322.4096"/>
<polygon fill="#9a32cd" stroke="#9a32cd" points="810.6131,-167.1919 800.1578,-168.9052 809.3995,-174.0859 810.6131,-167.1919"/>
<text text-anchor="middle" x="870" y="-209" font-family="Helvetica,sans-Serif" font-size="10.00" fill="#000000"> ecu_serial_</text>
</g>
<!-- Node27&#45;&gt;Node5 -->
<g id="edge28" class="edge">
<title>Node27&#45;&gt;Node5</title>
<path fill="none" stroke="#9a32cd" stroke-dasharray="5,2" d="M799.6042,-388.9002C830.3027,-386.6576 870.4272,-380.7883 903,-366 912.4822,-361.695 911.7583,-355.7995 921,-351 928.3123,-347.2025 936.4563,-344.1085 944.5383,-341.6056"/>
<polygon fill="#9a32cd" stroke="#9a32cd" points="799.3404,-385.4098 789.5793,-389.5294 799.7789,-392.3961 799.3404,-385.4098"/>
<text text-anchor="middle" x="870" y="-387" font-family="Helvetica,sans-Serif" font-size="10.00" fill="#000000"> root_</text>
</g>
</g>
</svg>
        <g id="navigator" transform="translate(0 0)" fill="#404254">
                <rect fill="#f2f5e9" fill-opacity="0.5" stroke="#606060" stroke-width=".5" x="0" y="0" width="60" height="60"/>
                <use id="zoomplus" xlink:href="#zoomPlus" x="17" y="9" onmousedown="handleZoom(evt,'in')"/>
                <use id="zoomminus" xlink:href="#zoomMin" x="42" y="9" onmousedown="handleZoom(evt,'out')"/>
                <use id="reset" xlink:href="#resetDef" x="30" y="36" onmousedown="handleReset()"/>
                <g id="arrowUp" xlink:href="#dirArrow" transform="translate(30 24)" onmousedown="handlePan(0,-1)">
                  <use xlink:href="#rim" fill="#404040">
                        <set attributeName="fill" to="#808080" begin="arrowUp.mouseover" end="arrowUp.mouseout"/>
                  </use>
                  <path fill="none" stroke="white" stroke-width="1.5" d="M0,-3.0v7 M-2.5,-0.5L0,-3.0L2.5,-0.5"/>
                </g>
                <g id="arrowRight" xlink:href="#dirArrow" transform="rotate(90) translate(36 -43)" onmousedown="handlePan(1,0)">
                  <use xlink:href="#rim" fill="#404040">
                        <set attributeName="fill" to="#808080" begin="arrowRight.mouseover" end="arrowRight.mouseout"/>
                  </use>
                  <path fill="none" stroke="white" stroke-width="1.5" d="M0,-3.0v7 M-2.5,-0.5L0,-3.0L2.5,-0.5"/>
                </g>
                <g id="arrowDown" xlink:href="#dirArrow" transform="rotate(180) translate(-30 -48)" onmousedown="handlePan(0,1)">
                  <use xlink:href="#rim" fill="#404040">
                        <set attributeName="fill" to="#808080" begin="arrowDown.mouseover" end="arrowDown.mouseout"/>
                  </use>
                  <path fill="none" stroke="white" stroke-width="1.5" d="M0,-3.0v7 M-2.5,-0.5L0,-3.0L2.5,-0.5"/>
                </g>
                <g id="arrowLeft" xlink:href="#dirArrow" transform="rotate(270) translate(-36 17)" onmousedown="handlePan(-1,0)">
                  <use xlink:href="#rim" fill="#404040">
                        <set attributeName="fill" to="#808080" begin="arrowLeft.mouseover" end="arrowLeft.mouseout"/>
                  </use>
                  <path fill="none" stroke="white" stroke-width="1.5" d="M0,-3.0v7 M-2.5,-0.5L0,-3.0L2.5,-0.5"/>
                </g>
        </g>
        <svg viewBox="0 0 15 15" width="100%" height="30px" preserveAspectRatio="xMaxYMin meet">
         <g id="arrow_out" transform="scale(0.3 0.3)">
          <a xlink:href="class_aktualizr_secondary__coll__graph_org.svg" target="_base">
           <rect id="button" ry="5" rx="5" y="6" x="6" height="38" width="38"
                fill="#f2f5e9" fill-opacity="0.5" stroke="#606060" stroke-width="1.0"/>
           <path id="arrow"
             d="M 11.500037,31.436501 C 11.940474,20.09759 22.043105,11.32322 32.158766,21.979434 L 37.068811,17.246167 C 37.068811,17.246167 37.088388,32 37.088388,32 L 22.160133,31.978069 C 22.160133,31.978069 26.997745,27.140456 26.997745,27.140456 C 18.528582,18.264221 13.291696,25.230495 11.500037,31.436501 z"
             style="fill:#404040;"/>
          </a>
         </g>
        </svg>
</svg>
