<?xml version="1.0" encoding="UTF-8" standalone="no"?>
<!DOCTYPE svg PUBLIC "-//W3C//DTD SVG 1.1//EN"
 "http://www.w3.org/Graphics/SVG/1.1/DTD/svg11.dtd">
<!-- Generated by graphviz version 2.38.0 (20140413.2041)
 -->
<!-- Title: event::BaseEvent Pages: 1 -->
<svg width="303pt" height="294pt"
 viewBox="0.00 0.00 303.00 294.00" xmlns="http://www.w3.org/2000/svg" xmlns:xlink="http://www.w3.org/1999/xlink">
<g id="graph0" class="graph" transform="scale(1 1) rotate(0) translate(4 290)">
<title>event::BaseEvent</title>
<polygon fill="white" stroke="none" points="-4,4 -4,-290 299,-290 299,4 -4,4"/>
<!-- Node0 -->
<g id="node1" class="node"><title>Node0</title>
<polygon fill="#bfbfbf" stroke="black" points="0,-133.5 0,-152.5 95,-152.5 95,-133.5 0,-133.5"/>
<text text-anchor="middle" x="47.5" y="-140.5" font-family="Helvetica,sans-Serif" font-size="10.00">event::BaseEvent</text>
</g>
<!-- Node1 -->
<g id="node2" class="node"><title>Node1</title>
<g id="a_node2"><a xlink:href="classevent_1_1_download_complete.html" target="_top" xlink:title="The StartDownload command completed successfully. ">
<polygon fill="white" stroke="black" points="147,-266.5 147,-285.5 279,-285.5 279,-266.5 147,-266.5"/>
<text text-anchor="middle" x="213" y="-273.5" font-family="Helvetica,sans-Serif" font-size="10.00">event::DownloadComplete</text>
</a>
</g>
</g>
<!-- Node0&#45;&gt;Node1 -->
<g id="edge1" class="edge"><title>Node0&#45;&gt;Node1</title>
<path fill="none" stroke="midnightblue" d="M56.8438,-161.829C69.217,-187.485 94.9147,-232.976 131,-257 136.771,-260.842 143.226,-263.912 149.905,-266.363"/>
<polygon fill="midnightblue" stroke="midnightblue" points="60.0162,-160.35 52.6277,-152.757 53.6683,-163.3 60.0162,-160.35"/>
</g>
<!-- Node2 -->
<g id="node3" class="node"><title>Node2</title>
<g id="a_node3"><a xlink:href="classevent_1_1_error.html" target="_top" xlink:title="An error occurred processing a command. ">
<polygon fill="white" stroke="black" points="179,-228.5 179,-247.5 247,-247.5 247,-228.5 179,-228.5"/>
<text text-anchor="middle" x="213" y="-235.5" font-family="Helvetica,sans-Serif" font-size="10.00">event::Error</text>
</a>
</g>
</g>
<!-- Node0&#45;&gt;Node2 -->
<g id="edge2" class="edge"><title>Node0&#45;&gt;Node2</title>
<path fill="none" stroke="midnightblue" d="M62.5487,-160.381C77.6311,-177.858 103.201,-204.265 131,-219 145.676,-226.779 163.513,-231.404 178.708,-234.138"/>
<polygon fill="midnightblue" stroke="midnightblue" points="65.1339,-158.017 56.0233,-152.609 59.7729,-162.518 65.1339,-158.017"/>
</g>
<!-- Node3 -->
<g id="node4" class="node"><title>Node3</title>
<g id="a_node4"><a xlink:href="classevent_1_1_fetch_meta_complete.html" target="_top" xlink:title="The FetchMeta command completed successfully. ">
<polygon fill="white" stroke="black" points="145.5,-190.5 145.5,-209.5 280.5,-209.5 280.5,-190.5 145.5,-190.5"/>
<text text-anchor="middle" x="213" y="-197.5" font-family="Helvetica,sans-Serif" font-size="10.00">event::FetchMetaComplete</text>
</a>
</g>
</g>
<!-- Node0&#45;&gt;Node3 -->
<g id="edge3" class="edge"><title>Node0&#45;&gt;Node3</title>
<path fill="none" stroke="midnightblue" d="M75.6077,-157.166C91.4372,-165.009 111.981,-174.464 131,-181 141.518,-184.615 153.037,-187.774 164.003,-190.425"/>
<polygon fill="midnightblue" stroke="midnightblue" points="76.9216,-153.909 66.4166,-152.532 73.7698,-160.159 76.9216,-153.909"/>
</g>
<!-- Node4 -->
<g id="node5" class="node"><title>Node4</title>
<g id="a_node5"><a xlink:href="classevent_1_1_install_complete.html" target="_top" xlink:title="The UptaneInstall command completed successfully. ">
<polygon fill="white" stroke="black" points="155.5,-152.5 155.5,-171.5 270.5,-171.5 270.5,-152.5 155.5,-152.5"/>
<text text-anchor="middle" x="213" y="-159.5" font-family="Helvetica,sans-Serif" font-size="10.00">event::InstallComplete</text>
</a>
</g>
</g>
<!-- Node0&#45;&gt;Node4 -->
<g id="edge4" class="edge"><title>Node0&#45;&gt;Node4</title>
<path fill="none" stroke="midnightblue" d="M105.685,-149.645C121.759,-151.513 139.229,-153.543 155.276,-155.408"/>
<polygon fill="midnightblue" stroke="midnightblue" points="105.69,-146.122 95.3525,-148.445 104.882,-153.076 105.69,-146.122"/>
</g>
<!-- Node5 -->
<g id="node6" class="node"><title>Node5</title>
<g id="a_node6"><a xlink:href="classevent_1_1_put_manifest_complete.html" target="_top" xlink:title="The PutManifest command completed successfully. ">
<polygon fill="white" stroke="black" points="142.5,-114.5 142.5,-133.5 283.5,-133.5 283.5,-114.5 142.5,-114.5"/>
<text text-anchor="middle" x="213" y="-121.5" font-family="Helvetica,sans-Serif" font-size="10.00">event::PutManifestComplete</text>
</a>
</g>
</g>
<!-- Node0&#45;&gt;Node5 -->
<g id="edge5" class="edge"><title>Node0&#45;&gt;Node5</title>
<path fill="none" stroke="midnightblue" d="M105.548,-136.371C117.406,-134.993 130.03,-133.526 142.284,-132.102"/>
<polygon fill="midnightblue" stroke="midnightblue" points="104.882,-132.924 95.3525,-137.555 105.69,-139.878 104.882,-132.924"/>
</g>
<!-- Node6 -->
<g id="node7" class="node"><title>Node6</title>
<g id="a_node7"><a xlink:href="classevent_1_1_send_device_data_complete.html" target="_top" xlink:title="The SendDeviceData command completed successfully. ">
<polygon fill="white" stroke="black" points="131.5,-76.5 131.5,-95.5 294.5,-95.5 294.5,-76.5 131.5,-76.5"/>
<text text-anchor="middle" x="213" y="-83.5" font-family="Helvetica,sans-Serif" font-size="10.00">event::SendDeviceDataComplete</text>
</a>
</g>
</g>
<!-- Node0&#45;&gt;Node6 -->
<g id="edge6" class="edge"><title>Node0&#45;&gt;Node6</title>
<path fill="none" stroke="midnightblue" d="M75.6077,-128.834C91.4372,-120.991 111.981,-111.536 131,-105 141.518,-101.385 153.037,-98.2261 164.003,-95.5754"/>
<polygon fill="midnightblue" stroke="midnightblue" points="73.7698,-125.841 66.4166,-133.468 76.9216,-132.091 73.7698,-125.841"/>
</g>
<!-- Node7 -->
<g id="node8" class="node"><title>Node7</title>
<g id="a_node8"><a xlink:href="classevent_1_1_update_available.html" target="_top" xlink:title="event::UpdateAvailable">
<polygon fill="white" stroke="black" points="154,-38.5 154,-57.5 272,-57.5 272,-38.5 154,-38.5"/>
<text text-anchor="middle" x="213" y="-45.5" font-family="Helvetica,sans-Serif" font-size="10.00">event::UpdateAvailable</text>
</a>
</g>
</g>
<!-- Node0&#45;&gt;Node7 -->
<g id="edge7" class="edge"><title>Node0&#45;&gt;Node7</title>
<path fill="none" stroke="midnightblue" d="M62.5487,-125.619C77.6311,-108.142 103.201,-81.7352 131,-67 138.274,-63.1441 146.325,-60.0633 154.446,-57.6037"/>
<polygon fill="midnightblue" stroke="midnightblue" points="59.7729,-123.482 56.0233,-133.391 65.1339,-127.983 59.7729,-123.482"/>
</g>
<!-- Node8 -->
<g id="node9" class="node"><title>Node8</title>
<g id="a_node9"><a xlink:href="classevent_1_1_uptane_timestamp_updated.html" target="_top" xlink:title="event::UptaneTimestampUpdated">
<polygon fill="white" stroke="black" points="131,-0.5 131,-19.5 295,-19.5 295,-0.5 131,-0.5"/>
<text text-anchor="middle" x="213" y="-7.5" font-family="Helvetica,sans-Serif" font-size="10.00">event::UptaneTimestampUpdated</text>
</a>
</g>
</g>
<!-- Node0&#45;&gt;Node8 -->
<g id="edge8" class="edge"><title>Node0&#45;&gt;Node8</title>
<path fill="none" stroke="midnightblue" d="M56.8438,-124.171C69.217,-98.5153 94.9147,-53.0242 131,-29 136.771,-25.1578 143.226,-22.0884 149.905,-19.6371"/>
<polygon fill="midnightblue" stroke="midnightblue" points="53.6683,-122.7 52.6277,-133.243 60.0162,-125.65 53.6683,-122.7"/>
</g>
</g>
</svg>
