<?xml version="1.0" encoding="UTF-8" standalone="no"?>
<!DOCTYPE svg PUBLIC "-//W3C//DTD SVG 1.1//EN"
 "http://www.w3.org/Graphics/SVG/1.1/DTD/svg11.dtd">
<!-- Generated by graphviz version 2.40.1 (20161225.0304)
 -->
<!-- Title: Uptane::Exception Pages: 1 -->
<svg width="522pt" height="484pt"
 viewBox="0.00 0.00 522.00 484.00" xmlns="http://www.w3.org/2000/svg" xmlns:xlink="http://www.w3.org/1999/xlink">
<g id="graph0" class="graph" transform="scale(1 1) rotate(0) translate(4 480)">
<title>Uptane::Exception</title>
<polygon fill="#ffffff" stroke="transparent" points="-4,4 -4,-480 518,-480 518,4 -4,4"/>
<!-- Node0 -->
<g id="node1" class="node">
<title>Node0</title>
<polygon fill="#bfbfbf" stroke="#000000" points="231,-228.5 231,-247.5 329,-247.5 329,-228.5 231,-228.5"/>
<text text-anchor="middle" x="280" y="-235.5" font-family="Helvetica,sans-Serif" font-size="10.00" fill="#000000">Uptane::Exception</text>
</g>
<!-- Node3 -->
<g id="node4" class="node">
<title>Node3</title>
<g id="a_node4"><a xlink:href="class_uptane_1_1_bad_ecu_id.html" target="_top" xlink:title="Uptane::BadEcuId">
<polygon fill="#ffffff" stroke="#000000" points="391,-456.5 391,-475.5 488,-475.5 488,-456.5 391,-456.5"/>
<text text-anchor="middle" x="439.5" y="-463.5" font-family="Helvetica,sans-Serif" font-size="10.00" fill="#000000">Uptane::BadEcuId</text>
</a>
</g>
</g>
<!-- Node0&#45;&gt;Node3 -->
<g id="edge3" class="edge">
<title>Node0&#45;&gt;Node3</title>
<path fill="none" stroke="#191970" d="M282.1582,-257.828C287.7724,-299.4298 306.7104,-396.1723 365,-447 372.3441,-453.404 381.5577,-457.7006 390.9774,-460.5711"/>
<polygon fill="#191970" stroke="#191970" points="285.6,-257.1388 280.9064,-247.6403 278.6522,-257.9926 285.6,-257.1388"/>
</g>
<!-- Node4 -->
<g id="node5" class="node">
<title>Node4</title>
<g id="a_node5"><a xlink:href="class_uptane_1_1_bad_key_id.html" target="_top" xlink:title="Uptane::BadKeyId">
<polygon fill="#ffffff" stroke="#000000" points="391,-418.5 391,-437.5 488,-437.5 488,-418.5 391,-418.5"/>
<text text-anchor="middle" x="439.5" y="-425.5" font-family="Helvetica,sans-Serif" font-size="10.00" fill="#000000">Uptane::BadKeyId</text>
</a>
</g>
</g>
<!-- Node0&#45;&gt;Node4 -->
<g id="edge4" class="edge">
<title>Node0&#45;&gt;Node4</title>
<path fill="none" stroke="#191970" d="M284.0911,-257.6104C292.6011,-293.3674 315.67,-369.1414 365,-409 372.4753,-415.0401 381.6389,-419.1855 390.9497,-422.0243"/>
<polygon fill="#191970" stroke="#191970" points="287.4281,-256.4953 281.8249,-247.5034 280.5977,-258.0269 287.4281,-256.4953"/>
</g>
<!-- Node5 -->
<g id="node6" class="node">
<title>Node5</title>
<g id="a_node6"><a xlink:href="class_uptane_1_1_expired_metadata.html" target="_top" xlink:title="Uptane::ExpiredMetadata">
<polygon fill="#ffffff" stroke="#000000" points="375.5,-380.5 375.5,-399.5 503.5,-399.5 503.5,-380.5 375.5,-380.5"/>
<text text-anchor="middle" x="439.5" y="-387.5" font-family="Helvetica,sans-Serif" font-size="10.00" fill="#000000">Uptane::ExpiredMetadata</text>
</a>
</g>
</g>
<!-- Node0&#45;&gt;Node5 -->
<g id="edge5" class="edge">
<title>Node0&#45;&gt;Node5</title>
<path fill="none" stroke="#191970" d="M286.959,-257.312C298.5067,-286.5369 324.4527,-341.6892 365,-371 370.4088,-374.9099 376.5467,-378.0173 382.9227,-380.4865"/>
<polygon fill="#191970" stroke="#191970" points="290.1753,-255.9222 283.3557,-247.8139 283.6304,-258.4052 290.1753,-255.9222"/>
</g>
<!-- Node6 -->
<g id="node7" class="node">
<title>Node6</title>
<g id="a_node7"><a xlink:href="class_uptane_1_1_illegal_rsa_key_size.html" target="_top" xlink:title="Uptane::IllegalRsaKeySize">
<polygon fill="#ffffff" stroke="#000000" points="372.5,-342.5 372.5,-361.5 506.5,-361.5 506.5,-342.5 372.5,-342.5"/>
<text text-anchor="middle" x="439.5" y="-349.5" font-family="Helvetica,sans-Serif" font-size="10.00" fill="#000000">Uptane::IllegalRsaKeySize</text>
</a>
</g>
</g>
<!-- Node0&#45;&gt;Node6 -->
<g id="edge6" class="edge">
<title>Node0&#45;&gt;Node6</title>
<path fill="none" stroke="#191970" d="M291.2557,-256.0737C305.6724,-277.689 332.6945,-313.4015 365,-333 371.3908,-336.8771 378.5506,-339.9671 385.8371,-342.4289"/>
<polygon fill="#191970" stroke="#191970" points="294.0793,-253.9948 285.7073,-247.5017 288.2029,-257.7984 294.0793,-253.9948"/>
</g>
<!-- Node7 -->
<g id="node8" class="node">
<title>Node7</title>
<g id="a_node8"><a xlink:href="class_uptane_1_1_illegal_threshold.html" target="_top" xlink:title="Uptane::IllegalThreshold">
<polygon fill="#ffffff" stroke="#000000" points="378.5,-304.5 378.5,-323.5 500.5,-323.5 500.5,-304.5 378.5,-304.5"/>
<text text-anchor="middle" x="439.5" y="-311.5" font-family="Helvetica,sans-Serif" font-size="10.00" fill="#000000">Uptane::IllegalThreshold</text>
</a>
</g>
</g>
<!-- Node0&#45;&gt;Node7 -->
<g id="edge7" class="edge">
<title>Node0&#45;&gt;Node7</title>
<path fill="none" stroke="#191970" d="M299.9164,-254.2357C316.4478,-266.9782 341.0471,-284.2972 365,-295 373.4089,-298.7573 382.6971,-301.8695 391.7797,-304.4113"/>
<polygon fill="#191970" stroke="#191970" points="301.6389,-251.1371 291.6176,-247.6985 297.3073,-256.636 301.6389,-251.1371"/>
</g>
<!-- Node8 -->
<g id="node9" class="node">
<title>Node8</title>
<g id="a_node9"><a xlink:href="class_uptane_1_1_invalid_metadata.html" target="_top" xlink:title="Uptane::InvalidMetadata">
<polygon fill="#ffffff" stroke="#000000" points="378,-266.5 378,-285.5 501,-285.5 501,-266.5 378,-266.5"/>
<text text-anchor="middle" x="439.5" y="-273.5" font-family="Helvetica,sans-Serif" font-size="10.00" fill="#000000">Uptane::InvalidMetadata</text>
</a>
</g>
</g>
<!-- Node0&#45;&gt;Node8 -->
<g id="edge8" class="edge">
<title>Node0&#45;&gt;Node8</title>
<path fill="none" stroke="#191970" d="M330.234,-249.968C352.5855,-255.2931 378.5383,-261.4762 399.5408,-266.4799"/>
<polygon fill="#191970" stroke="#191970" points="330.7875,-246.502 320.2486,-247.589 329.1651,-253.3114 330.7875,-246.502"/>
</g>
<!-- Node9 -->
<g id="node10" class="node">
<title>Node9</title>
<g id="a_node10"><a xlink:href="class_uptane_1_1_missing_repo.html" target="_top" xlink:title="Uptane::MissingRepo">
<polygon fill="#ffffff" stroke="#000000" points="384,-228.5 384,-247.5 495,-247.5 495,-228.5 384,-228.5"/>
<text text-anchor="middle" x="439.5" y="-235.5" font-family="Helvetica,sans-Serif" font-size="10.00" fill="#000000">Uptane::MissingRepo</text>
</a>
</g>
</g>
<!-- Node0&#45;&gt;Node9 -->
<g id="edge9" class="edge">
<title>Node0&#45;&gt;Node9</title>
<path fill="none" stroke="#191970" d="M339.5224,-238C354.0312,-238 369.4963,-238 383.8187,-238"/>
<polygon fill="#191970" stroke="#191970" points="339.1568,-234.5001 329.1567,-238 339.1567,-241.5001 339.1568,-234.5001"/>
</g>
<!-- Node10 -->
<g id="node11" class="node">
<title>Node10</title>
<g id="a_node11"><a xlink:href="class_uptane_1_1_miss_match_target.html" target="_top" xlink:title="Uptane::MissMatchTarget">
<polygon fill="#ffffff" stroke="#000000" points="374.5,-190.5 374.5,-209.5 504.5,-209.5 504.5,-190.5 374.5,-190.5"/>
<text text-anchor="middle" x="439.5" y="-197.5" font-family="Helvetica,sans-Serif" font-size="10.00" fill="#000000">Uptane::MissMatchTarget</text>
</a>
</g>
</g>
<!-- Node0&#45;&gt;Node10 -->
<g id="edge10" class="edge">
<title>Node0&#45;&gt;Node10</title>
<path fill="none" stroke="#191970" d="M330.234,-226.032C352.5855,-220.7069 378.5383,-214.5238 399.5408,-209.5201"/>
<polygon fill="#191970" stroke="#191970" points="329.1651,-222.6886 320.2486,-228.411 330.7875,-229.498 329.1651,-222.6886"/>
</g>
<!-- Node11 -->
<g id="node12" class="node">
<title>Node11</title>
<g id="a_node12"><a xlink:href="class_uptane_1_1_non_unique_signatures.html" target="_top" xlink:title="Uptane::NonUniqueSignatures">
<polygon fill="#ffffff" stroke="#000000" points="365,-152.5 365,-171.5 514,-171.5 514,-152.5 365,-152.5"/>
<text text-anchor="middle" x="439.5" y="-159.5" font-family="Helvetica,sans-Serif" font-size="10.00" fill="#000000">Uptane::NonUniqueSignatures</text>
</a>
</g>
</g>
<!-- Node0&#45;&gt;Node11 -->
<g id="edge11" class="edge">
<title>Node0&#45;&gt;Node11</title>
<path fill="none" stroke="#191970" d="M299.9164,-221.7643C316.4478,-209.0218 341.0471,-191.7028 365,-181 373.4089,-177.2427 382.6971,-174.1305 391.7797,-171.5887"/>
<polygon fill="#191970" stroke="#191970" points="297.3073,-219.364 291.6176,-228.3015 301.6389,-224.8629 297.3073,-219.364"/>
</g>
<!-- Node12 -->
<g id="node13" class="node">
<title>Node12</title>
<g id="a_node13"><a xlink:href="class_uptane_1_1_oversized_target.html" target="_top" xlink:title="Uptane::OversizedTarget">
<polygon fill="#ffffff" stroke="#000000" points="376.5,-114.5 376.5,-133.5 502.5,-133.5 502.5,-114.5 376.5,-114.5"/>
<text text-anchor="middle" x="439.5" y="-121.5" font-family="Helvetica,sans-Serif" font-size="10.00" fill="#000000">Uptane::OversizedTarget</text>
</a>
</g>
</g>
<!-- Node0&#45;&gt;Node12 -->
<g id="edge12" class="edge">
<title>Node0&#45;&gt;Node12</title>
<path fill="none" stroke="#191970" d="M291.2557,-219.9263C305.6724,-198.311 332.6945,-162.5985 365,-143 371.3908,-139.1229 378.5506,-136.0329 385.8371,-133.5711"/>
<polygon fill="#191970" stroke="#191970" points="288.2029,-218.2016 285.7073,-228.4983 294.0793,-222.0052 288.2029,-218.2016"/>
</g>
<!-- Node13 -->
<g id="node14" class="node">
<title>Node13</title>
<g id="a_node14"><a xlink:href="class_uptane_1_1_security_exception.html" target="_top" xlink:title="Uptane::SecurityException">
<polygon fill="#ffffff" stroke="#000000" points="372.5,-76.5 372.5,-95.5 506.5,-95.5 506.5,-76.5 372.5,-76.5"/>
<text text-anchor="middle" x="439.5" y="-83.5" font-family="Helvetica,sans-Serif" font-size="10.00" fill="#000000">Uptane::SecurityException</text>
</a>
</g>
</g>
<!-- Node0&#45;&gt;Node13 -->
<g id="edge13" class="edge">
<title>Node0&#45;&gt;Node13</title>
<path fill="none" stroke="#191970" d="M286.959,-218.688C298.5067,-189.4631 324.4527,-134.3108 365,-105 370.4088,-101.0901 376.5467,-97.9827 382.9227,-95.5135"/>
<polygon fill="#191970" stroke="#191970" points="283.6304,-217.5948 283.3557,-228.1861 290.1753,-220.0778 283.6304,-217.5948"/>
</g>
<!-- Node14 -->
<g id="node15" class="node">
<title>Node14</title>
<g id="a_node15"><a xlink:href="class_uptane_1_1_target_hash_mismatch.html" target="_top" xlink:title="Uptane::TargetHashMismatch">
<polygon fill="#ffffff" stroke="#000000" points="365.5,-38.5 365.5,-57.5 513.5,-57.5 513.5,-38.5 365.5,-38.5"/>
<text text-anchor="middle" x="439.5" y="-45.5" font-family="Helvetica,sans-Serif" font-size="10.00" fill="#000000">Uptane::TargetHashMismatch</text>
</a>
</g>
</g>
<!-- Node0&#45;&gt;Node14 -->
<g id="edge14" class="edge">
<title>Node0&#45;&gt;Node14</title>
<path fill="none" stroke="#191970" d="M284.0911,-218.3896C292.6011,-182.6326 315.67,-106.8586 365,-67 369.7759,-63.1411 375.2409,-60.0555 380.9931,-57.5899"/>
<polygon fill="#191970" stroke="#191970" points="280.5977,-217.9731 281.8249,-228.4966 287.4281,-219.5047 280.5977,-217.9731"/>
</g>
<!-- Node15 -->
<g id="node16" class="node">
<title>Node15</title>
<g id="a_node16"><a xlink:href="class_uptane_1_1_unmet_threshold.html" target="_top" xlink:title="Uptane::UnmetThreshold">
<polygon fill="#ffffff" stroke="#000000" points="376.5,-.5 376.5,-19.5 502.5,-19.5 502.5,-.5 376.5,-.5"/>
<text text-anchor="middle" x="439.5" y="-7.5" font-family="Helvetica,sans-Serif" font-size="10.00" fill="#000000">Uptane::UnmetThreshold</text>
</a>
</g>
</g>
<!-- Node0&#45;&gt;Node15 -->
<g id="edge15" class="edge">
<title>Node0&#45;&gt;Node15</title>
<path fill="none" stroke="#191970" d="M282.1582,-218.172C287.7724,-176.5702 306.7104,-79.8277 365,-29 369.4266,-25.1401 374.5323,-22.0457 379.953,-19.5678"/>
<polygon fill="#191970" stroke="#191970" points="278.6522,-218.0074 280.9064,-228.3597 285.6,-218.8612 278.6522,-218.0074"/>
</g>
<!-- Node1 -->
<g id="node2" class="node">
<title>Node1</title>
<g id="a_node2"><a xlink:title="STL class. ">
<polygon fill="#ffffff" stroke="#bfbfbf" points="114,-228.5 114,-247.5 195,-247.5 195,-228.5 114,-228.5"/>
<text text-anchor="middle" x="154.5" y="-235.5" font-family="Helvetica,sans-Serif" font-size="10.00" fill="#000000">std::logic_error</text>
</a>
</g>
</g>
<!-- Node1&#45;&gt;Node0 -->
<g id="edge1" class="edge">
<title>Node1&#45;&gt;Node0</title>
<path fill="none" stroke="#191970" d="M205.2842,-238C213.6685,-238 222.3488,-238 230.696,-238"/>
<polygon fill="#191970" stroke="#191970" points="205.2463,-234.5001 195.2463,-238 205.2462,-241.5001 205.2463,-234.5001"/>
</g>
<!-- Node2 -->
<g id="node3" class="node">
<title>Node2</title>
<g id="a_node3"><a xlink:title="STL class. ">
<polygon fill="#ffffff" stroke="#bfbfbf" points="0,-228.5 0,-247.5 78,-247.5 78,-228.5 0,-228.5"/>
<text text-anchor="middle" x="39" y="-235.5" font-family="Helvetica,sans-Serif" font-size="10.00" fill="#000000">std::exception</text>
</a>
</g>
</g>
<!-- Node2&#45;&gt;Node1 -->
<g id="edge2" class="edge">
<title>Node2&#45;&gt;Node1</title>
<path fill="none" stroke="#191970" d="M88.3181,-238C96.8363,-238 105.6047,-238 113.8602,-238"/>
<polygon fill="#191970" stroke="#191970" points="88.1031,-234.5001 78.103,-238 88.103,-241.5001 88.1031,-234.5001"/>
</g>
</g>
</svg>
