<?xml version="1.0" encoding="UTF-8" standalone="no"?>
<!DOCTYPE svg PUBLIC "-//W3C//DTD SVG 1.1//EN"
 "http://www.w3.org/Graphics/SVG/1.1/DTD/svg11.dtd">
<!-- Generated by graphviz version 2.38.0 (20140413.2041)
 -->
<!-- Title: StorageTargetRHandle Pages: 1 -->
<svg width="224pt" height="84pt"
 viewBox="0.00 0.00 223.50 84.00" xmlns="http://www.w3.org/2000/svg" xmlns:xlink="http://www.w3.org/1999/xlink">
<g id="graph0" class="graph" transform="scale(1 1) rotate(0) translate(4 80)">
<title>StorageTargetRHandle</title>
<polygon fill="white" stroke="none" points="-4,4 -4,-80 219.5,-80 219.5,4 -4,4"/>
<!-- Node0 -->
<g id="node1" class="node"><title>Node0</title>
<polygon fill="#bfbfbf" stroke="black" points="47.5,-56.5 47.5,-75.5 163.5,-75.5 163.5,-56.5 47.5,-56.5"/>
<text text-anchor="middle" x="105.5" y="-63.5" font-family="Helvetica,sans-Serif" font-size="10.00">StorageTargetRHandle</text>
</g>
<!-- Node1 -->
<g id="node2" class="node"><title>Node1</title>
<g id="a_node2"><a xlink:href="class_f_s_target_r_handle.html" target="_top" xlink:title="FSTargetRHandle">
<polygon fill="white" stroke="black" points="0,-0.5 0,-19.5 95,-19.5 95,-0.5 0,-0.5"/>
<text text-anchor="middle" x="47.5" y="-7.5" font-family="Helvetica,sans-Serif" font-size="10.00">FSTargetRHandle</text>
</a>
</g>
</g>
<!-- Node0&#45;&gt;Node1 -->
<g id="edge1" class="edge"><title>Node0&#45;&gt;Node1</title>
<path fill="none" stroke="midnightblue" d="M88.5869,-49.2533C78.297,-39.6731 65.5343,-27.7906 56.9883,-19.8339"/>
<polygon fill="midnightblue" stroke="midnightblue" points="86.4774,-52.0714 96.1813,-56.324 91.2473,-46.9481 86.4774,-52.0714"/>
</g>
<!-- Node2 -->
<g id="node3" class="node"><title>Node2</title>
<g id="a_node3"><a xlink:href="class_s_q_l_target_r_handle.html" target="_top" xlink:title="SQLTargetRHandle">
<polygon fill="white" stroke="black" points="113.5,-0.5 113.5,-19.5 215.5,-19.5 215.5,-0.5 113.5,-0.5"/>
<text text-anchor="middle" x="164.5" y="-7.5" font-family="Helvetica,sans-Serif" font-size="10.00">SQLTargetRHandle</text>
</a>
</g>
</g>
<!-- Node0&#45;&gt;Node2 -->
<g id="edge2" class="edge"><title>Node0&#45;&gt;Node2</title>
<path fill="none" stroke="midnightblue" d="M122.395,-49.5372C132.915,-39.9087 146.069,-27.8694 154.848,-19.8339"/>
<polygon fill="midnightblue" stroke="midnightblue" points="119.993,-46.9905 114.979,-56.324 124.719,-52.1542 119.993,-46.9905"/>
</g>
</g>
</svg>
