<?xml version="1.0" encoding="UTF-8" standalone="no"?>
<!DOCTYPE svg PUBLIC "-//W3C//DTD SVG 1.1//EN"
 "http://www.w3.org/Graphics/SVG/1.1/DTD/svg11.dtd">
<!-- Generated by graphviz version 2.38.0 (20140413.2041)
 -->
<!-- Title: opcuabridge::Configuration Pages: 1 -->
<!--zoomable 224 -->
<svg id="main" version="1.1" xmlns="http://www.w3.org/2000/svg" xmlns:xlink="http://www.w3.org/1999/xlink" xml:space="preserve" onload="init(evt)">
<style type="text/css"><![CDATA[
.edge:hover path { stroke: red; }
.edge:hover polygon { stroke: red; fill: red; }
]]></style>
<script type="text/javascript"><![CDATA[
var edges = document.getElementsByTagName('g');
if (edges && edges.length) {
  for (var i=0;i<edges.length;i++) {
    if (edges[i].id.substr(0,4)=='edge') {
      edges[i].setAttribute('class','edge');
    }
  }
}
]]></script>
        <defs>
                <circle id="rim" cx="0" cy="0" r="7"/>
                <circle id="rim2" cx="0" cy="0" r="3.5"/>
                <g id="zoomPlus">
                        <use xlink:href="#rim" fill="#404040">
                                <set attributeName="fill" to="#808080" begin="zoomplus.mouseover" end="zoomplus.mouseout"/>
                        </use>
                        <path d="M-4,0h8M0,-4v8" fill="none" stroke="white" stroke-width="1.5" pointer-events="none"/>
                </g>
                <g id="zoomMin">
                        <use xlink:href="#rim" fill="#404040">
                                <set attributeName="fill" to="#808080" begin="zoomminus.mouseover" end="zoomminus.mouseout"/>
                        </use>
                        <path d="M-4,0h8" fill="none" stroke="white" stroke-width="1.5" pointer-events="none"/>
                </g>
                <g id="dirArrow">
                        <path fill="none" stroke="white" stroke-width="1.5" d="M0,-3.0v7 M-2.5,-0.5L0,-3.0L2.5,-0.5"/>
                </g>
               <g id="resetDef">
                       <use xlink:href="#rim2" fill="#404040">
                               <set attributeName="fill" to="#808080" begin="reset.mouseover" end="reset.mouseout"/>
                       </use>
               </g>
        </defs>

<script type="text/javascript">
var viewWidth = 556;
var viewHeight = 224;
var sectionId = 'dynsection-0';
</script>
<script xlink:href="svgpan.js"/>
<svg id="graph" class="graph">
<g id="viewport">
<title>opcuabridge::Configuration</title>
<polygon fill="white" stroke="none" points="-4,4 -4,-220 552,-220 552,4 -4,4"/>
<!-- Node1 -->
<g id="node1" class="node"><title>Node1</title>
<polygon fill="#bfbfbf" stroke="black" points="415,-98.5 415,-117.5 548,-117.5 548,-98.5 415,-98.5"/>
<text text-anchor="middle" x="481.5" y="-105.5" font-family="Helvetica,sans-Serif" font-size="10.00">opcuabridge::Configuration</text>
</g>
<!-- Node2 -->
<g id="node2" class="node"><title>Node2</title>
<g id="a_node2"><a xlink:href="structopcuabridge_1_1_message_on_after_write_callback.html" target="_top" xlink:title="opcuabridge::MessageOnAfter\lWriteCallback\&lt; opcuabridge\l::Configuration \&gt;">
<polygon fill="white" stroke="black" points="135.5,-174.5 135.5,-215.5 284.5,-215.5 284.5,-174.5 135.5,-174.5"/>
<text text-anchor="start" x="143.5" y="-203.5" font-family="Helvetica,sans-Serif" font-size="10.00">opcuabridge::MessageOnAfter</text>
<text text-anchor="start" x="143.5" y="-192.5" font-family="Helvetica,sans-Serif" font-size="10.00">WriteCallback&lt; opcuabridge</text>
<text text-anchor="middle" x="210" y="-181.5" font-family="Helvetica,sans-Serif" font-size="10.00">::Configuration &gt;</text>
</a>
</g>
</g>
<!-- Node2&#45;&gt;Node1 -->
<g id="edge1" class="edge"><title>Node2&#45;&gt;Node1</title>
<path fill="none" stroke="#9a32cd" stroke-dasharray="5,2" d="M294.428,-178.376C326.907,-170.869 364.144,-160.973 397,-149 420.975,-140.264 447.162,-126.694 463.699,-117.584"/>
<polygon fill="#9a32cd" stroke="#9a32cd" points="293.488,-175 284.511,-180.628 295.038,-181.826 293.488,-175"/>
<text text-anchor="middle" x="351.5" y="-178" font-family="Helvetica,sans-Serif" font-size="10.00"> on_after_write_cb_</text>
</g>
<!-- Node3 -->
<g id="node3" class="node"><title>Node3</title>
<g id="a_node3"><a xlink:href="class_uptane_1_1_hardware_identifier.html" target="_top" xlink:title="Uptane::HardwareIdentifier">
<polygon fill="white" stroke="black" points="143,-136.5 143,-155.5 277,-155.5 277,-136.5 143,-136.5"/>
<text text-anchor="middle" x="210" y="-143.5" font-family="Helvetica,sans-Serif" font-size="10.00">Uptane::HardwareIdentifier</text>
</a>
</g>
</g>
<!-- Node3&#45;&gt;Node1 -->
<g id="edge2" class="edge"><title>Node3&#45;&gt;Node1</title>
<path fill="none" stroke="#9a32cd" stroke-dasharray="5,2" d="M287.626,-137.481C321.244,-133.496 361.14,-128.434 397,-123 407.631,-121.389 418.988,-119.477 429.794,-117.567"/>
<polygon fill="#9a32cd" stroke="#9a32cd" points="286.929,-134.038 277.405,-138.682 287.746,-140.991 286.929,-134.038"/>
<text text-anchor="middle" x="351.5" y="-137" font-family="Helvetica,sans-Serif" font-size="10.00"> hwid_</text>
</g>
<!-- Node4 -->
<g id="node4" class="node"><title>Node4</title>
<g id="a_node4"><a xlink:href="class_uptane_1_1_ecu_serial.html" target="_top" xlink:title="Uptane::EcuSerial">
<polygon fill="white" stroke="black" points="162,-98.5 162,-117.5 258,-117.5 258,-98.5 162,-98.5"/>
<text text-anchor="middle" x="210" y="-105.5" font-family="Helvetica,sans-Serif" font-size="10.00">Uptane::EcuSerial</text>
</a>
</g>
</g>
<!-- Node4&#45;&gt;Node1 -->
<g id="edge3" class="edge"><title>Node4&#45;&gt;Node1</title>
<path fill="none" stroke="#9a32cd" stroke-dasharray="5,2" d="M268.252,-108C311.172,-108 369.983,-108 414.816,-108"/>
<polygon fill="#9a32cd" stroke="#9a32cd" points="268.252,-104.5 258.252,-108 268.252,-111.5 268.252,-104.5"/>
<text text-anchor="middle" x="351.5" y="-111" font-family="Helvetica,sans-Serif" font-size="10.00"> serial_</text>
</g>
<!-- Node5 -->
<g id="node5" class="node"><title>Node5</title>
<g id="a_node5"><a xlink:title="STL class. ">
<polygon fill="white" stroke="#bfbfbf" points="180,-60.5 180,-79.5 240,-79.5 240,-60.5 180,-60.5"/>
<text text-anchor="middle" x="210" y="-67.5" font-family="Helvetica,sans-Serif" font-size="10.00">std::string</text>
</a>
</g>
</g>
<!-- Node5&#45;&gt;Node1 -->
<g id="edge4" class="edge"><title>Node5&#45;&gt;Node1</title>
<path fill="none" stroke="#9a32cd" stroke-dasharray="5,2" d="M250.117,-74.2073C287.815,-78.4106 346.422,-85.3358 397,-93 407.631,-94.6109 418.988,-96.5227 429.794,-98.433"/>
<polygon fill="#9a32cd" stroke="#9a32cd" points="250.387,-70.7159 240.063,-73.0956 249.618,-77.6735 250.387,-70.7159"/>
<text text-anchor="middle" x="351.5" y="-96" font-family="Helvetica,sans-Serif" font-size="10.00"> public_key_</text>
</g>
<!-- Node6 -->
<g id="node6" class="node"><title>Node6</title>
<g id="a_node6"><a xlink:title="STL class. ">
<polygon fill="white" stroke="#bfbfbf" points="0,-55 0,-85 95,-85 95,-55 0,-55"/>
<text text-anchor="start" x="8" y="-73" font-family="Helvetica,sans-Serif" font-size="10.00">std::basic_string&lt;</text>
<text text-anchor="middle" x="47.5" y="-62" font-family="Helvetica,sans-Serif" font-size="10.00"> char &gt;</text>
</a>
</g>
</g>
<!-- Node6&#45;&gt;Node5 -->
<g id="edge5" class="edge"><title>Node6&#45;&gt;Node5</title>
<path fill="none" stroke="midnightblue" d="M105.482,-70C130.51,-70 158.842,-70 179.531,-70"/>
<polygon fill="midnightblue" stroke="midnightblue" points="105.355,-66.5001 95.3547,-70 105.355,-73.5001 105.355,-66.5001"/>
</g>
<!-- Node7 -->
<g id="node7" class="node"><title>Node7</title>
<g id="a_node7"><a xlink:href="structopcuabridge_1_1_message_on_before_read_callback.html" target="_top" xlink:title="opcuabridge::MessageOnBefore\lReadCallback\&lt; opcuabridge\l::Configuration \&gt;">
<polygon fill="white" stroke="black" points="132,-0.5 132,-41.5 288,-41.5 288,-0.5 132,-0.5"/>
<text text-anchor="start" x="140" y="-29.5" font-family="Helvetica,sans-Serif" font-size="10.00">opcuabridge::MessageOnBefore</text>
<text text-anchor="start" x="140" y="-18.5" font-family="Helvetica,sans-Serif" font-size="10.00">ReadCallback&lt; opcuabridge</text>
<text text-anchor="middle" x="210" y="-7.5" font-family="Helvetica,sans-Serif" font-size="10.00">::Configuration &gt;</text>
</a>
</g>
</g>
<!-- Node7&#45;&gt;Node1 -->
<g id="edge6" class="edge"><title>Node7&#45;&gt;Node1</title>
<path fill="none" stroke="#9a32cd" stroke-dasharray="5,2" d="M298.286,-37.7869C329.858,-44.9855 365.479,-54.4329 397,-66 421.374,-74.9444 447.898,-89.1145 464.363,-98.4843"/>
<polygon fill="#9a32cd" stroke="#9a32cd" points="298.711,-34.2955 288.188,-35.5288 297.183,-41.1268 298.711,-34.2955"/>
<text text-anchor="middle" x="351.5" y="-69" font-family="Helvetica,sans-Serif" font-size="10.00"> on_before_read_cb_</text>
</g>
</g>
</svg>
        <g id="navigator" transform="translate(0 0)" fill="#404254">
                <rect fill="#f2f5e9" fill-opacity="0.5" stroke="#606060" stroke-width=".5" x="0" y="0" width="60" height="60"/>
                <use id="zoomplus" xlink:href="#zoomPlus" x="17" y="9" onmousedown="handleZoom(evt,'in')"/>
                <use id="zoomminus" xlink:href="#zoomMin" x="42" y="9" onmousedown="handleZoom(evt,'out')"/>
                <use id="reset" xlink:href="#resetDef" x="30" y="36" onmousedown="handleReset()"/>
                <g id="arrowUp" xlink:href="#dirArrow" transform="translate(30 24)" onmousedown="handlePan(0,-1)">
                  <use xlink:href="#rim" fill="#404040">
                        <set attributeName="fill" to="#808080" begin="arrowUp.mouseover" end="arrowUp.mouseout"/>
                  </use>
                  <path fill="none" stroke="white" stroke-width="1.5" d="M0,-3.0v7 M-2.5,-0.5L0,-3.0L2.5,-0.5"/>
                </g>
                <g id="arrowRight" xlink:href="#dirArrow" transform="rotate(90) translate(36 -43)" onmousedown="handlePan(1,0)">
                  <use xlink:href="#rim" fill="#404040">
                        <set attributeName="fill" to="#808080" begin="arrowRight.mouseover" end="arrowRight.mouseout"/>
                  </use>
                  <path fill="none" stroke="white" stroke-width="1.5" d="M0,-3.0v7 M-2.5,-0.5L0,-3.0L2.5,-0.5"/>
                </g>
                <g id="arrowDown" xlink:href="#dirArrow" transform="rotate(180) translate(-30 -48)" onmousedown="handlePan(0,1)">
                  <use xlink:href="#rim" fill="#404040">
                        <set attributeName="fill" to="#808080" begin="arrowDown.mouseover" end="arrowDown.mouseout"/>
                  </use>
                  <path fill="none" stroke="white" stroke-width="1.5" d="M0,-3.0v7 M-2.5,-0.5L0,-3.0L2.5,-0.5"/>
                </g>
                <g id="arrowLeft" xlink:href="#dirArrow" transform="rotate(270) translate(-36 17)" onmousedown="handlePan(-1,0)">
                  <use xlink:href="#rim" fill="#404040">
                        <set attributeName="fill" to="#808080" begin="arrowLeft.mouseover" end="arrowLeft.mouseout"/>
                  </use>
                  <path fill="none" stroke="white" stroke-width="1.5" d="M0,-3.0v7 M-2.5,-0.5L0,-3.0L2.5,-0.5"/>
                </g>
        </g>
        <svg viewBox="0 0 15 15" width="100%" height="30px" preserveAspectRatio="xMaxYMin meet">
         <g id="arrow_out" transform="scale(0.3 0.3)">
          <a xlink:href="classopcuabridge_1_1_configuration__coll__graph_org.svg" target="_base">
           <rect id="button" ry="5" rx="5" y="6" x="6" height="38" width="38"
                fill="#f2f5e9" fill-opacity="0.5" stroke="#606060" stroke-width="1.0"/>
           <path id="arrow"
             d="M 11.500037,31.436501 C 11.940474,20.09759 22.043105,11.32322 32.158766,21.979434 L 37.068811,17.246167 C 37.068811,17.246167 37.088388,32 37.088388,32 L 22.160133,31.978069 C 22.160133,31.978069 26.997745,27.140456 26.997745,27.140456 C 18.528582,18.264221 13.291696,25.230495 11.500037,31.436501 z"
             style="fill:#404040;"/>
          </a>
         </g>
        </svg>
</svg>
