<?xml version="1.0" encoding="UTF-8" standalone="no"?>
<!DOCTYPE svg PUBLIC "-//W3C//DTD SVG 1.1//EN"
 "http://www.w3.org/Graphics/SVG/1.1/DTD/svg11.dtd">
<!-- Generated by graphviz version 2.38.0 (20140413.2041)
 -->
<!-- Title: src/libaktualizr/primary/commands.h Pages: 1 -->
<svg width="2064pt" height="274pt"
 viewBox="0.00 0.00 2064.24 274.00" xmlns="http://www.w3.org/2000/svg" xmlns:xlink="http://www.w3.org/1999/xlink">
<g id="graph0" class="graph" transform="scale(1 1) rotate(0) translate(4 270)">
<title>src/libaktualizr/primary/commands.h</title>
<polygon fill="white" stroke="none" points="-4,4 -4,-270 2060.24,-270 2060.24,4 -4,4"/>
<!-- Node0 -->
<g id="node1" class="node"><title>Node0</title>
<polygon fill="#bfbfbf" stroke="black" points="1618.74,-235.5 1618.74,-265.5 1733.74,-265.5 1733.74,-235.5 1618.74,-235.5"/>
<text text-anchor="start" x="1626.74" y="-253.5" font-family="Helvetica,sans-Serif" font-size="10.00">src/libaktualizr/primary</text>
<text text-anchor="middle" x="1676.24" y="-242.5" font-family="Helvetica,sans-Serif" font-size="10.00">/commands.h</text>
</g>
<!-- Node1 -->
<g id="node2" class="node"><title>Node1</title>
<polygon fill="white" stroke="#bfbfbf" points="138.745,-0.5 138.745,-19.5 179.745,-19.5 179.745,-0.5 138.745,-0.5"/>
<text text-anchor="middle" x="159.245" y="-7.5" font-family="Helvetica,sans-Serif" font-size="10.00">string</text>
</g>
<!-- Node0&#45;&gt;Node1 -->
<g id="edge1" class="edge"><title>Node0&#45;&gt;Node1</title>
<path fill="none" stroke="midnightblue" d="M1618.74,-249.773C1341.58,-250.566 151.761,-247.806 28.2448,-143 -1.61761,-117.661 -8.98447,-87.5314 14.2448,-56 40.3427,-20.5749 94.0606,-12.2155 128.28,-10.6868"/>
<polygon fill="midnightblue" stroke="midnightblue" points="128.744,-14.1755 138.646,-10.4048 128.554,-7.17812 128.744,-14.1755"/>
</g>
<!-- Node2 -->
<g id="node3" class="node"><title>Node2</title>
<polygon fill="white" stroke="#bfbfbf" points="1644.24,-0.5 1644.24,-19.5 1708.24,-19.5 1708.24,-0.5 1644.24,-0.5"/>
<text text-anchor="middle" x="1676.24" y="-7.5" font-family="Helvetica,sans-Serif" font-size="10.00">json/json.h</text>
</g>
<!-- Node0&#45;&gt;Node2 -->
<g id="edge2" class="edge"><title>Node0&#45;&gt;Node2</title>
<path fill="none" stroke="midnightblue" d="M1686.11,-235.365C1707.61,-202.662 1754.62,-119.709 1726.24,-56 1720.68,-43.4981 1709.73,-33.0124 1699.49,-25.3167"/>
<polygon fill="midnightblue" stroke="midnightblue" points="1701.4,-22.3794 1691.2,-19.5256 1697.39,-28.1193 1701.4,-22.3794"/>
</g>
<!-- Node3 -->
<g id="node4" class="node"><title>Node3</title>
<g id="a_node4"><a xlink:href="tuf_8h_source.html" target="_top" xlink:title="uptane/tuf.h">
<polygon fill="white" stroke="black" points="723.245,-179.5 723.245,-198.5 791.245,-198.5 791.245,-179.5 723.245,-179.5"/>
<text text-anchor="middle" x="757.245" y="-186.5" font-family="Helvetica,sans-Serif" font-size="10.00">uptane/tuf.h</text>
</a>
</g>
</g>
<!-- Node0&#45;&gt;Node3 -->
<g id="edge3" class="edge"><title>Node0&#45;&gt;Node3</title>
<path fill="none" stroke="midnightblue" d="M1618.41,-245.755C1448.45,-234.751 953.002,-202.674 801.667,-192.876"/>
<polygon fill="midnightblue" stroke="midnightblue" points="801.58,-189.363 791.375,-192.21 801.127,-196.349 801.58,-189.363"/>
</g>
<!-- Node23 -->
<g id="node24" class="node"><title>Node23</title>
<g id="a_node24"><a xlink:href="types_8h.html" target="_top" xlink:title="utilities/types.h">
<polygon fill="white" stroke="black" points="1634.74,-62 1634.74,-81 1717.74,-81 1717.74,-62 1634.74,-62"/>
<text text-anchor="middle" x="1676.24" y="-69" font-family="Helvetica,sans-Serif" font-size="10.00">utilities/types.h</text>
</a>
</g>
</g>
<!-- Node0&#45;&gt;Node23 -->
<g id="edge41" class="edge"><title>Node0&#45;&gt;Node23</title>
<path fill="none" stroke="midnightblue" d="M1676.24,-235.315C1676.24,-203.633 1676.24,-127.109 1676.24,-91.4186"/>
<polygon fill="midnightblue" stroke="midnightblue" points="1679.74,-91.374 1676.24,-81.3741 1672.74,-91.3741 1679.74,-91.374"/>
</g>
<!-- Node29 -->
<g id="node30" class="node"><title>Node29</title>
<g id="a_node30"><a xlink:href="channel_8h_source.html" target="_top" xlink:title="utilities/channel.h">
<polygon fill="white" stroke="black" points="1864.24,-179.5 1864.24,-198.5 1956.24,-198.5 1956.24,-179.5 1864.24,-179.5"/>
<text text-anchor="middle" x="1910.24" y="-186.5" font-family="Helvetica,sans-Serif" font-size="10.00">utilities/channel.h</text>
</a>
</g>
</g>
<!-- Node0&#45;&gt;Node29 -->
<g id="edge36" class="edge"><title>Node0&#45;&gt;Node29</title>
<path fill="none" stroke="midnightblue" d="M1731.4,-235.475C1772.83,-224.941 1828.77,-210.716 1866.99,-200.998"/>
<polygon fill="midnightblue" stroke="midnightblue" points="1867.96,-204.363 1876.79,-198.506 1866.24,-197.579 1867.96,-204.363"/>
</g>
<!-- Node4 -->
<g id="node5" class="node"><title>Node4</title>
<polygon fill="white" stroke="#bfbfbf" points="853.745,-123.5 853.745,-142.5 912.745,-142.5 912.745,-123.5 853.745,-123.5"/>
<text text-anchor="middle" x="883.245" y="-130.5" font-family="Helvetica,sans-Serif" font-size="10.00">functional</text>
</g>
<!-- Node3&#45;&gt;Node4 -->
<g id="edge4" class="edge"><title>Node3&#45;&gt;Node4</title>
<path fill="none" stroke="midnightblue" d="M777.21,-179.444C797.854,-170.596 830.307,-156.687 853.876,-146.586"/>
<polygon fill="midnightblue" stroke="midnightblue" points="855.56,-149.673 863.373,-142.516 852.803,-143.239 855.56,-149.673"/>
</g>
<!-- Node5 -->
<g id="node6" class="node"><title>Node5</title>
<polygon fill="white" stroke="#bfbfbf" points="37.2448,-123.5 37.2448,-142.5 89.2448,-142.5 89.2448,-123.5 37.2448,-123.5"/>
<text text-anchor="middle" x="63.2448" y="-130.5" font-family="Helvetica,sans-Serif" font-size="10.00">ostream</text>
</g>
<!-- Node3&#45;&gt;Node5 -->
<g id="edge5" class="edge"><title>Node3&#45;&gt;Node5</title>
<path fill="none" stroke="midnightblue" d="M723.041,-187.869C626.395,-187.034 343.034,-181.372 99.6079,-142.923"/>
<polygon fill="midnightblue" stroke="midnightblue" points="99.9367,-139.431 89.5089,-141.305 98.8293,-146.343 99.9367,-139.431"/>
</g>
<!-- Node6 -->
<g id="node7" class="node"><title>Node6</title>
<polygon fill="white" stroke="#bfbfbf" points="705.245,-123.5 705.245,-142.5 735.245,-142.5 735.245,-123.5 705.245,-123.5"/>
<text text-anchor="middle" x="720.245" y="-130.5" font-family="Helvetica,sans-Serif" font-size="10.00">set</text>
</g>
<!-- Node3&#45;&gt;Node6 -->
<g id="edge6" class="edge"><title>Node3&#45;&gt;Node6</title>
<path fill="none" stroke="midnightblue" d="M751.135,-179.083C745.963,-171.534 738.399,-160.495 732.05,-151.23"/>
<polygon fill="midnightblue" stroke="midnightblue" points="734.781,-149.022 726.241,-142.751 729.006,-152.979 734.781,-149.022"/>
</g>
<!-- Node7 -->
<g id="node8" class="node"><title>Node7</title>
<g id="a_node8"><a xlink:href="uptane_2exceptions_8h_source.html" target="_top" xlink:title="uptane/exceptions.h">
<polygon fill="white" stroke="black" points="107.245,-123.5 107.245,-142.5 211.245,-142.5 211.245,-123.5 107.245,-123.5"/>
<text text-anchor="middle" x="159.245" y="-130.5" font-family="Helvetica,sans-Serif" font-size="10.00">uptane/exceptions.h</text>
</a>
</g>
</g>
<!-- Node3&#45;&gt;Node7 -->
<g id="edge7" class="edge"><title>Node3&#45;&gt;Node7</title>
<path fill="none" stroke="midnightblue" d="M722.946,-184.903C625.665,-176.118 346.94,-150.949 221.612,-139.632"/>
<polygon fill="midnightblue" stroke="midnightblue" points="221.687,-136.124 211.413,-138.711 221.058,-143.096 221.687,-136.124"/>
</g>
<!-- Node10 -->
<g id="node11" class="node"><title>Node10</title>
<g id="a_node11"><a xlink:href="crypto_8h_source.html" target="_top" xlink:title="crypto/crypto.h">
<polygon fill="white" stroke="black" points="753.245,-123.5 753.245,-142.5 835.245,-142.5 835.245,-123.5 753.245,-123.5"/>
<text text-anchor="middle" x="794.245" y="-130.5" font-family="Helvetica,sans-Serif" font-size="10.00">crypto/crypto.h</text>
</a>
</g>
</g>
<!-- Node3&#45;&gt;Node10 -->
<g id="edge11" class="edge"><title>Node3&#45;&gt;Node10</title>
<path fill="none" stroke="midnightblue" d="M763.355,-179.083C768.527,-171.534 776.091,-160.495 782.439,-151.23"/>
<polygon fill="midnightblue" stroke="midnightblue" points="785.484,-152.979 788.249,-142.751 779.709,-149.022 785.484,-152.979"/>
</g>
<!-- Node7&#45;&gt;Node1 -->
<g id="edge9" class="edge"><title>Node7&#45;&gt;Node1</title>
<path fill="none" stroke="midnightblue" d="M151.572,-123.459C144.466,-114.927 134.391,-101.088 130.245,-87 126.355,-73.7828 126.355,-69.2172 130.245,-56 133.257,-45.7645 139.399,-35.6599 145.259,-27.627"/>
<polygon fill="midnightblue" stroke="midnightblue" points="148.176,-29.5773 151.572,-19.5413 142.659,-25.2694 148.176,-29.5773"/>
</g>
<!-- Node8 -->
<g id="node9" class="node"><title>Node8</title>
<polygon fill="white" stroke="#bfbfbf" points="23.7448,-62 23.7448,-81 82.7448,-81 82.7448,-62 23.7448,-62"/>
<text text-anchor="middle" x="53.2448" y="-69" font-family="Helvetica,sans-Serif" font-size="10.00">stdexcept</text>
</g>
<!-- Node7&#45;&gt;Node8 -->
<g id="edge8" class="edge"><title>Node7&#45;&gt;Node8</title>
<path fill="none" stroke="midnightblue" d="M144.058,-123.475C126.583,-113.666 97.6662,-97.4346 77.1616,-85.925"/>
<polygon fill="midnightblue" stroke="midnightblue" points="78.8372,-82.8519 68.4039,-81.0091 75.4108,-88.956 78.8372,-82.8519"/>
</g>
<!-- Node9 -->
<g id="node10" class="node"><title>Node9</title>
<polygon fill="white" stroke="#bfbfbf" points="139.245,-62 139.245,-81 179.245,-81 179.245,-62 139.245,-62"/>
<text text-anchor="middle" x="159.245" y="-69" font-family="Helvetica,sans-Serif" font-size="10.00">utility</text>
</g>
<!-- Node7&#45;&gt;Node9 -->
<g id="edge10" class="edge"><title>Node7&#45;&gt;Node9</title>
<path fill="none" stroke="midnightblue" d="M159.245,-123.475C159.245,-115.08 159.245,-101.981 159.245,-91.1631"/>
<polygon fill="midnightblue" stroke="midnightblue" points="162.745,-91.0091 159.245,-81.0091 155.745,-91.0091 162.745,-91.0091"/>
</g>
<!-- Node10&#45;&gt;Node1 -->
<g id="edge24" class="edge"><title>Node10&#45;&gt;Node1</title>
<path fill="none" stroke="midnightblue" d="M753.098,-124.228C750.108,-123.775 747.133,-123.359 744.245,-123 629.738,-108.758 329.7,-138.105 226.245,-87 200.431,-74.2483 180.236,-46.7319 169.028,-28.5454"/>
<polygon fill="midnightblue" stroke="midnightblue" points="171.83,-26.4049 163.747,-19.5547 165.794,-29.95 171.83,-26.4049"/>
</g>
<!-- Node10&#45;&gt;Node9 -->
<g id="edge25" class="edge"><title>Node10&#45;&gt;Node9</title>
<path fill="none" stroke="midnightblue" d="M753.1,-124.214C750.109,-123.765 747.134,-123.353 744.245,-123 500.648,-93.2149 431.957,-143.946 193.245,-87 190.732,-86.4007 188.17,-85.6313 185.634,-84.7603"/>
<polygon fill="midnightblue" stroke="midnightblue" points="186.745,-81.4363 176.157,-81.0413 184.188,-87.9525 186.745,-81.4363"/>
</g>
<!-- Node11 -->
<g id="node12" class="node"><title>Node11</title>
<polygon fill="white" stroke="#bfbfbf" points="235.245,-62 235.245,-81 325.245,-81 325.245,-62 235.245,-62"/>
<text text-anchor="middle" x="280.245" y="-69" font-family="Helvetica,sans-Serif" font-size="10.00">openssl/engine.h</text>
</g>
<!-- Node10&#45;&gt;Node11 -->
<g id="edge12" class="edge"><title>Node10&#45;&gt;Node11</title>
<path fill="none" stroke="midnightblue" d="M753.091,-124.288C750.102,-123.821 747.13,-123.386 744.245,-123 562.933,-98.7725 514.376,-118.84 334.245,-87 329.061,-86.0836 323.649,-84.9047 318.34,-83.6157"/>
<polygon fill="midnightblue" stroke="midnightblue" points="318.899,-80.1454 308.342,-81.0411 317.153,-86.9243 318.899,-80.1454"/>
</g>
<!-- Node12 -->
<g id="node13" class="node"><title>Node12</title>
<polygon fill="white" stroke="#bfbfbf" points="343.745,-62 343.745,-81 416.745,-81 416.745,-62 343.745,-62"/>
<text text-anchor="middle" x="380.245" y="-69" font-family="Helvetica,sans-Serif" font-size="10.00">openssl/err.h</text>
</g>
<!-- Node10&#45;&gt;Node12 -->
<g id="edge13" class="edge"><title>Node10&#45;&gt;Node12</title>
<path fill="none" stroke="midnightblue" d="M753.079,-124.369C750.093,-123.883 747.125,-123.421 744.245,-123 603.069,-102.351 564.727,-117.028 425.245,-87 421.383,-86.1686 417.383,-85.1374 413.433,-84.0109"/>
<polygon fill="midnightblue" stroke="midnightblue" points="414.412,-80.6502 403.825,-81.0737 412.365,-87.3444 414.412,-80.6502"/>
</g>
<!-- Node13 -->
<g id="node14" class="node"><title>Node13</title>
<polygon fill="white" stroke="#bfbfbf" points="434.745,-62 434.745,-81 511.745,-81 511.745,-62 434.745,-62"/>
<text text-anchor="middle" x="473.245" y="-69" font-family="Helvetica,sans-Serif" font-size="10.00">openssl/evp.h</text>
</g>
<!-- Node10&#45;&gt;Node13 -->
<g id="edge14" class="edge"><title>Node10&#45;&gt;Node13</title>
<path fill="none" stroke="midnightblue" d="M753.055,-124.523C750.075,-124.001 747.114,-123.489 744.245,-123 644.844,-106.068 618.439,-109.919 520.245,-87 516.425,-86.1084 512.462,-85.0699 508.532,-83.9659"/>
<polygon fill="midnightblue" stroke="midnightblue" points="509.507,-80.6045 498.925,-81.1331 507.527,-87.3187 509.507,-80.6045"/>
</g>
<!-- Node14 -->
<g id="node15" class="node"><title>Node14</title>
<polygon fill="white" stroke="#bfbfbf" points="529.745,-62 529.745,-81 630.745,-81 630.745,-62 529.745,-62"/>
<text text-anchor="middle" x="580.245" y="-69" font-family="Helvetica,sans-Serif" font-size="10.00">openssl/opensslv.h</text>
</g>
<!-- Node10&#45;&gt;Node14 -->
<g id="edge15" class="edge"><title>Node10&#45;&gt;Node14</title>
<path fill="none" stroke="midnightblue" d="M763.584,-123.475C726.001,-113.026 662.201,-95.2868 620.647,-83.7332"/>
<polygon fill="midnightblue" stroke="midnightblue" points="621.421,-80.3158 610.849,-81.0091 619.546,-87.06 621.421,-80.3158"/>
</g>
<!-- Node15 -->
<g id="node16" class="node"><title>Node15</title>
<polygon fill="white" stroke="#bfbfbf" points="649.245,-62 649.245,-81 729.245,-81 729.245,-62 649.245,-62"/>
<text text-anchor="middle" x="689.245" y="-69" font-family="Helvetica,sans-Serif" font-size="10.00">openssl/pem.h</text>
</g>
<!-- Node10&#45;&gt;Node15 -->
<g id="edge16" class="edge"><title>Node10&#45;&gt;Node15</title>
<path fill="none" stroke="midnightblue" d="M779.201,-123.475C761.969,-113.711 733.505,-97.5807 713.211,-86.0808"/>
<polygon fill="midnightblue" stroke="midnightblue" points="714.687,-82.8942 704.261,-81.0091 711.236,-88.9843 714.687,-82.8942"/>
</g>
<!-- Node16 -->
<g id="node17" class="node"><title>Node16</title>
<polygon fill="white" stroke="#bfbfbf" points="747.745,-62 747.745,-81 840.745,-81 840.745,-62 747.745,-62"/>
<text text-anchor="middle" x="794.245" y="-69" font-family="Helvetica,sans-Serif" font-size="10.00">openssl/pkcs12.h</text>
</g>
<!-- Node10&#45;&gt;Node16 -->
<g id="edge17" class="edge"><title>Node10&#45;&gt;Node16</title>
<path fill="none" stroke="midnightblue" d="M794.245,-123.475C794.245,-115.08 794.245,-101.981 794.245,-91.1631"/>
<polygon fill="midnightblue" stroke="midnightblue" points="797.745,-91.0091 794.245,-81.0091 790.745,-91.0091 797.745,-91.0091"/>
</g>
<!-- Node17 -->
<g id="node18" class="node"><title>Node17</title>
<polygon fill="white" stroke="#bfbfbf" points="859.245,-62 859.245,-81 939.245,-81 939.245,-62 859.245,-62"/>
<text text-anchor="middle" x="899.245" y="-69" font-family="Helvetica,sans-Serif" font-size="10.00">openssl/rand.h</text>
</g>
<!-- Node10&#45;&gt;Node17 -->
<g id="edge18" class="edge"><title>Node10&#45;&gt;Node17</title>
<path fill="none" stroke="midnightblue" d="M809.289,-123.475C826.52,-113.711 854.985,-97.5807 875.279,-86.0808"/>
<polygon fill="midnightblue" stroke="midnightblue" points="877.254,-88.9843 884.229,-81.0091 873.803,-82.8942 877.254,-88.9843"/>
</g>
<!-- Node18 -->
<g id="node19" class="node"><title>Node18</title>
<polygon fill="white" stroke="#bfbfbf" points="1052.74,-62 1052.74,-81 1127.74,-81 1127.74,-62 1052.74,-62"/>
<text text-anchor="middle" x="1090.24" y="-69" font-family="Helvetica,sans-Serif" font-size="10.00">openssl/rsa.h</text>
</g>
<!-- Node10&#45;&gt;Node18 -->
<g id="edge19" class="edge"><title>Node10&#45;&gt;Node18</title>
<path fill="none" stroke="midnightblue" d="M835.41,-124.593C905.493,-111.978 1040.72,-87.6159 1043.24,-87 1047.06,-86.0713 1051.01,-85.009 1054.94,-83.8909"/>
<polygon fill="midnightblue" stroke="midnightblue" points="1055.95,-87.2417 1064.54,-81.0413 1053.96,-80.531 1055.95,-87.2417"/>
</g>
<!-- Node19 -->
<g id="node20" class="node"><title>Node19</title>
<polygon fill="white" stroke="#bfbfbf" points="1145.24,-62 1145.24,-81 1201.24,-81 1201.24,-62 1145.24,-62"/>
<text text-anchor="middle" x="1173.24" y="-69" font-family="Helvetica,sans-Serif" font-size="10.00">sodium.h</text>
</g>
<!-- Node10&#45;&gt;Node19 -->
<g id="edge20" class="edge"><title>Node10&#45;&gt;Node19</title>
<path fill="none" stroke="midnightblue" d="M835.416,-124.403C838.4,-123.909 841.367,-123.436 844.245,-123 973.529,-103.41 1009.49,-119.108 1136.24,-87 1138.91,-86.3245 1141.65,-85.5076 1144.36,-84.6098"/>
<polygon fill="midnightblue" stroke="midnightblue" points="1145.76,-87.8243 1153.96,-81.1117 1143.37,-81.2474 1145.76,-87.8243"/>
</g>
<!-- Node20 -->
<g id="node21" class="node"><title>Node20</title>
<polygon fill="white" stroke="#bfbfbf" points="1219.74,-62 1219.74,-81 1340.74,-81 1340.74,-62 1219.74,-62"/>
<text text-anchor="middle" x="1280.24" y="-69" font-family="Helvetica,sans-Serif" font-size="10.00">boost/algorithm/hex.hpp</text>
</g>
<!-- Node10&#45;&gt;Node20 -->
<g id="edge21" class="edge"><title>Node10&#45;&gt;Node20</title>
<path fill="none" stroke="midnightblue" d="M835.404,-124.322C838.391,-123.847 841.362,-123.401 844.245,-123 1006.14,-100.504 1048.66,-111.612 1210.24,-87 1217.5,-85.8951 1225.14,-84.5271 1232.59,-83.0765"/>
<polygon fill="midnightblue" stroke="midnightblue" points="1233.48,-86.4678 1242.6,-81.0642 1232.1,-79.6053 1233.48,-86.4678"/>
</g>
<!-- Node21 -->
<g id="node22" class="node"><title>Node21</title>
<polygon fill="white" stroke="#bfbfbf" points="1358.74,-62 1358.74,-81 1487.74,-81 1487.74,-62 1358.74,-62"/>
<text text-anchor="middle" x="1423.24" y="-69" font-family="Helvetica,sans-Serif" font-size="10.00">boost/algorithm/string.hpp</text>
</g>
<!-- Node10&#45;&gt;Node21 -->
<g id="edge22" class="edge"><title>Node10&#45;&gt;Node21</title>
<path fill="none" stroke="midnightblue" d="M835.392,-124.234C838.382,-123.78 841.357,-123.362 844.245,-123 1067.51,-95.0291 1126.2,-116.689 1349.24,-87 1357.36,-85.9193 1365.93,-84.5008 1374.25,-82.9742"/>
<polygon fill="midnightblue" stroke="midnightblue" points="1375.05,-86.3844 1384.22,-81.0739 1373.74,-79.5082 1375.05,-86.3844"/>
</g>
<!-- Node22 -->
<g id="node23" class="node"><title>Node22</title>
<polygon fill="white" stroke="#bfbfbf" points="1506.24,-56.5 1506.24,-86.5 1616.24,-86.5 1616.24,-56.5 1506.24,-56.5"/>
<text text-anchor="start" x="1514.24" y="-74.5" font-family="Helvetica,sans-Serif" font-size="10.00">boost/algorithm/string</text>
<text text-anchor="middle" x="1561.24" y="-63.5" font-family="Helvetica,sans-Serif" font-size="10.00">/case_conv.hpp</text>
</g>
<!-- Node10&#45;&gt;Node22 -->
<g id="edge23" class="edge"><title>Node10&#45;&gt;Node22</title>
<path fill="none" stroke="midnightblue" d="M835.386,-124.181C838.378,-123.74 841.354,-123.339 844.245,-123 1129.26,-89.6089 1207.02,-125.895 1496.11,-86.8237"/>
<polygon fill="midnightblue" stroke="midnightblue" points="1496.61,-90.2879 1506.04,-85.463 1495.66,-83.3527 1496.61,-90.2879"/>
</g>
<!-- Node10&#45;&gt;Node23 -->
<g id="edge26" class="edge"><title>Node10&#45;&gt;Node23</title>
<path fill="none" stroke="midnightblue" d="M835.382,-124.151C838.375,-123.717 841.352,-123.326 844.245,-123 1189.54,-84.1368 1282.29,-142.886 1625.24,-87 1630.34,-86.17 1635.65,-85.0082 1640.83,-83.6996"/>
<polygon fill="midnightblue" stroke="midnightblue" points="1641.83,-87.0547 1650.56,-81.051 1639.99,-80.3005 1641.83,-87.0547"/>
</g>
<!-- Node25 -->
<g id="node26" class="node"><title>Node25</title>
<g id="a_node26"><a xlink:href="utils_8h_source.html" target="_top" xlink:title="utilities/utils.h">
<polygon fill="white" stroke="black" points="957.745,-62 957.745,-81 1034.74,-81 1034.74,-62 957.745,-62"/>
<text text-anchor="middle" x="996.245" y="-69" font-family="Helvetica,sans-Serif" font-size="10.00">utilities/utils.h</text>
</a>
</g>
</g>
<!-- Node10&#45;&gt;Node25 -->
<g id="edge29" class="edge"><title>Node10&#45;&gt;Node25</title>
<path fill="none" stroke="midnightblue" d="M823.791,-123.453C854.81,-114.459 904.99,-99.8526 948.245,-87 951.558,-86.0156 954.998,-84.9877 958.446,-83.9536"/>
<polygon fill="midnightblue" stroke="midnightblue" points="959.517,-87.2863 968.084,-81.0534 957.5,-80.5832 959.517,-87.2863"/>
</g>
<!-- Node23&#45;&gt;Node2 -->
<g id="edge27" class="edge"><title>Node23&#45;&gt;Node2</title>
<path fill="none" stroke="midnightblue" d="M1676.24,-61.9751C1676.24,-53.5803 1676.24,-40.4806 1676.24,-29.6631"/>
<polygon fill="midnightblue" stroke="midnightblue" points="1679.74,-29.5091 1676.24,-19.5091 1672.74,-29.5091 1679.74,-29.5091"/>
</g>
<!-- Node24 -->
<g id="node25" class="node"><title>Node24</title>
<polygon fill="white" stroke="#bfbfbf" points="1312.74,-0.5 1312.74,-19.5 1419.74,-19.5 1419.74,-0.5 1312.74,-0.5"/>
<text text-anchor="middle" x="1366.24" y="-7.5" font-family="Helvetica,sans-Serif" font-size="10.00">boost/filesystem.hpp</text>
</g>
<!-- Node23&#45;&gt;Node24 -->
<g id="edge28" class="edge"><title>Node23&#45;&gt;Node24</title>
<path fill="none" stroke="midnightblue" d="M1648.32,-61.9903C1640.87,-59.8744 1632.78,-57.7215 1625.24,-56 1559.34,-40.9493 1482.99,-28.25 1430.35,-20.2198"/>
<polygon fill="midnightblue" stroke="midnightblue" points="1430.56,-16.7117 1420.14,-18.6767 1429.51,-23.6329 1430.56,-16.7117"/>
</g>
<!-- Node25&#45;&gt;Node1 -->
<g id="edge33" class="edge"><title>Node25&#45;&gt;Node1</title>
<path fill="none" stroke="midnightblue" d="M972.096,-61.9905C964.548,-59.661 956.131,-57.3957 948.245,-56 798.59,-29.5136 317.06,-15.1685 190.145,-11.7867"/>
<polygon fill="midnightblue" stroke="midnightblue" points="190.057,-8.28332 179.969,-11.519 189.873,-15.2809 190.057,-8.28332"/>
</g>
<!-- Node25&#45;&gt;Node2 -->
<g id="edge35" class="edge"><title>Node25&#45;&gt;Node2</title>
<path fill="none" stroke="midnightblue" d="M1020.37,-61.9006C1027.64,-59.6266 1035.69,-57.4145 1043.24,-56 1157.15,-34.671 1511.3,-18.0088 1633.94,-12.7465"/>
<polygon fill="midnightblue" stroke="midnightblue" points="1634.22,-16.2379 1644.06,-12.3156 1633.92,-9.24426 1634.22,-16.2379"/>
</g>
<!-- Node25&#45;&gt;Node24 -->
<g id="edge31" class="edge"><title>Node25&#45;&gt;Node24</title>
<path fill="none" stroke="midnightblue" d="M1021.41,-61.9188C1028.42,-59.7538 1036.08,-57.5943 1043.24,-56 1132.17,-36.224 1236.9,-23.5311 1302.45,-16.8295"/>
<polygon fill="midnightblue" stroke="midnightblue" points="1303.02,-20.2893 1312.62,-15.8052 1302.32,-13.3245 1303.02,-20.2893"/>
</g>
<!-- Node26 -->
<g id="node27" class="node"><title>Node26</title>
<polygon fill="white" stroke="#bfbfbf" points="974.745,-0.5 974.745,-19.5 1017.74,-19.5 1017.74,-0.5 974.745,-0.5"/>
<text text-anchor="middle" x="996.245" y="-7.5" font-family="Helvetica,sans-Serif" font-size="10.00">glob.h</text>
</g>
<!-- Node25&#45;&gt;Node26 -->
<g id="edge30" class="edge"><title>Node25&#45;&gt;Node26</title>
<path fill="none" stroke="midnightblue" d="M996.245,-61.9751C996.245,-53.5803 996.245,-40.4806 996.245,-29.6631"/>
<polygon fill="midnightblue" stroke="midnightblue" points="999.745,-29.5091 996.245,-19.5091 992.745,-29.5091 999.745,-29.5091"/>
</g>
<!-- Node27 -->
<g id="node28" class="node"><title>Node27</title>
<polygon fill="white" stroke="#bfbfbf" points="1036.24,-0.5 1036.24,-19.5 1088.24,-19.5 1088.24,-0.5 1036.24,-0.5"/>
<text text-anchor="middle" x="1062.24" y="-7.5" font-family="Helvetica,sans-Serif" font-size="10.00">memory</text>
</g>
<!-- Node25&#45;&gt;Node27 -->
<g id="edge32" class="edge"><title>Node25&#45;&gt;Node27</title>
<path fill="none" stroke="midnightblue" d="M1005.7,-61.9751C1015.99,-52.6966 1032.66,-37.6706 1045.24,-26.331"/>
<polygon fill="midnightblue" stroke="midnightblue" points="1047.72,-28.8046 1052.81,-19.5091 1043.04,-23.6054 1047.72,-28.8046"/>
</g>
<!-- Node28 -->
<g id="node29" class="node"><title>Node28</title>
<polygon fill="white" stroke="#bfbfbf" points="891.745,-0.5 891.745,-19.5 956.745,-19.5 956.745,-0.5 891.745,-0.5"/>
<text text-anchor="middle" x="924.245" y="-7.5" font-family="Helvetica,sans-Serif" font-size="10.00">netinet/in.h</text>
</g>
<!-- Node25&#45;&gt;Node28 -->
<g id="edge34" class="edge"><title>Node25&#45;&gt;Node28</title>
<path fill="none" stroke="midnightblue" d="M985.929,-61.9751C974.594,-52.6082 956.172,-37.3839 942.406,-26.0081"/>
<polygon fill="midnightblue" stroke="midnightblue" points="944.48,-23.1813 934.542,-19.5091 940.02,-28.5773 944.48,-23.1813"/>
</g>
<!-- Node30 -->
<g id="node31" class="node"><title>Node30</title>
<polygon fill="white" stroke="#bfbfbf" points="1774.74,-123.5 1774.74,-142.5 1869.74,-142.5 1869.74,-123.5 1774.74,-123.5"/>
<text text-anchor="middle" x="1822.24" y="-130.5" font-family="Helvetica,sans-Serif" font-size="10.00">condition_variable</text>
</g>
<!-- Node29&#45;&gt;Node30 -->
<g id="edge37" class="edge"><title>Node29&#45;&gt;Node30</title>
<path fill="none" stroke="midnightblue" d="M1896.11,-179.324C1882.38,-170.9 1861.31,-157.971 1845.18,-148.074"/>
<polygon fill="midnightblue" stroke="midnightblue" points="1846.7,-144.902 1836.35,-142.655 1843.04,-150.868 1846.7,-144.902"/>
</g>
<!-- Node31 -->
<g id="node32" class="node"><title>Node31</title>
<polygon fill="white" stroke="#bfbfbf" points="1888.24,-123.5 1888.24,-142.5 1932.24,-142.5 1932.24,-123.5 1888.24,-123.5"/>
<text text-anchor="middle" x="1910.24" y="-130.5" font-family="Helvetica,sans-Serif" font-size="10.00">mutex</text>
</g>
<!-- Node29&#45;&gt;Node31 -->
<g id="edge38" class="edge"><title>Node29&#45;&gt;Node31</title>
<path fill="none" stroke="midnightblue" d="M1910.24,-179.083C1910.24,-172.006 1910.24,-161.861 1910.24,-152.986"/>
<polygon fill="midnightblue" stroke="midnightblue" points="1913.74,-152.751 1910.24,-142.751 1906.74,-152.751 1913.74,-152.751"/>
</g>
<!-- Node32 -->
<g id="node33" class="node"><title>Node32</title>
<polygon fill="white" stroke="#bfbfbf" points="1950.74,-123.5 1950.74,-142.5 1993.74,-142.5 1993.74,-123.5 1950.74,-123.5"/>
<text text-anchor="middle" x="1972.24" y="-130.5" font-family="Helvetica,sans-Serif" font-size="10.00">queue</text>
</g>
<!-- Node29&#45;&gt;Node32 -->
<g id="edge39" class="edge"><title>Node29&#45;&gt;Node32</title>
<path fill="none" stroke="midnightblue" d="M1920.21,-179.324C1929.37,-171.341 1943.18,-159.313 1954.27,-149.653"/>
<polygon fill="midnightblue" stroke="midnightblue" points="1956.86,-152.041 1962.1,-142.834 1952.26,-146.762 1956.86,-152.041"/>
</g>
<!-- Node33 -->
<g id="node34" class="node"><title>Node33</title>
<polygon fill="white" stroke="#bfbfbf" points="2012.24,-123.5 2012.24,-142.5 2056.24,-142.5 2056.24,-123.5 2012.24,-123.5"/>
<text text-anchor="middle" x="2034.24" y="-130.5" font-family="Helvetica,sans-Serif" font-size="10.00">thread</text>
</g>
<!-- Node29&#45;&gt;Node33 -->
<g id="edge40" class="edge"><title>Node29&#45;&gt;Node33</title>
<path fill="none" stroke="midnightblue" d="M1929.89,-179.444C1950.21,-170.596 1982.15,-156.687 2005.34,-146.586"/>
<polygon fill="midnightblue" stroke="midnightblue" points="2006.92,-149.718 2014.69,-142.516 2004.12,-143.3 2006.92,-149.718"/>
</g>
</g>
</svg>
