<?xml version="1.0" encoding="UTF-8" standalone="no"?>
<!DOCTYPE svg PUBLIC "-//W3C//DTD SVG 1.1//EN"
 "http://www.w3.org/Graphics/SVG/1.1/DTD/svg11.dtd">
<!-- Generated by graphviz version 2.38.0 (20140413.2041)
 -->
<!-- Title: src/libaktualizr/primary/commands.h Pages: 1 -->
<!--zoomable 173 -->
<svg id="main" version="1.1" xmlns="http://www.w3.org/2000/svg" xmlns:xlink="http://www.w3.org/1999/xlink" xml:space="preserve" onload="init(evt)">
<style type="text/css"><![CDATA[
.edge:hover path { stroke: red; }
.edge:hover polygon { stroke: red; fill: red; }
]]></style>
<script type="text/javascript"><![CDATA[
var edges = document.getElementsByTagName('g');
if (edges && edges.length) {
  for (var i=0;i<edges.length;i++) {
    if (edges[i].id.substr(0,4)=='edge') {
      edges[i].setAttribute('class','edge');
    }
  }
}
]]></script>
        <defs>
                <circle id="rim" cx="0" cy="0" r="7"/>
                <circle id="rim2" cx="0" cy="0" r="3.5"/>
                <g id="zoomPlus">
                        <use xlink:href="#rim" fill="#404040">
                                <set attributeName="fill" to="#808080" begin="zoomplus.mouseover" end="zoomplus.mouseout"/>
                        </use>
                        <path d="M-4,0h8M0,-4v8" fill="none" stroke="white" stroke-width="1.5" pointer-events="none"/>
                </g>
                <g id="zoomMin">
                        <use xlink:href="#rim" fill="#404040">
                                <set attributeName="fill" to="#808080" begin="zoomminus.mouseover" end="zoomminus.mouseout"/>
                        </use>
                        <path d="M-4,0h8" fill="none" stroke="white" stroke-width="1.5" pointer-events="none"/>
                </g>
                <g id="dirArrow">
                        <path fill="none" stroke="white" stroke-width="1.5" d="M0,-3.0v7 M-2.5,-0.5L0,-3.0L2.5,-0.5"/>
                </g>
               <g id="resetDef">
                       <use xlink:href="#rim2" fill="#404040">
                               <set attributeName="fill" to="#808080" begin="reset.mouseover" end="reset.mouseout"/>
                       </use>
               </g>
        </defs>

<script type="text/javascript">
var viewWidth = 2136;
var viewHeight = 173;
var sectionId = 'dynsection-1';
</script>
<script xlink:href="svgpan.js"/>
<svg id="graph" class="graph">
<g id="viewport">
<title>src/libaktualizr/primary/commands.h</title>
<polygon fill="white" stroke="none" points="-4,4 -4,-169 2132,-169 2132,4 -4,4"/>
<!-- Node34 -->
<g id="node1" class="node"><title>Node34</title>
<polygon fill="#bfbfbf" stroke="black" points="929,-134.5 929,-164.5 1044,-164.5 1044,-134.5 929,-134.5"/>
<text text-anchor="start" x="937" y="-152.5" font-family="Helvetica,sans-Serif" font-size="10.00">src/libaktualizr/primary</text>
<text text-anchor="middle" x="986.5" y="-141.5" font-family="Helvetica,sans-Serif" font-size="10.00">/commands.h</text>
</g>
<!-- Node35 -->
<g id="node2" class="node"><title>Node35</title>
<g id="a_node2"><a xlink:href="aktualizr_8h_source.html" target="_top" xlink:title="src/libaktualizr/primary\l/aktualizr.h">
<polygon fill="white" stroke="black" points="189,-67.5 189,-97.5 304,-97.5 304,-67.5 189,-67.5"/>
<text text-anchor="start" x="197" y="-85.5" font-family="Helvetica,sans-Serif" font-size="10.00">src/libaktualizr/primary</text>
<text text-anchor="middle" x="246.5" y="-74.5" font-family="Helvetica,sans-Serif" font-size="10.00">/aktualizr.h</text>
</a>
</g>
</g>
<!-- Node34&#45;&gt;Node35 -->
<g id="edge1" class="edge"><title>Node34&#45;&gt;Node35</title>
<path fill="none" stroke="midnightblue" d="M918.505,-142.71C809.866,-133.435 590.439,-114.599 404.5,-98 371.302,-95.0364 334.188,-91.6349 304.277,-88.8716"/>
<polygon fill="midnightblue" stroke="midnightblue" points="918.406,-146.214 928.667,-143.578 919.001,-139.24 918.406,-146.214"/>
</g>
<!-- Node39 -->
<g id="node6" class="node"><title>Node39</title>
<g id="a_node6"><a xlink:href="eventsinterpreter_8h_source.html" target="_top" xlink:title="src/libaktualizr/primary\l/eventsinterpreter.h">
<polygon fill="white" stroke="black" points="414,-67.5 414,-97.5 529,-97.5 529,-67.5 414,-67.5"/>
<text text-anchor="start" x="422" y="-85.5" font-family="Helvetica,sans-Serif" font-size="10.00">src/libaktualizr/primary</text>
<text text-anchor="middle" x="471.5" y="-74.5" font-family="Helvetica,sans-Serif" font-size="10.00">/eventsinterpreter.h</text>
</a>
</g>
</g>
<!-- Node34&#45;&gt;Node39 -->
<g id="edge5" class="edge"><title>Node34&#45;&gt;Node39</title>
<path fill="none" stroke="midnightblue" d="M918.721,-139.945C816.561,-127.051 624.911,-102.863 529.101,-90.77"/>
<polygon fill="midnightblue" stroke="midnightblue" points="918.562,-143.453 928.922,-141.233 919.439,-136.508 918.562,-143.453"/>
</g>
<!-- Node41 -->
<g id="node8" class="node"><title>Node41</title>
<g id="a_node8"><a xlink:href="eventsinterpreter__test_8cc_source.html" target="_top" xlink:title="src/libaktualizr/primary\l/eventsinterpreter_test.cc">
<polygon fill="white" stroke="black" points="520.5,-0.5 520.5,-30.5 648.5,-30.5 648.5,-0.5 520.5,-0.5"/>
<text text-anchor="start" x="528.5" y="-18.5" font-family="Helvetica,sans-Serif" font-size="10.00">src/libaktualizr/primary</text>
<text text-anchor="middle" x="584.5" y="-7.5" font-family="Helvetica,sans-Serif" font-size="10.00">/eventsinterpreter_test.cc</text>
</a>
</g>
</g>
<!-- Node34&#45;&gt;Node41 -->
<g id="edge24" class="edge"><title>Node34&#45;&gt;Node41</title>
<path fill="none" stroke="midnightblue" d="M933.945,-131.243C853.519,-104.834 701.451,-54.9017 627.308,-30.5565"/>
<polygon fill="midnightblue" stroke="midnightblue" points="933.267,-134.704 943.86,-134.499 935.451,-128.054 933.267,-134.704"/>
</g>
<!-- Node42 -->
<g id="node9" class="node"><title>Node42</title>
<g id="a_node9"><a xlink:href="sotauptaneclient_8h_source.html" target="_top" xlink:title="src/libaktualizr/primary\l/sotauptaneclient.h">
<polygon fill="white" stroke="black" points="1064,-67.5 1064,-97.5 1179,-97.5 1179,-67.5 1064,-67.5"/>
<text text-anchor="start" x="1072" y="-85.5" font-family="Helvetica,sans-Serif" font-size="10.00">src/libaktualizr/primary</text>
<text text-anchor="middle" x="1121.5" y="-74.5" font-family="Helvetica,sans-Serif" font-size="10.00">/sotauptaneclient.h</text>
</a>
</g>
</g>
<!-- Node34&#45;&gt;Node42 -->
<g id="edge9" class="edge"><title>Node34&#45;&gt;Node42</title>
<path fill="none" stroke="midnightblue" d="M1024.94,-129.992C1046.34,-119.689 1072.55,-107.068 1092.26,-97.5765"/>
<polygon fill="midnightblue" stroke="midnightblue" points="1023.28,-126.904 1015.79,-134.396 1026.32,-133.211 1023.28,-126.904"/>
</g>
<!-- Node54 -->
<g id="node21" class="node"><title>Node54</title>
<g id="a_node21"><a xlink:href="commands_8cc_source.html" target="_top" xlink:title="src/libaktualizr/primary\l/commands.cc">
<polygon fill="white" stroke="black" points="1197,-67.5 1197,-97.5 1312,-97.5 1312,-67.5 1197,-67.5"/>
<text text-anchor="start" x="1205" y="-85.5" font-family="Helvetica,sans-Serif" font-size="10.00">src/libaktualizr/primary</text>
<text text-anchor="middle" x="1254.5" y="-74.5" font-family="Helvetica,sans-Serif" font-size="10.00">/commands.cc</text>
</a>
</g>
</g>
<!-- Node34&#45;&gt;Node54 -->
<g id="edge22" class="edge"><title>Node34&#45;&gt;Node54</title>
<path fill="none" stroke="midnightblue" d="M1054.08,-132.11C1098.09,-121.436 1154.89,-107.659 1196.78,-97.4989"/>
<polygon fill="midnightblue" stroke="midnightblue" points="1053.22,-128.717 1044.32,-134.476 1054.87,-135.52 1053.22,-128.717"/>
</g>
<!-- Node55 -->
<g id="node22" class="node"><title>Node55</title>
<g id="a_node22"><a xlink:href="commands__test_8cc_source.html" target="_top" xlink:title="src/libaktualizr/primary\l/commands_test.cc">
<polygon fill="white" stroke="black" points="1330,-67.5 1330,-97.5 1445,-97.5 1445,-67.5 1330,-67.5"/>
<text text-anchor="start" x="1338" y="-85.5" font-family="Helvetica,sans-Serif" font-size="10.00">src/libaktualizr/primary</text>
<text text-anchor="middle" x="1387.5" y="-74.5" font-family="Helvetica,sans-Serif" font-size="10.00">/commands_test.cc</text>
</a>
</g>
</g>
<!-- Node34&#45;&gt;Node55 -->
<g id="edge23" class="edge"><title>Node34&#45;&gt;Node55</title>
<path fill="none" stroke="midnightblue" d="M1054.32,-139.627C1122.15,-130.436 1229.36,-115.047 1321.5,-98 1324.27,-97.4878 1327.1,-96.9442 1329.95,-96.3795"/>
<polygon fill="midnightblue" stroke="midnightblue" points="1053.64,-136.188 1044.19,-140.993 1054.57,-143.125 1053.64,-136.188"/>
</g>
<!-- Node36 -->
<g id="node3" class="node"><title>Node36</title>
<g id="a_node3"><a xlink:href="aktualizr__primary_2main_8cc_source.html" target="_top" xlink:title="src/aktualizr_primary\l/main.cc">
<polygon fill="white" stroke="black" points="0,-0.5 0,-30.5 107,-30.5 107,-0.5 0,-0.5"/>
<text text-anchor="start" x="8" y="-18.5" font-family="Helvetica,sans-Serif" font-size="10.00">src/aktualizr_primary</text>
<text text-anchor="middle" x="53.5" y="-7.5" font-family="Helvetica,sans-Serif" font-size="10.00">/main.cc</text>
</a>
</g>
</g>
<!-- Node35&#45;&gt;Node36 -->
<g id="edge2" class="edge"><title>Node35&#45;&gt;Node36</title>
<path fill="none" stroke="midnightblue" d="M194.811,-64.0917C163.655,-53.5988 124.489,-40.4082 95.2964,-30.5765"/>
<polygon fill="midnightblue" stroke="midnightblue" points="194.028,-67.5211 204.622,-67.396 196.262,-60.8872 194.028,-67.5211"/>
</g>
<!-- Node37 -->
<g id="node4" class="node"><title>Node37</title>
<g id="a_node4"><a xlink:href="hmi__stub_2main_8cc_source.html" target="_top" xlink:title="src/hmi_stub/main.cc">
<polygon fill="white" stroke="black" points="125.5,-6 125.5,-25 235.5,-25 235.5,-6 125.5,-6"/>
<text text-anchor="middle" x="180.5" y="-13" font-family="Helvetica,sans-Serif" font-size="10.00">src/hmi_stub/main.cc</text>
</a>
</g>
</g>
<!-- Node35&#45;&gt;Node37 -->
<g id="edge3" class="edge"><title>Node35&#45;&gt;Node37</title>
<path fill="none" stroke="midnightblue" d="M225.009,-60.335C212.892,-48.401 198.407,-34.1359 189.328,-25.1945"/>
<polygon fill="midnightblue" stroke="midnightblue" points="222.598,-62.8728 232.179,-67.396 227.51,-57.8853 222.598,-62.8728"/>
</g>
<!-- Node38 -->
<g id="node5" class="node"><title>Node38</title>
<g id="a_node5"><a xlink:href="aktualizr_8cc_source.html" target="_top" xlink:title="src/libaktualizr/primary\l/aktualizr.cc">
<polygon fill="white" stroke="black" points="254,-0.5 254,-30.5 369,-30.5 369,-0.5 254,-0.5"/>
<text text-anchor="start" x="262" y="-18.5" font-family="Helvetica,sans-Serif" font-size="10.00">src/libaktualizr/primary</text>
<text text-anchor="middle" x="311.5" y="-7.5" font-family="Helvetica,sans-Serif" font-size="10.00">/aktualizr.cc</text>
</a>
</g>
</g>
<!-- Node35&#45;&gt;Node38 -->
<g id="edge4" class="edge"><title>Node35&#45;&gt;Node38</title>
<path fill="none" stroke="midnightblue" d="M267.689,-60.3115C277.439,-50.5612 288.741,-39.259 297.423,-30.5765"/>
<polygon fill="midnightblue" stroke="midnightblue" points="265.2,-57.85 260.604,-67.396 270.15,-62.7998 265.2,-57.85"/>
</g>
<!-- Node39&#45;&gt;Node38 -->
<g id="edge6" class="edge"><title>Node39&#45;&gt;Node38</title>
<path fill="none" stroke="midnightblue" d="M427.301,-63.5442C401.698,-53.143 369.932,-40.238 346.15,-30.5765"/>
<polygon fill="midnightblue" stroke="midnightblue" points="426.2,-66.8748 436.782,-67.396 428.835,-60.3895 426.2,-66.8748"/>
</g>
<!-- Node40 -->
<g id="node7" class="node"><title>Node40</title>
<g id="a_node7"><a xlink:href="eventsinterpreter_8cc_source.html" target="_top" xlink:title="src/libaktualizr/primary\l/eventsinterpreter.cc">
<polygon fill="white" stroke="black" points="387,-0.5 387,-30.5 502,-30.5 502,-0.5 387,-0.5"/>
<text text-anchor="start" x="395" y="-18.5" font-family="Helvetica,sans-Serif" font-size="10.00">src/libaktualizr/primary</text>
<text text-anchor="middle" x="444.5" y="-7.5" font-family="Helvetica,sans-Serif" font-size="10.00">/eventsinterpreter.cc</text>
</a>
</g>
</g>
<!-- Node39&#45;&gt;Node40 -->
<g id="edge7" class="edge"><title>Node39&#45;&gt;Node40</title>
<path fill="none" stroke="midnightblue" d="M461.735,-57.9907C457.919,-48.8044 453.671,-38.5781 450.347,-30.5765"/>
<polygon fill="midnightblue" stroke="midnightblue" points="458.573,-59.5036 465.641,-67.396 465.038,-56.8184 458.573,-59.5036"/>
</g>
<!-- Node39&#45;&gt;Node41 -->
<g id="edge8" class="edge"><title>Node39&#45;&gt;Node41</title>
<path fill="none" stroke="midnightblue" d="M504.886,-62.2956C522.568,-52.1248 543.898,-39.8549 560.029,-30.5765"/>
<polygon fill="midnightblue" stroke="midnightblue" points="502.942,-59.3759 496.019,-67.396 506.433,-65.4437 502.942,-59.3759"/>
</g>
<!-- Node42&#45;&gt;Node38 -->
<g id="edge13" class="edge"><title>Node42&#45;&gt;Node38</title>
<path fill="none" stroke="midnightblue" d="M1053.49,-80.2568C922.183,-77.1121 624.879,-66.3701 377.5,-31 374.713,-30.6015 371.868,-30.1502 369.001,-29.6597"/>
<polygon fill="midnightblue" stroke="midnightblue" points="1053.71,-83.7627 1063.79,-80.4959 1053.87,-76.7646 1053.71,-83.7627"/>
</g>
<!-- Node43 -->
<g id="node10" class="node"><title>Node43</title>
<g id="a_node10"><a xlink:href="initializer__implicit__test_8cc_source.html" target="_top" xlink:title="tests/initializer_implicit\l_test.cc">
<polygon fill="white" stroke="black" points="1618.5,-0.5 1618.5,-30.5 1734.5,-30.5 1734.5,-0.5 1618.5,-0.5"/>
<text text-anchor="start" x="1626.5" y="-18.5" font-family="Helvetica,sans-Serif" font-size="10.00">tests/initializer_implicit</text>
<text text-anchor="middle" x="1676.5" y="-7.5" font-family="Helvetica,sans-Serif" font-size="10.00">_test.cc</text>
</a>
</g>
</g>
<!-- Node42&#45;&gt;Node43 -->
<g id="edge10" class="edge"><title>Node42&#45;&gt;Node43</title>
<path fill="none" stroke="midnightblue" d="M1189.31,-67.0244C1375.99,-39.7644 1427.06,-58.4274 1609.5,-31 1612.44,-30.5577 1615.45,-30.0635 1618.48,-29.5317"/>
<polygon fill="midnightblue" stroke="midnightblue" points="1188.53,-63.601 1179.16,-68.5323 1189.56,-70.5251 1188.53,-63.601"/>
</g>
<!-- Node44 -->
<g id="node11" class="node"><title>Node44</title>
<g id="a_node11"><a xlink:href="uptane__vector__tests_8cc_source.html" target="_top" xlink:title="tests/uptane_vector\l_tests.cc">
<polygon fill="white" stroke="black" points="1753,-0.5 1753,-30.5 1856,-30.5 1856,-0.5 1753,-0.5"/>
<text text-anchor="start" x="1761" y="-18.5" font-family="Helvetica,sans-Serif" font-size="10.00">tests/uptane_vector</text>
<text text-anchor="middle" x="1804.5" y="-7.5" font-family="Helvetica,sans-Serif" font-size="10.00">_tests.cc</text>
</a>
</g>
</g>
<!-- Node42&#45;&gt;Node44 -->
<g id="edge11" class="edge"><title>Node42&#45;&gt;Node44</title>
<path fill="none" stroke="midnightblue" d="M1189.1,-67.081C1435.07,-33.6725 1502.28,-67.2285 1743.5,-31 1746.51,-30.5473 1749.6,-30.0202 1752.7,-29.4403"/>
<polygon fill="midnightblue" stroke="midnightblue" points="1188.57,-63.6206 1179.15,-68.4562 1189.53,-70.5547 1188.57,-63.6206"/>
</g>
<!-- Node45 -->
<g id="node12" class="node"><title>Node45</title>
<g id="a_node12"><a xlink:href="aktualizr__secondary_2uptane__test_8cc_source.html" target="_top" xlink:title="src/aktualizr_secondary\l/uptane_test.cc">
<polygon fill="white" stroke="black" points="1874.5,-0.5 1874.5,-30.5 1994.5,-30.5 1994.5,-0.5 1874.5,-0.5"/>
<text text-anchor="start" x="1882.5" y="-18.5" font-family="Helvetica,sans-Serif" font-size="10.00">src/aktualizr_secondary</text>
<text text-anchor="middle" x="1934.5" y="-7.5" font-family="Helvetica,sans-Serif" font-size="10.00">/uptane_test.cc</text>
</a>
</g>
</g>
<!-- Node42&#45;&gt;Node45 -->
<g id="edge12" class="edge"><title>Node42&#45;&gt;Node45</title>
<path fill="none" stroke="midnightblue" d="M1189.43,-67.0496C1488.96,-27.9625 1570.09,-69.6598 1865.5,-31 1868.41,-30.6188 1871.39,-30.1816 1874.38,-29.7023"/>
<polygon fill="midnightblue" stroke="midnightblue" points="1188.59,-63.6299 1179.14,-68.4129 1189.51,-70.5692 1188.59,-63.6299"/>
</g>
<!-- Node46 -->
<g id="node13" class="node"><title>Node46</title>
<g id="a_node13"><a xlink:href="sotauptaneclient_8cc_source.html" target="_top" xlink:title="src/libaktualizr/primary\l/sotauptaneclient.cc">
<polygon fill="white" stroke="black" points="2013,-0.5 2013,-30.5 2128,-30.5 2128,-0.5 2013,-0.5"/>
<text text-anchor="start" x="2021" y="-18.5" font-family="Helvetica,sans-Serif" font-size="10.00">src/libaktualizr/primary</text>
<text text-anchor="middle" x="2070.5" y="-7.5" font-family="Helvetica,sans-Serif" font-size="10.00">/sotauptaneclient.cc</text>
</a>
</g>
</g>
<!-- Node42&#45;&gt;Node46 -->
<g id="edge14" class="edge"><title>Node42&#45;&gt;Node46</title>
<path fill="none" stroke="midnightblue" d="M1189.07,-67.1072C1549.83,-21.5097 1647.17,-77.092 2003.5,-31 2006.57,-30.6031 2009.71,-30.1372 2012.86,-29.6204"/>
<polygon fill="midnightblue" stroke="midnightblue" points="1188.61,-63.6372 1179.14,-68.3796 1189.5,-70.5804 1188.61,-63.6372"/>
</g>
<!-- Node47 -->
<g id="node14" class="node"><title>Node47</title>
<g id="a_node14"><a xlink:href="uptane__ci__test_8cc_source.html" target="_top" xlink:title="src/libaktualizr/uptane\l/uptane_ci_test.cc">
<polygon fill="white" stroke="black" points="666.5,-0.5 666.5,-30.5 778.5,-30.5 778.5,-0.5 666.5,-0.5"/>
<text text-anchor="start" x="674.5" y="-18.5" font-family="Helvetica,sans-Serif" font-size="10.00">src/libaktualizr/uptane</text>
<text text-anchor="middle" x="722.5" y="-7.5" font-family="Helvetica,sans-Serif" font-size="10.00">/uptane_ci_test.cc</text>
</a>
</g>
</g>
<!-- Node42&#45;&gt;Node47 -->
<g id="edge15" class="edge"><title>Node42&#45;&gt;Node47</title>
<path fill="none" stroke="midnightblue" d="M1053.87,-72.6776C986.234,-63.5251 879.344,-48.166 787.5,-31 784.659,-30.4689 781.752,-29.9033 778.821,-29.315"/>
<polygon fill="midnightblue" stroke="midnightblue" points="1053.59,-76.1715 1063.97,-74.0375 1054.52,-69.2341 1053.59,-76.1715"/>
</g>
<!-- Node48 -->
<g id="node15" class="node"><title>Node48</title>
<g id="a_node15"><a xlink:href="uptane__implicit__test_8cc.html" target="_top" xlink:title="src/libaktualizr/uptane\l/uptane_implicit_test.cc">
<polygon fill="white" stroke="black" points="796.5,-0.5 796.5,-30.5 916.5,-30.5 916.5,-0.5 796.5,-0.5"/>
<text text-anchor="start" x="804.5" y="-18.5" font-family="Helvetica,sans-Serif" font-size="10.00">src/libaktualizr/uptane</text>
<text text-anchor="middle" x="856.5" y="-7.5" font-family="Helvetica,sans-Serif" font-size="10.00">/uptane_implicit_test.cc</text>
</a>
</g>
</g>
<!-- Node42&#45;&gt;Node48 -->
<g id="edge16" class="edge"><title>Node42&#45;&gt;Node48</title>
<path fill="none" stroke="midnightblue" d="M1054.44,-65.0515C1011.12,-54.425 955.33,-40.7414 914.029,-30.6109"/>
<polygon fill="midnightblue" stroke="midnightblue" points="1053.78,-68.4929 1064.33,-67.476 1055.45,-61.6945 1053.78,-68.4929"/>
</g>
<!-- Node49 -->
<g id="node16" class="node"><title>Node49</title>
<g id="a_node16"><a xlink:href="uptane__key__test_8cc_source.html" target="_top" xlink:title="src/libaktualizr/uptane\l/uptane_key_test.cc">
<polygon fill="white" stroke="black" points="934.5,-0.5 934.5,-30.5 1046.5,-30.5 1046.5,-0.5 934.5,-0.5"/>
<text text-anchor="start" x="942.5" y="-18.5" font-family="Helvetica,sans-Serif" font-size="10.00">src/libaktualizr/uptane</text>
<text text-anchor="middle" x="990.5" y="-7.5" font-family="Helvetica,sans-Serif" font-size="10.00">/uptane_key_test.cc</text>
</a>
</g>
</g>
<!-- Node42&#45;&gt;Node49 -->
<g id="edge17" class="edge"><title>Node42&#45;&gt;Node49</title>
<path fill="none" stroke="midnightblue" d="M1083.92,-62.8533C1063.21,-52.5761 1037.91,-40.0252 1018.87,-30.5765"/>
<polygon fill="midnightblue" stroke="midnightblue" points="1082.56,-66.0864 1093.07,-67.396 1085.67,-59.8159 1082.56,-66.0864"/>
</g>
<!-- Node50 -->
<g id="node17" class="node"><title>Node50</title>
<g id="a_node17"><a xlink:href="uptane__serial__test_8cc_source.html" target="_top" xlink:title="src/libaktualizr/uptane\l/uptane_serial_test.cc">
<polygon fill="white" stroke="black" points="1065,-0.5 1065,-30.5 1178,-30.5 1178,-0.5 1065,-0.5"/>
<text text-anchor="start" x="1073" y="-18.5" font-family="Helvetica,sans-Serif" font-size="10.00">src/libaktualizr/uptane</text>
<text text-anchor="middle" x="1121.5" y="-7.5" font-family="Helvetica,sans-Serif" font-size="10.00">/uptane_serial_test.cc</text>
</a>
</g>
</g>
<!-- Node42&#45;&gt;Node50 -->
<g id="edge18" class="edge"><title>Node42&#45;&gt;Node50</title>
<path fill="none" stroke="midnightblue" d="M1121.5,-57.1081C1121.5,-48.1539 1121.5,-38.3227 1121.5,-30.5765"/>
<polygon fill="midnightblue" stroke="midnightblue" points="1118,-57.3959 1121.5,-67.396 1125,-57.396 1118,-57.3959"/>
</g>
<!-- Node51 -->
<g id="node18" class="node"><title>Node51</title>
<g id="a_node18"><a xlink:href="libaktualizr_2uptane_2uptane__test_8cc_source.html" target="_top" xlink:title="src/libaktualizr/uptane\l/uptane_test.cc">
<polygon fill="white" stroke="black" points="1196.5,-0.5 1196.5,-30.5 1308.5,-30.5 1308.5,-0.5 1196.5,-0.5"/>
<text text-anchor="start" x="1204.5" y="-18.5" font-family="Helvetica,sans-Serif" font-size="10.00">src/libaktualizr/uptane</text>
<text text-anchor="middle" x="1252.5" y="-7.5" font-family="Helvetica,sans-Serif" font-size="10.00">/uptane_test.cc</text>
</a>
</g>
</g>
<!-- Node42&#45;&gt;Node51 -->
<g id="edge19" class="edge"><title>Node42&#45;&gt;Node51</title>
<path fill="none" stroke="midnightblue" d="M1159.08,-62.8533C1179.79,-52.5761 1205.09,-40.0252 1224.13,-30.5765"/>
<polygon fill="midnightblue" stroke="midnightblue" points="1157.33,-59.8159 1149.93,-67.396 1160.44,-66.0864 1157.33,-59.8159"/>
</g>
<!-- Node52 -->
<g id="node19" class="node"><title>Node52</title>
<g id="a_node19"><a xlink:href="check_8cc_source.html" target="_top" xlink:title="src/load_tests/check.cc">
<polygon fill="white" stroke="black" points="1327,-6 1327,-25 1448,-25 1448,-6 1327,-6"/>
<text text-anchor="middle" x="1387.5" y="-13" font-family="Helvetica,sans-Serif" font-size="10.00">src/load_tests/check.cc</text>
</a>
</g>
</g>
<!-- Node42&#45;&gt;Node52 -->
<g id="edge20" class="edge"><title>Node42&#45;&gt;Node52</title>
<path fill="none" stroke="midnightblue" d="M1188.74,-65.0694C1240.9,-52.3228 1311.1,-35.1694 1352.6,-25.0287"/>
<polygon fill="midnightblue" stroke="midnightblue" points="1187.77,-61.7022 1178.89,-67.476 1189.44,-68.5021 1187.77,-61.7022"/>
</g>
<!-- Node53 -->
<g id="node20" class="node"><title>Node53</title>
<g id="a_node20"><a xlink:href="provision_8cc_source.html" target="_top" xlink:title="src/load_tests/provision.cc">
<polygon fill="white" stroke="black" points="1466.5,-6 1466.5,-25 1600.5,-25 1600.5,-6 1466.5,-6"/>
<text text-anchor="middle" x="1533.5" y="-13" font-family="Helvetica,sans-Serif" font-size="10.00">src/load_tests/provision.cc</text>
</a>
</g>
</g>
<!-- Node42&#45;&gt;Node53 -->
<g id="edge21" class="edge"><title>Node42&#45;&gt;Node53</title>
<path fill="none" stroke="midnightblue" d="M1189.12,-66.9849C1309.02,-46.4254 1341.57,-49.801 1457.5,-31 1468.37,-29.2367 1480.08,-27.1153 1490.97,-25.0461"/>
<polygon fill="midnightblue" stroke="midnightblue" points="1188.44,-63.5509 1179.19,-68.7088 1189.64,-70.4478 1188.44,-63.5509"/>
</g>
</g>
</svg>
        <g id="navigator" transform="translate(0 0)" fill="#404254">
                <rect fill="#f2f5e9" fill-opacity="0.5" stroke="#606060" stroke-width=".5" x="0" y="0" width="60" height="60"/>
                <use id="zoomplus" xlink:href="#zoomPlus" x="17" y="9" onmousedown="handleZoom(evt,'in')"/>
                <use id="zoomminus" xlink:href="#zoomMin" x="42" y="9" onmousedown="handleZoom(evt,'out')"/>
                <use id="reset" xlink:href="#resetDef" x="30" y="36" onmousedown="handleReset()"/>
                <g id="arrowUp" xlink:href="#dirArrow" transform="translate(30 24)" onmousedown="handlePan(0,-1)">
                  <use xlink:href="#rim" fill="#404040">
                        <set attributeName="fill" to="#808080" begin="arrowUp.mouseover" end="arrowUp.mouseout"/>
                  </use>
                  <path fill="none" stroke="white" stroke-width="1.5" d="M0,-3.0v7 M-2.5,-0.5L0,-3.0L2.5,-0.5"/>
                </g>
                <g id="arrowRight" xlink:href="#dirArrow" transform="rotate(90) translate(36 -43)" onmousedown="handlePan(1,0)">
                  <use xlink:href="#rim" fill="#404040">
                        <set attributeName="fill" to="#808080" begin="arrowRight.mouseover" end="arrowRight.mouseout"/>
                  </use>
                  <path fill="none" stroke="white" stroke-width="1.5" d="M0,-3.0v7 M-2.5,-0.5L0,-3.0L2.5,-0.5"/>
                </g>
                <g id="arrowDown" xlink:href="#dirArrow" transform="rotate(180) translate(-30 -48)" onmousedown="handlePan(0,1)">
                  <use xlink:href="#rim" fill="#404040">
                        <set attributeName="fill" to="#808080" begin="arrowDown.mouseover" end="arrowDown.mouseout"/>
                  </use>
                  <path fill="none" stroke="white" stroke-width="1.5" d="M0,-3.0v7 M-2.5,-0.5L0,-3.0L2.5,-0.5"/>
                </g>
                <g id="arrowLeft" xlink:href="#dirArrow" transform="rotate(270) translate(-36 17)" onmousedown="handlePan(-1,0)">
                  <use xlink:href="#rim" fill="#404040">
                        <set attributeName="fill" to="#808080" begin="arrowLeft.mouseover" end="arrowLeft.mouseout"/>
                  </use>
                  <path fill="none" stroke="white" stroke-width="1.5" d="M0,-3.0v7 M-2.5,-0.5L0,-3.0L2.5,-0.5"/>
                </g>
        </g>
        <svg viewBox="0 0 15 15" width="100%" height="30px" preserveAspectRatio="xMaxYMin meet">
         <g id="arrow_out" transform="scale(0.3 0.3)">
          <a xlink:href="commands_8h__dep__incl_org.svg" target="_base">
           <rect id="button" ry="5" rx="5" y="6" x="6" height="38" width="38"
                fill="#f2f5e9" fill-opacity="0.5" stroke="#606060" stroke-width="1.0"/>
           <path id="arrow"
             d="M 11.500037,31.436501 C 11.940474,20.09759 22.043105,11.32322 32.158766,21.979434 L 37.068811,17.246167 C 37.068811,17.246167 37.088388,32 37.088388,32 L 22.160133,31.978069 C 22.160133,31.978069 26.997745,27.140456 26.997745,27.140456 C 18.528582,18.264221 13.291696,25.230495 11.500037,31.436501 z"
             style="fill:#404040;"/>
          </a>
         </g>
        </svg>
</svg>
