<?xml version="1.0" encoding="UTF-8" standalone="no"?>
<!DOCTYPE svg PUBLIC "-//W3C//DTD SVG 1.1//EN"
 "http://www.w3.org/Graphics/SVG/1.1/DTD/svg11.dtd">
<!-- Generated by graphviz version 2.40.1 (20161225.0304)
 -->
<!-- Title: src Pages: 1 -->
<svg width="1212pt" height="148pt"
 viewBox="0.00 0.00 1212.00 148.00" xmlns="http://www.w3.org/2000/svg" xmlns:xlink="http://www.w3.org/1999/xlink">
<g id="graph0" class="graph" transform="scale(1 1) rotate(0) translate(4 144)">
<title>src</title>
<polygon fill="#ffffff" stroke="transparent" points="-4,4 -4,-144 1208,-144 1208,4 -4,4"/>
<g id="clust1" class="cluster">
<title>clusterdir_68267d1309a1af8e8297ef4c3efbcdba</title>
<g id="a_clust1"><a xlink:href="dir_68267d1309a1af8e8297ef4c3efbcdba.html" target="_top">
<polygon fill="#eeeeff" stroke="#000000" points="8,-8 8,-132 1196,-132 1196,-8 8,-8"/>
</a>
</g>
</g>
<!-- dir_68267d1309a1af8e8297ef4c3efbcdba -->
<g id="node1" class="node">
<title>dir_68267d1309a1af8e8297ef4c3efbcdba</title>
<text text-anchor="middle" x="1161" y="-103.5" font-family="Helvetica,sans-Serif" font-size="10.00" fill="#000000">src</text>
</g>
<!-- dir_3f5266bf3d4aa6a036a853722d8c0d1f -->
<g id="node2" class="node">
<title>dir_3f5266bf3d4aa6a036a853722d8c0d1f</title>
<g id="a_node2"><a xlink:href="dir_3f5266bf3d4aa6a036a853722d8c0d1f.html" target="_top" xlink:title="aktualizr_check_discovery">
<polygon fill="#ffffff" stroke="#000000" points="1116,-124 984,-124 984,-88 1116,-88 1116,-124"/>
<text text-anchor="middle" x="1050" y="-103.5" font-family="Helvetica,sans-Serif" font-size="10.00" fill="#000000">aktualizr_check_discovery</text>
</a>
</g>
</g>
<!-- dir_b4ab7baa9a72fa869f9ae99b22d05745 -->
<g id="node3" class="node">
<title>dir_b4ab7baa9a72fa869f9ae99b22d05745</title>
<g id="a_node3"><a xlink:href="dir_b4ab7baa9a72fa869f9ae99b22d05745.html" target="_top" xlink:title="aktualizr_info">
<polygon fill="#ffffff" stroke="#000000" points="966,-124 892,-124 892,-88 966,-88 966,-124"/>
<text text-anchor="middle" x="929" y="-103.5" font-family="Helvetica,sans-Serif" font-size="10.00" fill="#000000">aktualizr_info</text>
</a>
</g>
</g>
<!-- dir_a1c365666047c910e07f82ea3785a0e3 -->
<g id="node4" class="node">
<title>dir_a1c365666047c910e07f82ea3785a0e3</title>
<g id="a_node4"><a xlink:href="dir_a1c365666047c910e07f82ea3785a0e3.html" target="_top" xlink:title="aktualizr_primary">
<polygon fill="#ffffff" stroke="#000000" points="873.5,-124 782.5,-124 782.5,-88 873.5,-88 873.5,-124"/>
<text text-anchor="middle" x="828" y="-103.5" font-family="Helvetica,sans-Serif" font-size="10.00" fill="#000000">aktualizr_primary</text>
</a>
</g>
</g>
<!-- dir_65d4fe4106ac0c1f9b9f18be7cf87b87 -->
<g id="node5" class="node">
<title>dir_65d4fe4106ac0c1f9b9f18be7cf87b87</title>
<g id="a_node5"><a xlink:href="dir_65d4fe4106ac0c1f9b9f18be7cf87b87.html" target="_top" xlink:title="aktualizr_repo">
<polygon fill="#ffffff" stroke="#000000" points="764.5,-124 687.5,-124 687.5,-88 764.5,-88 764.5,-124"/>
<text text-anchor="middle" x="726" y="-103.5" font-family="Helvetica,sans-Serif" font-size="10.00" fill="#000000">aktualizr_repo</text>
</a>
</g>
</g>
<!-- dir_a0345981ec4afd73d92f143a325145ef -->
<g id="node6" class="node">
<title>dir_a0345981ec4afd73d92f143a325145ef</title>
<g id="a_node6"><a xlink:href="dir_a0345981ec4afd73d92f143a325145ef.html" target="_top" xlink:title="aktualizr_secondary">
<polygon fill="#ffffff" stroke="#000000" points="669,-124 565,-124 565,-88 669,-88 669,-124"/>
<text text-anchor="middle" x="617" y="-103.5" font-family="Helvetica,sans-Serif" font-size="10.00" fill="#000000">aktualizr_secondary</text>
</a>
</g>
</g>
<!-- dir_25fe10002fe19a6f872ae0406361d164 -->
<g id="node11" class="node">
<title>dir_25fe10002fe19a6f872ae0406361d164</title>
<g id="a_node11"><a xlink:href="dir_25fe10002fe19a6f872ae0406361d164.html" target="_top" xlink:title="libaktualizr">
<polygon fill="#ffffff" stroke="#ff0000" points="403.5,-52 340.5,-52 340.5,-16 403.5,-16 403.5,-52"/>
<text text-anchor="middle" x="372" y="-31.5" font-family="Helvetica,sans-Serif" font-size="10.00" fill="#000000">libaktualizr</text>
</a>
</g>
</g>
<!-- dir_a0345981ec4afd73d92f143a325145ef&#45;&gt;dir_25fe10002fe19a6f872ae0406361d164 -->
<g id="edge1" class="edge">
<title>dir_a0345981ec4afd73d92f143a325145ef&#45;&gt;dir_25fe10002fe19a6f872ae0406361d164</title>
<path fill="none" stroke="#000000" d="M564.7581,-90.5788C561.7953,-89.706 558.86,-88.8416 556,-88 507.1019,-73.6103 450.8785,-57.1176 413.5819,-46.1844"/>
<polygon fill="#000000" stroke="#000000" points="414.1669,-42.7086 403.5861,-43.2545 412.1978,-49.426 414.1669,-42.7086"/>
<g id="a_edge1&#45;headlabel"><a xlink:href="dir_000005_000010.html" target="_top" xlink:title="1">
<text text-anchor="middle" x="418.415" y="-38.495" font-family="Helvetica,sans-Serif" font-size="10.00" fill="#000000">1</text>
</a>
</g>
</g>
<!-- dir_1f4a50f8f1fe2f3e2e3e79b978626114 -->
<g id="node7" class="node">
<title>dir_1f4a50f8f1fe2f3e2e3e79b978626114</title>
<g id="a_node7"><a xlink:href="dir_1f4a50f8f1fe2f3e2e3e79b978626114.html" target="_top" xlink:title="cert_provider">
<polygon fill="#ffffff" stroke="#000000" points="546.5,-124 473.5,-124 473.5,-88 546.5,-88 546.5,-124"/>
<text text-anchor="middle" x="510" y="-103.5" font-family="Helvetica,sans-Serif" font-size="10.00" fill="#000000">cert_provider</text>
</a>
</g>
</g>
<!-- dir_8911d9681d4a9d1ae8f1e43b9d23c72e -->
<g id="node8" class="node">
<title>dir_8911d9681d4a9d1ae8f1e43b9d23c72e</title>
<g id="a_node8"><a xlink:href="dir_8911d9681d4a9d1ae8f1e43b9d23c72e.html" target="_top" xlink:title="external_secondaries">
<polygon fill="#ffffff" stroke="#000000" points="455.5,-124 346.5,-124 346.5,-88 455.5,-88 455.5,-124"/>
<text text-anchor="middle" x="401" y="-103.5" font-family="Helvetica,sans-Serif" font-size="10.00" fill="#000000">external_secondaries</text>
</a>
</g>
</g>
<!-- dir_d46ab523f2dd12b449955baa1bd4c4d6 -->
<g id="node9" class="node">
<title>dir_d46ab523f2dd12b449955baa1bd4c4d6</title>
<g id="a_node9"><a xlink:href="dir_d46ab523f2dd12b449955baa1bd4c4d6.html" target="_top" xlink:title="hmi_stub">
<polygon fill="#ffffff" stroke="#000000" points="328,-124 272,-124 272,-88 328,-88 328,-124"/>
<text text-anchor="middle" x="300" y="-103.5" font-family="Helvetica,sans-Serif" font-size="10.00" fill="#000000">hmi_stub</text>
</a>
</g>
</g>
<!-- dir_772975c71aa654273066f61448d30781 -->
<g id="node10" class="node">
<title>dir_772975c71aa654273066f61448d30781</title>
<g id="a_node10"><a xlink:href="dir_772975c71aa654273066f61448d30781.html" target="_top" xlink:title="implicit_writer">
<polygon fill="#ffffff" stroke="#000000" points="253.5,-124 176.5,-124 176.5,-88 253.5,-88 253.5,-124"/>
<text text-anchor="middle" x="215" y="-103.5" font-family="Helvetica,sans-Serif" font-size="10.00" fill="#000000">implicit_writer</text>
</a>
</g>
</g>
<!-- dir_32bfa720d5faedcc76f8e32c775d43dc -->
<g id="node12" class="node">
<title>dir_32bfa720d5faedcc76f8e32c775d43dc</title>
<g id="a_node12"><a xlink:href="dir_32bfa720d5faedcc76f8e32c775d43dc.html" target="_top" xlink:title="load_tests">
<polygon fill="#ffffff" stroke="#000000" points="158,-124 96,-124 96,-88 158,-88 158,-124"/>
<text text-anchor="middle" x="127" y="-103.5" font-family="Helvetica,sans-Serif" font-size="10.00" fill="#000000">load_tests</text>
</a>
</g>
</g>
<!-- dir_32bfa720d5faedcc76f8e32c775d43dc&#45;&gt;dir_25fe10002fe19a6f872ae0406361d164 -->
<g id="edge2" class="edge">
<title>dir_32bfa720d5faedcc76f8e32c775d43dc&#45;&gt;dir_25fe10002fe19a6f872ae0406361d164</title>
<path fill="none" stroke="#000000" d="M158.1396,-91.7342C161.4409,-90.4009 164.771,-89.1285 168,-88 223.2746,-68.6815 289.0432,-52.4374 330.6593,-42.9585"/>
<polygon fill="#000000" stroke="#000000" points="331.4555,-46.3669 340.4413,-40.7538 329.9164,-39.5382 331.4555,-46.3669"/>
<g id="a_edge2&#45;headlabel"><a xlink:href="dir_000009_000010.html" target="_top" xlink:title="2">
<text text-anchor="middle" x="328.5731" y="-47.4269" font-family="Helvetica,sans-Serif" font-size="10.00" fill="#000000">2</text>
</a>
</g>
</g>
<!-- dir_b7cd886a5e99df99c476fe0c3ded0563 -->
<g id="node13" class="node">
<title>dir_b7cd886a5e99df99c476fe0c3ded0563</title>
<g id="a_node13"><a xlink:href="dir_b7cd886a5e99df99c476fe0c3ded0563.html" target="_top" xlink:title="sota_tools">
<polygon fill="#ffffff" stroke="#000000" points="78,-124 16,-124 16,-88 78,-88 78,-124"/>
<text text-anchor="middle" x="47" y="-103.5" font-family="Helvetica,sans-Serif" font-size="10.00" fill="#000000">sota_tools</text>
</a>
</g>
</g>
</g>
</svg>
