<?xml version="1.0" encoding="UTF-8" standalone="no"?>
<!DOCTYPE svg PUBLIC "-//W3C//DTD SVG 1.1//EN"
 "http://www.w3.org/Graphics/SVG/1.1/DTD/svg11.dtd">
<!-- Generated by graphviz version 2.38.0 (20140413.2041)
 -->
<!-- Title: src/aktualizr_secondary Pages: 1 -->
<svg width="144pt" height="151pt"
 viewBox="0.00 0.00 144.00 151.00" xmlns="http://www.w3.org/2000/svg" xmlns:xlink="http://www.w3.org/1999/xlink">
<g id="graph0" class="graph" transform="scale(1 1) rotate(0) translate(4 147)">
<title>src/aktualizr_secondary</title>
<polygon fill="white" stroke="none" points="-4,4 -4,-147 140,-147 140,4 -4,4"/>
<g id="clust1" class="cluster"><title>clusterdir_68267d1309a1af8e8297ef4c3efbcdba</title>
<g id="a_clust1"><a xlink:href="dir_68267d1309a1af8e8297ef4c3efbcdba.html" target="_top" xlink:title="src">
<polygon fill="#ddddee" stroke="black" points="8,-64 8,-135 128,-135 128,-64 8,-64"/>
<text text-anchor="middle" x="68" y="-123" font-family="Helvetica,sans-Serif" font-size="10.00">src</text>
</a>
</g>
</g>
<!-- dir_a0345981ec4afd73d92f143a325145ef -->
<g id="node1" class="node"><title>dir_a0345981ec4afd73d92f143a325145ef</title>
<g id="a_node1"><a xlink:href="dir_a0345981ec4afd73d92f143a325145ef.html" target="_top" xlink:title="aktualizr_secondary">
<polygon fill="#eeeeff" stroke="black" points="120,-108 16,-108 16,-72 120,-72 120,-108"/>
<text text-anchor="middle" x="68" y="-87.5" font-family="Helvetica,sans-Serif" font-size="10.00">aktualizr_secondary</text>
</a>
</g>
</g>
<!-- dir_25fe10002fe19a6f872ae0406361d164 -->
<g id="node2" class="node"><title>dir_25fe10002fe19a6f872ae0406361d164</title>
<g id="a_node2"><a xlink:href="dir_25fe10002fe19a6f872ae0406361d164.html" target="_top" xlink:title="libaktualizr">
<polygon fill="white" stroke="red" points="99.5,-36 36.5,-36 36.5,-0 99.5,-0 99.5,-36"/>
<text text-anchor="middle" x="68" y="-15.5" font-family="Helvetica,sans-Serif" font-size="10.00">libaktualizr</text>
</a>
</g>
</g>
<!-- dir_a0345981ec4afd73d92f143a325145ef&#45;&gt;dir_25fe10002fe19a6f872ae0406361d164 -->
<g id="edge1" class="edge"><title>dir_a0345981ec4afd73d92f143a325145ef&#45;&gt;dir_25fe10002fe19a6f872ae0406361d164</title>
<path fill="none" stroke="black" d="M68,-71.6966C68,-63.9827 68,-54.7125 68,-46.1124"/>
<polygon fill="black" stroke="black" points="71.5001,-46.1043 68,-36.1043 64.5001,-46.1044 71.5001,-46.1043"/>
<g id="a_edge1&#45;headlabel"><a xlink:href="dir_000005_000010.html" target="_top" xlink:title="1">
<text text-anchor="middle" x="74.3393" y="-47.199" font-family="Helvetica,sans-Serif" font-size="10.00">1</text>
</a>
</g>
</g>
</g>
</svg>
