<?xml version="1.0" encoding="UTF-8" standalone="no"?>
<!DOCTYPE svg PUBLIC "-//W3C//DTD SVG 1.1//EN"
 "http://www.w3.org/Graphics/SVG/1.1/DTD/svg11.dtd">
<!-- Generated by graphviz version 2.38.0 (20140413.2041)
 -->
<!-- Title: src/libaktualizr Pages: 1 -->
<!--zoomable 183 -->
<svg id="main" version="1.1" xmlns="http://www.w3.org/2000/svg" xmlns:xlink="http://www.w3.org/1999/xlink" xml:space="preserve" onload="init(evt)">
<style type="text/css"><![CDATA[
.edge:hover path { stroke: red; }
.edge:hover polygon { stroke: red; fill: red; }
]]></style>
<script type="text/javascript"><![CDATA[
var edges = document.getElementsByTagName('g');
if (edges && edges.length) {
  for (var i=0;i<edges.length;i++) {
    if (edges[i].id.substr(0,4)=='edge') {
      edges[i].setAttribute('class','edge');
    }
  }
}
]]></script>
        <defs>
                <circle id="rim" cx="0" cy="0" r="7"/>
                <circle id="rim2" cx="0" cy="0" r="3.5"/>
                <g id="zoomPlus">
                        <use xlink:href="#rim" fill="#404040">
                                <set attributeName="fill" to="#808080" begin="zoomplus.mouseover" end="zoomplus.mouseout"/>
                        </use>
                        <path d="M-4,0h8M0,-4v8" fill="none" stroke="white" stroke-width="1.5" pointer-events="none"/>
                </g>
                <g id="zoomMin">
                        <use xlink:href="#rim" fill="#404040">
                                <set attributeName="fill" to="#808080" begin="zoomminus.mouseover" end="zoomminus.mouseout"/>
                        </use>
                        <path d="M-4,0h8" fill="none" stroke="white" stroke-width="1.5" pointer-events="none"/>
                </g>
                <g id="dirArrow">
                        <path fill="none" stroke="white" stroke-width="1.5" d="M0,-3.0v7 M-2.5,-0.5L0,-3.0L2.5,-0.5"/>
                </g>
               <g id="resetDef">
                       <use xlink:href="#rim2" fill="#404040">
                               <set attributeName="fill" to="#808080" begin="reset.mouseover" end="reset.mouseout"/>
                       </use>
               </g>
        </defs>

<script type="text/javascript">
var viewWidth = 1242;
var viewHeight = 183;
var sectionId = 'dynsection-0';
</script>
<script xlink:href="svgpan.js"/>
<svg id="graph" class="graph">
<g id="viewport">
<title>src/libaktualizr</title>
<polygon fill="white" stroke="none" points="-4,4 -4,-179 1238,-179 1238,4 -4,4"/>
<g id="clust1" class="cluster"><title>clusterdir_68267d1309a1af8e8297ef4c3efbcdba</title>
<g id="a_clust1"><a xlink:href="dir_68267d1309a1af8e8297ef4c3efbcdba.html" target="_top" xlink:title="src">
<polygon fill="#ddddee" stroke="black" points="8,-8 8,-167 1226,-167 1226,-8 8,-8"/>
<text text-anchor="middle" x="617" y="-155" font-family="Helvetica,sans-Serif" font-size="10.00">src</text>
</a>
</g>
</g>
<g id="clust2" class="cluster"><title>clusterdir_25fe10002fe19a6f872ae0406361d164</title>
<g id="a_clust2"><a xlink:href="dir_25fe10002fe19a6f872ae0406361d164.html" target="_top">
<polygon fill="#eeeeff" stroke="black" points="16,-16 16,-140 1218,-140 1218,-16 16,-16"/>
</a>
</g>
</g>
<!-- dir_25fe10002fe19a6f872ae0406361d164 -->
<g id="node1" class="node"><title>dir_25fe10002fe19a6f872ae0406361d164</title>
<text text-anchor="middle" x="1178" y="-111.5" font-family="Helvetica,sans-Serif" font-size="10.00">libaktualizr</text>
</g>
<!-- dir_f2eb8e7790cc1138ce461ba6e6262196 -->
<g id="node2" class="node"><title>dir_f2eb8e7790cc1138ce461ba6e6262196</title>
<g id="a_node2"><a xlink:href="dir_f2eb8e7790cc1138ce461ba6e6262196.html" target="_top" xlink:title="asn1">
<polygon fill="white" stroke="black" points="1128,-132 1074,-132 1074,-96 1128,-96 1128,-132"/>
<text text-anchor="middle" x="1101" y="-111.5" font-family="Helvetica,sans-Serif" font-size="10.00">asn1</text>
</a>
</g>
</g>
<!-- dir_3bbf2a60e3198d81ff0b6cec96712616 -->
<g id="node3" class="node"><title>dir_3bbf2a60e3198d81ff0b6cec96712616</title>
<g id="a_node3"><a xlink:href="dir_3bbf2a60e3198d81ff0b6cec96712616.html" target="_top" xlink:title="bootloader">
<polygon fill="white" stroke="black" points="1056,-132 994,-132 994,-96 1056,-96 1056,-132"/>
<text text-anchor="middle" x="1025" y="-111.5" font-family="Helvetica,sans-Serif" font-size="10.00">bootloader</text>
</a>
</g>
</g>
<!-- dir_fdb732a55413cc8dc0ae0a60dab491c8 -->
<g id="node4" class="node"><title>dir_fdb732a55413cc8dc0ae0a60dab491c8</title>
<g id="a_node4"><a xlink:href="dir_fdb732a55413cc8dc0ae0a60dab491c8.html" target="_top" xlink:title="bootstrap">
<polygon fill="white" stroke="black" points="975.5,-132 918.5,-132 918.5,-96 975.5,-96 975.5,-132"/>
<text text-anchor="middle" x="947" y="-111.5" font-family="Helvetica,sans-Serif" font-size="10.00">bootstrap</text>
</a>
</g>
</g>
<!-- dir_f0ba1877fd64ced1506d18266e138852 -->
<g id="node5" class="node"><title>dir_f0ba1877fd64ced1506d18266e138852</title>
<g id="a_node5"><a xlink:href="dir_f0ba1877fd64ced1506d18266e138852.html" target="_top" xlink:title="config">
<polygon fill="white" stroke="black" points="900,-132 846,-132 846,-96 900,-96 900,-132"/>
<text text-anchor="middle" x="873" y="-111.5" font-family="Helvetica,sans-Serif" font-size="10.00">config</text>
</a>
</g>
</g>
<!-- dir_21695240ac6697d59c3c2f5e3a3e7e03 -->
<g id="node16" class="node"><title>dir_21695240ac6697d59c3c2f5e3a3e7e03</title>
<g id="a_node16"><a xlink:href="dir_21695240ac6697d59c3c2f5e3a3e7e03.html" target="_top" xlink:title="utilities">
<polygon fill="white" stroke="black" points="553,-60 499,-60 499,-24 553,-24 553,-60"/>
<text text-anchor="middle" x="526" y="-39.5" font-family="Helvetica,sans-Serif" font-size="10.00">utilities</text>
</a>
</g>
</g>
<!-- dir_f0ba1877fd64ced1506d18266e138852&#45;&gt;dir_21695240ac6697d59c3c2f5e3a3e7e03 -->
<g id="edge2" class="edge"><title>dir_f0ba1877fd64ced1506d18266e138852&#45;&gt;dir_21695240ac6697d59c3c2f5e3a3e7e03</title>
<path fill="none" stroke="black" d="M845.793,-99.2128C842.868,-98.0147 839.901,-96.9132 837,-96 740.895,-65.7451 622.322,-51.6045 563.195,-46.0416"/>
<polygon fill="black" stroke="black" points="563.482,-42.5534 553.206,-45.1308 562.847,-49.5244 563.482,-42.5534"/>
<g id="a_edge2&#45;headlabel"><a xlink:href="dir_000016_000026.html" target="_top" xlink:title="1">
<text text-anchor="middle" x="567.32" y="-37.5521" font-family="Helvetica,sans-Serif" font-size="10.00">1</text>
</a>
</g>
</g>
<!-- dir_ed4129733881d178d939d6d6430e282d -->
<g id="node6" class="node"><title>dir_ed4129733881d178d939d6d6430e282d</title>
<g id="a_node6"><a xlink:href="dir_ed4129733881d178d939d6d6430e282d.html" target="_top" xlink:title="crypto">
<polygon fill="white" stroke="black" points="828,-132 774,-132 774,-96 828,-96 828,-132"/>
<text text-anchor="middle" x="801" y="-111.5" font-family="Helvetica,sans-Serif" font-size="10.00">crypto</text>
</a>
</g>
</g>
<!-- dir_ed4129733881d178d939d6d6430e282d&#45;&gt;dir_21695240ac6697d59c3c2f5e3a3e7e03 -->
<g id="edge8" class="edge"><title>dir_ed4129733881d178d939d6d6430e282d&#45;&gt;dir_21695240ac6697d59c3c2f5e3a3e7e03</title>
<path fill="none" stroke="black" d="M773.745,-99.3597C770.829,-98.133 767.877,-96.9846 765,-96 695.465,-72.2056 610.82,-56.3741 563.205,-48.6046"/>
<polygon fill="black" stroke="black" points="563.487,-45.1053 553.06,-46.9802 562.381,-52.0172 563.487,-45.1053"/>
<g id="a_edge8&#45;headlabel"><a xlink:href="dir_000017_000026.html" target="_top" xlink:title="2">
<text text-anchor="middle" x="567.486" y="-40.3699" font-family="Helvetica,sans-Serif" font-size="10.00">2</text>
</a>
</g>
</g>
<!-- dir_8c99f36ebfebd11057eb6fd485d463fb -->
<g id="node7" class="node"><title>dir_8c99f36ebfebd11057eb6fd485d463fb</title>
<g id="a_node7"><a xlink:href="dir_8c99f36ebfebd11057eb6fd485d463fb.html" target="_top" xlink:title="http">
<polygon fill="white" stroke="black" points="756,-132 702,-132 702,-96 756,-96 756,-132"/>
<text text-anchor="middle" x="729" y="-111.5" font-family="Helvetica,sans-Serif" font-size="10.00">http</text>
</a>
</g>
</g>
<!-- dir_8c99f36ebfebd11057eb6fd485d463fb&#45;&gt;dir_21695240ac6697d59c3c2f5e3a3e7e03 -->
<g id="edge7" class="edge"><title>dir_8c99f36ebfebd11057eb6fd485d463fb&#45;&gt;dir_21695240ac6697d59c3c2f5e3a3e7e03</title>
<path fill="none" stroke="black" d="M701.649,-99.6213C698.752,-98.3436 695.831,-97.1118 693,-96 649.252,-78.8179 597.476,-63.0691 563.3,-53.2829"/>
<polygon fill="black" stroke="black" points="563.863,-49.8045 553.287,-50.4422 561.952,-56.5387 563.863,-49.8045"/>
<g id="a_edge7&#45;headlabel"><a xlink:href="dir_000018_000026.html" target="_top" xlink:title="2">
<text text-anchor="middle" x="568.096" y="-45.554" font-family="Helvetica,sans-Serif" font-size="10.00">2</text>
</a>
</g>
</g>
<!-- dir_5cb196101d78eeefc53a27ffd5907672 -->
<g id="node8" class="node"><title>dir_5cb196101d78eeefc53a27ffd5907672</title>
<g id="a_node8"><a xlink:href="dir_5cb196101d78eeefc53a27ffd5907672.html" target="_top" xlink:title="logging">
<polygon fill="white" stroke="black" points="684,-132 630,-132 630,-96 684,-96 684,-132"/>
<text text-anchor="middle" x="657" y="-111.5" font-family="Helvetica,sans-Serif" font-size="10.00">logging</text>
</a>
</g>
</g>
<!-- dir_64f1603d289a81fcc6dce2c3073d4820 -->
<g id="node9" class="node"><title>dir_64f1603d289a81fcc6dce2c3073d4820</title>
<g id="a_node9"><a xlink:href="dir_64f1603d289a81fcc6dce2c3073d4820.html" target="_top" xlink:title="opcuabridge">
<polygon fill="white" stroke="black" points="611.5,-132 542.5,-132 542.5,-96 611.5,-96 611.5,-132"/>
<text text-anchor="middle" x="577" y="-111.5" font-family="Helvetica,sans-Serif" font-size="10.00">opcuabridge</text>
</a>
</g>
</g>
<!-- dir_64f1603d289a81fcc6dce2c3073d4820&#45;&gt;dir_21695240ac6697d59c3c2f5e3a3e7e03 -->
<g id="edge4" class="edge"><title>dir_64f1603d289a81fcc6dce2c3073d4820&#45;&gt;dir_21695240ac6697d59c3c2f5e3a3e7e03</title>
<path fill="none" stroke="black" d="M564.393,-95.6966C558.403,-87.4741 551.124,-77.4832 544.521,-68.4207"/>
<polygon fill="black" stroke="black" points="547.179,-66.1257 538.462,-60.1043 541.522,-70.2477 547.179,-66.1257"/>
<g id="a_edge4&#45;headlabel"><a xlink:href="dir_000020_000026.html" target="_top" xlink:title="1">
<text text-anchor="middle" x="551.591" y="-64.8591" font-family="Helvetica,sans-Serif" font-size="10.00">1</text>
</a>
</g>
</g>
<!-- dir_188ad9b20b5803d1e0842e8b7679686b -->
<g id="node10" class="node"><title>dir_188ad9b20b5803d1e0842e8b7679686b</title>
<g id="a_node10"><a xlink:href="dir_188ad9b20b5803d1e0842e8b7679686b.html" target="_top" xlink:title="package_manager">
<polygon fill="white" stroke="black" points="524,-132 428,-132 428,-96 524,-96 524,-132"/>
<text text-anchor="middle" x="476" y="-111.5" font-family="Helvetica,sans-Serif" font-size="10.00">package_manager</text>
</a>
</g>
</g>
<!-- dir_188ad9b20b5803d1e0842e8b7679686b&#45;&gt;dir_21695240ac6697d59c3c2f5e3a3e7e03 -->
<g id="edge5" class="edge"><title>dir_188ad9b20b5803d1e0842e8b7679686b&#45;&gt;dir_21695240ac6697d59c3c2f5e3a3e7e03</title>
<path fill="none" stroke="black" d="M488.36,-95.6966C494.233,-87.4741 501.369,-77.4832 507.842,-68.4207"/>
<polygon fill="black" stroke="black" points="510.818,-70.276 513.783,-60.1043 505.122,-66.2073 510.818,-70.276"/>
<g id="a_edge5&#45;headlabel"><a xlink:href="dir_000021_000026.html" target="_top" xlink:title="5">
<text text-anchor="middle" x="511.039" y="-72.3514" font-family="Helvetica,sans-Serif" font-size="10.00">5</text>
</a>
</g>
</g>
<!-- dir_8bc6f38a0dcbed3d98be2fc5c9211590 -->
<g id="node11" class="node"><title>dir_8bc6f38a0dcbed3d98be2fc5c9211590</title>
<g id="a_node11"><a xlink:href="dir_8bc6f38a0dcbed3d98be2fc5c9211590.html" target="_top" xlink:title="primary">
<polygon fill="white" stroke="black" points="410,-132 356,-132 356,-96 410,-96 410,-132"/>
<text text-anchor="middle" x="383" y="-111.5" font-family="Helvetica,sans-Serif" font-size="10.00">primary</text>
</a>
</g>
</g>
<!-- dir_8bc6f38a0dcbed3d98be2fc5c9211590&#45;&gt;dir_21695240ac6697d59c3c2f5e3a3e7e03 -->
<g id="edge1" class="edge"><title>dir_8bc6f38a0dcbed3d98be2fc5c9211590&#45;&gt;dir_21695240ac6697d59c3c2f5e3a3e7e03</title>
<path fill="none" stroke="black" d="M410.234,-99.6688C432.796,-88.6241 465.055,-72.8333 489.791,-60.7245"/>
<polygon fill="black" stroke="black" points="491.425,-63.8218 498.868,-56.2816 488.347,-57.5347 491.425,-63.8218"/>
<g id="a_edge1&#45;headlabel"><a xlink:href="dir_000022_000026.html" target="_top" xlink:title="6">
<text text-anchor="middle" x="489.445" y="-65.4523" font-family="Helvetica,sans-Serif" font-size="10.00">6</text>
</a>
</g>
</g>
<!-- dir_38063aa54f0538fd32ab0bbc35a1c31a -->
<g id="node12" class="node"><title>dir_38063aa54f0538fd32ab0bbc35a1c31a</title>
<g id="a_node12"><a xlink:href="dir_38063aa54f0538fd32ab0bbc35a1c31a.html" target="_top" xlink:title="socket_activation">
<polygon fill="white" stroke="black" points="337.5,-132 244.5,-132 244.5,-96 337.5,-96 337.5,-132"/>
<text text-anchor="middle" x="291" y="-111.5" font-family="Helvetica,sans-Serif" font-size="10.00">socket_activation</text>
</a>
</g>
</g>
<!-- dir_6222101bbb5850141d4035d76d1fca79 -->
<g id="node13" class="node"><title>dir_6222101bbb5850141d4035d76d1fca79</title>
<g id="a_node13"><a xlink:href="dir_6222101bbb5850141d4035d76d1fca79.html" target="_top" xlink:title="storage">
<polygon fill="white" stroke="black" points="226,-132 172,-132 172,-96 226,-96 226,-132"/>
<text text-anchor="middle" x="199" y="-111.5" font-family="Helvetica,sans-Serif" font-size="10.00">storage</text>
</a>
</g>
</g>
<!-- dir_6222101bbb5850141d4035d76d1fca79&#45;&gt;dir_21695240ac6697d59c3c2f5e3a3e7e03 -->
<g id="edge6" class="edge"><title>dir_6222101bbb5850141d4035d76d1fca79&#45;&gt;dir_21695240ac6697d59c3c2f5e3a3e7e03</title>
<path fill="none" stroke="black" d="M226.177,-99.5915C229.441,-98.2573 232.764,-97.0213 236,-96 324.266,-68.1411 432.546,-53.1937 488.515,-46.8184"/>
<polygon fill="black" stroke="black" points="489.113,-50.2737 498.665,-45.6914 488.34,-43.3164 489.113,-50.2737"/>
<g id="a_edge6&#45;headlabel"><a xlink:href="dir_000024_000026.html" target="_top" xlink:title="2">
<text text-anchor="middle" x="485.853" y="-50.9922" font-family="Helvetica,sans-Serif" font-size="10.00">2</text>
</a>
</g>
</g>
<!-- dir_99d301fce191cbab027d1141c58ff40d -->
<g id="node14" class="node"><title>dir_99d301fce191cbab027d1141c58ff40d</title>
<g id="a_node14"><a xlink:href="dir_99d301fce191cbab027d1141c58ff40d.html" target="_top" xlink:title="telemetry">
<polygon fill="white" stroke="black" points="153.5,-132 96.5,-132 96.5,-96 153.5,-96 153.5,-132"/>
<text text-anchor="middle" x="125" y="-111.5" font-family="Helvetica,sans-Serif" font-size="10.00">telemetry</text>
</a>
</g>
</g>
<!-- dir_01ad008a1a3fdffc18398ed2b9cdb1e4 -->
<g id="node15" class="node"><title>dir_01ad008a1a3fdffc18398ed2b9cdb1e4</title>
<g id="a_node15"><a xlink:href="dir_01ad008a1a3fdffc18398ed2b9cdb1e4.html" target="_top" xlink:title="uptane">
<polygon fill="white" stroke="black" points="78,-132 24,-132 24,-96 78,-96 78,-132"/>
<text text-anchor="middle" x="51" y="-111.5" font-family="Helvetica,sans-Serif" font-size="10.00">uptane</text>
</a>
</g>
</g>
<!-- dir_01ad008a1a3fdffc18398ed2b9cdb1e4&#45;&gt;dir_21695240ac6697d59c3c2f5e3a3e7e03 -->
<g id="edge3" class="edge"><title>dir_01ad008a1a3fdffc18398ed2b9cdb1e4&#45;&gt;dir_21695240ac6697d59c3c2f5e3a3e7e03</title>
<path fill="none" stroke="black" d="M78.1188,-99.3973C81.3933,-98.0979 84.7348,-96.9232 88,-96 232.311,-55.1962 412.082,-45.8052 488.66,-43.6449"/>
<polygon fill="black" stroke="black" points="488.86,-47.141 498.766,-43.3855 488.68,-40.1433 488.86,-47.141"/>
<g id="a_edge3&#45;headlabel"><a xlink:href="dir_000011_000026.html" target="_top" xlink:title="8">
<text text-anchor="middle" x="485.339" y="-47.5715" font-family="Helvetica,sans-Serif" font-size="10.00">8</text>
</a>
</g>
</g>
</g>
</svg>
        <g id="navigator" transform="translate(0 0)" fill="#404254">
                <rect fill="#f2f5e9" fill-opacity="0.5" stroke="#606060" stroke-width=".5" x="0" y="0" width="60" height="60"/>
                <use id="zoomplus" xlink:href="#zoomPlus" x="17" y="9" onmousedown="handleZoom(evt,'in')"/>
                <use id="zoomminus" xlink:href="#zoomMin" x="42" y="9" onmousedown="handleZoom(evt,'out')"/>
                <use id="reset" xlink:href="#resetDef" x="30" y="36" onmousedown="handleReset()"/>
                <g id="arrowUp" xlink:href="#dirArrow" transform="translate(30 24)" onmousedown="handlePan(0,-1)">
                  <use xlink:href="#rim" fill="#404040">
                        <set attributeName="fill" to="#808080" begin="arrowUp.mouseover" end="arrowUp.mouseout"/>
                  </use>
                  <path fill="none" stroke="white" stroke-width="1.5" d="M0,-3.0v7 M-2.5,-0.5L0,-3.0L2.5,-0.5"/>
                </g>
                <g id="arrowRight" xlink:href="#dirArrow" transform="rotate(90) translate(36 -43)" onmousedown="handlePan(1,0)">
                  <use xlink:href="#rim" fill="#404040">
                        <set attributeName="fill" to="#808080" begin="arrowRight.mouseover" end="arrowRight.mouseout"/>
                  </use>
                  <path fill="none" stroke="white" stroke-width="1.5" d="M0,-3.0v7 M-2.5,-0.5L0,-3.0L2.5,-0.5"/>
                </g>
                <g id="arrowDown" xlink:href="#dirArrow" transform="rotate(180) translate(-30 -48)" onmousedown="handlePan(0,1)">
                  <use xlink:href="#rim" fill="#404040">
                        <set attributeName="fill" to="#808080" begin="arrowDown.mouseover" end="arrowDown.mouseout"/>
                  </use>
                  <path fill="none" stroke="white" stroke-width="1.5" d="M0,-3.0v7 M-2.5,-0.5L0,-3.0L2.5,-0.5"/>
                </g>
                <g id="arrowLeft" xlink:href="#dirArrow" transform="rotate(270) translate(-36 17)" onmousedown="handlePan(-1,0)">
                  <use xlink:href="#rim" fill="#404040">
                        <set attributeName="fill" to="#808080" begin="arrowLeft.mouseover" end="arrowLeft.mouseout"/>
                  </use>
                  <path fill="none" stroke="white" stroke-width="1.5" d="M0,-3.0v7 M-2.5,-0.5L0,-3.0L2.5,-0.5"/>
                </g>
        </g>
        <svg viewBox="0 0 15 15" width="100%" height="30px" preserveAspectRatio="xMaxYMin meet">
         <g id="arrow_out" transform="scale(0.3 0.3)">
          <a xlink:href="dir_25fe10002fe19a6f872ae0406361d164_dep_org.svg" target="_base">
           <rect id="button" ry="5" rx="5" y="6" x="6" height="38" width="38"
                fill="#f2f5e9" fill-opacity="0.5" stroke="#606060" stroke-width="1.0"/>
           <path id="arrow"
             d="M 11.500037,31.436501 C 11.940474,20.09759 22.043105,11.32322 32.158766,21.979434 L 37.068811,17.246167 C 37.068811,17.246167 37.088388,32 37.088388,32 L 22.160133,31.978069 C 22.160133,31.978069 26.997745,27.140456 26.997745,27.140456 C 18.528582,18.264221 13.291696,25.230495 11.500037,31.436501 z"
             style="fill:#404040;"/>
          </a>
         </g>
        </svg>
</svg>
