<?xml version="1.0" encoding="UTF-8" standalone="no"?>
<!DOCTYPE svg PUBLIC "-//W3C//DTD SVG 1.1//EN"
 "http://www.w3.org/Graphics/SVG/1.1/DTD/svg11.dtd">
<!-- Generated by graphviz version 2.40.1 (20161225.0304)
 -->
<!-- Title: src/libaktualizr/utilities/events.h Pages: 1 -->
<svg width="1885pt" height="330pt"
 viewBox="0.00 0.00 1884.95 330.00" xmlns="http://www.w3.org/2000/svg" xmlns:xlink="http://www.w3.org/1999/xlink">
<g id="graph0" class="graph" transform="scale(1 1) rotate(0) translate(4 326)">
<title>src/libaktualizr/utilities/events.h</title>
<polygon fill="#ffffff" stroke="transparent" points="-4,4 -4,-326 1880.9535,-326 1880.9535,4 -4,4"/>
<!-- Node0 -->
<g id="node1" class="node">
<title>Node0</title>
<polygon fill="#bfbfbf" stroke="#000000" points="1440.4535,-291.5 1440.4535,-321.5 1553.4535,-321.5 1553.4535,-291.5 1440.4535,-291.5"/>
<text text-anchor="start" x="1448.4535" y="-309.5" font-family="Helvetica,sans-Serif" font-size="10.00" fill="#000000">src/libaktualizr/utilities</text>
<text text-anchor="middle" x="1496.9535" y="-298.5" font-family="Helvetica,sans-Serif" font-size="10.00" fill="#000000">/events.h</text>
</g>
<!-- Node1 -->
<g id="node2" class="node">
<title>Node1</title>
<polygon fill="#ffffff" stroke="#bfbfbf" points="541.9535,-.5 541.9535,-19.5 593.9535,-19.5 593.9535,-.5 541.9535,-.5"/>
<text text-anchor="middle" x="567.9535" y="-7.5" font-family="Helvetica,sans-Serif" font-size="10.00" fill="#000000">memory</text>
</g>
<!-- Node0&#45;&gt;Node1 -->
<g id="edge1" class="edge">
<title>Node0&#45;&gt;Node1</title>
<path fill="none" stroke="#191970" d="M1440.1733,-305.0674C1167.0936,-297.8125 1.9535,-262.5486 1.9535,-189 1.9535,-189 1.9535,-189 1.9535,-133 1.9535,-97.7513 -5.8606,-78.8795 20.9535,-56 59.7072,-22.9328 415.3357,-13.0128 531.4614,-10.6417"/>
<polygon fill="#191970" stroke="#191970" points="531.6911,-14.1379 541.6201,-10.4412 531.5529,-7.1393 531.6911,-14.1379"/>
</g>
<!-- Node2 -->
<g id="node3" class="node">
<title>Node2</title>
<polygon fill="#ffffff" stroke="#bfbfbf" points="1669.4535,-.5 1669.4535,-19.5 1710.4535,-19.5 1710.4535,-.5 1669.4535,-.5"/>
<text text-anchor="middle" x="1689.9535" y="-7.5" font-family="Helvetica,sans-Serif" font-size="10.00" fill="#000000">string</text>
</g>
<!-- Node0&#45;&gt;Node2 -->
<g id="edge2" class="edge">
<title>Node0&#45;&gt;Node2</title>
<path fill="none" stroke="#191970" d="M1553.6399,-292.3804C1628.4995,-272.0452 1750.9535,-232.1817 1750.9535,-189 1750.9535,-189 1750.9535,-189 1750.9535,-133 1750.9535,-91.7852 1723.125,-50.1325 1705.0603,-27.4359"/>
<polygon fill="#191970" stroke="#191970" points="1707.7526,-25.1994 1698.6933,-19.7058 1702.3495,-29.6498 1707.7526,-25.1994"/>
</g>
<!-- Node3 -->
<g id="node4" class="node">
<title>Node3</title>
<polygon fill="#ffffff" stroke="#bfbfbf" points="1778.9535,-235.5 1778.9535,-254.5 1876.9535,-254.5 1876.9535,-235.5 1778.9535,-235.5"/>
<text text-anchor="middle" x="1827.9535" y="-242.5" font-family="Helvetica,sans-Serif" font-size="10.00" fill="#000000">boost/signals2.hpp</text>
</g>
<!-- Node0&#45;&gt;Node3 -->
<g id="edge3" class="edge">
<title>Node0&#45;&gt;Node3</title>
<path fill="none" stroke="#191970" d="M1553.4784,-295.9977C1613.5588,-284.8347 1708.1309,-267.2631 1769.089,-255.9371"/>
<polygon fill="#191970" stroke="#191970" points="1769.753,-259.3737 1778.9453,-254.1058 1768.4742,-252.4915 1769.753,-259.3737"/>
</g>
<!-- Node4 -->
<g id="node5" class="node">
<title>Node4</title>
<g id="a_node5"><a xlink:href="tuf_8h_source.html" target="_top" xlink:title="uptane/tuf.h">
<polygon fill="#ffffff" stroke="#000000" points="1424.9535,-179.5 1424.9535,-198.5 1492.9535,-198.5 1492.9535,-179.5 1424.9535,-179.5"/>
<text text-anchor="middle" x="1458.9535" y="-186.5" font-family="Helvetica,sans-Serif" font-size="10.00" fill="#000000">uptane/tuf.h</text>
</a>
</g>
</g>
<!-- Node0&#45;&gt;Node4 -->
<g id="edge4" class="edge">
<title>Node0&#45;&gt;Node4</title>
<path fill="none" stroke="#191970" d="M1491.852,-291.1905C1488.4529,-280.9545 1483.9018,-267.1812 1479.9535,-255 1474.9136,-239.4508 1469.3048,-221.8052 1465.1524,-208.6739"/>
<polygon fill="#191970" stroke="#191970" points="1468.3994,-207.3331 1462.0514,-198.8506 1461.7242,-209.4404 1468.3994,-207.3331"/>
</g>
<!-- Node24 -->
<g id="node25" class="node">
<title>Node24</title>
<g id="a_node25"><a xlink:href="types_8h.html" target="_top" xlink:title="utilities/types.h">
<polygon fill="#ffffff" stroke="#000000" points="1429.4535,-62 1429.4535,-81 1512.4535,-81 1512.4535,-62 1429.4535,-62"/>
<text text-anchor="middle" x="1470.9535" y="-69" font-family="Helvetica,sans-Serif" font-size="10.00" fill="#000000">utilities/types.h</text>
</a>
</g>
</g>
<!-- Node0&#45;&gt;Node24 -->
<g id="edge45" class="edge">
<title>Node0&#45;&gt;Node24</title>
<path fill="none" stroke="#191970" d="M1473.4062,-291.408C1436.2749,-266.0304 1365.5122,-210.8679 1337.9535,-143 1334.6093,-134.7642 1332.9295,-130.3329 1337.9535,-123 1343.574,-114.7965 1394.5131,-96.6091 1431.6812,-84.1983"/>
<polygon fill="#191970" stroke="#191970" points="1432.8812,-87.4879 1441.2733,-81.0208 1430.6799,-80.843 1432.8812,-87.4879"/>
</g>
<!-- Node31 -->
<g id="node32" class="node">
<title>Node31</title>
<g id="a_node32"><a xlink:href="results_8h.html" target="_top" xlink:title="utilities/results.h">
<polygon fill="#ffffff" stroke="#000000" points="1488.9535,-235.5 1488.9535,-254.5 1576.9535,-254.5 1576.9535,-235.5 1488.9535,-235.5"/>
<text text-anchor="middle" x="1532.9535" y="-242.5" font-family="Helvetica,sans-Serif" font-size="10.00" fill="#000000">utilities/results.h</text>
</a>
</g>
</g>
<!-- Node0&#45;&gt;Node31 -->
<g id="edge40" class="edge">
<title>Node0&#45;&gt;Node31</title>
<path fill="none" stroke="#191970" d="M1505.8524,-291.2977C1510.7455,-282.9388 1516.8562,-272.4997 1522.0359,-263.6509"/>
<polygon fill="#191970" stroke="#191970" points="1525.1582,-265.2452 1527.1895,-254.8469 1519.1171,-261.7089 1525.1582,-265.2452"/>
</g>
<!-- Node5 -->
<g id="node6" class="node">
<title>Node5</title>
<polygon fill="#ffffff" stroke="#bfbfbf" points="1347.4535,-123.5 1347.4535,-142.5 1406.4535,-142.5 1406.4535,-123.5 1347.4535,-123.5"/>
<text text-anchor="middle" x="1376.9535" y="-130.5" font-family="Helvetica,sans-Serif" font-size="10.00" fill="#000000">functional</text>
</g>
<!-- Node4&#45;&gt;Node5 -->
<g id="edge5" class="edge">
<title>Node4&#45;&gt;Node5</title>
<path fill="none" stroke="#191970" d="M1444.6702,-179.2455C1432.2065,-170.7337 1413.9084,-158.2375 1399.4744,-148.3801"/>
<polygon fill="#191970" stroke="#191970" points="1401.3051,-145.392 1391.0732,-142.6427 1397.3573,-151.1726 1401.3051,-145.392"/>
</g>
<!-- Node6 -->
<g id="node7" class="node">
<title>Node6</title>
<polygon fill="#ffffff" stroke="#bfbfbf" points="1424.9535,-123.5 1424.9535,-142.5 1476.9535,-142.5 1476.9535,-123.5 1424.9535,-123.5"/>
<text text-anchor="middle" x="1450.9535" y="-130.5" font-family="Helvetica,sans-Serif" font-size="10.00" fill="#000000">ostream</text>
</g>
<!-- Node4&#45;&gt;Node6 -->
<g id="edge6" class="edge">
<title>Node4&#45;&gt;Node6</title>
<path fill="none" stroke="#191970" d="M1457.56,-179.2455C1456.5161,-171.9382 1455.0527,-161.6944 1453.7685,-152.7046"/>
<polygon fill="#191970" stroke="#191970" points="1457.2102,-152.0472 1452.331,-142.6427 1450.2805,-153.0372 1457.2102,-152.0472"/>
</g>
<!-- Node7 -->
<g id="node8" class="node">
<title>Node7</title>
<polygon fill="#ffffff" stroke="#bfbfbf" points="1494.9535,-123.5 1494.9535,-142.5 1524.9535,-142.5 1524.9535,-123.5 1494.9535,-123.5"/>
<text text-anchor="middle" x="1509.9535" y="-130.5" font-family="Helvetica,sans-Serif" font-size="10.00" fill="#000000">set</text>
</g>
<!-- Node4&#45;&gt;Node7 -->
<g id="edge7" class="edge">
<title>Node4&#45;&gt;Node7</title>
<path fill="none" stroke="#191970" d="M1467.837,-179.2455C1475.1501,-171.2155 1485.6927,-159.6394 1494.4002,-150.0781"/>
<polygon fill="#191970" stroke="#191970" points="1497.0262,-152.3928 1501.1718,-142.6427 1491.8508,-147.6795 1497.0262,-152.3928"/>
</g>
<!-- Node8 -->
<g id="node9" class="node">
<title>Node8</title>
<g id="a_node9"><a xlink:href="uptane_2exceptions_8h_source.html" target="_top" xlink:title="uptane/exceptions.h">
<polygon fill="#ffffff" stroke="#000000" points="1580.9535,-123.5 1580.9535,-142.5 1684.9535,-142.5 1684.9535,-123.5 1580.9535,-123.5"/>
<text text-anchor="middle" x="1632.9535" y="-130.5" font-family="Helvetica,sans-Serif" font-size="10.00" fill="#000000">uptane/exceptions.h</text>
</a>
</g>
</g>
<!-- Node4&#45;&gt;Node8 -->
<g id="edge8" class="edge">
<title>Node4&#45;&gt;Node8</title>
<path fill="none" stroke="#191970" d="M1488.8652,-179.3733C1517.7987,-170.0613 1561.8147,-155.8953 1593.5828,-145.671"/>
<polygon fill="#191970" stroke="#191970" points="1594.9853,-148.8965 1603.4322,-142.5011 1592.8407,-142.2331 1594.9853,-148.8965"/>
</g>
<!-- Node11 -->
<g id="node12" class="node">
<title>Node11</title>
<g id="a_node12"><a xlink:href="crypto_8h_source.html" target="_top" xlink:title="crypto/crypto.h">
<polygon fill="#ffffff" stroke="#000000" points="831.9535,-123.5 831.9535,-142.5 913.9535,-142.5 913.9535,-123.5 831.9535,-123.5"/>
<text text-anchor="middle" x="872.9535" y="-130.5" font-family="Helvetica,sans-Serif" font-size="10.00" fill="#000000">crypto/crypto.h</text>
</a>
</g>
</g>
<!-- Node4&#45;&gt;Node11 -->
<g id="edge12" class="edge">
<title>Node4&#45;&gt;Node11</title>
<path fill="none" stroke="#191970" d="M1424.9148,-185.7472C1326.5122,-176.3435 1041.2617,-149.0841 924.1039,-137.8881"/>
<polygon fill="#191970" stroke="#191970" points="924.2528,-134.3865 913.9652,-136.9192 923.5868,-141.3547 924.2528,-134.3865"/>
</g>
<!-- Node4&#45;&gt;Node24 -->
<g id="edge39" class="edge">
<title>Node4&#45;&gt;Node24</title>
<path fill="none" stroke="#191970" d="M1487.7643,-179.4613C1504.4726,-172.274 1524.105,-160.5938 1533.9535,-143 1546.312,-120.9224 1521.4225,-99.7064 1499.3773,-86.2014"/>
<polygon fill="#191970" stroke="#191970" points="1500.9393,-83.0614 1490.5321,-81.0764 1497.4299,-89.1182 1500.9393,-83.0614"/>
</g>
<!-- Node8&#45;&gt;Node2 -->
<g id="edge10" class="edge">
<title>Node8&#45;&gt;Node2</title>
<path fill="none" stroke="#191970" d="M1637.4262,-123.3484C1646.8328,-103.0499 1668.8109,-55.6235 1681.1495,-28.9981"/>
<polygon fill="#191970" stroke="#191970" points="1684.4725,-30.1515 1685.5016,-19.6068 1678.1214,-27.2083 1684.4725,-30.1515"/>
</g>
<!-- Node9 -->
<g id="node10" class="node">
<title>Node9</title>
<polygon fill="#ffffff" stroke="#bfbfbf" points="1592.4535,-.5 1592.4535,-19.5 1651.4535,-19.5 1651.4535,-.5 1592.4535,-.5"/>
<text text-anchor="middle" x="1621.9535" y="-7.5" font-family="Helvetica,sans-Serif" font-size="10.00" fill="#000000">stdexcept</text>
</g>
<!-- Node8&#45;&gt;Node9 -->
<g id="edge9" class="edge">
<title>Node8&#45;&gt;Node9</title>
<path fill="none" stroke="#191970" d="M1632.0904,-123.3484C1630.2911,-103.2295 1626.1086,-56.4608 1623.7162,-29.7098"/>
<polygon fill="#191970" stroke="#191970" points="1627.1896,-29.2552 1622.8127,-19.6068 1620.2174,-29.8788 1627.1896,-29.2552"/>
</g>
<!-- Node10 -->
<g id="node11" class="node">
<title>Node10</title>
<polygon fill="#ffffff" stroke="#bfbfbf" points="1568.9535,-62 1568.9535,-81 1608.9535,-81 1608.9535,-62 1568.9535,-62"/>
<text text-anchor="middle" x="1588.9535" y="-69" font-family="Helvetica,sans-Serif" font-size="10.00" fill="#000000">utility</text>
</g>
<!-- Node8&#45;&gt;Node10 -->
<g id="edge11" class="edge">
<title>Node8&#45;&gt;Node10</title>
<path fill="none" stroke="#191970" d="M1626.0785,-123.3906C1619.5942,-114.3273 1609.7121,-100.5149 1601.7735,-89.4188"/>
<polygon fill="#191970" stroke="#191970" points="1604.5906,-87.3412 1595.9255,-81.2449 1598.8976,-91.4143 1604.5906,-87.3412"/>
</g>
<!-- Node11&#45;&gt;Node2 -->
<g id="edge25" class="edge">
<title>Node11&#45;&gt;Node2</title>
<path fill="none" stroke="#191970" d="M914.0763,-131.4951C1047.7452,-126.4082 1464.5935,-108.9402 1520.9535,-87 1541.5873,-78.9675 1540.5845,-66.729 1559.9535,-56 1564.4879,-53.4883 1622.4022,-33.316 1659.3846,-20.5321"/>
<polygon fill="#191970" stroke="#191970" points="1660.8888,-23.7155 1669.1987,-17.1431 1658.6039,-17.0989 1660.8888,-23.7155"/>
</g>
<!-- Node11&#45;&gt;Node10 -->
<g id="edge26" class="edge">
<title>Node11&#45;&gt;Node10</title>
<path fill="none" stroke="#191970" d="M914.2943,-132.1533C1042.5748,-129.2212 1432.5644,-117.9307 1554.9535,-87 1557.1509,-86.4447 1559.3818,-85.7522 1561.5961,-84.9704"/>
<polygon fill="#191970" stroke="#191970" points="1563.1038,-88.1355 1571.0423,-81.1191 1560.461,-81.6535 1563.1038,-88.1355"/>
</g>
<!-- Node12 -->
<g id="node13" class="node">
<title>Node12</title>
<polygon fill="#ffffff" stroke="#bfbfbf" points="29.9535,-62 29.9535,-81 119.9535,-81 119.9535,-62 29.9535,-62"/>
<text text-anchor="middle" x="74.9535" y="-69" font-family="Helvetica,sans-Serif" font-size="10.00" fill="#000000">openssl/engine.h</text>
</g>
<!-- Node11&#45;&gt;Node12 -->
<g id="edge13" class="edge">
<title>Node11&#45;&gt;Node12</title>
<path fill="none" stroke="#191970" d="M831.894,-131.6398C696.6358,-126.9744 265.893,-110.5962 128.9535,-87 123.9163,-86.132 118.6784,-84.9699 113.5332,-83.6703"/>
<polygon fill="#191970" stroke="#191970" points="114.3971,-80.2783 103.8299,-81.0432 112.5677,-87.035 114.3971,-80.2783"/>
</g>
<!-- Node13 -->
<g id="node14" class="node">
<title>Node13</title>
<polygon fill="#ffffff" stroke="#bfbfbf" points="138.4535,-62 138.4535,-81 211.4535,-81 211.4535,-62 138.4535,-62"/>
<text text-anchor="middle" x="174.9535" y="-69" font-family="Helvetica,sans-Serif" font-size="10.00" fill="#000000">openssl/err.h</text>
</g>
<!-- Node11&#45;&gt;Node13 -->
<g id="edge14" class="edge">
<title>Node11&#45;&gt;Node13</title>
<path fill="none" stroke="#191970" d="M831.7359,-131.5055C707.4789,-126.7778 337.8564,-111.0256 219.9535,-87 216.2544,-86.2462 212.4424,-85.2678 208.6755,-84.1689"/>
<polygon fill="#191970" stroke="#191970" points="209.5095,-80.7611 198.9186,-81.0505 207.3783,-87.4288 209.5095,-80.7611"/>
</g>
<!-- Node14 -->
<g id="node15" class="node">
<title>Node14</title>
<polygon fill="#ffffff" stroke="#bfbfbf" points="229.4535,-62 229.4535,-81 306.4535,-81 306.4535,-62 229.4535,-62"/>
<text text-anchor="middle" x="267.9535" y="-69" font-family="Helvetica,sans-Serif" font-size="10.00" fill="#000000">openssl/evp.h</text>
</g>
<!-- Node11&#45;&gt;Node14 -->
<g id="edge15" class="edge">
<title>Node11&#45;&gt;Node14</title>
<path fill="none" stroke="#191970" d="M831.907,-130.8773C720.4714,-124.9136 414.0221,-107.1238 314.9535,-87 311.0856,-86.2143 307.0924,-85.2115 303.1434,-84.0948"/>
<polygon fill="#191970" stroke="#191970" points="304.1018,-80.7278 293.5151,-81.143 302.05,-87.4204 304.1018,-80.7278"/>
</g>
<!-- Node15 -->
<g id="node16" class="node">
<title>Node15</title>
<polygon fill="#ffffff" stroke="#bfbfbf" points="324.4535,-62 324.4535,-81 425.4535,-81 425.4535,-62 324.4535,-62"/>
<text text-anchor="middle" x="374.9535" y="-69" font-family="Helvetica,sans-Serif" font-size="10.00" fill="#000000">openssl/opensslv.h</text>
</g>
<!-- Node11&#45;&gt;Node15 -->
<g id="edge16" class="edge">
<title>Node11&#45;&gt;Node15</title>
<path fill="none" stroke="#191970" d="M831.9075,-130.7244C754.0144,-125.9572 579.6063,-113.1316 434.9535,-87 429.5275,-86.0198 423.8694,-84.8108 418.2895,-83.504"/>
<polygon fill="#191970" stroke="#191970" points="418.9434,-80.0607 408.3972,-81.0743 417.2737,-86.8586 418.9434,-80.0607"/>
</g>
<!-- Node16 -->
<g id="node17" class="node">
<title>Node16</title>
<polygon fill="#ffffff" stroke="#bfbfbf" points="443.9535,-62 443.9535,-81 523.9535,-81 523.9535,-62 443.9535,-62"/>
<text text-anchor="middle" x="483.9535" y="-69" font-family="Helvetica,sans-Serif" font-size="10.00" fill="#000000">openssl/pem.h</text>
</g>
<!-- Node11&#45;&gt;Node16 -->
<g id="edge17" class="edge">
<title>Node11&#45;&gt;Node16</title>
<path fill="none" stroke="#191970" d="M831.728,-129.7258C767.3569,-124.0984 639.3212,-110.833 532.9535,-87 529.0492,-86.1252 525.0091,-85.0812 521.0007,-83.9543"/>
<polygon fill="#191970" stroke="#191970" points="521.7806,-80.5346 511.1974,-81.0309 519.7802,-87.2427 521.7806,-80.5346"/>
</g>
<!-- Node17 -->
<g id="node18" class="node">
<title>Node17</title>
<polygon fill="#ffffff" stroke="#bfbfbf" points="542.4535,-62 542.4535,-81 635.4535,-81 635.4535,-62 542.4535,-62"/>
<text text-anchor="middle" x="588.9535" y="-69" font-family="Helvetica,sans-Serif" font-size="10.00" fill="#000000">openssl/pkcs12.h</text>
</g>
<!-- Node11&#45;&gt;Node17 -->
<g id="edge18" class="edge">
<title>Node11&#45;&gt;Node17</title>
<path fill="none" stroke="#191970" d="M831.572,-125.5649C785.7411,-117.1183 709.7576,-102.4851 644.9535,-87 640.6426,-85.9699 636.1618,-84.8368 631.6965,-83.6664"/>
<polygon fill="#191970" stroke="#191970" points="632.5832,-80.2806 622.0178,-81.0701 630.7695,-87.0416 632.5832,-80.2806"/>
</g>
<!-- Node18 -->
<g id="node19" class="node">
<title>Node18</title>
<polygon fill="#ffffff" stroke="#bfbfbf" points="653.9535,-62 653.9535,-81 733.9535,-81 733.9535,-62 653.9535,-62"/>
<text text-anchor="middle" x="693.9535" y="-69" font-family="Helvetica,sans-Serif" font-size="10.00" fill="#000000">openssl/rand.h</text>
</g>
<!-- Node11&#45;&gt;Node18 -->
<g id="edge19" class="edge">
<title>Node11&#45;&gt;Node18</title>
<path fill="none" stroke="#191970" d="M844.9848,-123.3906C814.378,-112.8749 765.1636,-95.966 731.2795,-84.3243"/>
<polygon fill="#191970" stroke="#191970" points="732.3205,-80.9812 721.7259,-81.0419 730.046,-87.6014 732.3205,-80.9812"/>
</g>
<!-- Node19 -->
<g id="node20" class="node">
<title>Node19</title>
<polygon fill="#ffffff" stroke="#bfbfbf" points="752.4535,-62 752.4535,-81 827.4535,-81 827.4535,-62 752.4535,-62"/>
<text text-anchor="middle" x="789.9535" y="-69" font-family="Helvetica,sans-Serif" font-size="10.00" fill="#000000">openssl/rsa.h</text>
</g>
<!-- Node11&#45;&gt;Node19 -->
<g id="edge20" class="edge">
<title>Node11&#45;&gt;Node19</title>
<path fill="none" stroke="#191970" d="M859.9848,-123.3906C846.9501,-113.7324 826.6371,-98.6812 811.238,-87.271"/>
<polygon fill="#191970" stroke="#191970" points="812.9497,-84.1832 802.8312,-81.0419 808.7822,-89.8075 812.9497,-84.1832"/>
</g>
<!-- Node20 -->
<g id="node21" class="node">
<title>Node20</title>
<polygon fill="#ffffff" stroke="#bfbfbf" points="844.9535,-62 844.9535,-81 900.9535,-81 900.9535,-62 844.9535,-62"/>
<text text-anchor="middle" x="872.9535" y="-69" font-family="Helvetica,sans-Serif" font-size="10.00" fill="#000000">sodium.h</text>
</g>
<!-- Node11&#45;&gt;Node20 -->
<g id="edge21" class="edge">
<title>Node11&#45;&gt;Node20</title>
<path fill="none" stroke="#191970" d="M872.9535,-123.3906C872.9535,-114.8657 872.9535,-102.1392 872.9535,-91.4235"/>
<polygon fill="#191970" stroke="#191970" points="876.4536,-91.2448 872.9535,-81.2449 869.4536,-91.2449 876.4536,-91.2448"/>
</g>
<!-- Node21 -->
<g id="node22" class="node">
<title>Node21</title>
<polygon fill="#ffffff" stroke="#bfbfbf" points="919.4535,-62 919.4535,-81 1040.4535,-81 1040.4535,-62 919.4535,-62"/>
<text text-anchor="middle" x="979.9535" y="-69" font-family="Helvetica,sans-Serif" font-size="10.00" fill="#000000">boost/algorithm/hex.hpp</text>
</g>
<!-- Node11&#45;&gt;Node21 -->
<g id="edge22" class="edge">
<title>Node11&#45;&gt;Node21</title>
<path fill="none" stroke="#191970" d="M889.6723,-123.3906C907.0257,-113.4165 934.3858,-97.6908 954.4417,-86.1633"/>
<polygon fill="#191970" stroke="#191970" points="956.4264,-89.0596 963.3522,-81.0419 952.9381,-82.9907 956.4264,-89.0596"/>
</g>
<!-- Node22 -->
<g id="node23" class="node">
<title>Node22</title>
<polygon fill="#ffffff" stroke="#bfbfbf" points="1058.4535,-62 1058.4535,-81 1187.4535,-81 1187.4535,-62 1058.4535,-62"/>
<text text-anchor="middle" x="1122.9535" y="-69" font-family="Helvetica,sans-Serif" font-size="10.00" fill="#000000">boost/algorithm/string.hpp</text>
</g>
<!-- Node11&#45;&gt;Node22 -->
<g id="edge23" class="edge">
<title>Node11&#45;&gt;Node22</title>
<path fill="none" stroke="#191970" d="M911.7417,-123.4581C955.5319,-112.6857 1026.8444,-95.1428 1074.3231,-83.4631"/>
<polygon fill="#191970" stroke="#191970" points="1075.1999,-86.8518 1084.0743,-81.0643 1073.5277,-80.0545 1075.1999,-86.8518"/>
</g>
<!-- Node23 -->
<g id="node24" class="node">
<title>Node23</title>
<polygon fill="#ffffff" stroke="#bfbfbf" points="1205.9535,-56.5 1205.9535,-86.5 1315.9535,-86.5 1315.9535,-56.5 1205.9535,-56.5"/>
<text text-anchor="start" x="1213.9535" y="-74.5" font-family="Helvetica,sans-Serif" font-size="10.00" fill="#000000">boost/algorithm/string</text>
<text text-anchor="middle" x="1260.9535" y="-63.5" font-family="Helvetica,sans-Serif" font-size="10.00" fill="#000000">/case_conv.hpp</text>
</g>
<!-- Node11&#45;&gt;Node23 -->
<g id="edge24" class="edge">
<title>Node11&#45;&gt;Node23</title>
<path fill="none" stroke="#191970" d="M914.2,-128.3669C973.9381,-121.3853 1088.186,-107.0163 1195.6657,-86.9384"/>
<polygon fill="#191970" stroke="#191970" points="1196.5334,-90.3365 1205.7101,-85.0413 1195.2343,-83.4581 1196.5334,-90.3365"/>
</g>
<!-- Node11&#45;&gt;Node24 -->
<g id="edge27" class="edge">
<title>Node11&#45;&gt;Node24</title>
<path fill="none" stroke="#191970" d="M914.1845,-132.4931C1005.9093,-130.7221 1233.4656,-122.7636 1419.9535,-87 1424.4196,-86.1435 1429.0504,-85.0447 1433.6179,-83.8282"/>
<polygon fill="#191970" stroke="#191970" points="1434.7741,-87.138 1443.4278,-81.0253 1432.851,-80.4073 1434.7741,-87.138"/>
</g>
<!-- Node27 -->
<g id="node28" class="node">
<title>Node27</title>
<g id="a_node28"><a xlink:href="utils_8h_source.html" target="_top" xlink:title="utilities/utils.h">
<polygon fill="#ffffff" stroke="#000000" points="1334.4535,-62 1334.4535,-81 1411.4535,-81 1411.4535,-62 1334.4535,-62"/>
<text text-anchor="middle" x="1372.9535" y="-69" font-family="Helvetica,sans-Serif" font-size="10.00" fill="#000000">utilities/utils.h</text>
</a>
</g>
</g>
<!-- Node11&#45;&gt;Node27 -->
<g id="edge31" class="edge">
<title>Node11&#45;&gt;Node27</title>
<path fill="none" stroke="#191970" d="M914.2225,-131.7072C994.2488,-128.5627 1175.7731,-118.311 1324.9535,-87 1328.8905,-86.1737 1332.9602,-85.1448 1336.9881,-84.0127"/>
<polygon fill="#191970" stroke="#191970" points="1338.2556,-87.2861 1346.8153,-81.0424 1336.2303,-80.5854 1338.2556,-87.2861"/>
</g>
<!-- Node24&#45;&gt;Node9 -->
<g id="edge30" class="edge">
<title>Node24&#45;&gt;Node9</title>
<path fill="none" stroke="#191970" d="M1494.5473,-61.8906C1519.9232,-51.5554 1560.4616,-35.0447 1588.9829,-23.4284"/>
<polygon fill="#191970" stroke="#191970" points="1590.5843,-26.5554 1598.5255,-19.5419 1587.9439,-20.0725 1590.5843,-26.5554"/>
</g>
<!-- Node25 -->
<g id="node26" class="node">
<title>Node25</title>
<polygon fill="#ffffff" stroke="#bfbfbf" points="1509.9535,-.5 1509.9535,-19.5 1573.9535,-19.5 1573.9535,-.5 1509.9535,-.5"/>
<text text-anchor="middle" x="1541.9535" y="-7.5" font-family="Helvetica,sans-Serif" font-size="10.00" fill="#000000">json/json.h</text>
</g>
<!-- Node24&#45;&gt;Node25 -->
<g id="edge28" class="edge">
<title>Node24&#45;&gt;Node25</title>
<path fill="none" stroke="#191970" d="M1482.0473,-61.8906C1492.925,-52.4683 1509.7283,-37.9134 1522.7735,-26.6137"/>
<polygon fill="#191970" stroke="#191970" points="1525.4363,-28.9377 1530.7034,-19.7449 1520.8531,-23.6466 1525.4363,-28.9377"/>
</g>
<!-- Node26 -->
<g id="node27" class="node">
<title>Node26</title>
<polygon fill="#ffffff" stroke="#bfbfbf" points="1384.4535,-.5 1384.4535,-19.5 1491.4535,-19.5 1491.4535,-.5 1384.4535,-.5"/>
<text text-anchor="middle" x="1437.9535" y="-7.5" font-family="Helvetica,sans-Serif" font-size="10.00" fill="#000000">boost/filesystem.hpp</text>
</g>
<!-- Node24&#45;&gt;Node26 -->
<g id="edge29" class="edge">
<title>Node24&#45;&gt;Node26</title>
<path fill="none" stroke="#191970" d="M1465.7973,-61.8906C1461.0303,-53.0068 1453.815,-39.5601 1447.9239,-28.5811"/>
<polygon fill="#191970" stroke="#191970" points="1450.9948,-26.9016 1443.1825,-19.7449 1444.8266,-30.2114 1450.9948,-26.9016"/>
</g>
<!-- Node27&#45;&gt;Node1 -->
<g id="edge34" class="edge">
<title>Node27&#45;&gt;Node1</title>
<path fill="none" stroke="#191970" d="M1347.3553,-61.92C1340.1992,-59.604 1332.354,-57.3966 1324.9535,-56 1184.1649,-29.4314 735.6594,-14.7913 604.3818,-10.9997"/>
<polygon fill="#191970" stroke="#191970" points="604.172,-7.4924 594.0762,-10.7056 603.9723,-14.4896 604.172,-7.4924"/>
</g>
<!-- Node27&#45;&gt;Node2 -->
<g id="edge35" class="edge">
<title>Node27&#45;&gt;Node2</title>
<path fill="none" stroke="#191970" d="M1399.5704,-61.8494C1406.1688,-59.6998 1413.2663,-57.5899 1419.9535,-56 1522.2293,-31.6837 1553.9142,-44.9274 1659.4225,-20.035"/>
<polygon fill="#191970" stroke="#191970" points="1660.2843,-23.4276 1669.1813,-17.6749 1658.6387,-16.6238 1660.2843,-23.4276"/>
</g>
<!-- Node27&#45;&gt;Node25 -->
<g id="edge38" class="edge">
<title>Node27&#45;&gt;Node25</title>
<path fill="none" stroke="#191970" d="M1399.3598,-61.8906C1428.1327,-51.42 1474.3231,-34.6111 1506.3001,-22.9745"/>
<polygon fill="#191970" stroke="#191970" points="1507.5325,-26.2506 1515.7327,-19.5419 1505.1387,-19.6726 1507.5325,-26.2506"/>
</g>
<!-- Node27&#45;&gt;Node26 -->
<g id="edge33" class="edge">
<title>Node27&#45;&gt;Node26</title>
<path fill="none" stroke="#191970" d="M1383.1098,-61.8906C1392.9734,-52.5581 1408.159,-38.1902 1420.0522,-26.9374"/>
<polygon fill="#191970" stroke="#191970" points="1422.7956,-29.1601 1427.6541,-19.7449 1417.9846,-24.0753 1422.7956,-29.1601"/>
</g>
<!-- Node28 -->
<g id="node29" class="node">
<title>Node28</title>
<polygon fill="#ffffff" stroke="#bfbfbf" points="1246.4535,-.5 1246.4535,-19.5 1289.4535,-19.5 1289.4535,-.5 1246.4535,-.5"/>
<text text-anchor="middle" x="1267.9535" y="-7.5" font-family="Helvetica,sans-Serif" font-size="10.00" fill="#000000">glob.h</text>
</g>
<!-- Node27&#45;&gt;Node28 -->
<g id="edge32" class="edge">
<title>Node27&#45;&gt;Node28</title>
<path fill="none" stroke="#191970" d="M1356.5473,-61.8906C1339.5182,-51.9165 1312.6695,-36.1908 1292.9885,-24.6633"/>
<polygon fill="#191970" stroke="#191970" points="1294.6423,-21.5759 1284.2446,-19.5419 1291.1045,-27.6161 1294.6423,-21.5759"/>
</g>
<!-- Node29 -->
<g id="node30" class="node">
<title>Node29</title>
<polygon fill="#ffffff" stroke="#bfbfbf" points="1307.4535,-.5 1307.4535,-19.5 1366.4535,-19.5 1366.4535,-.5 1307.4535,-.5"/>
<text text-anchor="middle" x="1336.9535" y="-7.5" font-family="Helvetica,sans-Serif" font-size="10.00" fill="#000000">curl/curl.h</text>
</g>
<!-- Node27&#45;&gt;Node29 -->
<g id="edge36" class="edge">
<title>Node27&#45;&gt;Node29</title>
<path fill="none" stroke="#191970" d="M1367.3285,-61.8906C1362.1282,-53.0068 1354.257,-39.5601 1347.8303,-28.5811"/>
<polygon fill="#191970" stroke="#191970" points="1350.7302,-26.6069 1342.6578,-19.7449 1344.6891,-30.1432 1350.7302,-26.6069"/>
</g>
<!-- Node30 -->
<g id="node31" class="node">
<title>Node30</title>
<polygon fill="#ffffff" stroke="#bfbfbf" points="1163.4535,-.5 1163.4535,-19.5 1228.4535,-19.5 1228.4535,-.5 1163.4535,-.5"/>
<text text-anchor="middle" x="1195.9535" y="-7.5" font-family="Helvetica,sans-Serif" font-size="10.00" fill="#000000">netinet/in.h</text>
</g>
<!-- Node27&#45;&gt;Node30 -->
<g id="edge37" class="edge">
<title>Node27&#45;&gt;Node30</title>
<path fill="none" stroke="#191970" d="M1345.2973,-61.8906C1315.0325,-51.3749 1266.368,-34.466 1232.8624,-22.8243"/>
<polygon fill="#191970" stroke="#191970" points="1234.0104,-19.5179 1223.4156,-19.5419 1231.7129,-26.1302 1234.0104,-19.5179"/>
</g>
<!-- Node31&#45;&gt;Node2 -->
<g id="edge41" class="edge">
<title>Node31&#45;&gt;Node2</title>
<path fill="none" stroke="#191970" d="M1577.1905,-238.4157C1619.8153,-231.0599 1679.8614,-217.6824 1693.9535,-199 1732.0887,-148.443 1710.4648,-66.7273 1697.5008,-29.5444"/>
<polygon fill="#191970" stroke="#191970" points="1700.6994,-28.0998 1693.9807,-19.9077 1694.1243,-30.5016 1700.6994,-28.0998"/>
</g>
<!-- Node31&#45;&gt;Node4 -->
<g id="edge44" class="edge">
<title>Node31&#45;&gt;Node4</title>
<path fill="none" stroke="#191970" d="M1520.0637,-235.2455C1509.0282,-226.8943 1492.9243,-214.7076 1480.0182,-204.9408"/>
<polygon fill="#191970" stroke="#191970" points="1481.7818,-201.8862 1471.6956,-198.6427 1477.5577,-207.4681 1481.7818,-201.8862"/>
</g>
<!-- Node32 -->
<g id="node33" class="node">
<title>Node32</title>
<polygon fill="#ffffff" stroke="#bfbfbf" points="1510.9535,-179.5 1510.9535,-198.5 1554.9535,-198.5 1554.9535,-179.5 1510.9535,-179.5"/>
<text text-anchor="middle" x="1532.9535" y="-186.5" font-family="Helvetica,sans-Serif" font-size="10.00" fill="#000000">vector</text>
</g>
<!-- Node31&#45;&gt;Node32 -->
<g id="edge42" class="edge">
<title>Node31&#45;&gt;Node32</title>
<path fill="none" stroke="#191970" d="M1532.9535,-235.2455C1532.9535,-227.9382 1532.9535,-217.6944 1532.9535,-208.7046"/>
<polygon fill="#191970" stroke="#191970" points="1536.4536,-208.6426 1532.9535,-198.6427 1529.4536,-208.6427 1536.4536,-208.6426"/>
</g>
<!-- Node33 -->
<g id="node34" class="node">
<title>Node33</title>
<polygon fill="#ffffff" stroke="#bfbfbf" points="1572.9535,-179.5 1572.9535,-198.5 1684.9535,-198.5 1684.9535,-179.5 1572.9535,-179.5"/>
<text text-anchor="middle" x="1628.9535" y="-186.5" font-family="Helvetica,sans-Serif" font-size="10.00" fill="#000000">campaign/campaign.h</text>
</g>
<!-- Node31&#45;&gt;Node33 -->
<g id="edge43" class="edge">
<title>Node31&#45;&gt;Node33</title>
<path fill="none" stroke="#191970" d="M1549.6754,-235.2455C1564.5425,-226.5731 1586.5001,-213.7645 1603.5393,-203.825"/>
<polygon fill="#191970" stroke="#191970" points="1605.549,-206.7047 1612.4232,-198.6427 1602.0219,-200.6582 1605.549,-206.7047"/>
</g>
</g>
</svg>
