<?xml version="1.0" encoding="UTF-8" standalone="no"?>
<!DOCTYPE svg PUBLIC "-//W3C//DTD SVG 1.1//EN"
 "http://www.w3.org/Graphics/SVG/1.1/DTD/svg11.dtd">
<!-- Generated by graphviz version 2.38.0 (20140413.2041)
 -->
<!-- Title: src/libaktualizr/primary/events.h Pages: 1 -->
<svg width="2011pt" height="274pt"
 viewBox="0.00 0.00 2011.00 274.00" xmlns="http://www.w3.org/2000/svg" xmlns:xlink="http://www.w3.org/1999/xlink">
<g id="graph0" class="graph" transform="scale(1 1) rotate(0) translate(4 270)">
<title>src/libaktualizr/primary/events.h</title>
<polygon fill="white" stroke="none" points="-4,4 -4,-270 2007,-270 2007,4 -4,4"/>
<!-- Node0 -->
<g id="node1" class="node"><title>Node0</title>
<polygon fill="#bfbfbf" stroke="black" points="76,-235.5 76,-265.5 191,-265.5 191,-235.5 76,-235.5"/>
<text text-anchor="start" x="84" y="-253.5" font-family="Helvetica,sans-Serif" font-size="10.00">src/libaktualizr/primary</text>
<text text-anchor="middle" x="133.5" y="-242.5" font-family="Helvetica,sans-Serif" font-size="10.00">/events.h</text>
</g>
<!-- Node1 -->
<g id="node2" class="node"><title>Node1</title>
<polygon fill="white" stroke="#bfbfbf" points="0,-179.5 0,-198.5 35,-198.5 35,-179.5 0,-179.5"/>
<text text-anchor="middle" x="17.5" y="-186.5" font-family="Helvetica,sans-Serif" font-size="10.00">map</text>
</g>
<!-- Node0&#45;&gt;Node1 -->
<g id="edge1" class="edge"><title>Node0&#45;&gt;Node1</title>
<path fill="none" stroke="midnightblue" d="M106.01,-235.399C87.0681,-225.684 62.0577,-212.855 43.4562,-203.314"/>
<polygon fill="midnightblue" stroke="midnightblue" points="44.8742,-200.108 34.379,-198.658 41.6794,-206.336 44.8742,-200.108"/>
</g>
<!-- Node2 -->
<g id="node3" class="node"><title>Node2</title>
<polygon fill="white" stroke="#bfbfbf" points="101.5,-0.5 101.5,-19.5 165.5,-19.5 165.5,-0.5 101.5,-0.5"/>
<text text-anchor="middle" x="133.5" y="-7.5" font-family="Helvetica,sans-Serif" font-size="10.00">json/json.h</text>
</g>
<!-- Node0&#45;&gt;Node2 -->
<g id="edge2" class="edge"><title>Node0&#45;&gt;Node2</title>
<path fill="none" stroke="midnightblue" d="M123.472,-235.357C101.598,-202.636 53.7773,-119.649 82.5,-56 88.1159,-43.5553 99.0627,-33.1723 109.379,-25.5273"/>
<polygon fill="midnightblue" stroke="midnightblue" points="111.506,-28.3123 117.766,-19.7643 107.542,-22.5431 111.506,-28.3123"/>
</g>
<!-- Node3 -->
<g id="node4" class="node"><title>Node3</title>
<g id="a_node4"><a xlink:href="tuf_8h_source.html" target="_top" xlink:title="uptane/tuf.h">
<polygon fill="white" stroke="black" points="997.5,-179.5 997.5,-198.5 1065.5,-198.5 1065.5,-179.5 997.5,-179.5"/>
<text text-anchor="middle" x="1031.5" y="-186.5" font-family="Helvetica,sans-Serif" font-size="10.00">uptane/tuf.h</text>
</a>
</g>
</g>
<!-- Node0&#45;&gt;Node3 -->
<g id="edge3" class="edge"><title>Node0&#45;&gt;Node3</title>
<path fill="none" stroke="midnightblue" d="M191.04,-245.687C357.752,-234.641 838.648,-202.778 987.23,-192.933"/>
<polygon fill="midnightblue" stroke="midnightblue" points="987.598,-196.417 997.345,-192.263 987.135,-189.432 987.598,-196.417"/>
</g>
<!-- Node24 -->
<g id="node25" class="node"><title>Node24</title>
<g id="a_node25"><a xlink:href="types_8h.html" target="_top" xlink:title="utilities/types.h">
<polygon fill="white" stroke="black" points="92,-62 92,-81 175,-81 175,-62 92,-62"/>
<text text-anchor="middle" x="133.5" y="-69" font-family="Helvetica,sans-Serif" font-size="10.00">utilities/types.h</text>
</a>
</g>
</g>
<!-- Node0&#45;&gt;Node24 -->
<g id="edge41" class="edge"><title>Node0&#45;&gt;Node24</title>
<path fill="none" stroke="midnightblue" d="M133.5,-235.315C133.5,-203.633 133.5,-127.109 133.5,-91.4186"/>
<polygon fill="midnightblue" stroke="midnightblue" points="137,-91.374 133.5,-81.3741 130,-91.3741 137,-91.374"/>
</g>
<!-- Node30 -->
<g id="node31" class="node"><title>Node30</title>
<g id="a_node31"><a xlink:href="channel_8h_source.html" target="_top" xlink:title="utilities/channel.h">
<polygon fill="white" stroke="black" points="1785.5,-179.5 1785.5,-198.5 1877.5,-198.5 1877.5,-179.5 1785.5,-179.5"/>
<text text-anchor="middle" x="1831.5" y="-186.5" font-family="Helvetica,sans-Serif" font-size="10.00">utilities/channel.h</text>
</a>
</g>
</g>
<!-- Node0&#45;&gt;Node30 -->
<g id="edge36" class="edge"><title>Node0&#45;&gt;Node30</title>
<path fill="none" stroke="midnightblue" d="M191.458,-247.469C452.448,-238.324 1517.07,-201.018 1775.02,-191.979"/>
<polygon fill="midnightblue" stroke="midnightblue" points="1775.4,-195.468 1785.27,-191.62 1775.16,-188.472 1775.4,-195.468"/>
</g>
<!-- Node4 -->
<g id="node5" class="node"><title>Node4</title>
<polygon fill="white" stroke="#bfbfbf" points="965,-123.5 965,-142.5 1024,-142.5 1024,-123.5 965,-123.5"/>
<text text-anchor="middle" x="994.5" y="-130.5" font-family="Helvetica,sans-Serif" font-size="10.00">functional</text>
</g>
<!-- Node3&#45;&gt;Node4 -->
<g id="edge4" class="edge"><title>Node3&#45;&gt;Node4</title>
<path fill="none" stroke="midnightblue" d="M1025.39,-179.083C1020.22,-171.534 1012.65,-160.495 1006.31,-151.23"/>
<polygon fill="midnightblue" stroke="midnightblue" points="1009.04,-149.022 1000.5,-142.751 1003.26,-152.979 1009.04,-149.022"/>
</g>
<!-- Node5 -->
<g id="node6" class="node"><title>Node5</title>
<polygon fill="white" stroke="#bfbfbf" points="1042.5,-123.5 1042.5,-142.5 1094.5,-142.5 1094.5,-123.5 1042.5,-123.5"/>
<text text-anchor="middle" x="1068.5" y="-130.5" font-family="Helvetica,sans-Serif" font-size="10.00">ostream</text>
</g>
<!-- Node3&#45;&gt;Node5 -->
<g id="edge5" class="edge"><title>Node3&#45;&gt;Node5</title>
<path fill="none" stroke="midnightblue" d="M1037.61,-179.083C1042.78,-171.534 1050.35,-160.495 1056.69,-151.23"/>
<polygon fill="midnightblue" stroke="midnightblue" points="1059.74,-152.979 1062.5,-142.751 1053.96,-149.022 1059.74,-152.979"/>
</g>
<!-- Node6 -->
<g id="node7" class="node"><title>Node6</title>
<polygon fill="white" stroke="#bfbfbf" points="1112.5,-123.5 1112.5,-142.5 1142.5,-142.5 1142.5,-123.5 1112.5,-123.5"/>
<text text-anchor="middle" x="1127.5" y="-130.5" font-family="Helvetica,sans-Serif" font-size="10.00">set</text>
</g>
<!-- Node3&#45;&gt;Node6 -->
<g id="edge6" class="edge"><title>Node3&#45;&gt;Node6</title>
<path fill="none" stroke="midnightblue" d="M1046.92,-179.324C1062.13,-170.771 1085.59,-157.574 1103.28,-147.622"/>
<polygon fill="midnightblue" stroke="midnightblue" points="1105.43,-150.43 1112.43,-142.476 1102,-144.329 1105.43,-150.43"/>
</g>
<!-- Node7 -->
<g id="node8" class="node"><title>Node7</title>
<g id="a_node8"><a xlink:href="uptane_2exceptions_8h_source.html" target="_top" xlink:title="uptane/exceptions.h">
<polygon fill="white" stroke="black" points="1599.5,-123.5 1599.5,-142.5 1703.5,-142.5 1703.5,-123.5 1599.5,-123.5"/>
<text text-anchor="middle" x="1651.5" y="-130.5" font-family="Helvetica,sans-Serif" font-size="10.00">uptane/exceptions.h</text>
</a>
</g>
</g>
<!-- Node3&#45;&gt;Node7 -->
<g id="edge7" class="edge"><title>Node3&#45;&gt;Node7</title>
<path fill="none" stroke="midnightblue" d="M1065.72,-185.02C1165.94,-176.29 1459.91,-150.687 1589.23,-139.423"/>
<polygon fill="midnightblue" stroke="midnightblue" points="1589.71,-142.895 1599.37,-138.54 1589.1,-135.921 1589.71,-142.895"/>
</g>
<!-- Node11 -->
<g id="node12" class="node"><title>Node11</title>
<g id="a_node12"><a xlink:href="crypto_8h_source.html" target="_top" xlink:title="crypto/crypto.h">
<polygon fill="white" stroke="black" points="864.5,-123.5 864.5,-142.5 946.5,-142.5 946.5,-123.5 864.5,-123.5"/>
<text text-anchor="middle" x="905.5" y="-130.5" font-family="Helvetica,sans-Serif" font-size="10.00">crypto/crypto.h</text>
</a>
</g>
</g>
<!-- Node3&#45;&gt;Node11 -->
<g id="edge11" class="edge"><title>Node3&#45;&gt;Node11</title>
<path fill="none" stroke="midnightblue" d="M1011.53,-179.444C990.891,-170.596 958.437,-156.687 934.868,-146.586"/>
<polygon fill="midnightblue" stroke="midnightblue" points="935.942,-143.239 925.372,-142.516 933.184,-149.673 935.942,-143.239"/>
</g>
<!-- Node8 -->
<g id="node9" class="node"><title>Node8</title>
<polygon fill="white" stroke="#bfbfbf" points="1728,-62 1728,-81 1787,-81 1787,-62 1728,-62"/>
<text text-anchor="middle" x="1757.5" y="-69" font-family="Helvetica,sans-Serif" font-size="10.00">stdexcept</text>
</g>
<!-- Node7&#45;&gt;Node8 -->
<g id="edge8" class="edge"><title>Node7&#45;&gt;Node8</title>
<path fill="none" stroke="midnightblue" d="M1666.69,-123.475C1684.16,-113.666 1713.08,-97.4346 1733.58,-85.925"/>
<polygon fill="midnightblue" stroke="midnightblue" points="1735.33,-88.956 1742.34,-81.0091 1731.91,-82.8519 1735.33,-88.956"/>
</g>
<!-- Node9 -->
<g id="node10" class="node"><title>Node9</title>
<polygon fill="white" stroke="#bfbfbf" points="1615,-0.5 1615,-19.5 1656,-19.5 1656,-0.5 1615,-0.5"/>
<text text-anchor="middle" x="1635.5" y="-7.5" font-family="Helvetica,sans-Serif" font-size="10.00">string</text>
</g>
<!-- Node7&#45;&gt;Node9 -->
<g id="edge9" class="edge"><title>Node7&#45;&gt;Node9</title>
<path fill="none" stroke="midnightblue" d="M1659.17,-123.459C1666.28,-114.927 1676.35,-101.088 1680.5,-87 1684.39,-73.7828 1685.77,-68.729 1680.5,-56 1675.58,-44.121 1665.83,-33.7428 1656.67,-25.9557"/>
<polygon fill="midnightblue" stroke="midnightblue" points="1658.58,-23.0101 1648.56,-19.5641 1654.25,-28.5058 1658.58,-23.0101"/>
</g>
<!-- Node10 -->
<g id="node11" class="node"><title>Node10</title>
<polygon fill="white" stroke="#bfbfbf" points="1631.5,-62 1631.5,-81 1671.5,-81 1671.5,-62 1631.5,-62"/>
<text text-anchor="middle" x="1651.5" y="-69" font-family="Helvetica,sans-Serif" font-size="10.00">utility</text>
</g>
<!-- Node7&#45;&gt;Node10 -->
<g id="edge10" class="edge"><title>Node7&#45;&gt;Node10</title>
<path fill="none" stroke="midnightblue" d="M1651.5,-123.475C1651.5,-115.08 1651.5,-101.981 1651.5,-91.1631"/>
<polygon fill="midnightblue" stroke="midnightblue" points="1655,-91.0091 1651.5,-81.0091 1648,-91.0091 1655,-91.0091"/>
</g>
<!-- Node11&#45;&gt;Node9 -->
<g id="edge24" class="edge"><title>Node11&#45;&gt;Node9</title>
<path fill="none" stroke="midnightblue" d="M946.642,-124.188C949.633,-123.745 952.61,-123.342 955.5,-123 1024.91,-114.794 1522.64,-121.364 1583.5,-87 1606.08,-74.2526 1620.92,-47.1568 1628.76,-29.0071"/>
<polygon fill="midnightblue" stroke="midnightblue" points="1632.09,-30.1143 1632.58,-19.5307 1625.6,-27.499 1632.09,-30.1143"/>
</g>
<!-- Node11&#45;&gt;Node10 -->
<g id="edge25" class="edge"><title>Node11&#45;&gt;Node10</title>
<path fill="none" stroke="midnightblue" d="M946.641,-124.178C949.633,-123.738 952.609,-123.337 955.5,-123 1248.17,-88.8349 1330.52,-153.808 1617.5,-87 1620.02,-86.4144 1622.58,-85.6545 1625.12,-84.7895"/>
<polygon fill="midnightblue" stroke="midnightblue" points="1626.56,-87.9836 1634.6,-81.0799 1624.01,-81.465 1626.56,-87.9836"/>
</g>
<!-- Node12 -->
<g id="node13" class="node"><title>Node12</title>
<polygon fill="white" stroke="#bfbfbf" points="193.5,-62 193.5,-81 283.5,-81 283.5,-62 193.5,-62"/>
<text text-anchor="middle" x="238.5" y="-69" font-family="Helvetica,sans-Serif" font-size="10.00">openssl/engine.h</text>
</g>
<!-- Node11&#45;&gt;Node12 -->
<g id="edge12" class="edge"><title>Node11&#45;&gt;Node12</title>
<path fill="none" stroke="midnightblue" d="M864.288,-131.654C765.107,-130.241 505.553,-123.091 292.5,-87 287.116,-86.088 281.492,-84.8768 275.991,-83.5418"/>
<polygon fill="midnightblue" stroke="midnightblue" points="276.862,-80.1519 266.305,-81.0431 275.114,-86.93 276.862,-80.1519"/>
</g>
<!-- Node13 -->
<g id="node14" class="node"><title>Node13</title>
<polygon fill="white" stroke="#bfbfbf" points="302,-62 302,-81 375,-81 375,-62 302,-62"/>
<text text-anchor="middle" x="338.5" y="-69" font-family="Helvetica,sans-Serif" font-size="10.00">openssl/err.h</text>
</g>
<!-- Node11&#45;&gt;Node13 -->
<g id="edge13" class="edge"><title>Node11&#45;&gt;Node13</title>
<path fill="none" stroke="midnightblue" d="M864.445,-131.596C775.764,-130.041 560.054,-122.579 383.5,-87 379.54,-86.2019 375.439,-85.1747 371.398,-84.0361"/>
<polygon fill="midnightblue" stroke="midnightblue" points="372.177,-80.6144 361.59,-81.0428 370.133,-87.3095 372.177,-80.6144"/>
</g>
<!-- Node14 -->
<g id="node15" class="node"><title>Node14</title>
<polygon fill="white" stroke="#bfbfbf" points="393,-62 393,-81 470,-81 470,-62 393,-62"/>
<text text-anchor="middle" x="431.5" y="-69" font-family="Helvetica,sans-Serif" font-size="10.00">openssl/evp.h</text>
</g>
<!-- Node11&#45;&gt;Node14 -->
<g id="edge14" class="edge"><title>Node11&#45;&gt;Node14</title>
<path fill="none" stroke="midnightblue" d="M864.472,-130.327C787.906,-126.621 618.343,-115.657 478.5,-87 474.359,-86.1515 470.062,-85.0889 465.825,-83.9269"/>
<polygon fill="midnightblue" stroke="midnightblue" points="466.727,-80.5441 456.146,-81.0888 464.757,-87.2613 466.727,-80.5441"/>
</g>
<!-- Node15 -->
<g id="node16" class="node"><title>Node15</title>
<polygon fill="white" stroke="#bfbfbf" points="488,-62 488,-81 589,-81 589,-62 488,-62"/>
<text text-anchor="middle" x="538.5" y="-69" font-family="Helvetica,sans-Serif" font-size="10.00">openssl/opensslv.h</text>
</g>
<!-- Node11&#45;&gt;Node15 -->
<g id="edge15" class="edge"><title>Node11&#45;&gt;Node15</title>
<path fill="none" stroke="midnightblue" d="M864.082,-127.152C804.913,-119.949 692.9,-105.285 598.5,-87 592.976,-85.9301 587.195,-84.6892 581.494,-83.3924"/>
<polygon fill="midnightblue" stroke="midnightblue" points="581.926,-79.8989 571.391,-81.0228 580.328,-86.7139 581.926,-79.8989"/>
</g>
<!-- Node16 -->
<g id="node17" class="node"><title>Node16</title>
<polygon fill="white" stroke="#bfbfbf" points="607.5,-62 607.5,-81 687.5,-81 687.5,-62 607.5,-62"/>
<text text-anchor="middle" x="647.5" y="-69" font-family="Helvetica,sans-Serif" font-size="10.00">openssl/pem.h</text>
</g>
<!-- Node11&#45;&gt;Node16 -->
<g id="edge16" class="edge"><title>Node11&#45;&gt;Node16</title>
<path fill="none" stroke="midnightblue" d="M864.438,-124.114C822.138,-115.766 754.401,-101.778 696.5,-87 692.692,-86.0282 688.735,-84.9585 684.794,-83.854"/>
<polygon fill="midnightblue" stroke="midnightblue" points="685.704,-80.4739 675.127,-81.0724 683.769,-87.201 685.704,-80.4739"/>
</g>
<!-- Node17 -->
<g id="node18" class="node"><title>Node17</title>
<polygon fill="white" stroke="#bfbfbf" points="706,-62 706,-81 799,-81 799,-62 706,-62"/>
<text text-anchor="middle" x="752.5" y="-69" font-family="Helvetica,sans-Serif" font-size="10.00">openssl/pkcs12.h</text>
</g>
<!-- Node11&#45;&gt;Node17 -->
<g id="edge17" class="edge"><title>Node11&#45;&gt;Node17</title>
<path fill="none" stroke="midnightblue" d="M883.579,-123.475C857.448,-113.313 813.588,-96.2564 783.87,-84.6996"/>
<polygon fill="midnightblue" stroke="midnightblue" points="784.969,-81.3716 774.381,-81.0091 782.432,-87.8956 784.969,-81.3716"/>
</g>
<!-- Node18 -->
<g id="node19" class="node"><title>Node18</title>
<polygon fill="white" stroke="#bfbfbf" points="817.5,-62 817.5,-81 897.5,-81 897.5,-62 817.5,-62"/>
<text text-anchor="middle" x="857.5" y="-69" font-family="Helvetica,sans-Serif" font-size="10.00">openssl/rand.h</text>
</g>
<!-- Node11&#45;&gt;Node18 -->
<g id="edge18" class="edge"><title>Node11&#45;&gt;Node18</title>
<path fill="none" stroke="midnightblue" d="M898.623,-123.475C891.351,-114.462 879.705,-100.025 870.659,-88.8118"/>
<polygon fill="midnightblue" stroke="midnightblue" points="873.367,-86.5946 864.364,-81.0091 867.919,-90.9898 873.367,-86.5946"/>
</g>
<!-- Node19 -->
<g id="node20" class="node"><title>Node19</title>
<polygon fill="white" stroke="#bfbfbf" points="916,-62 916,-81 991,-81 991,-62 916,-62"/>
<text text-anchor="middle" x="953.5" y="-69" font-family="Helvetica,sans-Serif" font-size="10.00">openssl/rsa.h</text>
</g>
<!-- Node11&#45;&gt;Node19 -->
<g id="edge19" class="edge"><title>Node11&#45;&gt;Node19</title>
<path fill="none" stroke="midnightblue" d="M912.377,-123.475C919.649,-114.462 931.295,-100.025 940.341,-88.8118"/>
<polygon fill="midnightblue" stroke="midnightblue" points="943.081,-90.9898 946.636,-81.0091 937.633,-86.5946 943.081,-90.9898"/>
</g>
<!-- Node20 -->
<g id="node21" class="node"><title>Node20</title>
<polygon fill="white" stroke="#bfbfbf" points="1008.5,-62 1008.5,-81 1064.5,-81 1064.5,-62 1008.5,-62"/>
<text text-anchor="middle" x="1036.5" y="-69" font-family="Helvetica,sans-Serif" font-size="10.00">sodium.h</text>
</g>
<!-- Node11&#45;&gt;Node20 -->
<g id="edge20" class="edge"><title>Node11&#45;&gt;Node20</title>
<path fill="none" stroke="midnightblue" d="M924.269,-123.475C946.351,-113.445 983.219,-96.7002 1008.64,-85.1546"/>
<polygon fill="midnightblue" stroke="midnightblue" points="1010.11,-88.3313 1017.77,-81.0091 1007.21,-81.9579 1010.11,-88.3313"/>
</g>
<!-- Node21 -->
<g id="node22" class="node"><title>Node21</title>
<polygon fill="white" stroke="#bfbfbf" points="1083,-62 1083,-81 1204,-81 1204,-62 1083,-62"/>
<text text-anchor="middle" x="1143.5" y="-69" font-family="Helvetica,sans-Serif" font-size="10.00">boost/algorithm/hex.hpp</text>
</g>
<!-- Node11&#45;&gt;Node21 -->
<g id="edge21" class="edge"><title>Node11&#45;&gt;Node21</title>
<path fill="none" stroke="midnightblue" d="M939.6,-123.475C981.751,-112.937 1053.55,-94.9863 1099.73,-83.4415"/>
<polygon fill="midnightblue" stroke="midnightblue" points="1100.61,-86.83 1109.46,-81.0091 1098.91,-80.039 1100.61,-86.83"/>
</g>
<!-- Node22 -->
<g id="node23" class="node"><title>Node22</title>
<polygon fill="white" stroke="#bfbfbf" points="1222,-62 1222,-81 1351,-81 1351,-62 1222,-62"/>
<text text-anchor="middle" x="1286.5" y="-69" font-family="Helvetica,sans-Serif" font-size="10.00">boost/algorithm/string.hpp</text>
</g>
<!-- Node11&#45;&gt;Node22 -->
<g id="edge22" class="edge"><title>Node11&#45;&gt;Node22</title>
<path fill="none" stroke="midnightblue" d="M946.679,-124.457C949.662,-123.951 952.626,-123.46 955.5,-123 1069.39,-104.78 1098.75,-106.096 1212.5,-87 1219.86,-85.7642 1227.61,-84.3596 1235.22,-82.9227"/>
<polygon fill="midnightblue" stroke="midnightblue" points="1235.93,-86.3509 1245.09,-81.0266 1234.61,-79.4767 1235.93,-86.3509"/>
</g>
<!-- Node23 -->
<g id="node24" class="node"><title>Node23</title>
<polygon fill="white" stroke="#bfbfbf" points="1369.5,-56.5 1369.5,-86.5 1479.5,-86.5 1479.5,-56.5 1369.5,-56.5"/>
<text text-anchor="start" x="1377.5" y="-74.5" font-family="Helvetica,sans-Serif" font-size="10.00">boost/algorithm/string</text>
<text text-anchor="middle" x="1424.5" y="-63.5" font-family="Helvetica,sans-Serif" font-size="10.00">/case_conv.hpp</text>
</g>
<!-- Node11&#45;&gt;Node23 -->
<g id="edge23" class="edge"><title>Node11&#45;&gt;Node23</title>
<path fill="none" stroke="midnightblue" d="M946.655,-124.292C949.643,-123.824 952.615,-123.387 955.5,-123 1130.94,-99.4421 1179.62,-114.13 1359.23,-86.8816"/>
<polygon fill="midnightblue" stroke="midnightblue" points="1359.92,-90.3156 1369.28,-85.3345 1358.86,-83.3971 1359.92,-90.3156"/>
</g>
<!-- Node11&#45;&gt;Node24 -->
<g id="edge26" class="edge"><title>Node11&#45;&gt;Node24</title>
<path fill="none" stroke="midnightblue" d="M864.492,-132.503C753.863,-133.203 440.386,-130.837 184.5,-87 179.598,-86.1602 174.493,-85.0289 169.49,-83.7667"/>
<polygon fill="midnightblue" stroke="midnightblue" points="170.027,-80.2859 159.459,-81.0432 168.193,-87.0413 170.027,-80.2859"/>
</g>
<!-- Node26 -->
<g id="node27" class="node"><title>Node26</title>
<g id="a_node27"><a xlink:href="utils_8h_source.html" target="_top" xlink:title="utilities/utils.h">
<polygon fill="white" stroke="black" points="1498,-62 1498,-81 1575,-81 1575,-62 1498,-62"/>
<text text-anchor="middle" x="1536.5" y="-69" font-family="Helvetica,sans-Serif" font-size="10.00">utilities/utils.h</text>
</a>
</g>
</g>
<!-- Node11&#45;&gt;Node26 -->
<g id="edge29" class="edge"><title>Node11&#45;&gt;Node26</title>
<path fill="none" stroke="midnightblue" d="M946.646,-124.221C949.636,-123.771 952.611,-123.356 955.5,-123 1191.14,-93.9249 1254.92,-129.601 1488.5,-87 1492.96,-86.1873 1497.58,-85.106 1502.13,-83.8988"/>
<polygon fill="midnightblue" stroke="midnightblue" points="1503.2,-87.2322 1511.85,-81.1104 1501.27,-80.5036 1503.2,-87.2322"/>
</g>
<!-- Node24&#45;&gt;Node2 -->
<g id="edge27" class="edge"><title>Node24&#45;&gt;Node2</title>
<path fill="none" stroke="midnightblue" d="M133.5,-61.9751C133.5,-53.5803 133.5,-40.4806 133.5,-29.6631"/>
<polygon fill="midnightblue" stroke="midnightblue" points="137,-29.5091 133.5,-19.5091 130,-29.5091 137,-29.5091"/>
</g>
<!-- Node25 -->
<g id="node26" class="node"><title>Node25</title>
<polygon fill="white" stroke="#bfbfbf" points="746,-0.5 746,-19.5 853,-19.5 853,-0.5 746,-0.5"/>
<text text-anchor="middle" x="799.5" y="-7.5" font-family="Helvetica,sans-Serif" font-size="10.00">boost/filesystem.hpp</text>
</g>
<!-- Node24&#45;&gt;Node25 -->
<g id="edge28" class="edge"><title>Node24&#45;&gt;Node25</title>
<path fill="none" stroke="midnightblue" d="M159.731,-61.936C167.617,-59.663 176.342,-57.4426 184.5,-56 383.592,-20.7943 623.633,-13.0421 735.857,-11.3974"/>
<polygon fill="midnightblue" stroke="midnightblue" points="736.037,-14.8954 745.988,-11.2606 735.942,-7.89605 736.037,-14.8954"/>
</g>
<!-- Node26&#45;&gt;Node2 -->
<g id="edge35" class="edge"><title>Node26&#45;&gt;Node2</title>
<path fill="none" stroke="midnightblue" d="M1512.37,-61.875C1504.82,-59.5407 1496.4,-57.3019 1488.5,-56 1356.54,-34.2589 390.798,-15.6512 175.831,-11.7508"/>
<polygon fill="midnightblue" stroke="midnightblue" points="175.655,-8.2471 165.593,-11.5658 175.528,-15.246 175.655,-8.2471"/>
</g>
<!-- Node26&#45;&gt;Node9 -->
<g id="edge33" class="edge"><title>Node26&#45;&gt;Node9</title>
<path fill="none" stroke="midnightblue" d="M1550.68,-61.9751C1566.86,-52.2548 1593.53,-36.2266 1612.64,-24.7372"/>
<polygon fill="midnightblue" stroke="midnightblue" points="1614.57,-27.6603 1621.34,-19.5091 1610.97,-21.6606 1614.57,-27.6603"/>
</g>
<!-- Node26&#45;&gt;Node25 -->
<g id="edge31" class="edge"><title>Node26&#45;&gt;Node25</title>
<path fill="none" stroke="midnightblue" d="M1511.85,-61.8788C1504.43,-59.6041 1496.21,-57.3972 1488.5,-56 1261.28,-14.8195 985.888,-10.1338 863.477,-10.3372"/>
<polygon fill="midnightblue" stroke="midnightblue" points="863.159,-6.83802 853.169,-10.3667 863.179,-13.838 863.159,-6.83802"/>
</g>
<!-- Node27 -->
<g id="node28" class="node"><title>Node27</title>
<polygon fill="white" stroke="#bfbfbf" points="1554,-0.5 1554,-19.5 1597,-19.5 1597,-0.5 1554,-0.5"/>
<text text-anchor="middle" x="1575.5" y="-7.5" font-family="Helvetica,sans-Serif" font-size="10.00">glob.h</text>
</g>
<!-- Node26&#45;&gt;Node27 -->
<g id="edge30" class="edge"><title>Node26&#45;&gt;Node27</title>
<path fill="none" stroke="midnightblue" d="M1542.09,-61.9751C1547.88,-53.1384 1557.09,-39.0886 1564.37,-27.975"/>
<polygon fill="midnightblue" stroke="midnightblue" points="1567.37,-29.7913 1569.92,-19.5091 1561.51,-25.9539 1567.37,-29.7913"/>
</g>
<!-- Node28 -->
<g id="node29" class="node"><title>Node28</title>
<polygon fill="white" stroke="#bfbfbf" points="1400.5,-0.5 1400.5,-19.5 1452.5,-19.5 1452.5,-0.5 1400.5,-0.5"/>
<text text-anchor="middle" x="1426.5" y="-7.5" font-family="Helvetica,sans-Serif" font-size="10.00">memory</text>
</g>
<!-- Node26&#45;&gt;Node28 -->
<g id="edge32" class="edge"><title>Node26&#45;&gt;Node28</title>
<path fill="none" stroke="midnightblue" d="M1520.74,-61.9751C1502.52,-52.1222 1472.33,-35.7883 1451.03,-24.2697"/>
<polygon fill="midnightblue" stroke="midnightblue" points="1452.69,-21.1883 1442.23,-19.5091 1449.36,-27.3453 1452.69,-21.1883"/>
</g>
<!-- Node29 -->
<g id="node30" class="node"><title>Node29</title>
<polygon fill="white" stroke="#bfbfbf" points="1471,-0.5 1471,-19.5 1536,-19.5 1536,-0.5 1471,-0.5"/>
<text text-anchor="middle" x="1503.5" y="-7.5" font-family="Helvetica,sans-Serif" font-size="10.00">netinet/in.h</text>
</g>
<!-- Node26&#45;&gt;Node29 -->
<g id="edge34" class="edge"><title>Node26&#45;&gt;Node29</title>
<path fill="none" stroke="midnightblue" d="M1531.77,-61.9751C1526.92,-53.2268 1519.23,-39.3691 1513.1,-28.3093"/>
<polygon fill="midnightblue" stroke="midnightblue" points="1516.13,-26.5566 1508.22,-19.5091 1510.01,-29.9517 1516.13,-26.5566"/>
</g>
<!-- Node31 -->
<g id="node32" class="node"><title>Node31</title>
<polygon fill="white" stroke="#bfbfbf" points="1784,-123.5 1784,-142.5 1879,-142.5 1879,-123.5 1784,-123.5"/>
<text text-anchor="middle" x="1831.5" y="-130.5" font-family="Helvetica,sans-Serif" font-size="10.00">condition_variable</text>
</g>
<!-- Node30&#45;&gt;Node31 -->
<g id="edge37" class="edge"><title>Node30&#45;&gt;Node31</title>
<path fill="none" stroke="midnightblue" d="M1831.5,-179.083C1831.5,-172.006 1831.5,-161.861 1831.5,-152.986"/>
<polygon fill="midnightblue" stroke="midnightblue" points="1835,-152.751 1831.5,-142.751 1828,-152.751 1835,-152.751"/>
</g>
<!-- Node32 -->
<g id="node33" class="node"><title>Node32</title>
<polygon fill="white" stroke="#bfbfbf" points="1897.5,-123.5 1897.5,-142.5 1941.5,-142.5 1941.5,-123.5 1897.5,-123.5"/>
<text text-anchor="middle" x="1919.5" y="-130.5" font-family="Helvetica,sans-Serif" font-size="10.00">mutex</text>
</g>
<!-- Node30&#45;&gt;Node32 -->
<g id="edge38" class="edge"><title>Node30&#45;&gt;Node32</title>
<path fill="none" stroke="midnightblue" d="M1845.64,-179.324C1859.37,-170.9 1880.44,-157.971 1896.56,-148.074"/>
<polygon fill="midnightblue" stroke="midnightblue" points="1898.7,-150.868 1905.4,-142.655 1895.04,-144.902 1898.7,-150.868"/>
</g>
<!-- Node33 -->
<g id="node34" class="node"><title>Node33</title>
<polygon fill="white" stroke="#bfbfbf" points="1960,-123.5 1960,-142.5 2003,-142.5 2003,-123.5 1960,-123.5"/>
<text text-anchor="middle" x="1981.5" y="-130.5" font-family="Helvetica,sans-Serif" font-size="10.00">queue</text>
</g>
<!-- Node30&#45;&gt;Node33 -->
<g id="edge39" class="edge"><title>Node30&#45;&gt;Node33</title>
<path fill="none" stroke="midnightblue" d="M1855.27,-179.444C1880.98,-170.186 1922.09,-155.387 1950.37,-145.207"/>
<polygon fill="midnightblue" stroke="midnightblue" points="1951.57,-148.495 1959.79,-141.815 1949.2,-141.909 1951.57,-148.495"/>
</g>
<!-- Node34 -->
<g id="node35" class="node"><title>Node34</title>
<polygon fill="white" stroke="#bfbfbf" points="1721.5,-123.5 1721.5,-142.5 1765.5,-142.5 1765.5,-123.5 1721.5,-123.5"/>
<text text-anchor="middle" x="1743.5" y="-130.5" font-family="Helvetica,sans-Serif" font-size="10.00">thread</text>
</g>
<!-- Node30&#45;&gt;Node34 -->
<g id="edge40" class="edge"><title>Node30&#45;&gt;Node34</title>
<path fill="none" stroke="midnightblue" d="M1817.36,-179.324C1803.63,-170.9 1782.56,-157.971 1766.44,-148.074"/>
<polygon fill="midnightblue" stroke="midnightblue" points="1767.96,-144.902 1757.6,-142.655 1764.3,-150.868 1767.96,-144.902"/>
</g>
</g>
</svg>
