<?xml version="1.0" encoding="UTF-8" standalone="no"?>
<!DOCTYPE svg PUBLIC "-//W3C//DTD SVG 1.1//EN"
 "http://www.w3.org/Graphics/SVG/1.1/DTD/svg11.dtd">
<!-- Generated by graphviz version 2.40.1 (20161225.0304)
 -->
<!-- Title: src/libaktualizr/utilities/events.h Pages: 1 -->
<!--zoomable 274 -->
<svg id="main" version="1.1" xmlns="http://www.w3.org/2000/svg" xmlns:xlink="http://www.w3.org/1999/xlink" xml:space="preserve" onload="init(evt)">
<style type="text/css"><![CDATA[
.edge:hover path { stroke: red; }
.edge:hover polygon { stroke: red; fill: red; }
]]></style>
<script type="text/javascript"><![CDATA[
var edges = document.getElementsByTagName('g');
if (edges && edges.length) {
  for (var i=0;i<edges.length;i++) {
    if (edges[i].id.substr(0,4)=='edge') {
      edges[i].setAttribute('class','edge');
    }
  }
}
]]></script>
        <defs>
                <circle id="rim" cx="0" cy="0" r="7"/>
                <circle id="rim2" cx="0" cy="0" r="3.5"/>
                <g id="zoomPlus">
                        <use xlink:href="#rim" fill="#404040">
                                <set attributeName="fill" to="#808080" begin="zoomplus.mouseover" end="zoomplus.mouseout"/>
                        </use>
                        <path d="M-4,0h8M0,-4v8" fill="none" stroke="white" stroke-width="1.5" pointer-events="none"/>
                </g>
                <g id="zoomMin">
                        <use xlink:href="#rim" fill="#404040">
                                <set attributeName="fill" to="#808080" begin="zoomminus.mouseover" end="zoomminus.mouseout"/>
                        </use>
                        <path d="M-4,0h8" fill="none" stroke="white" stroke-width="1.5" pointer-events="none"/>
                </g>
                <g id="dirArrow">
                        <path fill="none" stroke="white" stroke-width="1.5" d="M0,-3.0v7 M-2.5,-0.5L0,-3.0L2.5,-0.5"/>
                </g>
               <g id="resetDef">
                       <use xlink:href="#rim2" fill="#404040">
                               <set attributeName="fill" to="#808080" begin="reset.mouseover" end="reset.mouseout"/>
                       </use>
               </g>
        </defs>

<script type="text/javascript">
var viewWidth = 1693;
var viewHeight = 274;
var sectionId = 'dynsection-0';
</script>
<script xlink:href="svgpan.js"/>
<svg id="graph" class="graph">
<g id="viewport">
<title>src/libaktualizr/utilities/events.h</title>
<polygon fill="#ffffff" stroke="transparent" points="-4,4 -4,-270 1688.9096,-270 1688.9096,4 -4,4"/>
<!-- Node0 -->
<g id="node1" class="node">
<title>Node0</title>
<polygon fill="#bfbfbf" stroke="#000000" points="1248.2846,-235.5 1248.2846,-265.5 1361.2846,-265.5 1361.2846,-235.5 1248.2846,-235.5"/>
<text text-anchor="start" x="1256.2846" y="-253.5" font-family="Helvetica,sans-Serif" font-size="10.00" fill="#000000">src/libaktualizr/utilities</text>
<text text-anchor="middle" x="1304.7846" y="-242.5" font-family="Helvetica,sans-Serif" font-size="10.00" fill="#000000">/events.h</text>
</g>
<!-- Node1 -->
<g id="node2" class="node">
<title>Node1</title>
<polygon fill="#ffffff" stroke="#bfbfbf" points="869.2846,-179.5 869.2846,-198.5 904.2846,-198.5 904.2846,-179.5 869.2846,-179.5"/>
<text text-anchor="middle" x="886.7846" y="-186.5" font-family="Helvetica,sans-Serif" font-size="10.00" fill="#000000">map</text>
</g>
<!-- Node0&#45;&gt;Node1 -->
<g id="edge1" class="edge">
<title>Node0&#45;&gt;Node1</title>
<path fill="none" stroke="#191970" d="M1248.0396,-247.0205C1173.3216,-241.5611 1037.9629,-228.6398 914.3418,-198.6164"/>
<polygon fill="#191970" stroke="#191970" points="914.8735,-195.1425 904.3256,-196.1394 913.1929,-201.9378 914.8735,-195.1425"/>
</g>
<!-- Node2 -->
<g id="node3" class="node">
<title>Node2</title>
<polygon fill="#ffffff" stroke="#bfbfbf" points="1597.7846,-.5 1597.7846,-19.5 1661.7846,-19.5 1661.7846,-.5 1597.7846,-.5"/>
<text text-anchor="middle" x="1629.7846" y="-7.5" font-family="Helvetica,sans-Serif" font-size="10.00" fill="#000000">json/json.h</text>
</g>
<!-- Node0&#45;&gt;Node2 -->
<g id="edge2" class="edge">
<title>Node0&#45;&gt;Node2</title>
<path fill="none" stroke="#191970" d="M1361.3019,-244.8703C1447.4653,-232.8918 1609.1078,-196.2876 1679.7846,-87 1687.2665,-75.4307 1685.321,-68.6165 1679.7846,-56 1674.4523,-43.8487 1664.1507,-33.4938 1654.277,-25.7031"/>
<polygon fill="#191970" stroke="#191970" points="1656.3354,-22.8723 1646.2023,-19.7788 1652.1946,-28.5162 1656.3354,-22.8723"/>
</g>
<!-- Node3 -->
<g id="node4" class="node">
<title>Node3</title>
<polygon fill="#ffffff" stroke="#bfbfbf" points="1255.7846,-179.5 1255.7846,-198.5 1353.7846,-198.5 1353.7846,-179.5 1255.7846,-179.5"/>
<text text-anchor="middle" x="1304.7846" y="-186.5" font-family="Helvetica,sans-Serif" font-size="10.00" fill="#000000">boost/signals2.hpp</text>
</g>
<!-- Node0&#45;&gt;Node3 -->
<g id="edge3" class="edge">
<title>Node0&#45;&gt;Node3</title>
<path fill="none" stroke="#191970" d="M1304.7846,-235.2977C1304.7846,-227.3834 1304.7846,-217.6043 1304.7846,-209.0759"/>
<polygon fill="#191970" stroke="#191970" points="1308.2847,-208.8469 1304.7846,-198.8469 1301.2847,-208.847 1308.2847,-208.8469"/>
</g>
<!-- Node4 -->
<g id="node5" class="node">
<title>Node4</title>
<g id="a_node5"><a xlink:href="tuf_8h_source.html" target="_top" xlink:title="uptane/tuf.h">
<polygon fill="#ffffff" stroke="#000000" points="922.7846,-179.5 922.7846,-198.5 990.7846,-198.5 990.7846,-179.5 922.7846,-179.5"/>
<text text-anchor="middle" x="956.7846" y="-186.5" font-family="Helvetica,sans-Serif" font-size="10.00" fill="#000000">uptane/tuf.h</text>
</a>
</g>
</g>
<!-- Node0&#45;&gt;Node4 -->
<g id="edge4" class="edge">
<title>Node0&#45;&gt;Node4</title>
<path fill="none" stroke="#191970" d="M1248.0978,-240.4821C1179.1352,-228.2947 1064.1525,-207.9745 1001.2466,-196.8575"/>
<polygon fill="#191970" stroke="#191970" points="1001.6984,-193.3832 991.2418,-195.0894 1000.4801,-200.2764 1001.6984,-193.3832"/>
</g>
<!-- Node25 -->
<g id="node26" class="node">
<title>Node25</title>
<g id="a_node26"><a xlink:href="types_8h.html" target="_top" xlink:title="utilities/types.h">
<polygon fill="#ffffff" stroke="#000000" points="1588.2846,-62 1588.2846,-81 1671.2846,-81 1671.2846,-62 1588.2846,-62"/>
<text text-anchor="middle" x="1629.7846" y="-69" font-family="Helvetica,sans-Serif" font-size="10.00" fill="#000000">utilities/types.h</text>
</a>
</g>
</g>
<!-- Node0&#45;&gt;Node25 -->
<g id="edge38" class="edge">
<title>Node0&#45;&gt;Node25</title>
<path fill="none" stroke="#191970" d="M1332.2138,-235.3928C1393.805,-201.4703 1542.4376,-119.608 1603.2123,-86.1352"/>
<polygon fill="#191970" stroke="#191970" points="1605.1143,-89.0834 1612.1851,-81.1932 1601.7372,-82.9519 1605.1143,-89.0834"/>
</g>
<!-- Node5 -->
<g id="node6" class="node">
<title>Node5</title>
<polygon fill="#ffffff" stroke="#bfbfbf" points="927.2846,-123.5 927.2846,-142.5 986.2846,-142.5 986.2846,-123.5 927.2846,-123.5"/>
<text text-anchor="middle" x="956.7846" y="-130.5" font-family="Helvetica,sans-Serif" font-size="10.00" fill="#000000">functional</text>
</g>
<!-- Node4&#45;&gt;Node5 -->
<g id="edge5" class="edge">
<title>Node4&#45;&gt;Node5</title>
<path fill="none" stroke="#191970" d="M956.7846,-179.2455C956.7846,-171.9382 956.7846,-161.6944 956.7846,-152.7046"/>
<polygon fill="#191970" stroke="#191970" points="960.2847,-152.6426 956.7846,-142.6427 953.2847,-152.6427 960.2847,-152.6426"/>
</g>
<!-- Node6 -->
<g id="node7" class="node">
<title>Node6</title>
<polygon fill="#ffffff" stroke="#bfbfbf" points="1004.7846,-123.5 1004.7846,-142.5 1056.7846,-142.5 1056.7846,-123.5 1004.7846,-123.5"/>
<text text-anchor="middle" x="1030.7846" y="-130.5" font-family="Helvetica,sans-Serif" font-size="10.00" fill="#000000">ostream</text>
</g>
<!-- Node4&#45;&gt;Node6 -->
<g id="edge6" class="edge">
<title>Node4&#45;&gt;Node6</title>
<path fill="none" stroke="#191970" d="M969.6744,-179.2455C980.7099,-170.8943 996.8138,-158.7076 1009.7199,-148.9408"/>
<polygon fill="#191970" stroke="#191970" points="1012.1804,-151.4681 1018.0425,-142.6427 1007.9563,-145.8862 1012.1804,-151.4681"/>
</g>
<!-- Node7 -->
<g id="node8" class="node">
<title>Node7</title>
<polygon fill="#ffffff" stroke="#bfbfbf" points="778.7846,-123.5 778.7846,-142.5 808.7846,-142.5 808.7846,-123.5 778.7846,-123.5"/>
<text text-anchor="middle" x="793.7846" y="-130.5" font-family="Helvetica,sans-Serif" font-size="10.00" fill="#000000">set</text>
</g>
<!-- Node4&#45;&gt;Node7 -->
<g id="edge7" class="edge">
<title>Node4&#45;&gt;Node7</title>
<path fill="none" stroke="#191970" d="M925.6357,-179.4299C899.3022,-171.1773 860.4133,-158.6122 818.5072,-143.093"/>
<polygon fill="#191970" stroke="#191970" points="819.5439,-139.7441 808.9514,-139.5218 817.0933,-146.3011 819.5439,-139.7441"/>
</g>
<!-- Node8 -->
<g id="node9" class="node">
<title>Node8</title>
<g id="a_node9"><a xlink:href="uptane_2exceptions_8h_source.html" target="_top" xlink:title="uptane/exceptions.h">
<polygon fill="#ffffff" stroke="#000000" points="26.7846,-123.5 26.7846,-142.5 130.7846,-142.5 130.7846,-123.5 26.7846,-123.5"/>
<text text-anchor="middle" x="78.7846" y="-130.5" font-family="Helvetica,sans-Serif" font-size="10.00" fill="#000000">uptane/exceptions.h</text>
</a>
</g>
</g>
<!-- Node4&#45;&gt;Node8 -->
<g id="edge8" class="edge">
<title>Node4&#45;&gt;Node8</title>
<path fill="none" stroke="#191970" d="M922.7795,-180.6768C919.4163,-180.0329 916.0429,-179.4568 912.7846,-179 763.7705,-158.1088 308.2726,-140.859 141.1298,-135.0759"/>
<polygon fill="#191970" stroke="#191970" points="141.1305,-131.5739 131.016,-134.7278 140.8897,-138.5698 141.1305,-131.5739"/>
</g>
<!-- Node12 -->
<g id="node13" class="node">
<title>Node12</title>
<g id="a_node13"><a xlink:href="crypto_8h_source.html" target="_top" xlink:title="crypto/crypto.h">
<polygon fill="#ffffff" stroke="#000000" points="826.7846,-123.5 826.7846,-142.5 908.7846,-142.5 908.7846,-123.5 826.7846,-123.5"/>
<text text-anchor="middle" x="867.7846" y="-130.5" font-family="Helvetica,sans-Serif" font-size="10.00" fill="#000000">crypto/crypto.h</text>
</a>
</g>
</g>
<!-- Node4&#45;&gt;Node12 -->
<g id="edge12" class="edge">
<title>Node4&#45;&gt;Node12</title>
<path fill="none" stroke="#191970" d="M941.282,-179.2455C927.6266,-170.6534 907.5189,-158.0014 891.7857,-148.1018"/>
<polygon fill="#191970" stroke="#191970" points="893.4374,-145.006 883.1095,-142.6427 889.7095,-150.9307 893.4374,-145.006"/>
</g>
<!-- Node9 -->
<g id="node10" class="node">
<title>Node9</title>
<polygon fill="#ffffff" stroke="#bfbfbf" points="15.2846,-62 15.2846,-81 74.2846,-81 74.2846,-62 15.2846,-62"/>
<text text-anchor="middle" x="44.7846" y="-69" font-family="Helvetica,sans-Serif" font-size="10.00" fill="#000000">stdexcept</text>
</g>
<!-- Node8&#45;&gt;Node9 -->
<g id="edge9" class="edge">
<title>Node8&#45;&gt;Node9</title>
<path fill="none" stroke="#191970" d="M73.4721,-123.3906C68.5607,-114.5068 61.1267,-101.0601 55.057,-90.0811"/>
<polygon fill="#191970" stroke="#191970" points="58.0734,-88.3031 50.172,-81.2449 51.9472,-91.6899 58.0734,-88.3031"/>
</g>
<!-- Node10 -->
<g id="node11" class="node">
<title>Node10</title>
<polygon fill="#ffffff" stroke="#bfbfbf" points="140.2846,-.5 140.2846,-19.5 181.2846,-19.5 181.2846,-.5 140.2846,-.5"/>
<text text-anchor="middle" x="160.7846" y="-7.5" font-family="Helvetica,sans-Serif" font-size="10.00" fill="#000000">string</text>
</g>
<!-- Node8&#45;&gt;Node10 -->
<g id="edge10" class="edge">
<title>Node8&#45;&gt;Node10</title>
<path fill="none" stroke="#191970" d="M51.0887,-123.4275C34.7382,-116.1781 15.4106,-104.4435 5.7846,-87 -.8722,-74.9371 -2.4562,-67.0416 5.7846,-56 20.6886,-36.0303 89.4732,-21.6344 130.2336,-14.6863"/>
<polygon fill="#191970" stroke="#191970" points="130.891,-18.1252 140.187,-13.0424 129.7503,-11.2188 130.891,-18.1252"/>
</g>
<!-- Node11 -->
<g id="node12" class="node">
<title>Node11</title>
<polygon fill="#ffffff" stroke="#bfbfbf" points="92.7846,-62 92.7846,-81 132.7846,-81 132.7846,-62 92.7846,-62"/>
<text text-anchor="middle" x="112.7846" y="-69" font-family="Helvetica,sans-Serif" font-size="10.00" fill="#000000">utility</text>
</g>
<!-- Node8&#45;&gt;Node11 -->
<g id="edge11" class="edge">
<title>Node8&#45;&gt;Node11</title>
<path fill="none" stroke="#191970" d="M84.0971,-123.3906C89.0085,-114.5068 96.4424,-101.0601 102.5121,-90.0811"/>
<polygon fill="#191970" stroke="#191970" points="105.6219,-91.6899 107.3972,-81.2449 99.4958,-88.3031 105.6219,-91.6899"/>
</g>
<!-- Node12&#45;&gt;Node10 -->
<g id="edge25" class="edge">
<title>Node12&#45;&gt;Node10</title>
<path fill="none" stroke="#191970" d="M826.6596,-124.2972C823.664,-123.8102 820.6824,-123.3697 817.7846,-123 747.3537,-114.0154 234.4257,-132.3386 179.7846,-87 163.278,-73.3036 159.8248,-47.7644 159.6509,-29.8667"/>
<polygon fill="#191970" stroke="#191970" points="163.1551,-29.7272 159.8923,-19.6473 156.157,-29.5618 163.1551,-29.7272"/>
</g>
<!-- Node12&#45;&gt;Node11 -->
<g id="edge26" class="edge">
<title>Node12&#45;&gt;Node11</title>
<path fill="none" stroke="#191970" d="M826.6607,-124.288C823.6649,-123.8032 820.6829,-123.3657 817.7846,-123 521.4822,-85.6183 436.8283,-158.1837 146.7846,-87 144.4456,-86.426 142.07,-85.6924 139.7175,-84.8578"/>
<polygon fill="#191970" stroke="#191970" points="140.911,-81.5643 130.3308,-81.0066 138.2539,-88.0405 140.911,-81.5643"/>
</g>
<!-- Node13 -->
<g id="node14" class="node">
<title>Node13</title>
<polygon fill="#ffffff" stroke="#bfbfbf" points="1174.7846,-62 1174.7846,-81 1264.7846,-81 1264.7846,-62 1174.7846,-62"/>
<text text-anchor="middle" x="1219.7846" y="-69" font-family="Helvetica,sans-Serif" font-size="10.00" fill="#000000">openssl/engine.h</text>
</g>
<!-- Node12&#45;&gt;Node13 -->
<g id="edge13" class="edge">
<title>Node12&#45;&gt;Node13</title>
<path fill="none" stroke="#191970" d="M908.9532,-124.5877C911.9385,-124.0325 914.9059,-123.4973 917.7846,-123 1027.103,-104.1151 1056.2775,-110.0948 1164.7846,-87 1169.2723,-86.0448 1173.9337,-84.9289 1178.5594,-83.7414"/>
<polygon fill="#191970" stroke="#191970" points="1179.7961,-87.0335 1188.548,-81.0623 1177.9826,-80.2725 1179.7961,-87.0335"/>
</g>
<!-- Node14 -->
<g id="node15" class="node">
<title>Node14</title>
<polygon fill="#ffffff" stroke="#bfbfbf" points="1283.2846,-62 1283.2846,-81 1356.2846,-81 1356.2846,-62 1283.2846,-62"/>
<text text-anchor="middle" x="1319.7846" y="-69" font-family="Helvetica,sans-Serif" font-size="10.00" fill="#000000">openssl/err.h</text>
</g>
<!-- Node12&#45;&gt;Node14 -->
<g id="edge14" class="edge">
<title>Node12&#45;&gt;Node14</title>
<path fill="none" stroke="#191970" d="M908.9299,-124.4434C911.9207,-123.9221 914.8957,-123.4339 917.7846,-123 1075.0496,-99.3784 1118.3458,-120.6012 1273.7846,-87 1277.4604,-86.2054 1281.2524,-85.2168 1285.0085,-84.1261"/>
<polygon fill="#191970" stroke="#191970" points="1286.2704,-87.3984 1294.7625,-81.0631 1284.1732,-80.7199 1286.2704,-87.3984"/>
</g>
<!-- Node15 -->
<g id="node16" class="node">
<title>Node15</title>
<polygon fill="#ffffff" stroke="#bfbfbf" points="1374.2846,-62 1374.2846,-81 1451.2846,-81 1451.2846,-62 1374.2846,-62"/>
<text text-anchor="middle" x="1412.7846" y="-69" font-family="Helvetica,sans-Serif" font-size="10.00" fill="#000000">openssl/evp.h</text>
</g>
<!-- Node12&#45;&gt;Node15 -->
<g id="edge15" class="edge">
<title>Node12&#45;&gt;Node15</title>
<path fill="none" stroke="#191970" d="M908.9202,-124.3763C911.9133,-123.8707 914.8914,-123.4044 917.7846,-123 1115.1755,-95.4088 1169.3045,-125.8845 1364.7846,-87 1368.8911,-86.1831 1373.138,-85.1307 1377.3296,-83.9593"/>
<polygon fill="#191970" stroke="#191970" points="1378.3561,-87.3055 1386.9178,-81.0645 1376.3329,-80.6042 1378.3561,-87.3055"/>
</g>
<!-- Node16 -->
<g id="node17" class="node">
<title>Node16</title>
<polygon fill="#ffffff" stroke="#bfbfbf" points="1469.2846,-62 1469.2846,-81 1570.2846,-81 1570.2846,-62 1469.2846,-62"/>
<text text-anchor="middle" x="1519.7846" y="-69" font-family="Helvetica,sans-Serif" font-size="10.00" fill="#000000">openssl/opensslv.h</text>
</g>
<!-- Node12&#45;&gt;Node16 -->
<g id="edge16" class="edge">
<title>Node12&#45;&gt;Node16</title>
<path fill="none" stroke="#191970" d="M908.9139,-124.33C911.9084,-123.8353 914.8886,-123.3841 917.7846,-123 1157.1085,-91.2587 1221.4318,-125.3588 1459.7846,-87 1465.5686,-86.0692 1471.6066,-84.833 1477.529,-83.4636"/>
<polygon fill="#191970" stroke="#191970" points="1478.4421,-86.8435 1487.3214,-81.0634 1476.7756,-80.0447 1478.4421,-86.8435"/>
</g>
<!-- Node17 -->
<g id="node18" class="node">
<title>Node17</title>
<polygon fill="#ffffff" stroke="#bfbfbf" points="188.7846,-62 188.7846,-81 268.7846,-81 268.7846,-62 188.7846,-62"/>
<text text-anchor="middle" x="228.7846" y="-69" font-family="Helvetica,sans-Serif" font-size="10.00" fill="#000000">openssl/pem.h</text>
</g>
<!-- Node12&#45;&gt;Node17 -->
<g id="edge17" class="edge">
<title>Node12&#45;&gt;Node17</title>
<path fill="none" stroke="#191970" d="M826.6552,-124.3308C823.6606,-123.8359 820.6805,-123.3844 817.7846,-123 579.3437,-91.3461 514.1477,-131.5921 277.7846,-87 273.5432,-86.1998 269.1551,-85.1486 264.8271,-83.9697"/>
<polygon fill="#191970" stroke="#191970" points="265.5171,-80.5241 254.9351,-81.0456 263.5327,-87.2369 265.5171,-80.5241"/>
</g>
<!-- Node18 -->
<g id="node19" class="node">
<title>Node18</title>
<polygon fill="#ffffff" stroke="#bfbfbf" points="287.2846,-62 287.2846,-81 380.2846,-81 380.2846,-62 287.2846,-62"/>
<text text-anchor="middle" x="333.7846" y="-69" font-family="Helvetica,sans-Serif" font-size="10.00" fill="#000000">openssl/pkcs12.h</text>
</g>
<!-- Node12&#45;&gt;Node18 -->
<g id="edge18" class="edge">
<title>Node12&#45;&gt;Node18</title>
<path fill="none" stroke="#191970" d="M826.6473,-124.388C823.6546,-123.8797 820.677,-123.4095 817.7846,-123 628.7758,-96.2382 577.6971,-120.6065 389.7846,-87 384.7015,-86.0909 379.4123,-84.9257 374.2026,-83.6431"/>
<polygon fill="#191970" stroke="#191970" points="374.9173,-80.2124 364.3571,-81.0685 373.1463,-86.9847 374.9173,-80.2124"/>
</g>
<!-- Node19 -->
<g id="node20" class="node">
<title>Node19</title>
<polygon fill="#ffffff" stroke="#bfbfbf" points="398.7846,-62 398.7846,-81 478.7846,-81 478.7846,-62 398.7846,-62"/>
<text text-anchor="middle" x="438.7846" y="-69" font-family="Helvetica,sans-Serif" font-size="10.00" fill="#000000">openssl/rand.h</text>
</g>
<!-- Node12&#45;&gt;Node19 -->
<g id="edge19" class="edge">
<title>Node12&#45;&gt;Node19</title>
<path fill="none" stroke="#191970" d="M826.6353,-124.4694C823.6454,-123.942 820.6717,-123.4453 817.7846,-123 671.9719,-100.5107 632.1561,-117.3967 487.7846,-87 483.8215,-86.1656 479.7234,-85.1398 475.6626,-84.0167"/>
<polygon fill="#191970" stroke="#191970" points="476.3262,-80.563 465.7439,-81.0782 474.3378,-87.2747 476.3262,-80.563"/>
</g>
<!-- Node20 -->
<g id="node21" class="node">
<title>Node20</title>
<polygon fill="#ffffff" stroke="#bfbfbf" points="497.2846,-62 497.2846,-81 572.2846,-81 572.2846,-62 497.2846,-62"/>
<text text-anchor="middle" x="534.7846" y="-69" font-family="Helvetica,sans-Serif" font-size="10.00" fill="#000000">openssl/rsa.h</text>
</g>
<!-- Node12&#45;&gt;Node20 -->
<g id="edge20" class="edge">
<title>Node12&#45;&gt;Node20</title>
<path fill="none" stroke="#191970" d="M826.6125,-124.6074C823.628,-124.0476 820.6617,-123.506 817.7846,-123 712.8531,-104.5477 684.326,-112.1055 580.7846,-87 577.4062,-86.1809 573.9222,-85.2233 570.4544,-84.1931"/>
<polygon fill="#191970" stroke="#191970" points="571.4149,-80.8261 560.8251,-81.1524 569.307,-87.5012 571.4149,-80.8261"/>
</g>
<!-- Node21 -->
<g id="node22" class="node">
<title>Node21</title>
<polygon fill="#ffffff" stroke="#bfbfbf" points="589.7846,-62 589.7846,-81 645.7846,-81 645.7846,-62 589.7846,-62"/>
<text text-anchor="middle" x="617.7846" y="-69" font-family="Helvetica,sans-Serif" font-size="10.00" fill="#000000">sodium.h</text>
</g>
<!-- Node12&#45;&gt;Node21 -->
<g id="edge21" class="edge">
<title>Node12&#45;&gt;Node21</title>
<path fill="none" stroke="#191970" d="M826.4293,-124.4963C769.1833,-112.6595 670.9795,-92.0932 654.7846,-87 652.6254,-86.3209 650.4181,-85.5645 648.2097,-84.7612"/>
<polygon fill="#191970" stroke="#191970" points="649.2547,-81.412 638.6666,-81.0349 646.7086,-87.9325 649.2547,-81.412"/>
</g>
<!-- Node22 -->
<g id="node23" class="node">
<title>Node22</title>
<polygon fill="#ffffff" stroke="#bfbfbf" points="664.2846,-62 664.2846,-81 785.2846,-81 785.2846,-62 664.2846,-62"/>
<text text-anchor="middle" x="724.7846" y="-69" font-family="Helvetica,sans-Serif" font-size="10.00" fill="#000000">boost/algorithm/hex.hpp</text>
</g>
<!-- Node12&#45;&gt;Node22 -->
<g id="edge22" class="edge">
<title>Node12&#45;&gt;Node22</title>
<path fill="none" stroke="#191970" d="M845.4408,-123.3906C821.5143,-113.1005 783.3537,-96.6888 756.3629,-85.0809"/>
<polygon fill="#191970" stroke="#191970" points="757.5407,-81.7775 746.9714,-81.0419 754.7751,-88.208 757.5407,-81.7775"/>
</g>
<!-- Node23 -->
<g id="node24" class="node">
<title>Node23</title>
<polygon fill="#ffffff" stroke="#bfbfbf" points="803.2846,-62 803.2846,-81 932.2846,-81 932.2846,-62 803.2846,-62"/>
<text text-anchor="middle" x="867.7846" y="-69" font-family="Helvetica,sans-Serif" font-size="10.00" fill="#000000">boost/algorithm/string.hpp</text>
</g>
<!-- Node12&#45;&gt;Node23 -->
<g id="edge23" class="edge">
<title>Node12&#45;&gt;Node23</title>
<path fill="none" stroke="#191970" d="M867.7846,-123.3906C867.7846,-114.8657 867.7846,-102.1392 867.7846,-91.4235"/>
<polygon fill="#191970" stroke="#191970" points="871.2847,-91.2448 867.7846,-81.2449 864.2847,-91.2449 871.2847,-91.2448"/>
</g>
<!-- Node24 -->
<g id="node25" class="node">
<title>Node24</title>
<polygon fill="#ffffff" stroke="#bfbfbf" points="950.7846,-56.5 950.7846,-86.5 1060.7846,-86.5 1060.7846,-56.5 950.7846,-56.5"/>
<text text-anchor="start" x="958.7846" y="-74.5" font-family="Helvetica,sans-Serif" font-size="10.00" fill="#000000">boost/algorithm/string</text>
<text text-anchor="middle" x="1005.7846" y="-63.5" font-family="Helvetica,sans-Serif" font-size="10.00" fill="#000000">/case_conv.hpp</text>
</g>
<!-- Node12&#45;&gt;Node24 -->
<g id="edge24" class="edge">
<title>Node12&#45;&gt;Node24</title>
<path fill="none" stroke="#191970" d="M889.3471,-123.3906C908.8884,-114.682 938.2683,-101.5888 962.6262,-90.7336"/>
<polygon fill="#191970" stroke="#191970" points="964.3167,-93.8122 972.026,-86.5446 961.4672,-87.4183 964.3167,-93.8122"/>
</g>
<!-- Node12&#45;&gt;Node25 -->
<g id="edge27" class="edge">
<title>Node12&#45;&gt;Node25</title>
<path fill="none" stroke="#191970" d="M908.9088,-124.2907C911.9045,-123.8053 914.8864,-123.3668 917.7846,-123 1209.669,-86.0557 1289.0512,-138.1467 1578.7846,-87 1583.4921,-86.169 1588.3763,-85.0422 1593.1743,-83.7729"/>
<polygon fill="#191970" stroke="#191970" points="1594.1645,-87.1302 1602.8174,-81.0164 1592.2406,-80.3997 1594.1645,-87.1302"/>
</g>
<!-- Node27 -->
<g id="node28" class="node">
<title>Node27</title>
<g id="a_node28"><a xlink:href="utils_8h_source.html" target="_top" xlink:title="utilities/utils.h">
<polygon fill="#ffffff" stroke="#000000" points="1079.2846,-62 1079.2846,-81 1156.2846,-81 1156.2846,-62 1079.2846,-62"/>
<text text-anchor="middle" x="1117.7846" y="-69" font-family="Helvetica,sans-Serif" font-size="10.00" fill="#000000">utilities/utils.h</text>
</a>
</g>
</g>
<!-- Node12&#45;&gt;Node27 -->
<g id="edge30" class="edge">
<title>Node12&#45;&gt;Node27</title>
<path fill="none" stroke="#191970" d="M909.0592,-124.7176C950.0723,-116.2261 1014.64,-102.1505 1069.7846,-87 1073.1372,-86.0789 1076.6044,-85.0707 1080.0701,-84.0245"/>
<polygon fill="#191970" stroke="#191970" points="1081.228,-87.3298 1089.7365,-81.0166 1079.1481,-80.646 1081.228,-87.3298"/>
</g>
<!-- Node25&#45;&gt;Node2 -->
<g id="edge28" class="edge">
<title>Node25&#45;&gt;Node2</title>
<path fill="none" stroke="#191970" d="M1629.7846,-61.8906C1629.7846,-53.3657 1629.7846,-40.6392 1629.7846,-29.9235"/>
<polygon fill="#191970" stroke="#191970" points="1633.2847,-29.7448 1629.7846,-19.7449 1626.2847,-29.7449 1633.2847,-29.7448"/>
</g>
<!-- Node26 -->
<g id="node27" class="node">
<title>Node26</title>
<polygon fill="#ffffff" stroke="#bfbfbf" points="1360.2846,-.5 1360.2846,-19.5 1467.2846,-19.5 1467.2846,-.5 1360.2846,-.5"/>
<text text-anchor="middle" x="1413.7846" y="-7.5" font-family="Helvetica,sans-Serif" font-size="10.00" fill="#000000">boost/filesystem.hpp</text>
</g>
<!-- Node25&#45;&gt;Node26 -->
<g id="edge29" class="edge">
<title>Node25&#45;&gt;Node26</title>
<path fill="none" stroke="#191970" d="M1598.8034,-61.9588C1592.2043,-59.9616 1585.2704,-57.8894 1578.7846,-56 1538.2906,-44.2036 1492.0212,-31.3591 1458.8047,-22.2484"/>
<polygon fill="#191970" stroke="#191970" points="1459.5053,-18.8115 1448.936,-19.5462 1457.6566,-25.563 1459.5053,-18.8115"/>
</g>
<!-- Node27&#45;&gt;Node2 -->
<g id="edge37" class="edge">
<title>Node27&#45;&gt;Node2</title>
<path fill="none" stroke="#191970" d="M1143.9202,-61.9448C1150.9402,-59.6866 1158.5836,-57.5016 1165.7846,-56 1245.8763,-39.2987 1488.77,-20.293 1587.4392,-13.0344"/>
<polygon fill="#191970" stroke="#191970" points="1587.9177,-16.5088 1597.6356,-12.2884 1587.4069,-9.5275 1587.9177,-16.5088"/>
</g>
<!-- Node27&#45;&gt;Node10 -->
<g id="edge34" class="edge">
<title>Node27&#45;&gt;Node10</title>
<path fill="none" stroke="#191970" d="M1092.4449,-61.9512C1085.2221,-59.6054 1077.2781,-57.3749 1069.7846,-56 895.764,-24.0721 330.6391,-12.8035 191.8034,-10.4815"/>
<polygon fill="#191970" stroke="#191970" points="191.534,-6.9767 181.478,-10.3123 191.4193,-13.9758 191.534,-6.9767"/>
</g>
<!-- Node27&#45;&gt;Node26 -->
<g id="edge32" class="edge">
<title>Node27&#45;&gt;Node26</title>
<path fill="none" stroke="#191970" d="M1145.2745,-61.9513C1151.9395,-59.8231 1159.078,-57.6973 1165.7846,-56 1227.7406,-40.3203 1299.6577,-27.568 1350.0417,-19.5013"/>
<polygon fill="#191970" stroke="#191970" points="1350.8093,-22.9235 1360.1382,-17.9014 1349.7136,-16.0097 1350.8093,-22.9235"/>
</g>
<!-- Node28 -->
<g id="node29" class="node">
<title>Node28</title>
<polygon fill="#ffffff" stroke="#bfbfbf" points="993.2846,-.5 993.2846,-19.5 1036.2846,-19.5 1036.2846,-.5 993.2846,-.5"/>
<text text-anchor="middle" x="1014.7846" y="-7.5" font-family="Helvetica,sans-Serif" font-size="10.00" fill="#000000">glob.h</text>
</g>
<!-- Node27&#45;&gt;Node28 -->
<g id="edge31" class="edge">
<title>Node27&#45;&gt;Node28</title>
<path fill="none" stroke="#191970" d="M1101.6908,-61.8906C1085.0617,-51.9616 1058.8869,-36.333 1039.6052,-24.8201"/>
<polygon fill="#191970" stroke="#191970" points="1041.1456,-21.6634 1030.7653,-19.5419 1037.557,-27.6736 1041.1456,-21.6634"/>
</g>
<!-- Node29 -->
<g id="node30" class="node">
<title>Node29</title>
<polygon fill="#ffffff" stroke="#bfbfbf" points="1054.7846,-.5 1054.7846,-19.5 1106.7846,-19.5 1106.7846,-.5 1054.7846,-.5"/>
<text text-anchor="middle" x="1080.7846" y="-7.5" font-family="Helvetica,sans-Serif" font-size="10.00" fill="#000000">memory</text>
</g>
<!-- Node27&#45;&gt;Node29 -->
<g id="edge33" class="edge">
<title>Node27&#45;&gt;Node29</title>
<path fill="none" stroke="#191970" d="M1112.0033,-61.8906C1106.6586,-53.0068 1098.5687,-39.5601 1091.9634,-28.5811"/>
<polygon fill="#191970" stroke="#191970" points="1094.8017,-26.5093 1086.6473,-19.7449 1088.8035,-30.118 1094.8017,-26.5093"/>
</g>
<!-- Node30 -->
<g id="node31" class="node">
<title>Node30</title>
<polygon fill="#ffffff" stroke="#bfbfbf" points="1125.2846,-.5 1125.2846,-19.5 1184.2846,-19.5 1184.2846,-.5 1125.2846,-.5"/>
<text text-anchor="middle" x="1154.7846" y="-7.5" font-family="Helvetica,sans-Serif" font-size="10.00" fill="#000000">curl/curl.h</text>
</g>
<!-- Node27&#45;&gt;Node30 -->
<g id="edge35" class="edge">
<title>Node27&#45;&gt;Node30</title>
<path fill="none" stroke="#191970" d="M1123.5658,-61.8906C1128.9106,-53.0068 1137.0005,-39.5601 1143.6057,-28.5811"/>
<polygon fill="#191970" stroke="#191970" points="1146.7656,-30.118 1148.9218,-19.7449 1140.7675,-26.5093 1146.7656,-30.118"/>
</g>
<!-- Node31 -->
<g id="node32" class="node">
<title>Node31</title>
<polygon fill="#ffffff" stroke="#bfbfbf" points="1202.2846,-.5 1202.2846,-19.5 1267.2846,-19.5 1267.2846,-.5 1202.2846,-.5"/>
<text text-anchor="middle" x="1234.7846" y="-7.5" font-family="Helvetica,sans-Serif" font-size="10.00" fill="#000000">netinet/in.h</text>
</g>
<!-- Node27&#45;&gt;Node31 -->
<g id="edge36" class="edge">
<title>Node27&#45;&gt;Node31</title>
<path fill="none" stroke="#191970" d="M1136.0658,-61.8906C1155.2986,-51.7811 1185.7725,-35.7628 1207.7771,-24.1962"/>
<polygon fill="#191970" stroke="#191970" points="1209.4085,-27.2928 1216.6317,-19.5419 1206.1515,-21.0967 1209.4085,-27.2928"/>
</g>
</g>
</svg>
        <g id="navigator" transform="translate(0 0)" fill="#404254">
                <rect fill="#f2f5e9" fill-opacity="0.5" stroke="#606060" stroke-width=".5" x="0" y="0" width="60" height="60"/>
                <use id="zoomplus" xlink:href="#zoomPlus" x="17" y="9" onmousedown="handleZoom(evt,'in')"/>
                <use id="zoomminus" xlink:href="#zoomMin" x="42" y="9" onmousedown="handleZoom(evt,'out')"/>
                <use id="reset" xlink:href="#resetDef" x="30" y="36" onmousedown="handleReset()"/>
                <g id="arrowUp" xlink:href="#dirArrow" transform="translate(30 24)" onmousedown="handlePan(0,-1)">
                  <use xlink:href="#rim" fill="#404040">
                        <set attributeName="fill" to="#808080" begin="arrowUp.mouseover" end="arrowUp.mouseout"/>
                  </use>
                  <path fill="none" stroke="white" stroke-width="1.5" d="M0,-3.0v7 M-2.5,-0.5L0,-3.0L2.5,-0.5"/>
                </g>
                <g id="arrowRight" xlink:href="#dirArrow" transform="rotate(90) translate(36 -43)" onmousedown="handlePan(1,0)">
                  <use xlink:href="#rim" fill="#404040">
                        <set attributeName="fill" to="#808080" begin="arrowRight.mouseover" end="arrowRight.mouseout"/>
                  </use>
                  <path fill="none" stroke="white" stroke-width="1.5" d="M0,-3.0v7 M-2.5,-0.5L0,-3.0L2.5,-0.5"/>
                </g>
                <g id="arrowDown" xlink:href="#dirArrow" transform="rotate(180) translate(-30 -48)" onmousedown="handlePan(0,1)">
                  <use xlink:href="#rim" fill="#404040">
                        <set attributeName="fill" to="#808080" begin="arrowDown.mouseover" end="arrowDown.mouseout"/>
                  </use>
                  <path fill="none" stroke="white" stroke-width="1.5" d="M0,-3.0v7 M-2.5,-0.5L0,-3.0L2.5,-0.5"/>
                </g>
                <g id="arrowLeft" xlink:href="#dirArrow" transform="rotate(270) translate(-36 17)" onmousedown="handlePan(-1,0)">
                  <use xlink:href="#rim" fill="#404040">
                        <set attributeName="fill" to="#808080" begin="arrowLeft.mouseover" end="arrowLeft.mouseout"/>
                  </use>
                  <path fill="none" stroke="white" stroke-width="1.5" d="M0,-3.0v7 M-2.5,-0.5L0,-3.0L2.5,-0.5"/>
                </g>
        </g>
        <svg viewBox="0 0 15 15" width="100%" height="30px" preserveAspectRatio="xMaxYMin meet">
         <g id="arrow_out" transform="scale(0.3 0.3)">
          <a xlink:href="events_8h__incl_org.svg" target="_base">
           <rect id="button" ry="5" rx="5" y="6" x="6" height="38" width="38"
                fill="#f2f5e9" fill-opacity="0.5" stroke="#606060" stroke-width="1.0"/>
           <path id="arrow"
             d="M 11.500037,31.436501 C 11.940474,20.09759 22.043105,11.32322 32.158766,21.979434 L 37.068811,17.246167 C 37.068811,17.246167 37.088388,32 37.088388,32 L 22.160133,31.978069 C 22.160133,31.978069 26.997745,27.140456 26.997745,27.140456 C 18.528582,18.264221 13.291696,25.230495 11.500037,31.436501 z"
             style="fill:#404040;"/>
          </a>
         </g>
        </svg>
</svg>
