<?xml version="1.0" encoding="UTF-8" standalone="no"?>
<!DOCTYPE svg PUBLIC "-//W3C//DTD SVG 1.1//EN"
 "http://www.w3.org/Graphics/SVG/1.1/DTD/svg11.dtd">
<!-- Generated by graphviz version 2.38.0 (20140413.2041)
 -->
<!-- Title: src/libaktualizr/primary/events.h Pages: 1 -->
<svg width="2137pt" height="173pt"
 viewBox="0.00 0.00 2136.50 173.00" xmlns="http://www.w3.org/2000/svg" xmlns:xlink="http://www.w3.org/1999/xlink">
<g id="graph0" class="graph" transform="scale(1 1) rotate(0) translate(4 169)">
<title>src/libaktualizr/primary/events.h</title>
<polygon fill="white" stroke="none" points="-4,4 -4,-169 2132.5,-169 2132.5,4 -4,4"/>
<!-- Node35 -->
<g id="node1" class="node"><title>Node35</title>
<polygon fill="#bfbfbf" stroke="black" points="1241,-134.5 1241,-164.5 1356,-164.5 1356,-134.5 1241,-134.5"/>
<text text-anchor="start" x="1249" y="-152.5" font-family="Helvetica,sans-Serif" font-size="10.00">src/libaktualizr/primary</text>
<text text-anchor="middle" x="1298.5" y="-141.5" font-family="Helvetica,sans-Serif" font-size="10.00">/events.h</text>
</g>
<!-- Node36 -->
<g id="node2" class="node"><title>Node36</title>
<g id="a_node2"><a xlink:href="aktualizr_8h_source.html" target="_top" xlink:title="src/libaktualizr/primary\l/aktualizr.h">
<polygon fill="white" stroke="black" points="241,-67.5 241,-97.5 356,-97.5 356,-67.5 241,-67.5"/>
<text text-anchor="start" x="249" y="-85.5" font-family="Helvetica,sans-Serif" font-size="10.00">src/libaktualizr/primary</text>
<text text-anchor="middle" x="298.5" y="-74.5" font-family="Helvetica,sans-Serif" font-size="10.00">/aktualizr.h</text>
</a>
</g>
</g>
<!-- Node35&#45;&gt;Node36 -->
<g id="edge1" class="edge"><title>Node35&#45;&gt;Node36</title>
<path fill="none" stroke="midnightblue" d="M1230.72,-147.02C1079.67,-143.219 704.072,-130.987 391.5,-98 380.125,-96.7995 368.017,-95.1714 356.427,-93.4393"/>
<polygon fill="midnightblue" stroke="midnightblue" points="1230.69,-150.52 1240.77,-147.269 1230.86,-143.522 1230.69,-150.52"/>
</g>
<!-- Node40 -->
<g id="node6" class="node"><title>Node40</title>
<g id="a_node6"><a xlink:href="eventsinterpreter_8h_source.html" target="_top" xlink:title="src/libaktualizr/primary\l/eventsinterpreter.h">
<polygon fill="white" stroke="black" points="401,-67.5 401,-97.5 516,-97.5 516,-67.5 401,-67.5"/>
<text text-anchor="start" x="409" y="-85.5" font-family="Helvetica,sans-Serif" font-size="10.00">src/libaktualizr/primary</text>
<text text-anchor="middle" x="458.5" y="-74.5" font-family="Helvetica,sans-Serif" font-size="10.00">/eventsinterpreter.h</text>
</a>
</g>
</g>
<!-- Node35&#45;&gt;Node40 -->
<g id="edge5" class="edge"><title>Node35&#45;&gt;Node40</title>
<path fill="none" stroke="midnightblue" d="M1230.5,-143.238C1069.3,-130.764 666.252,-99.5761 516.084,-87.9559"/>
<polygon fill="midnightblue" stroke="midnightblue" points="1230.52,-146.75 1240.76,-144.032 1231.06,-139.771 1230.52,-146.75"/>
</g>
<!-- Node42 -->
<g id="node8" class="node"><title>Node42</title>
<g id="a_node8"><a xlink:href="eventsinterpreter__test_8cc_source.html" target="_top" xlink:title="src/libaktualizr/primary\l/eventsinterpreter_test.cc">
<polygon fill="white" stroke="black" points="520.5,-0.5 520.5,-30.5 648.5,-30.5 648.5,-0.5 520.5,-0.5"/>
<text text-anchor="start" x="528.5" y="-18.5" font-family="Helvetica,sans-Serif" font-size="10.00">src/libaktualizr/primary</text>
<text text-anchor="middle" x="584.5" y="-7.5" font-family="Helvetica,sans-Serif" font-size="10.00">/eventsinterpreter_test.cc</text>
</a>
</g>
</g>
<!-- Node35&#45;&gt;Node42 -->
<g id="edge24" class="edge"><title>Node35&#45;&gt;Node42</title>
<path fill="none" stroke="midnightblue" d="M1231.11,-136.485C1114.24,-115.573 866.448,-70.9003 657.5,-31 654.581,-30.4426 651.597,-29.8683 648.584,-29.2846"/>
<polygon fill="midnightblue" stroke="midnightblue" points="1230.53,-139.936 1240.99,-138.252 1231.76,-133.046 1230.53,-139.936"/>
</g>
<!-- Node43 -->
<g id="node9" class="node"><title>Node43</title>
<g id="a_node9"><a xlink:href="sotauptaneclient_8h_source.html" target="_top" xlink:title="src/libaktualizr/primary\l/sotauptaneclient.h">
<polygon fill="white" stroke="black" points="1198,-67.5 1198,-97.5 1313,-97.5 1313,-67.5 1198,-67.5"/>
<text text-anchor="start" x="1206" y="-85.5" font-family="Helvetica,sans-Serif" font-size="10.00">src/libaktualizr/primary</text>
<text text-anchor="middle" x="1255.5" y="-74.5" font-family="Helvetica,sans-Serif" font-size="10.00">/sotauptaneclient.h</text>
</a>
</g>
</g>
<!-- Node35&#45;&gt;Node43 -->
<g id="edge9" class="edge"><title>Node35&#45;&gt;Node43</title>
<path fill="none" stroke="midnightblue" d="M1283.53,-125.867C1277.3,-116.459 1270.27,-105.833 1264.81,-97.5765"/>
<polygon fill="midnightblue" stroke="midnightblue" points="1280.73,-127.987 1289.17,-134.396 1286.57,-124.125 1280.73,-127.987"/>
</g>
<!-- Node53 -->
<g id="node19" class="node"><title>Node53</title>
<g id="a_node19"><a xlink:href="check_8cc_source.html" target="_top" xlink:title="src/load_tests/check.cc">
<polygon fill="white" stroke="black" points="1855,-6 1855,-25 1976,-25 1976,-6 1855,-6"/>
<text text-anchor="middle" x="1915.5" y="-13" font-family="Helvetica,sans-Serif" font-size="10.00">src/load_tests/check.cc</text>
</a>
</g>
</g>
<!-- Node35&#45;&gt;Node53 -->
<g id="edge25" class="edge"><title>Node35&#45;&gt;Node53</title>
<path fill="none" stroke="midnightblue" d="M1310.43,-125.469C1321.78,-106.192 1340.77,-79.8361 1365.5,-67 1460.44,-17.7195 1739.57,-45.8795 1845.5,-31 1856.32,-29.4808 1867.97,-27.2926 1878.6,-25.075"/>
<polygon fill="midnightblue" stroke="midnightblue" points="1307.33,-123.841 1305.48,-134.274 1313.43,-127.27 1307.33,-123.841"/>
</g>
<!-- Node54 -->
<g id="node20" class="node"><title>Node54</title>
<g id="a_node20"><a xlink:href="provision_8cc_source.html" target="_top" xlink:title="src/load_tests/provision.cc">
<polygon fill="white" stroke="black" points="1994.5,-6 1994.5,-25 2128.5,-25 2128.5,-6 1994.5,-6"/>
<text text-anchor="middle" x="2061.5" y="-13" font-family="Helvetica,sans-Serif" font-size="10.00">src/load_tests/provision.cc</text>
</a>
</g>
</g>
<!-- Node35&#45;&gt;Node54 -->
<g id="edge26" class="edge"><title>Node35&#45;&gt;Node54</title>
<path fill="none" stroke="midnightblue" d="M1324.59,-128.194C1336.25,-119.045 1350.13,-108.06 1362.5,-98 1379.14,-84.4651 1379.57,-74.945 1399.5,-67 1520.69,-18.6828 1856.05,-47.2583 1985.5,-31 1997.36,-29.5102 2010.16,-27.3038 2021.81,-25.059"/>
<polygon fill="midnightblue" stroke="midnightblue" points="1322.26,-125.571 1316.54,-134.491 1326.58,-131.084 1322.26,-125.571"/>
</g>
<!-- Node55 -->
<g id="node21" class="node"><title>Node55</title>
<g id="a_node21"><a xlink:href="events_8cc_source.html" target="_top" xlink:title="src/libaktualizr/primary\l/events.cc">
<polygon fill="white" stroke="black" points="1408,-67.5 1408,-97.5 1523,-97.5 1523,-67.5 1408,-67.5"/>
<text text-anchor="start" x="1416" y="-85.5" font-family="Helvetica,sans-Serif" font-size="10.00">src/libaktualizr/primary</text>
<text text-anchor="middle" x="1465.5" y="-74.5" font-family="Helvetica,sans-Serif" font-size="10.00">/events.cc</text>
</a>
</g>
</g>
<!-- Node35&#45;&gt;Node55 -->
<g id="edge22" class="edge"><title>Node35&#45;&gt;Node55</title>
<path fill="none" stroke="midnightblue" d="M1344.28,-130.682C1371.06,-120.257 1404.4,-107.281 1429.33,-97.5765"/>
<polygon fill="midnightblue" stroke="midnightblue" points="1342.79,-127.507 1334.74,-134.396 1345.33,-134.03 1342.79,-127.507"/>
</g>
<!-- Node56 -->
<g id="node22" class="node"><title>Node56</title>
<g id="a_node22"><a xlink:href="events__test_8cc_source.html" target="_top" xlink:title="src/libaktualizr/primary\l/events_test.cc">
<polygon fill="white" stroke="black" points="1541,-67.5 1541,-97.5 1656,-97.5 1656,-67.5 1541,-67.5"/>
<text text-anchor="start" x="1549" y="-85.5" font-family="Helvetica,sans-Serif" font-size="10.00">src/libaktualizr/primary</text>
<text text-anchor="middle" x="1598.5" y="-74.5" font-family="Helvetica,sans-Serif" font-size="10.00">/events_test.cc</text>
</a>
</g>
</g>
<!-- Node35&#45;&gt;Node56 -->
<g id="edge23" class="edge"><title>Node35&#45;&gt;Node56</title>
<path fill="none" stroke="midnightblue" d="M1366.22,-133.955C1412.95,-123.901 1476.51,-110.193 1532.5,-98 1535.25,-97.4009 1538.07,-96.7868 1540.91,-96.1656"/>
<polygon fill="midnightblue" stroke="midnightblue" points="1365.25,-130.583 1356.21,-136.108 1366.72,-137.426 1365.25,-130.583"/>
</g>
<!-- Node37 -->
<g id="node3" class="node"><title>Node37</title>
<g id="a_node3"><a xlink:href="aktualizr__primary_2main_8cc_source.html" target="_top" xlink:title="src/aktualizr_primary\l/main.cc">
<polygon fill="white" stroke="black" points="0,-0.5 0,-30.5 107,-30.5 107,-0.5 0,-0.5"/>
<text text-anchor="start" x="8" y="-18.5" font-family="Helvetica,sans-Serif" font-size="10.00">src/aktualizr_primary</text>
<text text-anchor="middle" x="53.5" y="-7.5" font-family="Helvetica,sans-Serif" font-size="10.00">/main.cc</text>
</a>
</g>
</g>
<!-- Node36&#45;&gt;Node37 -->
<g id="edge2" class="edge"><title>Node36&#45;&gt;Node37</title>
<path fill="none" stroke="midnightblue" d="M235.742,-64.8498C195.797,-54.2523 144.63,-40.6775 106.687,-30.6109"/>
<polygon fill="midnightblue" stroke="midnightblue" points="235.077,-68.2945 245.64,-67.476 236.872,-61.5286 235.077,-68.2945"/>
</g>
<!-- Node38 -->
<g id="node4" class="node"><title>Node38</title>
<g id="a_node4"><a xlink:href="hmi__stub_2main_8cc_source.html" target="_top" xlink:title="src/hmi_stub/main.cc">
<polygon fill="white" stroke="black" points="125.5,-6 125.5,-25 235.5,-25 235.5,-6 125.5,-6"/>
<text text-anchor="middle" x="180.5" y="-13" font-family="Helvetica,sans-Serif" font-size="10.00">src/hmi_stub/main.cc</text>
</a>
</g>
</g>
<!-- Node36&#45;&gt;Node38 -->
<g id="edge3" class="edge"><title>Node36&#45;&gt;Node38</title>
<path fill="none" stroke="midnightblue" d="M263.958,-62.4727C241.432,-50.0641 213.125,-34.4716 195.943,-25.007"/>
<polygon fill="midnightblue" stroke="midnightblue" points="262.448,-65.6367 272.896,-67.396 265.825,-59.5054 262.448,-65.6367"/>
</g>
<!-- Node39 -->
<g id="node5" class="node"><title>Node39</title>
<g id="a_node5"><a xlink:href="aktualizr_8cc_source.html" target="_top" xlink:title="src/libaktualizr/primary\l/aktualizr.cc">
<polygon fill="white" stroke="black" points="254,-0.5 254,-30.5 369,-30.5 369,-0.5 254,-0.5"/>
<text text-anchor="start" x="262" y="-18.5" font-family="Helvetica,sans-Serif" font-size="10.00">src/libaktualizr/primary</text>
<text text-anchor="middle" x="311.5" y="-7.5" font-family="Helvetica,sans-Serif" font-size="10.00">/aktualizr.cc</text>
</a>
</g>
</g>
<!-- Node36&#45;&gt;Node39 -->
<g id="edge4" class="edge"><title>Node36&#45;&gt;Node39</title>
<path fill="none" stroke="midnightblue" d="M303.319,-57.4029C305.126,-48.3703 307.118,-38.4078 308.685,-30.5765"/>
<polygon fill="midnightblue" stroke="midnightblue" points="299.85,-56.9037 301.321,-67.396 306.714,-58.2766 299.85,-56.9037"/>
</g>
<!-- Node40&#45;&gt;Node39 -->
<g id="edge6" class="edge"><title>Node40&#45;&gt;Node39</title>
<path fill="none" stroke="midnightblue" d="M417.269,-63.2687C393.856,-52.9159 364.992,-40.1528 343.335,-30.5765"/>
<polygon fill="midnightblue" stroke="midnightblue" points="416.042,-66.5529 426.603,-67.396 418.873,-60.1508 416.042,-66.5529"/>
</g>
<!-- Node41 -->
<g id="node7" class="node"><title>Node41</title>
<g id="a_node7"><a xlink:href="eventsinterpreter_8cc_source.html" target="_top" xlink:title="src/libaktualizr/primary\l/eventsinterpreter.cc">
<polygon fill="white" stroke="black" points="387,-0.5 387,-30.5 502,-30.5 502,-0.5 387,-0.5"/>
<text text-anchor="start" x="395" y="-18.5" font-family="Helvetica,sans-Serif" font-size="10.00">src/libaktualizr/primary</text>
<text text-anchor="middle" x="444.5" y="-7.5" font-family="Helvetica,sans-Serif" font-size="10.00">/eventsinterpreter.cc</text>
</a>
</g>
</g>
<!-- Node40&#45;&gt;Node41 -->
<g id="edge7" class="edge"><title>Node40&#45;&gt;Node41</title>
<path fill="none" stroke="midnightblue" d="M453.31,-57.4029C451.364,-48.3703 449.219,-38.4078 447.532,-30.5765"/>
<polygon fill="midnightblue" stroke="midnightblue" points="449.935,-58.3571 455.462,-67.396 456.778,-56.8832 449.935,-58.3571"/>
</g>
<!-- Node40&#45;&gt;Node42 -->
<g id="edge8" class="edge"><title>Node40&#45;&gt;Node42</title>
<path fill="none" stroke="midnightblue" d="M494.915,-62.7143C514.787,-52.4631 538.98,-39.9826 557.213,-30.5765"/>
<polygon fill="midnightblue" stroke="midnightblue" points="493.123,-59.7008 485.84,-67.396 496.332,-65.9218 493.123,-59.7008"/>
</g>
<!-- Node43&#45;&gt;Node39 -->
<g id="edge13" class="edge"><title>Node43&#45;&gt;Node39</title>
<path fill="none" stroke="midnightblue" d="M1187.65,-81.2567C1039.76,-79.9264 677.536,-72.3204 377.5,-31 374.827,-30.6319 372.101,-30.2129 369.355,-29.7551"/>
<polygon fill="midnightblue" stroke="midnightblue" points="1187.9,-84.7588 1197.93,-81.342 1187.96,-77.759 1187.9,-84.7588"/>
</g>
<!-- Node44 -->
<g id="node10" class="node"><title>Node44</title>
<g id="a_node10"><a xlink:href="initializer__implicit__test_8cc_source.html" target="_top" xlink:title="tests/initializer_implicit\l_test.cc">
<polygon fill="white" stroke="black" points="1460.5,-0.5 1460.5,-30.5 1576.5,-30.5 1576.5,-0.5 1460.5,-0.5"/>
<text text-anchor="start" x="1468.5" y="-18.5" font-family="Helvetica,sans-Serif" font-size="10.00">tests/initializer_implicit</text>
<text text-anchor="middle" x="1518.5" y="-7.5" font-family="Helvetica,sans-Serif" font-size="10.00">_test.cc</text>
</a>
</g>
</g>
<!-- Node43&#45;&gt;Node44 -->
<g id="edge10" class="edge"><title>Node43&#45;&gt;Node44</title>
<path fill="none" stroke="midnightblue" d="M1322.05,-65.0515C1365.05,-54.425 1420.42,-40.7414 1461.41,-30.6109"/>
<polygon fill="midnightblue" stroke="midnightblue" points="1321.11,-61.6789 1312.24,-67.476 1322.79,-68.4744 1321.11,-61.6789"/>
</g>
<!-- Node45 -->
<g id="node11" class="node"><title>Node45</title>
<g id="a_node11"><a xlink:href="uptane__vector__tests_8cc_source.html" target="_top" xlink:title="tests/uptane_vector\l_tests.cc">
<polygon fill="white" stroke="black" points="1595,-0.5 1595,-30.5 1698,-30.5 1698,-0.5 1595,-0.5"/>
<text text-anchor="start" x="1603" y="-18.5" font-family="Helvetica,sans-Serif" font-size="10.00">tests/uptane_vector</text>
<text text-anchor="middle" x="1646.5" y="-7.5" font-family="Helvetica,sans-Serif" font-size="10.00">_tests.cc</text>
</a>
</g>
</g>
<!-- Node43&#45;&gt;Node45 -->
<g id="edge11" class="edge"><title>Node43&#45;&gt;Node45</title>
<path fill="none" stroke="midnightblue" d="M1323.1,-67.7631C1324.58,-67.5023 1326.05,-67.2475 1327.5,-67 1441.63,-47.5625 1471.72,-52.4114 1585.5,-31 1588.6,-30.4162 1591.78,-29.7786 1594.99,-29.1069"/>
<polygon fill="midnightblue" stroke="midnightblue" points="1322.42,-64.3279 1313.21,-69.5601 1323.68,-71.2151 1322.42,-64.3279"/>
</g>
<!-- Node46 -->
<g id="node12" class="node"><title>Node46</title>
<g id="a_node12"><a xlink:href="aktualizr__secondary_2uptane__test_8cc_source.html" target="_top" xlink:title="src/aktualizr_secondary\l/uptane_test.cc">
<polygon fill="white" stroke="black" points="1716.5,-0.5 1716.5,-30.5 1836.5,-30.5 1836.5,-0.5 1716.5,-0.5"/>
<text text-anchor="start" x="1724.5" y="-18.5" font-family="Helvetica,sans-Serif" font-size="10.00">src/aktualizr_secondary</text>
<text text-anchor="middle" x="1776.5" y="-7.5" font-family="Helvetica,sans-Serif" font-size="10.00">/uptane_test.cc</text>
</a>
</g>
</g>
<!-- Node43&#45;&gt;Node46 -->
<g id="edge12" class="edge"><title>Node43&#45;&gt;Node46</title>
<path fill="none" stroke="midnightblue" d="M1323.08,-67.6751C1324.57,-67.4408 1326.04,-67.2154 1327.5,-67 1495.33,-42.2202 1539.78,-56.4844 1707.5,-31 1710.4,-30.5587 1713.37,-30.0727 1716.36,-29.5542"/>
<polygon fill="midnightblue" stroke="midnightblue" points="1322.46,-64.2306 1313.18,-69.3341 1323.62,-71.1345 1322.46,-64.2306"/>
</g>
<!-- Node47 -->
<g id="node13" class="node"><title>Node47</title>
<g id="a_node13"><a xlink:href="sotauptaneclient_8cc_source.html" target="_top" xlink:title="src/libaktualizr/primary\l/sotauptaneclient.cc">
<polygon fill="white" stroke="black" points="667,-0.5 667,-30.5 782,-30.5 782,-0.5 667,-0.5"/>
<text text-anchor="start" x="675" y="-18.5" font-family="Helvetica,sans-Serif" font-size="10.00">src/libaktualizr/primary</text>
<text text-anchor="middle" x="724.5" y="-7.5" font-family="Helvetica,sans-Serif" font-size="10.00">/sotauptaneclient.cc</text>
</a>
</g>
</g>
<!-- Node43&#45;&gt;Node47 -->
<g id="edge14" class="edge"><title>Node43&#45;&gt;Node47</title>
<path fill="none" stroke="midnightblue" d="M1187.59,-76.3505C1096.92,-68.9644 931.48,-53.7006 791.5,-31 788.446,-30.5047 785.32,-29.9604 782.171,-29.3822"/>
<polygon fill="midnightblue" stroke="midnightblue" points="1187.48,-79.8534 1197.73,-77.1694 1188.05,-72.8761 1187.48,-79.8534"/>
</g>
<!-- Node48 -->
<g id="node14" class="node"><title>Node48</title>
<g id="a_node14"><a xlink:href="uptane__ci__test_8cc_source.html" target="_top" xlink:title="src/libaktualizr/uptane\l/uptane_ci_test.cc">
<polygon fill="white" stroke="black" points="800.5,-0.5 800.5,-30.5 912.5,-30.5 912.5,-0.5 800.5,-0.5"/>
<text text-anchor="start" x="808.5" y="-18.5" font-family="Helvetica,sans-Serif" font-size="10.00">src/libaktualizr/uptane</text>
<text text-anchor="middle" x="856.5" y="-7.5" font-family="Helvetica,sans-Serif" font-size="10.00">/uptane_ci_test.cc</text>
</a>
</g>
</g>
<!-- Node43&#45;&gt;Node48 -->
<g id="edge15" class="edge"><title>Node43&#45;&gt;Node48</title>
<path fill="none" stroke="midnightblue" d="M1187.87,-72.6776C1120.23,-63.5251 1013.34,-48.166 921.5,-31 918.659,-30.4689 915.752,-29.9033 912.821,-29.315"/>
<polygon fill="midnightblue" stroke="midnightblue" points="1187.59,-76.1715 1197.97,-74.0375 1188.52,-69.2341 1187.59,-76.1715"/>
</g>
<!-- Node49 -->
<g id="node15" class="node"><title>Node49</title>
<g id="a_node15"><a xlink:href="uptane__implicit__test_8cc.html" target="_top" xlink:title="src/libaktualizr/uptane\l/uptane_implicit_test.cc">
<polygon fill="white" stroke="black" points="930.5,-0.5 930.5,-30.5 1050.5,-30.5 1050.5,-0.5 930.5,-0.5"/>
<text text-anchor="start" x="938.5" y="-18.5" font-family="Helvetica,sans-Serif" font-size="10.00">src/libaktualizr/uptane</text>
<text text-anchor="middle" x="990.5" y="-7.5" font-family="Helvetica,sans-Serif" font-size="10.00">/uptane_implicit_test.cc</text>
</a>
</g>
</g>
<!-- Node43&#45;&gt;Node49 -->
<g id="edge16" class="edge"><title>Node43&#45;&gt;Node49</title>
<path fill="none" stroke="midnightblue" d="M1188.44,-65.0515C1145.12,-54.425 1089.33,-40.7414 1048.03,-30.6109"/>
<polygon fill="midnightblue" stroke="midnightblue" points="1187.78,-68.4929 1198.33,-67.476 1189.45,-61.6945 1187.78,-68.4929"/>
</g>
<!-- Node50 -->
<g id="node16" class="node"><title>Node50</title>
<g id="a_node16"><a xlink:href="uptane__key__test_8cc_source.html" target="_top" xlink:title="src/libaktualizr/uptane\l/uptane_key_test.cc">
<polygon fill="white" stroke="black" points="1068.5,-0.5 1068.5,-30.5 1180.5,-30.5 1180.5,-0.5 1068.5,-0.5"/>
<text text-anchor="start" x="1076.5" y="-18.5" font-family="Helvetica,sans-Serif" font-size="10.00">src/libaktualizr/uptane</text>
<text text-anchor="middle" x="1124.5" y="-7.5" font-family="Helvetica,sans-Serif" font-size="10.00">/uptane_key_test.cc</text>
</a>
</g>
</g>
<!-- Node43&#45;&gt;Node50 -->
<g id="edge17" class="edge"><title>Node43&#45;&gt;Node50</title>
<path fill="none" stroke="midnightblue" d="M1217.92,-62.8533C1197.21,-52.5761 1171.91,-40.0252 1152.87,-30.5765"/>
<polygon fill="midnightblue" stroke="midnightblue" points="1216.56,-66.0864 1227.07,-67.396 1219.67,-59.8159 1216.56,-66.0864"/>
</g>
<!-- Node51 -->
<g id="node17" class="node"><title>Node51</title>
<g id="a_node17"><a xlink:href="uptane__serial__test_8cc_source.html" target="_top" xlink:title="src/libaktualizr/uptane\l/uptane_serial_test.cc">
<polygon fill="white" stroke="black" points="1199,-0.5 1199,-30.5 1312,-30.5 1312,-0.5 1199,-0.5"/>
<text text-anchor="start" x="1207" y="-18.5" font-family="Helvetica,sans-Serif" font-size="10.00">src/libaktualizr/uptane</text>
<text text-anchor="middle" x="1255.5" y="-7.5" font-family="Helvetica,sans-Serif" font-size="10.00">/uptane_serial_test.cc</text>
</a>
</g>
</g>
<!-- Node43&#45;&gt;Node51 -->
<g id="edge18" class="edge"><title>Node43&#45;&gt;Node51</title>
<path fill="none" stroke="midnightblue" d="M1255.5,-57.1081C1255.5,-48.1539 1255.5,-38.3227 1255.5,-30.5765"/>
<polygon fill="midnightblue" stroke="midnightblue" points="1252,-57.3959 1255.5,-67.396 1259,-57.396 1252,-57.3959"/>
</g>
<!-- Node52 -->
<g id="node18" class="node"><title>Node52</title>
<g id="a_node18"><a xlink:href="libaktualizr_2uptane_2uptane__test_8cc_source.html" target="_top" xlink:title="src/libaktualizr/uptane\l/uptane_test.cc">
<polygon fill="white" stroke="black" points="1330.5,-0.5 1330.5,-30.5 1442.5,-30.5 1442.5,-0.5 1330.5,-0.5"/>
<text text-anchor="start" x="1338.5" y="-18.5" font-family="Helvetica,sans-Serif" font-size="10.00">src/libaktualizr/uptane</text>
<text text-anchor="middle" x="1386.5" y="-7.5" font-family="Helvetica,sans-Serif" font-size="10.00">/uptane_test.cc</text>
</a>
</g>
</g>
<!-- Node43&#45;&gt;Node52 -->
<g id="edge19" class="edge"><title>Node43&#45;&gt;Node52</title>
<path fill="none" stroke="midnightblue" d="M1293.08,-62.8533C1313.79,-52.5761 1339.09,-40.0252 1358.13,-30.5765"/>
<polygon fill="midnightblue" stroke="midnightblue" points="1291.33,-59.8159 1283.93,-67.396 1294.44,-66.0864 1291.33,-59.8159"/>
</g>
<!-- Node43&#45;&gt;Node53 -->
<g id="edge20" class="edge"><title>Node43&#45;&gt;Node53</title>
<path fill="none" stroke="midnightblue" d="M1323.08,-67.625C1324.56,-67.4059 1326.04,-67.1971 1327.5,-67 1556.21,-36.1549 1616.88,-62.4766 1845.5,-31 1856.44,-29.4935 1868.24,-27.2819 1878.97,-25.0376"/>
<polygon fill="midnightblue" stroke="midnightblue" points="1322.48,-64.1755 1313.16,-69.2055 1323.58,-71.0882 1322.48,-64.1755"/>
</g>
<!-- Node43&#45;&gt;Node54 -->
<g id="edge21" class="edge"><title>Node43&#45;&gt;Node54</title>
<path fill="none" stroke="midnightblue" d="M1323.12,-71.7959C1337.11,-70.0105 1351.77,-68.3021 1365.5,-67 1640.29,-40.9464 1711.57,-64.9365 1985.5,-31 1997.5,-29.5136 2010.45,-27.2802 2022.21,-25.0087"/>
<polygon fill="midnightblue" stroke="midnightblue" points="1322.53,-68.3422 1313.07,-73.1049 1323.44,-75.2836 1322.53,-68.3422"/>
</g>
</g>
</svg>
