<?xml version="1.0" encoding="UTF-8" standalone="no"?>
<!DOCTYPE svg PUBLIC "-//W3C//DTD SVG 1.1//EN"
 "http://www.w3.org/Graphics/SVG/1.1/DTD/svg11.dtd">
<!-- Generated by graphviz version 2.38.0 (20140413.2041)
 -->
<!-- Title: src/libaktualizr/utilities/events.h Pages: 1 -->
<svg width="2061pt" height="251pt"
 viewBox="0.00 0.00 2060.50 251.00" xmlns="http://www.w3.org/2000/svg" xmlns:xlink="http://www.w3.org/1999/xlink">
<g id="graph0" class="graph" transform="scale(1 1) rotate(0) translate(4 247)">
<title>src/libaktualizr/utilities/events.h</title>
<polygon fill="white" stroke="none" points="-4,4 -4,-247 2056.5,-247 2056.5,4 -4,4"/>
<!-- Node35 -->
<g id="node1" class="node"><title>Node35</title>
<polygon fill="#bfbfbf" stroke="black" points="1316,-212.5 1316,-242.5 1429,-242.5 1429,-212.5 1316,-212.5"/>
<text text-anchor="start" x="1324" y="-230.5" font-family="Helvetica,sans-Serif" font-size="10.00">src/libaktualizr/utilities</text>
<text text-anchor="middle" x="1372.5" y="-219.5" font-family="Helvetica,sans-Serif" font-size="10.00">/events.h</text>
</g>
<!-- Node36 -->
<g id="node2" class="node"><title>Node36</title>
<g id="a_node2"><a xlink:href="ostreemanager_8h_source.html" target="_top" xlink:title="src/libaktualizr/package\l_manager/ostreemanager.h">
<polygon fill="white" stroke="black" points="354,-145.5 354,-175.5 489,-175.5 489,-145.5 354,-145.5"/>
<text text-anchor="start" x="362" y="-163.5" font-family="Helvetica,sans-Serif" font-size="10.00">src/libaktualizr/package</text>
<text text-anchor="middle" x="421.5" y="-152.5" font-family="Helvetica,sans-Serif" font-size="10.00">_manager/ostreemanager.h</text>
</a>
</g>
</g>
<!-- Node35&#45;&gt;Node36 -->
<g id="edge1" class="edge"><title>Node35&#45;&gt;Node36</title>
<path fill="none" stroke="midnightblue" d="M1305.8,-221.941C1131.58,-210.033 664.243,-178.091 489.06,-166.118"/>
<polygon fill="midnightblue" stroke="midnightblue" points="1305.64,-225.438 1315.86,-222.629 1306.12,-218.455 1305.64,-225.438"/>
</g>
<!-- Node42 -->
<g id="node8" class="node"><title>Node42</title>
<g id="a_node8"><a xlink:href="aktualizr_8h_source.html" target="_top" xlink:title="src/libaktualizr/primary\l/aktualizr.h">
<polygon fill="white" stroke="black" points="805,-145.5 805,-175.5 920,-175.5 920,-145.5 805,-145.5"/>
<text text-anchor="start" x="813" y="-163.5" font-family="Helvetica,sans-Serif" font-size="10.00">src/libaktualizr/primary</text>
<text text-anchor="middle" x="862.5" y="-152.5" font-family="Helvetica,sans-Serif" font-size="10.00">/aktualizr.h</text>
</a>
</g>
</g>
<!-- Node35&#45;&gt;Node42 -->
<g id="edge7" class="edge"><title>Node35&#45;&gt;Node42</title>
<path fill="none" stroke="midnightblue" d="M1305.9,-218.012C1205.05,-205.159 1015.28,-180.972 920.062,-168.836"/>
<polygon fill="midnightblue" stroke="midnightblue" points="1305.61,-221.503 1315.97,-219.296 1306.5,-214.559 1305.61,-221.503"/>
</g>
<!-- Node46 -->
<g id="node12" class="node"><title>Node46</title>
<g id="a_node12"><a xlink:href="eventsinterpreter_8h_source.html" target="_top" xlink:title="src/libaktualizr/primary\l/eventsinterpreter.h">
<polygon fill="white" stroke="black" points="1041,-145.5 1041,-175.5 1156,-175.5 1156,-145.5 1041,-145.5"/>
<text text-anchor="start" x="1049" y="-163.5" font-family="Helvetica,sans-Serif" font-size="10.00">src/libaktualizr/primary</text>
<text text-anchor="middle" x="1098.5" y="-152.5" font-family="Helvetica,sans-Serif" font-size="10.00">/eventsinterpreter.h</text>
</a>
</g>
</g>
<!-- Node35&#45;&gt;Node46 -->
<g id="edge11" class="edge"><title>Node35&#45;&gt;Node46</title>
<path fill="none" stroke="midnightblue" d="M1305.89,-210.698C1260.09,-199.834 1199.88,-185.55 1156.14,-175.174"/>
<polygon fill="midnightblue" stroke="midnightblue" points="1305.19,-214.129 1315.73,-213.032 1306.8,-207.318 1305.19,-214.129"/>
</g>
<!-- Node48 -->
<g id="node14" class="node"><title>Node48</title>
<g id="a_node14"><a xlink:href="eventsinterpreter__test_8cc_source.html" target="_top" xlink:title="src/libaktualizr/primary\l/eventsinterpreter_test.cc">
<polygon fill="white" stroke="black" points="1104.5,-73 1104.5,-103 1232.5,-103 1232.5,-73 1104.5,-73"/>
<text text-anchor="start" x="1112.5" y="-91" font-family="Helvetica,sans-Serif" font-size="10.00">src/libaktualizr/primary</text>
<text text-anchor="middle" x="1168.5" y="-80" font-family="Helvetica,sans-Serif" font-size="10.00">/eventsinterpreter_test.cc</text>
</a>
</g>
</g>
<!-- Node35&#45;&gt;Node48 -->
<g id="edge29" class="edge"><title>Node35&#45;&gt;Node48</title>
<path fill="none" stroke="midnightblue" d="M1343.07,-206.661C1301.33,-178.527 1225.96,-127.728 1189.45,-103.12"/>
<polygon fill="midnightblue" stroke="midnightblue" points="1341.19,-209.616 1351.44,-212.303 1345.1,-203.811 1341.19,-209.616"/>
</g>
<!-- Node49 -->
<g id="node15" class="node"><title>Node49</title>
<g id="a_node15"><a xlink:href="sotauptaneclient_8h_source.html" target="_top" xlink:title="src/libaktualizr/primary\l/sotauptaneclient.h">
<polygon fill="white" stroke="black" points="1251,-73 1251,-103 1366,-103 1366,-73 1251,-73"/>
<text text-anchor="start" x="1259" y="-91" font-family="Helvetica,sans-Serif" font-size="10.00">src/libaktualizr/primary</text>
<text text-anchor="middle" x="1308.5" y="-80" font-family="Helvetica,sans-Serif" font-size="10.00">/sotauptaneclient.h</text>
</a>
</g>
</g>
<!-- Node35&#45;&gt;Node49 -->
<g id="edge15" class="edge"><title>Node35&#45;&gt;Node49</title>
<path fill="none" stroke="midnightblue" d="M1361.58,-203.04C1348.27,-174.434 1326.18,-126.982 1315.17,-103.326"/>
<polygon fill="midnightblue" stroke="midnightblue" points="1358.5,-204.714 1365.89,-212.303 1364.85,-201.76 1358.5,-204.714"/>
</g>
<!-- Node58 -->
<g id="node24" class="node"><title>Node58</title>
<g id="a_node24"><a xlink:href="check_8cc_source.html" target="_top" xlink:title="src/load_tests/check.cc">
<polygon fill="white" stroke="black" points="1779,-6 1779,-25 1900,-25 1900,-6 1779,-6"/>
<text text-anchor="middle" x="1839.5" y="-13" font-family="Helvetica,sans-Serif" font-size="10.00">src/load_tests/check.cc</text>
</a>
</g>
</g>
<!-- Node35&#45;&gt;Node58 -->
<g id="edge34" class="edge"><title>Node35&#45;&gt;Node58</title>
<path fill="none" stroke="midnightblue" d="M1371.72,-202.212C1372.03,-166.514 1378.42,-100.495 1418.5,-67 1478.67,-16.7211 1692.01,-42.9677 1769.5,-31 1780.05,-29.3709 1791.41,-27.2 1801.85,-25.0351"/>
<polygon fill="midnightblue" stroke="midnightblue" points="1368.22,-202.272 1371.79,-212.248 1375.22,-202.224 1368.22,-202.272"/>
</g>
<!-- Node59 -->
<g id="node25" class="node"><title>Node59</title>
<g id="a_node25"><a xlink:href="provision_8cc_source.html" target="_top" xlink:title="src/load_tests/provision.cc">
<polygon fill="white" stroke="black" points="1918.5,-6 1918.5,-25 2052.5,-25 2052.5,-6 1918.5,-6"/>
<text text-anchor="middle" x="1985.5" y="-13" font-family="Helvetica,sans-Serif" font-size="10.00">src/load_tests/provision.cc</text>
</a>
</g>
</g>
<!-- Node35&#45;&gt;Node59 -->
<g id="edge35" class="edge"><title>Node35&#45;&gt;Node59</title>
<path fill="none" stroke="midnightblue" d="M1390.88,-204.45C1406.04,-187.06 1428.7,-162.847 1451.5,-145 1505.77,-102.529 1520.06,-88.605 1585.5,-67 1723.08,-21.5748 1766.23,-52.5929 1909.5,-31 1920.66,-29.3184 1932.68,-27.1792 1943.79,-25.0638"/>
<polygon fill="midnightblue" stroke="midnightblue" points="1387.93,-202.513 1384.07,-212.38 1393.24,-207.073 1387.93,-202.513"/>
</g>
<!-- Node60 -->
<g id="node26" class="node"><title>Node60</title>
<g id="a_node26"><a xlink:href="events__test_8cc_source.html" target="_top" xlink:title="src/libaktualizr/primary\l/events_test.cc">
<polygon fill="white" stroke="black" points="1461,-145.5 1461,-175.5 1576,-175.5 1576,-145.5 1461,-145.5"/>
<text text-anchor="start" x="1469" y="-163.5" font-family="Helvetica,sans-Serif" font-size="10.00">src/libaktualizr/primary</text>
<text text-anchor="middle" x="1518.5" y="-152.5" font-family="Helvetica,sans-Serif" font-size="10.00">/events_test.cc</text>
</a>
</g>
</g>
<!-- Node35&#45;&gt;Node60 -->
<g id="edge28" class="edge"><title>Node35&#45;&gt;Node60</title>
<path fill="none" stroke="midnightblue" d="M1413.45,-208.269C1436.7,-197.916 1465.37,-185.153 1486.88,-175.577"/>
<polygon fill="midnightblue" stroke="midnightblue" points="1411.89,-205.131 1404.18,-212.396 1414.74,-211.526 1411.89,-205.131"/>
</g>
<!-- Node61 -->
<g id="node27" class="node"><title>Node61</title>
<g id="a_node27"><a xlink:href="fetcher_8h_source.html" target="_top" xlink:title="src/libaktualizr/uptane\l/fetcher.h">
<polygon fill="white" stroke="black" points="1594.5,-145.5 1594.5,-175.5 1706.5,-175.5 1706.5,-145.5 1594.5,-145.5"/>
<text text-anchor="start" x="1602.5" y="-163.5" font-family="Helvetica,sans-Serif" font-size="10.00">src/libaktualizr/uptane</text>
<text text-anchor="middle" x="1650.5" y="-152.5" font-family="Helvetica,sans-Serif" font-size="10.00">/fetcher.h</text>
</a>
</g>
</g>
<!-- Node35&#45;&gt;Node61 -->
<g id="edge30" class="edge"><title>Node35&#45;&gt;Node61</title>
<path fill="none" stroke="midnightblue" d="M1438.97,-210.959C1486.43,-199.862 1549.55,-185.102 1594.46,-174.602"/>
<polygon fill="midnightblue" stroke="midnightblue" points="1438.03,-207.583 1429.09,-213.268 1439.63,-214.399 1438.03,-207.583"/>
</g>
<!-- Node63 -->
<g id="node29" class="node"><title>Node63</title>
<g id="a_node29"><a xlink:href="events_8cc_source.html" target="_top" xlink:title="src/libaktualizr/utilities\l/events.cc">
<polygon fill="white" stroke="black" points="1725,-145.5 1725,-175.5 1838,-175.5 1838,-145.5 1725,-145.5"/>
<text text-anchor="start" x="1733" y="-163.5" font-family="Helvetica,sans-Serif" font-size="10.00">src/libaktualizr/utilities</text>
<text text-anchor="middle" x="1781.5" y="-152.5" font-family="Helvetica,sans-Serif" font-size="10.00">/events.cc</text>
</a>
</g>
</g>
<!-- Node35&#45;&gt;Node63 -->
<g id="edge33" class="edge"><title>Node35&#45;&gt;Node63</title>
<path fill="none" stroke="midnightblue" d="M1439.48,-218.052C1508.78,-208.98 1620.05,-193.49 1715.5,-176 1718.5,-175.45 1721.57,-174.863 1724.67,-174.25"/>
<polygon fill="midnightblue" stroke="midnightblue" points="1438.61,-214.635 1429.15,-219.397 1439.51,-221.577 1438.61,-214.635"/>
</g>
<!-- Node37 -->
<g id="node3" class="node"><title>Node37</title>
<g id="a_node3"><a xlink:href="opcuabridge__ostree__repo__sync__server_8cc_source.html" target="_top" xlink:title="src/libaktualizr/opcuabridge\l/opcuabridge_ostree_repo\l_sync_server.cc">
<polygon fill="white" stroke="black" points="0,-67.5 0,-108.5 135,-108.5 135,-67.5 0,-67.5"/>
<text text-anchor="start" x="8" y="-96.5" font-family="Helvetica,sans-Serif" font-size="10.00">src/libaktualizr/opcuabridge</text>
<text text-anchor="start" x="8" y="-85.5" font-family="Helvetica,sans-Serif" font-size="10.00">/opcuabridge_ostree_repo</text>
<text text-anchor="middle" x="67.5" y="-74.5" font-family="Helvetica,sans-Serif" font-size="10.00">_sync_server.cc</text>
</a>
</g>
</g>
<!-- Node36&#45;&gt;Node37 -->
<g id="edge2" class="edge"><title>Node36&#45;&gt;Node37</title>
<path fill="none" stroke="midnightblue" d="M343.624,-146.883C287.943,-137.477 211.344,-123.753 144.5,-109 141.398,-108.315 138.232,-107.592 135.038,-106.843"/>
<polygon fill="midnightblue" stroke="midnightblue" points="343.328,-150.382 353.77,-148.588 344.489,-143.479 343.328,-150.382"/>
</g>
<!-- Node38 -->
<g id="node4" class="node"><title>Node38</title>
<g id="a_node4"><a xlink:href="ostreemanager_8cc_source.html" target="_top" xlink:title="src/libaktualizr/package\l_manager/ostreemanager.cc">
<polygon fill="white" stroke="black" points="153.5,-73 153.5,-103 293.5,-103 293.5,-73 153.5,-73"/>
<text text-anchor="start" x="161.5" y="-91" font-family="Helvetica,sans-Serif" font-size="10.00">src/libaktualizr/package</text>
<text text-anchor="middle" x="223.5" y="-80" font-family="Helvetica,sans-Serif" font-size="10.00">_manager/ostreemanager.cc</text>
</a>
</g>
</g>
<!-- Node36&#45;&gt;Node38 -->
<g id="edge3" class="edge"><title>Node36&#45;&gt;Node38</title>
<path fill="none" stroke="midnightblue" d="M372.251,-141.965C338.543,-129.962 294.436,-114.258 263.024,-103.073"/>
<polygon fill="midnightblue" stroke="midnightblue" points="371.313,-145.346 381.908,-145.403 373.661,-138.751 371.313,-145.346"/>
</g>
<!-- Node39 -->
<g id="node5" class="node"><title>Node39</title>
<g id="a_node5"><a xlink:href="ostreemanager__test_8cc_source.html" target="_top" xlink:title="src/libaktualizr/package\l_manager/ostreemanager\l_test.cc">
<polygon fill="white" stroke="black" points="312,-67.5 312,-108.5 439,-108.5 439,-67.5 312,-67.5"/>
<text text-anchor="start" x="320" y="-96.5" font-family="Helvetica,sans-Serif" font-size="10.00">src/libaktualizr/package</text>
<text text-anchor="start" x="320" y="-85.5" font-family="Helvetica,sans-Serif" font-size="10.00">_manager/ostreemanager</text>
<text text-anchor="middle" x="375.5" y="-74.5" font-family="Helvetica,sans-Serif" font-size="10.00">_test.cc</text>
</a>
</g>
</g>
<!-- Node36&#45;&gt;Node39 -->
<g id="edge4" class="edge"><title>Node36&#45;&gt;Node39</title>
<path fill="none" stroke="midnightblue" d="M406.62,-136.695C400.706,-127.631 393.97,-117.307 388.281,-108.588"/>
<polygon fill="midnightblue" stroke="midnightblue" points="403.795,-138.771 412.191,-145.233 409.658,-134.946 403.795,-138.771"/>
</g>
<!-- Node40 -->
<g id="node6" class="node"><title>Node40</title>
<g id="a_node6"><a xlink:href="uptane__ci__test_8cc_source.html" target="_top" xlink:title="src/libaktualizr/uptane\l/uptane_ci_test.cc">
<polygon fill="white" stroke="black" points="433.5,-0.5 433.5,-30.5 545.5,-30.5 545.5,-0.5 433.5,-0.5"/>
<text text-anchor="start" x="441.5" y="-18.5" font-family="Helvetica,sans-Serif" font-size="10.00">src/libaktualizr/uptane</text>
<text text-anchor="middle" x="489.5" y="-7.5" font-family="Helvetica,sans-Serif" font-size="10.00">/uptane_ci_test.cc</text>
</a>
</g>
</g>
<!-- Node36&#45;&gt;Node40 -->
<g id="edge5" class="edge"><title>Node36&#45;&gt;Node40</title>
<path fill="none" stroke="midnightblue" d="M433.685,-136.42C438.127,-127.855 443.129,-118.028 447.5,-109 460.795,-81.5368 475.301,-48.9489 483.31,-30.7046"/>
<polygon fill="midnightblue" stroke="midnightblue" points="430.499,-134.96 428.972,-145.444 436.704,-138.201 430.499,-134.96"/>
</g>
<!-- Node41 -->
<g id="node7" class="node"><title>Node41</title>
<g id="a_node7"><a xlink:href="treehub_8cc_source.html" target="_top" xlink:title="src/load_tests/treehub.cc">
<polygon fill="white" stroke="black" points="496,-78.5 496,-97.5 623,-97.5 623,-78.5 496,-78.5"/>
<text text-anchor="middle" x="559.5" y="-85.5" font-family="Helvetica,sans-Serif" font-size="10.00">src/load_tests/treehub.cc</text>
</a>
</g>
</g>
<!-- Node36&#45;&gt;Node41 -->
<g id="edge6" class="edge"><title>Node36&#45;&gt;Node41</title>
<path fill="none" stroke="midnightblue" d="M458.038,-140.834C485.519,-126.795 521.897,-108.21 542.796,-97.5336"/>
<polygon fill="midnightblue" stroke="midnightblue" points="456.408,-137.736 449.095,-145.403 459.592,-143.97 456.408,-137.736"/>
</g>
<!-- Node43 -->
<g id="node9" class="node"><title>Node43</title>
<g id="a_node9"><a xlink:href="aktualizr__primary_2main_8cc_source.html" target="_top" xlink:title="src/aktualizr_primary\l/main.cc">
<polygon fill="white" stroke="black" points="641,-73 641,-103 748,-103 748,-73 641,-73"/>
<text text-anchor="start" x="649" y="-91" font-family="Helvetica,sans-Serif" font-size="10.00">src/aktualizr_primary</text>
<text text-anchor="middle" x="694.5" y="-80" font-family="Helvetica,sans-Serif" font-size="10.00">/main.cc</text>
</a>
</g>
</g>
<!-- Node42&#45;&gt;Node43 -->
<g id="edge8" class="edge"><title>Node42&#45;&gt;Node43</title>
<path fill="none" stroke="midnightblue" d="M819.604,-141.499C791.15,-129.559 754.345,-114.114 728.035,-103.073"/>
<polygon fill="midnightblue" stroke="midnightblue" points="818.331,-144.76 828.906,-145.403 821.04,-138.306 818.331,-144.76"/>
</g>
<!-- Node44 -->
<g id="node10" class="node"><title>Node44</title>
<g id="a_node10"><a xlink:href="hmi__stub_2main_8cc_source.html" target="_top" xlink:title="src/hmi_stub/main.cc">
<polygon fill="white" stroke="black" points="766.5,-78.5 766.5,-97.5 876.5,-97.5 876.5,-78.5 766.5,-78.5"/>
<text text-anchor="middle" x="821.5" y="-85.5" font-family="Helvetica,sans-Serif" font-size="10.00">src/hmi_stub/main.cc</text>
</a>
</g>
</g>
<!-- Node42&#45;&gt;Node44 -->
<g id="edge9" class="edge"><title>Node42&#45;&gt;Node44</title>
<path fill="none" stroke="midnightblue" d="M848.975,-136.244C841.343,-123.12 832.245,-107.477 826.672,-97.8932"/>
<polygon fill="midnightblue" stroke="midnightblue" points="846.15,-138.348 854.203,-145.233 852.201,-134.829 846.15,-138.348"/>
</g>
<!-- Node45 -->
<g id="node11" class="node"><title>Node45</title>
<g id="a_node11"><a xlink:href="aktualizr_8cc_source.html" target="_top" xlink:title="src/libaktualizr/primary\l/aktualizr.cc">
<polygon fill="white" stroke="black" points="587,-0.5 587,-30.5 702,-30.5 702,-0.5 587,-0.5"/>
<text text-anchor="start" x="595" y="-18.5" font-family="Helvetica,sans-Serif" font-size="10.00">src/libaktualizr/primary</text>
<text text-anchor="middle" x="644.5" y="-7.5" font-family="Helvetica,sans-Serif" font-size="10.00">/aktualizr.cc</text>
</a>
</g>
</g>
<!-- Node42&#45;&gt;Node45 -->
<g id="edge10" class="edge"><title>Node42&#45;&gt;Node45</title>
<path fill="none" stroke="midnightblue" d="M878.125,-136.702C889.945,-116.358 901.629,-86.8073 885.5,-67 835.636,-5.76283 788.76,-47.3522 711.5,-31 708.473,-30.3593 705.369,-29.6991 702.236,-29.0301"/>
<polygon fill="midnightblue" stroke="midnightblue" points="875.07,-134.987 872.784,-145.333 881.023,-138.671 875.07,-134.987"/>
</g>
<!-- Node46&#45;&gt;Node45 -->
<g id="edge12" class="edge"><title>Node46&#45;&gt;Node45</title>
<path fill="none" stroke="midnightblue" d="M1041.08,-142.249C1015.97,-133.72 986.577,-122.374 961.5,-109 933.418,-94.0229 932.739,-79.5709 903.5,-67 823.739,-32.7077 796.603,-48.1838 711.5,-31 708.467,-30.3876 705.359,-29.75 702.222,-29.0986"/>
<polygon fill="midnightblue" stroke="midnightblue" points="1040.24,-145.659 1050.84,-145.495 1042.45,-139.017 1040.24,-145.659"/>
</g>
<!-- Node47 -->
<g id="node13" class="node"><title>Node47</title>
<g id="a_node13"><a xlink:href="eventsinterpreter_8cc_source.html" target="_top" xlink:title="src/libaktualizr/primary\l/eventsinterpreter.cc">
<polygon fill="white" stroke="black" points="971,-73 971,-103 1086,-103 1086,-73 971,-73"/>
<text text-anchor="start" x="979" y="-91" font-family="Helvetica,sans-Serif" font-size="10.00">src/libaktualizr/primary</text>
<text text-anchor="middle" x="1028.5" y="-80" font-family="Helvetica,sans-Serif" font-size="10.00">/eventsinterpreter.cc</text>
</a>
</g>
</g>
<!-- Node46&#45;&gt;Node47 -->
<g id="edge13" class="edge"><title>Node46&#45;&gt;Node47</title>
<path fill="none" stroke="midnightblue" d="M1077.02,-137.864C1065.85,-126.614 1052.51,-113.179 1042.64,-103.246"/>
<polygon fill="midnightblue" stroke="midnightblue" points="1074.8,-140.603 1084.33,-145.233 1079.77,-135.671 1074.8,-140.603"/>
</g>
<!-- Node46&#45;&gt;Node48 -->
<g id="edge14" class="edge"><title>Node46&#45;&gt;Node48</title>
<path fill="none" stroke="midnightblue" d="M1119.98,-137.864C1131.15,-126.614 1144.49,-113.179 1154.36,-103.246"/>
<polygon fill="midnightblue" stroke="midnightblue" points="1117.23,-135.671 1112.67,-145.233 1122.2,-140.603 1117.23,-135.671"/>
</g>
<!-- Node49&#45;&gt;Node40 -->
<g id="edge21" class="edge"><title>Node49&#45;&gt;Node40</title>
<path fill="none" stroke="midnightblue" d="M1257.09,-70.3287C1251.86,-69.0335 1246.6,-67.8869 1241.5,-67 950.323,-16.3801 871.299,-63.0726 577.5,-31 567.187,-29.8742 556.245,-28.3445 545.709,-26.6994"/>
<polygon fill="midnightblue" stroke="midnightblue" points="1256.48,-73.7889 1267.05,-72.9732 1258.28,-67.0235 1256.48,-73.7889"/>
</g>
<!-- Node49&#45;&gt;Node45 -->
<g id="edge19" class="edge"><title>Node49&#45;&gt;Node45</title>
<path fill="none" stroke="midnightblue" d="M1256.85,-70.3452C1251.7,-69.0582 1246.52,-67.9085 1241.5,-67 1009.17,-24.9745 945.273,-64.0571 711.5,-31 708.436,-30.5668 705.304,-30.0719 702.148,-29.5325"/>
<polygon fill="midnightblue" stroke="midnightblue" points="1256.11,-73.7686 1266.67,-72.9622 1257.91,-67.0048 1256.11,-73.7686"/>
</g>
<!-- Node50 -->
<g id="node16" class="node"><title>Node50</title>
<g id="a_node16"><a xlink:href="initializer__implicit__test_8cc_source.html" target="_top" xlink:title="tests/initializer_implicit\l_test.cc">
<polygon fill="white" stroke="black" points="720.5,-0.5 720.5,-30.5 836.5,-30.5 836.5,-0.5 720.5,-0.5"/>
<text text-anchor="start" x="728.5" y="-18.5" font-family="Helvetica,sans-Serif" font-size="10.00">tests/initializer_implicit</text>
<text text-anchor="middle" x="778.5" y="-7.5" font-family="Helvetica,sans-Serif" font-size="10.00">_test.cc</text>
</a>
</g>
</g>
<!-- Node49&#45;&gt;Node50 -->
<g id="edge16" class="edge"><title>Node49&#45;&gt;Node50</title>
<path fill="none" stroke="midnightblue" d="M1256,-70.2543C1251.13,-69.0265 1246.24,-67.9138 1241.5,-67 1067.97,-33.559 1020.19,-57.7407 845.5,-31 842.559,-30.5498 839.553,-30.0492 836.524,-29.5125"/>
<polygon fill="midnightblue" stroke="midnightblue" points="1255.36,-73.7064 1265.92,-72.9093 1257.17,-66.9441 1255.36,-73.7064"/>
</g>
<!-- Node51 -->
<g id="node17" class="node"><title>Node51</title>
<g id="a_node17"><a xlink:href="uptane__vector__tests_8cc_source.html" target="_top" xlink:title="tests/uptane_vector\l_tests.cc">
<polygon fill="white" stroke="black" points="855,-0.5 855,-30.5 958,-30.5 958,-0.5 855,-0.5"/>
<text text-anchor="start" x="863" y="-18.5" font-family="Helvetica,sans-Serif" font-size="10.00">tests/uptane_vector</text>
<text text-anchor="middle" x="906.5" y="-7.5" font-family="Helvetica,sans-Serif" font-size="10.00">_tests.cc</text>
</a>
</g>
</g>
<!-- Node49&#45;&gt;Node51 -->
<g id="edge17" class="edge"><title>Node49&#45;&gt;Node51</title>
<path fill="none" stroke="midnightblue" d="M1255.15,-70.2466C1250.56,-69.0564 1245.96,-67.9525 1241.5,-67 1121.38,-41.3525 1088.3,-53.2316 967.5,-31 964.395,-30.4286 961.211,-29.8006 958.006,-29.1362"/>
<polygon fill="midnightblue" stroke="midnightblue" points="1254.58,-73.7195 1265.15,-72.9648 1256.42,-66.9645 1254.58,-73.7195"/>
</g>
<!-- Node52 -->
<g id="node18" class="node"><title>Node52</title>
<g id="a_node18"><a xlink:href="aktualizr__secondary_2uptane__test_8cc_source.html" target="_top" xlink:title="src/aktualizr_secondary\l/uptane_test.cc">
<polygon fill="white" stroke="black" points="976.5,-0.5 976.5,-30.5 1096.5,-30.5 1096.5,-0.5 976.5,-0.5"/>
<text text-anchor="start" x="984.5" y="-18.5" font-family="Helvetica,sans-Serif" font-size="10.00">src/aktualizr_secondary</text>
<text text-anchor="middle" x="1036.5" y="-7.5" font-family="Helvetica,sans-Serif" font-size="10.00">/uptane_test.cc</text>
</a>
</g>
</g>
<!-- Node49&#45;&gt;Node52 -->
<g id="edge18" class="edge"><title>Node49&#45;&gt;Node52</title>
<path fill="none" stroke="midnightblue" d="M1252.56,-70.0803C1248.82,-69.0183 1245.11,-67.9826 1241.5,-67 1193.05,-53.8086 1137.74,-40.2734 1096.8,-30.5401"/>
<polygon fill="midnightblue" stroke="midnightblue" points="1251.87,-73.5258 1262.45,-72.9338 1253.81,-66.7999 1251.87,-73.5258"/>
</g>
<!-- Node53 -->
<g id="node19" class="node"><title>Node53</title>
<g id="a_node19"><a xlink:href="sotauptaneclient_8cc_source.html" target="_top" xlink:title="src/libaktualizr/primary\l/sotauptaneclient.cc">
<polygon fill="white" stroke="black" points="1115,-0.5 1115,-30.5 1230,-30.5 1230,-0.5 1115,-0.5"/>
<text text-anchor="start" x="1123" y="-18.5" font-family="Helvetica,sans-Serif" font-size="10.00">src/libaktualizr/primary</text>
<text text-anchor="middle" x="1172.5" y="-7.5" font-family="Helvetica,sans-Serif" font-size="10.00">/sotauptaneclient.cc</text>
</a>
</g>
</g>
<!-- Node49&#45;&gt;Node53 -->
<g id="edge20" class="edge"><title>Node49&#45;&gt;Node53</title>
<path fill="none" stroke="midnightblue" d="M1272.26,-68.2155C1249.45,-56.3891 1220.48,-41.3735 1199.65,-30.5729"/>
<polygon fill="midnightblue" stroke="midnightblue" points="1270.82,-71.4078 1281.31,-72.9027 1274.04,-65.1931 1270.82,-71.4078"/>
</g>
<!-- Node54 -->
<g id="node20" class="node"><title>Node54</title>
<g id="a_node20"><a xlink:href="uptane__implicit__test_8cc.html" target="_top" xlink:title="src/libaktualizr/uptane\l/uptane_implicit_test.cc">
<polygon fill="white" stroke="black" points="1248.5,-0.5 1248.5,-30.5 1368.5,-30.5 1368.5,-0.5 1248.5,-0.5"/>
<text text-anchor="start" x="1256.5" y="-18.5" font-family="Helvetica,sans-Serif" font-size="10.00">src/libaktualizr/uptane</text>
<text text-anchor="middle" x="1308.5" y="-7.5" font-family="Helvetica,sans-Serif" font-size="10.00">/uptane_implicit_test.cc</text>
</a>
</g>
</g>
<!-- Node49&#45;&gt;Node54 -->
<g id="edge22" class="edge"><title>Node49&#45;&gt;Node54</title>
<path fill="none" stroke="midnightblue" d="M1308.5,-62.7317C1308.5,-52.0679 1308.5,-39.9145 1308.5,-30.7455"/>
<polygon fill="midnightblue" stroke="midnightblue" points="1305,-62.7332 1308.5,-72.7333 1312,-62.7333 1305,-62.7332"/>
</g>
<!-- Node55 -->
<g id="node21" class="node"><title>Node55</title>
<g id="a_node21"><a xlink:href="uptane__key__test_8cc_source.html" target="_top" xlink:title="src/libaktualizr/uptane\l/uptane_key_test.cc">
<polygon fill="white" stroke="black" points="1386.5,-0.5 1386.5,-30.5 1498.5,-30.5 1498.5,-0.5 1386.5,-0.5"/>
<text text-anchor="start" x="1394.5" y="-18.5" font-family="Helvetica,sans-Serif" font-size="10.00">src/libaktualizr/uptane</text>
<text text-anchor="middle" x="1442.5" y="-7.5" font-family="Helvetica,sans-Serif" font-size="10.00">/uptane_key_test.cc</text>
</a>
</g>
</g>
<!-- Node49&#45;&gt;Node55 -->
<g id="edge23" class="edge"><title>Node49&#45;&gt;Node55</title>
<path fill="none" stroke="midnightblue" d="M1344.2,-68.2155C1366.68,-56.3891 1395.22,-41.3735 1415.75,-30.5729"/>
<polygon fill="midnightblue" stroke="midnightblue" points="1342.52,-65.1491 1335.29,-72.9027 1345.77,-71.344 1342.52,-65.1491"/>
</g>
<!-- Node56 -->
<g id="node22" class="node"><title>Node56</title>
<g id="a_node22"><a xlink:href="uptane__serial__test_8cc_source.html" target="_top" xlink:title="src/libaktualizr/uptane\l/uptane_serial_test.cc">
<polygon fill="white" stroke="black" points="1517,-0.5 1517,-30.5 1630,-30.5 1630,-0.5 1517,-0.5"/>
<text text-anchor="start" x="1525" y="-18.5" font-family="Helvetica,sans-Serif" font-size="10.00">src/libaktualizr/uptane</text>
<text text-anchor="middle" x="1573.5" y="-7.5" font-family="Helvetica,sans-Serif" font-size="10.00">/uptane_serial_test.cc</text>
</a>
</g>
</g>
<!-- Node49&#45;&gt;Node56 -->
<g id="edge24" class="edge"><title>Node49&#45;&gt;Node56</title>
<path fill="none" stroke="midnightblue" d="M1368.74,-70.1957C1372.72,-69.1078 1376.66,-68.0346 1380.5,-67 1427.15,-54.4187 1480.27,-40.5536 1518.95,-30.5397"/>
<polygon fill="midnightblue" stroke="midnightblue" points="1367.54,-66.8934 1358.83,-72.9164 1369.4,-73.6436 1367.54,-66.8934"/>
</g>
<!-- Node57 -->
<g id="node23" class="node"><title>Node57</title>
<g id="a_node23"><a xlink:href="libaktualizr_2uptane_2uptane__test_8cc_source.html" target="_top" xlink:title="src/libaktualizr/uptane\l/uptane_test.cc">
<polygon fill="white" stroke="black" points="1648.5,-0.5 1648.5,-30.5 1760.5,-30.5 1760.5,-0.5 1648.5,-0.5"/>
<text text-anchor="start" x="1656.5" y="-18.5" font-family="Helvetica,sans-Serif" font-size="10.00">src/libaktualizr/uptane</text>
<text text-anchor="middle" x="1704.5" y="-7.5" font-family="Helvetica,sans-Serif" font-size="10.00">/uptane_test.cc</text>
</a>
</g>
</g>
<!-- Node49&#45;&gt;Node57 -->
<g id="edge25" class="edge"><title>Node49&#45;&gt;Node57</title>
<path fill="none" stroke="midnightblue" d="M1365.32,-70.469C1370.43,-69.2085 1375.55,-68.0289 1380.5,-67 1493.86,-43.4549 1524.54,-51.4371 1638.5,-31 1641.73,-30.4202 1645.05,-29.7937 1648.39,-29.1377"/>
<polygon fill="midnightblue" stroke="midnightblue" points="1364.35,-67.1035 1355.53,-72.9744 1366.09,-73.8848 1364.35,-67.1035"/>
</g>
<!-- Node49&#45;&gt;Node58 -->
<g id="edge26" class="edge"><title>Node49&#45;&gt;Node58</title>
<path fill="none" stroke="midnightblue" d="M1364.14,-70.4897C1369.64,-69.1766 1375.16,-67.9812 1380.5,-67 1551.27,-35.6398 1597.78,-56.6492 1769.5,-31 1780.18,-29.405 1791.68,-27.2194 1802.22,-25.0289"/>
<polygon fill="midnightblue" stroke="midnightblue" points="1363.15,-67.1281 1354.31,-72.9599 1364.86,-73.9171 1363.15,-67.1281"/>
</g>
<!-- Node49&#45;&gt;Node59 -->
<g id="edge27" class="edge"><title>Node49&#45;&gt;Node59</title>
<path fill="none" stroke="midnightblue" d="M1376.27,-73.5084C1390.19,-71.0658 1404.79,-68.7442 1418.5,-67 1635.56,-39.39 1692.56,-59.5508 1909.5,-31 1921.22,-29.4576 1933.86,-27.2622 1945.41,-25.0451"/>
<polygon fill="midnightblue" stroke="midnightblue" points="1375.49,-70.0915 1366.27,-75.3019 1376.73,-76.9815 1375.49,-70.0915"/>
</g>
<!-- Node61&#45;&gt;Node49 -->
<g id="edge31" class="edge"><title>Node61&#45;&gt;Node49</title>
<path fill="none" stroke="midnightblue" d="M1584.8,-145.064C1584.7,-145.042 1584.6,-145.021 1584.5,-145 1509.16,-129.081 1422.05,-111.553 1366.18,-100.422"/>
<polygon fill="midnightblue" stroke="midnightblue" points="1583.83,-148.436 1594.34,-147.098 1585.29,-141.59 1583.83,-148.436"/>
</g>
<!-- Node62 -->
<g id="node28" class="node"><title>Node62</title>
<g id="a_node28"><a xlink:href="fetcher_8cc_source.html" target="_top" xlink:title="src/libaktualizr/uptane\l/fetcher.cc">
<polygon fill="white" stroke="black" points="1594.5,-73 1594.5,-103 1706.5,-103 1706.5,-73 1594.5,-73"/>
<text text-anchor="start" x="1602.5" y="-91" font-family="Helvetica,sans-Serif" font-size="10.00">src/libaktualizr/uptane</text>
<text text-anchor="middle" x="1650.5" y="-80" font-family="Helvetica,sans-Serif" font-size="10.00">/fetcher.cc</text>
</a>
</g>
</g>
<!-- Node61&#45;&gt;Node62 -->
<g id="edge32" class="edge"><title>Node61&#45;&gt;Node62</title>
<path fill="none" stroke="midnightblue" d="M1650.5,-135.232C1650.5,-124.568 1650.5,-112.414 1650.5,-103.246"/>
<polygon fill="midnightblue" stroke="midnightblue" points="1647,-135.233 1650.5,-145.233 1654,-135.233 1647,-135.233"/>
</g>
</g>
</svg>
