<?xml version="1.0" encoding="UTF-8" standalone="no"?>
<!DOCTYPE svg PUBLIC "-//W3C//DTD SVG 1.1//EN"
 "http://www.w3.org/Graphics/SVG/1.1/DTD/svg11.dtd">
<!-- Generated by graphviz version 2.38.0 (20140413.2041)
 -->
<!-- Title: Graphical Class Hierarchy Pages: 1 -->
<svg width="317pt" height="256pt"
 viewBox="0.00 0.00 317.00 256.00" xmlns="http://www.w3.org/2000/svg" xmlns:xlink="http://www.w3.org/1999/xlink">
<g id="graph0" class="graph" transform="scale(1 1) rotate(0) translate(4 252)">
<title>Graphical Class Hierarchy</title>
<polygon fill="white" stroke="none" points="-4,4 -4,-252 313,-252 313,4 -4,4"/>
<!-- Node0 -->
<g id="node1" class="node"><title>Node0</title>
<g id="a_node1"><a xlink:href="classcommand_1_1_base_command.html" target="_top" xlink:title="Base class for all command objects. ">
<polygon fill="white" stroke="black" points="0,-114.5 0,-133.5 133,-133.5 133,-114.5 0,-114.5"/>
<text text-anchor="middle" x="66.5" y="-121.5" font-family="Helvetica,sans-Serif" font-size="10.00">command::BaseCommand</text>
</a>
</g>
</g>
<!-- Node1 -->
<g id="node2" class="node"><title>Node1</title>
<g id="a_node2"><a xlink:href="classcommand_1_1_check_updates.html" target="_top" xlink:title="Check updates for validity. ">
<polygon fill="white" stroke="black" points="173.5,-228.5 173.5,-247.5 304.5,-247.5 304.5,-228.5 173.5,-228.5"/>
<text text-anchor="middle" x="239" y="-235.5" font-family="Helvetica,sans-Serif" font-size="10.00">command::CheckUpdates</text>
</a>
</g>
</g>
<!-- Node0&#45;&gt;Node1 -->
<g id="edge1" class="edge"><title>Node0&#45;&gt;Node1</title>
<path fill="none" stroke="midnightblue" d="M81.6067,-141.65C99.6497,-163.059 132.909,-198.788 169,-219 175.83,-222.825 183.477,-225.918 191.125,-228.408"/>
<polygon fill="midnightblue" stroke="midnightblue" points="84.1096,-139.184 75.0479,-133.694 78.7084,-143.636 84.1096,-139.184"/>
</g>
<!-- Node2 -->
<g id="node3" class="node"><title>Node2</title>
<g id="a_node3"><a xlink:href="classcommand_1_1_fetch_meta.html" target="_top" xlink:title="Fetch metadata from the server. ">
<polygon fill="white" stroke="black" points="183,-190.5 183,-209.5 295,-209.5 295,-190.5 183,-190.5"/>
<text text-anchor="middle" x="239" y="-197.5" font-family="Helvetica,sans-Serif" font-size="10.00">command::FetchMeta</text>
</a>
</g>
</g>
<!-- Node0&#45;&gt;Node2 -->
<g id="edge2" class="edge"><title>Node0&#45;&gt;Node2</title>
<path fill="none" stroke="midnightblue" d="M90.5182,-139.07C110.578,-151.673 140.797,-169.401 169,-181 177.848,-184.639 187.616,-187.808 196.95,-190.46"/>
<polygon fill="midnightblue" stroke="midnightblue" points="92.3743,-136.103 82.06,-133.681 88.6129,-142.006 92.3743,-136.103"/>
</g>
<!-- Node3 -->
<g id="node4" class="node"><title>Node3</title>
<g id="a_node4"><a xlink:href="classcommand_1_1_put_manifest.html" target="_top" xlink:title="Send a manifest to the server. ">
<polygon fill="white" stroke="black" points="180,-152.5 180,-171.5 298,-171.5 298,-152.5 180,-152.5"/>
<text text-anchor="middle" x="239" y="-159.5" font-family="Helvetica,sans-Serif" font-size="10.00">command::PutManifest</text>
</a>
</g>
</g>
<!-- Node0&#45;&gt;Node3 -->
<g id="edge3" class="edge"><title>Node0&#45;&gt;Node3</title>
<path fill="none" stroke="midnightblue" d="M120.554,-135.824C144.591,-141.182 172.632,-147.431 195.285,-152.48"/>
<polygon fill="midnightblue" stroke="midnightblue" points="121.046,-132.348 110.524,-133.589 119.523,-139.181 121.046,-132.348"/>
</g>
<!-- Node4 -->
<g id="node5" class="node"><title>Node4</title>
<g id="a_node5"><a xlink:href="classcommand_1_1_send_device_data.html" target="_top" xlink:title="Send device data to the server. ">
<polygon fill="white" stroke="black" points="169,-114.5 169,-133.5 309,-133.5 309,-114.5 169,-114.5"/>
<text text-anchor="middle" x="239" y="-121.5" font-family="Helvetica,sans-Serif" font-size="10.00">command::SendDeviceData</text>
</a>
</g>
</g>
<!-- Node0&#45;&gt;Node4 -->
<g id="edge4" class="edge"><title>Node0&#45;&gt;Node4</title>
<path fill="none" stroke="midnightblue" d="M143.601,-124C152.015,-124 160.549,-124 168.87,-124"/>
<polygon fill="midnightblue" stroke="midnightblue" points="143.42,-120.5 133.42,-124 143.42,-127.5 143.42,-120.5"/>
</g>
<!-- Node5 -->
<g id="node6" class="node"><title>Node5</title>
<g id="a_node6"><a xlink:href="classcommand_1_1_shutdown.html" target="_top" xlink:title="Shut aktualizr down and return control from the main thread. ">
<polygon fill="white" stroke="black" points="184.5,-76.5 184.5,-95.5 293.5,-95.5 293.5,-76.5 184.5,-76.5"/>
<text text-anchor="middle" x="239" y="-83.5" font-family="Helvetica,sans-Serif" font-size="10.00">command::Shutdown</text>
</a>
</g>
</g>
<!-- Node0&#45;&gt;Node5 -->
<g id="edge5" class="edge"><title>Node0&#45;&gt;Node5</title>
<path fill="none" stroke="midnightblue" d="M120.554,-112.176C144.591,-106.818 172.632,-100.569 195.285,-95.5201"/>
<polygon fill="midnightblue" stroke="midnightblue" points="119.523,-108.819 110.524,-114.411 121.046,-115.652 119.523,-108.819"/>
</g>
<!-- Node6 -->
<g id="node7" class="node"><title>Node6</title>
<g id="a_node7"><a xlink:href="classcommand_1_1_start_download.html" target="_top" xlink:title="Download a set of Uptane targets. ">
<polygon fill="white" stroke="black" points="174,-38.5 174,-57.5 304,-57.5 304,-38.5 174,-38.5"/>
<text text-anchor="middle" x="239" y="-45.5" font-family="Helvetica,sans-Serif" font-size="10.00">command::StartDownload</text>
</a>
</g>
</g>
<!-- Node0&#45;&gt;Node6 -->
<g id="edge6" class="edge"><title>Node0&#45;&gt;Node6</title>
<path fill="none" stroke="midnightblue" d="M90.5182,-108.93C110.578,-96.3275 140.797,-78.5994 169,-67 177.848,-63.3609 187.616,-60.192 196.95,-57.5398"/>
<polygon fill="midnightblue" stroke="midnightblue" points="88.6129,-105.994 82.06,-114.319 92.3743,-111.897 88.6129,-105.994"/>
</g>
<!-- Node7 -->
<g id="node8" class="node"><title>Node7</title>
<g id="a_node8"><a xlink:href="classcommand_1_1_uptane_install.html" target="_top" xlink:title="Install a set of Uptane targets. ">
<polygon fill="white" stroke="black" points="177.5,-0.5 177.5,-19.5 300.5,-19.5 300.5,-0.5 177.5,-0.5"/>
<text text-anchor="middle" x="239" y="-7.5" font-family="Helvetica,sans-Serif" font-size="10.00">command::UptaneInstall</text>
</a>
</g>
</g>
<!-- Node0&#45;&gt;Node7 -->
<g id="edge7" class="edge"><title>Node0&#45;&gt;Node7</title>
<path fill="none" stroke="midnightblue" d="M81.6067,-106.35C99.6497,-84.9405 132.909,-49.2124 169,-29 175.83,-25.1751 183.477,-22.0821 191.125,-19.5924"/>
<polygon fill="midnightblue" stroke="midnightblue" points="78.7084,-104.364 75.0479,-114.306 84.1096,-108.816 78.7084,-104.364"/>
</g>
</g>
</svg>
