<?xml version="1.0" encoding="UTF-8" standalone="no"?>
<!DOCTYPE svg PUBLIC "-//W3C//DTD SVG 1.1//EN"
 "http://www.w3.org/Graphics/SVG/1.1/DTD/svg11.dtd">
<!-- Generated by graphviz version 2.38.0 (20140413.2041)
 -->
<!-- Title: Graphical Class Hierarchy Pages: 1 -->
<svg width="210pt" height="66pt"
 viewBox="0.00 0.00 210.00 66.00" xmlns="http://www.w3.org/2000/svg" xmlns:xlink="http://www.w3.org/1999/xlink">
<g id="graph0" class="graph" transform="scale(1 1) rotate(0) translate(4 62)">
<title>Graphical Class Hierarchy</title>
<polygon fill="white" stroke="none" points="-4,4 -4,-62 206,-62 206,4 -4,4"/>
<!-- Node0 -->
<g id="node1" class="node"><title>Node0</title>
<g id="a_node1"><a xlink:href="class_o_s_tree_repo.html" target="_top" xlink:title="A source repository to read OSTree objects from. ">
<polygon fill="white" stroke="black" points="0,-19.5 0,-38.5 74,-38.5 74,-19.5 0,-19.5"/>
<text text-anchor="middle" x="37" y="-26.5" font-family="Helvetica,sans-Serif" font-size="10.00">OSTreeRepo</text>
</a>
</g>
</g>
<!-- Node1 -->
<g id="node2" class="node"><title>Node1</title>
<g id="a_node2"><a xlink:href="class_o_s_tree_dir_repo.html" target="_top" xlink:title="OSTreeDirRepo">
<polygon fill="white" stroke="black" points="113,-38.5 113,-57.5 199,-57.5 199,-38.5 113,-38.5"/>
<text text-anchor="middle" x="156" y="-45.5" font-family="Helvetica,sans-Serif" font-size="10.00">OSTreeDirRepo</text>
</a>
</g>
</g>
<!-- Node0&#45;&gt;Node1 -->
<g id="edge1" class="edge"><title>Node0&#45;&gt;Node1</title>
<path fill="none" stroke="midnightblue" d="M84.0729,-36.4819C93.5111,-38.0146 103.402,-39.6208 112.7,-41.1307"/>
<polygon fill="midnightblue" stroke="midnightblue" points="84.4903,-33.0039 74.0585,-34.8557 83.3682,-39.9134 84.4903,-33.0039"/>
</g>
<!-- Node2 -->
<g id="node3" class="node"><title>Node2</title>
<g id="a_node3"><a xlink:href="class_o_s_tree_http_repo.html" target="_top" xlink:title="OSTreeHttpRepo">
<polygon fill="white" stroke="black" points="110,-0.5 110,-19.5 202,-19.5 202,-0.5 110,-0.5"/>
<text text-anchor="middle" x="156" y="-7.5" font-family="Helvetica,sans-Serif" font-size="10.00">OSTreeHttpRepo</text>
</a>
</g>
</g>
<!-- Node0&#45;&gt;Node2 -->
<g id="edge2" class="edge"><title>Node0&#45;&gt;Node2</title>
<path fill="none" stroke="midnightblue" d="M84.1193,-21.5105C92.5547,-20.1407 101.35,-18.7124 109.76,-17.3467"/>
<polygon fill="midnightblue" stroke="midnightblue" points="83.3682,-18.0866 74.0585,-23.1443 84.4903,-24.9961 83.3682,-18.0866"/>
</g>
</g>
</svg>
