<?xml version="1.0" encoding="UTF-8" standalone="no"?>
<!DOCTYPE svg PUBLIC "-//W3C//DTD SVG 1.1//EN"
 "http://www.w3.org/Graphics/SVG/1.1/DTD/svg11.dtd">
<!-- Generated by graphviz version 2.38.0 (20140413.2041)
 -->
<!-- Title: Graphical Class Hierarchy Pages: 1 -->
<svg width="289pt" height="104pt"
 viewBox="0.00 0.00 289.00 104.00" xmlns="http://www.w3.org/2000/svg" xmlns:xlink="http://www.w3.org/1999/xlink">
<g id="graph0" class="graph" transform="scale(1 1) rotate(0) translate(4 100)">
<title>Graphical Class Hierarchy</title>
<polygon fill="white" stroke="none" points="-4,4 -4,-100 285,-100 285,4 -4,4"/>
<!-- Node0 -->
<g id="node1" class="node"><title>Node0</title>
<g id="a_node1"><a xlink:href="class_package_manager_interface.html" target="_top" xlink:title="PackageManagerInterface">
<polygon fill="white" stroke="black" points="0,-38.5 0,-57.5 131,-57.5 131,-38.5 0,-38.5"/>
<text text-anchor="middle" x="65.5" y="-45.5" font-family="Helvetica,sans-Serif" font-size="10.00">PackageManagerInterface</text>
</a>
</g>
</g>
<!-- Node1 -->
<g id="node2" class="node"><title>Node1</title>
<g id="a_node2"><a xlink:href="class_debian_manager.html" target="_top" xlink:title="DebianManager">
<polygon fill="white" stroke="black" points="181.5,-76.5 181.5,-95.5 266.5,-95.5 266.5,-76.5 181.5,-76.5"/>
<text text-anchor="middle" x="224" y="-83.5" font-family="Helvetica,sans-Serif" font-size="10.00">DebianManager</text>
</a>
</g>
</g>
<!-- Node0&#45;&gt;Node1 -->
<g id="edge1" class="edge"><title>Node0&#45;&gt;Node1</title>
<path fill="none" stroke="midnightblue" d="M115.789,-59.968C137.72,-65.2931 163.185,-71.4762 183.792,-76.4799"/>
<polygon fill="midnightblue" stroke="midnightblue" points="116.535,-56.5475 105.992,-57.589 114.883,-63.3498 116.535,-56.5475"/>
</g>
<!-- Node2 -->
<g id="node3" class="node"><title>Node2</title>
<g id="a_node3"><a xlink:href="class_ostree_manager.html" target="_top" xlink:title="OstreeManager">
<polygon fill="white" stroke="black" points="182.5,-38.5 182.5,-57.5 265.5,-57.5 265.5,-38.5 182.5,-38.5"/>
<text text-anchor="middle" x="224" y="-45.5" font-family="Helvetica,sans-Serif" font-size="10.00">OstreeManager</text>
</a>
</g>
</g>
<!-- Node0&#45;&gt;Node2 -->
<g id="edge2" class="edge"><title>Node0&#45;&gt;Node2</title>
<path fill="none" stroke="midnightblue" d="M141.301,-48C155.44,-48 169.73,-48 182.319,-48"/>
<polygon fill="midnightblue" stroke="midnightblue" points="141.058,-44.5001 131.058,-48 141.058,-51.5001 141.058,-44.5001"/>
</g>
<!-- Node3 -->
<g id="node4" class="node"><title>Node3</title>
<g id="a_node4"><a xlink:href="class_package_manager_fake.html" target="_top" xlink:title="PackageManagerFake">
<polygon fill="white" stroke="black" points="167,-0.5 167,-19.5 281,-19.5 281,-0.5 167,-0.5"/>
<text text-anchor="middle" x="224" y="-7.5" font-family="Helvetica,sans-Serif" font-size="10.00">PackageManagerFake</text>
</a>
</g>
</g>
<!-- Node0&#45;&gt;Node3 -->
<g id="edge3" class="edge"><title>Node0&#45;&gt;Node3</title>
<path fill="none" stroke="midnightblue" d="M115.789,-36.032C137.72,-30.7069 163.185,-24.5238 183.792,-19.5201"/>
<polygon fill="midnightblue" stroke="midnightblue" points="114.883,-32.6502 105.992,-38.411 116.535,-39.4525 114.883,-32.6502"/>
</g>
</g>
</svg>
