<?xml version="1.0" encoding="UTF-8" standalone="no"?>
<!DOCTYPE svg PUBLIC "-//W3C//DTD SVG 1.1//EN"
 "http://www.w3.org/Graphics/SVG/1.1/DTD/svg11.dtd">
<!-- Generated by graphviz version 2.40.1 (20161225.0304)
 -->
<!-- Title: Graphical Class Hierarchy Pages: 1 -->
<svg width="269pt" height="192pt"
 viewBox="0.00 0.00 269.00 192.00" xmlns="http://www.w3.org/2000/svg" xmlns:xlink="http://www.w3.org/1999/xlink">
<g id="graph0" class="graph" transform="scale(1 1) rotate(0) translate(4 188)">
<title>Graphical Class Hierarchy</title>
<polygon fill="#ffffff" stroke="transparent" points="-4,4 -4,-188 265,-188 265,4 -4,4"/>
<!-- Node0 -->
<g id="node1" class="node">
<title>Node0</title>
<g id="a_node1"><a xlink:href="class_report_event.html" target="_top" xlink:title="ReportEvent">
<polygon fill="#ffffff" stroke="#000000" points="0,-88.5 0,-107.5 71,-107.5 71,-88.5 0,-88.5"/>
<text text-anchor="middle" x="35.5" y="-95.5" font-family="Helvetica,sans-Serif" font-size="10.00" fill="#000000">ReportEvent</text>
</a>
</g>
</g>
<!-- Node1 -->
<g id="node2" class="node">
<title>Node1</title>
<g id="a_node2"><a xlink:href="class_campaign_accepted_report.html" target="_top" xlink:title="CampaignAcceptedReport">
<polygon fill="#ffffff" stroke="#000000" points="118.5,-164.5 118.5,-183.5 249.5,-183.5 249.5,-164.5 118.5,-164.5"/>
<text text-anchor="middle" x="184" y="-171.5" font-family="Helvetica,sans-Serif" font-size="10.00" fill="#000000">CampaignAcceptedReport</text>
</a>
</g>
</g>
<!-- Node0&#45;&gt;Node1 -->
<g id="edge1" class="edge">
<title>Node0&#45;&gt;Node1</title>
<path fill="none" stroke="#191970" d="M51.927,-114.5624C65.5609,-127.3989 86.0456,-144.684 107,-155 114.7825,-158.8314 123.3978,-161.9277 131.9647,-164.4187"/>
<polygon fill="#191970" stroke="#191970" points="54.3589,-112.0452 44.7394,-107.6048 49.4902,-117.0748 54.3589,-112.0452"/>
</g>
<!-- Node2 -->
<g id="node3" class="node">
<title>Node2</title>
<g id="a_node3"><a xlink:href="class_ecu_download_completed_report.html" target="_top" xlink:title="EcuDownloadCompletedReport">
<polygon fill="#ffffff" stroke="#000000" points="107,-126.5 107,-145.5 261,-145.5 261,-126.5 107,-126.5"/>
<text text-anchor="middle" x="184" y="-133.5" font-family="Helvetica,sans-Serif" font-size="10.00" fill="#000000">EcuDownloadCompletedReport</text>
</a>
</g>
</g>
<!-- Node0&#45;&gt;Node2 -->
<g id="edge2" class="edge">
<title>Node0&#45;&gt;Node2</title>
<path fill="none" stroke="#191970" d="M81.0245,-110.2274C89.6446,-112.5058 98.5938,-114.8462 107,-117 119.2711,-120.1441 132.6669,-123.4823 144.7943,-126.4689"/>
<polygon fill="#191970" stroke="#191970" points="81.6718,-106.7781 71.1086,-107.5961 79.8764,-113.5439 81.6718,-106.7781"/>
</g>
<!-- Node3 -->
<g id="node4" class="node">
<title>Node3</title>
<g id="a_node4"><a xlink:href="class_ecu_download_started_report.html" target="_top" xlink:title="EcuDownloadStartedReport">
<polygon fill="#ffffff" stroke="#000000" points="115,-88.5 115,-107.5 253,-107.5 253,-88.5 115,-88.5"/>
<text text-anchor="middle" x="184" y="-95.5" font-family="Helvetica,sans-Serif" font-size="10.00" fill="#000000">EcuDownloadStartedReport</text>
</a>
</g>
</g>
<!-- Node0&#45;&gt;Node3 -->
<g id="edge3" class="edge">
<title>Node0&#45;&gt;Node3</title>
<path fill="none" stroke="#191970" d="M81.3652,-98C92.0061,-98 103.5627,-98 114.955,-98"/>
<polygon fill="#191970" stroke="#191970" points="81.0695,-94.5001 71.0694,-98 81.0694,-101.5001 81.0695,-94.5001"/>
</g>
<!-- Node4 -->
<g id="node5" class="node">
<title>Node4</title>
<g id="a_node5"><a xlink:href="class_ecu_installation_completed_report.html" target="_top" xlink:title="EcuInstallationCompleted\lReport">
<polygon fill="#ffffff" stroke="#000000" points="120,-39 120,-69 248,-69 248,-39 120,-39"/>
<text text-anchor="start" x="128" y="-57" font-family="Helvetica,sans-Serif" font-size="10.00" fill="#000000">EcuInstallationCompleted</text>
<text text-anchor="middle" x="184" y="-46" font-family="Helvetica,sans-Serif" font-size="10.00" fill="#000000">Report</text>
</a>
</g>
</g>
<!-- Node0&#45;&gt;Node4 -->
<g id="edge4" class="edge">
<title>Node0&#45;&gt;Node4</title>
<path fill="none" stroke="#191970" d="M77.5365,-85.5447C94.8369,-80.4187 115.0317,-74.4351 133.1544,-69.0654"/>
<polygon fill="#191970" stroke="#191970" points="76.3159,-82.2559 67.7223,-88.4527 78.3046,-88.9675 76.3159,-82.2559"/>
</g>
<!-- Node5 -->
<g id="node6" class="node">
<title>Node5</title>
<g id="a_node6"><a xlink:href="class_ecu_installation_started_report.html" target="_top" xlink:title="EcuInstallationStartedReport">
<polygon fill="#ffffff" stroke="#000000" points="113,-.5 113,-19.5 255,-19.5 255,-.5 113,-.5"/>
<text text-anchor="middle" x="184" y="-7.5" font-family="Helvetica,sans-Serif" font-size="10.00" fill="#000000">EcuInstallationStartedReport</text>
</a>
</g>
</g>
<!-- Node0&#45;&gt;Node5 -->
<g id="edge5" class="edge">
<title>Node0&#45;&gt;Node5</title>
<path fill="none" stroke="#191970" d="M49.6378,-80.1877C62.8704,-64.6944 84.0058,-42.7782 107,-30 114.8473,-25.6392 123.6737,-22.2034 132.4761,-19.5042"/>
<polygon fill="#191970" stroke="#191970" points="46.821,-78.1015 43.1377,-88.0355 52.212,-82.5667 46.821,-78.1015"/>
</g>
</g>
</svg>
