<?xml version="1.0" encoding="UTF-8" standalone="no"?>
<!DOCTYPE svg PUBLIC "-//W3C//DTD SVG 1.1//EN"
 "http://www.w3.org/Graphics/SVG/1.1/DTD/svg11.dtd">
<!-- Generated by graphviz version 2.38.0 (20140413.2041)
 -->
<!-- Title: Graphical Class Hierarchy Pages: 1 -->
<svg width="267pt" height="66pt"
 viewBox="0.00 0.00 267.00 66.00" xmlns="http://www.w3.org/2000/svg" xmlns:xlink="http://www.w3.org/1999/xlink">
<g id="graph0" class="graph" transform="scale(1 1) rotate(0) translate(4 62)">
<title>Graphical Class Hierarchy</title>
<polygon fill="white" stroke="none" points="-4,4 -4,-62 263,-62 263,4 -4,4"/>
<!-- Node0 -->
<g id="node1" class="node"><title>Node0</title>
<g id="a_node1"><a xlink:href="class_storage_target_w_handle.html" target="_top" xlink:title="StorageTargetWHandle">
<polygon fill="white" stroke="black" points="0,-19.5 0,-38.5 119,-38.5 119,-19.5 0,-19.5"/>
<text text-anchor="middle" x="59.5" y="-26.5" font-family="Helvetica,sans-Serif" font-size="10.00">StorageTargetWHandle</text>
</a>
</g>
</g>
<!-- Node1 -->
<g id="node2" class="node"><title>Node1</title>
<g id="a_node2"><a xlink:href="class_f_s_target_w_handle.html" target="_top" xlink:title="FSTargetWHandle">
<polygon fill="white" stroke="black" points="158,-38.5 158,-57.5 256,-57.5 256,-38.5 158,-38.5"/>
<text text-anchor="middle" x="207" y="-45.5" font-family="Helvetica,sans-Serif" font-size="10.00">FSTargetWHandle</text>
</a>
</g>
</g>
<!-- Node0&#45;&gt;Node1 -->
<g id="edge1" class="edge"><title>Node0&#45;&gt;Node1</title>
<path fill="none" stroke="midnightblue" d="M129.234,-37.9756C138.864,-39.2331 148.588,-40.503 157.729,-41.6966"/>
<polygon fill="midnightblue" stroke="midnightblue" points="129.63,-34.4977 119.261,-36.6733 128.724,-41.4387 129.63,-34.4977"/>
</g>
<!-- Node2 -->
<g id="node3" class="node"><title>Node2</title>
<g id="a_node3"><a xlink:href="class_s_q_l_target_w_handle.html" target="_top" xlink:title="SQLTargetWHandle">
<polygon fill="white" stroke="black" points="155,-0.5 155,-19.5 259,-19.5 259,-0.5 155,-0.5"/>
<text text-anchor="middle" x="207" y="-7.5" font-family="Helvetica,sans-Serif" font-size="10.00">SQLTargetWHandle</text>
</a>
</g>
</g>
<!-- Node0&#45;&gt;Node2 -->
<g id="edge2" class="edge"><title>Node0&#45;&gt;Node2</title>
<path fill="none" stroke="midnightblue" d="M129.335,-20.0112C137.971,-18.8835 146.681,-17.7462 154.975,-16.663"/>
<polygon fill="midnightblue" stroke="midnightblue" points="128.724,-16.5613 119.261,-21.3267 129.63,-23.5023 128.724,-16.5613"/>
</g>
</g>
</svg>
