<?xml version="1.0" encoding="UTF-8" standalone="no"?>
<!DOCTYPE svg PUBLIC "-//W3C//DTD SVG 1.1//EN"
 "http://www.w3.org/Graphics/SVG/1.1/DTD/svg11.dtd">
<!-- Generated by graphviz version 2.38.0 (20140413.2041)
 -->
<!-- Title: Graphical Class Hierarchy Pages: 1 -->
<svg width="179pt" height="66pt"
 viewBox="0.00 0.00 179.00 66.00" xmlns="http://www.w3.org/2000/svg" xmlns:xlink="http://www.w3.org/1999/xlink">
<g id="graph0" class="graph" transform="scale(1 1) rotate(0) translate(4 62)">
<title>Graphical Class Hierarchy</title>
<polygon fill="white" stroke="none" points="-4,4 -4,-62 175,-62 175,4 -4,4"/>
<!-- Node0 -->
<g id="node1" class="node"><title>Node0</title>
<g id="a_node1"><a xlink:href="class_http_interface.html" target="_top" xlink:title="HttpInterface">
<polygon fill="white" stroke="black" points="0,-19.5 0,-38.5 74,-38.5 74,-19.5 0,-19.5"/>
<text text-anchor="middle" x="37" y="-26.5" font-family="Helvetica,sans-Serif" font-size="10.00">HttpInterface</text>
</a>
</g>
</g>
<!-- Node1 -->
<g id="node2" class="node"><title>Node1</title>
<g id="a_node2"><a xlink:href="class_http_client.html" target="_top" xlink:title="HttpClient">
<polygon fill="white" stroke="black" points="110,-38.5 110,-57.5 171,-57.5 171,-38.5 110,-38.5"/>
<text text-anchor="middle" x="140.5" y="-45.5" font-family="Helvetica,sans-Serif" font-size="10.00">HttpClient</text>
</a>
</g>
</g>
<!-- Node0&#45;&gt;Node1 -->
<g id="edge1" class="edge"><title>Node0&#45;&gt;Node1</title>
<path fill="none" stroke="midnightblue" d="M84.184,-37.6453C92.9237,-39.2813 101.845,-40.9514 109.901,-42.4593"/>
<polygon fill="midnightblue" stroke="midnightblue" points="84.5442,-34.152 74.0709,-35.7522 83.2562,-41.0325 84.5442,-34.152"/>
</g>
<!-- Node2 -->
<g id="node3" class="node"><title>Node2</title>
<g id="a_node3"><a xlink:href="class_http_fake.html" target="_top" xlink:title="HttpFake">
<polygon fill="white" stroke="black" points="112,-0.5 112,-19.5 169,-19.5 169,-0.5 112,-0.5"/>
<text text-anchor="middle" x="140.5" y="-7.5" font-family="Helvetica,sans-Serif" font-size="10.00">HttpFake</text>
</a>
</g>
</g>
<!-- Node0&#45;&gt;Node2 -->
<g id="edge2" class="edge"><title>Node0&#45;&gt;Node2</title>
<path fill="none" stroke="midnightblue" d="M84.1785,-20.3557C93.6282,-18.5868 103.291,-16.778 111.842,-15.1773"/>
<polygon fill="midnightblue" stroke="midnightblue" points="83.2562,-16.9675 74.0709,-22.2478 84.5442,-23.848 83.2562,-16.9675"/>
</g>
</g>
</svg>
