<?xml version="1.0" encoding="UTF-8" standalone="no"?>
<!DOCTYPE svg PUBLIC "-//W3C//DTD SVG 1.1//EN"
 "http://www.w3.org/Graphics/SVG/1.1/DTD/svg11.dtd">
<!-- Generated by graphviz version 2.38.0 (20140413.2041)
 -->
<!-- Title: Graphical Class Hierarchy Pages: 1 -->
<svg width="255pt" height="66pt"
 viewBox="0.00 0.00 255.00 66.00" xmlns="http://www.w3.org/2000/svg" xmlns:xlink="http://www.w3.org/1999/xlink">
<g id="graph0" class="graph" transform="scale(1 1) rotate(0) translate(4 62)">
<title>Graphical Class Hierarchy</title>
<polygon fill="white" stroke="none" points="-4,4 -4,-62 251,-62 251,4 -4,4"/>
<!-- Node0 -->
<g id="node1" class="node"><title>Node0</title>
<g id="a_node1"><a xlink:href="class_multi_part_hasher.html" target="_top" xlink:title="MultiPartHasher">
<polygon fill="white" stroke="black" points="0,-19.5 0,-38.5 87,-38.5 87,-19.5 0,-19.5"/>
<text text-anchor="middle" x="43.5" y="-26.5" font-family="Helvetica,sans-Serif" font-size="10.00">MultiPartHasher</text>
</a>
</g>
</g>
<!-- Node1 -->
<g id="node2" class="node"><title>Node1</title>
<g id="a_node2"><a xlink:href="class_multi_part_s_h_a256_hasher.html" target="_top" xlink:title="MultiPartSHA256Hasher">
<polygon fill="white" stroke="black" points="123,-38.5 123,-57.5 247,-57.5 247,-38.5 123,-38.5"/>
<text text-anchor="middle" x="185" y="-45.5" font-family="Helvetica,sans-Serif" font-size="10.00">MultiPartSHA256Hasher</text>
</a>
</g>
</g>
<!-- Node0&#45;&gt;Node1 -->
<g id="edge1" class="edge"><title>Node0&#45;&gt;Node1</title>
<path fill="none" stroke="midnightblue" d="M97.1563,-36.1718C105.563,-37.3168 114.323,-38.5099 122.905,-39.6788"/>
<polygon fill="midnightblue" stroke="midnightblue" points="97.4935,-32.6855 87.1126,-34.8039 96.5487,-39.6215 97.4935,-32.6855"/>
</g>
<!-- Node2 -->
<g id="node3" class="node"><title>Node2</title>
<g id="a_node3"><a xlink:href="class_multi_part_s_h_a512_hasher.html" target="_top" xlink:title="MultiPartSHA512Hasher">
<polygon fill="white" stroke="black" points="123,-0.5 123,-19.5 247,-19.5 247,-0.5 123,-0.5"/>
<text text-anchor="middle" x="185" y="-7.5" font-family="Helvetica,sans-Serif" font-size="10.00">MultiPartSHA512Hasher</text>
</a>
</g>
</g>
<!-- Node0&#45;&gt;Node2 -->
<g id="edge2" class="edge"><title>Node0&#45;&gt;Node2</title>
<path fill="none" stroke="midnightblue" d="M97.1563,-21.8282C105.563,-20.6832 114.323,-19.4901 122.905,-18.3212"/>
<polygon fill="midnightblue" stroke="midnightblue" points="96.5487,-18.3785 87.1126,-23.1961 97.4935,-25.3145 96.5487,-18.3785"/>
</g>
</g>
</svg>
