<?xml version="1.0" encoding="UTF-8" standalone="no"?>
<!DOCTYPE svg PUBLIC "-//W3C//DTD SVG 1.1//EN"
 "http://www.w3.org/Graphics/SVG/1.1/DTD/svg11.dtd">
<!-- Generated by graphviz version 2.38.0 (20140413.2041)
 -->
<!-- Title: Graphical Class Hierarchy Pages: 1 -->
<svg width="217pt" height="66pt"
 viewBox="0.00 0.00 217.00 66.00" xmlns="http://www.w3.org/2000/svg" xmlns:xlink="http://www.w3.org/1999/xlink">
<g id="graph0" class="graph" transform="scale(1 1) rotate(0) translate(4 62)">
<title>Graphical Class Hierarchy</title>
<polygon fill="white" stroke="none" points="-4,4 -4,-62 213,-62 213,4 -4,4"/>
<!-- Node0 -->
<g id="node1" class="node"><title>Node0</title>
<g id="a_node1"><a xlink:href="class_e_c_u_interface.html" target="_top" xlink:title="ECUInterface">
<polygon fill="white" stroke="black" points="0,-19.5 0,-38.5 77,-38.5 77,-19.5 0,-19.5"/>
<text text-anchor="middle" x="38.5" y="-26.5" font-family="Helvetica,sans-Serif" font-size="10.00">ECUInterface</text>
</a>
</g>
</g>
<!-- Node1 -->
<g id="node2" class="node"><title>Node1</title>
<g id="a_node2"><a xlink:href="class_example_flasher.html" target="_top" xlink:title="ExampleFlasher">
<polygon fill="white" stroke="black" points="117.5,-38.5 117.5,-57.5 204.5,-57.5 204.5,-38.5 117.5,-38.5"/>
<text text-anchor="middle" x="161" y="-45.5" font-family="Helvetica,sans-Serif" font-size="10.00">ExampleFlasher</text>
</a>
</g>
</g>
<!-- Node0&#45;&gt;Node1 -->
<g id="edge1" class="edge"><title>Node0&#45;&gt;Node1</title>
<path fill="none" stroke="midnightblue" d="M87.3813,-36.5498C97.2654,-38.1082 107.614,-39.7399 117.299,-41.267"/>
<polygon fill="midnightblue" stroke="midnightblue" points="87.7195,-33.0599 77.2963,-34.9596 86.6291,-39.9745 87.7195,-33.0599"/>
</g>
<!-- Node2 -->
<g id="node3" class="node"><title>Node2</title>
<g id="a_node3"><a xlink:href="class_test_isotp_interface.html" target="_top" xlink:title="TestIsotpInterface">
<polygon fill="white" stroke="black" points="113,-0.5 113,-19.5 209,-19.5 209,-0.5 113,-0.5"/>
<text text-anchor="middle" x="161" y="-7.5" font-family="Helvetica,sans-Serif" font-size="10.00">TestIsotpInterface</text>
</a>
</g>
</g>
<!-- Node0&#45;&gt;Node2 -->
<g id="edge2" class="edge"><title>Node0&#45;&gt;Node2</title>
<path fill="none" stroke="midnightblue" d="M87.2491,-21.4711C95.5814,-20.1573 104.247,-18.7909 112.571,-17.4784"/>
<polygon fill="midnightblue" stroke="midnightblue" points="86.6291,-18.0255 77.2963,-23.0404 87.7195,-24.9401 86.6291,-18.0255"/>
</g>
</g>
</svg>
