<?xml version="1.0" encoding="UTF-8" standalone="no"?>
<!DOCTYPE svg PUBLIC "-//W3C//DTD SVG 1.1//EN"
 "http://www.w3.org/Graphics/SVG/1.1/DTD/svg11.dtd">
<!-- Generated by graphviz version 2.38.0 (20140413.2041)
 -->
<!-- Title: Graphical Class Hierarchy Pages: 1 -->
<svg width="606pt" height="488pt"
 viewBox="0.00 0.00 606.00 487.50" xmlns="http://www.w3.org/2000/svg" xmlns:xlink="http://www.w3.org/1999/xlink">
<g id="graph0" class="graph" transform="scale(1 1) rotate(0) translate(4 483.5)">
<title>Graphical Class Hierarchy</title>
<polygon fill="white" stroke="none" points="-4,4 -4,-483.5 602,-483.5 602,4 -4,4"/>
<!-- Node178 -->
<g id="node1" class="node"><title>Node178</title>
<g id="a_node1"><a xlink:title="STL class. ">
<polygon fill="white" stroke="#bfbfbf" points="0,-308 0,-327 78,-327 78,-308 0,-308"/>
<text text-anchor="middle" x="39" y="-315" font-family="Helvetica,sans-Serif" font-size="10.00">std::exception</text>
</a>
</g>
</g>
<!-- Node0 -->
<g id="node2" class="node"><title>Node0</title>
<g id="a_node2"><a xlink:href="classdeserialization__error.html" target="_top" xlink:title="deserialization_error">
<polygon fill="white" stroke="black" points="127.5,-384 127.5,-403 231.5,-403 231.5,-384 127.5,-384"/>
<text text-anchor="middle" x="179.5" y="-391" font-family="Helvetica,sans-Serif" font-size="10.00">deserialization_error</text>
</a>
</g>
</g>
<!-- Node178&#45;&gt;Node0 -->
<g id="edge1" class="edge"><title>Node178&#45;&gt;Node0</title>
<path fill="none" stroke="midnightblue" d="M57.7233,-334.215C71.9616,-346.848 92.9851,-363.788 114,-374.5 121.384,-378.264 129.634,-381.402 137.701,-383.971"/>
<polygon fill="midnightblue" stroke="midnightblue" points="59.9295,-331.49 50.1755,-327.354 55.2212,-336.67 59.9295,-331.49"/>
</g>
<!-- Node180 -->
<g id="node3" class="node"><title>Node180</title>
<g id="a_node3"><a xlink:href="class_o_s_tree_commit_parse_error.html" target="_top" xlink:title="OSTreeCommitParseError">
<polygon fill="white" stroke="black" points="114,-346 114,-365 245,-365 245,-346 114,-346"/>
<text text-anchor="middle" x="179.5" y="-353" font-family="Helvetica,sans-Serif" font-size="10.00">OSTreeCommitParseError</text>
</a>
</g>
</g>
<!-- Node178&#45;&gt;Node180 -->
<g id="edge2" class="edge"><title>Node178&#45;&gt;Node180</title>
<path fill="none" stroke="#8b1a1a" d="M84.6342,-329.746C103.725,-334.984 125.684,-341.009 143.562,-345.914"/>
<polygon fill="#8b1a1a" stroke="#8b1a1a" points="85.5191,-326.36 74.9494,-327.089 83.6669,-333.11 85.5191,-326.36"/>
</g>
<!-- Node181 -->
<g id="node4" class="node"><title>Node181</title>
<g id="a_node4"><a xlink:href="class_o_s_tree_object_missing.html" target="_top" xlink:title="Thrown by GetObject when the object requested is not present in the repository. ">
<polygon fill="white" stroke="black" points="123,-308 123,-327 236,-327 236,-308 123,-308"/>
<text text-anchor="middle" x="179.5" y="-315" font-family="Helvetica,sans-Serif" font-size="10.00">OSTreeObjectMissing</text>
</a>
</g>
</g>
<!-- Node178&#45;&gt;Node181 -->
<g id="edge3" class="edge"><title>Node178&#45;&gt;Node181</title>
<path fill="none" stroke="#8b1a1a" d="M88.54,-317.5C99.6037,-317.5 111.444,-317.5 122.781,-317.5"/>
<polygon fill="#8b1a1a" stroke="#8b1a1a" points="88.2124,-314 78.2124,-317.5 88.2123,-321 88.2124,-314"/>
</g>
<!-- Node182 -->
<g id="node5" class="node"><title>Node182</title>
<g id="a_node5"><a xlink:title="STL class. ">
<polygon fill="white" stroke="#bfbfbf" points="139,-270 139,-289 220,-289 220,-270 139,-270"/>
<text text-anchor="middle" x="179.5" y="-277" font-family="Helvetica,sans-Serif" font-size="10.00">std::logic_error</text>
</a>
</g>
</g>
<!-- Node178&#45;&gt;Node182 -->
<g id="edge4" class="edge"><title>Node178&#45;&gt;Node182</title>
<path fill="none" stroke="midnightblue" d="M84.6342,-305.254C103.725,-300.016 125.684,-293.991 143.562,-289.086"/>
<polygon fill="midnightblue" stroke="midnightblue" points="83.6669,-301.89 74.9494,-307.911 85.5191,-308.64 83.6669,-301.89"/>
</g>
<!-- Node198 -->
<g id="node21" class="node"><title>Node198</title>
<g id="a_node21"><a xlink:title="STL class. ">
<polygon fill="white" stroke="#bfbfbf" points="133,-137 133,-156 226,-156 226,-137 133,-137"/>
<text text-anchor="middle" x="179.5" y="-144" font-family="Helvetica,sans-Serif" font-size="10.00">std::runtime_error</text>
</a>
</g>
</g>
<!-- Node178&#45;&gt;Node198 -->
<g id="edge20" class="edge"><title>Node178&#45;&gt;Node198</title>
<path fill="none" stroke="midnightblue" d="M54.4225,-299.693C83.519,-263.769 148.378,-183.69 170.743,-156.077"/>
<polygon fill="midnightblue" stroke="midnightblue" points="51.4174,-297.843 47.8432,-307.816 56.857,-302.248 51.4174,-297.843"/>
</g>
<!-- Node183 -->
<g id="node6" class="node"><title>Node183</title>
<g id="a_node6"><a xlink:href="class_fatal_exception.html" target="_top" xlink:title="FatalException">
<polygon fill="white" stroke="black" points="306,-327 306,-346 388,-346 388,-327 306,-327"/>
<text text-anchor="middle" x="347" y="-334" font-family="Helvetica,sans-Serif" font-size="10.00">FatalException</text>
</a>
</g>
</g>
<!-- Node182&#45;&gt;Node183 -->
<g id="edge5" class="edge"><title>Node182&#45;&gt;Node183</title>
<path fill="none" stroke="midnightblue" d="M226.985,-291.982C233.109,-293.978 239.251,-296.164 245,-298.5 261.76,-305.312 264.233,-310.705 281,-317.5 289.717,-321.032 299.334,-324.212 308.436,-326.916"/>
<polygon fill="midnightblue" stroke="midnightblue" points="228.023,-288.639 217.434,-289.006 225.94,-295.322 228.023,-288.639"/>
</g>
<!-- Node184 -->
<g id="node7" class="node"><title>Node184</title>
<g id="a_node7"><a xlink:href="class_not_implemented_exception.html" target="_top" xlink:title="NotImplementedException">
<polygon fill="white" stroke="black" points="281,-289 281,-308 413,-308 413,-289 281,-289"/>
<text text-anchor="middle" x="347" y="-296" font-family="Helvetica,sans-Serif" font-size="10.00">NotImplementedException</text>
</a>
</g>
</g>
<!-- Node182&#45;&gt;Node184 -->
<g id="edge6" class="edge"><title>Node182&#45;&gt;Node184</title>
<path fill="none" stroke="midnightblue" d="M230.277,-285.215C246.174,-287.04 264.012,-289.087 280.833,-291.019"/>
<polygon fill="midnightblue" stroke="midnightblue" points="230.475,-281.714 220.141,-284.051 229.677,-288.669 230.475,-281.714"/>
</g>
<!-- Node185 -->
<g id="node8" class="node"><title>Node185</title>
<g id="a_node8"><a xlink:href="class_uptane_1_1_exception.html" target="_top" xlink:title="Uptane::Exception">
<polygon fill="white" stroke="black" points="298,-251 298,-270 396,-270 396,-251 298,-251"/>
<text text-anchor="middle" x="347" y="-258" font-family="Helvetica,sans-Serif" font-size="10.00">Uptane::Exception</text>
</a>
</g>
</g>
<!-- Node182&#45;&gt;Node185 -->
<g id="edge7" class="edge"><title>Node182&#45;&gt;Node185</title>
<path fill="none" stroke="midnightblue" d="M230.33,-273.779C251.723,-271.323 276.622,-268.465 297.828,-266.03"/>
<polygon fill="midnightblue" stroke="midnightblue" points="229.677,-270.331 220.141,-274.949 230.475,-277.286 229.677,-270.331"/>
</g>
<!-- Node186 -->
<g id="node9" class="node"><title>Node186</title>
<g id="a_node9"><a xlink:href="class_uptane_1_1_bad_ecu_id.html" target="_top" xlink:title="Uptane::BadEcuId">
<polygon fill="white" stroke="black" points="475,-460 475,-479 572,-479 572,-460 475,-460"/>
<text text-anchor="middle" x="523.5" y="-467" font-family="Helvetica,sans-Serif" font-size="10.00">Uptane::BadEcuId</text>
</a>
</g>
</g>
<!-- Node185&#45;&gt;Node186 -->
<g id="edge8" class="edge"><title>Node185&#45;&gt;Node186</title>
<path fill="none" stroke="midnightblue" d="M405.223,-272.923C408.058,-274.819 410.684,-276.998 413,-279.5 465.767,-336.488 395.345,-394.348 449,-450.5 455.92,-457.742 465.209,-462.359 474.851,-465.271"/>
<polygon fill="midnightblue" stroke="midnightblue" points="406.649,-269.715 396.188,-268.037 403.319,-275.872 406.649,-269.715"/>
</g>
<!-- Node187 -->
<g id="node10" class="node"><title>Node187</title>
<g id="a_node10"><a xlink:href="class_uptane_1_1_expired_metadata.html" target="_top" xlink:title="Uptane::ExpiredMetadata">
<polygon fill="white" stroke="black" points="459.5,-422 459.5,-441 587.5,-441 587.5,-422 459.5,-422"/>
<text text-anchor="middle" x="523.5" y="-429" font-family="Helvetica,sans-Serif" font-size="10.00">Uptane::ExpiredMetadata</text>
</a>
</g>
</g>
<!-- Node185&#45;&gt;Node187 -->
<g id="edge9" class="edge"><title>Node185&#45;&gt;Node187</title>
<path fill="none" stroke="midnightblue" d="M405.206,-273.177C408.026,-275.011 410.655,-277.107 413,-279.5 455.866,-323.234 405.452,-369.445 449,-412.5 452.843,-416.299 457.34,-419.369 462.183,-421.845"/>
<polygon fill="midnightblue" stroke="midnightblue" points="406.736,-270.026 396.264,-268.418 403.447,-276.206 406.736,-270.026"/>
</g>
<!-- Node188 -->
<g id="node11" class="node"><title>Node188</title>
<g id="a_node11"><a xlink:href="class_uptane_1_1_illegal_rsa_key_size.html" target="_top" xlink:title="Uptane::IllegalRsaKeySize">
<polygon fill="white" stroke="black" points="456.5,-384 456.5,-403 590.5,-403 590.5,-384 456.5,-384"/>
<text text-anchor="middle" x="523.5" y="-391" font-family="Helvetica,sans-Serif" font-size="10.00">Uptane::IllegalRsaKeySize</text>
</a>
</g>
</g>
<!-- Node185&#45;&gt;Node188 -->
<g id="edge10" class="edge"><title>Node185&#45;&gt;Node188</title>
<path fill="none" stroke="midnightblue" d="M405.087,-273.548C407.918,-275.291 410.583,-277.265 413,-279.5 446.146,-310.161 415.377,-344.364 449,-374.5 453.318,-378.371 458.324,-381.472 463.652,-383.954"/>
<polygon fill="midnightblue" stroke="midnightblue" points="406.676,-270.43 396.18,-268.984 403.483,-276.659 406.676,-270.43"/>
</g>
<!-- Node189 -->
<g id="node12" class="node"><title>Node189</title>
<g id="a_node12"><a xlink:href="class_uptane_1_1_illegal_threshold.html" target="_top" xlink:title="Uptane::IllegalThreshold">
<polygon fill="white" stroke="black" points="462.5,-346 462.5,-365 584.5,-365 584.5,-346 462.5,-346"/>
<text text-anchor="middle" x="523.5" y="-353" font-family="Helvetica,sans-Serif" font-size="10.00">Uptane::IllegalThreshold</text>
</a>
</g>
</g>
<!-- Node185&#45;&gt;Node189 -->
<g id="edge11" class="edge"><title>Node185&#45;&gt;Node189</title>
<path fill="none" stroke="midnightblue" d="M405.012,-274.385C407.814,-275.916 410.499,-277.615 413,-279.5 436.927,-297.536 424.793,-318.842 449,-336.5 454.324,-340.384 460.372,-343.475 466.658,-345.935"/>
<polygon fill="midnightblue" stroke="midnightblue" points="406.28,-271.115 395.739,-270.047 403.313,-277.455 406.28,-271.115"/>
</g>
<!-- Node190 -->
<g id="node13" class="node"><title>Node190</title>
<g id="a_node13"><a xlink:href="class_uptane_1_1_invalid_metadata.html" target="_top" xlink:title="Uptane::InvalidMetadata">
<polygon fill="white" stroke="black" points="462,-308 462,-327 585,-327 585,-308 462,-308"/>
<text text-anchor="middle" x="523.5" y="-315" font-family="Helvetica,sans-Serif" font-size="10.00">Uptane::InvalidMetadata</text>
</a>
</g>
</g>
<!-- Node185&#45;&gt;Node190 -->
<g id="edge12" class="edge"><title>Node185&#45;&gt;Node190</title>
<path fill="none" stroke="midnightblue" d="M395.511,-273.178C401.462,-275.119 407.416,-277.237 413,-279.5 429.767,-286.295 432.128,-291.97 449,-298.5 458.464,-302.163 468.885,-305.342 478.83,-307.996"/>
<polygon fill="midnightblue" stroke="midnightblue" points="396.152,-269.712 385.564,-270.084 394.073,-276.396 396.152,-269.712"/>
</g>
<!-- Node191 -->
<g id="node14" class="node"><title>Node191</title>
<g id="a_node14"><a xlink:href="class_uptane_1_1_missing_repo.html" target="_top" xlink:title="Uptane::MissingRepo">
<polygon fill="white" stroke="black" points="468,-270 468,-289 579,-289 579,-270 468,-270"/>
<text text-anchor="middle" x="523.5" y="-277" font-family="Helvetica,sans-Serif" font-size="10.00">Uptane::MissingRepo</text>
</a>
</g>
</g>
<!-- Node185&#45;&gt;Node191 -->
<g id="edge13" class="edge"><title>Node185&#45;&gt;Node191</title>
<path fill="none" stroke="midnightblue" d="M406.284,-266.846C426.114,-269.005 448.196,-271.41 467.74,-273.538"/>
<polygon fill="midnightblue" stroke="midnightblue" points="406.465,-263.345 396.145,-265.742 405.707,-270.304 406.465,-263.345"/>
</g>
<!-- Node192 -->
<g id="node15" class="node"><title>Node192</title>
<g id="a_node15"><a xlink:href="class_uptane_1_1_miss_match_target.html" target="_top" xlink:title="Uptane::MissMatchTarget">
<polygon fill="white" stroke="black" points="458.5,-232 458.5,-251 588.5,-251 588.5,-232 458.5,-232"/>
<text text-anchor="middle" x="523.5" y="-239" font-family="Helvetica,sans-Serif" font-size="10.00">Uptane::MissMatchTarget</text>
</a>
</g>
</g>
<!-- Node185&#45;&gt;Node192 -->
<g id="edge14" class="edge"><title>Node185&#45;&gt;Node192</title>
<path fill="none" stroke="midnightblue" d="M406.339,-254.148C423.084,-252.325 441.432,-250.327 458.499,-248.469"/>
<polygon fill="midnightblue" stroke="midnightblue" points="405.707,-250.696 396.145,-255.258 406.465,-257.655 405.707,-250.696"/>
</g>
<!-- Node193 -->
<g id="node16" class="node"><title>Node193</title>
<g id="a_node16"><a xlink:href="class_uptane_1_1_non_unique_signatures.html" target="_top" xlink:title="Uptane::NonUniqueSignatures">
<polygon fill="white" stroke="black" points="449,-194 449,-213 598,-213 598,-194 449,-194"/>
<text text-anchor="middle" x="523.5" y="-201" font-family="Helvetica,sans-Serif" font-size="10.00">Uptane::NonUniqueSignatures</text>
</a>
</g>
</g>
<!-- Node185&#45;&gt;Node193 -->
<g id="edge15" class="edge"><title>Node185&#45;&gt;Node193</title>
<path fill="none" stroke="midnightblue" d="M395.511,-247.822C401.462,-245.881 407.416,-243.763 413,-241.5 429.767,-234.705 432.128,-229.03 449,-222.5 458.464,-218.837 468.885,-215.658 478.83,-213.004"/>
<polygon fill="midnightblue" stroke="midnightblue" points="394.073,-244.604 385.564,-250.916 396.152,-251.288 394.073,-244.604"/>
</g>
<!-- Node194 -->
<g id="node17" class="node"><title>Node194</title>
<g id="a_node17"><a xlink:href="class_uptane_1_1_oversized_target.html" target="_top" xlink:title="Uptane::OversizedTarget">
<polygon fill="white" stroke="black" points="460.5,-156 460.5,-175 586.5,-175 586.5,-156 460.5,-156"/>
<text text-anchor="middle" x="523.5" y="-163" font-family="Helvetica,sans-Serif" font-size="10.00">Uptane::OversizedTarget</text>
</a>
</g>
</g>
<!-- Node185&#45;&gt;Node194 -->
<g id="edge16" class="edge"><title>Node185&#45;&gt;Node194</title>
<path fill="none" stroke="midnightblue" d="M405.012,-246.615C407.814,-245.084 410.499,-243.385 413,-241.5 436.927,-223.464 424.793,-202.158 449,-184.5 454.324,-180.616 460.372,-177.525 466.658,-175.065"/>
<polygon fill="midnightblue" stroke="midnightblue" points="403.313,-243.545 395.739,-250.953 406.28,-249.885 403.313,-243.545"/>
</g>
<!-- Node195 -->
<g id="node18" class="node"><title>Node195</title>
<g id="a_node18"><a xlink:href="class_uptane_1_1_security_exception.html" target="_top" xlink:title="Uptane::SecurityException">
<polygon fill="white" stroke="black" points="456.5,-118 456.5,-137 590.5,-137 590.5,-118 456.5,-118"/>
<text text-anchor="middle" x="523.5" y="-125" font-family="Helvetica,sans-Serif" font-size="10.00">Uptane::SecurityException</text>
</a>
</g>
</g>
<!-- Node185&#45;&gt;Node195 -->
<g id="edge17" class="edge"><title>Node185&#45;&gt;Node195</title>
<path fill="none" stroke="midnightblue" d="M405.087,-247.452C407.918,-245.709 410.583,-243.735 413,-241.5 446.146,-210.839 415.377,-176.636 449,-146.5 453.318,-142.629 458.324,-139.528 463.652,-137.046"/>
<polygon fill="midnightblue" stroke="midnightblue" points="403.483,-244.341 396.18,-252.016 406.676,-250.57 403.483,-244.341"/>
</g>
<!-- Node196 -->
<g id="node19" class="node"><title>Node196</title>
<g id="a_node19"><a xlink:href="class_uptane_1_1_target_hash_mismatch.html" target="_top" xlink:title="Uptane::TargetHashMismatch">
<polygon fill="white" stroke="black" points="449.5,-80 449.5,-99 597.5,-99 597.5,-80 449.5,-80"/>
<text text-anchor="middle" x="523.5" y="-87" font-family="Helvetica,sans-Serif" font-size="10.00">Uptane::TargetHashMismatch</text>
</a>
</g>
</g>
<!-- Node185&#45;&gt;Node196 -->
<g id="edge18" class="edge"><title>Node185&#45;&gt;Node196</title>
<path fill="none" stroke="midnightblue" d="M405.206,-247.823C408.026,-245.989 410.655,-243.893 413,-241.5 455.866,-197.766 405.452,-151.555 449,-108.5 452.843,-104.701 457.34,-101.631 462.183,-99.1548"/>
<polygon fill="midnightblue" stroke="midnightblue" points="403.447,-244.794 396.264,-252.582 406.736,-250.974 403.447,-244.794"/>
</g>
<!-- Node197 -->
<g id="node20" class="node"><title>Node197</title>
<g id="a_node20"><a xlink:href="class_uptane_1_1_unmet_threshold.html" target="_top" xlink:title="Uptane::UnmetThreshold">
<polygon fill="white" stroke="black" points="460.5,-42 460.5,-61 586.5,-61 586.5,-42 460.5,-42"/>
<text text-anchor="middle" x="523.5" y="-49" font-family="Helvetica,sans-Serif" font-size="10.00">Uptane::UnmetThreshold</text>
</a>
</g>
</g>
<!-- Node185&#45;&gt;Node197 -->
<g id="edge19" class="edge"><title>Node185&#45;&gt;Node197</title>
<path fill="none" stroke="midnightblue" d="M405.223,-248.077C408.058,-246.181 410.684,-244.002 413,-241.5 465.767,-184.512 395.345,-126.652 449,-70.5 452.642,-66.6884 456.941,-63.604 461.601,-61.1127"/>
<polygon fill="midnightblue" stroke="midnightblue" points="403.319,-245.128 396.188,-252.963 406.649,-251.285 403.319,-245.128"/>
</g>
<!-- Node199 -->
<g id="node22" class="node"><title>Node199</title>
<g id="a_node22"><a xlink:href="class_bad_credentials_archive.html" target="_top" xlink:title="BadCredentialsArchive">
<polygon fill="white" stroke="black" points="289,-213 289,-232 405,-232 405,-213 289,-213"/>
<text text-anchor="middle" x="347" y="-220" font-family="Helvetica,sans-Serif" font-size="10.00">BadCredentialsArchive</text>
</a>
</g>
</g>
<!-- Node198&#45;&gt;Node199 -->
<g id="edge21" class="edge"><title>Node198&#45;&gt;Node199</title>
<path fill="none" stroke="midnightblue" d="M203.586,-161.643C223.464,-174.175 253.25,-191.762 281,-203.5 289.446,-207.072 298.779,-210.232 307.675,-212.898"/>
<polygon fill="midnightblue" stroke="midnightblue" points="205.245,-158.55 194.934,-156.113 201.475,-164.448 205.245,-158.55"/>
</g>
<!-- Node200 -->
<g id="node23" class="node"><title>Node200</title>
<g id="a_node23"><a xlink:href="class_bad_credentials_content.html" target="_top" xlink:title="BadCredentialsContent">
<polygon fill="white" stroke="black" points="288,-175 288,-194 406,-194 406,-175 288,-175"/>
<text text-anchor="middle" x="347" y="-182" font-family="Helvetica,sans-Serif" font-size="10.00">BadCredentialsContent</text>
</a>
</g>
</g>
<!-- Node198&#45;&gt;Node200 -->
<g id="edge22" class="edge"><title>Node198&#45;&gt;Node200</title>
<path fill="none" stroke="midnightblue" d="M232.311,-158.396C255.573,-163.737 282.647,-169.954 304.538,-174.98"/>
<polygon fill="midnightblue" stroke="midnightblue" points="232.792,-154.916 222.263,-156.089 231.226,-161.738 232.792,-154.916"/>
</g>
<!-- Node201 -->
<g id="node24" class="node"><title>Node201</title>
<g id="a_node24"><a xlink:href="class_bad_credentials_json.html" target="_top" xlink:title="BadCredentialsJson">
<polygon fill="white" stroke="black" points="295,-137 295,-156 399,-156 399,-137 295,-137"/>
<text text-anchor="middle" x="347" y="-144" font-family="Helvetica,sans-Serif" font-size="10.00">BadCredentialsJson</text>
</a>
</g>
</g>
<!-- Node198&#45;&gt;Node201 -->
<g id="edge23" class="edge"><title>Node198&#45;&gt;Node201</title>
<path fill="none" stroke="midnightblue" d="M236.175,-146.5C255.181,-146.5 276.329,-146.5 294.953,-146.5"/>
<polygon fill="midnightblue" stroke="midnightblue" points="236.162,-143 226.162,-146.5 236.162,-150 236.162,-143"/>
</g>
<!-- Node202 -->
<g id="node25" class="node"><title>Node202</title>
<g id="a_node25"><a xlink:href="class_s_q_l_exception.html" target="_top" xlink:title="SQLException">
<polygon fill="white" stroke="black" points="307,-99 307,-118 387,-118 387,-99 307,-99"/>
<text text-anchor="middle" x="347" y="-106" font-family="Helvetica,sans-Serif" font-size="10.00">SQLException</text>
</a>
</g>
</g>
<!-- Node198&#45;&gt;Node202 -->
<g id="edge24" class="edge"><title>Node198&#45;&gt;Node202</title>
<path fill="none" stroke="midnightblue" d="M232.302,-134.606C256.379,-129.078 284.54,-122.612 306.812,-117.498"/>
<polygon fill="midnightblue" stroke="midnightblue" points="231.226,-131.262 222.263,-136.911 232.792,-138.084 231.226,-131.262"/>
</g>
<!-- Node203 -->
<g id="node26" class="node"><title>Node203</title>
<g id="a_node26"><a xlink:href="class_storage_target_r_handle_1_1_read_error.html" target="_top" xlink:title="StorageTargetRHandle\l::ReadError">
<polygon fill="white" stroke="black" points="289,-49.5 289,-79.5 405,-79.5 405,-49.5 289,-49.5"/>
<text text-anchor="start" x="297" y="-67.5" font-family="Helvetica,sans-Serif" font-size="10.00">StorageTargetRHandle</text>
<text text-anchor="middle" x="347" y="-56.5" font-family="Helvetica,sans-Serif" font-size="10.00">::ReadError</text>
</a>
</g>
</g>
<!-- Node198&#45;&gt;Node203 -->
<g id="edge25" class="edge"><title>Node198&#45;&gt;Node203</title>
<path fill="none" stroke="midnightblue" d="M204.541,-131.518C224.571,-119.367 254.072,-102.228 281,-89.5 288.324,-86.0382 296.266,-82.6761 304.002,-79.5985"/>
<polygon fill="midnightblue" stroke="midnightblue" points="202.487,-128.672 195.785,-136.879 206.142,-134.642 202.487,-128.672"/>
</g>
<!-- Node204 -->
<g id="node27" class="node"><title>Node204</title>
<g id="a_node27"><a xlink:href="class_storage_target_w_handle_1_1_write_error.html" target="_top" xlink:title="StorageTargetWHandle\l::WriteError">
<polygon fill="white" stroke="black" points="287.5,-0.5 287.5,-30.5 406.5,-30.5 406.5,-0.5 287.5,-0.5"/>
<text text-anchor="start" x="295.5" y="-18.5" font-family="Helvetica,sans-Serif" font-size="10.00">StorageTargetWHandle</text>
<text text-anchor="middle" x="347" y="-7.5" font-family="Helvetica,sans-Serif" font-size="10.00">::WriteError</text>
</a>
</g>
</g>
<!-- Node198&#45;&gt;Node204 -->
<g id="edge26" class="edge"><title>Node198&#45;&gt;Node204</title>
<path fill="none" stroke="midnightblue" d="M193.212,-128.46C210.587,-104.996 243.865,-64.1071 281,-39.5 286.114,-36.1112 291.77,-33.1201 297.55,-30.5028"/>
<polygon fill="midnightblue" stroke="midnightblue" points="190.198,-126.654 187.161,-136.804 195.865,-130.763 190.198,-126.654"/>
</g>
</g>
</svg>
