<?xml version="1.0" encoding="UTF-8" standalone="no"?>
<!DOCTYPE svg PUBLIC "-//W3C//DTD SVG 1.1//EN"
 "http://www.w3.org/Graphics/SVG/1.1/DTD/svg11.dtd">
<!-- Generated by graphviz version 2.38.0 (20140413.2041)
 -->
<!-- Title: Graphical Class Hierarchy Pages: 1 -->
<svg width="351pt" height="104pt"
 viewBox="0.00 0.00 351.00 104.00" xmlns="http://www.w3.org/2000/svg" xmlns:xlink="http://www.w3.org/1999/xlink">
<g id="graph0" class="graph" transform="scale(1 1) rotate(0) translate(4 100)">
<title>Graphical Class Hierarchy</title>
<polygon fill="white" stroke="none" points="-4,4 -4,-100 347,-100 347,4 -4,4"/>
<!-- Node268 -->
<g id="node1" class="node"><title>Node268</title>
<g id="a_node1"><a xlink:href="class_aktualizr_secondary_common.html" target="_top" xlink:title="AktualizrSecondaryCommon">
<polygon fill="white" stroke="black" points="0,-76.5 0,-95.5 141,-95.5 141,-76.5 0,-76.5"/>
<text text-anchor="middle" x="70.5" y="-83.5" font-family="Helvetica,sans-Serif" font-size="10.00">AktualizrSecondaryCommon</text>
</a>
</g>
</g>
<!-- Node1 -->
<g id="node2" class="node"><title>Node1</title>
<g id="a_node2"><a xlink:href="class_aktualizr_secondary.html" target="_top" xlink:title="AktualizrSecondary">
<polygon fill="white" stroke="black" points="209.5,-38.5 209.5,-57.5 310.5,-57.5 310.5,-38.5 209.5,-38.5"/>
<text text-anchor="middle" x="260" y="-45.5" font-family="Helvetica,sans-Serif" font-size="10.00">AktualizrSecondary</text>
</a>
</g>
</g>
<!-- Node268&#45;&gt;Node1 -->
<g id="edge1" class="edge"><title>Node268&#45;&gt;Node1</title>
<path fill="none" stroke="#8b1a1a" d="M128.784,-74.3905C155.451,-68.986 186.781,-62.6365 212.026,-57.5201"/>
<polygon fill="#8b1a1a" stroke="#8b1a1a" points="127.92,-70.9944 118.814,-76.411 129.31,-77.8549 127.92,-70.9944"/>
</g>
<!-- Node2 -->
<g id="node3" class="node"><title>Node2</title>
<g id="a_node3"><a xlink:href="class_aktualizr_secondary_opcua.html" target="_top" xlink:title="AktualizrSecondaryOpcua">
<polygon fill="white" stroke="black" points="195,-76.5 195,-95.5 325,-95.5 325,-76.5 195,-76.5"/>
<text text-anchor="middle" x="260" y="-83.5" font-family="Helvetica,sans-Serif" font-size="10.00">AktualizrSecondaryOpcua</text>
</a>
</g>
</g>
<!-- Node268&#45;&gt;Node2 -->
<g id="edge2" class="edge"><title>Node268&#45;&gt;Node2</title>
<path fill="none" stroke="#8b1a1a" d="M151.07,-86C165.676,-86 180.751,-86 194.834,-86"/>
<polygon fill="#8b1a1a" stroke="#8b1a1a" points="151.052,-82.5001 141.052,-86 151.052,-89.5001 151.052,-82.5001"/>
</g>
<!-- Node0 -->
<g id="node4" class="node"><title>Node0</title>
<g id="a_node4"><a xlink:href="class_aktualizr_secondary_interface.html" target="_top" xlink:title="AktualizrSecondaryInterface">
<polygon fill="white" stroke="black" points="0.5,-38.5 0.5,-57.5 140.5,-57.5 140.5,-38.5 0.5,-38.5"/>
<text text-anchor="middle" x="70.5" y="-45.5" font-family="Helvetica,sans-Serif" font-size="10.00">AktualizrSecondaryInterface</text>
</a>
</g>
</g>
<!-- Node0&#45;&gt;Node1 -->
<g id="edge3" class="edge"><title>Node0&#45;&gt;Node1</title>
<path fill="none" stroke="midnightblue" d="M150.549,-48C170.527,-48 191.419,-48 209.473,-48"/>
<polygon fill="midnightblue" stroke="midnightblue" points="150.519,-44.5001 140.519,-48 150.519,-51.5001 150.519,-44.5001"/>
</g>
<!-- Node0&#45;&gt;Node2 -->
<g id="edge4" class="edge"><title>Node0&#45;&gt;Node2</title>
<path fill="none" stroke="midnightblue" d="M128.784,-59.6095C155.451,-65.014 186.781,-71.3635 212.026,-76.4799"/>
<polygon fill="midnightblue" stroke="midnightblue" points="129.31,-56.1451 118.814,-57.589 127.92,-63.0056 129.31,-56.1451"/>
</g>
<!-- Node3 -->
<g id="node5" class="node"><title>Node3</title>
<g id="a_node5"><a xlink:href="class_aktualizr_secondary_with_discovery.html" target="_top" xlink:title="AktualizrSecondaryWithDiscovery">
<polygon fill="white" stroke="black" points="177,-0.5 177,-19.5 343,-19.5 343,-0.5 177,-0.5"/>
<text text-anchor="middle" x="260" y="-7.5" font-family="Helvetica,sans-Serif" font-size="10.00">AktualizrSecondaryWithDiscovery</text>
</a>
</g>
</g>
<!-- Node0&#45;&gt;Node3 -->
<g id="edge5" class="edge"><title>Node0&#45;&gt;Node3</title>
<path fill="none" stroke="midnightblue" d="M128.784,-36.3905C155.451,-30.986 186.781,-24.6365 212.026,-19.5201"/>
<polygon fill="midnightblue" stroke="midnightblue" points="127.92,-32.9944 118.814,-38.411 129.31,-39.8549 127.92,-32.9944"/>
</g>
</g>
</svg>
