<?xml version="1.0" encoding="UTF-8" standalone="no"?>
<!DOCTYPE svg PUBLIC "-//W3C//DTD SVG 1.1//EN"
 "http://www.w3.org/Graphics/SVG/1.1/DTD/svg11.dtd">
<!-- Generated by graphviz version 2.38.0 (20140413.2041)
 -->
<!-- Title: Graphical Class Hierarchy Pages: 1 -->
<svg width="317pt" height="294pt"
 viewBox="0.00 0.00 317.00 294.00" xmlns="http://www.w3.org/2000/svg" xmlns:xlink="http://www.w3.org/1999/xlink">
<g id="graph0" class="graph" transform="scale(1 1) rotate(0) translate(4 290)">
<title>Graphical Class Hierarchy</title>
<polygon fill="white" stroke="none" points="-4,4 -4,-290 313,-290 313,4 -4,4"/>
<!-- Node0 -->
<g id="node1" class="node"><title>Node0</title>
<g id="a_node1"><a xlink:href="classcommand_1_1_base_command.html" target="_top" xlink:title="Base class for all command objects. ">
<polygon fill="white" stroke="black" points="0,-133.5 0,-152.5 133,-152.5 133,-133.5 0,-133.5"/>
<text text-anchor="middle" x="66.5" y="-140.5" font-family="Helvetica,sans-Serif" font-size="10.00">command::BaseCommand</text>
</a>
</g>
</g>
<!-- Node1 -->
<g id="node2" class="node"><title>Node1</title>
<g id="a_node2"><a xlink:href="classcommand_1_1_campaign_check.html" target="_top" xlink:title="command::CampaignCheck">
<polygon fill="white" stroke="black" points="170,-266.5 170,-285.5 308,-285.5 308,-266.5 170,-266.5"/>
<text text-anchor="middle" x="239" y="-273.5" font-family="Helvetica,sans-Serif" font-size="10.00">command::CampaignCheck</text>
</a>
</g>
</g>
<!-- Node0&#45;&gt;Node1 -->
<g id="edge1" class="edge"><title>Node0&#45;&gt;Node1</title>
<path fill="none" stroke="midnightblue" d="M78.8037,-161.268C95.4285,-186.597 128.884,-232.071 169,-257 175.226,-260.869 182.248,-263.964 189.367,-266.436"/>
<polygon fill="midnightblue" stroke="midnightblue" points="81.6154,-159.169 73.2773,-152.632 75.7193,-162.942 81.6154,-159.169"/>
</g>
<!-- Node2 -->
<g id="node3" class="node"><title>Node2</title>
<g id="a_node3"><a xlink:href="classcommand_1_1_check_updates.html" target="_top" xlink:title="Check updates for validity. ">
<polygon fill="white" stroke="black" points="173.5,-228.5 173.5,-247.5 304.5,-247.5 304.5,-228.5 173.5,-228.5"/>
<text text-anchor="middle" x="239" y="-235.5" font-family="Helvetica,sans-Serif" font-size="10.00">command::CheckUpdates</text>
</a>
</g>
</g>
<!-- Node0&#45;&gt;Node2 -->
<g id="edge2" class="edge"><title>Node0&#45;&gt;Node2</title>
<path fill="none" stroke="midnightblue" d="M85.2339,-159.584C104.482,-176.749 136.8,-203.218 169,-219 176.698,-222.773 185.259,-225.893 193.659,-228.437"/>
<polygon fill="midnightblue" stroke="midnightblue" points="87.345,-156.773 77.59,-152.639 82.6379,-161.954 87.345,-156.773"/>
</g>
<!-- Node3 -->
<g id="node4" class="node"><title>Node3</title>
<g id="a_node4"><a xlink:href="classcommand_1_1_fetch_meta.html" target="_top" xlink:title="Fetch metadata from the server. ">
<polygon fill="white" stroke="black" points="183,-190.5 183,-209.5 295,-209.5 295,-190.5 183,-190.5"/>
<text text-anchor="middle" x="239" y="-197.5" font-family="Helvetica,sans-Serif" font-size="10.00">command::FetchMeta</text>
</a>
</g>
</g>
<!-- Node0&#45;&gt;Node3 -->
<g id="edge3" class="edge"><title>Node0&#45;&gt;Node3</title>
<path fill="none" stroke="midnightblue" d="M100.527,-156.22C120.248,-163.899 145.879,-173.505 169,-181 179.283,-184.333 190.546,-187.595 200.935,-190.45"/>
<polygon fill="midnightblue" stroke="midnightblue" points="101.666,-152.907 91.0781,-152.512 99.1087,-159.423 101.666,-152.907"/>
</g>
<!-- Node4 -->
<g id="node5" class="node"><title>Node4</title>
<g id="a_node5"><a xlink:href="classcommand_1_1_put_manifest.html" target="_top" xlink:title="Send a manifest to the server. ">
<polygon fill="white" stroke="black" points="180,-152.5 180,-171.5 298,-171.5 298,-152.5 180,-152.5"/>
<text text-anchor="middle" x="239" y="-159.5" font-family="Helvetica,sans-Serif" font-size="10.00">command::PutManifest</text>
</a>
</g>
</g>
<!-- Node0&#45;&gt;Node4 -->
<g id="edge4" class="edge"><title>Node0&#45;&gt;Node4</title>
<path fill="none" stroke="midnightblue" d="M143.547,-151.474C155.7,-152.829 168.106,-154.211 179.76,-155.51"/>
<polygon fill="midnightblue" stroke="midnightblue" points="143.746,-147.975 133.42,-150.346 142.971,-154.932 143.746,-147.975"/>
</g>
<!-- Node5 -->
<g id="node6" class="node"><title>Node5</title>
<g id="a_node6"><a xlink:href="classcommand_1_1_send_device_data.html" target="_top" xlink:title="Send device data to the server. ">
<polygon fill="white" stroke="black" points="169,-114.5 169,-133.5 309,-133.5 309,-114.5 169,-114.5"/>
<text text-anchor="middle" x="239" y="-121.5" font-family="Helvetica,sans-Serif" font-size="10.00">command::SendDeviceData</text>
</a>
</g>
</g>
<!-- Node0&#45;&gt;Node5 -->
<g id="edge5" class="edge"><title>Node0&#45;&gt;Node5</title>
<path fill="none" stroke="midnightblue" d="M143.601,-134.52C152.015,-133.582 160.549,-132.631 168.87,-131.704"/>
<polygon fill="midnightblue" stroke="midnightblue" points="142.971,-131.068 133.42,-135.654 143.746,-138.025 142.971,-131.068"/>
</g>
<!-- Node6 -->
<g id="node7" class="node"><title>Node6</title>
<g id="a_node7"><a xlink:href="classcommand_1_1_shutdown.html" target="_top" xlink:title="Shut aktualizr down and return control from the main thread. ">
<polygon fill="white" stroke="black" points="184.5,-76.5 184.5,-95.5 293.5,-95.5 293.5,-76.5 184.5,-76.5"/>
<text text-anchor="middle" x="239" y="-83.5" font-family="Helvetica,sans-Serif" font-size="10.00">command::Shutdown</text>
</a>
</g>
</g>
<!-- Node0&#45;&gt;Node6 -->
<g id="edge6" class="edge"><title>Node0&#45;&gt;Node6</title>
<path fill="none" stroke="midnightblue" d="M100.527,-129.78C120.248,-122.101 145.879,-112.495 169,-105 179.283,-101.667 190.546,-98.4046 200.935,-95.5504"/>
<polygon fill="midnightblue" stroke="midnightblue" points="99.1087,-126.577 91.0781,-133.488 101.666,-133.093 99.1087,-126.577"/>
</g>
<!-- Node7 -->
<g id="node8" class="node"><title>Node7</title>
<g id="a_node8"><a xlink:href="classcommand_1_1_start_download.html" target="_top" xlink:title="Download a set of Uptane targets. ">
<polygon fill="white" stroke="black" points="174,-38.5 174,-57.5 304,-57.5 304,-38.5 174,-38.5"/>
<text text-anchor="middle" x="239" y="-45.5" font-family="Helvetica,sans-Serif" font-size="10.00">command::StartDownload</text>
</a>
</g>
</g>
<!-- Node0&#45;&gt;Node7 -->
<g id="edge7" class="edge"><title>Node0&#45;&gt;Node7</title>
<path fill="none" stroke="midnightblue" d="M85.2339,-126.416C104.482,-109.251 136.8,-82.7817 169,-67 176.698,-63.2269 185.259,-60.1075 193.659,-57.5634"/>
<polygon fill="midnightblue" stroke="midnightblue" points="82.6379,-124.046 77.59,-133.361 87.345,-129.227 82.6379,-124.046"/>
</g>
<!-- Node8 -->
<g id="node9" class="node"><title>Node8</title>
<g id="a_node9"><a xlink:href="classcommand_1_1_uptane_install.html" target="_top" xlink:title="Install a set of Uptane targets. ">
<polygon fill="white" stroke="black" points="177.5,-0.5 177.5,-19.5 300.5,-19.5 300.5,-0.5 177.5,-0.5"/>
<text text-anchor="middle" x="239" y="-7.5" font-family="Helvetica,sans-Serif" font-size="10.00">command::UptaneInstall</text>
</a>
</g>
</g>
<!-- Node0&#45;&gt;Node8 -->
<g id="edge8" class="edge"><title>Node0&#45;&gt;Node8</title>
<path fill="none" stroke="midnightblue" d="M78.8037,-124.732C95.4285,-99.4032 128.884,-53.9287 169,-29 175.226,-25.1307 182.248,-22.0358 189.367,-19.5637"/>
<polygon fill="midnightblue" stroke="midnightblue" points="75.7193,-123.058 73.2773,-133.368 81.6154,-126.831 75.7193,-123.058"/>
</g>
</g>
</svg>
