<?xml version="1.0" encoding="UTF-8" standalone="no"?>
<!DOCTYPE svg PUBLIC "-//W3C//DTD SVG 1.1//EN"
 "http://www.w3.org/Graphics/SVG/1.1/DTD/svg11.dtd">
<!-- Generated by graphviz version 2.38.0 (20140413.2041)
 -->
<!-- Title: Graphical Class Hierarchy Pages: 1 -->
<svg width="606pt" height="545pt"
 viewBox="0.00 0.00 606.00 544.50" xmlns="http://www.w3.org/2000/svg" xmlns:xlink="http://www.w3.org/1999/xlink">
<g id="graph0" class="graph" transform="scale(1 1) rotate(0) translate(4 540.5)">
<title>Graphical Class Hierarchy</title>
<polygon fill="white" stroke="none" points="-4,4 -4,-540.5 602,-540.5 602,4 -4,4"/>
<!-- Node177 -->
<g id="node1" class="node"><title>Node177</title>
<g id="a_node1"><a xlink:title="STL class. ">
<polygon fill="white" stroke="#bfbfbf" points="0,-346 0,-365 78,-365 78,-346 0,-346"/>
<text text-anchor="middle" x="39" y="-353" font-family="Helvetica,sans-Serif" font-size="10.00">std::exception</text>
</a>
</g>
</g>
<!-- Node0 -->
<g id="node2" class="node"><title>Node0</title>
<g id="a_node2"><a xlink:href="classdeserialization__error.html" target="_top" xlink:title="deserialization_error">
<polygon fill="white" stroke="black" points="127.5,-422 127.5,-441 231.5,-441 231.5,-422 127.5,-422"/>
<text text-anchor="middle" x="179.5" y="-429" font-family="Helvetica,sans-Serif" font-size="10.00">deserialization_error</text>
</a>
</g>
</g>
<!-- Node177&#45;&gt;Node0 -->
<g id="edge1" class="edge"><title>Node177&#45;&gt;Node0</title>
<path fill="none" stroke="midnightblue" d="M57.7233,-372.215C71.9616,-384.848 92.9851,-401.788 114,-412.5 121.384,-416.264 129.634,-419.402 137.701,-421.971"/>
<polygon fill="midnightblue" stroke="midnightblue" points="59.9295,-369.49 50.1755,-365.354 55.2212,-374.67 59.9295,-369.49"/>
</g>
<!-- Node179 -->
<g id="node3" class="node"><title>Node179</title>
<g id="a_node3"><a xlink:href="class_o_s_tree_commit_parse_error.html" target="_top" xlink:title="OSTreeCommitParseError">
<polygon fill="white" stroke="black" points="114,-384 114,-403 245,-403 245,-384 114,-384"/>
<text text-anchor="middle" x="179.5" y="-391" font-family="Helvetica,sans-Serif" font-size="10.00">OSTreeCommitParseError</text>
</a>
</g>
</g>
<!-- Node177&#45;&gt;Node179 -->
<g id="edge2" class="edge"><title>Node177&#45;&gt;Node179</title>
<path fill="none" stroke="#8b1a1a" d="M84.6342,-367.746C103.725,-372.984 125.684,-379.009 143.562,-383.914"/>
<polygon fill="#8b1a1a" stroke="#8b1a1a" points="85.5191,-364.36 74.9494,-365.089 83.6669,-371.11 85.5191,-364.36"/>
</g>
<!-- Node180 -->
<g id="node4" class="node"><title>Node180</title>
<g id="a_node4"><a xlink:href="class_o_s_tree_object_missing.html" target="_top" xlink:title="Thrown by GetObject when the object requested is not present in the repository. ">
<polygon fill="white" stroke="black" points="123,-346 123,-365 236,-365 236,-346 123,-346"/>
<text text-anchor="middle" x="179.5" y="-353" font-family="Helvetica,sans-Serif" font-size="10.00">OSTreeObjectMissing</text>
</a>
</g>
</g>
<!-- Node177&#45;&gt;Node180 -->
<g id="edge3" class="edge"><title>Node177&#45;&gt;Node180</title>
<path fill="none" stroke="#8b1a1a" d="M88.54,-355.5C99.6037,-355.5 111.444,-355.5 122.781,-355.5"/>
<polygon fill="#8b1a1a" stroke="#8b1a1a" points="88.2124,-352 78.2124,-355.5 88.2123,-359 88.2124,-352"/>
</g>
<!-- Node181 -->
<g id="node5" class="node"><title>Node181</title>
<g id="a_node5"><a xlink:title="STL class. ">
<polygon fill="white" stroke="#bfbfbf" points="139,-308 139,-327 220,-327 220,-308 139,-308"/>
<text text-anchor="middle" x="179.5" y="-315" font-family="Helvetica,sans-Serif" font-size="10.00">std::logic_error</text>
</a>
</g>
</g>
<!-- Node177&#45;&gt;Node181 -->
<g id="edge4" class="edge"><title>Node177&#45;&gt;Node181</title>
<path fill="none" stroke="midnightblue" d="M84.6342,-343.254C103.725,-338.016 125.684,-331.991 143.562,-327.086"/>
<polygon fill="midnightblue" stroke="midnightblue" points="83.6669,-339.89 74.9494,-345.911 85.5191,-346.64 83.6669,-339.89"/>
</g>
<!-- Node198 -->
<g id="node22" class="node"><title>Node198</title>
<g id="a_node22"><a xlink:title="STL class. ">
<polygon fill="white" stroke="#bfbfbf" points="133,-156 133,-175 226,-175 226,-156 133,-156"/>
<text text-anchor="middle" x="179.5" y="-163" font-family="Helvetica,sans-Serif" font-size="10.00">std::runtime_error</text>
</a>
</g>
</g>
<!-- Node177&#45;&gt;Node198 -->
<g id="edge21" class="edge"><title>Node177&#45;&gt;Node198</title>
<path fill="none" stroke="midnightblue" d="M53.1673,-337.437C81.8422,-298.099 149.138,-205.781 171.289,-175.392"/>
<polygon fill="midnightblue" stroke="midnightblue" points="50.1209,-335.674 47.0586,-345.817 55.7776,-339.797 50.1209,-335.674"/>
</g>
<!-- Node182 -->
<g id="node6" class="node"><title>Node182</title>
<g id="a_node6"><a xlink:href="class_fatal_exception.html" target="_top" xlink:title="FatalException">
<polygon fill="white" stroke="black" points="306,-365 306,-384 388,-384 388,-365 306,-365"/>
<text text-anchor="middle" x="347" y="-372" font-family="Helvetica,sans-Serif" font-size="10.00">FatalException</text>
</a>
</g>
</g>
<!-- Node181&#45;&gt;Node182 -->
<g id="edge5" class="edge"><title>Node181&#45;&gt;Node182</title>
<path fill="none" stroke="midnightblue" d="M226.985,-329.982C233.109,-331.978 239.251,-334.164 245,-336.5 261.76,-343.312 264.233,-348.705 281,-355.5 289.717,-359.032 299.334,-362.212 308.436,-364.916"/>
<polygon fill="midnightblue" stroke="midnightblue" points="228.023,-326.639 217.434,-327.006 225.94,-333.322 228.023,-326.639"/>
</g>
<!-- Node183 -->
<g id="node7" class="node"><title>Node183</title>
<g id="a_node7"><a xlink:href="class_not_implemented_exception.html" target="_top" xlink:title="NotImplementedException">
<polygon fill="white" stroke="black" points="281,-327 281,-346 413,-346 413,-327 281,-327"/>
<text text-anchor="middle" x="347" y="-334" font-family="Helvetica,sans-Serif" font-size="10.00">NotImplementedException</text>
</a>
</g>
</g>
<!-- Node181&#45;&gt;Node183 -->
<g id="edge6" class="edge"><title>Node181&#45;&gt;Node183</title>
<path fill="none" stroke="midnightblue" d="M230.277,-323.215C246.174,-325.04 264.012,-327.087 280.833,-329.019"/>
<polygon fill="midnightblue" stroke="midnightblue" points="230.475,-319.714 220.141,-322.051 229.677,-326.669 230.475,-319.714"/>
</g>
<!-- Node184 -->
<g id="node8" class="node"><title>Node184</title>
<g id="a_node8"><a xlink:href="class_uptane_1_1_exception.html" target="_top" xlink:title="Uptane::Exception">
<polygon fill="white" stroke="black" points="298,-289 298,-308 396,-308 396,-289 298,-289"/>
<text text-anchor="middle" x="347" y="-296" font-family="Helvetica,sans-Serif" font-size="10.00">Uptane::Exception</text>
</a>
</g>
</g>
<!-- Node181&#45;&gt;Node184 -->
<g id="edge7" class="edge"><title>Node181&#45;&gt;Node184</title>
<path fill="none" stroke="midnightblue" d="M230.33,-311.779C251.723,-309.323 276.622,-306.465 297.828,-304.03"/>
<polygon fill="midnightblue" stroke="midnightblue" points="229.677,-308.331 220.141,-312.949 230.475,-315.286 229.677,-308.331"/>
</g>
<!-- Node185 -->
<g id="node9" class="node"><title>Node185</title>
<g id="a_node9"><a xlink:href="class_uptane_1_1_bad_ecu_id.html" target="_top" xlink:title="Uptane::BadEcuId">
<polygon fill="white" stroke="black" points="475,-517 475,-536 572,-536 572,-517 475,-517"/>
<text text-anchor="middle" x="523.5" y="-524" font-family="Helvetica,sans-Serif" font-size="10.00">Uptane::BadEcuId</text>
</a>
</g>
</g>
<!-- Node184&#45;&gt;Node185 -->
<g id="edge8" class="edge"><title>Node184&#45;&gt;Node185</title>
<path fill="none" stroke="midnightblue" d="M405.283,-310.868C408.103,-312.778 410.709,-314.975 413,-317.5 470.752,-381.152 390.256,-444.763 449,-507.5 455.846,-514.812 465.106,-519.457 474.742,-522.374"/>
<polygon fill="midnightblue" stroke="midnightblue" points="406.734,-307.672 396.279,-305.953 403.38,-313.816 406.734,-307.672"/>
</g>
<!-- Node186 -->
<g id="node10" class="node"><title>Node186</title>
<g id="a_node10"><a xlink:href="class_uptane_1_1_bad_key_id.html" target="_top" xlink:title="Uptane::BadKeyId">
<polygon fill="white" stroke="black" points="475,-479 475,-498 572,-498 572,-479 475,-479"/>
<text text-anchor="middle" x="523.5" y="-486" font-family="Helvetica,sans-Serif" font-size="10.00">Uptane::BadKeyId</text>
</a>
</g>
</g>
<!-- Node184&#45;&gt;Node186 -->
<g id="edge9" class="edge"><title>Node184&#45;&gt;Node186</title>
<path fill="none" stroke="midnightblue" d="M405.149,-310.992C408.003,-312.871 410.652,-315.027 413,-317.5 460.802,-367.846 400.413,-419.911 449,-469.5 456.01,-476.655 465.336,-481.236 474.985,-484.141"/>
<polygon fill="midnightblue" stroke="midnightblue" points="406.545,-307.769 396.076,-306.142 403.245,-313.943 406.545,-307.769"/>
</g>
<!-- Node187 -->
<g id="node11" class="node"><title>Node187</title>
<g id="a_node11"><a xlink:href="class_uptane_1_1_expired_metadata.html" target="_top" xlink:title="Uptane::ExpiredMetadata">
<polygon fill="white" stroke="black" points="459.5,-441 459.5,-460 587.5,-460 587.5,-441 459.5,-441"/>
<text text-anchor="middle" x="523.5" y="-448" font-family="Helvetica,sans-Serif" font-size="10.00">Uptane::ExpiredMetadata</text>
</a>
</g>
</g>
<!-- Node184&#45;&gt;Node187 -->
<g id="edge10" class="edge"><title>Node184&#45;&gt;Node187</title>
<path fill="none" stroke="midnightblue" d="M405.089,-311.293C407.938,-313.099 410.605,-315.156 413,-317.5 450.972,-354.665 410.449,-394.936 449,-431.5 453.016,-435.309 457.693,-438.38 462.706,-440.852"/>
<polygon fill="midnightblue" stroke="midnightblue" points="406.571,-308.118 396.086,-306.596 403.333,-314.325 406.571,-308.118"/>
</g>
<!-- Node188 -->
<g id="node12" class="node"><title>Node188</title>
<g id="a_node12"><a xlink:href="class_uptane_1_1_illegal_rsa_key_size.html" target="_top" xlink:title="Uptane::IllegalRsaKeySize">
<polygon fill="white" stroke="black" points="456.5,-403 456.5,-422 590.5,-422 590.5,-403 456.5,-403"/>
<text text-anchor="middle" x="523.5" y="-410" font-family="Helvetica,sans-Serif" font-size="10.00">Uptane::IllegalRsaKeySize</text>
</a>
</g>
</g>
<!-- Node184&#45;&gt;Node188 -->
<g id="edge11" class="edge"><title>Node184&#45;&gt;Node188</title>
<path fill="none" stroke="midnightblue" d="M405.297,-312.03C408.027,-313.651 410.617,-315.467 413,-317.5 441.432,-341.761 420.191,-369.689 449,-393.5 453.673,-397.362 459.04,-400.45 464.701,-402.917"/>
<polygon fill="midnightblue" stroke="midnightblue" points="406.702,-308.819 396.191,-307.483 403.575,-315.082 406.702,-308.819"/>
</g>
<!-- Node189 -->
<g id="node13" class="node"><title>Node189</title>
<g id="a_node13"><a xlink:href="class_uptane_1_1_illegal_threshold.html" target="_top" xlink:title="Uptane::IllegalThreshold">
<polygon fill="white" stroke="black" points="462.5,-365 462.5,-384 584.5,-384 584.5,-365 462.5,-365"/>
<text text-anchor="middle" x="523.5" y="-372" font-family="Helvetica,sans-Serif" font-size="10.00">Uptane::IllegalThreshold</text>
</a>
</g>
</g>
<!-- Node184&#45;&gt;Node189 -->
<g id="edge12" class="edge"><title>Node184&#45;&gt;Node189</title>
<path fill="none" stroke="midnightblue" d="M401.691,-311.672C405.628,-313.393 409.445,-315.328 413,-317.5 432.853,-329.628 428.959,-343.685 449,-355.5 455.585,-359.382 462.959,-362.481 470.427,-364.951"/>
<polygon fill="midnightblue" stroke="midnightblue" points="402.939,-308.402 392.35,-308.03 400.396,-314.924 402.939,-308.402"/>
</g>
<!-- Node190 -->
<g id="node14" class="node"><title>Node190</title>
<g id="a_node14"><a xlink:href="class_uptane_1_1_invalid_metadata.html" target="_top" xlink:title="Uptane::InvalidMetadata">
<polygon fill="white" stroke="black" points="462,-327 462,-346 585,-346 585,-327 462,-327"/>
<text text-anchor="middle" x="523.5" y="-334" font-family="Helvetica,sans-Serif" font-size="10.00">Uptane::InvalidMetadata</text>
</a>
</g>
</g>
<!-- Node184&#45;&gt;Node190 -->
<g id="edge13" class="edge"><title>Node184&#45;&gt;Node190</title>
<path fill="none" stroke="midnightblue" d="M401.969,-310.253C426.643,-315.626 455.495,-321.909 478.783,-326.98"/>
<polygon fill="midnightblue" stroke="midnightblue" points="402.549,-306.797 392.034,-308.089 401.06,-313.637 402.549,-306.797"/>
</g>
<!-- Node191 -->
<g id="node15" class="node"><title>Node191</title>
<g id="a_node15"><a xlink:href="class_uptane_1_1_missing_repo.html" target="_top" xlink:title="Uptane::MissingRepo">
<polygon fill="white" stroke="black" points="468,-289 468,-308 579,-308 579,-289 468,-289"/>
<text text-anchor="middle" x="523.5" y="-296" font-family="Helvetica,sans-Serif" font-size="10.00">Uptane::MissingRepo</text>
</a>
</g>
</g>
<!-- Node184&#45;&gt;Node191 -->
<g id="edge14" class="edge"><title>Node184&#45;&gt;Node191</title>
<path fill="none" stroke="midnightblue" d="M406.284,-298.5C426.114,-298.5 448.196,-298.5 467.74,-298.5"/>
<polygon fill="midnightblue" stroke="midnightblue" points="406.145,-295 396.145,-298.5 406.145,-302 406.145,-295"/>
</g>
<!-- Node192 -->
<g id="node16" class="node"><title>Node192</title>
<g id="a_node16"><a xlink:href="class_uptane_1_1_miss_match_target.html" target="_top" xlink:title="Uptane::MissMatchTarget">
<polygon fill="white" stroke="black" points="458.5,-251 458.5,-270 588.5,-270 588.5,-251 458.5,-251"/>
<text text-anchor="middle" x="523.5" y="-258" font-family="Helvetica,sans-Serif" font-size="10.00">Uptane::MissMatchTarget</text>
</a>
</g>
</g>
<!-- Node184&#45;&gt;Node192 -->
<g id="edge15" class="edge"><title>Node184&#45;&gt;Node192</title>
<path fill="none" stroke="midnightblue" d="M401.969,-286.747C426.643,-281.374 455.495,-275.091 478.783,-270.02"/>
<polygon fill="midnightblue" stroke="midnightblue" points="401.06,-283.363 392.034,-288.911 402.549,-290.203 401.06,-283.363"/>
</g>
<!-- Node193 -->
<g id="node17" class="node"><title>Node193</title>
<g id="a_node17"><a xlink:href="class_uptane_1_1_non_unique_signatures.html" target="_top" xlink:title="Uptane::NonUniqueSignatures">
<polygon fill="white" stroke="black" points="449,-213 449,-232 598,-232 598,-213 449,-213"/>
<text text-anchor="middle" x="523.5" y="-220" font-family="Helvetica,sans-Serif" font-size="10.00">Uptane::NonUniqueSignatures</text>
</a>
</g>
</g>
<!-- Node184&#45;&gt;Node193 -->
<g id="edge16" class="edge"><title>Node184&#45;&gt;Node193</title>
<path fill="none" stroke="midnightblue" d="M401.691,-285.328C405.628,-283.607 409.445,-281.672 413,-279.5 432.853,-267.372 428.959,-253.315 449,-241.5 455.585,-237.618 462.959,-234.519 470.427,-232.049"/>
<polygon fill="midnightblue" stroke="midnightblue" points="400.396,-282.076 392.35,-288.97 402.939,-288.598 400.396,-282.076"/>
</g>
<!-- Node194 -->
<g id="node18" class="node"><title>Node194</title>
<g id="a_node18"><a xlink:href="class_uptane_1_1_oversized_target.html" target="_top" xlink:title="Uptane::OversizedTarget">
<polygon fill="white" stroke="black" points="460.5,-175 460.5,-194 586.5,-194 586.5,-175 460.5,-175"/>
<text text-anchor="middle" x="523.5" y="-182" font-family="Helvetica,sans-Serif" font-size="10.00">Uptane::OversizedTarget</text>
</a>
</g>
</g>
<!-- Node184&#45;&gt;Node194 -->
<g id="edge17" class="edge"><title>Node184&#45;&gt;Node194</title>
<path fill="none" stroke="midnightblue" d="M405.297,-284.97C408.027,-283.349 410.617,-281.533 413,-279.5 441.432,-255.239 420.191,-227.311 449,-203.5 453.673,-199.638 459.04,-196.55 464.701,-194.083"/>
<polygon fill="midnightblue" stroke="midnightblue" points="403.575,-281.918 396.191,-289.517 406.702,-288.181 403.575,-281.918"/>
</g>
<!-- Node195 -->
<g id="node19" class="node"><title>Node195</title>
<g id="a_node19"><a xlink:href="class_uptane_1_1_security_exception.html" target="_top" xlink:title="Uptane::SecurityException">
<polygon fill="white" stroke="black" points="456.5,-137 456.5,-156 590.5,-156 590.5,-137 456.5,-137"/>
<text text-anchor="middle" x="523.5" y="-144" font-family="Helvetica,sans-Serif" font-size="10.00">Uptane::SecurityException</text>
</a>
</g>
</g>
<!-- Node184&#45;&gt;Node195 -->
<g id="edge18" class="edge"><title>Node184&#45;&gt;Node195</title>
<path fill="none" stroke="midnightblue" d="M405.089,-285.707C407.938,-283.901 410.605,-281.844 413,-279.5 450.972,-242.335 410.449,-202.064 449,-165.5 453.016,-161.691 457.693,-158.62 462.706,-156.148"/>
<polygon fill="midnightblue" stroke="midnightblue" points="403.333,-282.675 396.086,-290.404 406.571,-288.882 403.333,-282.675"/>
</g>
<!-- Node196 -->
<g id="node20" class="node"><title>Node196</title>
<g id="a_node20"><a xlink:href="class_uptane_1_1_target_hash_mismatch.html" target="_top" xlink:title="Uptane::TargetHashMismatch">
<polygon fill="white" stroke="black" points="449.5,-99 449.5,-118 597.5,-118 597.5,-99 449.5,-99"/>
<text text-anchor="middle" x="523.5" y="-106" font-family="Helvetica,sans-Serif" font-size="10.00">Uptane::TargetHashMismatch</text>
</a>
</g>
</g>
<!-- Node184&#45;&gt;Node196 -->
<g id="edge19" class="edge"><title>Node184&#45;&gt;Node196</title>
<path fill="none" stroke="midnightblue" d="M405.149,-286.008C408.003,-284.129 410.652,-281.973 413,-279.5 460.802,-229.154 400.413,-177.089 449,-127.5 452.782,-123.64 457.238,-120.529 462.054,-118.027"/>
<polygon fill="midnightblue" stroke="midnightblue" points="403.245,-283.057 396.076,-290.858 406.545,-289.231 403.245,-283.057"/>
</g>
<!-- Node197 -->
<g id="node21" class="node"><title>Node197</title>
<g id="a_node21"><a xlink:href="class_uptane_1_1_unmet_threshold.html" target="_top" xlink:title="Uptane::UnmetThreshold">
<polygon fill="white" stroke="black" points="460.5,-61 460.5,-80 586.5,-80 586.5,-61 460.5,-61"/>
<text text-anchor="middle" x="523.5" y="-68" font-family="Helvetica,sans-Serif" font-size="10.00">Uptane::UnmetThreshold</text>
</a>
</g>
</g>
<!-- Node184&#45;&gt;Node197 -->
<g id="edge20" class="edge"><title>Node184&#45;&gt;Node197</title>
<path fill="none" stroke="midnightblue" d="M405.283,-286.132C408.103,-284.222 410.709,-282.025 413,-279.5 470.752,-215.848 390.256,-152.237 449,-89.5 452.603,-85.6517 456.875,-82.5422 461.518,-80.0344"/>
<polygon fill="midnightblue" stroke="midnightblue" points="403.38,-283.184 396.279,-291.047 406.734,-289.328 403.38,-283.184"/>
</g>
<!-- Node199 -->
<g id="node23" class="node"><title>Node199</title>
<g id="a_node23"><a xlink:href="class_bad_credentials_archive.html" target="_top" xlink:title="BadCredentialsArchive">
<polygon fill="white" stroke="black" points="289,-251 289,-270 405,-270 405,-251 289,-251"/>
<text text-anchor="middle" x="347" y="-258" font-family="Helvetica,sans-Serif" font-size="10.00">BadCredentialsArchive</text>
</a>
</g>
</g>
<!-- Node198&#45;&gt;Node199 -->
<g id="edge22" class="edge"><title>Node198&#45;&gt;Node199</title>
<path fill="none" stroke="midnightblue" d="M198.078,-181.994C217.152,-199.084 249.165,-225.492 281,-241.5 288.458,-245.25 296.778,-248.382 304.91,-250.949"/>
<polygon fill="midnightblue" stroke="midnightblue" points="200.249,-179.236 190.502,-175.082 195.531,-184.408 200.249,-179.236"/>
</g>
<!-- Node200 -->
<g id="node24" class="node"><title>Node200</title>
<g id="a_node24"><a xlink:href="class_bad_credentials_content.html" target="_top" xlink:title="BadCredentialsContent">
<polygon fill="white" stroke="black" points="288,-213 288,-232 406,-232 406,-213 288,-213"/>
<text text-anchor="middle" x="347" y="-220" font-family="Helvetica,sans-Serif" font-size="10.00">BadCredentialsContent</text>
</a>
</g>
</g>
<!-- Node198&#45;&gt;Node200 -->
<g id="edge23" class="edge"><title>Node198&#45;&gt;Node200</title>
<path fill="none" stroke="midnightblue" d="M213.622,-178.76C233.107,-186.375 258.301,-195.904 281,-203.5 290.811,-206.783 301.558,-210.055 311.438,-212.934"/>
<polygon fill="midnightblue" stroke="midnightblue" points="214.862,-175.487 204.275,-175.083 212.299,-182.001 214.862,-175.487"/>
</g>
<!-- Node201 -->
<g id="node25" class="node"><title>Node201</title>
<g id="a_node25"><a xlink:href="class_bad_credentials_json.html" target="_top" xlink:title="BadCredentialsJson">
<polygon fill="white" stroke="black" points="295,-175 295,-194 399,-194 399,-175 295,-175"/>
<text text-anchor="middle" x="347" y="-182" font-family="Helvetica,sans-Serif" font-size="10.00">BadCredentialsJson</text>
</a>
</g>
</g>
<!-- Node198&#45;&gt;Node201 -->
<g id="edge24" class="edge"><title>Node198&#45;&gt;Node201</title>
<path fill="none" stroke="midnightblue" d="M236.175,-171.892C255.181,-174.074 276.329,-176.501 294.953,-178.64"/>
<polygon fill="midnightblue" stroke="midnightblue" points="236.496,-168.406 226.162,-170.742 235.697,-175.36 236.496,-168.406"/>
</g>
<!-- Node202 -->
<g id="node26" class="node"><title>Node202</title>
<g id="a_node26"><a xlink:href="class_s_q_l_exception.html" target="_top" xlink:title="SQLException">
<polygon fill="white" stroke="black" points="307,-137 307,-156 387,-156 387,-137 307,-137"/>
<text text-anchor="middle" x="347" y="-144" font-family="Helvetica,sans-Serif" font-size="10.00">SQLException</text>
</a>
</g>
</g>
<!-- Node198&#45;&gt;Node202 -->
<g id="edge25" class="edge"><title>Node198&#45;&gt;Node202</title>
<path fill="none" stroke="midnightblue" d="M236.231,-159.102C259.447,-156.437 285.849,-153.406 306.942,-150.984"/>
<polygon fill="midnightblue" stroke="midnightblue" points="235.697,-155.64 226.162,-160.258 236.496,-162.594 235.697,-155.64"/>
</g>
<!-- Node203 -->
<g id="node27" class="node"><title>Node203</title>
<g id="a_node27"><a xlink:href="class_storage_exception.html" target="_top" xlink:title="StorageException">
<polygon fill="white" stroke="black" points="300,-99 300,-118 394,-118 394,-99 300,-99"/>
<text text-anchor="middle" x="347" y="-106" font-family="Helvetica,sans-Serif" font-size="10.00">StorageException</text>
</a>
</g>
</g>
<!-- Node198&#45;&gt;Node203 -->
<g id="edge26" class="edge"><title>Node198&#45;&gt;Node203</title>
<path fill="none" stroke="midnightblue" d="M213.622,-152.24C233.107,-144.625 258.301,-135.096 281,-127.5 290.811,-124.217 301.558,-120.945 311.438,-118.066"/>
<polygon fill="midnightblue" stroke="midnightblue" points="212.299,-148.999 204.275,-155.917 214.862,-155.513 212.299,-148.999"/>
</g>
<!-- Node204 -->
<g id="node28" class="node"><title>Node204</title>
<g id="a_node28"><a xlink:href="class_storage_target_r_handle_1_1_read_error.html" target="_top" xlink:title="StorageTargetRHandle\l::ReadError">
<polygon fill="white" stroke="black" points="289,-49.5 289,-79.5 405,-79.5 405,-49.5 289,-49.5"/>
<text text-anchor="start" x="297" y="-67.5" font-family="Helvetica,sans-Serif" font-size="10.00">StorageTargetRHandle</text>
<text text-anchor="middle" x="347" y="-56.5" font-family="Helvetica,sans-Serif" font-size="10.00">::ReadError</text>
</a>
</g>
</g>
<!-- Node198&#45;&gt;Node204 -->
<g id="edge27" class="edge"><title>Node198&#45;&gt;Node204</title>
<path fill="none" stroke="midnightblue" d="M198.663,-149.256C217.999,-132.586 250.021,-106.72 281,-89.5 287.552,-85.8581 294.743,-82.5138 301.879,-79.5367"/>
<polygon fill="midnightblue" stroke="midnightblue" points="196.18,-146.777 190.956,-155.994 200.788,-152.046 196.18,-146.777"/>
</g>
<!-- Node205 -->
<g id="node29" class="node"><title>Node205</title>
<g id="a_node29"><a xlink:href="class_storage_target_w_handle_1_1_write_error.html" target="_top" xlink:title="StorageTargetWHandle\l::WriteError">
<polygon fill="white" stroke="black" points="287.5,-0.5 287.5,-30.5 406.5,-30.5 406.5,-0.5 287.5,-0.5"/>
<text text-anchor="start" x="295.5" y="-18.5" font-family="Helvetica,sans-Serif" font-size="10.00">StorageTargetWHandle</text>
<text text-anchor="middle" x="347" y="-7.5" font-family="Helvetica,sans-Serif" font-size="10.00">::WriteError</text>
</a>
</g>
</g>
<!-- Node198&#45;&gt;Node205 -->
<g id="edge28" class="edge"><title>Node198&#45;&gt;Node205</title>
<path fill="none" stroke="midnightblue" d="M190.806,-146.938C206.78,-119.75 239.992,-69.1244 281,-39.5 285.681,-36.1188 290.891,-33.1617 296.268,-30.5887"/>
<polygon fill="midnightblue" stroke="midnightblue" points="187.656,-145.395 185.719,-155.811 193.729,-148.877 187.656,-145.395"/>
</g>
</g>
</svg>
