<?xml version="1.0" encoding="UTF-8" standalone="no"?>
<!DOCTYPE svg PUBLIC "-//W3C//DTD SVG 1.1//EN"
 "http://www.w3.org/Graphics/SVG/1.1/DTD/svg11.dtd">
<!-- Generated by graphviz version 2.40.1 (20161225.0304)
 -->
<!-- Title: Graphical Class Hierarchy Pages: 1 -->
<svg width="606pt" height="545pt"
 viewBox="0.00 0.00 606.00 544.50" xmlns="http://www.w3.org/2000/svg" xmlns:xlink="http://www.w3.org/1999/xlink">
<g id="graph0" class="graph" transform="scale(1 1) rotate(0) translate(4 540.5)">
<title>Graphical Class Hierarchy</title>
<polygon fill="#ffffff" stroke="transparent" points="-4,4 -4,-540.5 602,-540.5 602,4 -4,4"/>
<!-- Node179 -->
<g id="node1" class="node">
<title>Node179</title>
<g id="a_node1"><a xlink:title="STL class. ">
<polygon fill="#ffffff" stroke="#bfbfbf" points="0,-346 0,-365 78,-365 78,-346 0,-346"/>
<text text-anchor="middle" x="39" y="-353" font-family="Helvetica,sans-Serif" font-size="10.00" fill="#000000">std::exception</text>
</a>
</g>
</g>
<!-- Node0 -->
<g id="node2" class="node">
<title>Node0</title>
<g id="a_node2"><a xlink:href="classdeserialization__error.html" target="_top" xlink:title="deserialization_error">
<polygon fill="#ffffff" stroke="#000000" points="127.5,-422 127.5,-441 231.5,-441 231.5,-422 127.5,-422"/>
<text text-anchor="middle" x="179.5" y="-429" font-family="Helvetica,sans-Serif" font-size="10.00" fill="#000000">deserialization_error</text>
</a>
</g>
</g>
<!-- Node179&#45;&gt;Node0 -->
<g id="edge1" class="edge">
<title>Node179&#45;&gt;Node0</title>
<path fill="none" stroke="#191970" d="M56.9898,-372.2266C71.4351,-384.8662 92.7494,-401.8095 114,-412.5 121.5099,-416.278 129.8923,-419.4218 138.0857,-421.9927"/>
<polygon fill="#191970" stroke="#191970" points="59.1134,-369.4299 49.3307,-365.3618 54.4413,-374.6426 59.1134,-369.4299"/>
</g>
<!-- Node181 -->
<g id="node3" class="node">
<title>Node181</title>
<g id="a_node3"><a xlink:href="class_o_s_tree_commit_parse_error.html" target="_top" xlink:title="OSTreeCommitParseError">
<polygon fill="#ffffff" stroke="#000000" points="114,-384 114,-403 245,-403 245,-384 114,-384"/>
<text text-anchor="middle" x="179.5" y="-391" font-family="Helvetica,sans-Serif" font-size="10.00" fill="#000000">OSTreeCommitParseError</text>
</a>
</g>
</g>
<!-- Node179&#45;&gt;Node181 -->
<g id="edge2" class="edge">
<title>Node179&#45;&gt;Node181</title>
<path fill="none" stroke="#8b1a1a" d="M84.2787,-367.7462C103.6449,-372.984 125.9218,-379.0091 144.0573,-383.9141"/>
<polygon fill="#8b1a1a" stroke="#8b1a1a" points="85.0211,-364.3213 74.4541,-365.089 83.1934,-371.0785 85.0211,-364.3213"/>
</g>
<!-- Node182 -->
<g id="node4" class="node">
<title>Node182</title>
<g id="a_node4"><a xlink:href="class_o_s_tree_object_missing.html" target="_top" xlink:title="Thrown by GetObject when the object requested is not present in the repository. ">
<polygon fill="#ffffff" stroke="#000000" points="123,-346 123,-365 236,-365 236,-346 123,-346"/>
<text text-anchor="middle" x="179.5" y="-353" font-family="Helvetica,sans-Serif" font-size="10.00" fill="#000000">OSTreeObjectMissing</text>
</a>
</g>
</g>
<!-- Node179&#45;&gt;Node182 -->
<g id="edge3" class="edge">
<title>Node179&#45;&gt;Node182</title>
<path fill="none" stroke="#8b1a1a" d="M88.1972,-355.5C99.4347,-355.5 111.4641,-355.5 122.9811,-355.5"/>
<polygon fill="#8b1a1a" stroke="#8b1a1a" points="88.1371,-352.0001 78.1371,-355.5 88.137,-359.0001 88.1371,-352.0001"/>
</g>
<!-- Node183 -->
<g id="node5" class="node">
<title>Node183</title>
<g id="a_node5"><a xlink:title="STL class. ">
<polygon fill="#ffffff" stroke="#bfbfbf" points="139,-308 139,-327 220,-327 220,-308 139,-308"/>
<text text-anchor="middle" x="179.5" y="-315" font-family="Helvetica,sans-Serif" font-size="10.00" fill="#000000">std::logic_error</text>
</a>
</g>
</g>
<!-- Node179&#45;&gt;Node183 -->
<g id="edge4" class="edge">
<title>Node179&#45;&gt;Node183</title>
<path fill="none" stroke="#191970" d="M84.2787,-343.2538C103.6449,-338.016 125.9218,-331.9909 144.0573,-327.0859"/>
<polygon fill="#191970" stroke="#191970" points="83.1934,-339.9215 74.4541,-345.911 85.0211,-346.6787 83.1934,-339.9215"/>
</g>
<!-- Node200 -->
<g id="node22" class="node">
<title>Node200</title>
<g id="a_node22"><a xlink:title="STL class. ">
<polygon fill="#ffffff" stroke="#bfbfbf" points="133,-156 133,-175 226,-175 226,-156 133,-156"/>
<text text-anchor="middle" x="179.5" y="-163" font-family="Helvetica,sans-Serif" font-size="10.00" fill="#000000">std::runtime_error</text>
</a>
</g>
</g>
<!-- Node179&#45;&gt;Node200 -->
<g id="edge21" class="edge">
<title>Node179&#45;&gt;Node200</title>
<path fill="none" stroke="#191970" d="M52.3575,-337.4365C81.4464,-298.0992 149.7136,-205.7806 172.1854,-175.3917"/>
<polygon fill="#191970" stroke="#191970" points="49.2921,-335.6952 46.1606,-345.8167 54.9205,-339.8572 49.2921,-335.6952"/>
</g>
<!-- Node184 -->
<g id="node6" class="node">
<title>Node184</title>
<g id="a_node6"><a xlink:href="class_fatal_exception.html" target="_top" xlink:title="FatalException">
<polygon fill="#ffffff" stroke="#000000" points="306,-365 306,-384 388,-384 388,-365 306,-365"/>
<text text-anchor="middle" x="347" y="-372" font-family="Helvetica,sans-Serif" font-size="10.00" fill="#000000">FatalException</text>
</a>
</g>
</g>
<!-- Node183&#45;&gt;Node184 -->
<g id="edge5" class="edge">
<title>Node183&#45;&gt;Node184</title>
<path fill="none" stroke="#191970" d="M226.9398,-330.0161C233.0822,-331.9988 239.2365,-334.1714 245,-336.5 261.7743,-343.2773 264.2188,-348.7397 281,-355.5 289.848,-359.0644 299.6113,-362.2565 308.8538,-364.961"/>
<polygon fill="#191970" stroke="#191970" points="227.9424,-326.6627 217.3551,-327.0618 225.8804,-333.3522 227.9424,-326.6627"/>
</g>
<!-- Node185 -->
<g id="node7" class="node">
<title>Node185</title>
<g id="a_node7"><a xlink:href="class_not_implemented_exception.html" target="_top" xlink:title="NotImplementedException">
<polygon fill="#ffffff" stroke="#000000" points="281,-327 281,-346 413,-346 413,-327 281,-327"/>
<text text-anchor="middle" x="347" y="-334" font-family="Helvetica,sans-Serif" font-size="10.00" fill="#000000">NotImplementedException</text>
</a>
</g>
</g>
<!-- Node183&#45;&gt;Node185 -->
<g id="edge6" class="edge">
<title>Node183&#45;&gt;Node185</title>
<path fill="none" stroke="#191970" d="M230.1922,-323.2502C246.0911,-325.0536 263.8833,-327.0718 280.6943,-328.9788"/>
<polygon fill="#191970" stroke="#191970" points="230.3779,-319.7489 220.0471,-322.0994 229.5888,-326.7043 230.3779,-319.7489"/>
</g>
<!-- Node186 -->
<g id="node8" class="node">
<title>Node186</title>
<g id="a_node8"><a xlink:href="class_uptane_1_1_exception.html" target="_top" xlink:title="Uptane::Exception">
<polygon fill="#ffffff" stroke="#000000" points="298,-289 298,-308 396,-308 396,-289 298,-289"/>
<text text-anchor="middle" x="347" y="-296" font-family="Helvetica,sans-Serif" font-size="10.00" fill="#000000">Uptane::Exception</text>
</a>
</g>
</g>
<!-- Node183&#45;&gt;Node186 -->
<g id="edge7" class="edge">
<title>Node183&#45;&gt;Node186</title>
<path fill="none" stroke="#191970" d="M230.2695,-311.7411C251.718,-309.3081 276.601,-306.4856 297.8692,-304.073"/>
<polygon fill="#191970" stroke="#191970" points="229.5888,-308.2957 220.0471,-312.9006 230.3779,-315.2511 229.5888,-308.2957"/>
</g>
<!-- Node187 -->
<g id="node9" class="node">
<title>Node187</title>
<g id="a_node9"><a xlink:href="class_uptane_1_1_bad_ecu_id.html" target="_top" xlink:title="Uptane::BadEcuId">
<polygon fill="#ffffff" stroke="#000000" points="475,-517 475,-536 572,-536 572,-517 475,-517"/>
<text text-anchor="middle" x="523.5" y="-524" font-family="Helvetica,sans-Serif" font-size="10.00" fill="#000000">Uptane::BadEcuId</text>
</a>
</g>
</g>
<!-- Node186&#45;&gt;Node187 -->
<g id="edge8" class="edge">
<title>Node186&#45;&gt;Node187</title>
<path fill="none" stroke="#191970" d="M404.8888,-310.6144C407.8574,-312.5845 410.5985,-314.864 413,-317.5 470.8815,-381.0342 390.1536,-444.8585 449,-507.5 455.8544,-514.7964 465.0869,-519.4484 474.7158,-522.3791"/>
<polygon fill="#191970" stroke="#191970" points="406.4783,-307.4952 396.0133,-305.8415 403.1629,-313.6603 406.4783,-307.4952"/>
</g>
<!-- Node188 -->
<g id="node10" class="node">
<title>Node188</title>
<g id="a_node10"><a xlink:href="class_uptane_1_1_bad_key_id.html" target="_top" xlink:title="Uptane::BadKeyId">
<polygon fill="#ffffff" stroke="#000000" points="475,-479 475,-498 572,-498 572,-479 475,-479"/>
<text text-anchor="middle" x="523.5" y="-486" font-family="Helvetica,sans-Serif" font-size="10.00" fill="#000000">Uptane::BadKeyId</text>
</a>
</g>
</g>
<!-- Node186&#45;&gt;Node188 -->
<g id="edge9" class="edge">
<title>Node186&#45;&gt;Node188</title>
<path fill="none" stroke="#191970" d="M405.1726,-311.0187C408.0143,-312.893 410.6551,-315.0404 413,-317.5 460.9048,-367.7483 400.3323,-419.9903 449,-469.5 456.0179,-476.6393 465.3181,-481.2262 474.961,-484.1435"/>
<polygon fill="#191970" stroke="#191970" points="406.6066,-307.8163 396.1395,-306.1762 403.2993,-313.9857 406.6066,-307.8163"/>
</g>
<!-- Node189 -->
<g id="node11" class="node">
<title>Node189</title>
<g id="a_node11"><a xlink:href="class_uptane_1_1_expired_metadata.html" target="_top" xlink:title="Uptane::ExpiredMetadata">
<polygon fill="#ffffff" stroke="#000000" points="459.5,-441 459.5,-460 587.5,-460 587.5,-441 459.5,-441"/>
<text text-anchor="middle" x="523.5" y="-448" font-family="Helvetica,sans-Serif" font-size="10.00" fill="#000000">Uptane::ExpiredMetadata</text>
</a>
</g>
</g>
<!-- Node186&#45;&gt;Node189 -->
<g id="edge10" class="edge">
<title>Node186&#45;&gt;Node189</title>
<path fill="none" stroke="#191970" d="M405.1149,-311.3224C407.9519,-313.1217 410.6092,-315.1696 413,-317.5 451.0481,-354.5871 410.3891,-394.9991 449,-431.5 453.0739,-435.3513 457.8164,-438.4503 462.8983,-440.9402"/>
<polygon fill="#191970" stroke="#191970" points="406.6354,-308.1679 396.1518,-306.6361 403.392,-314.3711 406.6354,-308.1679"/>
</g>
<!-- Node190 -->
<g id="node12" class="node">
<title>Node190</title>
<g id="a_node12"><a xlink:href="class_uptane_1_1_illegal_rsa_key_size.html" target="_top" xlink:title="Uptane::IllegalRsaKeySize">
<polygon fill="#ffffff" stroke="#000000" points="456.5,-403 456.5,-422 590.5,-422 590.5,-403 456.5,-403"/>
<text text-anchor="middle" x="523.5" y="-410" font-family="Helvetica,sans-Serif" font-size="10.00" fill="#000000">Uptane::IllegalRsaKeySize</text>
</a>
</g>
</g>
<!-- Node186&#45;&gt;Node190 -->
<g id="edge11" class="edge">
<title>Node186&#45;&gt;Node190</title>
<path fill="none" stroke="#191970" d="M405.3265,-312.0616C408.0435,-313.6752 410.6234,-315.4804 413,-317.5 441.4812,-341.7025 420.152,-369.7359 449,-393.5 453.6361,-397.3191 458.9444,-400.3826 464.5452,-402.8382"/>
<polygon fill="#191970" stroke="#191970" points="406.7741,-308.8723 396.2643,-307.5326 403.6447,-315.1339 406.7741,-308.8723"/>
</g>
<!-- Node191 -->
<g id="node13" class="node">
<title>Node191</title>
<g id="a_node13"><a xlink:href="class_uptane_1_1_illegal_threshold.html" target="_top" xlink:title="Uptane::IllegalThreshold">
<polygon fill="#ffffff" stroke="#000000" points="462.5,-365 462.5,-384 584.5,-384 584.5,-365 462.5,-365"/>
<text text-anchor="middle" x="523.5" y="-372" font-family="Helvetica,sans-Serif" font-size="10.00" fill="#000000">Uptane::IllegalThreshold</text>
</a>
</g>
</g>
<!-- Node186&#45;&gt;Node191 -->
<g id="edge12" class="edge">
<title>Node186&#45;&gt;Node191</title>
<path fill="none" stroke="#191970" d="M401.7064,-311.7021C405.6372,-313.4148 409.447,-315.3394 413,-317.5 432.8777,-329.5877 428.9398,-343.7177 449,-355.5 455.5605,-359.3533 462.8929,-362.4326 470.3282,-364.8915"/>
<polygon fill="#191970" stroke="#191970" points="402.968,-308.4375 392.3792,-308.0789 400.4332,-314.9624 402.968,-308.4375"/>
</g>
<!-- Node192 -->
<g id="node14" class="node">
<title>Node192</title>
<g id="a_node14"><a xlink:href="class_uptane_1_1_invalid_metadata.html" target="_top" xlink:title="Uptane::InvalidMetadata">
<polygon fill="#ffffff" stroke="#000000" points="462,-327 462,-346 585,-346 585,-327 462,-327"/>
<text text-anchor="middle" x="523.5" y="-334" font-family="Helvetica,sans-Serif" font-size="10.00" fill="#000000">Uptane::InvalidMetadata</text>
</a>
</g>
</g>
<!-- Node186&#45;&gt;Node192 -->
<g id="edge13" class="edge">
<title>Node186&#45;&gt;Node192</title>
<path fill="none" stroke="#191970" d="M401.5876,-310.2526C426.5447,-315.6258 455.7268,-321.9086 479.2819,-326.9799"/>
<polygon fill="#191970" stroke="#191970" points="402.0511,-306.7722 391.5384,-308.089 400.5777,-313.6154 402.0511,-306.7722"/>
</g>
<!-- Node193 -->
<g id="node15" class="node">
<title>Node193</title>
<g id="a_node15"><a xlink:href="class_uptane_1_1_missing_repo.html" target="_top" xlink:title="Uptane::MissingRepo">
<polygon fill="#ffffff" stroke="#000000" points="468,-289 468,-308 579,-308 579,-289 468,-289"/>
<text text-anchor="middle" x="523.5" y="-296" font-family="Helvetica,sans-Serif" font-size="10.00" fill="#000000">Uptane::MissingRepo</text>
</a>
</g>
</g>
<!-- Node186&#45;&gt;Node193 -->
<g id="edge14" class="edge">
<title>Node186&#45;&gt;Node193</title>
<path fill="none" stroke="#191970" d="M406.3167,-298.5C426.1593,-298.5 448.1963,-298.5 467.7565,-298.5"/>
<polygon fill="#191970" stroke="#191970" points="406.1651,-295.0001 396.1651,-298.5 406.1651,-302.0001 406.1651,-295.0001"/>
</g>
<!-- Node194 -->
<g id="node16" class="node">
<title>Node194</title>
<g id="a_node16"><a xlink:href="class_uptane_1_1_miss_match_target.html" target="_top" xlink:title="Uptane::MissMatchTarget">
<polygon fill="#ffffff" stroke="#000000" points="458.5,-251 458.5,-270 588.5,-270 588.5,-251 458.5,-251"/>
<text text-anchor="middle" x="523.5" y="-258" font-family="Helvetica,sans-Serif" font-size="10.00" fill="#000000">Uptane::MissMatchTarget</text>
</a>
</g>
</g>
<!-- Node186&#45;&gt;Node194 -->
<g id="edge15" class="edge">
<title>Node186&#45;&gt;Node194</title>
<path fill="none" stroke="#191970" d="M401.5876,-286.7474C426.5447,-281.3742 455.7268,-275.0914 479.2819,-270.0201"/>
<polygon fill="#191970" stroke="#191970" points="400.5777,-283.3846 391.5384,-288.911 402.0511,-290.2278 400.5777,-283.3846"/>
</g>
<!-- Node195 -->
<g id="node17" class="node">
<title>Node195</title>
<g id="a_node17"><a xlink:href="class_uptane_1_1_non_unique_signatures.html" target="_top" xlink:title="Uptane::NonUniqueSignatures">
<polygon fill="#ffffff" stroke="#000000" points="449,-213 449,-232 598,-232 598,-213 449,-213"/>
<text text-anchor="middle" x="523.5" y="-220" font-family="Helvetica,sans-Serif" font-size="10.00" fill="#000000">Uptane::NonUniqueSignatures</text>
</a>
</g>
</g>
<!-- Node186&#45;&gt;Node195 -->
<g id="edge16" class="edge">
<title>Node186&#45;&gt;Node195</title>
<path fill="none" stroke="#191970" d="M401.7064,-285.2979C405.6372,-283.5852 409.447,-281.6606 413,-279.5 432.8777,-267.4123 428.9398,-253.2823 449,-241.5 455.5605,-237.6467 462.8929,-234.5674 470.3282,-232.1085"/>
<polygon fill="#191970" stroke="#191970" points="400.4332,-282.0376 392.3792,-288.9211 402.968,-288.5625 400.4332,-282.0376"/>
</g>
<!-- Node196 -->
<g id="node18" class="node">
<title>Node196</title>
<g id="a_node18"><a xlink:href="class_uptane_1_1_oversized_target.html" target="_top" xlink:title="Uptane::OversizedTarget">
<polygon fill="#ffffff" stroke="#000000" points="460.5,-175 460.5,-194 586.5,-194 586.5,-175 460.5,-175"/>
<text text-anchor="middle" x="523.5" y="-182" font-family="Helvetica,sans-Serif" font-size="10.00" fill="#000000">Uptane::OversizedTarget</text>
</a>
</g>
</g>
<!-- Node186&#45;&gt;Node196 -->
<g id="edge17" class="edge">
<title>Node186&#45;&gt;Node196</title>
<path fill="none" stroke="#191970" d="M405.3265,-284.9384C408.0435,-283.3248 410.6234,-281.5196 413,-279.5 441.4812,-255.2975 420.152,-227.2641 449,-203.5 453.6361,-199.6809 458.9444,-196.6174 464.5452,-194.1618"/>
<polygon fill="#191970" stroke="#191970" points="403.6447,-281.8661 396.2643,-289.4674 406.7741,-288.1277 403.6447,-281.8661"/>
</g>
<!-- Node197 -->
<g id="node19" class="node">
<title>Node197</title>
<g id="a_node19"><a xlink:href="class_uptane_1_1_security_exception.html" target="_top" xlink:title="Uptane::SecurityException">
<polygon fill="#ffffff" stroke="#000000" points="456.5,-137 456.5,-156 590.5,-156 590.5,-137 456.5,-137"/>
<text text-anchor="middle" x="523.5" y="-144" font-family="Helvetica,sans-Serif" font-size="10.00" fill="#000000">Uptane::SecurityException</text>
</a>
</g>
</g>
<!-- Node186&#45;&gt;Node197 -->
<g id="edge18" class="edge">
<title>Node186&#45;&gt;Node197</title>
<path fill="none" stroke="#191970" d="M405.1149,-285.6776C407.9519,-283.8783 410.6092,-281.8304 413,-279.5 451.0481,-242.4129 410.3891,-202.0009 449,-165.5 453.0739,-161.6487 457.8164,-158.5497 462.8983,-156.0598"/>
<polygon fill="#191970" stroke="#191970" points="403.392,-282.6289 396.1518,-290.3639 406.6354,-288.8321 403.392,-282.6289"/>
</g>
<!-- Node198 -->
<g id="node20" class="node">
<title>Node198</title>
<g id="a_node20"><a xlink:href="class_uptane_1_1_target_hash_mismatch.html" target="_top" xlink:title="Uptane::TargetHashMismatch">
<polygon fill="#ffffff" stroke="#000000" points="449.5,-99 449.5,-118 597.5,-118 597.5,-99 449.5,-99"/>
<text text-anchor="middle" x="523.5" y="-106" font-family="Helvetica,sans-Serif" font-size="10.00" fill="#000000">Uptane::TargetHashMismatch</text>
</a>
</g>
</g>
<!-- Node186&#45;&gt;Node198 -->
<g id="edge19" class="edge">
<title>Node186&#45;&gt;Node198</title>
<path fill="none" stroke="#191970" d="M405.1726,-285.9813C408.0143,-284.107 410.6551,-281.9596 413,-279.5 460.9048,-229.2517 400.3323,-177.0097 449,-127.5 452.7429,-123.6924 457.1349,-120.6107 461.882,-118.1212"/>
<polygon fill="#191970" stroke="#191970" points="403.2993,-283.0143 396.1395,-290.8238 406.6066,-289.1837 403.2993,-283.0143"/>
</g>
<!-- Node199 -->
<g id="node21" class="node">
<title>Node199</title>
<g id="a_node21"><a xlink:href="class_uptane_1_1_unmet_threshold.html" target="_top" xlink:title="Uptane::UnmetThreshold">
<polygon fill="#ffffff" stroke="#000000" points="460.5,-61 460.5,-80 586.5,-80 586.5,-61 460.5,-61"/>
<text text-anchor="middle" x="523.5" y="-68" font-family="Helvetica,sans-Serif" font-size="10.00" fill="#000000">Uptane::UnmetThreshold</text>
</a>
</g>
</g>
<!-- Node186&#45;&gt;Node199 -->
<g id="edge20" class="edge">
<title>Node186&#45;&gt;Node199</title>
<path fill="none" stroke="#191970" d="M404.8888,-286.3856C407.8574,-284.4155 410.5985,-282.136 413,-279.5 470.8815,-215.9658 390.1536,-152.1415 449,-89.5 452.5643,-85.7059 456.7716,-82.6268 461.3433,-80.1329"/>
<polygon fill="#191970" stroke="#191970" points="403.1629,-283.3397 396.0133,-291.1585 406.4783,-289.5048 403.1629,-283.3397"/>
</g>
<!-- Node201 -->
<g id="node23" class="node">
<title>Node201</title>
<g id="a_node23"><a xlink:href="class_bad_credentials_archive.html" target="_top" xlink:title="BadCredentialsArchive">
<polygon fill="#ffffff" stroke="#000000" points="289,-251 289,-270 405,-270 405,-251 289,-251"/>
<text text-anchor="middle" x="347" y="-258" font-family="Helvetica,sans-Serif" font-size="10.00" fill="#000000">BadCredentialsArchive</text>
</a>
</g>
</g>
<!-- Node200&#45;&gt;Node201 -->
<g id="edge22" class="edge">
<title>Node200&#45;&gt;Node201</title>
<path fill="none" stroke="#191970" d="M197.2704,-182.0095C216.5492,-199.1137 248.8921,-225.5319 281,-241.5 288.5801,-245.2698 297.0324,-248.41 305.2899,-250.9799"/>
<polygon fill="#191970" stroke="#191970" points="199.3798,-179.1984 189.613,-175.0922 194.6874,-184.3928 199.3798,-179.1984"/>
</g>
<!-- Node202 -->
<g id="node24" class="node">
<title>Node202</title>
<g id="a_node24"><a xlink:href="class_bad_credentials_content.html" target="_top" xlink:title="BadCredentialsContent">
<polygon fill="#ffffff" stroke="#000000" points="288,-213 288,-232 406,-232 406,-213 288,-213"/>
<text text-anchor="middle" x="347" y="-220" font-family="Helvetica,sans-Serif" font-size="10.00" fill="#000000">BadCredentialsContent</text>
</a>
</g>
</g>
<!-- Node200&#45;&gt;Node202 -->
<g id="edge23" class="edge">
<title>Node200&#45;&gt;Node202</title>
<path fill="none" stroke="#191970" d="M212.952,-178.7734C232.6306,-186.3931 258.0754,-195.9217 281,-203.5 290.9626,-206.7934 301.8747,-210.0677 311.9064,-212.9469"/>
<polygon fill="#191970" stroke="#191970" points="214.1,-175.4644 203.5116,-175.0934 211.5576,-181.9864 214.1,-175.4644"/>
</g>
<!-- Node203 -->
<g id="node25" class="node">
<title>Node203</title>
<g id="a_node25"><a xlink:href="class_bad_credentials_json.html" target="_top" xlink:title="BadCredentialsJson">
<polygon fill="#ffffff" stroke="#000000" points="295,-175 295,-194 399,-194 399,-175 295,-175"/>
<text text-anchor="middle" x="347" y="-182" font-family="Helvetica,sans-Serif" font-size="10.00" fill="#000000">BadCredentialsJson</text>
</a>
</g>
</g>
<!-- Node200&#45;&gt;Node203 -->
<g id="edge24" class="edge">
<title>Node200&#45;&gt;Node203</title>
<path fill="none" stroke="#191970" d="M236.1906,-171.9306C255.2224,-174.0894 276.3429,-176.4852 294.9971,-178.6012"/>
<polygon fill="#191970" stroke="#191970" points="236.4889,-168.442 226.1581,-170.7926 235.6999,-175.3974 236.4889,-168.442"/>
</g>
<!-- Node204 -->
<g id="node26" class="node">
<title>Node204</title>
<g id="a_node26"><a xlink:href="class_s_q_l_exception.html" target="_top" xlink:title="SQLException">
<polygon fill="#ffffff" stroke="#000000" points="307,-137 307,-156 387,-156 387,-137 307,-137"/>
<text text-anchor="middle" x="347" y="-144" font-family="Helvetica,sans-Serif" font-size="10.00" fill="#000000">SQLException</text>
</a>
</g>
</g>
<!-- Node200&#45;&gt;Node204 -->
<g id="edge25" class="edge">
<title>Node200&#45;&gt;Node204</title>
<path fill="none" stroke="#191970" d="M236.2228,-159.0658C259.412,-156.4354 285.6977,-153.4537 306.843,-151.0551"/>
<polygon fill="#191970" stroke="#191970" points="235.6999,-155.6026 226.1581,-160.2074 236.4889,-162.558 235.6999,-155.6026"/>
</g>
<!-- Node205 -->
<g id="node27" class="node">
<title>Node205</title>
<g id="a_node27"><a xlink:href="class_storage_exception.html" target="_top" xlink:title="StorageException">
<polygon fill="#ffffff" stroke="#000000" points="300,-99 300,-118 394,-118 394,-99 300,-99"/>
<text text-anchor="middle" x="347" y="-106" font-family="Helvetica,sans-Serif" font-size="10.00" fill="#000000">StorageException</text>
</a>
</g>
</g>
<!-- Node200&#45;&gt;Node205 -->
<g id="edge26" class="edge">
<title>Node200&#45;&gt;Node205</title>
<path fill="none" stroke="#191970" d="M212.952,-152.2266C232.6306,-144.6069 258.0754,-135.0783 281,-127.5 290.9626,-124.2066 301.8747,-120.9323 311.9064,-118.0531"/>
<polygon fill="#191970" stroke="#191970" points="211.5576,-149.0136 203.5116,-155.9066 214.1,-155.5356 211.5576,-149.0136"/>
</g>
<!-- Node206 -->
<g id="node28" class="node">
<title>Node206</title>
<g id="a_node28"><a xlink:href="class_storage_target_r_handle_1_1_read_error.html" target="_top" xlink:title="StorageTargetRHandle\l::ReadError">
<polygon fill="#ffffff" stroke="#000000" points="289,-49.5 289,-79.5 405,-79.5 405,-49.5 289,-49.5"/>
<text text-anchor="start" x="297" y="-67.5" font-family="Helvetica,sans-Serif" font-size="10.00" fill="#000000">StorageTargetRHandle</text>
<text text-anchor="middle" x="347" y="-56.5" font-family="Helvetica,sans-Serif" font-size="10.00" fill="#000000">::ReadError</text>
</a>
</g>
</g>
<!-- Node200&#45;&gt;Node206 -->
<g id="edge27" class="edge">
<title>Node200&#45;&gt;Node206</title>
<path fill="none" stroke="#191970" d="M197.8541,-149.2377C217.3914,-132.5529 249.7398,-106.6751 281,-89.5 287.658,-85.8419 294.9623,-82.4894 302.2092,-79.5089"/>
<polygon fill="#191970" stroke="#191970" points="195.3342,-146.79 190.0673,-155.983 199.9174,-152.081 195.3342,-146.79"/>
</g>
<!-- Node207 -->
<g id="node29" class="node">
<title>Node207</title>
<g id="a_node29"><a xlink:href="class_storage_target_w_handle_1_1_write_error.html" target="_top" xlink:title="StorageTargetWHandle\l::WriteError">
<polygon fill="#ffffff" stroke="#000000" points="287.5,-.5 287.5,-30.5 406.5,-30.5 406.5,-.5 287.5,-.5"/>
<text text-anchor="start" x="295.5" y="-18.5" font-family="Helvetica,sans-Serif" font-size="10.00" fill="#000000">StorageTargetWHandle</text>
<text text-anchor="middle" x="347" y="-7.5" font-family="Helvetica,sans-Serif" font-size="10.00" fill="#000000">::WriteError</text>
</a>
</g>
</g>
<!-- Node200&#45;&gt;Node207 -->
<g id="edge28" class="edge">
<title>Node200&#45;&gt;Node207</title>
<path fill="none" stroke="#191970" d="M190.0233,-147.1369C206.3013,-120.231 240.0257,-70.0894 281,-40.5 286.2647,-36.6981 292.1784,-33.3989 298.2467,-30.5571"/>
<polygon fill="#191970" stroke="#191970" points="186.9089,-145.5275 184.8343,-155.9172 192.9352,-149.0889 186.9089,-145.5275"/>
</g>
</g>
</svg>
