<?xml version="1.0" encoding="UTF-8" standalone="no"?>
<!DOCTYPE svg PUBLIC "-//W3C//DTD SVG 1.1//EN"
 "http://www.w3.org/Graphics/SVG/1.1/DTD/svg11.dtd">
<!-- Generated by graphviz version 2.38.0 (20140413.2041)
 -->
<!-- Title: Graphical Class Hierarchy Pages: 1 -->
<svg width="242pt" height="104pt"
 viewBox="0.00 0.00 242.00 104.00" xmlns="http://www.w3.org/2000/svg" xmlns:xlink="http://www.w3.org/1999/xlink">
<g id="graph0" class="graph" transform="scale(1 1) rotate(0) translate(4 100)">
<title>Graphical Class Hierarchy</title>
<polygon fill="white" stroke="none" points="-4,4 -4,-100 238,-100 238,4 -4,4"/>
<!-- Node0 -->
<g id="node1" class="node"><title>Node0</title>
<g id="a_node1"><a xlink:href="class_base_config.html" target="_top" xlink:title="BaseConfig">
<polygon fill="white" stroke="black" points="0,-38.5 0,-57.5 68,-57.5 68,-38.5 0,-38.5"/>
<text text-anchor="middle" x="34" y="-45.5" font-family="Helvetica,sans-Serif" font-size="10.00">BaseConfig</text>
</a>
</g>
</g>
<!-- Node1 -->
<g id="node2" class="node"><title>Node1</title>
<g id="a_node2"><a xlink:href="class_aktualizr_info_config.html" target="_top" xlink:title="AktualizrInfoConfig">
<polygon fill="white" stroke="black" points="119,-76.5 119,-95.5 219,-95.5 219,-76.5 119,-76.5"/>
<text text-anchor="middle" x="169" y="-83.5" font-family="Helvetica,sans-Serif" font-size="10.00">AktualizrInfoConfig</text>
</a>
</g>
</g>
<!-- Node0&#45;&gt;Node1 -->
<g id="edge1" class="edge"><title>Node0&#45;&gt;Node1</title>
<path fill="none" stroke="midnightblue" d="M77.851,-60.2431C96.291,-65.5117 117.52,-71.5773 134.744,-76.4983"/>
<polygon fill="midnightblue" stroke="midnightblue" points="78.7952,-56.8729 68.2184,-57.491 76.8721,-63.6036 78.7952,-56.8729"/>
</g>
<!-- Node2 -->
<g id="node3" class="node"><title>Node2</title>
<g id="a_node3"><a xlink:href="class_aktualizr_secondary_config.html" target="_top" xlink:title="AktualizrSecondaryConfig">
<polygon fill="white" stroke="black" points="104,-38.5 104,-57.5 234,-57.5 234,-38.5 104,-38.5"/>
<text text-anchor="middle" x="169" y="-45.5" font-family="Helvetica,sans-Serif" font-size="10.00">AktualizrSecondaryConfig</text>
</a>
</g>
</g>
<!-- Node0&#45;&gt;Node2 -->
<g id="edge2" class="edge"><title>Node0&#45;&gt;Node2</title>
<path fill="none" stroke="midnightblue" d="M78.257,-48C86.4444,-48 95.1694,-48 103.841,-48"/>
<polygon fill="midnightblue" stroke="midnightblue" points="78.2185,-44.5001 68.2184,-48 78.2184,-51.5001 78.2185,-44.5001"/>
</g>
<!-- Node3 -->
<g id="node4" class="node"><title>Node3</title>
<g id="a_node4"><a xlink:href="class_config.html" target="_top" xlink:title="Configuration object for an aktualizr instance running on a primary ECU. ">
<polygon fill="white" stroke="black" points="146.5,-0.5 146.5,-19.5 191.5,-19.5 191.5,-0.5 146.5,-0.5"/>
<text text-anchor="middle" x="169" y="-7.5" font-family="Helvetica,sans-Serif" font-size="10.00">Config</text>
</a>
</g>
</g>
<!-- Node0&#45;&gt;Node3 -->
<g id="edge3" class="edge"><title>Node0&#45;&gt;Node3</title>
<path fill="none" stroke="midnightblue" d="M78.0423,-35.7022C100.892,-29.1737 127.98,-21.4343 146.417,-16.1664"/>
<polygon fill="midnightblue" stroke="midnightblue" points="76.8721,-32.3964 68.2184,-38.509 78.7952,-39.1271 76.8721,-32.3964"/>
</g>
</g>
</svg>
