<?xml version="1.0" encoding="UTF-8" standalone="no"?>
<!DOCTYPE svg PUBLIC "-//W3C//DTD SVG 1.1//EN"
 "http://www.w3.org/Graphics/SVG/1.1/DTD/svg11.dtd">
<!-- Generated by graphviz version 2.38.0 (20140413.2041)
 -->
<!-- Title: Graphical Class Hierarchy Pages: 1 -->
<svg width="303pt" height="370pt"
 viewBox="0.00 0.00 303.00 370.00" xmlns="http://www.w3.org/2000/svg" xmlns:xlink="http://www.w3.org/1999/xlink">
<g id="graph0" class="graph" transform="scale(1 1) rotate(0) translate(4 366)">
<title>Graphical Class Hierarchy</title>
<polygon fill="white" stroke="none" points="-4,4 -4,-366 299,-366 299,4 -4,4"/>
<!-- Node0 -->
<g id="node1" class="node"><title>Node0</title>
<g id="a_node1"><a xlink:href="classevent_1_1_base_event.html" target="_top" xlink:title="Base class for all event objects. ">
<polygon fill="white" stroke="black" points="0,-171.5 0,-190.5 95,-190.5 95,-171.5 0,-171.5"/>
<text text-anchor="middle" x="47.5" y="-178.5" font-family="Helvetica,sans-Serif" font-size="10.00">event::BaseEvent</text>
</a>
</g>
</g>
<!-- Node1 -->
<g id="node2" class="node"><title>Node1</title>
<g id="a_node2"><a xlink:href="classevent_1_1_campaign_check_complete.html" target="_top" xlink:title="event::CampaignCheckComplete">
<polygon fill="white" stroke="black" points="132.5,-342.5 132.5,-361.5 293.5,-361.5 293.5,-342.5 132.5,-342.5"/>
<text text-anchor="middle" x="213" y="-349.5" font-family="Helvetica,sans-Serif" font-size="10.00">event::CampaignCheckComplete</text>
</a>
</g>
</g>
<!-- Node0&#45;&gt;Node1 -->
<g id="edge1" class="edge"><title>Node0&#45;&gt;Node1</title>
<path fill="none" stroke="midnightblue" d="M53.4065,-200.345C62.7267,-232.989 86.1843,-298.792 131,-333 136.052,-336.856 141.76,-339.948 147.75,-342.424"/>
<polygon fill="midnightblue" stroke="midnightblue" points="56.7702,-199.376 50.7773,-190.639 50.0137,-201.206 56.7702,-199.376"/>
</g>
<!-- Node2 -->
<g id="node3" class="node"><title>Node2</title>
<g id="a_node3"><a xlink:href="classevent_1_1_download_complete.html" target="_top" xlink:title="The StartDownload command completed successfully. ">
<polygon fill="white" stroke="black" points="147,-304.5 147,-323.5 279,-323.5 279,-304.5 147,-304.5"/>
<text text-anchor="middle" x="213" y="-311.5" font-family="Helvetica,sans-Serif" font-size="10.00">event::DownloadComplete</text>
</a>
</g>
</g>
<!-- Node0&#45;&gt;Node2 -->
<g id="edge2" class="edge"><title>Node0&#45;&gt;Node2</title>
<path fill="none" stroke="midnightblue" d="M56.8438,-199.829C69.217,-225.485 94.9147,-270.976 131,-295 136.771,-298.842 143.226,-301.912 149.905,-304.363"/>
<polygon fill="midnightblue" stroke="midnightblue" points="60.0162,-198.35 52.6277,-190.757 53.6683,-201.3 60.0162,-198.35"/>
</g>
<!-- Node3 -->
<g id="node4" class="node"><title>Node3</title>
<g id="a_node4"><a xlink:href="classevent_1_1_download_progress_report.html" target="_top" xlink:title="event::DownloadProgressReport">
<polygon fill="white" stroke="black" points="134,-266.5 134,-285.5 292,-285.5 292,-266.5 134,-266.5"/>
<text text-anchor="middle" x="213" y="-273.5" font-family="Helvetica,sans-Serif" font-size="10.00">event::DownloadProgressReport</text>
</a>
</g>
</g>
<!-- Node0&#45;&gt;Node3 -->
<g id="edge3" class="edge"><title>Node0&#45;&gt;Node3</title>
<path fill="none" stroke="midnightblue" d="M62.5487,-198.381C77.6311,-215.858 103.201,-242.265 131,-257 138.274,-260.856 146.325,-263.937 154.446,-266.396"/>
<polygon fill="midnightblue" stroke="midnightblue" points="65.1339,-196.017 56.0233,-190.609 59.7729,-200.518 65.1339,-196.017"/>
</g>
<!-- Node4 -->
<g id="node5" class="node"><title>Node4</title>
<g id="a_node5"><a xlink:href="classevent_1_1_error.html" target="_top" xlink:title="An error occurred processing a command. ">
<polygon fill="white" stroke="black" points="179,-228.5 179,-247.5 247,-247.5 247,-228.5 179,-228.5"/>
<text text-anchor="middle" x="213" y="-235.5" font-family="Helvetica,sans-Serif" font-size="10.00">event::Error</text>
</a>
</g>
</g>
<!-- Node0&#45;&gt;Node4 -->
<g id="edge4" class="edge"><title>Node0&#45;&gt;Node4</title>
<path fill="none" stroke="midnightblue" d="M75.6077,-195.166C91.4372,-203.009 111.981,-212.464 131,-219 146.436,-224.305 164.027,-228.628 178.863,-231.803"/>
<polygon fill="midnightblue" stroke="midnightblue" points="76.9216,-191.909 66.4166,-190.532 73.7698,-198.159 76.9216,-191.909"/>
</g>
<!-- Node5 -->
<g id="node6" class="node"><title>Node5</title>
<g id="a_node6"><a xlink:href="classevent_1_1_fetch_meta_complete.html" target="_top" xlink:title="The FetchMeta command completed successfully. ">
<polygon fill="white" stroke="black" points="145.5,-190.5 145.5,-209.5 280.5,-209.5 280.5,-190.5 145.5,-190.5"/>
<text text-anchor="middle" x="213" y="-197.5" font-family="Helvetica,sans-Serif" font-size="10.00">event::FetchMetaComplete</text>
</a>
</g>
</g>
<!-- Node0&#45;&gt;Node5 -->
<g id="edge5" class="edge"><title>Node0&#45;&gt;Node5</title>
<path fill="none" stroke="midnightblue" d="M105.455,-187.619C118.329,-189.115 132.109,-190.716 145.343,-192.254"/>
<polygon fill="midnightblue" stroke="midnightblue" points="105.69,-184.122 95.3525,-186.445 104.882,-191.076 105.69,-184.122"/>
</g>
<!-- Node6 -->
<g id="node7" class="node"><title>Node6</title>
<g id="a_node7"><a xlink:href="classevent_1_1_install_complete.html" target="_top" xlink:title="The UptaneInstall command completed successfully. ">
<polygon fill="white" stroke="black" points="155.5,-152.5 155.5,-171.5 270.5,-171.5 270.5,-152.5 155.5,-152.5"/>
<text text-anchor="middle" x="213" y="-159.5" font-family="Helvetica,sans-Serif" font-size="10.00">event::InstallComplete</text>
</a>
</g>
</g>
<!-- Node0&#45;&gt;Node6 -->
<g id="edge6" class="edge"><title>Node0&#45;&gt;Node6</title>
<path fill="none" stroke="midnightblue" d="M105.685,-174.355C121.759,-172.487 139.229,-170.457 155.276,-168.592"/>
<polygon fill="midnightblue" stroke="midnightblue" points="104.882,-170.924 95.3525,-175.555 105.69,-177.878 104.882,-170.924"/>
</g>
<!-- Node7 -->
<g id="node8" class="node"><title>Node7</title>
<g id="a_node8"><a xlink:href="classevent_1_1_put_manifest_complete.html" target="_top" xlink:title="The PutManifest command completed successfully. ">
<polygon fill="white" stroke="black" points="142.5,-114.5 142.5,-133.5 283.5,-133.5 283.5,-114.5 142.5,-114.5"/>
<text text-anchor="middle" x="213" y="-121.5" font-family="Helvetica,sans-Serif" font-size="10.00">event::PutManifestComplete</text>
</a>
</g>
</g>
<!-- Node0&#45;&gt;Node7 -->
<g id="edge7" class="edge"><title>Node0&#45;&gt;Node7</title>
<path fill="none" stroke="midnightblue" d="M75.6077,-166.834C91.4372,-158.991 111.981,-149.536 131,-143 141.518,-139.385 153.037,-136.226 164.003,-133.575"/>
<polygon fill="midnightblue" stroke="midnightblue" points="73.7698,-163.841 66.4166,-171.468 76.9216,-170.091 73.7698,-163.841"/>
</g>
<!-- Node8 -->
<g id="node9" class="node"><title>Node8</title>
<g id="a_node9"><a xlink:href="classevent_1_1_send_device_data_complete.html" target="_top" xlink:title="The SendDeviceData command completed successfully. ">
<polygon fill="white" stroke="black" points="131.5,-76.5 131.5,-95.5 294.5,-95.5 294.5,-76.5 131.5,-76.5"/>
<text text-anchor="middle" x="213" y="-83.5" font-family="Helvetica,sans-Serif" font-size="10.00">event::SendDeviceDataComplete</text>
</a>
</g>
</g>
<!-- Node0&#45;&gt;Node8 -->
<g id="edge8" class="edge"><title>Node0&#45;&gt;Node8</title>
<path fill="none" stroke="midnightblue" d="M62.5487,-163.619C77.6311,-146.142 103.201,-119.735 131,-105 138.274,-101.144 146.325,-98.0633 154.446,-95.6037"/>
<polygon fill="midnightblue" stroke="midnightblue" points="59.7729,-161.482 56.0233,-171.391 65.1339,-165.983 59.7729,-161.482"/>
</g>
<!-- Node9 -->
<g id="node10" class="node"><title>Node9</title>
<g id="a_node10"><a xlink:href="classevent_1_1_update_available.html" target="_top" xlink:title="event::UpdateAvailable">
<polygon fill="white" stroke="black" points="154,-38.5 154,-57.5 272,-57.5 272,-38.5 154,-38.5"/>
<text text-anchor="middle" x="213" y="-45.5" font-family="Helvetica,sans-Serif" font-size="10.00">event::UpdateAvailable</text>
</a>
</g>
</g>
<!-- Node0&#45;&gt;Node9 -->
<g id="edge9" class="edge"><title>Node0&#45;&gt;Node9</title>
<path fill="none" stroke="midnightblue" d="M56.8438,-162.171C69.217,-136.515 94.9147,-91.0242 131,-67 137.853,-62.4373 145.67,-58.9645 153.682,-56.3225"/>
<polygon fill="midnightblue" stroke="midnightblue" points="53.6683,-160.7 52.6277,-171.243 60.0162,-163.65 53.6683,-160.7"/>
</g>
<!-- Node10 -->
<g id="node11" class="node"><title>Node10</title>
<g id="a_node11"><a xlink:href="classevent_1_1_uptane_timestamp_updated.html" target="_top" xlink:title="event::UptaneTimestampUpdated">
<polygon fill="white" stroke="black" points="131,-0.5 131,-19.5 295,-19.5 295,-0.5 131,-0.5"/>
<text text-anchor="middle" x="213" y="-7.5" font-family="Helvetica,sans-Serif" font-size="10.00">event::UptaneTimestampUpdated</text>
</a>
</g>
</g>
<!-- Node0&#45;&gt;Node10 -->
<g id="edge10" class="edge"><title>Node0&#45;&gt;Node10</title>
<path fill="none" stroke="midnightblue" d="M53.4065,-161.655C62.7267,-129.011 86.1843,-63.2082 131,-29 136.052,-25.1438 141.76,-22.052 147.75,-19.5755"/>
<polygon fill="midnightblue" stroke="midnightblue" points="50.0137,-160.794 50.7773,-171.361 56.7702,-162.624 50.0137,-160.794"/>
</g>
</g>
</svg>
