<?xml version="1.0" encoding="UTF-8" standalone="no"?>
<!DOCTYPE svg PUBLIC "-//W3C//DTD SVG 1.1//EN"
 "http://www.w3.org/Graphics/SVG/1.1/DTD/svg11.dtd">
<!-- Generated by graphviz version 2.38.0 (20140413.2041)
 -->
<!-- Title: Graphical Class Hierarchy Pages: 1 -->
<svg width="313pt" height="66pt"
 viewBox="0.00 0.00 313.00 66.00" xmlns="http://www.w3.org/2000/svg" xmlns:xlink="http://www.w3.org/1999/xlink">
<g id="graph0" class="graph" transform="scale(1 1) rotate(0) translate(4 62)">
<title>Graphical Class Hierarchy</title>
<polygon fill="white" stroke="none" points="-4,4 -4,-62 309,-62 309,4 -4,4"/>
<!-- Node0 -->
<g id="node1" class="node"><title>Node0</title>
<g id="a_node1"><a xlink:href="class_i_nv_storage.html" target="_top" xlink:title="INvStorage">
<polygon fill="white" stroke="black" points="0,-19.5 0,-38.5 66,-38.5 66,-19.5 0,-19.5"/>
<text text-anchor="middle" x="33" y="-26.5" font-family="Helvetica,sans-Serif" font-size="10.00">INvStorage</text>
</a>
</g>
</g>
<!-- Node1 -->
<g id="node2" class="node"><title>Node1</title>
<g id="a_node2"><a xlink:href="class_f_s_storage.html" target="_top" xlink:title="FSStorage">
<polygon fill="white" stroke="black" points="105.5,-38.5 105.5,-57.5 168.5,-57.5 168.5,-38.5 105.5,-38.5"/>
<text text-anchor="middle" x="137" y="-45.5" font-family="Helvetica,sans-Serif" font-size="10.00">FSStorage</text>
</a>
</g>
</g>
<!-- Node0&#45;&gt;Node1 -->
<g id="edge1" class="edge"><title>Node0&#45;&gt;Node1</title>
<path fill="none" stroke="midnightblue" d="M76.2184,-36.8642C85.9749,-38.6816 96.1735,-40.5813 105.327,-42.2865"/>
<polygon fill="midnightblue" stroke="midnightblue" points="76.7453,-33.4022 66.2734,-35.0117 75.4634,-40.2839 76.7453,-33.4022"/>
</g>
<!-- Node3 -->
<g id="node4" class="node"><title>Node3</title>
<g id="a_node4"><a xlink:href="class_s_q_l_storage.html" target="_top" xlink:title="SQLStorage">
<polygon fill="white" stroke="black" points="102,-0.5 102,-19.5 172,-19.5 172,-0.5 102,-0.5"/>
<text text-anchor="middle" x="137" y="-7.5" font-family="Helvetica,sans-Serif" font-size="10.00">SQLStorage</text>
</a>
</g>
</g>
<!-- Node0&#45;&gt;Node3 -->
<g id="edge3" class="edge"><title>Node0&#45;&gt;Node3</title>
<path fill="none" stroke="midnightblue" d="M76.1061,-21.1567C84.6685,-19.5617 93.5761,-17.9025 101.823,-16.3664"/>
<polygon fill="midnightblue" stroke="midnightblue" points="75.4634,-17.7161 66.2734,-22.9883 76.7453,-24.5978 75.4634,-17.7161"/>
</g>
<!-- Node2 -->
<g id="node3" class="node"><title>Node2</title>
<g id="a_node3"><a xlink:href="class_ephemeral_storage.html" target="_top" xlink:title="EphemeralStorage">
<polygon fill="white" stroke="black" points="208,-38.5 208,-57.5 305,-57.5 305,-38.5 208,-38.5"/>
<text text-anchor="middle" x="256.5" y="-45.5" font-family="Helvetica,sans-Serif" font-size="10.00">EphemeralStorage</text>
</a>
</g>
</g>
<!-- Node1&#45;&gt;Node2 -->
<g id="edge2" class="edge"><title>Node1&#45;&gt;Node2</title>
<path fill="none" stroke="midnightblue" d="M178.783,-48C188.138,-48 198.165,-48 207.782,-48"/>
<polygon fill="midnightblue" stroke="midnightblue" points="178.565,-44.5001 168.565,-48 178.565,-51.5001 178.565,-44.5001"/>
</g>
</g>
</svg>
