<?xml version="1.0" encoding="UTF-8" standalone="no"?>
<!DOCTYPE svg PUBLIC "-//W3C//DTD SVG 1.1//EN"
 "http://www.w3.org/Graphics/SVG/1.1/DTD/svg11.dtd">
<!-- Generated by graphviz version 2.38.0 (20140413.2041)
 -->
<!-- Title: Graphical Class Hierarchy Pages: 1 -->
<svg width="321pt" height="66pt"
 viewBox="0.00 0.00 321.00 66.00" xmlns="http://www.w3.org/2000/svg" xmlns:xlink="http://www.w3.org/1999/xlink">
<g id="graph0" class="graph" transform="scale(1 1) rotate(0) translate(4 62)">
<title>Graphical Class Hierarchy</title>
<polygon fill="white" stroke="none" points="-4,4 -4,-62 317,-62 317,4 -4,4"/>
<!-- Node0 -->
<g id="node1" class="node"><title>Node0</title>
<g id="a_node1"><a xlink:href="class_uptane_1_1_repository_common.html" target="_top" xlink:title="Uptane::RepositoryCommon">
<polygon fill="white" stroke="black" points="0,-19.5 0,-38.5 141,-38.5 141,-19.5 0,-19.5"/>
<text text-anchor="middle" x="70.5" y="-26.5" font-family="Helvetica,sans-Serif" font-size="10.00">Uptane::RepositoryCommon</text>
</a>
</g>
</g>
<!-- Node1 -->
<g id="node2" class="node"><title>Node1</title>
<g id="a_node2"><a xlink:href="class_uptane_1_1_director_repository.html" target="_top" xlink:title="Uptane::DirectorRepository">
<polygon fill="white" stroke="black" points="177,-38.5 177,-57.5 313,-57.5 313,-38.5 177,-38.5"/>
<text text-anchor="middle" x="245" y="-45.5" font-family="Helvetica,sans-Serif" font-size="10.00">Uptane::DirectorRepository</text>
</a>
</g>
</g>
<!-- Node0&#45;&gt;Node1 -->
<g id="edge1" class="edge"><title>Node0&#45;&gt;Node1</title>
<path fill="none" stroke="midnightblue" d="M151.187,-37.7771C159.776,-38.7232 168.453,-39.6788 176.873,-40.6063"/>
<polygon fill="midnightblue" stroke="midnightblue" points="151.488,-34.2892 141.165,-36.6733 150.722,-41.2471 151.488,-34.2892"/>
</g>
<!-- Node2 -->
<g id="node3" class="node"><title>Node2</title>
<g id="a_node3"><a xlink:href="class_uptane_1_1_images_repository.html" target="_top" xlink:title="Uptane::ImagesRepository">
<polygon fill="white" stroke="black" points="178,-0.5 178,-19.5 312,-19.5 312,-0.5 178,-0.5"/>
<text text-anchor="middle" x="245" y="-7.5" font-family="Helvetica,sans-Serif" font-size="10.00">Uptane::ImagesRepository</text>
</a>
</g>
</g>
<!-- Node0&#45;&gt;Node2 -->
<g id="edge2" class="edge"><title>Node0&#45;&gt;Node2</title>
<path fill="none" stroke="midnightblue" d="M151.218,-20.2194C160.177,-19.2327 169.229,-18.2356 177.987,-17.271"/>
<polygon fill="midnightblue" stroke="midnightblue" points="150.722,-16.7529 141.165,-21.3267 151.488,-23.7108 150.722,-16.7529"/>
</g>
</g>
</svg>
