<?xml version="1.0" encoding="UTF-8" standalone="no"?>
<!DOCTYPE svg PUBLIC "-//W3C//DTD SVG 1.1//EN"
 "http://www.w3.org/Graphics/SVG/1.1/DTD/svg11.dtd">
<!-- Generated by graphviz version 2.40.1 (20161225.0304)
 -->
<!-- Title: Graphical Class Hierarchy Pages: 1 -->
<svg width="217pt" height="66pt"
 viewBox="0.00 0.00 217.00 66.00" xmlns="http://www.w3.org/2000/svg" xmlns:xlink="http://www.w3.org/1999/xlink">
<g id="graph0" class="graph" transform="scale(1 1) rotate(0) translate(4 62)">
<title>Graphical Class Hierarchy</title>
<polygon fill="#ffffff" stroke="transparent" points="-4,4 -4,-62 213,-62 213,4 -4,4"/>
<!-- Node0 -->
<g id="node1" class="node">
<title>Node0</title>
<g id="a_node1"><a xlink:href="class_e_c_u_interface.html" target="_top" xlink:title="ECUInterface">
<polygon fill="#ffffff" stroke="#000000" points="0,-19.5 0,-38.5 77,-38.5 77,-19.5 0,-19.5"/>
<text text-anchor="middle" x="38.5" y="-26.5" font-family="Helvetica,sans-Serif" font-size="10.00" fill="#000000">ECUInterface</text>
</a>
</g>
</g>
<!-- Node1 -->
<g id="node2" class="node">
<title>Node1</title>
<g id="a_node2"><a xlink:href="class_example_flasher.html" target="_top" xlink:title="ExampleFlasher">
<polygon fill="#ffffff" stroke="#000000" points="117.5,-38.5 117.5,-57.5 204.5,-57.5 204.5,-38.5 117.5,-38.5"/>
<text text-anchor="middle" x="161" y="-45.5" font-family="Helvetica,sans-Serif" font-size="10.00" fill="#000000">ExampleFlasher</text>
</a>
</g>
</g>
<!-- Node0&#45;&gt;Node1 -->
<g id="edge1" class="edge">
<title>Node0&#45;&gt;Node1</title>
<path fill="none" stroke="#191970" d="M87.3821,-36.5817C97.2964,-38.1194 107.6617,-39.7271 117.3798,-41.2344"/>
<polygon fill="#191970" stroke="#191970" points="87.6781,-33.0858 77.2598,-35.0117 86.6051,-40.0031 87.6781,-33.0858"/>
</g>
<!-- Node2 -->
<g id="node3" class="node">
<title>Node2</title>
<g id="a_node3"><a xlink:href="class_test_isotp_interface.html" target="_top" xlink:title="TestIsotpInterface">
<polygon fill="#ffffff" stroke="#000000" points="113,-.5 113,-19.5 209,-19.5 209,-.5 113,-.5"/>
<text text-anchor="middle" x="161" y="-7.5" font-family="Helvetica,sans-Serif" font-size="10.00" fill="#000000">TestIsotpInterface</text>
</a>
</g>
</g>
<!-- Node0&#45;&gt;Node2 -->
<g id="edge2" class="edge">
<title>Node0&#45;&gt;Node2</title>
<path fill="none" stroke="#191970" d="M87.2342,-21.4412C95.5793,-20.1469 104.2481,-18.8023 112.5848,-17.5093"/>
<polygon fill="#191970" stroke="#191970" points="86.6051,-17.9969 77.2598,-22.9883 87.6781,-24.9141 86.6051,-17.9969"/>
</g>
</g>
</svg>
