<?xml version="1.0" encoding="UTF-8" standalone="no"?>
<!DOCTYPE svg PUBLIC "-//W3C//DTD SVG 1.1//EN"
 "http://www.w3.org/Graphics/SVG/1.1/DTD/svg11.dtd">
<!-- Generated by graphviz version 2.40.1 (20161225.0304)
 -->
<!-- Title: src/libaktualizr/utilities/results.h Pages: 1 -->
<!--zoomable 274 -->
<svg id="main" version="1.1" xmlns="http://www.w3.org/2000/svg" xmlns:xlink="http://www.w3.org/1999/xlink" xml:space="preserve" onload="init(evt)">
<style type="text/css"><![CDATA[
.edge:hover path { stroke: red; }
.edge:hover polygon { stroke: red; fill: red; }
]]></style>
<script type="text/javascript"><![CDATA[
var edges = document.getElementsByTagName('g');
if (edges && edges.length) {
  for (var i=0;i<edges.length;i++) {
    if (edges[i].id.substr(0,4)=='edge') {
      edges[i].setAttribute('class','edge');
    }
  }
}
]]></script>
        <defs>
                <circle id="rim" cx="0" cy="0" r="7"/>
                <circle id="rim2" cx="0" cy="0" r="3.5"/>
                <g id="zoomPlus">
                        <use xlink:href="#rim" fill="#404040">
                                <set attributeName="fill" to="#808080" begin="zoomplus.mouseover" end="zoomplus.mouseout"/>
                        </use>
                        <path d="M-4,0h8M0,-4v8" fill="none" stroke="white" stroke-width="1.5" pointer-events="none"/>
                </g>
                <g id="zoomMin">
                        <use xlink:href="#rim" fill="#404040">
                                <set attributeName="fill" to="#808080" begin="zoomminus.mouseover" end="zoomminus.mouseout"/>
                        </use>
                        <path d="M-4,0h8" fill="none" stroke="white" stroke-width="1.5" pointer-events="none"/>
                </g>
                <g id="dirArrow">
                        <path fill="none" stroke="white" stroke-width="1.5" d="M0,-3.0v7 M-2.5,-0.5L0,-3.0L2.5,-0.5"/>
                </g>
               <g id="resetDef">
                       <use xlink:href="#rim2" fill="#404040">
                               <set attributeName="fill" to="#808080" begin="reset.mouseover" end="reset.mouseout"/>
                       </use>
               </g>
        </defs>

<script type="text/javascript">
var viewWidth = 1667;
var viewHeight = 274;
var sectionId = 'dynsection-0';
</script>
<script xlink:href="svgpan.js"/>
<svg id="graph" class="graph">
<g id="viewport">
<title>src/libaktualizr/utilities/results.h</title>
<polygon fill="#ffffff" stroke="transparent" points="-4,4 -4,-270 1663,-270 1663,4 -4,4"/>
<!-- Node0 -->
<g id="node1" class="node">
<title>Node0</title>
<polygon fill="#bfbfbf" stroke="#000000" points="329,-235.5 329,-265.5 442,-265.5 442,-235.5 329,-235.5"/>
<text text-anchor="start" x="337" y="-253.5" font-family="Helvetica,sans-Serif" font-size="10.00" fill="#000000">src/libaktualizr/utilities</text>
<text text-anchor="middle" x="385.5" y="-242.5" font-family="Helvetica,sans-Serif" font-size="10.00" fill="#000000">/results.h</text>
</g>
<!-- Node1 -->
<g id="node2" class="node">
<title>Node1</title>
<polygon fill="#ffffff" stroke="#bfbfbf" points="0,-.5 0,-19.5 41,-19.5 41,-.5 0,-.5"/>
<text text-anchor="middle" x="20.5" y="-7.5" font-family="Helvetica,sans-Serif" font-size="10.00" fill="#000000">string</text>
</g>
<!-- Node0&#45;&gt;Node1 -->
<g id="edge1" class="edge">
<title>Node0&#45;&gt;Node1</title>
<path fill="none" stroke="#191970" d="M329.8073,-235.4223C269.102,-217.7991 170.1289,-185.5431 91.5,-143 54.9121,-123.2037 35.1439,-124.1884 16.5,-87 7.5312,-69.1101 10.4018,-45.8552 14.3425,-29.6025"/>
<polygon fill="#191970" stroke="#191970" points="17.8107,-30.1929 17.1093,-19.6213 11.0651,-28.323 17.8107,-30.1929"/>
</g>
<!-- Node2 -->
<g id="node3" class="node">
<title>Node2</title>
<polygon fill="#ffffff" stroke="#bfbfbf" points="315.5,-179.5 315.5,-198.5 359.5,-198.5 359.5,-179.5 315.5,-179.5"/>
<text text-anchor="middle" x="337.5" y="-186.5" font-family="Helvetica,sans-Serif" font-size="10.00" fill="#000000">vector</text>
</g>
<!-- Node0&#45;&gt;Node2 -->
<g id="edge2" class="edge">
<title>Node0&#45;&gt;Node2</title>
<path fill="none" stroke="#191970" d="M373.6348,-235.2977C366.9025,-226.672 358.4415,-215.8312 351.3994,-206.8087"/>
<polygon fill="#191970" stroke="#191970" points="354.0973,-204.5766 345.1854,-198.8469 348.579,-208.8836 354.0973,-204.5766"/>
</g>
<!-- Node3 -->
<g id="node4" class="node">
<title>Node3</title>
<polygon fill="#ffffff" stroke="#bfbfbf" points="377.5,-179.5 377.5,-198.5 489.5,-198.5 489.5,-179.5 377.5,-179.5"/>
<text text-anchor="middle" x="433.5" y="-186.5" font-family="Helvetica,sans-Serif" font-size="10.00" fill="#000000">campaign/campaign.h</text>
</g>
<!-- Node0&#45;&gt;Node3 -->
<g id="edge3" class="edge">
<title>Node0&#45;&gt;Node3</title>
<path fill="none" stroke="#191970" d="M397.3652,-235.2977C404.0975,-226.672 412.5585,-215.8312 419.6006,-206.8087"/>
<polygon fill="#191970" stroke="#191970" points="422.421,-208.8836 425.8146,-198.8469 416.9027,-204.5766 422.421,-208.8836"/>
</g>
<!-- Node4 -->
<g id="node5" class="node">
<title>Node4</title>
<g id="a_node5"><a xlink:href="tuf_8h_source.html" target="_top" xlink:title="uptane/tuf.h">
<polygon fill="#ffffff" stroke="#000000" points="820.5,-179.5 820.5,-198.5 888.5,-198.5 888.5,-179.5 820.5,-179.5"/>
<text text-anchor="middle" x="854.5" y="-186.5" font-family="Helvetica,sans-Serif" font-size="10.00" fill="#000000">uptane/tuf.h</text>
</a>
</g>
</g>
<!-- Node0&#45;&gt;Node4 -->
<g id="edge4" class="edge">
<title>Node0&#45;&gt;Node4</title>
<path fill="none" stroke="#191970" d="M442.0724,-243.0817C536.5588,-230.6916 724.5384,-206.0419 810.1623,-194.814"/>
<polygon fill="#191970" stroke="#191970" points="810.8678,-198.2516 820.3278,-193.481 809.9576,-191.311 810.8678,-198.2516"/>
</g>
<!-- Node5 -->
<g id="node6" class="node">
<title>Node5</title>
<polygon fill="#ffffff" stroke="#bfbfbf" points="883,-123.5 883,-142.5 942,-142.5 942,-123.5 883,-123.5"/>
<text text-anchor="middle" x="912.5" y="-130.5" font-family="Helvetica,sans-Serif" font-size="10.00" fill="#000000">functional</text>
</g>
<!-- Node4&#45;&gt;Node5 -->
<g id="edge5" class="edge">
<title>Node4&#45;&gt;Node5</title>
<path fill="none" stroke="#191970" d="M864.6028,-179.2455C873.0028,-171.1352 885.1494,-159.4075 895.1084,-149.7919"/>
<polygon fill="#191970" stroke="#191970" points="897.75,-152.1066 902.5129,-142.6427 892.8878,-147.0707 897.75,-152.1066"/>
</g>
<!-- Node6 -->
<g id="node7" class="node">
<title>Node6</title>
<polygon fill="#ffffff" stroke="#bfbfbf" points="960.5,-123.5 960.5,-142.5 1012.5,-142.5 1012.5,-123.5 960.5,-123.5"/>
<text text-anchor="middle" x="986.5" y="-130.5" font-family="Helvetica,sans-Serif" font-size="10.00" fill="#000000">ostream</text>
</g>
<!-- Node4&#45;&gt;Node6 -->
<g id="edge6" class="edge">
<title>Node4&#45;&gt;Node6</title>
<path fill="none" stroke="#191970" d="M877.1916,-179.3733C898.5711,-170.3032 930.8057,-156.6279 954.7362,-146.4755"/>
<polygon fill="#191970" stroke="#191970" points="956.2656,-149.6287 964.1045,-142.5011 953.5317,-143.1846 956.2656,-149.6287"/>
</g>
<!-- Node7 -->
<g id="node8" class="node">
<title>Node7</title>
<polygon fill="#ffffff" stroke="#bfbfbf" points="1030.5,-123.5 1030.5,-142.5 1060.5,-142.5 1060.5,-123.5 1030.5,-123.5"/>
<text text-anchor="middle" x="1045.5" y="-130.5" font-family="Helvetica,sans-Serif" font-size="10.00" fill="#000000">set</text>
</g>
<!-- Node4&#45;&gt;Node7 -->
<g id="edge7" class="edge">
<title>Node4&#45;&gt;Node7</title>
<path fill="none" stroke="#191970" d="M888.7876,-180.9005C920.8253,-173.0373 970.0924,-160.1933 1020.8789,-142.9176"/>
<polygon fill="#191970" stroke="#191970" points="1022.0645,-146.2111 1030.3758,-139.6405 1019.781,-139.594 1022.0645,-146.2111"/>
</g>
<!-- Node8 -->
<g id="node9" class="node">
<title>Node8</title>
<g id="a_node9"><a xlink:href="uptane_2exceptions_8h_source.html" target="_top" xlink:title="uptane/exceptions.h">
<polygon fill="#ffffff" stroke="#000000" points="100.5,-123.5 100.5,-142.5 204.5,-142.5 204.5,-123.5 100.5,-123.5"/>
<text text-anchor="middle" x="152.5" y="-130.5" font-family="Helvetica,sans-Serif" font-size="10.00" fill="#000000">uptane/exceptions.h</text>
</a>
</g>
</g>
<!-- Node4&#45;&gt;Node8 -->
<g id="edge8" class="edge">
<title>Node4&#45;&gt;Node8</title>
<path fill="none" stroke="#191970" d="M820.1659,-186.2611C709.1423,-177.4045 358.7287,-149.4513 214.97,-137.9834"/>
<polygon fill="#191970" stroke="#191970" points="215.2293,-134.493 204.9826,-137.1866 214.6726,-141.4708 215.2293,-134.493"/>
</g>
<!-- Node11 -->
<g id="node12" class="node">
<title>Node11</title>
<g id="a_node12"><a xlink:href="crypto_8h_source.html" target="_top" xlink:title="crypto/crypto.h">
<polygon fill="#ffffff" stroke="#000000" points="744.5,-123.5 744.5,-142.5 826.5,-142.5 826.5,-123.5 744.5,-123.5"/>
<text text-anchor="middle" x="785.5" y="-130.5" font-family="Helvetica,sans-Serif" font-size="10.00" fill="#000000">crypto/crypto.h</text>
</a>
</g>
</g>
<!-- Node4&#45;&gt;Node11 -->
<g id="edge12" class="edge">
<title>Node4&#45;&gt;Node11</title>
<path fill="none" stroke="#191970" d="M842.4811,-179.2455C832.2902,-170.9746 817.4638,-158.9416 805.4893,-149.2232"/>
<polygon fill="#191970" stroke="#191970" points="807.3514,-146.2268 797.3812,-142.6427 802.9402,-151.662 807.3514,-146.2268"/>
</g>
<!-- Node24 -->
<g id="node25" class="node">
<title>Node24</title>
<g id="a_node25"><a xlink:href="types_8h.html" target="_top" xlink:title="utilities/types.h">
<polygon fill="#ffffff" stroke="#000000" points="1576,-62 1576,-81 1659,-81 1659,-62 1576,-62"/>
<text text-anchor="middle" x="1617.5" y="-69" font-family="Helvetica,sans-Serif" font-size="10.00" fill="#000000">utilities/types.h</text>
</a>
</g>
</g>
<!-- Node4&#45;&gt;Node24 -->
<g id="edge39" class="edge">
<title>Node4&#45;&gt;Node24</title>
<path fill="none" stroke="#191970" d="M854.2398,-179.4973C854.4107,-164.7348 857.1537,-136.5805 874.5,-123 935.2108,-75.469 1491.5907,-100.5196 1567.5,-87 1572.0002,-86.1985 1576.6622,-85.1136 1581.2486,-83.8877"/>
<polygon fill="#191970" stroke="#191970" points="1582.4491,-87.1837 1591.0762,-81.0337 1580.4969,-80.4614 1582.4491,-87.1837"/>
</g>
<!-- Node8&#45;&gt;Node1 -->
<g id="edge10" class="edge">
<title>Node8&#45;&gt;Node1</title>
<path fill="none" stroke="#191970" d="M100.2148,-125.2414C76.0635,-118.9464 49.118,-107.5639 32.5,-87 19.6487,-71.0972 17.7886,-47.1364 18.4213,-30.1734"/>
<polygon fill="#191970" stroke="#191970" points="21.9453,-29.9531 19.1532,-19.7328 14.9624,-29.4635 21.9453,-29.9531"/>
</g>
<!-- Node9 -->
<g id="node10" class="node">
<title>Node9</title>
<polygon fill="#ffffff" stroke="#bfbfbf" points="1459,-.5 1459,-19.5 1518,-19.5 1518,-.5 1459,-.5"/>
<text text-anchor="middle" x="1488.5" y="-7.5" font-family="Helvetica,sans-Serif" font-size="10.00" fill="#000000">stdexcept</text>
</g>
<!-- Node8&#45;&gt;Node9 -->
<g id="edge9" class="edge">
<title>Node8&#45;&gt;Node9</title>
<path fill="none" stroke="#191970" d="M168.3022,-123.3742C182.886,-114.348 205.0148,-100.2876 223.5,-87 241.4791,-74.0762 241.7216,-63.6505 262.5,-56 372.9835,-15.3202 1203.8948,-25.5191 1321.5,-20 1364.9584,-17.9605 1414.7344,-14.8841 1448.5566,-12.6825"/>
<polygon fill="#191970" stroke="#191970" points="1449.1996,-16.1479 1458.949,-12.0008 1448.7413,-9.1629 1449.1996,-16.1479"/>
</g>
<!-- Node10 -->
<g id="node11" class="node">
<title>Node10</title>
<polygon fill="#ffffff" stroke="#bfbfbf" points="41.5,-62 41.5,-81 81.5,-81 81.5,-62 41.5,-62"/>
<text text-anchor="middle" x="61.5" y="-69" font-family="Helvetica,sans-Serif" font-size="10.00" fill="#000000">utility</text>
</g>
<!-- Node8&#45;&gt;Node10 -->
<g id="edge11" class="edge">
<title>Node8&#45;&gt;Node10</title>
<path fill="none" stroke="#191970" d="M138.2813,-123.3906C123.8566,-113.6421 101.3024,-98.3994 84.364,-86.9521"/>
<polygon fill="#191970" stroke="#191970" points="85.8641,-83.7415 75.6189,-81.0419 81.9444,-89.5412 85.8641,-83.7415"/>
</g>
<!-- Node11&#45;&gt;Node1 -->
<g id="edge25" class="edge">
<title>Node11&#45;&gt;Node1</title>
<path fill="none" stroke="#191970" d="M744.2682,-131.5626C609.2227,-126.6547 185.574,-109.6042 128.5,-87 108.2355,-78.9742 108.0752,-68.8909 90.5,-56 75.7327,-45.1686 58.5541,-33.8617 44.9106,-25.1684"/>
<polygon fill="#191970" stroke="#191970" points="46.4267,-21.9864 36.1029,-19.6055 42.6887,-27.9048 46.4267,-21.9864"/>
</g>
<!-- Node11&#45;&gt;Node10 -->
<g id="edge26" class="edge">
<title>Node11&#45;&gt;Node10</title>
<path fill="none" stroke="#191970" d="M744.1312,-132.1901C614.8186,-129.3529 219.476,-118.2804 95.5,-87 93.3024,-86.4455 91.0714,-85.7537 88.857,-84.9723"/>
<polygon fill="#191970" stroke="#191970" points="89.9919,-81.6554 79.4105,-81.1219 87.3497,-88.1376 89.9919,-81.6554"/>
</g>
<!-- Node12 -->
<g id="node13" class="node">
<title>Node12</title>
<polygon fill="#ffffff" stroke="#bfbfbf" points="547.5,-62 547.5,-81 637.5,-81 637.5,-62 547.5,-62"/>
<text text-anchor="middle" x="592.5" y="-69" font-family="Helvetica,sans-Serif" font-size="10.00" fill="#000000">openssl/engine.h</text>
</g>
<!-- Node11&#45;&gt;Node12 -->
<g id="edge13" class="edge">
<title>Node11&#45;&gt;Node12</title>
<path fill="none" stroke="#191970" d="M755.3438,-123.3906C722.2015,-112.8298 668.8238,-95.8208 632.2758,-84.1747"/>
<polygon fill="#191970" stroke="#191970" points="633.0351,-80.7433 622.4445,-81.0419 630.9098,-87.4129 633.0351,-80.7433"/>
</g>
<!-- Node13 -->
<g id="node14" class="node">
<title>Node13</title>
<polygon fill="#ffffff" stroke="#bfbfbf" points="656,-62 656,-81 729,-81 729,-62 656,-62"/>
<text text-anchor="middle" x="692.5" y="-69" font-family="Helvetica,sans-Serif" font-size="10.00" fill="#000000">openssl/err.h</text>
</g>
<!-- Node11&#45;&gt;Node13 -->
<g id="edge14" class="edge">
<title>Node11&#45;&gt;Node13</title>
<path fill="none" stroke="#191970" d="M770.9688,-123.3906C756.0906,-113.5519 732.7496,-98.1167 715.3872,-86.6351"/>
<polygon fill="#191970" stroke="#191970" points="717.201,-83.6385 706.9292,-81.0419 713.3398,-89.4773 717.201,-83.6385"/>
</g>
<!-- Node14 -->
<g id="node15" class="node">
<title>Node14</title>
<polygon fill="#ffffff" stroke="#bfbfbf" points="747,-62 747,-81 824,-81 824,-62 747,-62"/>
<text text-anchor="middle" x="785.5" y="-69" font-family="Helvetica,sans-Serif" font-size="10.00" fill="#000000">openssl/evp.h</text>
</g>
<!-- Node11&#45;&gt;Node14 -->
<g id="edge15" class="edge">
<title>Node11&#45;&gt;Node14</title>
<path fill="none" stroke="#191970" d="M785.5,-123.3906C785.5,-114.8657 785.5,-102.1392 785.5,-91.4235"/>
<polygon fill="#191970" stroke="#191970" points="789.0001,-91.2448 785.5,-81.2449 782.0001,-91.2449 789.0001,-91.2448"/>
</g>
<!-- Node15 -->
<g id="node16" class="node">
<title>Node15</title>
<polygon fill="#ffffff" stroke="#bfbfbf" points="842,-62 842,-81 943,-81 943,-62 842,-62"/>
<text text-anchor="middle" x="892.5" y="-69" font-family="Helvetica,sans-Serif" font-size="10.00" fill="#000000">openssl/opensslv.h</text>
</g>
<!-- Node11&#45;&gt;Node15 -->
<g id="edge16" class="edge">
<title>Node11&#45;&gt;Node15</title>
<path fill="none" stroke="#191970" d="M802.2188,-123.3906C819.5722,-113.4165 846.9323,-97.6908 866.9882,-86.1633"/>
<polygon fill="#191970" stroke="#191970" points="868.9728,-89.0596 875.8987,-81.0419 865.4846,-82.9907 868.9728,-89.0596"/>
</g>
<!-- Node16 -->
<g id="node17" class="node">
<title>Node16</title>
<polygon fill="#ffffff" stroke="#bfbfbf" points="961.5,-62 961.5,-81 1041.5,-81 1041.5,-62 961.5,-62"/>
<text text-anchor="middle" x="1001.5" y="-69" font-family="Helvetica,sans-Serif" font-size="10.00" fill="#000000">openssl/pem.h</text>
</g>
<!-- Node11&#45;&gt;Node16 -->
<g id="edge17" class="edge">
<title>Node11&#45;&gt;Node16</title>
<path fill="none" stroke="#191970" d="M821.7716,-123.4304C855.6748,-114.386 907.6571,-100.2634 952.5,-87 955.6657,-86.0637 958.9399,-85.0742 962.2251,-84.0665"/>
<polygon fill="#191970" stroke="#191970" points="963.5054,-87.3338 972.0162,-81.0238 961.428,-80.6492 963.5054,-87.3338"/>
</g>
<!-- Node17 -->
<g id="node18" class="node">
<title>Node17</title>
<polygon fill="#ffffff" stroke="#bfbfbf" points="1060,-62 1060,-81 1153,-81 1153,-62 1060,-62"/>
<text text-anchor="middle" x="1106.5" y="-69" font-family="Helvetica,sans-Serif" font-size="10.00" fill="#000000">openssl/pkcs12.h</text>
</g>
<!-- Node11&#45;&gt;Node17 -->
<g id="edge18" class="edge">
<title>Node11&#45;&gt;Node17</title>
<path fill="none" stroke="#191970" d="M826.6373,-125.4738C831.3117,-124.6325 836.0081,-123.7934 840.5,-123 933.7515,-106.53 958.0855,-107.6562 1050.5,-87 1054.9394,-86.0077 1059.5524,-84.8841 1064.1401,-83.7062"/>
<polygon fill="#191970" stroke="#191970" points="1065.2988,-87.0198 1074.0656,-81.0707 1063.5023,-80.2543 1065.2988,-87.0198"/>
</g>
<!-- Node18 -->
<g id="node19" class="node">
<title>Node18</title>
<polygon fill="#ffffff" stroke="#bfbfbf" points="1171.5,-62 1171.5,-81 1251.5,-81 1251.5,-62 1171.5,-62"/>
<text text-anchor="middle" x="1211.5" y="-69" font-family="Helvetica,sans-Serif" font-size="10.00" fill="#000000">openssl/rand.h</text>
</g>
<!-- Node11&#45;&gt;Node18 -->
<g id="edge19" class="edge">
<title>Node11&#45;&gt;Node18</title>
<path fill="none" stroke="#191970" d="M826.5948,-125.2107C831.277,-124.4176 835.9868,-123.6618 840.5,-123 982.9791,-102.1077 1021.6265,-116.8572 1162.5,-87 1166.4619,-86.1603 1170.5594,-85.1311 1174.6197,-84.0059"/>
<polygon fill="#191970" stroke="#191970" points="1175.9455,-87.2635 1184.5379,-81.0649 1173.9554,-80.5523 1175.9455,-87.2635"/>
</g>
<!-- Node19 -->
<g id="node20" class="node">
<title>Node19</title>
<polygon fill="#ffffff" stroke="#bfbfbf" points="1270,-62 1270,-81 1345,-81 1345,-62 1270,-62"/>
<text text-anchor="middle" x="1307.5" y="-69" font-family="Helvetica,sans-Serif" font-size="10.00" fill="#000000">openssl/rsa.h</text>
</g>
<!-- Node11&#45;&gt;Node19 -->
<g id="edge20" class="edge">
<title>Node11&#45;&gt;Node19</title>
<path fill="none" stroke="#191970" d="M826.5785,-125.094C831.2636,-124.3224 835.9787,-123.6034 840.5,-123 1026.2045,-98.2152 1076.9594,-124.5937 1260.5,-87 1264.3667,-86.208 1268.359,-85.2012 1272.3075,-84.0821"/>
<polygon fill="#191970" stroke="#191970" points="1273.4022,-87.4073 1281.9353,-81.1275 1271.3485,-80.7153 1273.4022,-87.4073"/>
</g>
<!-- Node20 -->
<g id="node21" class="node">
<title>Node20</title>
<polygon fill="#ffffff" stroke="#bfbfbf" points="1362.5,-62 1362.5,-81 1418.5,-81 1418.5,-62 1362.5,-62"/>
<text text-anchor="middle" x="1390.5" y="-69" font-family="Helvetica,sans-Serif" font-size="10.00" fill="#000000">sodium.h</text>
</g>
<!-- Node11&#45;&gt;Node20 -->
<g id="edge21" class="edge">
<title>Node11&#45;&gt;Node20</title>
<path fill="none" stroke="#191970" d="M826.5693,-125.0236C831.2562,-124.2648 835.9741,-123.5682 840.5,-123 1067.7205,-94.4742 1131.9645,-141.0446 1354.5,-87 1356.9879,-86.3958 1359.5222,-85.6344 1362.0354,-84.775"/>
<polygon fill="#191970" stroke="#191970" points="1363.4309,-87.9877 1371.4818,-81.1005 1360.8932,-81.4639 1363.4309,-87.9877"/>
</g>
<!-- Node21 -->
<g id="node22" class="node">
<title>Node21</title>
<polygon fill="#ffffff" stroke="#bfbfbf" points="1437,-62 1437,-81 1558,-81 1558,-62 1437,-62"/>
<text text-anchor="middle" x="1497.5" y="-69" font-family="Helvetica,sans-Serif" font-size="10.00" fill="#000000">boost/algorithm/hex.hpp</text>
</g>
<!-- Node11&#45;&gt;Node21 -->
<g id="edge22" class="edge">
<title>Node11&#45;&gt;Node21</title>
<path fill="none" stroke="#191970" d="M826.5645,-124.9843C831.2522,-124.2328 835.9717,-123.5486 840.5,-123 1099.9821,-91.5663 1168.6631,-123.3655 1427.5,-87 1434.7031,-85.988 1442.2652,-84.6303 1449.647,-83.1376"/>
<polygon fill="#191970" stroke="#191970" points="1450.4942,-86.5359 1459.5509,-81.038 1449.0425,-79.688 1450.4942,-86.5359"/>
</g>
<!-- Node22 -->
<g id="node23" class="node">
<title>Node22</title>
<polygon fill="#ffffff" stroke="#bfbfbf" points="272,-62 272,-81 401,-81 401,-62 272,-62"/>
<text text-anchor="middle" x="336.5" y="-69" font-family="Helvetica,sans-Serif" font-size="10.00" fill="#000000">boost/algorithm/string.hpp</text>
</g>
<!-- Node11&#45;&gt;Node22 -->
<g id="edge23" class="edge">
<title>Node11&#45;&gt;Node22</title>
<path fill="none" stroke="#191970" d="M744.2746,-129.0929C675.0525,-122.2755 531.1827,-107.0043 410.5,-87 403.6267,-85.8607 396.4225,-84.5275 389.32,-83.1298"/>
<polygon fill="#191970" stroke="#191970" points="389.5325,-79.602 379.0372,-81.0509 388.1453,-86.4632 389.5325,-79.602"/>
</g>
<!-- Node23 -->
<g id="node24" class="node">
<title>Node23</title>
<polygon fill="#ffffff" stroke="#bfbfbf" points="419.5,-56.5 419.5,-86.5 529.5,-86.5 529.5,-56.5 419.5,-56.5"/>
<text text-anchor="start" x="427.5" y="-74.5" font-family="Helvetica,sans-Serif" font-size="10.00" fill="#000000">boost/algorithm/string</text>
<text text-anchor="middle" x="474.5" y="-63.5" font-family="Helvetica,sans-Serif" font-size="10.00" fill="#000000">/case_conv.hpp</text>
</g>
<!-- Node11&#45;&gt;Node23 -->
<g id="edge24" class="edge">
<title>Node11&#45;&gt;Node23</title>
<path fill="none" stroke="#191970" d="M744.2842,-126.0189C697.1543,-117.8824 617.4602,-103.6575 539.5935,-87.1734"/>
<polygon fill="#191970" stroke="#191970" points="540.1252,-83.7082 529.6152,-85.0462 538.6657,-90.5543 540.1252,-83.7082"/>
</g>
<!-- Node11&#45;&gt;Node24 -->
<g id="edge27" class="edge">
<title>Node11&#45;&gt;Node24</title>
<path fill="none" stroke="#191970" d="M826.5582,-124.931C831.2471,-124.1892 835.9685,-123.5219 840.5,-123 1161.8826,-85.986 1248.9364,-143.3386 1567.5,-87 1572.0012,-86.204 1576.6637,-85.1224 1581.2504,-83.8982"/>
<polygon fill="#191970" stroke="#191970" points="1582.4502,-87.1945 1591.0784,-81.0461 1580.4991,-80.4719 1582.4502,-87.1945"/>
</g>
<!-- Node27 -->
<g id="node28" class="node">
<title>Node27</title>
<g id="a_node28"><a xlink:href="utils_8h_source.html" target="_top" xlink:title="utilities/utils.h">
<polygon fill="#ffffff" stroke="#000000" points="138,-62 138,-81 215,-81 215,-62 138,-62"/>
<text text-anchor="middle" x="176.5" y="-69" font-family="Helvetica,sans-Serif" font-size="10.00" fill="#000000">utilities/utils.h</text>
</a>
</g>
</g>
<!-- Node11&#45;&gt;Node27 -->
<g id="edge31" class="edge">
<title>Node11&#45;&gt;Node27</title>
<path fill="none" stroke="#191970" d="M744.3381,-130.6522C655.8739,-125.3273 441.155,-110.9065 262.5,-87 250.3998,-85.3808 237.4095,-83.2481 225.284,-81.0847"/>
<polygon fill="#191970" stroke="#191970" points="225.8064,-77.6223 215.3406,-79.2708 224.5501,-84.5086 225.8064,-77.6223"/>
</g>
<!-- Node24&#45;&gt;Node9 -->
<g id="edge30" class="edge">
<title>Node24&#45;&gt;Node9</title>
<path fill="none" stroke="#191970" d="M1597.3438,-61.8906C1575.949,-51.6908 1541.938,-35.4763 1517.6298,-23.8875"/>
<polygon fill="#191970" stroke="#191970" points="1519.0476,-20.686 1508.5147,-19.5419 1516.0352,-27.0047 1519.0476,-20.686"/>
</g>
<!-- Node25 -->
<g id="node26" class="node">
<title>Node25</title>
<polygon fill="#ffffff" stroke="#bfbfbf" points="1248.5,-.5 1248.5,-19.5 1312.5,-19.5 1312.5,-.5 1248.5,-.5"/>
<text text-anchor="middle" x="1280.5" y="-7.5" font-family="Helvetica,sans-Serif" font-size="10.00" fill="#000000">json/json.h</text>
</g>
<!-- Node24&#45;&gt;Node25 -->
<g id="edge28" class="edge">
<title>Node24&#45;&gt;Node25</title>
<path fill="none" stroke="#191970" d="M1589.135,-61.9429C1582.117,-59.7905 1574.5794,-57.6559 1567.5,-56 1481.4618,-35.8759 1378.8513,-21.7604 1322.5914,-14.8488"/>
<polygon fill="#191970" stroke="#191970" points="1322.9889,-11.3714 1312.6403,-13.6422 1322.1463,-18.3205 1322.9889,-11.3714"/>
</g>
<!-- Node26 -->
<g id="node27" class="node">
<title>Node26</title>
<polygon fill="#ffffff" stroke="#bfbfbf" points="867,-.5 867,-19.5 974,-19.5 974,-.5 867,-.5"/>
<text text-anchor="middle" x="920.5" y="-7.5" font-family="Helvetica,sans-Serif" font-size="10.00" fill="#000000">boost/filesystem.hpp</text>
</g>
<!-- Node24&#45;&gt;Node26 -->
<g id="edge29" class="edge">
<title>Node24&#45;&gt;Node26</title>
<path fill="none" stroke="#191970" d="M1590.7987,-61.9825C1583.3444,-59.6667 1575.1813,-57.4438 1567.5,-56 1456.9657,-35.224 1125.0108,-18.8638 984.4716,-12.6774"/>
<polygon fill="#191970" stroke="#191970" points="984.4301,-9.1723 974.2867,-12.2321 984.1243,-16.1656 984.4301,-9.1723"/>
</g>
<!-- Node27&#45;&gt;Node1 -->
<g id="edge35" class="edge">
<title>Node27&#45;&gt;Node1</title>
<path fill="none" stroke="#191970" d="M152.125,-61.8906C124.7165,-51.0854 80.1861,-33.5301 50.6217,-21.8749"/>
<polygon fill="#191970" stroke="#191970" points="51.8024,-18.5783 41.2156,-18.1667 49.2351,-25.0905 51.8024,-18.5783"/>
</g>
<!-- Node27&#45;&gt;Node25 -->
<g id="edge38" class="edge">
<title>Node27&#45;&gt;Node25</title>
<path fill="none" stroke="#191970" d="M204.539,-61.9354C212.5147,-59.5895 221.2716,-57.3628 229.5,-56 279.9829,-47.6391 1047.7271,-18.6567 1238.0559,-11.5718"/>
<polygon fill="#191970" stroke="#191970" points="1238.3598,-15.063 1248.2228,-11.1937 1238.0996,-8.0679 1238.3598,-15.063"/>
</g>
<!-- Node27&#45;&gt;Node26 -->
<g id="edge33" class="edge">
<title>Node27&#45;&gt;Node26</title>
<path fill="none" stroke="#191970" d="M204.8352,-61.9768C212.737,-59.661 221.382,-57.4395 229.5,-56 348.939,-34.8211 709.3946,-18.4504 856.7177,-12.466"/>
<polygon fill="#191970" stroke="#191970" points="857.0996,-15.9536 866.9503,-12.0532 856.8173,-8.9593 857.0996,-15.9536"/>
</g>
<!-- Node28 -->
<g id="node29" class="node">
<title>Node28</title>
<polygon fill="#ffffff" stroke="#bfbfbf" points="223,-.5 223,-19.5 266,-19.5 266,-.5 223,-.5"/>
<text text-anchor="middle" x="244.5" y="-7.5" font-family="Helvetica,sans-Serif" font-size="10.00" fill="#000000">glob.h</text>
</g>
<!-- Node27&#45;&gt;Node28 -->
<g id="edge32" class="edge">
<title>Node27&#45;&gt;Node28</title>
<path fill="none" stroke="#191970" d="M187.125,-61.8906C197.5431,-52.4683 213.6364,-37.9134 226.1304,-26.6137"/>
<polygon fill="#191970" stroke="#191970" points="228.6562,-29.0484 233.7252,-19.7449 223.9608,-23.8568 228.6562,-29.0484"/>
</g>
<!-- Node29 -->
<g id="node30" class="node">
<title>Node29</title>
<polygon fill="#ffffff" stroke="#bfbfbf" points="284.5,-.5 284.5,-19.5 336.5,-19.5 336.5,-.5 284.5,-.5"/>
<text text-anchor="middle" x="310.5" y="-7.5" font-family="Helvetica,sans-Serif" font-size="10.00" fill="#000000">memory</text>
</g>
<!-- Node27&#45;&gt;Node29 -->
<g id="edge34" class="edge">
<title>Node27&#45;&gt;Node29</title>
<path fill="none" stroke="#191970" d="M197.4375,-61.8906C219.7598,-51.6457 255.3037,-35.3326 280.5757,-23.7339"/>
<polygon fill="#191970" stroke="#191970" points="282.081,-26.8942 289.7095,-19.5419 279.1611,-20.5322 282.081,-26.8942"/>
</g>
<!-- Node30 -->
<g id="node31" class="node">
<title>Node30</title>
<polygon fill="#ffffff" stroke="#bfbfbf" points="63,-.5 63,-19.5 122,-19.5 122,-.5 63,-.5"/>
<text text-anchor="middle" x="92.5" y="-7.5" font-family="Helvetica,sans-Serif" font-size="10.00" fill="#000000">curl/curl.h</text>
</g>
<!-- Node27&#45;&gt;Node30 -->
<g id="edge36" class="edge">
<title>Node27&#45;&gt;Node30</title>
<path fill="none" stroke="#191970" d="M163.375,-61.8906C150.06,-52.1421 129.2406,-36.8994 113.6053,-25.4521"/>
<polygon fill="#191970" stroke="#191970" points="115.6691,-22.6253 105.5328,-19.5419 111.5339,-28.2734 115.6691,-22.6253"/>
</g>
<!-- Node31 -->
<g id="node32" class="node">
<title>Node31</title>
<polygon fill="#ffffff" stroke="#bfbfbf" points="140,-.5 140,-19.5 205,-19.5 205,-.5 140,-.5"/>
<text text-anchor="middle" x="172.5" y="-7.5" font-family="Helvetica,sans-Serif" font-size="10.00" fill="#000000">netinet/in.h</text>
</g>
<!-- Node27&#45;&gt;Node31 -->
<g id="edge37" class="edge">
<title>Node27&#45;&gt;Node31</title>
<path fill="none" stroke="#191970" d="M175.875,-61.8906C175.3205,-53.3657 174.4928,-40.6392 173.7958,-29.9235"/>
<polygon fill="#191970" stroke="#191970" points="177.2756,-29.4966 173.1338,-19.7449 170.2903,-29.951 177.2756,-29.4966"/>
</g>
</g>
</svg>
        <g id="navigator" transform="translate(0 0)" fill="#404254">
                <rect fill="#f2f5e9" fill-opacity="0.5" stroke="#606060" stroke-width=".5" x="0" y="0" width="60" height="60"/>
                <use id="zoomplus" xlink:href="#zoomPlus" x="17" y="9" onmousedown="handleZoom(evt,'in')"/>
                <use id="zoomminus" xlink:href="#zoomMin" x="42" y="9" onmousedown="handleZoom(evt,'out')"/>
                <use id="reset" xlink:href="#resetDef" x="30" y="36" onmousedown="handleReset()"/>
                <g id="arrowUp" xlink:href="#dirArrow" transform="translate(30 24)" onmousedown="handlePan(0,-1)">
                  <use xlink:href="#rim" fill="#404040">
                        <set attributeName="fill" to="#808080" begin="arrowUp.mouseover" end="arrowUp.mouseout"/>
                  </use>
                  <path fill="none" stroke="white" stroke-width="1.5" d="M0,-3.0v7 M-2.5,-0.5L0,-3.0L2.5,-0.5"/>
                </g>
                <g id="arrowRight" xlink:href="#dirArrow" transform="rotate(90) translate(36 -43)" onmousedown="handlePan(1,0)">
                  <use xlink:href="#rim" fill="#404040">
                        <set attributeName="fill" to="#808080" begin="arrowRight.mouseover" end="arrowRight.mouseout"/>
                  </use>
                  <path fill="none" stroke="white" stroke-width="1.5" d="M0,-3.0v7 M-2.5,-0.5L0,-3.0L2.5,-0.5"/>
                </g>
                <g id="arrowDown" xlink:href="#dirArrow" transform="rotate(180) translate(-30 -48)" onmousedown="handlePan(0,1)">
                  <use xlink:href="#rim" fill="#404040">
                        <set attributeName="fill" to="#808080" begin="arrowDown.mouseover" end="arrowDown.mouseout"/>
                  </use>
                  <path fill="none" stroke="white" stroke-width="1.5" d="M0,-3.0v7 M-2.5,-0.5L0,-3.0L2.5,-0.5"/>
                </g>
                <g id="arrowLeft" xlink:href="#dirArrow" transform="rotate(270) translate(-36 17)" onmousedown="handlePan(-1,0)">
                  <use xlink:href="#rim" fill="#404040">
                        <set attributeName="fill" to="#808080" begin="arrowLeft.mouseover" end="arrowLeft.mouseout"/>
                  </use>
                  <path fill="none" stroke="white" stroke-width="1.5" d="M0,-3.0v7 M-2.5,-0.5L0,-3.0L2.5,-0.5"/>
                </g>
        </g>
        <svg viewBox="0 0 15 15" width="100%" height="30px" preserveAspectRatio="xMaxYMin meet">
         <g id="arrow_out" transform="scale(0.3 0.3)">
          <a xlink:href="results_8h__incl_org.svg" target="_base">
           <rect id="button" ry="5" rx="5" y="6" x="6" height="38" width="38"
                fill="#f2f5e9" fill-opacity="0.5" stroke="#606060" stroke-width="1.0"/>
           <path id="arrow"
             d="M 11.500037,31.436501 C 11.940474,20.09759 22.043105,11.32322 32.158766,21.979434 L 37.068811,17.246167 C 37.068811,17.246167 37.088388,32 37.088388,32 L 22.160133,31.978069 C 22.160133,31.978069 26.997745,27.140456 26.997745,27.140456 C 18.528582,18.264221 13.291696,25.230495 11.500037,31.436501 z"
             style="fill:#404040;"/>
          </a>
         </g>
        </svg>
</svg>
