<?xml version="1.0" encoding="UTF-8" standalone="no"?>
<!DOCTYPE svg PUBLIC "-//W3C//DTD SVG 1.1//EN"
 "http://www.w3.org/Graphics/SVG/1.1/DTD/svg11.dtd">
<!-- Generated by graphviz version 2.38.0 (20140413.2041)
 -->
<!-- Title: opcuabridge::ServerModel Pages: 1 -->
<svg width="2125pt" height="904pt"
 viewBox="0.00 0.00 2125.00 904.00" xmlns="http://www.w3.org/2000/svg" xmlns:xlink="http://www.w3.org/1999/xlink">
<g id="graph0" class="graph" transform="scale(1 1) rotate(0) translate(4 900)">
<title>opcuabridge::ServerModel</title>
<polygon fill="white" stroke="none" points="-4,4 -4,-900 2121,-900 2121,4 -4,4"/>
<!-- Node1 -->
<g id="node1" class="node"><title>Node1</title>
<polygon fill="#bfbfbf" stroke="black" points="1987,-451.5 1987,-470.5 2117,-470.5 2117,-451.5 1987,-451.5"/>
<text text-anchor="middle" x="2052" y="-458.5" font-family="Helvetica,sans-Serif" font-size="10.00">opcuabridge::ServerModel</text>
</g>
<!-- Node2 -->
<g id="node2" class="node"><title>Node2</title>
<g id="a_node2"><a xlink:href="classopcuabridge_1_1_metadata_file.html" target="_top" xlink:title="opcuabridge::MetadataFile">
<polygon fill="white" stroke="black" points="1730.5,-767.5 1730.5,-786.5 1861.5,-786.5 1861.5,-767.5 1730.5,-767.5"/>
<text text-anchor="middle" x="1796" y="-774.5" font-family="Helvetica,sans-Serif" font-size="10.00">opcuabridge::MetadataFile</text>
</a>
</g>
</g>
<!-- Node2&#45;&gt;Node1 -->
<g id="edge1" class="edge"><title>Node2&#45;&gt;Node1</title>
<path fill="none" stroke="#9a32cd" stroke-dasharray="5,2" d="M1820.59,-761.956C1856.51,-738.073 1925.36,-688.373 1969,-632 2011.12,-577.587 2039.12,-498.045 2047.98,-470.673"/>
<polygon fill="#9a32cd" stroke="#9a32cd" points="1818.64,-759.048 1812.2,-767.46 1822.48,-764.901 1818.64,-759.048"/>
<text text-anchor="middle" x="1928" y="-712" font-family="Helvetica,sans-Serif" font-size="10.00"> metadatafile_</text>
</g>
<!-- Node3 -->
<g id="node3" class="node"><title>Node3</title>
<g id="a_node3"><a xlink:href="structopcuabridge_1_1_message_on_before_read_callback.html" target="_top" xlink:title="opcuabridge::MessageOnBefore\lReadCallback\&lt; opcuabridge\l::MetadataFile \&gt;">
<polygon fill="white" stroke="black" points="1430.5,-854.5 1430.5,-895.5 1586.5,-895.5 1586.5,-854.5 1430.5,-854.5"/>
<text text-anchor="start" x="1438.5" y="-883.5" font-family="Helvetica,sans-Serif" font-size="10.00">opcuabridge::MessageOnBefore</text>
<text text-anchor="start" x="1438.5" y="-872.5" font-family="Helvetica,sans-Serif" font-size="10.00">ReadCallback&lt; opcuabridge</text>
<text text-anchor="middle" x="1508.5" y="-861.5" font-family="Helvetica,sans-Serif" font-size="10.00">::MetadataFile &gt;</text>
</a>
</g>
</g>
<!-- Node3&#45;&gt;Node2 -->
<g id="edge2" class="edge"><title>Node3&#45;&gt;Node2</title>
<path fill="none" stroke="#9a32cd" stroke-dasharray="5,2" d="M1596.97,-867.551C1631.57,-862.518 1671.09,-854.093 1705,-840 1736.88,-826.75 1768.67,-800.743 1784.56,-786.642"/>
<polygon fill="#9a32cd" stroke="#9a32cd" points="1596.3,-864.11 1586.87,-868.945 1597.26,-871.044 1596.3,-864.11"/>
<text text-anchor="middle" x="1657.5" y="-868" font-family="Helvetica,sans-Serif" font-size="10.00"> on_before_read_cb_</text>
</g>
<!-- Node4 -->
<g id="node4" class="node"><title>Node4</title>
<g id="a_node4"><a xlink:href="structopcuabridge_1_1_message_on_after_write_callback.html" target="_top" xlink:title="opcuabridge::MessageOnAfter\lWriteCallback\&lt; opcuabridge\l::MetadataFile \&gt;">
<polygon fill="white" stroke="black" points="1434,-756.5 1434,-797.5 1583,-797.5 1583,-756.5 1434,-756.5"/>
<text text-anchor="start" x="1442" y="-785.5" font-family="Helvetica,sans-Serif" font-size="10.00">opcuabridge::MessageOnAfter</text>
<text text-anchor="start" x="1442" y="-774.5" font-family="Helvetica,sans-Serif" font-size="10.00">WriteCallback&lt; opcuabridge</text>
<text text-anchor="middle" x="1508.5" y="-763.5" font-family="Helvetica,sans-Serif" font-size="10.00">::MetadataFile &gt;</text>
</a>
</g>
</g>
<!-- Node4&#45;&gt;Node2 -->
<g id="edge3" class="edge"><title>Node4&#45;&gt;Node2</title>
<path fill="none" stroke="#9a32cd" stroke-dasharray="5,2" d="M1593.09,-777C1636.94,-777 1689.83,-777 1730.47,-777"/>
<polygon fill="#9a32cd" stroke="#9a32cd" points="1593.02,-773.5 1583.02,-777 1593.02,-780.5 1593.02,-773.5"/>
<text text-anchor="middle" x="1657.5" y="-780" font-family="Helvetica,sans-Serif" font-size="10.00"> on_after_write_cb_</text>
</g>
<!-- Node5 -->
<g id="node5" class="node"><title>Node5</title>
<g id="a_node5"><a xlink:title="STL class. ">
<polygon fill="white" stroke="#bfbfbf" points="180,-704.5 180,-723.5 240,-723.5 240,-704.5 180,-704.5"/>
<text text-anchor="middle" x="210" y="-711.5" font-family="Helvetica,sans-Serif" font-size="10.00">std::string</text>
</a>
</g>
</g>
<!-- Node5&#45;&gt;Node2 -->
<g id="edge4" class="edge"><title>Node5&#45;&gt;Node2</title>
<path fill="none" stroke="#9a32cd" stroke-dasharray="5,2" d="M232.071,-729.547C275.914,-760.311 381.163,-826 480.5,-826 480.5,-826 480.5,-826 1509.5,-826 1601.78,-826 1708.46,-800.824 1761.48,-786.564"/>
<polygon fill="#9a32cd" stroke="#9a32cd" points="233.843,-726.512 223.671,-723.549 229.775,-732.209 233.843,-726.512"/>
<text text-anchor="middle" x="885" y="-829" font-family="Helvetica,sans-Serif" font-size="10.00"> filename_</text>
</g>
<!-- Node18 -->
<g id="node18" class="node"><title>Node18</title>
<g id="a_node18"><a xlink:href="classopcuabridge_1_1_signature.html" target="_top" xlink:title="opcuabridge::Signature">
<polygon fill="white" stroke="black" points="634.5,-632.5 634.5,-651.5 750.5,-651.5 750.5,-632.5 634.5,-632.5"/>
<text text-anchor="middle" x="692.5" y="-639.5" font-family="Helvetica,sans-Serif" font-size="10.00">opcuabridge::Signature</text>
</a>
</g>
</g>
<!-- Node5&#45;&gt;Node18 -->
<g id="edge20" class="edge"><title>Node5&#45;&gt;Node18</title>
<path fill="none" stroke="#9a32cd" stroke-dasharray="5,2" d="M244.146,-700.749C283.969,-685.54 353.158,-661.363 415,-651 490.079,-638.418 578.181,-637.966 634.4,-639.447"/>
<polygon fill="#9a32cd" stroke="#9a32cd" points="242.743,-697.539 234.677,-704.408 245.266,-704.068 242.743,-697.539"/>
<text text-anchor="middle" x="481.5" y="-665" font-family="Helvetica,sans-Serif" font-size="10.00"> keyid_</text>
<text text-anchor="middle" x="481.5" y="-654" font-family="Helvetica,sans-Serif" font-size="10.00">value_</text>
</g>
<!-- Node19 -->
<g id="node19" class="node"><title>Node19</title>
<g id="a_node19"><a xlink:href="classopcuabridge_1_1_hash.html" target="_top" xlink:title="opcuabridge::Hash">
<polygon fill="white" stroke="black" points="432.5,-682.5 432.5,-701.5 530.5,-701.5 530.5,-682.5 432.5,-682.5"/>
<text text-anchor="middle" x="481.5" y="-689.5" font-family="Helvetica,sans-Serif" font-size="10.00">opcuabridge::Hash</text>
</a>
</g>
</g>
<!-- Node5&#45;&gt;Node19 -->
<g id="edge19" class="edge"><title>Node5&#45;&gt;Node19</title>
<path fill="none" stroke="#9a32cd" stroke-dasharray="5,2" d="M250.286,-710.1C267.394,-708.447 287.681,-706.55 306,-705 348.682,-701.389 397.283,-697.812 432.336,-695.327"/>
<polygon fill="#9a32cd" stroke="#9a32cd" points="249.705,-706.639 240.091,-711.091 250.383,-713.607 249.705,-706.639"/>
<text text-anchor="middle" x="351.5" y="-708" font-family="Helvetica,sans-Serif" font-size="10.00"> digest_</text>
</g>
<!-- Node20 -->
<g id="node20" class="node"><title>Node20</title>
<g id="a_node20"><a xlink:href="classopcuabridge_1_1_e_c_u_version_manifest_signed.html" target="_top" xlink:title="opcuabridge::ECUVersionManifest\lSigned">
<polygon fill="white" stroke="black" points="1097,-701 1097,-731 1264,-731 1264,-701 1097,-701"/>
<text text-anchor="start" x="1105" y="-719" font-family="Helvetica,sans-Serif" font-size="10.00">opcuabridge::ECUVersionManifest</text>
<text text-anchor="middle" x="1180.5" y="-708" font-family="Helvetica,sans-Serif" font-size="10.00">Signed</text>
</a>
</g>
</g>
<!-- Node5&#45;&gt;Node20 -->
<g id="edge22" class="edge"><title>Node5&#45;&gt;Node20</title>
<path fill="none" stroke="#9a32cd" stroke-dasharray="5,2" d="M244.91,-727.007C295.441,-745.188 393.856,-776 480.5,-776 480.5,-776 480.5,-776 886,-776 975.455,-776 1077.2,-748.915 1134.33,-731.141"/>
<polygon fill="#9a32cd" stroke="#9a32cd" points="246.054,-723.698 235.46,-723.552 243.65,-730.273 246.054,-723.698"/>
<text text-anchor="middle" x="692.5" y="-790" font-family="Helvetica,sans-Serif" font-size="10.00"> ecuIdentifier_</text>
<text text-anchor="middle" x="692.5" y="-779" font-family="Helvetica,sans-Serif" font-size="10.00">securityAttack_</text>
</g>
<!-- Node21 -->
<g id="node21" class="node"><title>Node21</title>
<g id="a_node21"><a xlink:href="classopcuabridge_1_1_image.html" target="_top" xlink:title="opcuabridge::Image">
<polygon fill="white" stroke="black" points="834,-706.5 834,-725.5 936,-725.5 936,-706.5 834,-706.5"/>
<text text-anchor="middle" x="885" y="-713.5" font-family="Helvetica,sans-Serif" font-size="10.00">opcuabridge::Image</text>
</a>
</g>
</g>
<!-- Node5&#45;&gt;Node21 -->
<g id="edge24" class="edge"><title>Node5&#45;&gt;Node21</title>
<path fill="none" stroke="#9a32cd" stroke-dasharray="5,2" d="M250.299,-715.013C267.409,-715.406 287.695,-715.807 306,-716 501.165,-718.054 733.417,-716.987 833.744,-716.356"/>
<polygon fill="#9a32cd" stroke="#9a32cd" points="250.182,-711.509 240.102,-714.771 250.016,-718.507 250.182,-711.509"/>
<text text-anchor="middle" x="589" y="-720" font-family="Helvetica,sans-Serif" font-size="10.00"> filename_</text>
</g>
<!-- Node23 -->
<g id="node23" class="node"><title>Node23</title>
<g id="a_node23"><a xlink:href="classopcuabridge_1_1_configuration.html" target="_top" xlink:title="opcuabridge::Configuration">
<polygon fill="white" stroke="black" points="415,-541.5 415,-560.5 548,-560.5 548,-541.5 415,-541.5"/>
<text text-anchor="middle" x="481.5" y="-548.5" font-family="Helvetica,sans-Serif" font-size="10.00">opcuabridge::Configuration</text>
</a>
</g>
</g>
<!-- Node5&#45;&gt;Node23 -->
<g id="edge31" class="edge"><title>Node5&#45;&gt;Node23</title>
<path fill="none" stroke="#9a32cd" stroke-dasharray="5,2" d="M221.814,-695.558C237.282,-670.848 268.088,-627.401 306,-604 341.499,-582.089 357.101,-593.178 397,-581 417.037,-574.884 439.35,-566.8 455.867,-560.564"/>
<polygon fill="#9a32cd" stroke="#9a32cd" points="218.692,-693.955 216.484,-704.317 224.672,-697.594 218.692,-693.955"/>
<text text-anchor="middle" x="351.5" y="-607" font-family="Helvetica,sans-Serif" font-size="10.00"> public_key_</text>
</g>
<!-- Node6 -->
<g id="node6" class="node"><title>Node6</title>
<g id="a_node6"><a xlink:title="STL class. ">
<polygon fill="white" stroke="#bfbfbf" points="0,-699 0,-729 95,-729 95,-699 0,-699"/>
<text text-anchor="start" x="8" y="-717" font-family="Helvetica,sans-Serif" font-size="10.00">std::basic_string&lt;</text>
<text text-anchor="middle" x="47.5" y="-706" font-family="Helvetica,sans-Serif" font-size="10.00"> char &gt;</text>
</a>
</g>
</g>
<!-- Node6&#45;&gt;Node5 -->
<g id="edge5" class="edge"><title>Node6&#45;&gt;Node5</title>
<path fill="none" stroke="midnightblue" d="M105.482,-714C130.51,-714 158.842,-714 179.531,-714"/>
<polygon fill="midnightblue" stroke="midnightblue" points="105.355,-710.5 95.3547,-714 105.355,-717.5 105.355,-710.5"/>
</g>
<!-- Node7 -->
<g id="node7" class="node"><title>Node7</title>
<g id="a_node7"><a xlink:title="STL class. ">
<polygon fill="white" stroke="#bfbfbf" points="1465,-398.5 1465,-417.5 1552,-417.5 1552,-398.5 1465,-398.5"/>
<text text-anchor="middle" x="1508.5" y="-405.5" font-family="Helvetica,sans-Serif" font-size="10.00">std::vector&lt; T &gt;</text>
</a>
</g>
</g>
<!-- Node7&#45;&gt;Node2 -->
<g id="edge6" class="edge"><title>Node7&#45;&gt;Node2</title>
<path fill="none" stroke="#9a32cd" stroke-dasharray="5,2" d="M1562.13,-409.993C1573.49,-412.934 1584.36,-418.125 1592,-427 1626.02,-466.531 1575.81,-621.619 1610,-661 1638.35,-693.651 1667.37,-660.703 1705,-682 1743.75,-703.932 1775.92,-747.968 1788.87,-767.405"/>
<polygon fill="#9a32cd" stroke="#9a32cd" points="1562.6,-406.515 1552.1,-407.952 1561.2,-413.375 1562.6,-406.515"/>
<text text-anchor="middle" x="1657.5" y="-685" font-family="Helvetica,sans-Serif" font-size="10.00"> metadata_</text>
</g>
<!-- Node31 -->
<g id="node31" class="node"><title>Node31</title>
<g id="a_node31"><a xlink:href="classopcuabridge_1_1_file_list.html" target="_top" xlink:title="opcuabridge::FileList">
<polygon fill="white" stroke="black" points="1742.5,-451.5 1742.5,-470.5 1849.5,-470.5 1849.5,-451.5 1742.5,-451.5"/>
<text text-anchor="middle" x="1796" y="-458.5" font-family="Helvetica,sans-Serif" font-size="10.00">opcuabridge::FileList</text>
</a>
</g>
</g>
<!-- Node7&#45;&gt;Node31 -->
<g id="edge39" class="edge"><title>Node7&#45;&gt;Node31</title>
<path fill="none" stroke="#9a32cd" stroke-dasharray="5,2" d="M1562.13,-417.624C1601.49,-424.837 1656.62,-434.977 1705,-444 1717.82,-446.391 1731.66,-448.994 1744.55,-451.429"/>
<polygon fill="#9a32cd" stroke="#9a32cd" points="1562.69,-414.169 1552.22,-415.809 1561.43,-421.054 1562.69,-414.169"/>
<text text-anchor="middle" x="1657.5" y="-447" font-family="Helvetica,sans-Serif" font-size="10.00"> block_</text>
</g>
<!-- Node34 -->
<g id="node34" class="node"><title>Node34</title>
<g id="a_node34"><a xlink:href="classopcuabridge_1_1_original_manifest.html" target="_top" xlink:title="opcuabridge::OriginalManifest">
<polygon fill="white" stroke="black" points="1723,-366.5 1723,-385.5 1869,-385.5 1869,-366.5 1723,-366.5"/>
<text text-anchor="middle" x="1796" y="-373.5" font-family="Helvetica,sans-Serif" font-size="10.00">opcuabridge::OriginalManifest</text>
</a>
</g>
</g>
<!-- Node7&#45;&gt;Node34 -->
<g id="edge43" class="edge"><title>Node7&#45;&gt;Node34</title>
<path fill="none" stroke="#9a32cd" stroke-dasharray="5,2" d="M1562.78,-400.159C1578.01,-398.031 1594.65,-395.815 1610,-394 1647.17,-389.604 1688.64,-385.496 1722.88,-382.318"/>
<polygon fill="#9a32cd" stroke="#9a32cd" points="1561.9,-396.749 1552.49,-401.613 1562.88,-403.68 1561.9,-396.749"/>
<text text-anchor="middle" x="1657.5" y="-397" font-family="Helvetica,sans-Serif" font-size="10.00"> block_</text>
</g>
<!-- Node8 -->
<g id="node8" class="node"><title>Node8</title>
<polygon fill="white" stroke="#bfbfbf" points="1166,-398.5 1166,-417.5 1195,-417.5 1195,-398.5 1166,-398.5"/>
<text text-anchor="middle" x="1180.5" y="-405.5" font-family="Helvetica,sans-Serif" font-size="10.00">T</text>
</g>
<!-- Node8&#45;&gt;Node7 -->
<g id="edge7" class="edge"><title>Node8&#45;&gt;Node7</title>
<path fill="none" stroke="#9a32cd" stroke-dasharray="5,2" d="M1205.18,-408C1259.79,-408 1395.19,-408 1464.75,-408"/>
<polygon fill="#9a32cd" stroke="#9a32cd" points="1205.09,-404.5 1195.09,-408 1205.09,-411.5 1205.09,-404.5"/>
<text text-anchor="middle" x="1344.5" y="-411" font-family="Helvetica,sans-Serif" font-size="10.00"> elements</text>
</g>
<!-- Node9 -->
<g id="node9" class="node"><title>Node9</title>
<g id="a_node9"><a xlink:href="classopcuabridge_1_1_file_data.html" target="_top" xlink:title="opcuabridge::FileData">
<polygon fill="white" stroke="black" points="1740,-199.5 1740,-218.5 1852,-218.5 1852,-199.5 1740,-199.5"/>
<text text-anchor="middle" x="1796" y="-206.5" font-family="Helvetica,sans-Serif" font-size="10.00">opcuabridge::FileData</text>
</a>
</g>
</g>
<!-- Node9&#45;&gt;Node1 -->
<g id="edge8" class="edge"><title>Node9&#45;&gt;Node1</title>
<path fill="none" stroke="#9a32cd" stroke-dasharray="5,2" d="M1813.93,-225.796C1862.83,-274.31 2003.21,-413.59 2041.34,-451.419"/>
<polygon fill="#9a32cd" stroke="#9a32cd" points="1816.21,-223.129 1806.65,-218.571 1811.28,-228.099 1816.21,-223.129"/>
<text text-anchor="middle" x="1928" y="-383" font-family="Helvetica,sans-Serif" font-size="10.00"> file_data_</text>
</g>
<!-- Node10 -->
<g id="node10" class="node"><title>Node10</title>
<g id="a_node10"><a xlink:href="structopcuabridge_1_1_message_file_data.html" target="_top" xlink:title="opcuabridge::MessageFileData">
<polygon fill="white" stroke="black" points="1432.5,-120.5 1432.5,-139.5 1584.5,-139.5 1584.5,-120.5 1432.5,-120.5"/>
<text text-anchor="middle" x="1508.5" y="-127.5" font-family="Helvetica,sans-Serif" font-size="10.00">opcuabridge::MessageFileData</text>
</a>
</g>
</g>
<!-- Node10&#45;&gt;Node9 -->
<g id="edge9" class="edge"><title>Node10&#45;&gt;Node9</title>
<path fill="none" stroke="midnightblue" d="M1563.18,-141.862C1572.8,-144.13 1582.72,-146.561 1592,-149 1653.85,-165.246 1725.4,-187.126 1764.9,-199.476"/>
<polygon fill="midnightblue" stroke="midnightblue" points="1563.83,-138.42 1553.29,-139.563 1562.24,-145.238 1563.83,-138.42"/>
</g>
<!-- Node11 -->
<g id="node11" class="node"><title>Node11</title>
<g id="a_node11"><a xlink:href="structopcuabridge_1_1_message_on_after_write_callback.html" target="_top" xlink:title="opcuabridge::MessageOnAfter\lWriteCallback\&lt; opcuabridge\l::FileData \&gt;">
<polygon fill="white" stroke="black" points="1434,-218.5 1434,-259.5 1583,-259.5 1583,-218.5 1434,-218.5"/>
<text text-anchor="start" x="1442" y="-247.5" font-family="Helvetica,sans-Serif" font-size="10.00">opcuabridge::MessageOnAfter</text>
<text text-anchor="start" x="1442" y="-236.5" font-family="Helvetica,sans-Serif" font-size="10.00">WriteCallback&lt; opcuabridge</text>
<text text-anchor="middle" x="1508.5" y="-225.5" font-family="Helvetica,sans-Serif" font-size="10.00">::FileData &gt;</text>
</a>
</g>
</g>
<!-- Node11&#45;&gt;Node9 -->
<g id="edge10" class="edge"><title>Node11&#45;&gt;Node9</title>
<path fill="none" stroke="#9a32cd" stroke-dasharray="5,2" d="M1593.24,-230.2C1640.48,-225.236 1698.19,-219.173 1739.76,-214.804"/>
<polygon fill="#9a32cd" stroke="#9a32cd" points="1592.6,-226.748 1583.02,-231.274 1593.33,-233.71 1592.6,-226.748"/>
<text text-anchor="middle" x="1657.5" y="-231" font-family="Helvetica,sans-Serif" font-size="10.00"> on_after_write_cb_</text>
</g>
<!-- Node12 -->
<g id="node12" class="node"><title>Node12</title>
<g id="a_node12"><a xlink:href="structopcuabridge_1_1_message_on_before_read_callback.html" target="_top" xlink:title="opcuabridge::MessageOnBefore\lReadCallback\&lt; opcuabridge\l::FileData \&gt;">
<polygon fill="white" stroke="black" points="1430.5,-158.5 1430.5,-199.5 1586.5,-199.5 1586.5,-158.5 1430.5,-158.5"/>
<text text-anchor="start" x="1438.5" y="-187.5" font-family="Helvetica,sans-Serif" font-size="10.00">opcuabridge::MessageOnBefore</text>
<text text-anchor="start" x="1438.5" y="-176.5" font-family="Helvetica,sans-Serif" font-size="10.00">ReadCallback&lt; opcuabridge</text>
<text text-anchor="middle" x="1508.5" y="-165.5" font-family="Helvetica,sans-Serif" font-size="10.00">::FileData &gt;</text>
</a>
</g>
</g>
<!-- Node12&#45;&gt;Node9 -->
<g id="edge11" class="edge"><title>Node12&#45;&gt;Node9</title>
<path fill="none" stroke="#9a32cd" stroke-dasharray="5,2" d="M1596.85,-188.179C1643.43,-193.073 1699.32,-198.946 1739.85,-203.205"/>
<polygon fill="#9a32cd" stroke="#9a32cd" points="1597.07,-184.683 1586.76,-187.118 1596.34,-191.644 1597.07,-184.683"/>
<text text-anchor="middle" x="1657.5" y="-203" font-family="Helvetica,sans-Serif" font-size="10.00"> on_before_read_cb_</text>
</g>
<!-- Node13 -->
<g id="node13" class="node"><title>Node13</title>
<g id="a_node13"><a xlink:href="classopcuabridge_1_1_version_report.html" target="_top" xlink:title="opcuabridge::VersionReport">
<polygon fill="white" stroke="black" points="1727.5,-622.5 1727.5,-641.5 1864.5,-641.5 1864.5,-622.5 1727.5,-622.5"/>
<text text-anchor="middle" x="1796" y="-629.5" font-family="Helvetica,sans-Serif" font-size="10.00">opcuabridge::VersionReport</text>
</a>
</g>
</g>
<!-- Node13&#45;&gt;Node1 -->
<g id="edge12" class="edge"><title>Node13&#45;&gt;Node1</title>
<path fill="none" stroke="#9a32cd" stroke-dasharray="5,2" d="M1874.68,-620.122C1906.16,-612.492 1941.49,-600.081 1969,-580 2009.94,-550.12 2037.32,-493.303 2047.06,-470.662"/>
<polygon fill="#9a32cd" stroke="#9a32cd" points="1873.57,-616.785 1864.61,-622.435 1875.14,-623.608 1873.57,-616.785"/>
<text text-anchor="middle" x="1928" y="-620" font-family="Helvetica,sans-Serif" font-size="10.00"> version_report_</text>
</g>
<!-- Node14 -->
<g id="node14" class="node"><title>Node14</title>
<g id="a_node14"><a xlink:href="structopcuabridge_1_1_message_on_before_read_callback.html" target="_top" xlink:title="opcuabridge::MessageOnBefore\lReadCallback\&lt; opcuabridge\l::VersionReport \&gt;">
<polygon fill="white" stroke="black" points="1430.5,-594.5 1430.5,-635.5 1586.5,-635.5 1586.5,-594.5 1430.5,-594.5"/>
<text text-anchor="start" x="1438.5" y="-623.5" font-family="Helvetica,sans-Serif" font-size="10.00">opcuabridge::MessageOnBefore</text>
<text text-anchor="start" x="1438.5" y="-612.5" font-family="Helvetica,sans-Serif" font-size="10.00">ReadCallback&lt; opcuabridge</text>
<text text-anchor="middle" x="1508.5" y="-601.5" font-family="Helvetica,sans-Serif" font-size="10.00">::VersionReport &gt;</text>
</a>
</g>
</g>
<!-- Node14&#45;&gt;Node13 -->
<g id="edge13" class="edge"><title>Node14&#45;&gt;Node13</title>
<path fill="none" stroke="#9a32cd" stroke-dasharray="5,2" d="M1597.03,-612.265C1630.83,-612.042 1669.77,-612.802 1705,-616 1719.7,-617.334 1735.6,-619.811 1749.88,-622.423"/>
<polygon fill="#9a32cd" stroke="#9a32cd" points="1596.68,-608.768 1586.71,-612.365 1596.75,-615.768 1596.68,-608.768"/>
<text text-anchor="middle" x="1657.5" y="-619" font-family="Helvetica,sans-Serif" font-size="10.00"> on_before_read_cb_</text>
</g>
<!-- Node15 -->
<g id="node15" class="node"><title>Node15</title>
<g id="a_node15"><a xlink:href="structopcuabridge_1_1_message_on_after_write_callback.html" target="_top" xlink:title="opcuabridge::MessageOnAfter\lWriteCallback\&lt; opcuabridge\l::VersionReport \&gt;">
<polygon fill="white" stroke="black" points="1434,-696.5 1434,-737.5 1583,-737.5 1583,-696.5 1434,-696.5"/>
<text text-anchor="start" x="1442" y="-725.5" font-family="Helvetica,sans-Serif" font-size="10.00">opcuabridge::MessageOnAfter</text>
<text text-anchor="start" x="1442" y="-714.5" font-family="Helvetica,sans-Serif" font-size="10.00">WriteCallback&lt; opcuabridge</text>
<text text-anchor="middle" x="1508.5" y="-703.5" font-family="Helvetica,sans-Serif" font-size="10.00">::VersionReport &gt;</text>
</a>
</g>
</g>
<!-- Node15&#45;&gt;Node13 -->
<g id="edge14" class="edge"><title>Node15&#45;&gt;Node13</title>
<path fill="none" stroke="#9a32cd" stroke-dasharray="5,2" d="M1593.32,-716.666C1628.72,-714.228 1669.81,-708.3 1705,-695 1737.47,-682.726 1769.26,-656.062 1784.93,-641.672"/>
<polygon fill="#9a32cd" stroke="#9a32cd" points="1592.78,-713.192 1583.01,-717.289 1593.2,-720.179 1592.78,-713.192"/>
<text text-anchor="middle" x="1657.5" y="-718" font-family="Helvetica,sans-Serif" font-size="10.00"> on_after_write_cb_</text>
</g>
<!-- Node16 -->
<g id="node16" class="node"><title>Node16</title>
<g id="a_node16"><a xlink:href="classopcuabridge_1_1_e_c_u_version_manifest.html" target="_top" xlink:title="opcuabridge::ECUVersionManifest">
<polygon fill="white" stroke="black" points="1425,-654.5 1425,-673.5 1592,-673.5 1592,-654.5 1425,-654.5"/>
<text text-anchor="middle" x="1508.5" y="-661.5" font-family="Helvetica,sans-Serif" font-size="10.00">opcuabridge::ECUVersionManifest</text>
</a>
</g>
</g>
<!-- Node16&#45;&gt;Node13 -->
<g id="edge15" class="edge"><title>Node16&#45;&gt;Node13</title>
<path fill="none" stroke="#9a32cd" stroke-dasharray="5,2" d="M1584.79,-653.166C1593.29,-652.046 1601.83,-650.966 1610,-650 1648.78,-645.415 1692.23,-641.143 1727.27,-637.912"/>
<polygon fill="#9a32cd" stroke="#9a32cd" points="1584.31,-649.7 1574.86,-654.495 1585.24,-656.638 1584.31,-649.7"/>
<text text-anchor="middle" x="1657.5" y="-653" font-family="Helvetica,sans-Serif" font-size="10.00"> ecuVersionManifest_</text>
</g>
<!-- Node17 -->
<g id="node17" class="node"><title>Node17</title>
<polygon fill="white" stroke="#bfbfbf" points="954,-641 954,-671 1079,-671 1079,-641 954,-641"/>
<text text-anchor="start" x="962" y="-659" font-family="Helvetica,sans-Serif" font-size="10.00">std::vector&lt; opcuabridge</text>
<text text-anchor="middle" x="1016.5" y="-648" font-family="Helvetica,sans-Serif" font-size="10.00">::Signature &gt;</text>
</g>
<!-- Node17&#45;&gt;Node16 -->
<g id="edge16" class="edge"><title>Node17&#45;&gt;Node16</title>
<path fill="none" stroke="#9a32cd" stroke-dasharray="5,2" d="M1089.1,-657.169C1178.42,-658.627 1330.81,-661.115 1424.95,-662.652"/>
<polygon fill="#9a32cd" stroke="#9a32cd" points="1089.12,-653.669 1079.06,-657.005 1089,-660.668 1089.12,-653.669"/>
<text text-anchor="middle" x="1180.5" y="-663" font-family="Helvetica,sans-Serif" font-size="10.00"> signatures_</text>
</g>
<!-- Node18&#45;&gt;Node17 -->
<g id="edge17" class="edge"><title>Node18&#45;&gt;Node17</title>
<path fill="none" stroke="#9a32cd" stroke-dasharray="5,2" d="M761.036,-644.936C817.957,-647.411 898.723,-650.923 953.9,-653.322"/>
<polygon fill="#9a32cd" stroke="#9a32cd" points="760.839,-641.425 750.696,-644.487 760.535,-648.418 760.839,-641.425"/>
<text text-anchor="middle" x="794.5" y="-651" font-family="Helvetica,sans-Serif" font-size="10.00"> elements</text>
</g>
<!-- Node19&#45;&gt;Node18 -->
<g id="edge18" class="edge"><title>Node19&#45;&gt;Node18</title>
<path fill="none" stroke="#9a32cd" stroke-dasharray="5,2" d="M532.235,-680.102C568.692,-671.38 617.544,-659.693 651.49,-651.572"/>
<polygon fill="#9a32cd" stroke="#9a32cd" points="531.214,-676.747 522.303,-682.478 532.843,-683.555 531.214,-676.747"/>
<text text-anchor="middle" x="589" y="-674" font-family="Helvetica,sans-Serif" font-size="10.00"> hash_</text>
</g>
<!-- Node22 -->
<g id="node22" class="node"><title>Node22</title>
<polygon fill="white" stroke="#bfbfbf" points="630,-671 630,-701 755,-701 755,-671 630,-671"/>
<text text-anchor="start" x="638" y="-689" font-family="Helvetica,sans-Serif" font-size="10.00">std::vector&lt; opcuabridge</text>
<text text-anchor="middle" x="692.5" y="-678" font-family="Helvetica,sans-Serif" font-size="10.00">::Hash &gt;</text>
</g>
<!-- Node19&#45;&gt;Node22 -->
<g id="edge26" class="edge"><title>Node19&#45;&gt;Node22</title>
<path fill="none" stroke="#9a32cd" stroke-dasharray="5,2" d="M541.013,-690.32C568.631,-689.527 601.603,-688.581 629.635,-687.776"/>
<polygon fill="#9a32cd" stroke="#9a32cd" points="540.607,-686.83 530.711,-690.616 540.808,-693.827 540.607,-686.83"/>
<text text-anchor="middle" x="589" y="-692" font-family="Helvetica,sans-Serif" font-size="10.00"> elements</text>
</g>
<!-- Node20&#45;&gt;Node16 -->
<g id="edge21" class="edge"><title>Node20&#45;&gt;Node16</title>
<path fill="none" stroke="#9a32cd" stroke-dasharray="5,2" d="M1274.08,-701.233C1329.84,-692.338 1399.23,-681.271 1447.8,-673.523"/>
<polygon fill="#9a32cd" stroke="#9a32cd" points="1273.51,-697.779 1264.18,-702.811 1274.61,-704.692 1273.51,-697.779"/>
<text text-anchor="middle" x="1344.5" y="-702" font-family="Helvetica,sans-Serif" font-size="10.00"> ecuVersionManifestSigned_</text>
</g>
<!-- Node21&#45;&gt;Node20 -->
<g id="edge23" class="edge"><title>Node21&#45;&gt;Node20</title>
<path fill="none" stroke="#9a32cd" stroke-dasharray="5,2" d="M946.259,-716C989.73,-716 1048.95,-716 1096.83,-716"/>
<polygon fill="#9a32cd" stroke="#9a32cd" points="946.121,-712.5 936.121,-716 946.121,-719.5 946.121,-712.5"/>
<text text-anchor="middle" x="1016.5" y="-719" font-family="Helvetica,sans-Serif" font-size="10.00"> installedImage_</text>
</g>
<!-- Node22&#45;&gt;Node21 -->
<g id="edge25" class="edge"><title>Node22&#45;&gt;Node21</title>
<path fill="none" stroke="#9a32cd" stroke-dasharray="5,2" d="M765.403,-697.072C782.021,-699.654 799.629,-702.406 816,-705 821.788,-705.917 827.851,-706.886 833.873,-707.853"/>
<polygon fill="#9a32cd" stroke="#9a32cd" points="765.621,-693.564 755.203,-695.49 764.548,-700.482 765.621,-693.564"/>
<text text-anchor="middle" x="794.5" y="-708" font-family="Helvetica,sans-Serif" font-size="10.00"> hashes_</text>
</g>
<!-- Node23&#45;&gt;Node1 -->
<g id="edge27" class="edge"><title>Node23&#45;&gt;Node1</title>
<path fill="none" stroke="#9a32cd" stroke-dasharray="5,2" d="M558.42,-559.077C598.035,-562.625 647.326,-566 691.5,-566 691.5,-566 691.5,-566 1797,-566 1896.49,-566 2002.41,-496.35 2038.29,-470.503"/>
<polygon fill="#9a32cd" stroke="#9a32cd" points="558.583,-555.577 548.305,-558.149 557.943,-562.548 558.583,-555.577"/>
<text text-anchor="middle" x="1180.5" y="-569" font-family="Helvetica,sans-Serif" font-size="10.00"> configuration_</text>
</g>
<!-- Node24 -->
<g id="node24" class="node"><title>Node24</title>
<g id="a_node24"><a xlink:href="structopcuabridge_1_1_message_on_after_write_callback.html" target="_top" xlink:title="opcuabridge::MessageOnAfter\lWriteCallback\&lt; opcuabridge\l::Configuration \&gt;">
<polygon fill="white" stroke="black" points="135.5,-563.5 135.5,-604.5 284.5,-604.5 284.5,-563.5 135.5,-563.5"/>
<text text-anchor="start" x="143.5" y="-592.5" font-family="Helvetica,sans-Serif" font-size="10.00">opcuabridge::MessageOnAfter</text>
<text text-anchor="start" x="143.5" y="-581.5" font-family="Helvetica,sans-Serif" font-size="10.00">WriteCallback&lt; opcuabridge</text>
<text text-anchor="middle" x="210" y="-570.5" font-family="Helvetica,sans-Serif" font-size="10.00">::Configuration &gt;</text>
</a>
</g>
</g>
<!-- Node24&#45;&gt;Node23 -->
<g id="edge28" class="edge"><title>Node24&#45;&gt;Node23</title>
<path fill="none" stroke="#9a32cd" stroke-dasharray="5,2" d="M294.737,-571.482C298.542,-570.969 302.31,-570.473 306,-570 341.97,-565.393 382.206,-560.963 414.968,-557.542"/>
<polygon fill="#9a32cd" stroke="#9a32cd" points="294.04,-568.045 284.608,-572.872 294.991,-574.98 294.04,-568.045"/>
<text text-anchor="middle" x="351.5" y="-573" font-family="Helvetica,sans-Serif" font-size="10.00"> on_after_write_cb_</text>
</g>
<!-- Node25 -->
<g id="node25" class="node"><title>Node25</title>
<g id="a_node25"><a xlink:href="class_uptane_1_1_hardware_identifier.html" target="_top" xlink:title="Uptane::HardwareIdentifier">
<polygon fill="white" stroke="black" points="143,-525.5 143,-544.5 277,-544.5 277,-525.5 143,-525.5"/>
<text text-anchor="middle" x="210" y="-532.5" font-family="Helvetica,sans-Serif" font-size="10.00">Uptane::HardwareIdentifier</text>
</a>
</g>
</g>
<!-- Node25&#45;&gt;Node23 -->
<g id="edge29" class="edge"><title>Node25&#45;&gt;Node23</title>
<path fill="none" stroke="#9a32cd" stroke-dasharray="5,2" d="M287.64,-532.449C321.261,-532.094 361.155,-532.709 397,-536 409.614,-537.158 423.176,-539.231 435.626,-541.473"/>
<polygon fill="#9a32cd" stroke="#9a32cd" points="287.37,-528.952 277.419,-532.589 287.466,-535.952 287.37,-528.952"/>
<text text-anchor="middle" x="351.5" y="-539" font-family="Helvetica,sans-Serif" font-size="10.00"> hwid_</text>
</g>
<!-- Node26 -->
<g id="node26" class="node"><title>Node26</title>
<g id="a_node26"><a xlink:href="class_uptane_1_1_ecu_serial.html" target="_top" xlink:title="Uptane::EcuSerial">
<polygon fill="white" stroke="black" points="162,-487.5 162,-506.5 258,-506.5 258,-487.5 162,-487.5"/>
<text text-anchor="middle" x="210" y="-494.5" font-family="Helvetica,sans-Serif" font-size="10.00">Uptane::EcuSerial</text>
</a>
</g>
</g>
<!-- Node26&#45;&gt;Node23 -->
<g id="edge30" class="edge"><title>Node26&#45;&gt;Node23</title>
<path fill="none" stroke="#9a32cd" stroke-dasharray="5,2" d="M268.374,-499.562C305.499,-502.175 354.633,-507.434 397,-518 419.535,-523.62 444.125,-533.877 460.743,-541.469"/>
<polygon fill="#9a32cd" stroke="#9a32cd" points="268.445,-496.059 258.236,-498.893 267.984,-503.044 268.445,-496.059"/>
<text text-anchor="middle" x="351.5" y="-521" font-family="Helvetica,sans-Serif" font-size="10.00"> serial_</text>
</g>
<!-- Node27 -->
<g id="node27" class="node"><title>Node27</title>
<g id="a_node27"><a xlink:href="structopcuabridge_1_1_message_on_before_read_callback.html" target="_top" xlink:title="opcuabridge::MessageOnBefore\lReadCallback\&lt; opcuabridge\l::Configuration \&gt;">
<polygon fill="white" stroke="black" points="132,-427.5 132,-468.5 288,-468.5 288,-427.5 132,-427.5"/>
<text text-anchor="start" x="140" y="-456.5" font-family="Helvetica,sans-Serif" font-size="10.00">opcuabridge::MessageOnBefore</text>
<text text-anchor="start" x="140" y="-445.5" font-family="Helvetica,sans-Serif" font-size="10.00">ReadCallback&lt; opcuabridge</text>
<text text-anchor="middle" x="210" y="-434.5" font-family="Helvetica,sans-Serif" font-size="10.00">::Configuration &gt;</text>
</a>
</g>
</g>
<!-- Node27&#45;&gt;Node23 -->
<g id="edge32" class="edge"><title>Node27&#45;&gt;Node23</title>
<path fill="none" stroke="#9a32cd" stroke-dasharray="5,2" d="M298.296,-458.719C330.321,-464.711 366.239,-473.926 397,-488 426.724,-501.6 455.93,-527.221 470.651,-541.235"/>
<polygon fill="#9a32cd" stroke="#9a32cd" points="298.507,-455.202 288.047,-456.885 297.274,-462.092 298.507,-455.202"/>
<text text-anchor="middle" x="351.5" y="-491" font-family="Helvetica,sans-Serif" font-size="10.00"> on_before_read_cb_</text>
</g>
<!-- Node28 -->
<g id="node28" class="node"><title>Node28</title>
<g id="a_node28"><a xlink:href="classopcuabridge_1_1_metadata_files.html" target="_top" xlink:title="opcuabridge::MetadataFiles">
<polygon fill="white" stroke="black" points="1727.5,-71.5 1727.5,-90.5 1864.5,-90.5 1864.5,-71.5 1727.5,-71.5"/>
<text text-anchor="middle" x="1796" y="-78.5" font-family="Helvetica,sans-Serif" font-size="10.00">opcuabridge::MetadataFiles</text>
</a>
</g>
</g>
<!-- Node28&#45;&gt;Node1 -->
<g id="edge33" class="edge"><title>Node28&#45;&gt;Node1</title>
<path fill="none" stroke="#9a32cd" stroke-dasharray="5,2" d="M1813.52,-98.2022C1846.09,-132.722 1919.73,-213.758 1969,-291 2005.66,-348.461 2036.88,-424.774 2047.3,-451.372"/>
<polygon fill="#9a32cd" stroke="#9a32cd" points="1815.93,-95.6629 1806.51,-90.8228 1810.86,-100.484 1815.93,-95.6629"/>
<text text-anchor="middle" x="1928" y="-294" font-family="Helvetica,sans-Serif" font-size="10.00"> metadatafiles_</text>
</g>
<!-- Node29 -->
<g id="node29" class="node"><title>Node29</title>
<g id="a_node29"><a xlink:href="structopcuabridge_1_1_message_on_before_read_callback.html" target="_top" xlink:title="opcuabridge::MessageOnBefore\lReadCallback\&lt; opcuabridge\l::MetadataFiles \&gt;">
<polygon fill="white" stroke="black" points="1430.5,-60.5 1430.5,-101.5 1586.5,-101.5 1586.5,-60.5 1430.5,-60.5"/>
<text text-anchor="start" x="1438.5" y="-89.5" font-family="Helvetica,sans-Serif" font-size="10.00">opcuabridge::MessageOnBefore</text>
<text text-anchor="start" x="1438.5" y="-78.5" font-family="Helvetica,sans-Serif" font-size="10.00">ReadCallback&lt; opcuabridge</text>
<text text-anchor="middle" x="1508.5" y="-67.5" font-family="Helvetica,sans-Serif" font-size="10.00">::MetadataFiles &gt;</text>
</a>
</g>
</g>
<!-- Node29&#45;&gt;Node28 -->
<g id="edge34" class="edge"><title>Node29&#45;&gt;Node28</title>
<path fill="none" stroke="#9a32cd" stroke-dasharray="5,2" d="M1596.97,-81C1638.92,-81 1688.39,-81 1727.4,-81"/>
<polygon fill="#9a32cd" stroke="#9a32cd" points="1596.76,-77.5001 1586.76,-81 1596.76,-84.5001 1596.76,-77.5001"/>
<text text-anchor="middle" x="1657.5" y="-84" font-family="Helvetica,sans-Serif" font-size="10.00"> on_before_read_cb_</text>
</g>
<!-- Node30 -->
<g id="node30" class="node"><title>Node30</title>
<g id="a_node30"><a xlink:href="structopcuabridge_1_1_message_on_after_write_callback.html" target="_top" xlink:title="opcuabridge::MessageOnAfter\lWriteCallback\&lt; opcuabridge\l::MetadataFiles \&gt;">
<polygon fill="white" stroke="black" points="1434,-0.5 1434,-41.5 1583,-41.5 1583,-0.5 1434,-0.5"/>
<text text-anchor="start" x="1442" y="-29.5" font-family="Helvetica,sans-Serif" font-size="10.00">opcuabridge::MessageOnAfter</text>
<text text-anchor="start" x="1442" y="-18.5" font-family="Helvetica,sans-Serif" font-size="10.00">WriteCallback&lt; opcuabridge</text>
<text text-anchor="middle" x="1508.5" y="-7.5" font-family="Helvetica,sans-Serif" font-size="10.00">::MetadataFiles &gt;</text>
</a>
</g>
</g>
<!-- Node30&#45;&gt;Node28 -->
<g id="edge35" class="edge"><title>Node30&#45;&gt;Node28</title>
<path fill="none" stroke="#9a32cd" stroke-dasharray="5,2" d="M1593.06,-38.5603C1644.1,-49.287 1707.41,-62.592 1749.39,-71.4151"/>
<polygon fill="#9a32cd" stroke="#9a32cd" points="1593.53,-35.083 1583.02,-36.4515 1592.09,-41.9334 1593.53,-35.083"/>
<text text-anchor="middle" x="1657.5" y="-65" font-family="Helvetica,sans-Serif" font-size="10.00"> on_after_write_cb_</text>
</g>
<!-- Node31&#45;&gt;Node1 -->
<g id="edge36" class="edge"><title>Node31&#45;&gt;Node1</title>
<path fill="none" stroke="#9a32cd" stroke-dasharray="5,2" d="M1859.72,-461C1898.36,-461 1947.79,-461 1986.73,-461"/>
<polygon fill="#9a32cd" stroke="#9a32cd" points="1859.63,-457.5 1849.63,-461 1859.63,-464.5 1859.63,-457.5"/>
<text text-anchor="middle" x="1928" y="-464" font-family="Helvetica,sans-Serif" font-size="10.00"> file_list_</text>
</g>
<!-- Node32 -->
<g id="node32" class="node"><title>Node32</title>
<g id="a_node32"><a xlink:href="structopcuabridge_1_1_message_on_before_read_callback.html" target="_top" xlink:title="opcuabridge::MessageOnBefore\lReadCallback\&lt; opcuabridge\l::FileList \&gt;">
<polygon fill="white" stroke="black" points="1430.5,-496.5 1430.5,-537.5 1586.5,-537.5 1586.5,-496.5 1430.5,-496.5"/>
<text text-anchor="start" x="1438.5" y="-525.5" font-family="Helvetica,sans-Serif" font-size="10.00">opcuabridge::MessageOnBefore</text>
<text text-anchor="start" x="1438.5" y="-514.5" font-family="Helvetica,sans-Serif" font-size="10.00">ReadCallback&lt; opcuabridge</text>
<text text-anchor="middle" x="1508.5" y="-503.5" font-family="Helvetica,sans-Serif" font-size="10.00">::FileList &gt;</text>
</a>
</g>
</g>
<!-- Node32&#45;&gt;Node31 -->
<g id="edge37" class="edge"><title>Node32&#45;&gt;Node31</title>
<path fill="none" stroke="#9a32cd" stroke-dasharray="5,2" d="M1596.76,-499.884C1645.92,-490.242 1705.47,-478.561 1746.39,-470.534"/>
<polygon fill="#9a32cd" stroke="#9a32cd" points="1595.9,-496.486 1586.76,-501.846 1597.25,-503.355 1595.9,-496.486"/>
<text text-anchor="middle" x="1657.5" y="-499" font-family="Helvetica,sans-Serif" font-size="10.00"> on_before_read_cb_</text>
</g>
<!-- Node33 -->
<g id="node33" class="node"><title>Node33</title>
<g id="a_node33"><a xlink:href="structopcuabridge_1_1_message_on_after_write_callback.html" target="_top" xlink:title="opcuabridge::MessageOnAfter\lWriteCallback\&lt; opcuabridge\l::FileList \&gt;">
<polygon fill="white" stroke="black" points="1434,-436.5 1434,-477.5 1583,-477.5 1583,-436.5 1434,-436.5"/>
<text text-anchor="start" x="1442" y="-465.5" font-family="Helvetica,sans-Serif" font-size="10.00">opcuabridge::MessageOnAfter</text>
<text text-anchor="start" x="1442" y="-454.5" font-family="Helvetica,sans-Serif" font-size="10.00">WriteCallback&lt; opcuabridge</text>
<text text-anchor="middle" x="1508.5" y="-443.5" font-family="Helvetica,sans-Serif" font-size="10.00">::FileList &gt;</text>
</a>
</g>
</g>
<!-- Node33&#45;&gt;Node31 -->
<g id="edge38" class="edge"><title>Node33&#45;&gt;Node31</title>
<path fill="none" stroke="#9a32cd" stroke-dasharray="5,2" d="M1593.15,-458.172C1641.44,-458.848 1700.68,-459.678 1742.45,-460.264"/>
<polygon fill="#9a32cd" stroke="#9a32cd" points="1593.07,-454.671 1583.02,-458.03 1592.97,-461.67 1593.07,-454.671"/>
<text text-anchor="middle" x="1657.5" y="-463" font-family="Helvetica,sans-Serif" font-size="10.00"> on_after_write_cb_</text>
</g>
<!-- Node34&#45;&gt;Node1 -->
<g id="edge40" class="edge"><title>Node34&#45;&gt;Node1</title>
<path fill="none" stroke="#9a32cd" stroke-dasharray="5,2" d="M1835.38,-388.843C1886.74,-406.032 1976.67,-436.127 2022.46,-451.45"/>
<polygon fill="#9a32cd" stroke="#9a32cd" points="1836.24,-385.44 1825.64,-385.585 1834.02,-392.078 1836.24,-385.44"/>
<text text-anchor="middle" x="1928" y="-437" font-family="Helvetica,sans-Serif" font-size="10.00"> original_manifest_</text>
</g>
<!-- Node35 -->
<g id="node35" class="node"><title>Node35</title>
<g id="a_node35"><a xlink:href="structopcuabridge_1_1_message_on_before_read_callback.html" target="_top" xlink:title="opcuabridge::MessageOnBefore\lReadCallback\&lt; opcuabridge\l::OriginalManifest \&gt;">
<polygon fill="white" stroke="black" points="1430.5,-338.5 1430.5,-379.5 1586.5,-379.5 1586.5,-338.5 1430.5,-338.5"/>
<text text-anchor="start" x="1438.5" y="-367.5" font-family="Helvetica,sans-Serif" font-size="10.00">opcuabridge::MessageOnBefore</text>
<text text-anchor="start" x="1438.5" y="-356.5" font-family="Helvetica,sans-Serif" font-size="10.00">ReadCallback&lt; opcuabridge</text>
<text text-anchor="middle" x="1508.5" y="-345.5" font-family="Helvetica,sans-Serif" font-size="10.00">::OriginalManifest &gt;</text>
</a>
</g>
</g>
<!-- Node35&#45;&gt;Node34 -->
<g id="edge41" class="edge"><title>Node35&#45;&gt;Node34</title>
<path fill="none" stroke="#9a32cd" stroke-dasharray="5,2" d="M1597.03,-356.265C1630.83,-356.042 1669.77,-356.802 1705,-360 1719.7,-361.334 1735.6,-363.811 1749.88,-366.423"/>
<polygon fill="#9a32cd" stroke="#9a32cd" points="1596.68,-352.768 1586.71,-356.365 1596.75,-359.768 1596.68,-352.768"/>
<text text-anchor="middle" x="1657.5" y="-363" font-family="Helvetica,sans-Serif" font-size="10.00"> on_before_read_cb_</text>
</g>
<!-- Node36 -->
<g id="node36" class="node"><title>Node36</title>
<g id="a_node36"><a xlink:href="structopcuabridge_1_1_message_on_after_write_callback.html" target="_top" xlink:title="opcuabridge::MessageOnAfter\lWriteCallback\&lt; opcuabridge\l::OriginalManifest \&gt;">
<polygon fill="white" stroke="black" points="1434,-278.5 1434,-319.5 1583,-319.5 1583,-278.5 1434,-278.5"/>
<text text-anchor="start" x="1442" y="-307.5" font-family="Helvetica,sans-Serif" font-size="10.00">opcuabridge::MessageOnAfter</text>
<text text-anchor="start" x="1442" y="-296.5" font-family="Helvetica,sans-Serif" font-size="10.00">WriteCallback&lt; opcuabridge</text>
<text text-anchor="middle" x="1508.5" y="-285.5" font-family="Helvetica,sans-Serif" font-size="10.00">::OriginalManifest &gt;</text>
</a>
</g>
</g>
<!-- Node36&#45;&gt;Node34 -->
<g id="edge42" class="edge"><title>Node36&#45;&gt;Node34</title>
<path fill="none" stroke="#9a32cd" stroke-dasharray="5,2" d="M1593.16,-314.626C1628.03,-321.853 1668.77,-331.233 1705,-342 1728.38,-348.946 1754.36,-359.028 1772.38,-366.41"/>
<polygon fill="#9a32cd" stroke="#9a32cd" points="1593.52,-311.125 1583.02,-312.549 1592.11,-317.983 1593.52,-311.125"/>
<text text-anchor="middle" x="1657.5" y="-345" font-family="Helvetica,sans-Serif" font-size="10.00"> on_after_write_cb_</text>
</g>
</g>
</svg>
