<?xml version="1.0" encoding="UTF-8" standalone="no"?>
<!DOCTYPE svg PUBLIC "-//W3C//DTD SVG 1.1//EN"
 "http://www.w3.org/Graphics/SVG/1.1/DTD/svg11.dtd">
<!-- Generated by graphviz version 2.40.1 (20161225.0304)
 -->
<!-- Title: SecondarySendFirmwareReq Pages: 1 -->
<svg width="213pt" height="158pt"
 viewBox="0.00 0.00 212.63 158.00" xmlns="http://www.w3.org/2000/svg" xmlns:xlink="http://www.w3.org/1999/xlink">
<g id="graph0" class="graph" transform="scale(1 1) rotate(0) translate(4 154)">
<title>SecondarySendFirmwareReq</title>
<polygon fill="#ffffff" stroke="transparent" points="-4,4 -4,-154 208.6338,-154 208.6338,4 -4,4"/>
<!-- Node2 -->
<g id="node1" class="node">
<title>Node2</title>
<polygon fill="#bfbfbf" stroke="#000000" points="0,-.5 0,-18.5 147.1719,-18.5 147.1719,-.5 0,-.5"/>
<text text-anchor="middle" x="73.5859" y="-6.5" font-family="Helvetica,sans-Serif" font-size="10.00" fill="#000000">SecondarySendFirmwareReq</text>
</g>
<!-- Node3 -->
<g id="node2" class="node">
<title>Node3</title>
<g id="a_node2"><a xlink:href="struct_secondary_message.html" target="_top" xlink:title="SecondaryMessage">
<polygon fill="#ffffff" stroke="#000000" points="5.394,-65.5 5.394,-83.5 109.7778,-83.5 109.7778,-65.5 5.394,-65.5"/>
<text text-anchor="middle" x="57.5859" y="-71.5" font-family="Helvetica,sans-Serif" font-size="10.00" fill="#000000">SecondaryMessage</text>
</a>
</g>
</g>
<!-- Node3&#45;&gt;Node2 -->
<g id="edge1" class="edge">
<title>Node3&#45;&gt;Node2</title>
<path fill="none" stroke="#191970" d="M62.2639,-55.4959C65.2269,-43.4586 68.9292,-28.4178 71.2765,-18.8821"/>
<polygon fill="#191970" stroke="#191970" points="58.8024,-54.9153 59.8107,-65.462 65.5995,-56.5885 58.8024,-54.9153"/>
</g>
<!-- Node4 -->
<g id="node3" class="node">
<title>Node4</title>
<g id="a_node3"><a xlink:title="STL class. ">
<polygon fill="#ffffff" stroke="#bfbfbf" points="127.9111,-65.5 127.9111,-83.5 187.2607,-83.5 187.2607,-65.5 127.9111,-65.5"/>
<text text-anchor="middle" x="157.5859" y="-71.5" font-family="Helvetica,sans-Serif" font-size="10.00" fill="#000000">std::string</text>
</a>
</g>
</g>
<!-- Node4&#45;&gt;Node2 -->
<g id="edge2" class="edge">
<title>Node4&#45;&gt;Node2</title>
<path fill="none" stroke="#9a32cd" stroke-dasharray="5,2" d="M137.6048,-59.0384C121.3562,-46.4651 98.9773,-29.1481 85.4374,-18.6708"/>
<polygon fill="#9a32cd" stroke="#9a32cd" points="135.8554,-62.1102 145.9061,-65.462 140.1393,-56.5741 135.8554,-62.1102"/>
<text text-anchor="middle" x="141.1426" y="-39" font-family="Helvetica,sans-Serif" font-size="10.00" fill="#000000"> firmware</text>
</g>
<!-- Node5 -->
<g id="node4" class="node">
<title>Node5</title>
<g id="a_node4"><a xlink:title="STL class. ">
<polygon fill="#ffffff" stroke="#bfbfbf" points="110.5381,-121.5 110.5381,-149.5 204.6338,-149.5 204.6338,-121.5 110.5381,-121.5"/>
<text text-anchor="start" x="118.5381" y="-137.5" font-family="Helvetica,sans-Serif" font-size="10.00" fill="#000000">std::basic_string&lt;</text>
<text text-anchor="middle" x="157.5859" y="-127.5" font-family="Helvetica,sans-Serif" font-size="10.00" fill="#000000"> char &gt;</text>
</a>
</g>
</g>
<!-- Node5&#45;&gt;Node4 -->
<g id="edge3" class="edge">
<title>Node5&#45;&gt;Node4</title>
<path fill="none" stroke="#191970" d="M157.5859,-111.1001C157.5859,-101.5157 157.5859,-91.0935 157.5859,-83.831"/>
<polygon fill="#191970" stroke="#191970" points="154.086,-111.352 157.5859,-121.3521 161.086,-111.3521 154.086,-111.352"/>
</g>
</g>
</svg>
