<?xml version="1.0" encoding="UTF-8" standalone="no"?>
<!DOCTYPE svg PUBLIC "-//W3C//DTD SVG 1.1//EN"
 "http://www.w3.org/Graphics/SVG/1.1/DTD/svg11.dtd">
<!-- Generated by graphviz version 2.40.1 (20161225.0304)
 -->
<!-- Title: SecondaryPublicKeyResp Pages: 1 -->
<svg width="207pt" height="158pt"
 viewBox="0.00 0.00 207.24 158.00" xmlns="http://www.w3.org/2000/svg" xmlns:xlink="http://www.w3.org/1999/xlink">
<g id="graph0" class="graph" transform="scale(1 1) rotate(0) translate(4 154)">
<title>SecondaryPublicKeyResp</title>
<polygon fill="#ffffff" stroke="transparent" points="-4,4 -4,-154 203.2397,-154 203.2397,4 -4,4"/>
<!-- Node2 -->
<g id="node1" class="node">
<title>Node2</title>
<polygon fill="#bfbfbf" stroke="#000000" points="2.3818,-.5 2.3818,-18.5 134.002,-18.5 134.002,-.5 2.3818,-.5"/>
<text text-anchor="middle" x="68.1919" y="-6.5" font-family="Helvetica,sans-Serif" font-size="10.00" fill="#000000">SecondaryPublicKeyResp</text>
</g>
<!-- Node3 -->
<g id="node2" class="node">
<title>Node3</title>
<g id="a_node2"><a xlink:href="struct_secondary_message.html" target="_top" xlink:title="SecondaryMessage">
<polygon fill="#ffffff" stroke="#000000" points="0,-65.5 0,-83.5 104.3838,-83.5 104.3838,-65.5 0,-65.5"/>
<text text-anchor="middle" x="52.1919" y="-71.5" font-family="Helvetica,sans-Serif" font-size="10.00" fill="#000000">SecondaryMessage</text>
</a>
</g>
</g>
<!-- Node3&#45;&gt;Node2 -->
<g id="edge1" class="edge">
<title>Node3&#45;&gt;Node2</title>
<path fill="none" stroke="#191970" d="M56.8698,-55.4959C59.8329,-43.4586 63.5352,-28.4178 65.8824,-18.8821"/>
<polygon fill="#191970" stroke="#191970" points="53.4083,-54.9153 54.4166,-65.462 60.2054,-56.5885 53.4083,-54.9153"/>
</g>
<!-- Node4 -->
<g id="node3" class="node">
<title>Node4</title>
<g id="a_node3"><a xlink:title="STL class. ">
<polygon fill="#ffffff" stroke="#bfbfbf" points="122.5171,-65.5 122.5171,-83.5 181.8667,-83.5 181.8667,-65.5 122.5171,-65.5"/>
<text text-anchor="middle" x="152.1919" y="-71.5" font-family="Helvetica,sans-Serif" font-size="10.00" fill="#000000">std::string</text>
</a>
</g>
</g>
<!-- Node4&#45;&gt;Node2 -->
<g id="edge2" class="edge">
<title>Node4&#45;&gt;Node2</title>
<path fill="none" stroke="#9a32cd" stroke-dasharray="5,2" d="M132.2108,-59.0384C115.9622,-46.4651 93.5833,-29.1481 80.0433,-18.6708"/>
<polygon fill="#9a32cd" stroke="#9a32cd" points="130.4614,-62.1102 140.5121,-65.462 134.7453,-56.5741 130.4614,-62.1102"/>
<text text-anchor="middle" x="124.3618" y="-39" font-family="Helvetica,sans-Serif" font-size="10.00" fill="#000000"> key</text>
</g>
<!-- Node5 -->
<g id="node4" class="node">
<title>Node5</title>
<g id="a_node4"><a xlink:title="STL class. ">
<polygon fill="#ffffff" stroke="#bfbfbf" points="105.144,-121.5 105.144,-149.5 199.2397,-149.5 199.2397,-121.5 105.144,-121.5"/>
<text text-anchor="start" x="113.144" y="-137.5" font-family="Helvetica,sans-Serif" font-size="10.00" fill="#000000">std::basic_string&lt;</text>
<text text-anchor="middle" x="152.1919" y="-127.5" font-family="Helvetica,sans-Serif" font-size="10.00" fill="#000000"> char &gt;</text>
</a>
</g>
</g>
<!-- Node5&#45;&gt;Node4 -->
<g id="edge3" class="edge">
<title>Node5&#45;&gt;Node4</title>
<path fill="none" stroke="#191970" d="M152.1919,-111.1001C152.1919,-101.5157 152.1919,-91.0935 152.1919,-83.831"/>
<polygon fill="#191970" stroke="#191970" points="148.692,-111.352 152.1919,-121.3521 155.692,-111.3521 148.692,-111.352"/>
</g>
</g>
</svg>
