<?xml version="1.0" encoding="UTF-8" standalone="no"?>
<!DOCTYPE svg PUBLIC "-//W3C//DTD SVG 1.1//EN"
 "http://www.w3.org/Graphics/SVG/1.1/DTD/svg11.dtd">
<!-- Generated by graphviz version 2.38.0 (20140413.2041)
 -->
<!-- Title: Uptane::MetaPack Pages: 1 -->
<svg width="453pt" height="251pt"
 viewBox="0.00 0.00 452.50 251.00" xmlns="http://www.w3.org/2000/svg" xmlns:xlink="http://www.w3.org/1999/xlink">
<g id="graph0" class="graph" transform="scale(1 1) rotate(0) translate(4 247)">
<title>Uptane::MetaPack</title>
<polygon fill="white" stroke="none" points="-4,4 -4,-247 448.5,-247 448.5,4 -4,4"/>
<!-- Node1 -->
<g id="node1" class="node"><title>Node1</title>
<polygon fill="#bfbfbf" stroke="black" points="184.5,-0.5 184.5,-19.5 282.5,-19.5 282.5,-0.5 184.5,-0.5"/>
<text text-anchor="middle" x="233.5" y="-7.5" font-family="Helvetica,sans-Serif" font-size="10.00">Uptane::MetaPack</text>
</g>
<!-- Node2 -->
<g id="node2" class="node"><title>Node2</title>
<g id="a_node2"><a xlink:href="class_uptane_1_1_targets.html" target="_top" xlink:title="Uptane::Targets">
<polygon fill="white" stroke="black" points="349,-78.5 349,-97.5 436,-97.5 436,-78.5 349,-78.5"/>
<text text-anchor="middle" x="392.5" y="-85.5" font-family="Helvetica,sans-Serif" font-size="10.00">Uptane::Targets</text>
</a>
</g>
</g>
<!-- Node2&#45;&gt;Node1 -->
<g id="edge1" class="edge"><title>Node2&#45;&gt;Node1</title>
<path fill="none" stroke="#9a32cd" stroke-dasharray="5,2" d="M378.96,-70.4449C369.307,-59.686 355.434,-46.1865 340.5,-38 322.776,-28.2841 301.488,-21.9907 282.584,-17.949"/>
<polygon fill="#9a32cd" stroke="#9a32cd" points="376.566,-73.0286 385.738,-78.3319 381.875,-68.4664 376.566,-73.0286"/>
<text text-anchor="middle" x="403" y="-52" font-family="Helvetica,sans-Serif" font-size="10.00"> director_targets</text>
<text text-anchor="middle" x="403" y="-41" font-family="Helvetica,sans-Serif" font-size="10.00">image_targets</text>
</g>
<!-- Node3 -->
<g id="node3" class="node"><title>Node3</title>
<g id="a_node3"><a xlink:href="class_uptane_1_1_base_meta.html" target="_top" xlink:title="Uptane::BaseMeta">
<polygon fill="white" stroke="black" points="222.5,-151 222.5,-170 320.5,-170 320.5,-151 222.5,-151"/>
<text text-anchor="middle" x="271.5" y="-158" font-family="Helvetica,sans-Serif" font-size="10.00">Uptane::BaseMeta</text>
</a>
</g>
</g>
<!-- Node3&#45;&gt;Node2 -->
<g id="edge2" class="edge"><title>Node3&#45;&gt;Node2</title>
<path fill="none" stroke="midnightblue" d="M294.993,-145.812C319.409,-131.586 356.883,-109.752 377.542,-97.7154"/>
<polygon fill="midnightblue" stroke="midnightblue" points="293.215,-142.797 286.337,-150.855 296.739,-148.845 293.215,-142.797"/>
</g>
<!-- Node7 -->
<g id="node7" class="node"><title>Node7</title>
<g id="a_node7"><a xlink:href="class_uptane_1_1_snapshot.html" target="_top" xlink:title="Uptane::Snapshot">
<polygon fill="white" stroke="black" points="0,-78.5 0,-97.5 95,-97.5 95,-78.5 0,-78.5"/>
<text text-anchor="middle" x="47.5" y="-85.5" font-family="Helvetica,sans-Serif" font-size="10.00">Uptane::Snapshot</text>
</a>
</g>
</g>
<!-- Node3&#45;&gt;Node7 -->
<g id="edge7" class="edge"><title>Node3&#45;&gt;Node7</title>
<path fill="none" stroke="midnightblue" d="M234.824,-147.957C189.857,-133.804 114.698,-110.149 74.6155,-97.5341"/>
<polygon fill="midnightblue" stroke="midnightblue" points="233.891,-151.332 244.48,-150.996 235.992,-144.655 233.891,-151.332"/>
</g>
<!-- Node8 -->
<g id="node8" class="node"><title>Node8</title>
<g id="a_node8"><a xlink:href="class_uptane_1_1_timestamp_meta.html" target="_top" xlink:title="Uptane::TimestampMeta">
<polygon fill="white" stroke="black" points="113,-78.5 113,-97.5 238,-97.5 238,-78.5 113,-78.5"/>
<text text-anchor="middle" x="175.5" y="-85.5" font-family="Helvetica,sans-Serif" font-size="10.00">Uptane::TimestampMeta</text>
</a>
</g>
</g>
<!-- Node3&#45;&gt;Node8 -->
<g id="edge9" class="edge"><title>Node3&#45;&gt;Node8</title>
<path fill="none" stroke="midnightblue" d="M251.566,-144.861C232.186,-130.629 203.397,-109.487 187.368,-97.7154"/>
<polygon fill="midnightblue" stroke="midnightblue" points="249.597,-147.757 259.729,-150.855 253.74,-142.115 249.597,-147.757"/>
</g>
<!-- Node9 -->
<g id="node9" class="node"><title>Node9</title>
<g id="a_node9"><a xlink:href="class_uptane_1_1_root.html" target="_top" xlink:title="Uptane::Root">
<polygon fill="white" stroke="black" points="256,-78.5 256,-97.5 331,-97.5 331,-78.5 256,-78.5"/>
<text text-anchor="middle" x="293.5" y="-85.5" font-family="Helvetica,sans-Serif" font-size="10.00">Uptane::Root</text>
</a>
</g>
</g>
<!-- Node3&#45;&gt;Node9 -->
<g id="edge11" class="edge"><title>Node3&#45;&gt;Node9</title>
<path fill="none" stroke="midnightblue" d="M277.188,-141.271C281.56,-127.262 287.405,-108.532 290.78,-97.7154"/>
<polygon fill="midnightblue" stroke="midnightblue" points="273.835,-140.267 274.198,-150.855 280.518,-142.352 273.835,-140.267"/>
</g>
<!-- Node4 -->
<g id="node4" class="node"><title>Node4</title>
<g id="a_node4"><a xlink:href="class_uptane_1_1_time_stamp.html" target="_top" xlink:title="Uptane::TimeStamp">
<polygon fill="white" stroke="black" points="219.5,-223.5 219.5,-242.5 323.5,-242.5 323.5,-223.5 219.5,-223.5"/>
<text text-anchor="middle" x="271.5" y="-230.5" font-family="Helvetica,sans-Serif" font-size="10.00">Uptane::TimeStamp</text>
</a>
</g>
</g>
<!-- Node4&#45;&gt;Node3 -->
<g id="edge3" class="edge"><title>Node4&#45;&gt;Node3</title>
<path fill="none" stroke="#9a32cd" stroke-dasharray="5,2" d="M271.5,-212.942C271.5,-199.03 271.5,-180.82 271.5,-170.215"/>
<polygon fill="#9a32cd" stroke="#9a32cd" points="268,-213.355 271.5,-223.355 275,-213.355 268,-213.355"/>
<text text-anchor="middle" x="289" y="-197" font-family="Helvetica,sans-Serif" font-size="10.00"> expiry_</text>
</g>
<!-- Node5 -->
<g id="node5" class="node"><title>Node5</title>
<polygon fill="white" stroke="#bfbfbf" points="340.5,-145.5 340.5,-175.5 444.5,-175.5 444.5,-145.5 340.5,-145.5"/>
<text text-anchor="start" x="348.5" y="-163.5" font-family="Helvetica,sans-Serif" font-size="10.00">std::vector&lt; Uptane</text>
<text text-anchor="middle" x="392.5" y="-152.5" font-family="Helvetica,sans-Serif" font-size="10.00">::Target &gt;</text>
</g>
<!-- Node5&#45;&gt;Node2 -->
<g id="edge4" class="edge"><title>Node5&#45;&gt;Node2</title>
<path fill="none" stroke="#9a32cd" stroke-dasharray="5,2" d="M392.5,-135.091C392.5,-122.214 392.5,-107.197 392.5,-97.8932"/>
<polygon fill="#9a32cd" stroke="#9a32cd" points="389,-135.233 392.5,-145.233 396,-135.233 389,-135.233"/>
<text text-anchor="middle" x="409.5" y="-119" font-family="Helvetica,sans-Serif" font-size="10.00"> targets</text>
</g>
<!-- Node6 -->
<g id="node6" class="node"><title>Node6</title>
<g id="a_node6"><a xlink:href="class_uptane_1_1_target.html" target="_top" xlink:title="Uptane::Target">
<polygon fill="white" stroke="black" points="351.5,-223.5 351.5,-242.5 433.5,-242.5 433.5,-223.5 351.5,-223.5"/>
<text text-anchor="middle" x="392.5" y="-230.5" font-family="Helvetica,sans-Serif" font-size="10.00">Uptane::Target</text>
</a>
</g>
</g>
<!-- Node6&#45;&gt;Node5 -->
<g id="edge5" class="edge"><title>Node6&#45;&gt;Node5</title>
<path fill="none" stroke="#9a32cd" stroke-dasharray="5,2" d="M392.5,-213.236C392.5,-201.408 392.5,-186.383 392.5,-175.576"/>
<polygon fill="#9a32cd" stroke="#9a32cd" points="389,-213.355 392.5,-223.355 396,-213.355 389,-213.355"/>
<text text-anchor="middle" x="414" y="-197" font-family="Helvetica,sans-Serif" font-size="10.00"> elements</text>
</g>
<!-- Node7&#45;&gt;Node1 -->
<g id="edge6" class="edge"><title>Node7&#45;&gt;Node1</title>
<path fill="none" stroke="#9a32cd" stroke-dasharray="5,2" d="M60.631,-70.5324C70.2397,-59.6175 84.2225,-45.9006 99.5,-38 125.639,-24.4826 157.894,-17.7255 184.209,-14.351"/>
<polygon fill="#9a32cd" stroke="#9a32cd" points="57.9476,-68.2853 54.1867,-78.1902 63.3035,-72.7925 57.9476,-68.2853"/>
<text text-anchor="middle" x="137" y="-46.5" font-family="Helvetica,sans-Serif" font-size="10.00"> image_snapshot</text>
</g>
<!-- Node8&#45;&gt;Node1 -->
<g id="edge8" class="edge"><title>Node8&#45;&gt;Node1</title>
<path fill="none" stroke="#9a32cd" stroke-dasharray="5,2" d="M176.156,-68.1784C177.327,-58.3796 180.111,-46.6691 186.5,-38 192.418,-29.97 201.493,-23.9608 210.096,-19.6756"/>
<polygon fill="#9a32cd" stroke="#9a32cd" points="172.664,-67.9334 175.413,-78.1655 179.645,-68.4526 172.664,-67.9334"/>
<text text-anchor="middle" x="227" y="-46.5" font-family="Helvetica,sans-Serif" font-size="10.00"> image_timestamp</text>
</g>
<!-- Node9&#45;&gt;Node1 -->
<g id="edge10" class="edge"><title>Node9&#45;&gt;Node1</title>
<path fill="none" stroke="#9a32cd" stroke-dasharray="5,2" d="M286.216,-69.1834C281.696,-59.3782 275.269,-47.3422 267.5,-38 261.62,-30.9297 253.623,-24.4662 246.861,-19.637"/>
<polygon fill="#9a32cd" stroke="#9a32cd" points="283.019,-70.609 290.213,-78.3874 289.44,-67.8208 283.019,-70.609"/>
<text text-anchor="middle" x="309" y="-52" font-family="Helvetica,sans-Serif" font-size="10.00"> image_root</text>
<text text-anchor="middle" x="309" y="-41" font-family="Helvetica,sans-Serif" font-size="10.00">director_root</text>
</g>
</g>
</svg>
