<?xml version="1.0" encoding="UTF-8" standalone="no"?>
<!DOCTYPE svg PUBLIC "-//W3C//DTD SVG 1.1//EN"
 "http://www.w3.org/Graphics/SVG/1.1/DTD/svg11.dtd">
<!-- Generated by graphviz version 2.38.0 (20140413.2041)
 -->
<!-- Title: Uptane::RawMetaPack Pages: 1 -->
<svg width="146pt" height="218pt"
 viewBox="0.00 0.00 145.50 218.00" xmlns="http://www.w3.org/2000/svg" xmlns:xlink="http://www.w3.org/1999/xlink">
<g id="graph0" class="graph" transform="scale(1 1) rotate(0) translate(4 214)">
<title>Uptane::RawMetaPack</title>
<polygon fill="white" stroke="none" points="-4,4 -4,-214 141.5,-214 141.5,4 -4,4"/>
<!-- Node1 -->
<g id="node1" class="node"><title>Node1</title>
<polygon fill="#bfbfbf" stroke="black" points="0,-0.5 0,-19.5 119,-19.5 119,-0.5 0,-0.5"/>
<text text-anchor="middle" x="59.5" y="-7.5" font-family="Helvetica,sans-Serif" font-size="10.00">Uptane::RawMetaPack</text>
</g>
<!-- Node2 -->
<g id="node2" class="node"><title>Node2</title>
<g id="a_node2"><a xlink:title="STL class. ">
<polygon fill="white" stroke="#bfbfbf" points="29.5,-122.5 29.5,-141.5 89.5,-141.5 89.5,-122.5 29.5,-122.5"/>
<text text-anchor="middle" x="59.5" y="-129.5" font-family="Helvetica,sans-Serif" font-size="10.00">std::string</text>
</a>
</g>
</g>
<!-- Node2&#45;&gt;Node1 -->
<g id="edge1" class="edge"><title>Node2&#45;&gt;Node1</title>
<path fill="none" stroke="#9a32cd" stroke-dasharray="5,2" d="M59.5,-112.145C59.5,-85.7231 59.5,-38.7637 59.5,-19.5519"/>
<polygon fill="#9a32cd" stroke="#9a32cd" points="56.0001,-112.37 59.5,-122.37 63.0001,-112.37 56.0001,-112.37"/>
<text text-anchor="middle" x="98.5" y="-96" font-family="Helvetica,sans-Serif" font-size="10.00"> image_root</text>
<text text-anchor="middle" x="98.5" y="-85" font-family="Helvetica,sans-Serif" font-size="10.00">director_targets</text>
<text text-anchor="middle" x="98.5" y="-74" font-family="Helvetica,sans-Serif" font-size="10.00">director_root</text>
<text text-anchor="middle" x="98.5" y="-63" font-family="Helvetica,sans-Serif" font-size="10.00">image_snapshot</text>
<text text-anchor="middle" x="98.5" y="-52" font-family="Helvetica,sans-Serif" font-size="10.00">image_targets</text>
<text text-anchor="middle" x="98.5" y="-41" font-family="Helvetica,sans-Serif" font-size="10.00">image_timestamp</text>
</g>
<!-- Node3 -->
<g id="node3" class="node"><title>Node3</title>
<g id="a_node3"><a xlink:title="STL class. ">
<polygon fill="white" stroke="#bfbfbf" points="12,-179.5 12,-209.5 107,-209.5 107,-179.5 12,-179.5"/>
<text text-anchor="start" x="20" y="-197.5" font-family="Helvetica,sans-Serif" font-size="10.00">std::basic_string&lt;</text>
<text text-anchor="middle" x="59.5" y="-186.5" font-family="Helvetica,sans-Serif" font-size="10.00"> char &gt;</text>
</a>
</g>
</g>
<!-- Node3&#45;&gt;Node2 -->
<g id="edge2" class="edge"><title>Node3&#45;&gt;Node2</title>
<path fill="none" stroke="midnightblue" d="M59.5,-169.352C59.5,-159.513 59.5,-148.775 59.5,-141.54"/>
<polygon fill="midnightblue" stroke="midnightblue" points="56.0001,-169.468 59.5,-179.468 63.0001,-169.468 56.0001,-169.468"/>
</g>
</g>
</svg>
