<?xml version="1.0" encoding="UTF-8" standalone="no"?>
<!DOCTYPE svg PUBLIC "-//W3C//DTD SVG 1.1//EN"
 "http://www.w3.org/Graphics/SVG/1.1/DTD/svg11.dtd">
<!-- Generated by graphviz version 2.40.1 (20161225.0304)
 -->
<!-- Title: Uptane::DownloadMetaStruct Pages: 1 -->
<svg width="228pt" height="95pt"
 viewBox="0.00 0.00 227.50 95.00" xmlns="http://www.w3.org/2000/svg" xmlns:xlink="http://www.w3.org/1999/xlink">
<g id="graph0" class="graph" transform="scale(1 1) rotate(0) translate(4 91)">
<title>Uptane::DownloadMetaStruct</title>
<polygon fill="#ffffff" stroke="transparent" points="-4,4 -4,-91 223.5,-91 223.5,4 -4,4"/>
<!-- Node1 -->
<g id="node1" class="node">
<title>Node1</title>
<polygon fill="#bfbfbf" stroke="#000000" points="27,-.5 27,-19.5 173,-19.5 173,-.5 27,-.5"/>
<text text-anchor="middle" x="100" y="-7.5" font-family="Helvetica,sans-Serif" font-size="10.00" fill="#000000">Uptane::DownloadMetaStruct</text>
</g>
<!-- Node2 -->
<g id="node2" class="node">
<title>Node2</title>
<g id="a_node2"><a xlink:href="class_uptane_1_1_target.html" target="_top" xlink:title="Uptane::Target">
<polygon fill="#ffffff" stroke="#000000" points="0,-67.5 0,-86.5 82,-86.5 82,-67.5 0,-67.5"/>
<text text-anchor="middle" x="41" y="-74.5" font-family="Helvetica,sans-Serif" font-size="10.00" fill="#000000">Uptane::Target</text>
</a>
</g>
</g>
<!-- Node2&#45;&gt;Node1 -->
<g id="edge1" class="edge">
<title>Node2&#45;&gt;Node1</title>
<path fill="none" stroke="#9a32cd" stroke-dasharray="5,2" d="M56.2214,-59.7147C67.4698,-46.941 82.3684,-30.0224 91.5624,-19.5817"/>
<polygon fill="#9a32cd" stroke="#9a32cd" points="53.4354,-57.5825 49.4533,-67.4005 58.6888,-62.2087 53.4354,-57.5825"/>
<text text-anchor="middle" x="89" y="-41" font-family="Helvetica,sans-Serif" font-size="10.00" fill="#000000"> target</text>
</g>
<!-- Node3 -->
<g id="node3" class="node">
<title>Node3</title>
<g id="a_node3"><a xlink:href="class_storage_target_w_handle.html" target="_top" xlink:title="StorageTargetWHandle">
<polygon fill="#ffffff" stroke="#000000" points="100.5,-67.5 100.5,-86.5 219.5,-86.5 219.5,-67.5 100.5,-67.5"/>
<text text-anchor="middle" x="160" y="-74.5" font-family="Helvetica,sans-Serif" font-size="10.00" fill="#000000">StorageTargetWHandle</text>
</a>
</g>
</g>
<!-- Node3&#45;&gt;Node1 -->
<g id="edge2" class="edge">
<title>Node3&#45;&gt;Node1</title>
<path fill="none" stroke="#9a32cd" stroke-dasharray="5,2" d="M144.5206,-59.7147C133.0815,-46.941 117.9305,-30.0224 108.5806,-19.5817"/>
<polygon fill="#9a32cd" stroke="#9a32cd" points="142.1249,-62.2859 151.4035,-67.4005 147.3396,-57.6161 142.1249,-62.2859"/>
<text text-anchor="middle" x="150.5" y="-41" font-family="Helvetica,sans-Serif" font-size="10.00" fill="#000000"> fhandle</text>
</g>
</g>
</svg>
