<?xml version="1.0" encoding="UTF-8" standalone="no"?>
<!DOCTYPE svg PUBLIC "-//W3C//DTD SVG 1.1//EN"
 "http://www.w3.org/Graphics/SVG/1.1/DTD/svg11.dtd">
<!-- Generated by graphviz version 2.38.0 (20140413.2041)
 -->
<!-- Title: MisconfiguredEcu Pages: 1 -->
<svg width="256pt" height="95pt"
 viewBox="0.00 0.00 256.00 95.00" xmlns="http://www.w3.org/2000/svg" xmlns:xlink="http://www.w3.org/1999/xlink">
<g id="graph0" class="graph" transform="scale(1 1) rotate(0) translate(4 91)">
<title>MisconfiguredEcu</title>
<polygon fill="white" stroke="none" points="-4,4 -4,-91 252,-91 252,4 -4,4"/>
<!-- Node1 -->
<g id="node1" class="node"><title>Node1</title>
<polygon fill="#bfbfbf" stroke="black" points="85.5,-0.5 85.5,-19.5 180.5,-19.5 180.5,-0.5 85.5,-0.5"/>
<text text-anchor="middle" x="133" y="-7.5" font-family="Helvetica,sans-Serif" font-size="10.00">MisconfiguredEcu</text>
</g>
<!-- Node2 -->
<g id="node2" class="node"><title>Node2</title>
<g id="a_node2"><a xlink:href="class_uptane_1_1_hardware_identifier.html" target="_top" xlink:title="Uptane::HardwareIdentifier">
<polygon fill="white" stroke="black" points="0,-67.5 0,-86.5 134,-86.5 134,-67.5 0,-67.5"/>
<text text-anchor="middle" x="67" y="-74.5" font-family="Helvetica,sans-Serif" font-size="10.00">Uptane::HardwareIdentifier</text>
</a>
</g>
</g>
<!-- Node2&#45;&gt;Node1 -->
<g id="edge1" class="edge"><title>Node2&#45;&gt;Node1</title>
<path fill="none" stroke="#9a32cd" stroke-dasharray="5,2" d="M83.2494,-59.9968C96.1927,-47.2496 113.815,-29.8947 124.24,-19.6273"/>
<polygon fill="#9a32cd" stroke="#9a32cd" points="80.57,-57.7232 75.9011,-67.2338 85.4818,-62.7106 80.57,-57.7232"/>
<text text-anchor="middle" x="132" y="-41" font-family="Helvetica,sans-Serif" font-size="10.00"> hardware_id</text>
</g>
<!-- Node3 -->
<g id="node3" class="node"><title>Node3</title>
<g id="a_node3"><a xlink:href="class_uptane_1_1_ecu_serial.html" target="_top" xlink:title="Uptane::EcuSerial">
<polygon fill="white" stroke="black" points="152,-67.5 152,-86.5 248,-86.5 248,-67.5 152,-67.5"/>
<text text-anchor="middle" x="200" y="-74.5" font-family="Helvetica,sans-Serif" font-size="10.00">Uptane::EcuSerial</text>
</a>
</g>
</g>
<!-- Node3&#45;&gt;Node1 -->
<g id="edge2" class="edge"><title>Node3&#45;&gt;Node1</title>
<path fill="none" stroke="#9a32cd" stroke-dasharray="5,2" d="M185.388,-59.8986C178.972,-53.0081 171.26,-44.9624 164,-38 157.304,-31.578 149.414,-24.7157 143.27,-19.5164"/>
<polygon fill="#9a32cd" stroke="#9a32cd" points="182.873,-62.3342 192.22,-67.3229 188.024,-57.5942 182.873,-62.3342"/>
<text text-anchor="middle" x="187.5" y="-41" font-family="Helvetica,sans-Serif" font-size="10.00"> serial</text>
</g>
</g>
</svg>
