<?xml version="1.0" encoding="UTF-8" standalone="no"?>
<!DOCTYPE svg PUBLIC "-//W3C//DTD SVG 1.1//EN"
 "http://www.w3.org/Graphics/SVG/1.1/DTD/svg11.dtd">
<!-- Generated by graphviz version 2.40.1 (20161225.0304)
 -->
<!-- Title: SecondarySendFirmwareOstreeReq Pages: 1 -->
<svg width="228pt" height="178pt"
 viewBox="0.00 0.00 227.64 178.00" xmlns="http://www.w3.org/2000/svg" xmlns:xlink="http://www.w3.org/1999/xlink">
<g id="graph0" class="graph" transform="scale(1 1) rotate(0) translate(4 174)">
<title>SecondarySendFirmwareOstreeReq</title>
<polygon fill="#ffffff" stroke="transparent" points="-4,4 -4,-174 223.6387,-174 223.6387,4 -4,4"/>
<!-- Node2 -->
<g id="node1" class="node">
<title>Node2</title>
<polygon fill="#bfbfbf" stroke="#000000" points="0,-.5 0,-18.5 177.1816,-18.5 177.1816,-.5 0,-.5"/>
<text text-anchor="middle" x="88.5908" y="-6.5" font-family="Helvetica,sans-Serif" font-size="10.00" fill="#000000">SecondarySendFirmwareOstreeReq</text>
</g>
<!-- Node3 -->
<g id="node2" class="node">
<title>Node3</title>
<g id="a_node2"><a xlink:href="struct_secondary_message.html" target="_top" xlink:title="SecondaryMessage">
<polygon fill="#ffffff" stroke="#000000" points="20.3989,-85.5 20.3989,-103.5 124.7827,-103.5 124.7827,-85.5 20.3989,-85.5"/>
<text text-anchor="middle" x="72.5908" y="-91.5" font-family="Helvetica,sans-Serif" font-size="10.00" fill="#000000">SecondaryMessage</text>
</a>
</g>
</g>
<!-- Node3&#45;&gt;Node2 -->
<g id="edge1" class="edge">
<title>Node3&#45;&gt;Node2</title>
<path fill="none" stroke="#191970" d="M76.1545,-75.5682C79.4961,-57.8156 84.348,-32.0398 86.8909,-18.5311"/>
<polygon fill="#191970" stroke="#191970" points="72.7135,-74.9286 74.3031,-85.4035 79.5926,-76.2236 72.7135,-74.9286"/>
</g>
<!-- Node4 -->
<g id="node3" class="node">
<title>Node4</title>
<g id="a_node3"><a xlink:title="STL class. ">
<polygon fill="#ffffff" stroke="#bfbfbf" points="142.916,-85.5 142.916,-103.5 202.2656,-103.5 202.2656,-85.5 142.916,-85.5"/>
<text text-anchor="middle" x="172.5908" y="-91.5" font-family="Helvetica,sans-Serif" font-size="10.00" fill="#000000">std::string</text>
</a>
</g>
</g>
<!-- Node4&#45;&gt;Node2 -->
<g id="edge2" class="edge">
<title>Node4&#45;&gt;Node2</title>
<path fill="none" stroke="#9a32cd" stroke-dasharray="5,2" d="M156.3093,-78.0247C138.7681,-60.2746 111.4952,-32.677 97.5157,-18.5311"/>
<polygon fill="#9a32cd" stroke="#9a32cd" points="154.0827,-80.7509 163.6013,-85.4035 159.0617,-75.8305 154.0827,-80.7509"/>
<text text-anchor="middle" x="163.7139" y="-59" font-family="Helvetica,sans-Serif" font-size="10.00" fill="#000000"> pkey_file</text>
<text text-anchor="middle" x="163.7139" y="-49" font-family="Helvetica,sans-Serif" font-size="10.00" fill="#000000">cert_file</text>
<text text-anchor="middle" x="163.7139" y="-39" font-family="Helvetica,sans-Serif" font-size="10.00" fill="#000000">ca_file</text>
</g>
<!-- Node5 -->
<g id="node4" class="node">
<title>Node5</title>
<g id="a_node4"><a xlink:title="STL class. ">
<polygon fill="#ffffff" stroke="#bfbfbf" points="125.543,-141.5 125.543,-169.5 219.6387,-169.5 219.6387,-141.5 125.543,-141.5"/>
<text text-anchor="start" x="133.543" y="-157.5" font-family="Helvetica,sans-Serif" font-size="10.00" fill="#000000">std::basic_string&lt;</text>
<text text-anchor="middle" x="172.5908" y="-147.5" font-family="Helvetica,sans-Serif" font-size="10.00" fill="#000000"> char &gt;</text>
</a>
</g>
</g>
<!-- Node5&#45;&gt;Node4 -->
<g id="edge3" class="edge">
<title>Node5&#45;&gt;Node4</title>
<path fill="none" stroke="#191970" d="M172.5908,-131.1001C172.5908,-121.5157 172.5908,-111.0935 172.5908,-103.831"/>
<polygon fill="#191970" stroke="#191970" points="169.0909,-131.352 172.5908,-141.3521 176.0909,-131.3521 169.0909,-131.352"/>
</g>
</g>
</svg>
