<?xml version="1.0" encoding="UTF-8" standalone="no"?>
<!DOCTYPE svg PUBLIC "-//W3C//DTD SVG 1.1//EN"
 "http://www.w3.org/Graphics/SVG/1.1/DTD/svg11.dtd">
<!-- Generated by graphviz version 2.38.0 (20140413.2041)
 -->
<!-- Title: NetworkConfig Pages: 1 -->
<svg width="293pt" height="243pt"
 viewBox="0.00 0.00 293.00 243.00" xmlns="http://www.w3.org/2000/svg" xmlns:xlink="http://www.w3.org/1999/xlink">
<g id="graph0" class="graph" transform="scale(1 1) rotate(0) translate(4 239)">
<title>NetworkConfig</title>
<polygon fill="white" stroke="none" points="-4,4 -4,-239 289,-239 289,4 -4,4"/>
<!-- Node1 -->
<g id="node1" class="node"><title>Node1</title>
<polygon fill="#bfbfbf" stroke="black" points="46.5,-0.5 46.5,-19.5 128.5,-19.5 128.5,-0.5 46.5,-0.5"/>
<text text-anchor="middle" x="87.5" y="-7.5" font-family="Helvetica,sans-Serif" font-size="10.00">NetworkConfig</text>
</g>
<!-- Node2 -->
<g id="node2" class="node"><title>Node2</title>
<g id="a_node2"><a xlink:title="STL class. ">
<polygon fill="white" stroke="#bfbfbf" points="17.5,-147.5 17.5,-166.5 77.5,-166.5 77.5,-147.5 17.5,-147.5"/>
<text text-anchor="middle" x="47.5" y="-154.5" font-family="Helvetica,sans-Serif" font-size="10.00">std::string</text>
</a>
</g>
</g>
<!-- Node2&#45;&gt;Node1 -->
<g id="edge1" class="edge"><title>Node2&#45;&gt;Node1</title>
<path fill="none" stroke="#9a32cd" stroke-dasharray="5,2" d="M42.0566,-137.595C37.5653,-119.171 33.1603,-90.2916 41.5,-67 48.5406,-47.3368 65.7921,-29.6279 77.0519,-19.6067"/>
<polygon fill="#9a32cd" stroke="#9a32cd" points="38.7019,-138.598 44.6831,-147.343 45.4608,-136.776 38.7019,-138.598"/>
<text text-anchor="middle" x="96.5" y="-92" font-family="Helvetica,sans-Serif" font-size="10.00"> socket_commands_path</text>
<text text-anchor="middle" x="96.5" y="-81" font-family="Helvetica,sans-Serif" font-size="10.00">socket_events_path</text>
<text text-anchor="middle" x="96.5" y="-70" font-family="Helvetica,sans-Serif" font-size="10.00">ipdiscovery_host</text>
</g>
<!-- Node4 -->
<g id="node4" class="node"><title>Node4</title>
<polygon fill="white" stroke="#bfbfbf" points="160,-74 160,-93 285,-93 285,-74 160,-74"/>
<text text-anchor="middle" x="222.5" y="-81" font-family="Helvetica,sans-Serif" font-size="10.00">std::vector&lt; std::string &gt;</text>
</g>
<!-- Node2&#45;&gt;Node4 -->
<g id="edge4" class="edge"><title>Node2&#45;&gt;Node4</title>
<path fill="none" stroke="#9a32cd" stroke-dasharray="5,2" d="M77.971,-143.55C113.383,-129.082 170.875,-105.593 201.588,-93.0439"/>
<polygon fill="#9a32cd" stroke="#9a32cd" points="76.5425,-140.353 68.6091,-147.375 79.19,-146.833 76.5425,-140.353"/>
<text text-anchor="middle" x="161" y="-121" font-family="Helvetica,sans-Serif" font-size="10.00"> elements</text>
</g>
<!-- Node3 -->
<g id="node3" class="node"><title>Node3</title>
<g id="a_node3"><a xlink:title="STL class. ">
<polygon fill="white" stroke="#bfbfbf" points="0,-204.5 0,-234.5 95,-234.5 95,-204.5 0,-204.5"/>
<text text-anchor="start" x="8" y="-222.5" font-family="Helvetica,sans-Serif" font-size="10.00">std::basic_string&lt;</text>
<text text-anchor="middle" x="47.5" y="-211.5" font-family="Helvetica,sans-Serif" font-size="10.00"> char &gt;</text>
</a>
</g>
</g>
<!-- Node3&#45;&gt;Node2 -->
<g id="edge2" class="edge"><title>Node3&#45;&gt;Node2</title>
<path fill="none" stroke="midnightblue" d="M47.5,-194.352C47.5,-184.513 47.5,-173.775 47.5,-166.54"/>
<polygon fill="midnightblue" stroke="midnightblue" points="44.0001,-194.468 47.5,-204.468 51.0001,-194.468 44.0001,-194.468"/>
</g>
<!-- Node4&#45;&gt;Node1 -->
<g id="edge3" class="edge"><title>Node4&#45;&gt;Node1</title>
<path fill="none" stroke="#9a32cd" stroke-dasharray="5,2" d="M197.246,-69.1247C169.9,-54.6415 127.085,-31.9656 103.842,-19.6552"/>
<polygon fill="#9a32cd" stroke="#9a32cd" points="195.741,-72.288 206.216,-73.8754 199.017,-66.102 195.741,-72.288"/>
<text text-anchor="middle" x="192" y="-41" font-family="Helvetica,sans-Serif" font-size="10.00"> socket_events</text>
</g>
</g>
</svg>
