<?xml version="1.0" encoding="UTF-8" standalone="no"?>
<!DOCTYPE svg PUBLIC "-//W3C//DTD SVG 1.1//EN"
 "http://www.w3.org/Graphics/SVG/1.1/DTD/svg11.dtd">
<!-- Generated by graphviz version 2.38.0 (20140413.2041)
 -->
<!-- Title: Uptane::DownloadMetaStruct Pages: 1 -->
<svg width="412pt" height="152pt"
 viewBox="0.00 0.00 411.50 152.00" xmlns="http://www.w3.org/2000/svg" xmlns:xlink="http://www.w3.org/1999/xlink">
<g id="graph0" class="graph" transform="scale(1 1) rotate(0) translate(4 148)">
<title>Uptane::DownloadMetaStruct</title>
<polygon fill="white" stroke="none" points="-4,4 -4,-148 407.5,-148 407.5,4 -4,4"/>
<!-- Node1 -->
<g id="node1" class="node"><title>Node1</title>
<polygon fill="#bfbfbf" stroke="black" points="131,-0.5 131,-19.5 277,-19.5 277,-0.5 131,-0.5"/>
<text text-anchor="middle" x="204" y="-7.5" font-family="Helvetica,sans-Serif" font-size="10.00">Uptane::DownloadMetaStruct</text>
</g>
<!-- Node2 -->
<g id="node2" class="node"><title>Node2</title>
<g id="a_node2"><a xlink:href="class_multi_part_s_h_a256_hasher.html" target="_top" xlink:title="MultiPartSHA256Hasher">
<polygon fill="white" stroke="black" points="0,-67.5 0,-86.5 124,-86.5 124,-67.5 0,-67.5"/>
<text text-anchor="middle" x="62" y="-74.5" font-family="Helvetica,sans-Serif" font-size="10.00">MultiPartSHA256Hasher</text>
</a>
</g>
</g>
<!-- Node2&#45;&gt;Node1 -->
<g id="edge1" class="edge"><title>Node2&#45;&gt;Node1</title>
<path fill="none" stroke="#9a32cd" stroke-dasharray="5,2" d="M84.4612,-62.2537C97.4915,-54.5844 114.369,-45.1635 130,-38 145.292,-30.992 162.972,-24.4853 177.215,-19.616"/>
<polygon fill="#9a32cd" stroke="#9a32cd" points="82.5163,-59.3385 75.7258,-67.4711 86.1058,-65.3481 82.5163,-59.3385"/>
<text text-anchor="middle" x="165" y="-41" font-family="Helvetica,sans-Serif" font-size="10.00"> sha256_hasher</text>
</g>
<!-- Node3 -->
<g id="node3" class="node"><title>Node3</title>
<g id="a_node3"><a xlink:href="class_multi_part_hasher.html" target="_top" xlink:title="MultiPartHasher">
<polygon fill="white" stroke="black" points="103.5,-124.5 103.5,-143.5 190.5,-143.5 190.5,-124.5 103.5,-124.5"/>
<text text-anchor="middle" x="147" y="-131.5" font-family="Helvetica,sans-Serif" font-size="10.00">MultiPartHasher</text>
</a>
</g>
</g>
<!-- Node3&#45;&gt;Node2 -->
<g id="edge2" class="edge"><title>Node3&#45;&gt;Node2</title>
<path fill="none" stroke="midnightblue" d="M125.092,-118.824C109.299,-108.605 88.5019,-95.1483 75.188,-86.5334"/>
<polygon fill="midnightblue" stroke="midnightblue" points="123.422,-121.912 133.719,-124.406 127.224,-116.035 123.422,-121.912"/>
</g>
<!-- Node4 -->
<g id="node4" class="node"><title>Node4</title>
<g id="a_node4"><a xlink:href="class_multi_part_s_h_a512_hasher.html" target="_top" xlink:title="MultiPartSHA512Hasher">
<polygon fill="white" stroke="black" points="142,-67.5 142,-86.5 266,-86.5 266,-67.5 142,-67.5"/>
<text text-anchor="middle" x="204" y="-74.5" font-family="Helvetica,sans-Serif" font-size="10.00">MultiPartSHA512Hasher</text>
</a>
</g>
</g>
<!-- Node3&#45;&gt;Node4 -->
<g id="edge4" class="edge"><title>Node3&#45;&gt;Node4</title>
<path fill="none" stroke="midnightblue" d="M163.151,-117.416C173.459,-107.469 186.441,-94.9431 194.968,-86.7149"/>
<polygon fill="midnightblue" stroke="midnightblue" points="160.672,-114.944 155.906,-124.406 165.533,-119.981 160.672,-114.944"/>
</g>
<!-- Node4&#45;&gt;Node1 -->
<g id="edge3" class="edge"><title>Node4&#45;&gt;Node1</title>
<path fill="none" stroke="#9a32cd" stroke-dasharray="5,2" d="M204,-57.037C204,-44.6703 204,-29.1198 204,-19.6273"/>
<polygon fill="#9a32cd" stroke="#9a32cd" points="200.5,-57.2338 204,-67.2338 207.5,-57.2338 200.5,-57.2338"/>
<text text-anchor="middle" x="239" y="-41" font-family="Helvetica,sans-Serif" font-size="10.00"> sha512_hasher</text>
</g>
<!-- Node5 -->
<g id="node5" class="node"><title>Node5</title>
<g id="a_node5"><a xlink:href="class_storage_target_w_handle.html" target="_top" xlink:title="StorageTargetWHandle">
<polygon fill="white" stroke="black" points="284.5,-67.5 284.5,-86.5 403.5,-86.5 403.5,-67.5 284.5,-67.5"/>
<text text-anchor="middle" x="344" y="-74.5" font-family="Helvetica,sans-Serif" font-size="10.00">StorageTargetWHandle</text>
</a>
</g>
</g>
<!-- Node5&#45;&gt;Node1 -->
<g id="edge5" class="edge"><title>Node5&#45;&gt;Node1</title>
<path fill="none" stroke="#9a32cd" stroke-dasharray="5,2" d="M321.88,-61.982C309.3,-54.3391 293.089,-45.0323 278,-38 262.753,-30.8942 245.075,-24.3837 230.821,-19.5368"/>
<polygon fill="#9a32cd" stroke="#9a32cd" points="320.366,-65.1607 330.714,-67.4371 324.044,-59.2048 320.366,-65.1607"/>
<text text-anchor="middle" x="316.5" y="-41" font-family="Helvetica,sans-Serif" font-size="10.00"> fhandle</text>
</g>
</g>
</svg>
