<?xml version="1.0" encoding="UTF-8" standalone="no"?>
<!DOCTYPE svg PUBLIC "-//W3C//DTD SVG 1.1//EN"
 "http://www.w3.org/Graphics/SVG/1.1/DTD/svg11.dtd">
<!-- Generated by graphviz version 2.38.0 (20140413.2041)
 -->
<!-- Title: archive_state Pages: 1 -->
<svg width="248pt" height="277pt"
 viewBox="0.00 0.00 248.00 277.00" xmlns="http://www.w3.org/2000/svg" xmlns:xlink="http://www.w3.org/1999/xlink">
<g id="graph0" class="graph" transform="scale(1 1) rotate(0) translate(4 273)">
<title>archive_state</title>
<polygon fill="white" stroke="none" points="-4,4 -4,-273 244,-273 244,4 -4,4"/>
<!-- Node1 -->
<g id="node1" class="node"><title>Node1</title>
<polygon fill="#bfbfbf" stroke="black" points="66.5,-0.5 66.5,-19.5 141.5,-19.5 141.5,-0.5 66.5,-0.5"/>
<text text-anchor="middle" x="104" y="-7.5" font-family="Helvetica,sans-Serif" font-size="10.00">archive_state</text>
</g>
<!-- Node2 -->
<g id="node2" class="node"><title>Node2</title>
<polygon fill="white" stroke="#bfbfbf" points="0,-67.5 0,-86.5 130,-86.5 130,-67.5 0,-67.5"/>
<text text-anchor="middle" x="65" y="-74.5" font-family="Helvetica,sans-Serif" font-size="10.00">std::array&lt; char, BSIZE &gt;</text>
</g>
<!-- Node2&#45;&gt;Node1 -->
<g id="edge1" class="edge"><title>Node2&#45;&gt;Node1</title>
<path fill="none" stroke="#9a32cd" stroke-dasharray="5,2" d="M75.4792,-58.5347C83.0301,-45.9499 92.8957,-29.5072 98.8236,-19.6273"/>
<polygon fill="#9a32cd" stroke="#9a32cd" points="72.4035,-56.8581 70.2597,-67.2338 78.4059,-60.4596 72.4035,-56.8581"/>
<text text-anchor="middle" x="94.5" y="-41" font-family="Helvetica,sans-Serif" font-size="10.00"> buf</text>
</g>
<!-- Node3 -->
<g id="node3" class="node"><title>Node3</title>
<g id="a_node3"><a xlink:title="STL class. ">
<polygon fill="white" stroke="#bfbfbf" points="148,-67.5 148,-86.5 216,-86.5 216,-67.5 148,-67.5"/>
<text text-anchor="middle" x="182" y="-74.5" font-family="Helvetica,sans-Serif" font-size="10.00">std::istream</text>
</a>
</g>
</g>
<!-- Node3&#45;&gt;Node1 -->
<g id="edge2" class="edge"><title>Node3&#45;&gt;Node1</title>
<path fill="none" stroke="#9a32cd" stroke-dasharray="5,2" d="M163.656,-60.7134C148.288,-47.907 126.906,-30.0884 114.353,-19.6273"/>
<polygon fill="#9a32cd" stroke="#9a32cd" points="161.558,-63.5207 171.481,-67.2338 166.039,-58.1431 161.558,-63.5207"/>
<text text-anchor="middle" x="152.5" y="-41" font-family="Helvetica,sans-Serif" font-size="10.00"> is</text>
</g>
<!-- Node4 -->
<g id="node4" class="node"><title>Node4</title>
<g id="a_node4"><a xlink:title="STL class. ">
<polygon fill="white" stroke="#bfbfbf" points="133.5,-124.5 133.5,-154.5 230.5,-154.5 230.5,-124.5 133.5,-124.5"/>
<text text-anchor="start" x="141.5" y="-142.5" font-family="Helvetica,sans-Serif" font-size="10.00">std::basic_istream</text>
<text text-anchor="middle" x="182" y="-131.5" font-family="Helvetica,sans-Serif" font-size="10.00">&lt; char &gt;</text>
</a>
</g>
</g>
<!-- Node4&#45;&gt;Node3 -->
<g id="edge3" class="edge"><title>Node4&#45;&gt;Node3</title>
<path fill="none" stroke="midnightblue" d="M182,-114.352C182,-104.513 182,-93.7753 182,-86.5399"/>
<polygon fill="midnightblue" stroke="midnightblue" points="178.5,-114.468 182,-124.468 185.5,-114.468 178.5,-114.468"/>
</g>
<!-- Node5 -->
<g id="node5" class="node"><title>Node5</title>
<g id="a_node5"><a xlink:title="STL class. ">
<polygon fill="white" stroke="#bfbfbf" points="124,-192.5 124,-211.5 240,-211.5 240,-192.5 124,-192.5"/>
<text text-anchor="middle" x="182" y="-199.5" font-family="Helvetica,sans-Serif" font-size="10.00">std::basic_ios&lt; Char &gt;</text>
</a>
</g>
</g>
<!-- Node5&#45;&gt;Node4 -->
<g id="edge4" class="edge"><title>Node5&#45;&gt;Node4</title>
<path fill="none" stroke="midnightblue" d="M182,-182.215C182,-173.356 182,-162.958 182,-154.759"/>
<polygon fill="midnightblue" stroke="midnightblue" points="178.5,-182.332 182,-192.332 185.5,-182.332 178.5,-182.332"/>
</g>
<!-- Node6 -->
<g id="node6" class="node"><title>Node6</title>
<g id="a_node6"><a xlink:title="STL class. ">
<polygon fill="white" stroke="#bfbfbf" points="144.5,-249.5 144.5,-268.5 219.5,-268.5 219.5,-249.5 144.5,-249.5"/>
<text text-anchor="middle" x="182" y="-256.5" font-family="Helvetica,sans-Serif" font-size="10.00">std::ios_base</text>
</a>
</g>
</g>
<!-- Node6&#45;&gt;Node5 -->
<g id="edge5" class="edge"><title>Node6&#45;&gt;Node5</title>
<path fill="none" stroke="midnightblue" d="M182,-239.117C182,-229.817 182,-219.056 182,-211.715"/>
<polygon fill="midnightblue" stroke="midnightblue" points="178.5,-239.406 182,-249.406 185.5,-239.406 178.5,-239.406"/>
</g>
</g>
</svg>
