<?xml version="1.0" encoding="UTF-8" standalone="no"?>
<!DOCTYPE svg PUBLIC "-//W3C//DTD SVG 1.1//EN"
 "http://www.w3.org/Graphics/SVG/1.1/DTD/svg11.dtd">
<!-- Generated by graphviz version 2.40.1 (20161225.0304)
 -->
<!-- Title: Uptane::DownloadMetaStruct Pages: 1 -->
<svg width="333pt" height="95pt"
 viewBox="0.00 0.00 332.50 95.00" xmlns="http://www.w3.org/2000/svg" xmlns:xlink="http://www.w3.org/1999/xlink">
<g id="graph0" class="graph" transform="scale(1 1) rotate(0) translate(4 91)">
<title>Uptane::DownloadMetaStruct</title>
<polygon fill="#ffffff" stroke="transparent" points="-4,4 -4,-91 328.5,-91 328.5,4 -4,4"/>
<!-- Node1 -->
<g id="node1" class="node">
<title>Node1</title>
<polygon fill="#bfbfbf" stroke="#000000" points="71,-.5 71,-19.5 217,-19.5 217,-.5 71,-.5"/>
<text text-anchor="middle" x="144" y="-7.5" font-family="Helvetica,sans-Serif" font-size="10.00" fill="#000000">Uptane::DownloadMetaStruct</text>
</g>
<!-- Node2 -->
<g id="node2" class="node">
<title>Node2</title>
<g id="a_node2"><a xlink:href="class_uptane_1_1_target.html" target="_top" xlink:title="Uptane::Target">
<polygon fill="#ffffff" stroke="#000000" points="0,-67.5 0,-86.5 82,-86.5 82,-67.5 0,-67.5"/>
<text text-anchor="middle" x="41" y="-74.5" font-family="Helvetica,sans-Serif" font-size="10.00" fill="#000000">Uptane::Target</text>
</a>
</g>
</g>
<!-- Node2&#45;&gt;Node1 -->
<g id="edge1" class="edge">
<title>Node2&#45;&gt;Node1</title>
<path fill="none" stroke="#9a32cd" stroke-dasharray="5,2" d="M64.272,-61.8619C84.205,-48.8957 112.3022,-30.619 129.27,-19.5817"/>
<polygon fill="#9a32cd" stroke="#9a32cd" points="62.2315,-59.0138 55.7574,-67.4005 66.0485,-64.8817 62.2315,-59.0138"/>
<text text-anchor="middle" x="113" y="-41" font-family="Helvetica,sans-Serif" font-size="10.00" fill="#000000"> target</text>
</g>
<!-- Node3 -->
<g id="node3" class="node">
<title>Node3</title>
<g id="a_node3"><a xlink:href="class_uptane_1_1_fetcher.html" target="_top" xlink:title="Uptane::Fetcher">
<polygon fill="#ffffff" stroke="#000000" points="100.5,-67.5 100.5,-86.5 187.5,-86.5 187.5,-67.5 100.5,-67.5"/>
<text text-anchor="middle" x="144" y="-74.5" font-family="Helvetica,sans-Serif" font-size="10.00" fill="#000000">Uptane::Fetcher</text>
</a>
</g>
</g>
<!-- Node3&#45;&gt;Node1 -->
<g id="edge2" class="edge">
<title>Node3&#45;&gt;Node1</title>
<path fill="none" stroke="#9a32cd" stroke-dasharray="5,2" d="M144,-57.1079C144,-44.714 144,-29.3263 144,-19.5817"/>
<polygon fill="#9a32cd" stroke="#9a32cd" points="140.5001,-57.4005 144,-67.4005 147.5001,-57.4006 140.5001,-57.4005"/>
<text text-anchor="middle" x="161" y="-41" font-family="Helvetica,sans-Serif" font-size="10.00" fill="#000000"> fetcher</text>
</g>
<!-- Node4 -->
<g id="node4" class="node">
<title>Node4</title>
<g id="a_node4"><a xlink:href="class_storage_target_w_handle.html" target="_top" xlink:title="StorageTargetWHandle">
<polygon fill="#ffffff" stroke="#000000" points="205.5,-67.5 205.5,-86.5 324.5,-86.5 324.5,-67.5 205.5,-67.5"/>
<text text-anchor="middle" x="265" y="-74.5" font-family="Helvetica,sans-Serif" font-size="10.00" fill="#000000">StorageTargetWHandle</text>
</a>
</g>
</g>
<!-- Node4&#45;&gt;Node1 -->
<g id="edge3" class="edge">
<title>Node4&#45;&gt;Node1</title>
<path fill="none" stroke="#9a32cd" stroke-dasharray="5,2" d="M238.605,-62.3846C215.139,-49.391 181.5066,-30.7681 161.3042,-19.5817"/>
<polygon fill="#9a32cd" stroke="#9a32cd" points="237.2198,-65.6183 247.6637,-67.4005 240.6107,-59.4944 237.2198,-65.6183"/>
<text text-anchor="middle" x="228.5" y="-41" font-family="Helvetica,sans-Serif" font-size="10.00" fill="#000000"> fhandle</text>
</g>
</g>
</svg>
