<?xml version="1.0" encoding="UTF-8" standalone="no"?>
<!DOCTYPE svg PUBLIC "-//W3C//DTD SVG 1.1//EN"
 "http://www.w3.org/Graphics/SVG/1.1/DTD/svg11.dtd">
<!-- Generated by graphviz version 2.38.0 (20140413.2041)
 -->
<!-- Title: UptaneConfig Pages: 1 -->
<svg width="197pt" height="363pt"
 viewBox="0.00 0.00 197.00 363.00" xmlns="http://www.w3.org/2000/svg" xmlns:xlink="http://www.w3.org/1999/xlink">
<g id="graph0" class="graph" transform="scale(1 1) rotate(0) translate(4 359)">
<title>UptaneConfig</title>
<polygon fill="white" stroke="none" points="-4,4 -4,-359 193,-359 193,4 -4,4"/>
<!-- Node1 -->
<g id="node1" class="node"><title>Node1</title>
<polygon fill="#bfbfbf" stroke="black" points="22,-0.5 22,-19.5 99,-19.5 99,-0.5 22,-0.5"/>
<text text-anchor="middle" x="60.5" y="-7.5" font-family="Helvetica,sans-Serif" font-size="10.00">UptaneConfig</text>
</g>
<!-- Node2 -->
<g id="node2" class="node"><title>Node2</title>
<g id="a_node2"><a xlink:title="STL class. ">
<polygon fill="white" stroke="#bfbfbf" points="17.5,-267.5 17.5,-286.5 77.5,-286.5 77.5,-267.5 17.5,-267.5"/>
<text text-anchor="middle" x="47.5" y="-274.5" font-family="Helvetica,sans-Serif" font-size="10.00">std::string</text>
</a>
</g>
</g>
<!-- Node2&#45;&gt;Node1 -->
<g id="edge1" class="edge"><title>Node2&#45;&gt;Node1</title>
<path fill="none" stroke="#9a32cd" stroke-dasharray="5,2" d="M47.4956,-257.001C47.6288,-220.244 48.6221,-136.859 54.5,-67 55.9101,-50.2413 58.1339,-30.7228 59.4414,-19.7181"/>
<polygon fill="#9a32cd" stroke="#9a32cd" points="43.9953,-257.215 47.4774,-267.221 50.9953,-257.227 43.9953,-257.215"/>
<text text-anchor="middle" x="84" y="-130" font-family="Helvetica,sans-Serif" font-size="10.00"> repo_server</text>
<text text-anchor="middle" x="84" y="-119" font-family="Helvetica,sans-Serif" font-size="10.00">director_server</text>
</g>
<!-- Node5 -->
<g id="node5" class="node"><title>Node5</title>
<g id="a_node5"><a xlink:href="class_uptane_1_1_secondary_config.html" target="_top" xlink:title="Uptane::SecondaryConfig">
<polygon fill="white" stroke="black" points="60,-156.5 60,-175.5 189,-175.5 189,-156.5 60,-156.5"/>
<text text-anchor="middle" x="124.5" y="-163.5" font-family="Helvetica,sans-Serif" font-size="10.00">Uptane::SecondaryConfig</text>
</a>
</g>
</g>
<!-- Node2&#45;&gt;Node5 -->
<g id="edge5" class="edge"><title>Node2&#45;&gt;Node5</title>
<path fill="none" stroke="#9a32cd" stroke-dasharray="5,2" d="M59.43,-259.112C76.1171,-235.49 105.804,-193.466 118.486,-175.513"/>
<polygon fill="#9a32cd" stroke="#9a32cd" points="56.4532,-257.26 53.5421,-267.447 62.1705,-261.299 56.4532,-257.26"/>
<text text-anchor="middle" x="142" y="-241" font-family="Helvetica,sans-Serif" font-size="10.00"> ecu_private_key</text>
<text text-anchor="middle" x="142" y="-230" font-family="Helvetica,sans-Serif" font-size="10.00">ecu_hardware_id</text>
<text text-anchor="middle" x="142" y="-219" font-family="Helvetica,sans-Serif" font-size="10.00">ecu_serial</text>
<text text-anchor="middle" x="142" y="-208" font-family="Helvetica,sans-Serif" font-size="10.00">opcua_lds_url</text>
<text text-anchor="middle" x="142" y="-197" font-family="Helvetica,sans-Serif" font-size="10.00">ecu_public_key</text>
</g>
<!-- Node3 -->
<g id="node3" class="node"><title>Node3</title>
<g id="a_node3"><a xlink:title="STL class. ">
<polygon fill="white" stroke="#bfbfbf" points="0,-324.5 0,-354.5 95,-354.5 95,-324.5 0,-324.5"/>
<text text-anchor="start" x="8" y="-342.5" font-family="Helvetica,sans-Serif" font-size="10.00">std::basic_string&lt;</text>
<text text-anchor="middle" x="47.5" y="-331.5" font-family="Helvetica,sans-Serif" font-size="10.00"> char &gt;</text>
</a>
</g>
</g>
<!-- Node3&#45;&gt;Node2 -->
<g id="edge2" class="edge"><title>Node3&#45;&gt;Node2</title>
<path fill="none" stroke="midnightblue" d="M47.5,-314.352C47.5,-304.513 47.5,-293.775 47.5,-286.54"/>
<polygon fill="midnightblue" stroke="midnightblue" points="44.0001,-314.468 47.5,-324.468 51.0001,-314.468 44.0001,-314.468"/>
</g>
<!-- Node4 -->
<g id="node4" class="node"><title>Node4</title>
<polygon fill="white" stroke="#bfbfbf" points="64,-67.5 64,-97.5 171,-97.5 171,-67.5 64,-67.5"/>
<text text-anchor="start" x="72" y="-85.5" font-family="Helvetica,sans-Serif" font-size="10.00">std::vector&lt; Uptane</text>
<text text-anchor="middle" x="117.5" y="-74.5" font-family="Helvetica,sans-Serif" font-size="10.00">::SecondaryConfig &gt;</text>
</g>
<!-- Node4&#45;&gt;Node1 -->
<g id="edge3" class="edge"><title>Node4&#45;&gt;Node1</title>
<path fill="none" stroke="#9a32cd" stroke-dasharray="5,2" d="M99.6194,-59.3845C88.8271,-46.0362 75.6641,-29.7556 67.6902,-19.8932"/>
<polygon fill="#9a32cd" stroke="#9a32cd" points="96.9562,-61.6575 105.965,-67.2333 102.4,-57.2564 96.9562,-61.6575"/>
<text text-anchor="middle" x="134" y="-41" font-family="Helvetica,sans-Serif" font-size="10.00"> secondary_configs</text>
</g>
<!-- Node5&#45;&gt;Node4 -->
<g id="edge4" class="edge"><title>Node5&#45;&gt;Node4</title>
<path fill="none" stroke="#9a32cd" stroke-dasharray="5,2" d="M122.888,-146.229C121.615,-131.408 119.866,-111.051 118.711,-97.5974"/>
<polygon fill="#9a32cd" stroke="#9a32cd" points="119.408,-146.614 123.751,-156.278 126.382,-146.015 119.408,-146.614"/>
<text text-anchor="middle" x="144" y="-124.5" font-family="Helvetica,sans-Serif" font-size="10.00"> elements</text>
</g>
</g>
</svg>
