<?xml version="1.0" encoding="UTF-8" standalone="no"?>
<!DOCTYPE svg PUBLIC "-//W3C//DTD SVG 1.1//EN"
 "http://www.w3.org/Graphics/SVG/1.1/DTD/svg11.dtd">
<!-- Generated by graphviz version 2.40.1 (20161225.0304)
 -->
<!-- Title: SecondaryPacket Pages: 1 -->
<svg width="147pt" height="167pt"
 viewBox="0.00 0.00 146.58 167.00" xmlns="http://www.w3.org/2000/svg" xmlns:xlink="http://www.w3.org/1999/xlink">
<g id="graph0" class="graph" transform="scale(1 1) rotate(0) translate(4 163)">
<title>SecondaryPacket</title>
<polygon fill="#ffffff" stroke="transparent" points="-4,4 -4,-163 142.583,-163 142.583,4 -4,4"/>
<!-- Node1 -->
<g id="node1" class="node">
<title>Node1</title>
<polygon fill="#bfbfbf" stroke="#000000" points="22.1021,-.5 22.1021,-18.5 116.481,-18.5 116.481,-.5 22.1021,-.5"/>
<text text-anchor="middle" x="69.2915" y="-6.5" font-family="Helvetica,sans-Serif" font-size="10.00" fill="#000000">SecondaryPacket</text>
</g>
<!-- Node2 -->
<g id="node2" class="node">
<title>Node2</title>
<polygon fill="#ffffff" stroke="#bfbfbf" points="0,-65.5 0,-93.5 138.583,-93.5 138.583,-65.5 0,-65.5"/>
<text text-anchor="start" x="8" y="-81.5" font-family="Helvetica,sans-Serif" font-size="10.00" fill="#000000">std::unique_ptr&lt; Secondary</text>
<text text-anchor="middle" x="69.2915" y="-71.5" font-family="Helvetica,sans-Serif" font-size="10.00" fill="#000000">Message &gt;</text>
</g>
<!-- Node2&#45;&gt;Node1 -->
<g id="edge1" class="edge">
<title>Node2&#45;&gt;Node1</title>
<path fill="none" stroke="#9a32cd" stroke-dasharray="5,2" d="M69.2915,-55.007C69.2915,-42.4648 69.2915,-27.9386 69.2915,-18.7368"/>
<polygon fill="#9a32cd" stroke="#9a32cd" points="65.7916,-55.3344 69.2915,-65.3345 72.7916,-55.3345 65.7916,-55.3344"/>
<text text-anchor="middle" x="80.1265" y="-39" font-family="Helvetica,sans-Serif" font-size="10.00" fill="#000000"> msg</text>
</g>
<!-- Node3 -->
<g id="node3" class="node">
<title>Node3</title>
<g id="a_node3"><a xlink:href="struct_secondary_message.html" target="_top" xlink:title="SecondaryMessage">
<polygon fill="#ffffff" stroke="#000000" points="17.0996,-140.5 17.0996,-158.5 121.4834,-158.5 121.4834,-140.5 17.0996,-140.5"/>
<text text-anchor="middle" x="69.2915" y="-146.5" font-family="Helvetica,sans-Serif" font-size="10.00" fill="#000000">SecondaryMessage</text>
</a>
</g>
</g>
<!-- Node3&#45;&gt;Node2 -->
<g id="edge2" class="edge">
<title>Node3&#45;&gt;Node2</title>
<path fill="none" stroke="#9a32cd" stroke-dasharray="5,2" d="M69.2915,-130.0243C69.2915,-118.5169 69.2915,-104.2016 69.2915,-93.7499"/>
<polygon fill="#9a32cd" stroke="#9a32cd" points="65.7916,-130.3487 69.2915,-140.3487 72.7916,-130.3488 65.7916,-130.3487"/>
<text text-anchor="middle" x="76.5156" y="-114" font-family="Helvetica,sans-Serif" font-size="10.00" fill="#000000"> ptr</text>
</g>
</g>
</svg>
