<?xml version="1.0" encoding="UTF-8" standalone="no"?>
<!DOCTYPE svg PUBLIC "-//W3C//DTD SVG 1.1//EN"
 "http://www.w3.org/Graphics/SVG/1.1/DTD/svg11.dtd">
<!-- Generated by graphviz version 2.40.1 (20161225.0304)
 -->
<!-- Title: Uptane::MetaPack Pages: 1 -->
<svg width="453pt" height="251pt"
 viewBox="0.00 0.00 452.50 251.00" xmlns="http://www.w3.org/2000/svg" xmlns:xlink="http://www.w3.org/1999/xlink">
<g id="graph0" class="graph" transform="scale(1 1) rotate(0) translate(4 247)">
<title>Uptane::MetaPack</title>
<polygon fill="#ffffff" stroke="transparent" points="-4,4 -4,-247 448.5,-247 448.5,4 -4,4"/>
<!-- Node1 -->
<g id="node1" class="node">
<title>Node1</title>
<polygon fill="#bfbfbf" stroke="#000000" points="185.5,-.5 185.5,-19.5 283.5,-19.5 283.5,-.5 185.5,-.5"/>
<text text-anchor="middle" x="234.5" y="-7.5" font-family="Helvetica,sans-Serif" font-size="10.00" fill="#000000">Uptane::MetaPack</text>
</g>
<!-- Node2 -->
<g id="node2" class="node">
<title>Node2</title>
<g id="a_node2"><a xlink:href="class_uptane_1_1_targets.html" target="_top" xlink:title="Uptane::Targets">
<polygon fill="#ffffff" stroke="#000000" points="349,-78.5 349,-97.5 436,-97.5 436,-78.5 349,-78.5"/>
<text text-anchor="middle" x="392.5" y="-85.5" font-family="Helvetica,sans-Serif" font-size="10.00" fill="#000000">Uptane::Targets</text>
</a>
</g>
</g>
<!-- Node2&#45;&gt;Node1 -->
<g id="edge1" class="edge">
<title>Node2&#45;&gt;Node1</title>
<path fill="none" stroke="#9a32cd" stroke-dasharray="5,2" d="M378.6091,-70.7137C368.9887,-59.8287 355.2904,-46.3125 340.5,-38 323.1603,-28.2548 302.3141,-21.8 283.7134,-17.5732"/>
<polygon fill="#9a32cd" stroke="#9a32cd" points="375.9849,-73.0307 385.1215,-78.3947 381.3241,-68.5038 375.9849,-73.0307"/>
<text text-anchor="middle" x="403" y="-52" font-family="Helvetica,sans-Serif" font-size="10.00" fill="#000000"> director_targets</text>
<text text-anchor="middle" x="403" y="-41" font-family="Helvetica,sans-Serif" font-size="10.00" fill="#000000">image_targets</text>
</g>
<!-- Node3 -->
<g id="node3" class="node">
<title>Node3</title>
<g id="a_node3"><a xlink:href="class_uptane_1_1_base_meta.html" target="_top" xlink:title="Uptane::BaseMeta">
<polygon fill="#ffffff" stroke="#000000" points="196.5,-151 196.5,-170 294.5,-170 294.5,-151 196.5,-151"/>
<text text-anchor="middle" x="245.5" y="-158" font-family="Helvetica,sans-Serif" font-size="10.00" fill="#000000">Uptane::BaseMeta</text>
</a>
</g>
</g>
<!-- Node3&#45;&gt;Node2 -->
<g id="edge2" class="edge">
<title>Node3&#45;&gt;Node2</title>
<path fill="none" stroke="#191970" d="M274.2646,-146.3134C303.3761,-131.9557 347.5982,-110.1454 372.8988,-97.6673"/>
<polygon fill="#191970" stroke="#191970" points="272.4409,-143.3103 265.0205,-150.8726 275.5372,-149.5882 272.4409,-143.3103"/>
</g>
<!-- Node7 -->
<g id="node7" class="node">
<title>Node7</title>
<g id="a_node7"><a xlink:href="class_uptane_1_1_snapshot.html" target="_top" xlink:title="Uptane::Snapshot">
<polygon fill="#ffffff" stroke="#000000" points="0,-78.5 0,-97.5 95,-97.5 95,-78.5 0,-78.5"/>
<text text-anchor="middle" x="47.5" y="-85.5" font-family="Helvetica,sans-Serif" font-size="10.00" fill="#000000">Uptane::Snapshot</text>
</a>
</g>
</g>
<!-- Node3&#45;&gt;Node7 -->
<g id="edge7" class="edge">
<title>Node3&#45;&gt;Node7</title>
<path fill="none" stroke="#191970" d="M209.7546,-147.4114C170.5225,-133.0461 108.4881,-110.3315 73.5863,-97.5518"/>
<polygon fill="#191970" stroke="#191970" points="208.6134,-150.7207 219.2071,-150.8726 211.0203,-144.1475 208.6134,-150.7207"/>
</g>
<!-- Node8 -->
<g id="node8" class="node">
<title>Node8</title>
<g id="a_node8"><a xlink:href="class_uptane_1_1_timestamp_meta.html" target="_top" xlink:title="Uptane::TimestampMeta">
<polygon fill="#ffffff" stroke="#000000" points="113,-78.5 113,-97.5 238,-97.5 238,-78.5 113,-78.5"/>
<text text-anchor="middle" x="175.5" y="-85.5" font-family="Helvetica,sans-Serif" font-size="10.00" fill="#000000">Uptane::TimestampMeta</text>
</a>
</g>
</g>
<!-- Node3&#45;&gt;Node8 -->
<g id="edge9" class="edge">
<title>Node3&#45;&gt;Node8</title>
<path fill="none" stroke="#191970" d="M229.0375,-143.4495C215.246,-129.1655 196.0567,-109.2909 184.7909,-97.6228"/>
<polygon fill="#191970" stroke="#191970" points="226.5956,-145.9594 236.0595,-150.7223 231.6314,-141.0972 226.5956,-145.9594"/>
</g>
<!-- Node9 -->
<g id="node9" class="node">
<title>Node9</title>
<g id="a_node9"><a xlink:href="class_uptane_1_1_root.html" target="_top" xlink:title="Uptane::Root">
<polygon fill="#ffffff" stroke="#000000" points="256,-78.5 256,-97.5 331,-97.5 331,-78.5 256,-78.5"/>
<text text-anchor="middle" x="293.5" y="-85.5" font-family="Helvetica,sans-Serif" font-size="10.00" fill="#000000">Uptane::Root</text>
</a>
</g>
</g>
<!-- Node3&#45;&gt;Node9 -->
<g id="edge11" class="edge">
<title>Node3&#45;&gt;Node9</title>
<path fill="none" stroke="#191970" d="M257.585,-142.2466C266.9724,-128.0677 279.6185,-108.9668 287.1291,-97.6228"/>
<polygon fill="#191970" stroke="#191970" points="254.5756,-140.452 251.9735,-150.7223 260.4123,-144.3163 254.5756,-140.452"/>
</g>
<!-- Node4 -->
<g id="node4" class="node">
<title>Node4</title>
<g id="a_node4"><a xlink:href="class_uptane_1_1_time_stamp.html" target="_top" xlink:title="Uptane::TimeStamp">
<polygon fill="#ffffff" stroke="#000000" points="193.5,-223.5 193.5,-242.5 297.5,-242.5 297.5,-223.5 193.5,-223.5"/>
<text text-anchor="middle" x="245.5" y="-230.5" font-family="Helvetica,sans-Serif" font-size="10.00" fill="#000000">Uptane::TimeStamp</text>
</a>
</g>
</g>
<!-- Node4&#45;&gt;Node3 -->
<g id="edge3" class="edge">
<title>Node4&#45;&gt;Node3</title>
<path fill="none" stroke="#9a32cd" stroke-dasharray="5,2" d="M245.5,-213.1054C245.5,-199.1237 245.5,-181.0346 245.5,-170.1228"/>
<polygon fill="#9a32cd" stroke="#9a32cd" points="242.0001,-213.2223 245.5,-223.2223 249.0001,-213.2224 242.0001,-213.2223"/>
<text text-anchor="middle" x="263" y="-197" font-family="Helvetica,sans-Serif" font-size="10.00" fill="#000000"> expiry_</text>
</g>
<!-- Node5 -->
<g id="node5" class="node">
<title>Node5</title>
<polygon fill="#ffffff" stroke="#bfbfbf" points="340.5,-145.5 340.5,-175.5 444.5,-175.5 444.5,-145.5 340.5,-145.5"/>
<text text-anchor="start" x="348.5" y="-163.5" font-family="Helvetica,sans-Serif" font-size="10.00" fill="#000000">std::vector&lt; Uptane</text>
<text text-anchor="middle" x="392.5" y="-152.5" font-family="Helvetica,sans-Serif" font-size="10.00" fill="#000000">::Target &gt;</text>
</g>
<!-- Node5&#45;&gt;Node2 -->
<g id="edge4" class="edge">
<title>Node5&#45;&gt;Node2</title>
<path fill="none" stroke="#9a32cd" stroke-dasharray="5,2" d="M392.5,-135.305C392.5,-122.424 392.5,-107.4836 392.5,-97.8957"/>
<polygon fill="#9a32cd" stroke="#9a32cd" points="389.0001,-135.4779 392.5,-145.478 396.0001,-135.478 389.0001,-135.4779"/>
<text text-anchor="middle" x="409.5" y="-119" font-family="Helvetica,sans-Serif" font-size="10.00" fill="#000000"> targets</text>
</g>
<!-- Node6 -->
<g id="node6" class="node">
<title>Node6</title>
<g id="a_node6"><a xlink:href="class_uptane_1_1_target.html" target="_top" xlink:title="Uptane::Target">
<polygon fill="#ffffff" stroke="#000000" points="351.5,-223.5 351.5,-242.5 433.5,-242.5 433.5,-223.5 351.5,-223.5"/>
<text text-anchor="middle" x="392.5" y="-230.5" font-family="Helvetica,sans-Serif" font-size="10.00" fill="#000000">Uptane::Target</text>
</a>
</g>
</g>
<!-- Node6&#45;&gt;Node5 -->
<g id="edge5" class="edge">
<title>Node6&#45;&gt;Node5</title>
<path fill="none" stroke="#9a32cd" stroke-dasharray="5,2" d="M392.5,-213.0177C392.5,-201.2164 392.5,-186.513 392.5,-175.668"/>
<polygon fill="#9a32cd" stroke="#9a32cd" points="389.0001,-213.2223 392.5,-223.2223 396.0001,-213.2224 389.0001,-213.2223"/>
<text text-anchor="middle" x="414" y="-197" font-family="Helvetica,sans-Serif" font-size="10.00" fill="#000000"> elements</text>
</g>
<!-- Node7&#45;&gt;Node1 -->
<g id="edge6" class="edge">
<title>Node7&#45;&gt;Node1</title>
<path fill="none" stroke="#9a32cd" stroke-dasharray="5,2" d="M61.2459,-70.4474C70.806,-59.4517 84.4916,-45.9121 99.5,-38 114.269,-30.2142 153.029,-22.5994 185.248,-17.2811"/>
<polygon fill="#9a32cd" stroke="#9a32cd" points="58.4831,-68.2958 54.7859,-78.2246 63.8679,-72.7685 58.4831,-68.2958"/>
<text text-anchor="middle" x="137" y="-46.5" font-family="Helvetica,sans-Serif" font-size="10.00" fill="#000000"> image_snapshot</text>
</g>
<!-- Node8&#45;&gt;Node1 -->
<g id="edge8" class="edge">
<title>Node8&#45;&gt;Node1</title>
<path fill="none" stroke="#9a32cd" stroke-dasharray="5,2" d="M176.179,-68.1075C177.3815,-58.2628 180.1876,-46.6643 186.5,-38 192.2946,-30.0465 201.0917,-23.9859 209.5788,-19.5724"/>
<polygon fill="#9a32cd" stroke="#9a32cd" points="172.6779,-67.9886 175.4013,-78.2274 179.6573,-68.525 172.6779,-67.9886"/>
<text text-anchor="middle" x="227" y="-46.5" font-family="Helvetica,sans-Serif" font-size="10.00" fill="#000000"> image_timestamp</text>
</g>
<!-- Node9&#45;&gt;Node1 -->
<g id="edge10" class="edge">
<title>Node9&#45;&gt;Node1</title>
<path fill="none" stroke="#9a32cd" stroke-dasharray="5,2" d="M285.6738,-68.8456C281.1687,-59.0698 274.9266,-47.3097 267.5,-38 261.9711,-31.0691 254.5278,-24.5787 248.1097,-19.5952"/>
<polygon fill="#9a32cd" stroke="#9a32cd" points="282.5149,-70.358 289.7167,-78.1288 288.9327,-67.563 282.5149,-70.358"/>
<text text-anchor="middle" x="309" y="-52" font-family="Helvetica,sans-Serif" font-size="10.00" fill="#000000"> image_root</text>
<text text-anchor="middle" x="309" y="-41" font-family="Helvetica,sans-Serif" font-size="10.00" fill="#000000">director_root</text>
</g>
</g>
</svg>
