<?xml version="1.0" encoding="UTF-8" standalone="no"?>
<!DOCTYPE svg PUBLIC "-//W3C//DTD SVG 1.1//EN"
 "http://www.w3.org/Graphics/SVG/1.1/DTD/svg11.dtd">
<!-- Generated by graphviz version 2.40.1 (20161225.0304)
 -->
<!-- Title: SecondaryPutMetaReq Pages: 1 -->
<svg width="214pt" height="188pt"
 viewBox="0.00 0.00 214.11 188.00" xmlns="http://www.w3.org/2000/svg" xmlns:xlink="http://www.w3.org/1999/xlink">
<g id="graph0" class="graph" transform="scale(1 1) rotate(0) translate(4 184)">
<title>SecondaryPutMetaReq</title>
<polygon fill="#ffffff" stroke="transparent" points="-4,4 -4,-184 210.1128,-184 210.1128,4 -4,4"/>
<!-- Node2 -->
<g id="node1" class="node">
<title>Node2</title>
<polygon fill="#bfbfbf" stroke="#000000" points="8.4951,-.5 8.4951,-18.5 127.8887,-18.5 127.8887,-.5 8.4951,-.5"/>
<text text-anchor="middle" x="68.1919" y="-6.5" font-family="Helvetica,sans-Serif" font-size="10.00" fill="#000000">SecondaryPutMetaReq</text>
</g>
<!-- Node3 -->
<g id="node2" class="node">
<title>Node3</title>
<g id="a_node2"><a xlink:href="struct_secondary_message.html" target="_top" xlink:title="SecondaryMessage">
<polygon fill="#ffffff" stroke="#000000" points="0,-95.5 0,-113.5 104.3838,-113.5 104.3838,-95.5 0,-95.5"/>
<text text-anchor="middle" x="52.1919" y="-101.5" font-family="Helvetica,sans-Serif" font-size="10.00" fill="#000000">SecondaryMessage</text>
</a>
</g>
</g>
<!-- Node3&#45;&gt;Node2 -->
<g id="edge1" class="edge">
<title>Node3&#45;&gt;Node2</title>
<path fill="none" stroke="#191970" d="M55.4018,-85.4413C58.8093,-65.209 64.0521,-34.08 66.6389,-18.721"/>
<polygon fill="#191970" stroke="#191970" points="51.9356,-84.9486 53.726,-95.391 58.8383,-86.1112 51.9356,-84.9486"/>
</g>
<!-- Node4 -->
<g id="node3" class="node">
<title>Node4</title>
<g id="a_node3"><a xlink:title="STL class. ">
<polygon fill="#ffffff" stroke="#bfbfbf" points="122.5171,-95.5 122.5171,-113.5 181.8667,-113.5 181.8667,-95.5 122.5171,-95.5"/>
<text text-anchor="middle" x="152.1919" y="-101.5" font-family="Helvetica,sans-Serif" font-size="10.00" fill="#000000">std::string</text>
</a>
</g>
</g>
<!-- Node4&#45;&gt;Node2 -->
<g id="edge2" class="edge">
<title>Node4&#45;&gt;Node2</title>
<path fill="none" stroke="#9a32cd" stroke-dasharray="5,2" d="M137.2868,-87.6431C119.5084,-67.5365 90.4288,-34.6488 76.3452,-18.721"/>
<polygon fill="#9a32cd" stroke="#9a32cd" points="134.8915,-90.2179 144.1376,-95.391 140.1356,-85.5811 134.8915,-90.2179"/>
<text text-anchor="middle" x="166.6523" y="-69" font-family="Helvetica,sans-Serif" font-size="10.00" fill="#000000"> director_targets</text>
<text text-anchor="middle" x="166.6523" y="-59" font-family="Helvetica,sans-Serif" font-size="10.00" fill="#000000">image_snapshot</text>
<text text-anchor="middle" x="166.6523" y="-49" font-family="Helvetica,sans-Serif" font-size="10.00" fill="#000000">image_targets</text>
<text text-anchor="middle" x="166.6523" y="-39" font-family="Helvetica,sans-Serif" font-size="10.00" fill="#000000">image_timestamp</text>
</g>
<!-- Node5 -->
<g id="node4" class="node">
<title>Node5</title>
<g id="a_node4"><a xlink:title="STL class. ">
<polygon fill="#ffffff" stroke="#bfbfbf" points="105.144,-151.5 105.144,-179.5 199.2397,-179.5 199.2397,-151.5 105.144,-151.5"/>
<text text-anchor="start" x="113.144" y="-167.5" font-family="Helvetica,sans-Serif" font-size="10.00" fill="#000000">std::basic_string&lt;</text>
<text text-anchor="middle" x="152.1919" y="-157.5" font-family="Helvetica,sans-Serif" font-size="10.00" fill="#000000"> char &gt;</text>
</a>
</g>
</g>
<!-- Node5&#45;&gt;Node4 -->
<g id="edge3" class="edge">
<title>Node5&#45;&gt;Node4</title>
<path fill="none" stroke="#191970" d="M152.1919,-141.1001C152.1919,-131.5157 152.1919,-121.0935 152.1919,-113.831"/>
<polygon fill="#191970" stroke="#191970" points="148.692,-141.352 152.1919,-151.3521 155.692,-141.3521 148.692,-141.352"/>
</g>
</g>
</svg>
