<?xml version="1.0" encoding="UTF-8" standalone="no"?>
<!DOCTYPE svg PUBLIC "-//W3C//DTD SVG 1.1//EN"
 "http://www.w3.org/Graphics/SVG/1.1/DTD/svg11.dtd">
<!-- Generated by graphviz version 2.40.1 (20161225.0304)
 -->
<!-- Title: SecondaryMessage Pages: 1 -->
<svg width="326pt" height="471pt"
 viewBox="0.00 0.00 325.57 471.00" xmlns="http://www.w3.org/2000/svg" xmlns:xlink="http://www.w3.org/1999/xlink">
<g id="graph0" class="graph" transform="scale(1 1) rotate(0) translate(4 467)">
<title>SecondaryMessage</title>
<polygon fill="#ffffff" stroke="transparent" points="-4,4 -4,-467 321.5654,-467 321.5654,4 -4,4"/>
<!-- Node0 -->
<g id="node1" class="node">
<title>Node0</title>
<polygon fill="#bfbfbf" stroke="#000000" points="0,-222.5 0,-240.5 104.3838,-240.5 104.3838,-222.5 0,-222.5"/>
<text text-anchor="middle" x="52.1919" y="-228.5" font-family="Helvetica,sans-Serif" font-size="10.00" fill="#000000">SecondaryMessage</text>
</g>
<!-- Node1 -->
<g id="node2" class="node">
<title>Node1</title>
<g id="a_node2"><a xlink:href="struct_secondary_manifest_req.html" target="_top" xlink:title="SecondaryManifestReq">
<polygon fill="#ffffff" stroke="#000000" points="169.002,-444.5 169.002,-462.5 288.9473,-462.5 288.9473,-444.5 169.002,-444.5"/>
<text text-anchor="middle" x="228.9746" y="-450.5" font-family="Helvetica,sans-Serif" font-size="10.00" fill="#000000">SecondaryManifestReq</text>
</a>
</g>
</g>
<!-- Node0&#45;&gt;Node1 -->
<g id="edge1" class="edge">
<title>Node0&#45;&gt;Node1</title>
<path fill="none" stroke="#191970" d="M54.5528,-250.54C60.6721,-291.3157 80.9508,-387.2813 140.3838,-435.5 148.5497,-442.1251 158.5094,-446.5153 168.7647,-449.3866"/>
<polygon fill="#191970" stroke="#191970" points="58.0139,-250.0168 53.1816,-240.5882 51.0794,-250.9724 58.0139,-250.0168"/>
</g>
<!-- Node2 -->
<g id="node3" class="node">
<title>Node2</title>
<g id="a_node3"><a xlink:href="struct_secondary_manifest_resp.html" target="_top" xlink:title="SecondaryManifestResp">
<polygon fill="#ffffff" stroke="#000000" points="166.502,-407.5 166.502,-425.5 291.4473,-425.5 291.4473,-407.5 166.502,-407.5"/>
<text text-anchor="middle" x="228.9746" y="-413.5" font-family="Helvetica,sans-Serif" font-size="10.00" fill="#000000">SecondaryManifestResp</text>
</a>
</g>
</g>
<!-- Node0&#45;&gt;Node2 -->
<g id="edge2" class="edge">
<title>Node0&#45;&gt;Node2</title>
<path fill="none" stroke="#191970" d="M56.4952,-250.4099C65.529,-285.5415 89.9391,-360.7304 140.3838,-398.5 148.0474,-404.238 157.0889,-408.2635 166.4164,-411.0668"/>
<polygon fill="#191970" stroke="#191970" points="59.8516,-249.3998 54.0889,-240.5093 53.0497,-251.0531 59.8516,-249.3998"/>
</g>
<!-- Node3 -->
<g id="node4" class="node">
<title>Node3</title>
<g id="a_node4"><a xlink:href="struct_secondary_public_key_req.html" target="_top" xlink:title="SecondaryPublicKeyReq">
<polygon fill="#ffffff" stroke="#000000" points="165.6646,-370.5 165.6646,-388.5 292.2847,-388.5 292.2847,-370.5 165.6646,-370.5"/>
<text text-anchor="middle" x="228.9746" y="-376.5" font-family="Helvetica,sans-Serif" font-size="10.00" fill="#000000">SecondaryPublicKeyReq</text>
</a>
</g>
</g>
<!-- Node0&#45;&gt;Node3 -->
<g id="edge3" class="edge">
<title>Node0&#45;&gt;Node3</title>
<path fill="none" stroke="#191970" d="M59.3735,-250.1747C71.4639,-278.9622 98.7201,-333.7494 140.3838,-361.5 147.96,-366.5462 156.6506,-370.2298 165.5618,-372.9092"/>
<polygon fill="#191970" stroke="#191970" points="62.4687,-248.4916 55.4839,-240.5253 55.9763,-251.1086 62.4687,-248.4916"/>
</g>
<!-- Node4 -->
<g id="node5" class="node">
<title>Node4</title>
<g id="a_node5"><a xlink:href="struct_secondary_public_key_resp.html" target="_top" xlink:title="SecondaryPublicKeyResp">
<polygon fill="#ffffff" stroke="#000000" points="163.1646,-333.5 163.1646,-351.5 294.7847,-351.5 294.7847,-333.5 163.1646,-333.5"/>
<text text-anchor="middle" x="228.9746" y="-339.5" font-family="Helvetica,sans-Serif" font-size="10.00" fill="#000000">SecondaryPublicKeyResp</text>
</a>
</g>
</g>
<!-- Node0&#45;&gt;Node4 -->
<g id="edge4" class="edge">
<title>Node0&#45;&gt;Node4</title>
<path fill="none" stroke="#191970" d="M63.738,-249.1215C78.736,-270.504 106.9878,-305.9864 140.3838,-324.5 147.3843,-328.3809 155.1115,-331.4298 162.9981,-333.8243"/>
<polygon fill="#191970" stroke="#191970" points="66.4965,-246.9538 57.9768,-240.6557 60.7094,-250.8921 66.4965,-246.9538"/>
</g>
<!-- Node5 -->
<g id="node6" class="node">
<title>Node5</title>
<g id="a_node6"><a xlink:href="struct_secondary_put_meta_req.html" target="_top" xlink:title="SecondaryPutMetaReq">
<polygon fill="#ffffff" stroke="#000000" points="169.2778,-296.5 169.2778,-314.5 288.6714,-314.5 288.6714,-296.5 169.2778,-296.5"/>
<text text-anchor="middle" x="228.9746" y="-302.5" font-family="Helvetica,sans-Serif" font-size="10.00" fill="#000000">SecondaryPutMetaReq</text>
</a>
</g>
</g>
<!-- Node0&#45;&gt;Node5 -->
<g id="edge5" class="edge">
<title>Node0&#45;&gt;Node5</title>
<path fill="none" stroke="#191970" d="M71.5141,-246.7216C88.6632,-259.4839 114.8849,-277.2237 140.3838,-287.5 149.4091,-291.1373 159.259,-294.0685 169.0048,-296.4224"/>
<polygon fill="#191970" stroke="#191970" points="73.5029,-243.8369 63.4251,-240.5674 69.2644,-249.4078 73.5029,-243.8369"/>
</g>
<!-- Node6 -->
<g id="node7" class="node">
<title>Node6</title>
<g id="a_node7"><a xlink:href="struct_secondary_put_meta_resp.html" target="_top" xlink:title="SecondaryPutMetaResp">
<polygon fill="#ffffff" stroke="#000000" points="166.7778,-259.5 166.7778,-277.5 291.1714,-277.5 291.1714,-259.5 166.7778,-259.5"/>
<text text-anchor="middle" x="228.9746" y="-265.5" font-family="Helvetica,sans-Serif" font-size="10.00" fill="#000000">SecondaryPutMetaResp</text>
</a>
</g>
</g>
<!-- Node0&#45;&gt;Node6 -->
<g id="edge6" class="edge">
<title>Node0&#45;&gt;Node6</title>
<path fill="none" stroke="#191970" d="M103.7737,-242.7191C115.7844,-245.3019 128.5268,-248.0183 140.3838,-250.5 154.5166,-253.458 169.933,-256.6147 183.8851,-259.4452"/>
<polygon fill="#191970" stroke="#191970" points="104.4055,-239.2749 93.8924,-240.589 102.9303,-246.1177 104.4055,-239.2749"/>
</g>
<!-- Node7 -->
<g id="node8" class="node">
<title>Node7</title>
<g id="a_node8"><a xlink:href="struct_secondary_put_root_req.html" target="_top" xlink:title="SecondaryPutRootReq">
<polygon fill="#ffffff" stroke="#000000" points="169.832,-222.5 169.832,-240.5 288.1172,-240.5 288.1172,-222.5 169.832,-222.5"/>
<text text-anchor="middle" x="228.9746" y="-228.5" font-family="Helvetica,sans-Serif" font-size="10.00" fill="#000000">SecondaryPutRootReq</text>
</a>
</g>
</g>
<!-- Node0&#45;&gt;Node7 -->
<g id="edge7" class="edge">
<title>Node0&#45;&gt;Node7</title>
<path fill="none" stroke="#191970" d="M114.7974,-231.5C132.6876,-231.5 152.1223,-231.5 169.8003,-231.5"/>
<polygon fill="#191970" stroke="#191970" points="114.7539,-228.0001 104.7539,-231.5 114.7539,-235.0001 114.7539,-228.0001"/>
</g>
<!-- Node8 -->
<g id="node9" class="node">
<title>Node8</title>
<g id="a_node9"><a xlink:href="struct_secondary_put_root_resp.html" target="_top" xlink:title="SecondaryPutRootResp">
<polygon fill="#ffffff" stroke="#000000" points="167.332,-185.5 167.332,-203.5 290.6172,-203.5 290.6172,-185.5 167.332,-185.5"/>
<text text-anchor="middle" x="228.9746" y="-191.5" font-family="Helvetica,sans-Serif" font-size="10.00" fill="#000000">SecondaryPutRootResp</text>
</a>
</g>
</g>
<!-- Node0&#45;&gt;Node8 -->
<g id="edge8" class="edge">
<title>Node0&#45;&gt;Node8</title>
<path fill="none" stroke="#191970" d="M105.4073,-220.3622C131.137,-214.9771 161.6185,-208.5974 185.8691,-203.5218"/>
<polygon fill="#191970" stroke="#191970" points="104.5087,-216.9744 95.4378,-222.4488 105.9428,-223.8259 104.5087,-216.9744"/>
</g>
<!-- Node9 -->
<g id="node10" class="node">
<title>Node9</title>
<g id="a_node10"><a xlink:href="struct_secondary_root_version_req.html" target="_top" xlink:title="SecondaryRootVersionReq">
<polygon fill="#ffffff" stroke="#000000" points="160.6572,-148.5 160.6572,-166.5 297.292,-166.5 297.292,-148.5 160.6572,-148.5"/>
<text text-anchor="middle" x="228.9746" y="-154.5" font-family="Helvetica,sans-Serif" font-size="10.00" fill="#000000">SecondaryRootVersionReq</text>
</a>
</g>
</g>
<!-- Node0&#45;&gt;Node9 -->
<g id="edge9" class="edge">
<title>Node0&#45;&gt;Node9</title>
<path fill="none" stroke="#191970" d="M71.8765,-216.4219C89.0754,-203.9555 115.1711,-186.7004 140.3838,-176.5 150.4453,-172.4294 161.5189,-169.1727 172.3281,-166.5871"/>
<polygon fill="#191970" stroke="#191970" points="69.6999,-213.6785 63.7454,-222.4418 73.8651,-219.3044 69.6999,-213.6785"/>
</g>
<!-- Node10 -->
<g id="node11" class="node">
<title>Node10</title>
<g id="a_node11"><a xlink:href="struct_secondary_root_version_resp.html" target="_top" xlink:title="SecondaryRootVersionResp">
<polygon fill="#ffffff" stroke="#000000" points="158.1572,-111.5 158.1572,-129.5 299.792,-129.5 299.792,-111.5 158.1572,-111.5"/>
<text text-anchor="middle" x="228.9746" y="-117.5" font-family="Helvetica,sans-Serif" font-size="10.00" fill="#000000">SecondaryRootVersionResp</text>
</a>
</g>
</g>
<!-- Node0&#45;&gt;Node10 -->
<g id="edge10" class="edge">
<title>Node0&#45;&gt;Node10</title>
<path fill="none" stroke="#191970" d="M63.8158,-214.1281C78.8933,-193.0369 107.2264,-157.999 140.3838,-139.5 147.8017,-135.3615 156.0319,-132.1235 164.4018,-129.5903"/>
<polygon fill="#191970" stroke="#191970" points="60.8479,-212.2659 58.0204,-222.4764 66.5982,-216.2577 60.8479,-212.2659"/>
</g>
<!-- Node11 -->
<g id="node12" class="node">
<title>Node11</title>
<g id="a_node12"><a xlink:href="struct_secondary_send_firmware_ostree_req.html" target="_top" xlink:title="SecondarySendFirmwareOstreeReq">
<polygon fill="#ffffff" stroke="#000000" points="140.3838,-74.5 140.3838,-92.5 317.5654,-92.5 317.5654,-74.5 140.3838,-74.5"/>
<text text-anchor="middle" x="228.9746" y="-80.5" font-family="Helvetica,sans-Serif" font-size="10.00" fill="#000000">SecondarySendFirmwareOstreeReq</text>
</a>
</g>
</g>
<!-- Node0&#45;&gt;Node11 -->
<g id="edge11" class="edge">
<title>Node0&#45;&gt;Node11</title>
<path fill="none" stroke="#191970" d="M59.628,-212.6063C71.9095,-184.0019 99.239,-130.12 140.3838,-102.5 146.5221,-98.3794 153.3927,-95.1314 160.5196,-92.5745"/>
<polygon fill="#191970" stroke="#191970" points="56.2385,-211.645 55.6603,-222.224 62.7094,-214.3145 56.2385,-211.645"/>
</g>
<!-- Node12 -->
<g id="node13" class="node">
<title>Node12</title>
<g id="a_node13"><a xlink:href="struct_secondary_send_firmware_req.html" target="_top" xlink:title="SecondarySendFirmwareReq">
<polygon fill="#ffffff" stroke="#000000" points="155.3887,-37.5 155.3887,-55.5 302.5605,-55.5 302.5605,-37.5 155.3887,-37.5"/>
<text text-anchor="middle" x="228.9746" y="-43.5" font-family="Helvetica,sans-Serif" font-size="10.00" fill="#000000">SecondarySendFirmwareReq</text>
</a>
</g>
</g>
<!-- Node0&#45;&gt;Node12 -->
<g id="edge12" class="edge">
<title>Node0&#45;&gt;Node12</title>
<path fill="none" stroke="#191970" d="M56.6984,-212.2581C65.9566,-177.2111 90.5672,-103.1242 140.3838,-65.5 145.7813,-61.4235 151.865,-58.1804 158.2522,-55.6057"/>
<polygon fill="#191970" stroke="#191970" points="53.2505,-211.6191 54.2195,-222.1695 60.0413,-213.3176 53.2505,-211.6191"/>
</g>
<!-- Node13 -->
<g id="node14" class="node">
<title>Node13</title>
<g id="a_node14"><a xlink:href="struct_secondary_send_firmware_resp.html" target="_top" xlink:title="SecondarySendFirmwareResp">
<polygon fill="#ffffff" stroke="#000000" points="152.8887,-.5 152.8887,-18.5 305.0605,-18.5 305.0605,-.5 152.8887,-.5"/>
<text text-anchor="middle" x="228.9746" y="-6.5" font-family="Helvetica,sans-Serif" font-size="10.00" fill="#000000">SecondarySendFirmwareResp</text>
</a>
</g>
</g>
<!-- Node0&#45;&gt;Node13 -->
<g id="edge13" class="edge">
<title>Node0&#45;&gt;Node13</title>
<path fill="none" stroke="#191970" d="M54.6635,-212.3393C60.9683,-171.7072 81.5394,-76.683 140.3838,-28.5 145.3737,-24.4141 151.0377,-21.1497 157.0318,-18.5483"/>
<polygon fill="#191970" stroke="#191970" points="51.1644,-212.0854 53.2168,-222.4795 58.0942,-213.0741 51.1644,-212.0854"/>
</g>
</g>
</svg>
