<?xml version="1.0" encoding="UTF-8" standalone="no"?>
<!DOCTYPE svg PUBLIC "-//W3C//DTD SVG 1.1//EN"
 "http://www.w3.org/Graphics/SVG/1.1/DTD/svg11.dtd">
<!-- Generated by graphviz version 2.38.0 (20140413.2041)
 -->
<!-- Title: ProvisionConfig Pages: 1 -->
<svg width="155pt" height="251pt"
 viewBox="0.00 0.00 154.50 251.00" xmlns="http://www.w3.org/2000/svg" xmlns:xlink="http://www.w3.org/1999/xlink">
<g id="graph0" class="graph" transform="scale(1 1) rotate(0) translate(4 247)">
<title>ProvisionConfig</title>
<polygon fill="white" stroke="none" points="-4,4 -4,-247 150.5,-247 150.5,4 -4,4"/>
<!-- Node1 -->
<g id="node1" class="node"><title>Node1</title>
<polygon fill="#bfbfbf" stroke="black" points="4.5,-0.5 4.5,-19.5 90.5,-19.5 90.5,-0.5 4.5,-0.5"/>
<text text-anchor="middle" x="47.5" y="-7.5" font-family="Helvetica,sans-Serif" font-size="10.00">ProvisionConfig</text>
</g>
<!-- Node2 -->
<g id="node2" class="node"><title>Node2</title>
<g id="a_node2"><a xlink:title="STL class. ">
<polygon fill="white" stroke="#bfbfbf" points="17.5,-155.5 17.5,-174.5 77.5,-174.5 77.5,-155.5 17.5,-155.5"/>
<text text-anchor="middle" x="47.5" y="-162.5" font-family="Helvetica,sans-Serif" font-size="10.00">std::string</text>
</a>
</g>
</g>
<!-- Node2&#45;&gt;Node1 -->
<g id="edge1" class="edge"><title>Node2&#45;&gt;Node1</title>
<path fill="none" stroke="#9a32cd" stroke-dasharray="5,2" d="M47.5,-145.105C47.5,-111.716 47.5,-43.5423 47.5,-19.5693"/>
<polygon fill="#9a32cd" stroke="#9a32cd" points="44.0001,-145.336 47.5,-155.336 51.0001,-145.336 44.0001,-145.336"/>
<text text-anchor="middle" x="97" y="-129" font-family="Helvetica,sans-Serif" font-size="10.00"> server</text>
<text text-anchor="middle" x="97" y="-118" font-family="Helvetica,sans-Serif" font-size="10.00">p12_password</text>
<text text-anchor="start" x="47.5" y="-107" font-family="Helvetica,sans-Serif" font-size="10.00">primary_ecu_hardware</text>
<text text-anchor="middle" x="97" y="-96" font-family="Helvetica,sans-Serif" font-size="10.00">_id</text>
<text text-anchor="middle" x="97" y="-85" font-family="Helvetica,sans-Serif" font-size="10.00">expiry_days</text>
<text text-anchor="middle" x="97" y="-74" font-family="Helvetica,sans-Serif" font-size="10.00">device_id</text>
<text text-anchor="start" x="47.5" y="-63" font-family="Helvetica,sans-Serif" font-size="10.00">ecu_registration</text>
<text text-anchor="middle" x="97" y="-52" font-family="Helvetica,sans-Serif" font-size="10.00">_endpoint</text>
<text text-anchor="middle" x="97" y="-41" font-family="Helvetica,sans-Serif" font-size="10.00">primary_ecu_serial</text>
</g>
<!-- Node3 -->
<g id="node3" class="node"><title>Node3</title>
<g id="a_node3"><a xlink:title="STL class. ">
<polygon fill="white" stroke="#bfbfbf" points="0,-212.5 0,-242.5 95,-242.5 95,-212.5 0,-212.5"/>
<text text-anchor="start" x="8" y="-230.5" font-family="Helvetica,sans-Serif" font-size="10.00">std::basic_string&lt;</text>
<text text-anchor="middle" x="47.5" y="-219.5" font-family="Helvetica,sans-Serif" font-size="10.00"> char &gt;</text>
</a>
</g>
</g>
<!-- Node3&#45;&gt;Node2 -->
<g id="edge2" class="edge"><title>Node3&#45;&gt;Node2</title>
<path fill="none" stroke="midnightblue" d="M47.5,-202.352C47.5,-192.513 47.5,-181.775 47.5,-174.54"/>
<polygon fill="midnightblue" stroke="midnightblue" points="44.0001,-202.468 47.5,-212.468 51.0001,-202.468 44.0001,-202.468"/>
</g>
</g>
</svg>
