<?xml version="1.0" encoding="UTF-8" standalone="no"?>
<!DOCTYPE svg PUBLIC "-//W3C//DTD SVG 1.1//EN"
 "http://www.w3.org/Graphics/SVG/1.1/DTD/svg11.dtd">
<!-- Generated by graphviz version 2.38.0 (20140413.2041)
 -->
<!-- Title: KeyManagerConfig Pages: 1 -->
<svg width="127pt" height="274pt"
 viewBox="0.00 0.00 127.00 274.00" xmlns="http://www.w3.org/2000/svg" xmlns:xlink="http://www.w3.org/1999/xlink">
<g id="graph0" class="graph" transform="scale(1 1) rotate(0) translate(4 270)">
<title>KeyManagerConfig</title>
<polygon fill="white" stroke="none" points="-4,4 -4,-270 123,-270 123,4 -4,4"/>
<!-- Node1 -->
<g id="node1" class="node"><title>Node1</title>
<polygon fill="#bfbfbf" stroke="black" points="0,-0.5 0,-19.5 100,-19.5 100,-0.5 0,-0.5"/>
<text text-anchor="middle" x="50" y="-7.5" font-family="Helvetica,sans-Serif" font-size="10.00">KeyManagerConfig</text>
</g>
<!-- Node2 -->
<g id="node2" class="node"><title>Node2</title>
<g id="a_node2"><a xlink:href="struct_p11_config.html" target="_top" xlink:title="P11Config">
<polygon fill="white" stroke="black" points="19,-67.5 19,-86.5 81,-86.5 81,-67.5 19,-67.5"/>
<text text-anchor="middle" x="50" y="-74.5" font-family="Helvetica,sans-Serif" font-size="10.00">P11Config</text>
</a>
</g>
</g>
<!-- Node2&#45;&gt;Node1 -->
<g id="edge1" class="edge"><title>Node2&#45;&gt;Node1</title>
<path fill="none" stroke="#9a32cd" stroke-dasharray="5,2" d="M50,-57.037C50,-44.6703 50,-29.1198 50,-19.6273"/>
<polygon fill="#9a32cd" stroke="#9a32cd" points="46.5001,-57.2338 50,-67.2338 53.5001,-57.2338 46.5001,-57.2338"/>
<text text-anchor="middle" x="59.5" y="-41" font-family="Helvetica,sans-Serif" font-size="10.00"> p11</text>
</g>
<!-- Node3 -->
<g id="node3" class="node"><title>Node3</title>
<g id="a_node3"><a xlink:title="STL class. ">
<polygon fill="white" stroke="#bfbfbf" points="20,-178.5 20,-197.5 80,-197.5 80,-178.5 20,-178.5"/>
<text text-anchor="middle" x="50" y="-185.5" font-family="Helvetica,sans-Serif" font-size="10.00">std::string</text>
</a>
</g>
</g>
<!-- Node3&#45;&gt;Node2 -->
<g id="edge2" class="edge"><title>Node3&#45;&gt;Node2</title>
<path fill="none" stroke="#9a32cd" stroke-dasharray="5,2" d="M50,-168.193C50,-144.276 50,-103.989 50,-86.5133"/>
<polygon fill="#9a32cd" stroke="#9a32cd" points="46.5001,-168.447 50,-178.447 53.5001,-168.447 46.5001,-168.447"/>
<text text-anchor="middle" x="84.5" y="-152" font-family="Helvetica,sans-Serif" font-size="10.00"> tls_pkey_id</text>
<text text-anchor="middle" x="84.5" y="-141" font-family="Helvetica,sans-Serif" font-size="10.00">tls_clientcert_id</text>
<text text-anchor="middle" x="84.5" y="-130" font-family="Helvetica,sans-Serif" font-size="10.00">pass</text>
<text text-anchor="middle" x="84.5" y="-119" font-family="Helvetica,sans-Serif" font-size="10.00">uptane_key_id</text>
<text text-anchor="middle" x="84.5" y="-108" font-family="Helvetica,sans-Serif" font-size="10.00">tls_cacert_id</text>
</g>
<!-- Node4 -->
<g id="node4" class="node"><title>Node4</title>
<g id="a_node4"><a xlink:title="STL class. ">
<polygon fill="white" stroke="#bfbfbf" points="2.5,-235.5 2.5,-265.5 97.5,-265.5 97.5,-235.5 2.5,-235.5"/>
<text text-anchor="start" x="10.5" y="-253.5" font-family="Helvetica,sans-Serif" font-size="10.00">std::basic_string&lt;</text>
<text text-anchor="middle" x="50" y="-242.5" font-family="Helvetica,sans-Serif" font-size="10.00"> char &gt;</text>
</a>
</g>
</g>
<!-- Node4&#45;&gt;Node3 -->
<g id="edge3" class="edge"><title>Node4&#45;&gt;Node3</title>
<path fill="none" stroke="midnightblue" d="M50,-225.352C50,-215.513 50,-204.775 50,-197.54"/>
<polygon fill="midnightblue" stroke="midnightblue" points="46.5001,-225.468 50,-235.468 53.5001,-225.468 46.5001,-225.468"/>
</g>
</g>
</svg>
