<?xml version="1.0" encoding="UTF-8" standalone="no"?>
<!DOCTYPE svg PUBLIC "-//W3C//DTD SVG 1.1//EN"
 "http://www.w3.org/Graphics/SVG/1.1/DTD/svg11.dtd">
<!-- Generated by graphviz version 2.40.1 (20161225.0304)
 -->
<!-- Title: src/libaktualizr/utilities/types.h Pages: 1 -->
<svg width="198pt" height="95pt"
 viewBox="0.00 0.00 197.50 95.00" xmlns="http://www.w3.org/2000/svg" xmlns:xlink="http://www.w3.org/1999/xlink">
<g id="graph0" class="graph" transform="scale(1 1) rotate(0) translate(4 91)">
<title>src/libaktualizr/utilities/types.h</title>
<polygon fill="#ffffff" stroke="transparent" points="-4,4 -4,-91 193.5,-91 193.5,4 -4,4"/>
<!-- Node0 -->
<g id="node1" class="node">
<title>Node0</title>
<polygon fill="#bfbfbf" stroke="#000000" points="27.5,-56.5 27.5,-86.5 140.5,-86.5 140.5,-56.5 27.5,-56.5"/>
<text text-anchor="start" x="35.5" y="-74.5" font-family="Helvetica,sans-Serif" font-size="10.00" fill="#000000">src/libaktualizr/utilities</text>
<text text-anchor="middle" x="84" y="-63.5" font-family="Helvetica,sans-Serif" font-size="10.00" fill="#000000">/types.h</text>
</g>
<!-- Node1 -->
<g id="node2" class="node">
<title>Node1</title>
<polygon fill="#ffffff" stroke="#bfbfbf" points="0,-.5 0,-19.5 64,-19.5 64,-.5 0,-.5"/>
<text text-anchor="middle" x="32" y="-7.5" font-family="Helvetica,sans-Serif" font-size="10.00" fill="#000000">json/json.h</text>
</g>
<!-- Node0&#45;&gt;Node1 -->
<g id="edge1" class="edge">
<title>Node0&#45;&gt;Node1</title>
<path fill="none" stroke="#191970" d="M71.1461,-56.2977C63.7776,-47.5831 54.4974,-36.6075 46.8223,-27.5302"/>
<polygon fill="#191970" stroke="#191970" points="49.4552,-25.2233 40.3259,-19.8469 44.1098,-29.743 49.4552,-25.2233"/>
</g>
<!-- Node2 -->
<g id="node3" class="node">
<title>Node2</title>
<polygon fill="#ffffff" stroke="#bfbfbf" points="82.5,-.5 82.5,-19.5 189.5,-19.5 189.5,-.5 82.5,-.5"/>
<text text-anchor="middle" x="136" y="-7.5" font-family="Helvetica,sans-Serif" font-size="10.00" fill="#000000">boost/filesystem.hpp</text>
</g>
<!-- Node0&#45;&gt;Node2 -->
<g id="edge2" class="edge">
<title>Node0&#45;&gt;Node2</title>
<path fill="none" stroke="#191970" d="M96.8539,-56.2977C104.2224,-47.5831 113.5026,-36.6075 121.1777,-27.5302"/>
<polygon fill="#191970" stroke="#191970" points="123.8902,-29.743 127.6741,-19.8469 118.5448,-25.2233 123.8902,-29.743"/>
</g>
</g>
</svg>
